<?xml version="1.0" encoding="UTF-8" standalone="no"?>
<!DOCTYPE svg PUBLIC "-//W3C//DTD SVG 1.1//EN"
 "http://www.w3.org/Graphics/SVG/1.1/DTD/svg11.dtd">
<!-- Generated by graphviz version 2.40.1 (20161225.0304)
 -->
<!-- Title: dependencies Pages: 1 -->
<svg width="674pt" height="211pt"
 viewBox="0.00 0.00 674.00 211.00" xmlns="http://www.w3.org/2000/svg" xmlns:xlink="http://www.w3.org/1999/xlink">
<g id="graph0" class="graph" transform="scale(1 1) rotate(0) translate(4 207)">
<title>dependencies</title>
<polygon fill="#ffffff" stroke="transparent" points="-4,4 -4,-207 670,-207 670,4 -4,4"/>
<text text-anchor="start" x="312.0091" y="-42.4" font-family="sans-serif" font-weight="bold" font-size="14.00" fill="#000000">Legend</text>
<polygon fill="#ffffb3" stroke="transparent" points="99,-10 99,-30 119,-30 119,-10 99,-10"/>
<text text-anchor="start" x="122.629" y="-15.4" font-family="sans-serif" font-size="14.00" fill="#000000"> &#160;Declarations</text>
<polygon fill="#8dd3c7" stroke="transparent" points="212,-10 212,-30 232,-30 232,-10 212,-10"/>
<text text-anchor="start" x="235.7251" y="-15.4" font-family="sans-serif" font-size="14.00" fill="#000000"> &#160;Module</text>
<polygon fill="#80b1d3" stroke="transparent" points="298,-10 298,-30 318,-30 318,-10 298,-10"/>
<text text-anchor="start" x="321.7812" y="-15.4" font-family="sans-serif" font-size="14.00" fill="#000000"> &#160;Bootstrap</text>
<polygon fill="#fdb462" stroke="transparent" points="395,-10 395,-30 415,-30 415,-10 395,-10"/>
<text text-anchor="start" x="418.6732" y="-15.4" font-family="sans-serif" font-size="14.00" fill="#000000"> &#160;Providers</text>
<polygon fill="#fb8072" stroke="transparent" points="491,-10 491,-30 511,-30 511,-10 491,-10"/>
<text text-anchor="start" x="514.7258" y="-15.4" font-family="sans-serif" font-size="14.00" fill="#000000"> &#160;Exports</text>
<g id="clust1" class="cluster">
<title>cluster_AboutPageModule</title>
<polygon fill="none" stroke="#000000" stroke-dasharray="1,5" points="8,-70 8,-195 658,-195 658,-70 8,-70"/>
</g>
<g id="clust2" class="cluster">
<title>cluster_AboutPageModule_declarations</title>
<polygon fill="none" stroke="#000000" points="556,-78 556,-130 650,-130 650,-78 556,-78"/>
</g>
<g id="clust4" class="cluster">
<title>cluster_AboutPageModule_imports</title>
<polygon fill="none" stroke="#000000" points="16,-78 16,-130 548,-130 548,-78 16,-78"/>
</g>
<!-- AboutPage -->
<g id="node1" class="node">
<title>AboutPage</title>
<polygon fill="#ffffb3" stroke="#000000" points="642.2093,-122 563.7907,-122 563.7907,-86 642.2093,-86 642.2093,-122"/>
<text text-anchor="middle" x="603" y="-99.8" font-family="Times,serif" font-size="14.00" fill="#000000">AboutPage</text>
</g>
<!-- AboutPageModule -->
<g id="node2" class="node">
<title>AboutPageModule</title>
<polygon fill="#8dd3c7" stroke="#000000" points="423.759,-187 420.759,-191 399.759,-191 396.759,-187 302.241,-187 302.241,-151 423.759,-151 423.759,-187"/>
<text text-anchor="middle" x="363" y="-164.8" font-family="Times,serif" font-size="14.00" fill="#000000">AboutPageModule</text>
</g>
<!-- AboutPage&#45;&gt;AboutPageModule -->
<g id="edge1" class="edge">
<title>AboutPage&#45;&gt;AboutPageModule</title>
<path fill="none" stroke="#000000" d="M603,-122.1061C603,-141.3391 603,-169 603,-169 603,-169 433.8724,-169 433.8724,-169"/>
<polygon fill="#000000" stroke="#000000" points="433.8724,-165.5001 423.8724,-169 433.8724,-172.5001 433.8724,-165.5001"/>
</g>
<!-- CommonModule -->
<g id="node3" class="node">
<title>CommonModule</title>
<polygon fill="#8dd3c7" stroke="#000000" points="539.6681,-122 536.6681,-126 515.6681,-126 512.6681,-122 428.3319,-122 428.3319,-86 539.6681,-86 539.6681,-122"/>
<text text-anchor="middle" x="484" y="-99.8" font-family="Times,serif" font-size="14.00" fill="#000000">CommonModule</text>
</g>
<!-- CommonModule&#45;&gt;AboutPageModule -->
<g id="edge2" class="edge">
<title>CommonModule&#45;&gt;AboutPageModule</title>
<path fill="none" stroke="#000000" d="M428.2906,-104C421.707,-104 417.2718,-104 417.2718,-104 417.2718,-104 417.2718,-140.8939 417.2718,-140.8939"/>
<polygon fill="#000000" stroke="#000000" points="413.7718,-140.8938 417.2718,-150.8939 420.7718,-140.8939 413.7718,-140.8938"/>
</g>
<!-- FormsModule -->
<g id="node4" class="node">
<title>FormsModule</title>
<polygon fill="#8dd3c7" stroke="#000000" points="410.8288,-122 407.8288,-126 386.8288,-126 383.8288,-122 315.1712,-122 315.1712,-86 410.8288,-86 410.8288,-122"/>
<text text-anchor="middle" x="363" y="-99.8" font-family="Times,serif" font-size="14.00" fill="#000000">FormsModule</text>
</g>
<!-- FormsModule&#45;&gt;AboutPageModule -->
<g id="edge3" class="edge">
<title>FormsModule&#45;&gt;AboutPageModule</title>
<path fill="none" stroke="#000000" d="M363,-122.1061C363,-122.1061 363,-140.991 363,-140.991"/>
<polygon fill="#000000" stroke="#000000" points="359.5001,-140.9909 363,-150.991 366.5001,-140.991 359.5001,-140.9909"/>
</g>
<!-- IonicModule -->
<g id="node5" class="node">
<title>IonicModule</title>
<polygon fill="#8dd3c7" stroke="#000000" points="297.3162,-122 294.3162,-126 273.3162,-126 270.3162,-122 208.6838,-122 208.6838,-86 297.3162,-86 297.3162,-122"/>
<text text-anchor="middle" x="253" y="-99.8" font-family="Times,serif" font-size="14.00" fill="#000000">IonicModule</text>
</g>
<!-- IonicModule&#45;&gt;AboutPageModule -->
<g id="edge4" class="edge">
<title>IonicModule&#45;&gt;AboutPageModule</title>
<path fill="none" stroke="#000000" d="M297.1813,-104C303.9451,-104 308.7283,-104 308.7283,-104 308.7283,-104 308.7283,-140.8939 308.7283,-140.8939"/>
<polygon fill="#000000" stroke="#000000" points="305.2283,-140.8938 308.7283,-150.8939 312.2283,-140.8939 305.2283,-140.8938"/>
</g>
<!-- AboutPageRoutingModule -->
<g id="node6" class="node">
<title>AboutPageRoutingModule</title>
<polygon fill="#8dd3c7" stroke="#000000" points="190.3766,-122 187.3766,-126 166.3766,-126 163.3766,-122 23.6234,-122 23.6234,-86 190.3766,-86 190.3766,-122"/>
<text text-anchor="middle" x="107" y="-99.8" font-family="Times,serif" font-size="14.00" fill="#000000">AboutPageRoutingModule</text>
</g>
<!-- AboutPageRoutingModule&#45;&gt;AboutPageModule -->
<g id="edge5" class="edge">
<title>AboutPageRoutingModule&#45;&gt;AboutPageModule</title>
<path fill="none" stroke="#000000" d="M107,-122.1061C107,-141.3391 107,-169 107,-169 107,-169 292.0069,-169 292.0069,-169"/>
<polygon fill="#000000" stroke="#000000" points="292.0069,-172.5001 302.0069,-169 292.0068,-165.5001 292.0069,-172.5001"/>
</g>
</g>
</svg>
