<?xml version="1.0" encoding="UTF-8" standalone="no"?>
<!DOCTYPE svg PUBLIC "-//W3C//DTD SVG 1.1//EN"
 "http://www.w3.org/Graphics/SVG/1.1/DTD/svg11.dtd">
<!-- Generated by graphviz version 2.40.1 (20161225.0304)
 -->
<!-- Title: dependencies Pages: 1 -->
<svg width="1145pt" height="211pt"
 viewBox="0.00 0.00 1145.00 211.00" xmlns="http://www.w3.org/2000/svg" xmlns:xlink="http://www.w3.org/1999/xlink">
<g id="graph0" class="graph" transform="scale(1 1) rotate(0) translate(4 207)">
<title>dependencies</title>
<polygon fill="#ffffff" stroke="transparent" points="-4,4 -4,-207 1141,-207 1141,4 -4,4"/>
<text text-anchor="start" x="547.5091" y="-42.4" font-family="sans-serif" font-weight="bold" font-size="14.00" fill="#000000">Legend</text>
<polygon fill="#ffffb3" stroke="transparent" points="334.5,-10 334.5,-30 354.5,-30 354.5,-10 334.5,-10"/>
<text text-anchor="start" x="358.129" y="-15.4" font-family="sans-serif" font-size="14.00" fill="#000000"> &#160;Declarations</text>
<polygon fill="#8dd3c7" stroke="transparent" points="447.5,-10 447.5,-30 467.5,-30 467.5,-10 447.5,-10"/>
<text text-anchor="start" x="471.2251" y="-15.4" font-family="sans-serif" font-size="14.00" fill="#000000"> &#160;Module</text>
<polygon fill="#80b1d3" stroke="transparent" points="533.5,-10 533.5,-30 553.5,-30 553.5,-10 533.5,-10"/>
<text text-anchor="start" x="557.2812" y="-15.4" font-family="sans-serif" font-size="14.00" fill="#000000"> &#160;Bootstrap</text>
<polygon fill="#fdb462" stroke="transparent" points="630.5,-10 630.5,-30 650.5,-30 650.5,-10 630.5,-10"/>
<text text-anchor="start" x="654.1732" y="-15.4" font-family="sans-serif" font-size="14.00" fill="#000000"> &#160;Providers</text>
<polygon fill="#fb8072" stroke="transparent" points="726.5,-10 726.5,-30 746.5,-30 746.5,-10 726.5,-10"/>
<text text-anchor="start" x="750.2258" y="-15.4" font-family="sans-serif" font-size="14.00" fill="#000000"> &#160;Exports</text>
<g id="clust1" class="cluster">
<title>cluster_GameModule</title>
<polygon fill="none" stroke="#000000" stroke-dasharray="1,5" points="8,-70 8,-195 1129,-195 1129,-70 8,-70"/>
</g>
<g id="clust2" class="cluster">
<title>cluster_GameModule_declarations</title>
<polygon fill="none" stroke="#000000" points="178,-78 178,-130 1121,-130 1121,-78 178,-78"/>
</g>
<g id="clust10" class="cluster">
<title>cluster_GameModule_imports</title>
<polygon fill="none" stroke="#000000" points="16,-78 16,-130 170,-130 170,-78 16,-78"/>
</g>
<!-- BoardComponent -->
<g id="node1" class="node">
<title>BoardComponent</title>
<polygon fill="#ffffb3" stroke="#000000" points="1112.5451,-122 997.4549,-122 997.4549,-86 1112.5451,-86 1112.5451,-122"/>
<text text-anchor="middle" x="1055" y="-99.8" font-family="Times,serif" font-size="14.00" fill="#000000">BoardComponent</text>
</g>
<!-- GameModule -->
<g id="node8" class="node">
<title>GameModule</title>
<polygon fill="#8dd3c7" stroke="#000000" points="617.4762,-187 614.4762,-191 593.4762,-191 590.4762,-187 524.5238,-187 524.5238,-151 617.4762,-151 617.4762,-187"/>
<text text-anchor="middle" x="571" y="-164.8" font-family="Times,serif" font-size="14.00" fill="#000000">GameModule</text>
</g>
<!-- BoardComponent&#45;&gt;GameModule -->
<g id="edge1" class="edge">
<title>BoardComponent&#45;&gt;GameModule</title>
<path fill="none" stroke="#000000" d="M1055,-122.2921C1055,-144.2057 1055,-178 1055,-178 1055,-178 627.8477,-178 627.8477,-178"/>
<polygon fill="#000000" stroke="#000000" points="627.8478,-174.5001 617.8477,-178 627.8477,-181.5001 627.8478,-174.5001"/>
</g>
<!-- ConsoleComponent -->
<g id="node2" class="node">
<title>ConsoleComponent</title>
<polygon fill="#ffffb3" stroke="#000000" points="979.719,-122 852.281,-122 852.281,-86 979.719,-86 979.719,-122"/>
<text text-anchor="middle" x="916" y="-99.8" font-family="Times,serif" font-size="14.00" fill="#000000">ConsoleComponent</text>
</g>
<!-- ConsoleComponent&#45;&gt;GameModule -->
<g id="edge2" class="edge">
<title>ConsoleComponent&#45;&gt;GameModule</title>
<path fill="none" stroke="#000000" d="M916,-122.1061C916,-141.3391 916,-169 916,-169 916,-169 627.5282,-169 627.5282,-169"/>
<polygon fill="#000000" stroke="#000000" points="627.5283,-165.5001 617.5282,-169 627.5282,-172.5001 627.5283,-165.5001"/>
</g>
<!-- ControlComponent -->
<g id="node3" class="node">
<title>ControlComponent</title>
<polygon fill="#ffffb3" stroke="#000000" points="834.1108,-122 709.8892,-122 709.8892,-86 834.1108,-86 834.1108,-122"/>
<text text-anchor="middle" x="772" y="-99.8" font-family="Times,serif" font-size="14.00" fill="#000000">ControlComponent</text>
</g>
<!-- ControlComponent&#45;&gt;GameModule -->
<g id="edge3" class="edge">
<title>ControlComponent&#45;&gt;GameModule</title>
<path fill="none" stroke="#000000" d="M772,-122.027C772,-138.3976 772,-160 772,-160 772,-160 627.6187,-160 627.6187,-160"/>
<polygon fill="#000000" stroke="#000000" points="627.6187,-156.5001 617.6187,-160 627.6186,-163.5001 627.6187,-156.5001"/>
</g>
<!-- GameComponent -->
<g id="node4" class="node">
<title>GameComponent</title>
<polygon fill="#ffffb3" stroke="#000000" points="692.2591,-122 577.7409,-122 577.7409,-86 692.2591,-86 692.2591,-122"/>
<text text-anchor="middle" x="635" y="-99.8" font-family="Times,serif" font-size="14.00" fill="#000000">GameComponent</text>
</g>
<!-- GameComponent&#45;&gt;GameModule -->
<g id="edge4" class="edge">
<title>GameComponent&#45;&gt;GameModule</title>
<path fill="none" stroke="#000000" d="M597.5544,-122.1061C597.5544,-122.1061 597.5544,-140.991 597.5544,-140.991"/>
<polygon fill="#000000" stroke="#000000" points="594.0544,-140.9909 597.5544,-150.991 601.0544,-140.991 594.0544,-140.9909"/>
</g>
<!-- HexComponent -->
<g id="node5" class="node">
<title>HexComponent</title>
<polygon fill="#ffffb3" stroke="#000000" points="559.1542,-122 454.8458,-122 454.8458,-86 559.1542,-86 559.1542,-122"/>
<text text-anchor="middle" x="507" y="-99.8" font-family="Times,serif" font-size="14.00" fill="#000000">HexComponent</text>
</g>
<!-- HexComponent&#45;&gt;GameModule -->
<g id="edge5" class="edge">
<title>HexComponent&#45;&gt;GameModule</title>
<path fill="none" stroke="#000000" d="M541.9194,-122.1061C541.9194,-122.1061 541.9194,-140.991 541.9194,-140.991"/>
<polygon fill="#000000" stroke="#000000" points="538.4194,-140.9909 541.9194,-150.991 545.4194,-140.991 538.4194,-140.9909"/>
</g>
<!-- InfoComponent -->
<g id="node6" class="node">
<title>InfoComponent</title>
<polygon fill="#ffffb3" stroke="#000000" points="436.1542,-122 331.8458,-122 331.8458,-86 436.1542,-86 436.1542,-122"/>
<text text-anchor="middle" x="384" y="-99.8" font-family="Times,serif" font-size="14.00" fill="#000000">InfoComponent</text>
</g>
<!-- InfoComponent&#45;&gt;GameModule -->
<g id="edge6" class="edge">
<title>InfoComponent&#45;&gt;GameModule</title>
<path fill="none" stroke="#000000" d="M384,-122.027C384,-138.3976 384,-160 384,-160 384,-160 514.2944,-160 514.2944,-160"/>
<polygon fill="#000000" stroke="#000000" points="514.2944,-163.5001 524.2944,-160 514.2943,-156.5001 514.2944,-163.5001"/>
</g>
<!-- PenguinComponent -->
<g id="node7" class="node">
<title>PenguinComponent</title>
<polygon fill="#ffffb3" stroke="#000000" points="313.7204,-122 186.2796,-122 186.2796,-86 313.7204,-86 313.7204,-122"/>
<text text-anchor="middle" x="250" y="-99.8" font-family="Times,serif" font-size="14.00" fill="#000000">PenguinComponent</text>
</g>
<!-- PenguinComponent&#45;&gt;GameModule -->
<g id="edge7" class="edge">
<title>PenguinComponent&#45;&gt;GameModule</title>
<path fill="none" stroke="#000000" d="M250,-122.1061C250,-141.3391 250,-169 250,-169 250,-169 514.3238,-169 514.3238,-169"/>
<polygon fill="#000000" stroke="#000000" points="514.3239,-172.5001 524.3238,-169 514.3238,-165.5001 514.3239,-172.5001"/>
</g>
<!-- GameRoutingModule -->
<g id="node9" class="node">
<title>GameRoutingModule</title>
<polygon fill="#8dd3c7" stroke="#000000" points="162.094,-122 159.094,-126 138.094,-126 135.094,-122 23.906,-122 23.906,-86 162.094,-86 162.094,-122"/>
<text text-anchor="middle" x="93" y="-99.8" font-family="Times,serif" font-size="14.00" fill="#000000">GameRoutingModule</text>
</g>
<!-- GameRoutingModule&#45;&gt;GameModule -->
<g id="edge8" class="edge">
<title>GameRoutingModule&#45;&gt;GameModule</title>
<path fill="none" stroke="#000000" d="M93,-122.2921C93,-144.2057 93,-178 93,-178 93,-178 514.297,-178 514.297,-178"/>
<polygon fill="#000000" stroke="#000000" points="514.2971,-181.5001 524.297,-178 514.297,-174.5001 514.2971,-181.5001"/>
</g>
</g>
</svg>
