<?xml version="1.0" encoding="UTF-8" standalone="no"?>
<!DOCTYPE svg PUBLIC "-//W3C//DTD SVG 1.1//EN"
 "http://www.w3.org/Graphics/SVG/1.1/DTD/svg11.dtd">
<!-- Generated by graphviz version 2.40.1 (20161225.0304)
 -->
<!-- Title: dependencies Pages: 1 -->
<svg width="4942pt" height="360pt"
 viewBox="0.00 0.00 4942.00 360.00" xmlns="http://www.w3.org/2000/svg" xmlns:xlink="http://www.w3.org/1999/xlink">
<g id="graph0" class="graph" transform="scale(1 1) rotate(0) translate(4 356)">
<title>dependencies</title>
<polygon fill="#ffffff" stroke="transparent" points="-4,4 -4,-356 4938,-356 4938,4 -4,4"/>
<text text-anchor="start" x="2446.0091" y="-42.4" font-family="sans-serif" font-weight="bold" font-size="14.00" fill="#000000">Legend</text>
<polygon fill="#ffffb3" stroke="transparent" points="2233,-10 2233,-30 2253,-30 2253,-10 2233,-10"/>
<text text-anchor="start" x="2256.629" y="-15.4" font-family="sans-serif" font-size="14.00" fill="#000000"> &#160;Declarations</text>
<polygon fill="#8dd3c7" stroke="transparent" points="2346,-10 2346,-30 2366,-30 2366,-10 2346,-10"/>
<text text-anchor="start" x="2369.7251" y="-15.4" font-family="sans-serif" font-size="14.00" fill="#000000"> &#160;Module</text>
<polygon fill="#80b1d3" stroke="transparent" points="2432,-10 2432,-30 2452,-30 2452,-10 2432,-10"/>
<text text-anchor="start" x="2455.7812" y="-15.4" font-family="sans-serif" font-size="14.00" fill="#000000"> &#160;Bootstrap</text>
<polygon fill="#fdb462" stroke="transparent" points="2529,-10 2529,-30 2549,-30 2549,-10 2529,-10"/>
<text text-anchor="start" x="2552.6732" y="-15.4" font-family="sans-serif" font-size="14.00" fill="#000000"> &#160;Providers</text>
<polygon fill="#fb8072" stroke="transparent" points="2625,-10 2625,-30 2645,-30 2645,-10 2625,-10"/>
<text text-anchor="start" x="2648.7258" y="-15.4" font-family="sans-serif" font-size="14.00" fill="#000000"> &#160;Exports</text>
<g id="clust1" class="cluster">
<title>cluster_AboutPageModule</title>
<polygon fill="none" stroke="#000000" stroke-dasharray="1,5" points="778,-146 778,-271 1428,-271 1428,-146 778,-146"/>
</g>
<g id="clust2" class="cluster">
<title>cluster_AboutPageModule_declarations</title>
<polygon fill="none" stroke="#000000" points="786,-154 786,-206 880,-206 880,-154 786,-154"/>
</g>
<g id="clust4" class="cluster">
<title>cluster_AboutPageModule_imports</title>
<polygon fill="none" stroke="#000000" points="888,-154 888,-206 1420,-206 1420,-154 888,-154"/>
</g>
<g id="clust8" class="cluster">
<title>cluster_AboutPageRoutingModule</title>
<polygon fill="none" stroke="#000000" stroke-dasharray="1,5" points="829,-70 829,-138 1169,-138 1169,-70 829,-70"/>
</g>
<g id="clust10" class="cluster">
<title>cluster_AboutPageRoutingModule_imports</title>
<polygon fill="none" stroke="#000000" points="963,-78 963,-130 1161,-130 1161,-78 963,-78"/>
</g>
<g id="clust11" class="cluster">
<title>cluster_AboutPageRoutingModule_exports</title>
<polygon fill="none" stroke="#000000" points="837,-78 837,-130 955,-130 955,-78 837,-78"/>
</g>
<g id="clust14" class="cluster">
<title>cluster_AppModule</title>
<polygon fill="none" stroke="#000000" stroke-dasharray="1,5" points="3221,-146 3221,-344 4926,-344 4926,-146 3221,-146"/>
</g>
<g id="clust15" class="cluster">
<title>cluster_AppModule_declarations</title>
<polygon fill="none" stroke="#000000" points="4796,-154 4796,-206 4918,-206 4918,-154 4796,-154"/>
</g>
<g id="clust17" class="cluster">
<title>cluster_AppModule_imports</title>
<polygon fill="none" stroke="#000000" points="4027,-154 4027,-206 4788,-206 4788,-154 4027,-154"/>
</g>
<g id="clust19" class="cluster">
<title>cluster_AppModule_bootstrap</title>
<polygon fill="none" stroke="#000000" points="4138,-284 4138,-336 4262,-336 4262,-284 4138,-284"/>
</g>
<g id="clust20" class="cluster">
<title>cluster_AppModule_providers</title>
<polygon fill="none" stroke="#000000" points="3229,-154 3229,-206 4019,-206 4019,-154 3229,-154"/>
</g>
<g id="clust21" class="cluster">
<title>cluster_DocumentationPageModule</title>
<polygon fill="none" stroke="#000000" stroke-dasharray="1,5" points="1436,-146 1436,-271 1840,-271 1840,-146 1436,-146"/>
</g>
<g id="clust22" class="cluster">
<title>cluster_DocumentationPageModule_declarations</title>
<polygon fill="none" stroke="#000000" points="1686,-154 1686,-206 1832,-206 1832,-154 1686,-154"/>
</g>
<g id="clust24" class="cluster">
<title>cluster_DocumentationPageModule_imports</title>
<polygon fill="none" stroke="#000000" points="1444,-154 1444,-206 1678,-206 1678,-154 1444,-154"/>
</g>
<g id="clust34" class="cluster">
<title>cluster_GamePageModule</title>
<polygon fill="none" stroke="#000000" stroke-dasharray="1,5" points="1848,-146 1848,-271 3213,-271 3213,-146 1848,-146"/>
</g>
<g id="clust35" class="cluster">
<title>cluster_GamePageModule_declarations</title>
<polygon fill="none" stroke="#000000" points="2160,-154 2160,-206 3205,-206 3205,-154 2160,-154"/>
</g>
<g id="clust44" class="cluster">
<title>cluster_GamePageModule_imports</title>
<polygon fill="none" stroke="#000000" points="1856,-154 1856,-206 2152,-206 2152,-154 1856,-154"/>
</g>
<g id="clust54" class="cluster">
<title>cluster_HomePageModule</title>
<polygon fill="none" stroke="#000000" stroke-dasharray="1,5" points="8,-146 8,-271 308,-271 308,-146 8,-146"/>
</g>
<g id="clust55" class="cluster">
<title>cluster_HomePageModule_declarations</title>
<polygon fill="none" stroke="#000000" points="206,-154 206,-206 300,-206 300,-154 206,-154"/>
</g>
<g id="clust57" class="cluster">
<title>cluster_HomePageModule_imports</title>
<polygon fill="none" stroke="#000000" points="16,-154 16,-206 198,-206 198,-154 16,-154"/>
</g>
<g id="clust67" class="cluster">
<title>cluster_TeamPageModule</title>
<polygon fill="none" stroke="#000000" stroke-dasharray="1,5" points="316,-146 316,-271 770,-271 770,-146 316,-146"/>
</g>
<g id="clust68" class="cluster">
<title>cluster_TeamPageModule_declarations</title>
<polygon fill="none" stroke="#000000" points="512,-154 512,-206 762,-206 762,-154 512,-154"/>
</g>
<g id="clust71" class="cluster">
<title>cluster_TeamPageModule_imports</title>
<polygon fill="none" stroke="#000000" points="324,-154 324,-206 504,-206 504,-154 324,-154"/>
</g>
<!-- AboutPage -->
<g id="node1" class="node">
<title>AboutPage</title>
<polygon fill="#ffffb3" stroke="#000000" points="872.2093,-198 793.7907,-198 793.7907,-162 872.2093,-162 872.2093,-198"/>
<text text-anchor="middle" x="833" y="-175.8" font-family="Times,serif" font-size="14.00" fill="#000000">AboutPage</text>
</g>
<!-- AboutPageModule -->
<g id="node2" class="node">
<title>AboutPageModule</title>
<polygon fill="#8dd3c7" stroke="#000000" points="1196.759,-263 1193.759,-267 1172.759,-267 1169.759,-263 1075.241,-263 1075.241,-227 1196.759,-227 1196.759,-263"/>
<text text-anchor="middle" x="1136" y="-240.8" font-family="Times,serif" font-size="14.00" fill="#000000">AboutPageModule</text>
</g>
<!-- AboutPage&#45;&gt;AboutPageModule -->
<g id="edge1" class="edge">
<title>AboutPage&#45;&gt;AboutPageModule</title>
<path fill="none" stroke="#000000" d="M833,-198.1061C833,-217.3391 833,-245 833,-245 833,-245 1065.0479,-245 1065.0479,-245"/>
<polygon fill="#000000" stroke="#000000" points="1065.0479,-248.5001 1075.0479,-245 1065.0479,-241.5001 1065.0479,-248.5001"/>
</g>
<!-- CommonModule -->
<g id="node3" class="node">
<title>CommonModule</title>
<polygon fill="#8dd3c7" stroke="#000000" points="1191.6681,-198 1188.6681,-202 1167.6681,-202 1164.6681,-198 1080.3319,-198 1080.3319,-162 1191.6681,-162 1191.6681,-198"/>
<text text-anchor="middle" x="1136" y="-175.8" font-family="Times,serif" font-size="14.00" fill="#000000">CommonModule</text>
</g>
<!-- CommonModule&#45;&gt;AboutPageModule -->
<g id="edge2" class="edge">
<title>CommonModule&#45;&gt;AboutPageModule</title>
<path fill="none" stroke="#000000" d="M1136,-198.1061C1136,-198.1061 1136,-216.991 1136,-216.991"/>
<polygon fill="#000000" stroke="#000000" points="1132.5001,-216.9909 1136,-226.991 1139.5001,-216.991 1132.5001,-216.9909"/>
</g>
<!-- DocumentationPageModule -->
<g id="node21" class="node">
<title>DocumentationPageModule</title>
<polygon fill="#8dd3c7" stroke="#000000" points="1617.5744,-263 1614.5744,-267 1593.5744,-267 1590.5744,-263 1444.4256,-263 1444.4256,-227 1617.5744,-227 1617.5744,-263"/>
<text text-anchor="middle" x="1531" y="-240.8" font-family="Times,serif" font-size="14.00" fill="#000000">DocumentationPageModule</text>
</g>
<!-- CommonModule&#45;&gt;DocumentationPageModule -->
<g id="edge20" class="edge">
<title>CommonModule&#45;&gt;DocumentationPageModule</title>
<path fill="none" stroke="#000000" d="M1191.934,-180C1198.7468,-180 1203.3608,-180 1203.3608,-180 1203.3608,-180 1203.3608,-256 1203.3608,-256 1203.3608,-256 1434.0589,-256 1434.0589,-256"/>
<polygon fill="#000000" stroke="#000000" points="1434.0589,-259.5001 1444.0589,-256 1434.0589,-252.5001 1434.0589,-259.5001"/>
</g>
<!-- GamePageModule -->
<g id="node31" class="node">
<title>GamePageModule</title>
<polygon fill="#8dd3c7" stroke="#000000" points="2400.1881,-263 2397.1881,-267 2376.1881,-267 2373.1881,-263 2279.8119,-263 2279.8119,-227 2400.1881,-227 2400.1881,-263"/>
<text text-anchor="middle" x="2340" y="-240.8" font-family="Times,serif" font-size="14.00" fill="#000000">GamePageModule</text>
</g>
<!-- CommonModule&#45;&gt;GamePageModule -->
<g id="edge34" class="edge">
<title>CommonModule&#45;&gt;GamePageModule</title>
<path fill="none" stroke="#000000" d="M1163.9169,-198.1432C1163.9169,-204.4611 1163.9169,-210 1163.9169,-210 1163.9169,-210 2287.3539,-210 2287.3539,-210 2287.3539,-210 2287.3539,-216.68 2287.3539,-216.68"/>
<polygon fill="#000000" stroke="#000000" points="2283.854,-216.6799 2287.3539,-226.68 2290.854,-216.68 2283.854,-216.6799"/>
</g>
<!-- HomePageModule -->
<g id="node35" class="node">
<title>HomePageModule</title>
<polygon fill="#8dd3c7" stroke="#000000" points="300.4734,-263 297.4734,-267 276.4734,-267 273.4734,-263 179.5266,-263 179.5266,-227 300.4734,-227 300.4734,-263"/>
<text text-anchor="middle" x="240" y="-240.8" font-family="Times,serif" font-size="14.00" fill="#000000">HomePageModule</text>
</g>
<!-- CommonModule&#45;&gt;HomePageModule -->
<g id="edge42" class="edge">
<title>CommonModule&#45;&gt;HomePageModule</title>
<path fill="none" stroke="#000000" d="M1108.0831,-198.0449C1108.0831,-205.749 1108.0831,-213 1108.0831,-213 1108.0831,-213 293.9055,-213 293.9055,-213 293.9055,-213 293.9055,-216.7566 293.9055,-216.7566"/>
<polygon fill="#000000" stroke="#000000" points="290.4056,-216.7566 293.9055,-226.7566 297.4056,-216.7566 290.4056,-216.7566"/>
</g>
<!-- TeamPageModule -->
<g id="node39" class="node">
<title>TeamPageModule</title>
<polygon fill="#8dd3c7" stroke="#000000" points="762.1346,-263 759.1346,-267 738.1346,-267 735.1346,-263 643.8654,-263 643.8654,-227 762.1346,-227 762.1346,-263"/>
<text text-anchor="middle" x="703" y="-240.8" font-family="Times,serif" font-size="14.00" fill="#000000">TeamPageModule</text>
</g>
<!-- CommonModule&#45;&gt;TeamPageModule -->
<g id="edge50" class="edge">
<title>CommonModule&#45;&gt;TeamPageModule</title>
<path fill="none" stroke="#000000" d="M1080.1825,-180C1073.3838,-180 1068.7795,-180 1068.7795,-180 1068.7795,-180 1068.7795,-254 1068.7795,-254 1068.7795,-254 772.1753,-254 772.1753,-254"/>
<polygon fill="#000000" stroke="#000000" points="772.1754,-250.5001 762.1753,-254 772.1753,-257.5001 772.1754,-250.5001"/>
</g>
<!-- FormsModule -->
<g id="node4" class="node">
<title>FormsModule</title>
<polygon fill="#8dd3c7" stroke="#000000" points="1411.8288,-198 1408.8288,-202 1387.8288,-202 1384.8288,-198 1316.1712,-198 1316.1712,-162 1411.8288,-162 1411.8288,-198"/>
<text text-anchor="middle" x="1364" y="-175.8" font-family="Times,serif" font-size="14.00" fill="#000000">FormsModule</text>
</g>
<!-- FormsModule&#45;&gt;AboutPageModule -->
<g id="edge3" class="edge">
<title>FormsModule&#45;&gt;AboutPageModule</title>
<path fill="none" stroke="#000000" d="M1395.7761,-198.1289C1395.7761,-218.5724 1395.7761,-249 1395.7761,-249 1395.7761,-249 1206.9059,-249 1206.9059,-249"/>
<polygon fill="#000000" stroke="#000000" points="1206.906,-245.5001 1196.9059,-249 1206.9059,-252.5001 1206.906,-245.5001"/>
</g>
<!-- AppModule -->
<g id="node10" class="node">
<title>AppModule</title>
<polygon fill="#8dd3c7" stroke="#000000" points="4241.6571,-263 4238.6571,-267 4217.6571,-267 4214.6571,-263 4158.3429,-263 4158.3429,-227 4241.6571,-227 4241.6571,-263"/>
<text text-anchor="middle" x="4200" y="-240.8" font-family="Times,serif" font-size="14.00" fill="#000000">AppModule</text>
</g>
<!-- FormsModule&#45;&gt;AppModule -->
<g id="edge12" class="edge">
<title>FormsModule&#45;&gt;AppModule</title>
<path fill="none" stroke="#000000" d="M1379.888,-198.08C1379.888,-199.8464 1379.888,-201 1379.888,-201 1379.888,-201 4174.4981,-201 4174.4981,-201 4174.4981,-201 4174.4981,-216.8495 4174.4981,-216.8495"/>
<polygon fill="#000000" stroke="#000000" points="4170.9982,-216.8494 4174.4981,-226.8495 4177.9982,-216.8495 4170.9982,-216.8494"/>
</g>
<!-- FormsModule&#45;&gt;DocumentationPageModule -->
<g id="edge21" class="edge">
<title>FormsModule&#45;&gt;DocumentationPageModule</title>
<path fill="none" stroke="#000000" d="M1411.9935,-180C1430.8986,-180 1448.1834,-180 1448.1834,-180 1448.1834,-180 1448.1834,-216.8939 1448.1834,-216.8939"/>
<polygon fill="#000000" stroke="#000000" points="1444.6834,-216.8938 1448.1834,-226.8939 1451.6834,-216.8939 1444.6834,-216.8938"/>
</g>
<!-- FormsModule&#45;&gt;GamePageModule -->
<g id="edge35" class="edge">
<title>FormsModule&#45;&gt;GamePageModule</title>
<path fill="none" stroke="#000000" d="M1364,-198.1903C1364,-201.5376 1364,-204 1364,-204 1364,-204 2294.5174,-204 2294.5174,-204 2294.5174,-204 2294.5174,-216.8975 2294.5174,-216.8975"/>
<polygon fill="#000000" stroke="#000000" points="2291.0175,-216.8974 2294.5174,-226.8975 2298.0175,-216.8975 2291.0175,-216.8974"/>
</g>
<!-- FormsModule&#45;&gt;HomePageModule -->
<g id="edge43" class="edge">
<title>FormsModule&#45;&gt;HomePageModule</title>
<path fill="none" stroke="#000000" d="M1332.2239,-198.1299C1332.2239,-208.3145 1332.2239,-219 1332.2239,-219 1332.2239,-219 298.293,-219 298.293,-219 298.293,-219 298.293,-219.7942 298.293,-219.7942"/>
<polygon fill="#000000" stroke="#000000" points="294.7931,-216.9421 298.293,-226.9421 301.7931,-216.9422 294.7931,-216.9421"/>
</g>
<!-- FormsModule&#45;&gt;TeamPageModule -->
<g id="edge51" class="edge">
<title>FormsModule&#45;&gt;TeamPageModule</title>
<path fill="none" stroke="#000000" d="M1348.112,-198.0439C1348.112,-210.5633 1348.112,-225 1348.112,-225 1348.112,-225 759.392,-225 759.392,-225 759.392,-225 759.392,-225.1846 759.392,-225.1846"/>
<polygon fill="#000000" stroke="#000000" points="755.8926,-216.8455 759.392,-226.8457 762.8926,-216.8459 755.8926,-216.8455"/>
</g>
<!-- IonicModule -->
<g id="node5" class="node">
<title>IonicModule</title>
<polygon fill="#8dd3c7" stroke="#000000" points="1298.3162,-198 1295.3162,-202 1274.3162,-202 1271.3162,-198 1209.6838,-198 1209.6838,-162 1298.3162,-162 1298.3162,-198"/>
<text text-anchor="middle" x="1254" y="-175.8" font-family="Times,serif" font-size="14.00" fill="#000000">IonicModule</text>
</g>
<!-- IonicModule&#45;&gt;AboutPageModule -->
<g id="edge4" class="edge">
<title>IonicModule&#45;&gt;AboutPageModule</title>
<path fill="none" stroke="#000000" d="M1268.7193,-198.2667C1268.7193,-216.5552 1268.7193,-242 1268.7193,-242 1268.7193,-242 1206.9215,-242 1206.9215,-242"/>
<polygon fill="#000000" stroke="#000000" points="1206.9215,-238.5001 1196.9215,-242 1206.9215,-245.5001 1206.9215,-238.5001"/>
</g>
<!-- IonicModule&#45;&gt;DocumentationPageModule -->
<g id="edge22" class="edge">
<title>IonicModule&#45;&gt;DocumentationPageModule</title>
<path fill="none" stroke="#000000" d="M1283.4385,-198.0091C1283.4385,-214.0494 1283.4385,-235 1283.4385,-235 1283.4385,-235 1434.415,-235 1434.415,-235"/>
<polygon fill="#000000" stroke="#000000" points="1434.415,-238.5001 1444.415,-235 1434.415,-231.5001 1434.415,-238.5001"/>
</g>
<!-- IonicModule&#45;&gt;GamePageModule -->
<g id="edge36" class="edge">
<title>IonicModule&#45;&gt;GamePageModule</title>
<path fill="none" stroke="#000000" d="M1254,-198.1592C1254,-203.0433 1254,-207 1254,-207 1254,-207 2290.9356,-207 2290.9356,-207 2290.9356,-207 2290.9356,-216.8903 2290.9356,-216.8903"/>
<polygon fill="#000000" stroke="#000000" points="2287.4357,-216.8903 2290.9356,-226.8903 2294.4357,-216.8904 2287.4357,-216.8903"/>
</g>
<!-- IonicModule&#45;&gt;HomePageModule -->
<g id="edge44" class="edge">
<title>IonicModule&#45;&gt;HomePageModule</title>
<path fill="none" stroke="#000000" d="M1224.5615,-198.4218C1224.5615,-207.2791 1224.5615,-216 1224.5615,-216 1224.5615,-216 296.0993,-216 296.0993,-216 296.0993,-216 296.0993,-217.0799 296.0993,-217.0799"/>
<polygon fill="#000000" stroke="#000000" points="292.5994,-216.7985 296.0993,-226.7985 299.5994,-216.7986 292.5994,-216.7985"/>
</g>
<!-- IonicModule&#45;&gt;TeamPageModule -->
<g id="edge52" class="edge">
<title>IonicModule&#45;&gt;TeamPageModule</title>
<path fill="none" stroke="#000000" d="M1239.2807,-198.0555C1239.2807,-209.439 1239.2807,-222 1239.2807,-222 1239.2807,-222 756.4671,-222 756.4671,-222 756.4671,-222 756.4671,-222.4878 756.4671,-222.4878"/>
<polygon fill="#000000" stroke="#000000" points="752.9673,-216.8776 756.4671,-226.8777 759.9673,-216.8778 752.9673,-216.8776"/>
</g>
<!-- AboutPageRoutingModule -->
<g id="node6" class="node">
<title>AboutPageRoutingModule</title>
<polygon fill="#8dd3c7" stroke="#000000" points="1062.3766,-198 1059.3766,-202 1038.3766,-202 1035.3766,-198 895.6234,-198 895.6234,-162 1062.3766,-162 1062.3766,-198"/>
<text text-anchor="middle" x="979" y="-175.8" font-family="Times,serif" font-size="14.00" fill="#000000">AboutPageRoutingModule</text>
</g>
<!-- AboutPageRoutingModule&#45;&gt;AboutPageModule -->
<g id="edge5" class="edge">
<title>AboutPageRoutingModule&#45;&gt;AboutPageModule</title>
<path fill="none" stroke="#000000" d="M979,-198.027C979,-214.3976 979,-236 979,-236 979,-236 1064.8501,-236 1064.8501,-236"/>
<polygon fill="#000000" stroke="#000000" points="1064.8502,-239.5001 1074.8501,-236 1064.8501,-232.5001 1064.8502,-239.5001"/>
</g>
<!-- RouterModule  -->
<g id="node8" class="node">
<title>RouterModule </title>
<polygon fill="#fb8072" stroke="#000000" points="946.6523,-122 845.3477,-122 845.3477,-86 946.6523,-86 946.6523,-122"/>
<text text-anchor="middle" x="896" y="-99.8" font-family="Times,serif" font-size="14.00" fill="#000000">RouterModule </text>
</g>
<!-- AboutPageRoutingModule&#45;&gt;RouterModule  -->
<g id="edge7" class="edge">
<title>AboutPageRoutingModule&#45;&gt;RouterModule </title>
<path fill="none" stroke="#000000" stroke-dasharray="5,2" d="M908.3153,-161.9891C908.3153,-161.9891 908.3153,-132.145 908.3153,-132.145"/>
<polygon fill="#000000" stroke="#000000" points="911.8154,-132.145 908.3153,-122.145 904.8154,-132.1451 911.8154,-132.145"/>
</g>
<!-- RouterModule.forChild(args) -->
<g id="node7" class="node">
<title>RouterModule.forChild(args)</title>
<polygon fill="#8dd3c7" stroke="#000000" points="1152.7323,-122 1149.7323,-126 1128.7323,-126 1125.7323,-122 971.2677,-122 971.2677,-86 1152.7323,-86 1152.7323,-122"/>
<text text-anchor="middle" x="1062" y="-99.8" font-family="Times,serif" font-size="14.00" fill="#000000">RouterModule.forChild(args)</text>
</g>
<!-- RouterModule.forChild(args)&#45;&gt;AboutPageRoutingModule -->
<g id="edge6" class="edge">
<title>RouterModule.forChild(args)&#45;&gt;AboutPageRoutingModule</title>
<path fill="none" stroke="#000000" d="M1039.6747,-122.0109C1039.6747,-122.0109 1039.6747,-151.855 1039.6747,-151.855"/>
<polygon fill="#000000" stroke="#000000" points="1036.1748,-151.8549 1039.6747,-161.855 1043.1748,-151.855 1036.1748,-151.8549"/>
</g>
<!-- DocumentationPageRoutingModule -->
<g id="node22" class="node">
<title>DocumentationPageRoutingModule</title>
<polygon fill="#8dd3c7" stroke="#000000" points="1670.1923,-198 1667.1923,-202 1646.1923,-202 1643.1923,-198 1451.8077,-198 1451.8077,-162 1670.1923,-162 1670.1923,-198"/>
<text text-anchor="middle" x="1561" y="-175.8" font-family="Times,serif" font-size="14.00" fill="#000000">DocumentationPageRoutingModule</text>
</g>
<!-- RouterModule.forChild(args)&#45;&gt;DocumentationPageRoutingModule -->
<g id="edge24" class="edge">
<title>RouterModule.forChild(args)&#45;&gt;DocumentationPageRoutingModule</title>
<path fill="none" stroke="#000000" d="M1152.8497,-110C1287.5812,-110 1524.6346,-110 1524.6346,-110 1524.6346,-110 1524.6346,-151.9733 1524.6346,-151.9733"/>
<polygon fill="#000000" stroke="#000000" points="1521.1347,-151.9732 1524.6346,-161.9733 1528.1347,-151.9733 1521.1347,-151.9732"/>
</g>
<!-- GamePageRoutingModule -->
<g id="node32" class="node">
<title>GamePageRoutingModule</title>
<polygon fill="#8dd3c7" stroke="#000000" points="2143.8061,-198 2140.8061,-202 2119.8061,-202 2116.8061,-198 1978.1939,-198 1978.1939,-162 2143.8061,-162 2143.8061,-198"/>
<text text-anchor="middle" x="2061" y="-175.8" font-family="Times,serif" font-size="14.00" fill="#000000">GamePageRoutingModule</text>
</g>
<!-- RouterModule.forChild(args)&#45;&gt;GamePageRoutingModule -->
<g id="edge39" class="edge">
<title>RouterModule.forChild(args)&#45;&gt;GamePageRoutingModule</title>
<path fill="none" stroke="#000000" d="M1152.955,-98C1394.4512,-98 2033.449,-98 2033.449,-98 2033.449,-98 2033.449,-151.8015 2033.449,-151.8015"/>
<polygon fill="#000000" stroke="#000000" points="2029.9491,-151.8015 2033.449,-161.8015 2036.9491,-151.8016 2029.9491,-151.8015"/>
</g>
<!-- HomePageRoutingModule -->
<g id="node36" class="node">
<title>HomePageRoutingModule</title>
<polygon fill="#8dd3c7" stroke="#000000" points="190.0912,-198 187.0912,-202 166.0912,-202 163.0912,-198 23.9088,-198 23.9088,-162 190.0912,-162 190.0912,-198"/>
<text text-anchor="middle" x="107" y="-175.8" font-family="Times,serif" font-size="14.00" fill="#000000">HomePageRoutingModule</text>
</g>
<!-- RouterModule.forChild(args)&#45;&gt;HomePageRoutingModule -->
<g id="edge46" class="edge">
<title>RouterModule.forChild(args)&#45;&gt;HomePageRoutingModule</title>
<path fill="none" stroke="#000000" d="M994.1475,-122.1944C994.1475,-130.2782 994.1475,-138 994.1475,-138 994.1475,-138 134.6819,-138 134.6819,-138 134.6819,-138 134.6819,-151.9445 134.6819,-151.9445"/>
<polygon fill="#000000" stroke="#000000" points="131.182,-151.9444 134.6819,-161.9445 138.182,-151.9445 131.182,-151.9444"/>
</g>
<!-- TeamPageRoutingModule -->
<g id="node40" class="node">
<title>TeamPageRoutingModule</title>
<polygon fill="#8dd3c7" stroke="#000000" points="495.752,-198 492.752,-202 471.752,-202 468.752,-198 332.248,-198 332.248,-162 495.752,-162 495.752,-198"/>
<text text-anchor="middle" x="414" y="-175.8" font-family="Times,serif" font-size="14.00" fill="#000000">TeamPageRoutingModule</text>
</g>
<!-- RouterModule.forChild(args)&#45;&gt;TeamPageRoutingModule -->
<g id="edge54" class="edge">
<title>RouterModule.forChild(args)&#45;&gt;TeamPageRoutingModule</title>
<path fill="none" stroke="#000000" d="M1016.9111,-122.0511C1016.9111,-136.373 1016.9111,-154 1016.9111,-154 1016.9111,-154 441.292,-154 441.292,-154 441.292,-154 441.292,-154.7942 441.292,-154.7942"/>
<polygon fill="#000000" stroke="#000000" points="437.7921,-151.9421 441.292,-161.9421 444.7921,-151.9422 437.7921,-151.9421"/>
</g>
<!-- AppComponent -->
<g id="node9" class="node">
<title>AppComponent</title>
<polygon fill="#ffffb3" stroke="#000000" points="4909.9399,-198 4804.0601,-198 4804.0601,-162 4909.9399,-162 4909.9399,-198"/>
<text text-anchor="middle" x="4857" y="-175.8" font-family="Times,serif" font-size="14.00" fill="#000000">AppComponent</text>
</g>
<!-- AppComponent&#45;&gt;AppModule -->
<g id="edge8" class="edge">
<title>AppComponent&#45;&gt;AppModule</title>
<path fill="none" stroke="#000000" d="M4857,-198.0109C4857,-220.4852 4857,-256 4857,-256 4857,-256 4251.8469,-256 4251.8469,-256"/>
<polygon fill="#000000" stroke="#000000" points="4251.8469,-252.5001 4241.8469,-256 4251.8469,-259.5001 4251.8469,-252.5001"/>
</g>
<!-- AppComponent  -->
<g id="node16" class="node">
<title>AppComponent </title>
<polygon fill="#80b1d3" stroke="#000000" points="4254.439,-328 4145.561,-328 4145.561,-292 4254.439,-292 4254.439,-328"/>
<text text-anchor="middle" x="4200" y="-305.8" font-family="Times,serif" font-size="14.00" fill="#000000">AppComponent </text>
</g>
<!-- AppModule&#45;&gt;AppComponent  -->
<g id="edge15" class="edge">
<title>AppModule&#45;&gt;AppComponent </title>
<path fill="none" stroke="#000000" stroke-dasharray="1,5" d="M4200,-263.1061C4200,-263.1061 4200,-281.991 4200,-281.991"/>
<polygon fill="#000000" stroke="#000000" points="4196.5001,-281.9909 4200,-291.991 4203.5001,-281.991 4196.5001,-281.9909"/>
</g>
<!-- RouterModule -->
<g id="node11" class="node">
<title>RouterModule</title>
<polygon fill="#8dd3c7" stroke="#000000" points="4447.6528,-198 4444.6528,-202 4423.6528,-202 4420.6528,-198 4350.3472,-198 4350.3472,-162 4447.6528,-162 4447.6528,-198"/>
<text text-anchor="middle" x="4399" y="-175.8" font-family="Times,serif" font-size="14.00" fill="#000000">RouterModule</text>
</g>
<!-- RouterModule&#45;&gt;AppModule -->
<g id="edge9" class="edge">
<title>RouterModule&#45;&gt;AppModule</title>
<path fill="none" stroke="#000000" d="M4399,-198.0091C4399,-214.0494 4399,-235 4399,-235 4399,-235 4251.7169,-235 4251.7169,-235"/>
<polygon fill="#000000" stroke="#000000" points="4251.717,-231.5001 4241.7169,-235 4251.7169,-238.5001 4251.717,-231.5001"/>
</g>
<!-- BrowserModule -->
<g id="node12" class="node">
<title>BrowserModule</title>
<polygon fill="#8dd3c7" stroke="#000000" points="4332.4734,-198 4329.4734,-202 4308.4734,-202 4305.4734,-198 4225.5266,-198 4225.5266,-162 4332.4734,-162 4332.4734,-198"/>
<text text-anchor="middle" x="4279" y="-175.8" font-family="Times,serif" font-size="14.00" fill="#000000">BrowserModule</text>
</g>
<!-- BrowserModule&#45;&gt;AppModule -->
<g id="edge10" class="edge">
<title>BrowserModule&#45;&gt;AppModule</title>
<path fill="none" stroke="#000000" d="M4233.6708,-198.1061C4233.6708,-198.1061 4233.6708,-216.991 4233.6708,-216.991"/>
<polygon fill="#000000" stroke="#000000" points="4230.1708,-216.9909 4233.6708,-226.991 4237.1708,-216.991 4230.1708,-216.9909"/>
</g>
<!-- BrowserAnimationsModule -->
<g id="node13" class="node">
<title>BrowserAnimationsModule</title>
<polygon fill="#8dd3c7" stroke="#000000" points="4207.3019,-198 4204.3019,-202 4183.3019,-202 4180.3019,-198 4034.6981,-198 4034.6981,-162 4207.3019,-162 4207.3019,-198"/>
<text text-anchor="middle" x="4121" y="-175.8" font-family="Times,serif" font-size="14.00" fill="#000000">BrowserAnimationsModule</text>
</g>
<!-- BrowserAnimationsModule&#45;&gt;AppModule -->
<g id="edge11" class="edge">
<title>BrowserAnimationsModule&#45;&gt;AppModule</title>
<path fill="none" stroke="#000000" d="M4190.8245,-198.1061C4190.8245,-198.1061 4190.8245,-216.991 4190.8245,-216.991"/>
<polygon fill="#000000" stroke="#000000" points="4187.3246,-216.9909 4190.8245,-226.991 4194.3246,-216.991 4187.3246,-216.9909"/>
</g>
<!-- IonicModule.forRoot(args) -->
<g id="node14" class="node">
<title>IonicModule.forRoot(args)</title>
<polygon fill="#8dd3c7" stroke="#000000" points="4780.005,-198 4777.005,-202 4756.005,-202 4753.005,-198 4611.995,-198 4611.995,-162 4780.005,-162 4780.005,-198"/>
<text text-anchor="middle" x="4696" y="-175.8" font-family="Times,serif" font-size="14.00" fill="#000000">IonicModule.forRoot(args)</text>
</g>
<!-- IonicModule.forRoot(args)&#45;&gt;AppModule -->
<g id="edge13" class="edge">
<title>IonicModule.forRoot(args)&#45;&gt;AppModule</title>
<path fill="none" stroke="#000000" d="M4696,-198.1289C4696,-218.5724 4696,-249 4696,-249 4696,-249 4251.8612,-249 4251.8612,-249"/>
<polygon fill="#000000" stroke="#000000" points="4251.8612,-245.5001 4241.8612,-249 4251.8612,-252.5001 4251.8612,-245.5001"/>
</g>
<!-- AppRoutingModule -->
<g id="node15" class="node">
<title>AppRoutingModule</title>
<polygon fill="#8dd3c7" stroke="#000000" points="4594.2744,-198 4591.2744,-202 4570.2744,-202 4567.2744,-198 4465.7256,-198 4465.7256,-162 4594.2744,-162 4594.2744,-198"/>
<text text-anchor="middle" x="4530" y="-175.8" font-family="Times,serif" font-size="14.00" fill="#000000">AppRoutingModule</text>
</g>
<!-- AppRoutingModule&#45;&gt;AppModule -->
<g id="edge14" class="edge">
<title>AppRoutingModule&#45;&gt;AppModule</title>
<path fill="none" stroke="#000000" d="M4530,-198.2667C4530,-216.5552 4530,-242 4530,-242 4530,-242 4251.7947,-242 4251.7947,-242"/>
<polygon fill="#000000" stroke="#000000" points="4251.7948,-238.5001 4241.7947,-242 4251.7947,-245.5001 4251.7948,-238.5001"/>
</g>
<!-- StatusBar -->
<g id="node17" class="node">
<title>StatusBar</title>
<ellipse fill="#fdb462" stroke="#000000" cx="3286" cy="-180" rx="48.6694" ry="18"/>
<text text-anchor="middle" x="3286" y="-175.8" font-family="Times,serif" font-size="14.00" fill="#000000">StatusBar</text>
</g>
<!-- StatusBar&#45;&gt;AppModule -->
<g id="edge16" class="edge">
<title>StatusBar&#45;&gt;AppModule</title>
<path fill="none" stroke="#000000" d="M3286,-198.3228C3286,-221.6602 3286,-259 3286,-259 3286,-259 4148.0511,-259 4148.0511,-259"/>
<polygon fill="#000000" stroke="#000000" points="4148.0511,-262.5001 4158.0511,-259 4148.0511,-255.5001 4148.0511,-262.5001"/>
</g>
<!-- SplashScreen -->
<g id="node18" class="node">
<title>SplashScreen</title>
<ellipse fill="#fdb462" stroke="#000000" cx="3948" cy="-180" rx="63.1189" ry="18"/>
<text text-anchor="middle" x="3948" y="-175.8" font-family="Times,serif" font-size="14.00" fill="#000000">SplashScreen</text>
</g>
<!-- SplashScreen&#45;&gt;AppModule -->
<g id="edge17" class="edge">
<title>SplashScreen&#45;&gt;AppModule</title>
<path fill="none" stroke="#000000" d="M3948,-198.2843C3948,-219.3211 3948,-251 3948,-251 3948,-251 4148.1044,-251 4148.1044,-251"/>
<polygon fill="#000000" stroke="#000000" points="4148.1045,-254.5001 4158.1044,-251 4148.1044,-247.5001 4148.1045,-254.5001"/>
</g>
<!-- { provide: RouteReuseStrategy, useClass: IonicRouteStrategy } -->
<g id="node19" class="node">
<title>{ provide: RouteReuseStrategy, useClass: IonicRouteStrategy }</title>
<ellipse fill="#fdb462" stroke="#000000" cx="3610" cy="-180" rx="257.2723" ry="18"/>
<text text-anchor="middle" x="3610" y="-175.8" font-family="Times,serif" font-size="14.00" fill="#000000">{ provide: RouteReuseStrategy, useClass: IonicRouteStrategy }</text>
</g>
<!-- { provide: RouteReuseStrategy, useClass: IonicRouteStrategy }&#45;&gt;AppModule -->
<g id="edge18" class="edge">
<title>{ provide: RouteReuseStrategy, useClass: IonicRouteStrategy }&#45;&gt;AppModule</title>
<path fill="none" stroke="#000000" d="M3610,-198.1554C3610,-220.3519 3610,-255 3610,-255 3610,-255 4148.0416,-255 4148.0416,-255"/>
<polygon fill="#000000" stroke="#000000" points="4148.0417,-258.5001 4158.0416,-255 4148.0416,-251.5001 4148.0417,-258.5001"/>
</g>
<!-- DocumentationPage -->
<g id="node20" class="node">
<title>DocumentationPage</title>
<polygon fill="#ffffb3" stroke="#000000" points="1823.5255,-198 1694.4745,-198 1694.4745,-162 1823.5255,-162 1823.5255,-198"/>
<text text-anchor="middle" x="1759" y="-175.8" font-family="Times,serif" font-size="14.00" fill="#000000">DocumentationPage</text>
</g>
<!-- DocumentationPage&#45;&gt;DocumentationPageModule -->
<g id="edge19" class="edge">
<title>DocumentationPage&#45;&gt;DocumentationPageModule</title>
<path fill="none" stroke="#000000" d="M1759,-198.2921C1759,-220.2057 1759,-254 1759,-254 1759,-254 1627.8474,-254 1627.8474,-254"/>
<polygon fill="#000000" stroke="#000000" points="1627.8475,-250.5001 1617.8474,-254 1627.8474,-257.5001 1627.8475,-250.5001"/>
</g>
<!-- DocumentationPageRoutingModule&#45;&gt;RouterModule  -->
<g id="edge25" class="edge">
<title>DocumentationPageRoutingModule&#45;&gt;RouterModule </title>
<path fill="none" stroke="#000000" stroke-dasharray="5,2" d="M1597.3654,-161.8056C1597.3654,-153.7218 1597.3654,-146 1597.3654,-146 1597.3654,-146 921.0689,-146 921.0689,-146 921.0689,-146 921.0689,-132.0555 921.0689,-132.0555"/>
<polygon fill="#000000" stroke="#000000" points="924.569,-132.0555 921.0689,-122.0555 917.569,-132.0556 924.569,-132.0555"/>
</g>
<!-- DocumentationPageRoutingModule&#45;&gt;DocumentationPageModule -->
<g id="edge23" class="edge">
<title>DocumentationPageRoutingModule&#45;&gt;DocumentationPageModule</title>
<path fill="none" stroke="#000000" d="M1534.7206,-198.1061C1534.7206,-198.1061 1534.7206,-216.991 1534.7206,-216.991"/>
<polygon fill="#000000" stroke="#000000" points="1531.2206,-216.9909 1534.7206,-226.991 1538.2206,-216.991 1531.2206,-216.9909"/>
</g>
<!-- GamePage -->
<g id="node23" class="node">
<title>GamePage</title>
<polygon fill="#ffffb3" stroke="#000000" points="2378.139,-198 2301.861,-198 2301.861,-162 2378.139,-162 2378.139,-198"/>
<text text-anchor="middle" x="2340" y="-175.8" font-family="Times,serif" font-size="14.00" fill="#000000">GamePage</text>
</g>
<!-- GamePage&#45;&gt;GamePageModule -->
<g id="edge26" class="edge">
<title>GamePage&#45;&gt;GamePageModule</title>
<path fill="none" stroke="#000000" d="M2340,-198.1061C2340,-198.1061 2340,-216.991 2340,-216.991"/>
<polygon fill="#000000" stroke="#000000" points="2336.5001,-216.9909 2340,-226.991 2343.5001,-216.991 2336.5001,-216.9909"/>
</g>
<!-- BoardComponent -->
<g id="node24" class="node">
<title>BoardComponent</title>
<polygon fill="#ffffb3" stroke="#000000" points="2283.5451,-198 2168.4549,-198 2168.4549,-162 2283.5451,-162 2283.5451,-198"/>
<text text-anchor="middle" x="2226" y="-175.8" font-family="Times,serif" font-size="14.00" fill="#000000">BoardComponent</text>
</g>
<!-- BoardComponent&#45;&gt;GamePageModule -->
<g id="edge27" class="edge">
<title>BoardComponent&#45;&gt;GamePageModule</title>
<path fill="none" stroke="#000000" d="M2283.8547,-180C2292.2365,-180 2298.0991,-180 2298.0991,-180 2298.0991,-180 2298.0991,-216.8939 2298.0991,-216.8939"/>
<polygon fill="#000000" stroke="#000000" points="2294.5992,-216.8938 2298.0991,-226.8939 2301.5992,-216.8939 2294.5992,-216.8938"/>
</g>
<!-- InfoComponent -->
<g id="node25" class="node">
<title>InfoComponent</title>
<polygon fill="#ffffb3" stroke="#000000" points="3197.1542,-198 3092.8458,-198 3092.8458,-162 3197.1542,-162 3197.1542,-198"/>
<text text-anchor="middle" x="3145" y="-175.8" font-family="Times,serif" font-size="14.00" fill="#000000">InfoComponent</text>
</g>
<!-- InfoComponent&#45;&gt;GamePageModule -->
<g id="edge28" class="edge">
<title>InfoComponent&#45;&gt;GamePageModule</title>
<path fill="none" stroke="#000000" d="M3145,-198.308C3145,-218.1455 3145,-247 3145,-247 3145,-247 2410.1766,-247 2410.1766,-247"/>
<polygon fill="#000000" stroke="#000000" points="2410.1767,-243.5001 2400.1766,-247 2410.1766,-250.5001 2410.1767,-243.5001"/>
</g>
<!-- ControlComponent -->
<g id="node26" class="node">
<title>ControlComponent</title>
<polygon fill="#ffffb3" stroke="#000000" points="3075.1108,-198 2950.8892,-198 2950.8892,-162 3075.1108,-162 3075.1108,-198"/>
<text text-anchor="middle" x="3013" y="-175.8" font-family="Times,serif" font-size="14.00" fill="#000000">ControlComponent</text>
</g>
<!-- ControlComponent&#45;&gt;GamePageModule -->
<g id="edge29" class="edge">
<title>ControlComponent&#45;&gt;GamePageModule</title>
<path fill="none" stroke="#000000" d="M3013,-198.2222C3013,-216.8285 3013,-243 3013,-243 3013,-243 2410.3165,-243 2410.3165,-243"/>
<polygon fill="#000000" stroke="#000000" points="2410.3166,-239.5001 2400.3165,-243 2410.3165,-246.5001 2410.3166,-239.5001"/>
</g>
<!-- ConsoleComponent -->
<g id="node27" class="node">
<title>ConsoleComponent</title>
<polygon fill="#ffffb3" stroke="#000000" points="2932.719,-198 2805.281,-198 2805.281,-162 2932.719,-162 2932.719,-198"/>
<text text-anchor="middle" x="2869" y="-175.8" font-family="Times,serif" font-size="14.00" fill="#000000">ConsoleComponent</text>
</g>
<!-- ConsoleComponent&#45;&gt;GamePageModule -->
<g id="edge30" class="edge">
<title>ConsoleComponent&#45;&gt;GamePageModule</title>
<path fill="none" stroke="#000000" d="M2869,-198.0225C2869,-215.3734 2869,-239 2869,-239 2869,-239 2410.168,-239 2410.168,-239"/>
<polygon fill="#000000" stroke="#000000" points="2410.168,-235.5001 2400.168,-239 2410.168,-242.5001 2410.168,-235.5001"/>
</g>
<!-- HexComponent -->
<g id="node28" class="node">
<title>HexComponent</title>
<polygon fill="#ffffb3" stroke="#000000" points="2787.1542,-198 2682.8458,-198 2682.8458,-162 2787.1542,-162 2787.1542,-198"/>
<text text-anchor="middle" x="2735" y="-175.8" font-family="Times,serif" font-size="14.00" fill="#000000">HexComponent</text>
</g>
<!-- HexComponent&#45;&gt;GamePageModule -->
<g id="edge31" class="edge">
<title>HexComponent&#45;&gt;GamePageModule</title>
<path fill="none" stroke="#000000" d="M2735,-198.0091C2735,-214.0494 2735,-235 2735,-235 2735,-235 2410.422,-235 2410.422,-235"/>
<polygon fill="#000000" stroke="#000000" points="2410.422,-231.5001 2400.422,-235 2410.4219,-238.5001 2410.422,-231.5001"/>
</g>
<!-- PenguinComponent -->
<g id="node29" class="node">
<title>PenguinComponent</title>
<polygon fill="#ffffb3" stroke="#000000" points="2664.7204,-198 2537.2796,-198 2537.2796,-162 2664.7204,-162 2664.7204,-198"/>
<text text-anchor="middle" x="2601" y="-175.8" font-family="Times,serif" font-size="14.00" fill="#000000">PenguinComponent</text>
</g>
<!-- PenguinComponent&#45;&gt;GamePageModule -->
<g id="edge32" class="edge">
<title>PenguinComponent&#45;&gt;GamePageModule</title>
<path fill="none" stroke="#000000" d="M2601,-198.1243C2601,-212.7832 2601,-231 2601,-231 2601,-231 2410.2064,-231 2410.2064,-231"/>
<polygon fill="#000000" stroke="#000000" points="2410.2064,-227.5001 2400.2064,-231 2410.2064,-234.5001 2410.2064,-227.5001"/>
</g>
<!-- ResultsComponent -->
<g id="node30" class="node">
<title>ResultsComponent</title>
<polygon fill="#ffffb3" stroke="#000000" points="2519.0548,-198 2396.9452,-198 2396.9452,-162 2519.0548,-162 2519.0548,-198"/>
<text text-anchor="middle" x="2458" y="-175.8" font-family="Times,serif" font-size="14.00" fill="#000000">ResultsComponent</text>
</g>
<!-- ResultsComponent&#45;&gt;GamePageModule -->
<g id="edge33" class="edge">
<title>ResultsComponent&#45;&gt;GamePageModule</title>
<path fill="none" stroke="#000000" d="M2396.7349,-180C2391.1388,-180 2387.5211,-180 2387.5211,-180 2387.5211,-180 2387.5211,-216.8939 2387.5211,-216.8939"/>
<polygon fill="#000000" stroke="#000000" points="2384.0211,-216.8938 2387.5211,-226.8939 2391.0211,-216.8939 2384.0211,-216.8938"/>
</g>
<!-- GamePageRoutingModule&#45;&gt;RouterModule  -->
<g id="edge40" class="edge">
<title>GamePageRoutingModule&#45;&gt;RouterModule </title>
<path fill="none" stroke="#000000" stroke-dasharray="5,2" d="M2088.551,-161.9489C2088.551,-147.627 2088.551,-130 2088.551,-130 2088.551,-130 933.8225,-130 933.8225,-130 933.8225,-130 933.8225,-129.2058 933.8225,-129.2058"/>
<polygon fill="#000000" stroke="#000000" points="937.3226,-132.0578 933.8225,-122.0579 930.3226,-132.0579 937.3226,-132.0578"/>
</g>
<!-- GamePageRoutingModule&#45;&gt;GamePageModule -->
<g id="edge37" class="edge">
<title>GamePageRoutingModule&#45;&gt;GamePageModule</title>
<path fill="none" stroke="#000000" d="M2061,-198.027C2061,-214.3976 2061,-236 2061,-236 2061,-236 2269.8046,-236 2269.8046,-236"/>
<polygon fill="#000000" stroke="#000000" points="2269.8047,-239.5001 2279.8046,-236 2269.8046,-232.5001 2269.8047,-239.5001"/>
</g>
<!-- ChartsModule -->
<g id="node33" class="node">
<title>ChartsModule</title>
<polygon fill="#8dd3c7" stroke="#000000" points="1960.0968,-198 1957.0968,-202 1936.0968,-202 1933.0968,-198 1863.9032,-198 1863.9032,-162 1960.0968,-162 1960.0968,-198"/>
<text text-anchor="middle" x="1912" y="-175.8" font-family="Times,serif" font-size="14.00" fill="#000000">ChartsModule</text>
</g>
<!-- ChartsModule&#45;&gt;GamePageModule -->
<g id="edge38" class="edge">
<title>ChartsModule&#45;&gt;GamePageModule</title>
<path fill="none" stroke="#000000" d="M1912,-198.1061C1912,-217.3391 1912,-245 1912,-245 1912,-245 2269.5858,-245 2269.5858,-245"/>
<polygon fill="#000000" stroke="#000000" points="2269.5859,-248.5001 2279.5858,-245 2269.5858,-241.5001 2269.5859,-248.5001"/>
</g>
<!-- HomePage -->
<g id="node34" class="node">
<title>HomePage</title>
<polygon fill="#ffffb3" stroke="#000000" points="291.9248,-198 214.0752,-198 214.0752,-162 291.9248,-162 291.9248,-198"/>
<text text-anchor="middle" x="253" y="-175.8" font-family="Times,serif" font-size="14.00" fill="#000000">HomePage</text>
</g>
<!-- HomePage&#45;&gt;HomePageModule -->
<g id="edge41" class="edge">
<title>HomePage&#45;&gt;HomePageModule</title>
<path fill="none" stroke="#000000" d="M253,-198.1061C253,-198.1061 253,-216.991 253,-216.991"/>
<polygon fill="#000000" stroke="#000000" points="249.5001,-216.9909 253,-226.991 256.5001,-216.991 249.5001,-216.9909"/>
</g>
<!-- HomePageRoutingModule&#45;&gt;RouterModule  -->
<g id="edge47" class="edge">
<title>HomePageRoutingModule&#45;&gt;RouterModule </title>
<path fill="none" stroke="#000000" stroke-dasharray="5,2" d="M79.3181,-161.8015C79.3181,-137.6437 79.3181,-98 79.3181,-98 79.3181,-98 835.2215,-98 835.2215,-98"/>
<polygon fill="#000000" stroke="#000000" points="835.2215,-101.5001 845.2215,-98 835.2214,-94.5001 835.2215,-101.5001"/>
</g>
<!-- HomePageRoutingModule&#45;&gt;HomePageModule -->
<g id="edge45" class="edge">
<title>HomePageRoutingModule&#45;&gt;HomePageModule</title>
<path fill="none" stroke="#000000" d="M184.7795,-198.1061C184.7795,-198.1061 184.7795,-216.991 184.7795,-216.991"/>
<polygon fill="#000000" stroke="#000000" points="181.2795,-216.9909 184.7795,-226.991 188.2795,-216.991 181.2795,-216.9909"/>
</g>
<!-- TeamPage -->
<g id="node37" class="node">
<title>TeamPage</title>
<polygon fill="#ffffb3" stroke="#000000" points="753.5842,-198 678.4158,-198 678.4158,-162 753.5842,-162 753.5842,-198"/>
<text text-anchor="middle" x="716" y="-175.8" font-family="Times,serif" font-size="14.00" fill="#000000">TeamPage</text>
</g>
<!-- TeamPage&#45;&gt;TeamPageModule -->
<g id="edge48" class="edge">
<title>TeamPage&#45;&gt;TeamPageModule</title>
<path fill="none" stroke="#000000" d="M716,-198.1061C716,-198.1061 716,-216.991 716,-216.991"/>
<polygon fill="#000000" stroke="#000000" points="712.5001,-216.9909 716,-226.991 719.5001,-216.991 712.5001,-216.9909"/>
</g>
<!-- TeamCardComponent -->
<g id="node38" class="node">
<title>TeamCardComponent</title>
<polygon fill="#ffffb3" stroke="#000000" points="660.4172,-198 519.5828,-198 519.5828,-162 660.4172,-162 660.4172,-198"/>
<text text-anchor="middle" x="590" y="-175.8" font-family="Times,serif" font-size="14.00" fill="#000000">TeamCardComponent</text>
</g>
<!-- TeamCardComponent&#45;&gt;TeamPageModule -->
<g id="edge49" class="edge">
<title>TeamCardComponent&#45;&gt;TeamPageModule</title>
<path fill="none" stroke="#000000" d="M651.9457,-198.1061C651.9457,-198.1061 651.9457,-216.991 651.9457,-216.991"/>
<polygon fill="#000000" stroke="#000000" points="648.4457,-216.9909 651.9457,-226.991 655.4457,-216.991 648.4457,-216.9909"/>
</g>
<!-- TeamPageRoutingModule&#45;&gt;RouterModule  -->
<g id="edge55" class="edge">
<title>TeamPageRoutingModule&#45;&gt;RouterModule </title>
<path fill="none" stroke="#000000" stroke-dasharray="5,2" d="M386.708,-161.9733C386.708,-141.2328 386.708,-110 386.708,-110 386.708,-110 835.3052,-110 835.3052,-110"/>
<polygon fill="#000000" stroke="#000000" points="835.3052,-113.5001 845.3052,-110 835.3052,-106.5001 835.3052,-113.5001"/>
</g>
<!-- TeamPageRoutingModule&#45;&gt;TeamPageModule -->
<g id="edge53" class="edge">
<title>TeamPageRoutingModule&#45;&gt;TeamPageModule</title>
<path fill="none" stroke="#000000" d="M414,-198.1061C414,-217.3391 414,-245 414,-245 414,-245 633.8192,-245 633.8192,-245"/>
<polygon fill="#000000" stroke="#000000" points="633.8192,-248.5001 643.8192,-245 633.8191,-241.5001 633.8192,-248.5001"/>
</g>
</g>
</svg>
