<?xml version="1.0" encoding="UTF-8" standalone="no"?>
<!DOCTYPE svg PUBLIC "-//W3C//DTD SVG 1.1//EN"
 "http://www.w3.org/Graphics/SVG/1.1/DTD/svg11.dtd">
<!-- Generated by graphviz version 2.40.1 (20161225.0304)
 -->
<!-- Title: dependencies Pages: 1 -->
<svg width="4529pt" height="360pt"
 viewBox="0.00 0.00 4529.00 360.00" xmlns="http://www.w3.org/2000/svg" xmlns:xlink="http://www.w3.org/1999/xlink">
<g id="graph0" class="graph" transform="scale(1 1) rotate(0) translate(4 356)">
<title>dependencies</title>
<polygon fill="#ffffff" stroke="transparent" points="-4,4 -4,-356 4525,-356 4525,4 -4,4"/>
<text text-anchor="start" x="2239.5091" y="-42.4" font-family="sans-serif" font-weight="bold" font-size="14.00" fill="#000000">Legend</text>
<polygon fill="#ffffb3" stroke="transparent" points="2026.5,-10 2026.5,-30 2046.5,-30 2046.5,-10 2026.5,-10"/>
<text text-anchor="start" x="2050.129" y="-15.4" font-family="sans-serif" font-size="14.00" fill="#000000"> &#160;Declarations</text>
<polygon fill="#8dd3c7" stroke="transparent" points="2139.5,-10 2139.5,-30 2159.5,-30 2159.5,-10 2139.5,-10"/>
<text text-anchor="start" x="2163.2251" y="-15.4" font-family="sans-serif" font-size="14.00" fill="#000000"> &#160;Module</text>
<polygon fill="#80b1d3" stroke="transparent" points="2225.5,-10 2225.5,-30 2245.5,-30 2245.5,-10 2225.5,-10"/>
<text text-anchor="start" x="2249.2812" y="-15.4" font-family="sans-serif" font-size="14.00" fill="#000000"> &#160;Bootstrap</text>
<polygon fill="#fdb462" stroke="transparent" points="2322.5,-10 2322.5,-30 2342.5,-30 2342.5,-10 2322.5,-10"/>
<text text-anchor="start" x="2346.1732" y="-15.4" font-family="sans-serif" font-size="14.00" fill="#000000"> &#160;Providers</text>
<polygon fill="#fb8072" stroke="transparent" points="2418.5,-10 2418.5,-30 2438.5,-30 2438.5,-10 2418.5,-10"/>
<text text-anchor="start" x="2442.2258" y="-15.4" font-family="sans-serif" font-size="14.00" fill="#000000"> &#160;Exports</text>
<g id="clust1" class="cluster">
<title>cluster_AboutPageModule</title>
<polygon fill="none" stroke="#000000" stroke-dasharray="1,5" points="778,-146 778,-271 1428,-271 1428,-146 778,-146"/>
</g>
<g id="clust2" class="cluster">
<title>cluster_AboutPageModule_declarations</title>
<polygon fill="none" stroke="#000000" points="1326,-154 1326,-206 1420,-206 1420,-154 1326,-154"/>
</g>
<g id="clust4" class="cluster">
<title>cluster_AboutPageModule_imports</title>
<polygon fill="none" stroke="#000000" points="786,-154 786,-206 1318,-206 1318,-154 786,-154"/>
</g>
<g id="clust8" class="cluster">
<title>cluster_AboutPageRoutingModule</title>
<polygon fill="none" stroke="#000000" stroke-dasharray="1,5" points="613,-70 613,-138 953,-138 953,-70 613,-70"/>
</g>
<g id="clust10" class="cluster">
<title>cluster_AboutPageRoutingModule_imports</title>
<polygon fill="none" stroke="#000000" points="747,-78 747,-130 945,-130 945,-78 747,-78"/>
</g>
<g id="clust11" class="cluster">
<title>cluster_AboutPageRoutingModule_exports</title>
<polygon fill="none" stroke="#000000" points="621,-78 621,-130 739,-130 739,-78 621,-78"/>
</g>
<g id="clust14" class="cluster">
<title>cluster_AppModule</title>
<polygon fill="none" stroke="#000000" stroke-dasharray="1,5" points="2809,-146 2809,-344 4513,-344 4513,-146 2809,-146"/>
</g>
<g id="clust15" class="cluster">
<title>cluster_AppModule_declarations</title>
<polygon fill="none" stroke="#000000" points="4383,-154 4383,-206 4505,-206 4505,-154 4383,-154"/>
</g>
<g id="clust17" class="cluster">
<title>cluster_AppModule_imports</title>
<polygon fill="none" stroke="#000000" points="3615,-154 3615,-206 4375,-206 4375,-154 3615,-154"/>
</g>
<g id="clust19" class="cluster">
<title>cluster_AppModule_bootstrap</title>
<polygon fill="none" stroke="#000000" points="3674,-284 3674,-336 3798,-336 3798,-284 3674,-284"/>
</g>
<g id="clust20" class="cluster">
<title>cluster_AppModule_providers</title>
<polygon fill="none" stroke="#000000" points="2817,-154 2817,-206 3607,-206 3607,-154 2817,-154"/>
</g>
<g id="clust21" class="cluster">
<title>cluster_GamePageModule</title>
<polygon fill="none" stroke="#000000" stroke-dasharray="1,5" points="1436,-146 1436,-271 2801,-271 2801,-146 1436,-146"/>
</g>
<g id="clust22" class="cluster">
<title>cluster_GamePageModule_declarations</title>
<polygon fill="none" stroke="#000000" points="1748,-154 1748,-206 2793,-206 2793,-154 1748,-154"/>
</g>
<g id="clust31" class="cluster">
<title>cluster_GamePageModule_imports</title>
<polygon fill="none" stroke="#000000" points="1444,-154 1444,-206 1740,-206 1740,-154 1444,-154"/>
</g>
<g id="clust41" class="cluster">
<title>cluster_HomePageModule</title>
<polygon fill="none" stroke="#000000" stroke-dasharray="1,5" points="8,-146 8,-271 308,-271 308,-146 8,-146"/>
</g>
<g id="clust42" class="cluster">
<title>cluster_HomePageModule_declarations</title>
<polygon fill="none" stroke="#000000" points="206,-154 206,-206 300,-206 300,-154 206,-154"/>
</g>
<g id="clust44" class="cluster">
<title>cluster_HomePageModule_imports</title>
<polygon fill="none" stroke="#000000" points="16,-154 16,-206 198,-206 198,-154 16,-154"/>
</g>
<g id="clust54" class="cluster">
<title>cluster_TeamPageModule</title>
<polygon fill="none" stroke="#000000" stroke-dasharray="1,5" points="316,-146 316,-271 770,-271 770,-146 316,-146"/>
</g>
<g id="clust55" class="cluster">
<title>cluster_TeamPageModule_declarations</title>
<polygon fill="none" stroke="#000000" points="512,-154 512,-206 762,-206 762,-154 512,-154"/>
</g>
<g id="clust58" class="cluster">
<title>cluster_TeamPageModule_imports</title>
<polygon fill="none" stroke="#000000" points="324,-154 324,-206 504,-206 504,-154 324,-154"/>
</g>
<!-- AboutPage -->
<g id="node1" class="node">
<title>AboutPage</title>
<polygon fill="#ffffb3" stroke="#000000" points="1412.2093,-198 1333.7907,-198 1333.7907,-162 1412.2093,-162 1412.2093,-198"/>
<text text-anchor="middle" x="1373" y="-175.8" font-family="Times,serif" font-size="14.00" fill="#000000">AboutPage</text>
</g>
<!-- AboutPageModule -->
<g id="node2" class="node">
<title>AboutPageModule</title>
<polygon fill="#8dd3c7" stroke="#000000" points="1173.759,-263 1170.759,-267 1149.759,-267 1146.759,-263 1052.241,-263 1052.241,-227 1173.759,-227 1173.759,-263"/>
<text text-anchor="middle" x="1113" y="-240.8" font-family="Times,serif" font-size="14.00" fill="#000000">AboutPageModule</text>
</g>
<!-- AboutPage&#45;&gt;AboutPageModule -->
<g id="edge1" class="edge">
<title>AboutPage&#45;&gt;AboutPageModule</title>
<path fill="none" stroke="#000000" d="M1373,-198.0336C1373,-215.0597 1373,-238 1373,-238 1373,-238 1183.9584,-238 1183.9584,-238"/>
<polygon fill="#000000" stroke="#000000" points="1183.9585,-234.5001 1173.9584,-238 1183.9584,-241.5001 1183.9585,-234.5001"/>
</g>
<!-- CommonModule -->
<g id="node3" class="node">
<title>CommonModule</title>
<polygon fill="#8dd3c7" stroke="#000000" points="1011.6681,-198 1008.6681,-202 987.6681,-202 984.6681,-198 900.3319,-198 900.3319,-162 1011.6681,-162 1011.6681,-198"/>
<text text-anchor="middle" x="956" y="-175.8" font-family="Times,serif" font-size="14.00" fill="#000000">CommonModule</text>
</g>
<!-- CommonModule&#45;&gt;AboutPageModule -->
<g id="edge2" class="edge">
<title>CommonModule&#45;&gt;AboutPageModule</title>
<path fill="none" stroke="#000000" d="M989.5003,-198.0091C989.5003,-214.0494 989.5003,-235 989.5003,-235 989.5003,-235 1041.9738,-235 1041.9738,-235"/>
<polygon fill="#000000" stroke="#000000" points="1041.9738,-238.5001 1051.9738,-235 1041.9737,-231.5001 1041.9738,-238.5001"/>
</g>
<!-- GamePageModule -->
<g id="node28" class="node">
<title>GamePageModule</title>
<polygon fill="#8dd3c7" stroke="#000000" points="2002.1881,-263 1999.1881,-267 1978.1881,-267 1975.1881,-263 1881.8119,-263 1881.8119,-227 2002.1881,-227 2002.1881,-263"/>
<text text-anchor="middle" x="1942" y="-240.8" font-family="Times,serif" font-size="14.00" fill="#000000">GamePageModule</text>
</g>
<!-- CommonModule&#45;&gt;GamePageModule -->
<g id="edge27" class="edge">
<title>CommonModule&#45;&gt;GamePageModule</title>
<path fill="none" stroke="#000000" d="M944.8332,-198.1686C944.8332,-202.0459 944.8332,-205 944.8332,-205 944.8332,-205 1942,-205 1942,-205 1942,-205 1942,-216.8726 1942,-216.8726"/>
<polygon fill="#000000" stroke="#000000" points="1938.5001,-216.8725 1942,-226.8726 1945.5001,-216.8726 1938.5001,-216.8725"/>
</g>
<!-- HomePageModule -->
<g id="node32" class="node">
<title>HomePageModule</title>
<polygon fill="#8dd3c7" stroke="#000000" points="300.4734,-263 297.4734,-267 276.4734,-267 273.4734,-263 179.5266,-263 179.5266,-227 300.4734,-227 300.4734,-263"/>
<text text-anchor="middle" x="240" y="-240.8" font-family="Times,serif" font-size="14.00" fill="#000000">HomePageModule</text>
</g>
<!-- CommonModule&#45;&gt;HomePageModule -->
<g id="edge35" class="edge">
<title>CommonModule&#45;&gt;HomePageModule</title>
<path fill="none" stroke="#000000" d="M922.4997,-198.1025C922.4997,-209.0859 922.4997,-221 922.4997,-221 922.4997,-221 297.5617,-221 297.5617,-221 297.5617,-221 297.5617,-221.581 297.5617,-221.581"/>
<polygon fill="#000000" stroke="#000000" points="294.0619,-216.8097 297.5617,-226.8097 301.0619,-216.8098 294.0619,-216.8097"/>
</g>
<!-- TeamPageModule -->
<g id="node36" class="node">
<title>TeamPageModule</title>
<polygon fill="#8dd3c7" stroke="#000000" points="762.1346,-263 759.1346,-267 738.1346,-267 735.1346,-263 643.8654,-263 643.8654,-227 762.1346,-227 762.1346,-263"/>
<text text-anchor="middle" x="703" y="-240.8" font-family="Times,serif" font-size="14.00" fill="#000000">TeamPageModule</text>
</g>
<!-- CommonModule&#45;&gt;TeamPageModule -->
<g id="edge43" class="edge">
<title>CommonModule&#45;&gt;TeamPageModule</title>
<path fill="none" stroke="#000000" d="M967.1668,-198.0109C967.1668,-220.4852 967.1668,-256 967.1668,-256 967.1668,-256 772.2842,-256 772.2842,-256"/>
<polygon fill="#000000" stroke="#000000" points="772.2842,-252.5001 762.2842,-256 772.2841,-259.5001 772.2842,-252.5001"/>
</g>
<!-- FormsModule -->
<g id="node4" class="node">
<title>FormsModule</title>
<polygon fill="#8dd3c7" stroke="#000000" points="1309.8288,-198 1306.8288,-202 1285.8288,-202 1282.8288,-198 1214.1712,-198 1214.1712,-162 1309.8288,-162 1309.8288,-198"/>
<text text-anchor="middle" x="1262" y="-175.8" font-family="Times,serif" font-size="14.00" fill="#000000">FormsModule</text>
</g>
<!-- FormsModule&#45;&gt;AboutPageModule -->
<g id="edge3" class="edge">
<title>FormsModule&#45;&gt;AboutPageModule</title>
<path fill="none" stroke="#000000" d="M1277.888,-198.2396C1277.888,-213.5706 1277.888,-233 1277.888,-233 1277.888,-233 1183.9297,-233 1183.9297,-233"/>
<polygon fill="#000000" stroke="#000000" points="1183.9298,-229.5001 1173.9297,-233 1183.9297,-236.5001 1183.9298,-229.5001"/>
</g>
<!-- AppModule -->
<g id="node10" class="node">
<title>AppModule</title>
<polygon fill="#8dd3c7" stroke="#000000" points="3777.6571,-263 3774.6571,-267 3753.6571,-267 3750.6571,-263 3694.3429,-263 3694.3429,-227 3777.6571,-227 3777.6571,-263"/>
<text text-anchor="middle" x="3736" y="-240.8" font-family="Times,serif" font-size="14.00" fill="#000000">AppModule</text>
</g>
<!-- FormsModule&#45;&gt;AppModule -->
<g id="edge12" class="edge">
<title>FormsModule&#45;&gt;AppModule</title>
<path fill="none" stroke="#000000" d="M1262,-198.1679C1262,-200.4478 1262,-202 1262,-202 1262,-202 3705.9434,-202 3705.9434,-202 3705.9434,-202 3705.9434,-216.5146 3705.9434,-216.5146"/>
<polygon fill="#000000" stroke="#000000" points="3702.4435,-216.5145 3705.9434,-226.5146 3709.4435,-216.5146 3702.4435,-216.5145"/>
</g>
<!-- FormsModule&#45;&gt;GamePageModule -->
<g id="edge28" class="edge">
<title>FormsModule&#45;&gt;GamePageModule</title>
<path fill="none" stroke="#000000" d="M1293.7761,-198.0908C1293.7761,-221.1328 1293.7761,-258 1293.7761,-258 1293.7761,-258 1871.8889,-258 1871.8889,-258"/>
<polygon fill="#000000" stroke="#000000" points="1871.889,-261.5001 1881.8889,-258 1871.8889,-254.5001 1871.889,-261.5001"/>
</g>
<!-- FormsModule&#45;&gt;HomePageModule -->
<g id="edge36" class="edge">
<title>FormsModule&#45;&gt;HomePageModule</title>
<path fill="none" stroke="#000000" d="M1230.2239,-198.32C1230.2239,-206.7883 1230.2239,-215 1230.2239,-215 1230.2239,-215 265.9039,-215 265.9039,-215 265.9039,-215 265.9039,-216.8568 265.9039,-216.8568"/>
<polygon fill="#000000" stroke="#000000" points="262.404,-216.8568 265.9039,-226.8568 269.404,-216.8568 262.404,-216.8568"/>
</g>
<!-- FormsModule&#45;&gt;TeamPageModule -->
<g id="edge44" class="edge">
<title>FormsModule&#45;&gt;TeamPageModule</title>
<path fill="none" stroke="#000000" d="M1246.112,-198.1505C1246.112,-210.2708 1246.112,-224 1246.112,-224 1246.112,-224 728.514,-224 728.514,-224 728.514,-224 728.514,-224.292 728.514,-224.292"/>
<polygon fill="#000000" stroke="#000000" points="725.0144,-216.9198 728.514,-226.92 732.0144,-216.9201 725.0144,-216.9198"/>
</g>
<!-- IonicModule -->
<g id="node5" class="node">
<title>IonicModule</title>
<polygon fill="#8dd3c7" stroke="#000000" points="882.3162,-198 879.3162,-202 858.3162,-202 855.3162,-198 793.6838,-198 793.6838,-162 882.3162,-162 882.3162,-198"/>
<text text-anchor="middle" x="838" y="-175.8" font-family="Times,serif" font-size="14.00" fill="#000000">IonicModule</text>
</g>
<!-- IonicModule&#45;&gt;AboutPageModule -->
<g id="edge4" class="edge">
<title>IonicModule&#45;&gt;AboutPageModule</title>
<path fill="none" stroke="#000000" d="M864.4947,-198.2667C864.4947,-216.5552 864.4947,-242 864.4947,-242 864.4947,-242 1042.2088,-242 1042.2088,-242"/>
<polygon fill="#000000" stroke="#000000" points="1042.2088,-245.5001 1052.2088,-242 1042.2087,-238.5001 1042.2088,-245.5001"/>
</g>
<!-- IonicModule&#45;&gt;GamePageModule -->
<g id="edge29" class="edge">
<title>IonicModule&#45;&gt;GamePageModule</title>
<path fill="none" stroke="#000000" d="M829.1684,-198.207C829.1684,-203.5549 829.1684,-208 829.1684,-208 829.1684,-208 1911.953,-208 1911.953,-208 1911.953,-208 1911.953,-216.9336 1911.953,-216.9336"/>
<polygon fill="#000000" stroke="#000000" points="1908.4531,-216.9335 1911.953,-226.9336 1915.4531,-216.9336 1908.4531,-216.9335"/>
</g>
<!-- IonicModule&#45;&gt;HomePageModule -->
<g id="edge37" class="edge">
<title>IonicModule&#45;&gt;HomePageModule</title>
<path fill="none" stroke="#000000" d="M811.5053,-198.1097C811.5053,-207.897 811.5053,-218 811.5053,-218 811.5053,-218 294.6368,-218 294.6368,-218 294.6368,-218 294.6368,-218.8841 294.6368,-218.8841"/>
<polygon fill="#000000" stroke="#000000" points="291.1369,-216.8408 294.6368,-226.8408 298.1369,-216.8409 291.1369,-216.8408"/>
</g>
<!-- IonicModule&#45;&gt;TeamPageModule -->
<g id="edge45" class="edge">
<title>IonicModule&#45;&gt;TeamPageModule</title>
<path fill="none" stroke="#000000" d="M846.8316,-198.1289C846.8316,-218.5724 846.8316,-249 846.8316,-249 846.8316,-249 772.3322,-249 772.3322,-249"/>
<polygon fill="#000000" stroke="#000000" points="772.3322,-245.5001 762.3322,-249 772.3322,-252.5001 772.3322,-245.5001"/>
</g>
<!-- AboutPageRoutingModule -->
<g id="node6" class="node">
<title>AboutPageRoutingModule</title>
<polygon fill="#8dd3c7" stroke="#000000" points="1196.3766,-198 1193.3766,-202 1172.3766,-202 1169.3766,-198 1029.6234,-198 1029.6234,-162 1196.3766,-162 1196.3766,-198"/>
<text text-anchor="middle" x="1113" y="-175.8" font-family="Times,serif" font-size="14.00" fill="#000000">AboutPageRoutingModule</text>
</g>
<!-- AboutPageRoutingModule&#45;&gt;AboutPageModule -->
<g id="edge5" class="edge">
<title>AboutPageRoutingModule&#45;&gt;AboutPageModule</title>
<path fill="none" stroke="#000000" d="M1113,-198.1061C1113,-198.1061 1113,-216.991 1113,-216.991"/>
<polygon fill="#000000" stroke="#000000" points="1109.5001,-216.9909 1113,-226.991 1116.5001,-216.991 1109.5001,-216.9909"/>
</g>
<!-- RouterModule  -->
<g id="node8" class="node">
<title>RouterModule </title>
<polygon fill="#fb8072" stroke="#000000" points="730.6523,-122 629.3477,-122 629.3477,-86 730.6523,-86 730.6523,-122"/>
<text text-anchor="middle" x="680" y="-99.8" font-family="Times,serif" font-size="14.00" fill="#000000">RouterModule </text>
</g>
<!-- AboutPageRoutingModule&#45;&gt;RouterModule  -->
<g id="edge7" class="edge">
<title>AboutPageRoutingModule&#45;&gt;RouterModule </title>
<path fill="none" stroke="#000000" stroke-dasharray="5,2" d="M1140.8128,-161.8903C1140.8128,-152.103 1140.8128,-142 1140.8128,-142 1140.8128,-142 695.8306,-142 695.8306,-142 695.8306,-142 695.8306,-132.1097 695.8306,-132.1097"/>
<polygon fill="#000000" stroke="#000000" points="699.3307,-132.1096 695.8306,-122.1097 692.3307,-132.1097 699.3307,-132.1096"/>
</g>
<!-- RouterModule.forChild(args) -->
<g id="node7" class="node">
<title>RouterModule.forChild(args)</title>
<polygon fill="#8dd3c7" stroke="#000000" points="936.7323,-122 933.7323,-126 912.7323,-126 909.7323,-122 755.2677,-122 755.2677,-86 936.7323,-86 936.7323,-122"/>
<text text-anchor="middle" x="846" y="-99.8" font-family="Times,serif" font-size="14.00" fill="#000000">RouterModule.forChild(args)</text>
</g>
<!-- RouterModule.forChild(args)&#45;&gt;AboutPageRoutingModule -->
<g id="edge6" class="edge">
<title>RouterModule.forChild(args)&#45;&gt;AboutPageRoutingModule</title>
<path fill="none" stroke="#000000" d="M936.7675,-110C1004.4318,-110 1085.1872,-110 1085.1872,-110 1085.1872,-110 1085.1872,-151.9733 1085.1872,-151.9733"/>
<polygon fill="#000000" stroke="#000000" points="1081.6873,-151.9732 1085.1872,-161.9733 1088.6873,-151.9733 1081.6873,-151.9732"/>
</g>
<!-- GamePageRoutingModule -->
<g id="node29" class="node">
<title>GamePageRoutingModule</title>
<polygon fill="#8dd3c7" stroke="#000000" points="1731.8061,-198 1728.8061,-202 1707.8061,-202 1704.8061,-198 1566.1939,-198 1566.1939,-162 1731.8061,-162 1731.8061,-198"/>
<text text-anchor="middle" x="1649" y="-175.8" font-family="Times,serif" font-size="14.00" fill="#000000">GamePageRoutingModule</text>
</g>
<!-- RouterModule.forChild(args)&#45;&gt;GamePageRoutingModule -->
<g id="edge32" class="edge">
<title>RouterModule.forChild(args)&#45;&gt;GamePageRoutingModule</title>
<path fill="none" stroke="#000000" d="M936.8525,-98C1141.6223,-98 1621.449,-98 1621.449,-98 1621.449,-98 1621.449,-151.8015 1621.449,-151.8015"/>
<polygon fill="#000000" stroke="#000000" points="1617.9491,-151.8015 1621.449,-161.8015 1624.9491,-151.8016 1617.9491,-151.8015"/>
</g>
<!-- HomePageRoutingModule -->
<g id="node33" class="node">
<title>HomePageRoutingModule</title>
<polygon fill="#8dd3c7" stroke="#000000" points="190.0912,-198 187.0912,-202 166.0912,-202 163.0912,-198 23.9088,-198 23.9088,-162 190.0912,-162 190.0912,-198"/>
<text text-anchor="middle" x="107" y="-175.8" font-family="Times,serif" font-size="14.00" fill="#000000">HomePageRoutingModule</text>
</g>
<!-- RouterModule.forChild(args)&#45;&gt;HomePageRoutingModule -->
<g id="edge39" class="edge">
<title>RouterModule.forChild(args)&#45;&gt;HomePageRoutingModule</title>
<path fill="none" stroke="#000000" d="M783.3338,-122.1511C783.3338,-152.6787 783.3338,-211 783.3338,-211 783.3338,-211 186.5348,-211 186.5348,-211 186.5348,-211 186.5348,-208.0328 186.5348,-208.0328"/>
<polygon fill="#000000" stroke="#000000" points="190.0349,-208.0328 186.5348,-198.0328 183.0349,-208.0329 190.0349,-208.0328"/>
</g>
<!-- TeamPageRoutingModule -->
<g id="node37" class="node">
<title>TeamPageRoutingModule</title>
<polygon fill="#8dd3c7" stroke="#000000" points="495.752,-198 492.752,-202 471.752,-202 468.752,-198 332.248,-198 332.248,-162 495.752,-162 495.752,-198"/>
<text text-anchor="middle" x="414" y="-175.8" font-family="Times,serif" font-size="14.00" fill="#000000">TeamPageRoutingModule</text>
</g>
<!-- RouterModule.forChild(args)&#45;&gt;TeamPageRoutingModule -->
<g id="edge47" class="edge">
<title>RouterModule.forChild(args)&#45;&gt;TeamPageRoutingModule</title>
<path fill="none" stroke="#000000" d="M772.8254,-122.1467C772.8254,-135.7395 772.8254,-152 772.8254,-152 772.8254,-152 441.292,-152 441.292,-152 441.292,-152 441.292,-152.9793 441.292,-152.9793"/>
<polygon fill="#000000" stroke="#000000" points="437.7921,-151.793 441.292,-161.793 444.7921,-151.7931 437.7921,-151.793"/>
</g>
<!-- AppComponent -->
<g id="node9" class="node">
<title>AppComponent</title>
<polygon fill="#ffffb3" stroke="#000000" points="4496.9399,-198 4391.0601,-198 4391.0601,-162 4496.9399,-162 4496.9399,-198"/>
<text text-anchor="middle" x="4444" y="-175.8" font-family="Times,serif" font-size="14.00" fill="#000000">AppComponent</text>
</g>
<!-- AppComponent&#45;&gt;AppModule -->
<g id="edge8" class="edge">
<title>AppComponent&#45;&gt;AppModule</title>
<path fill="none" stroke="#000000" d="M4444,-198.0109C4444,-220.4852 4444,-256 4444,-256 4444,-256 3787.9065,-256 3787.9065,-256"/>
<polygon fill="#000000" stroke="#000000" points="3787.9066,-252.5001 3777.9065,-256 3787.9065,-259.5001 3787.9066,-252.5001"/>
</g>
<!-- AppComponent  -->
<g id="node16" class="node">
<title>AppComponent </title>
<polygon fill="#80b1d3" stroke="#000000" points="3790.439,-328 3681.561,-328 3681.561,-292 3790.439,-292 3790.439,-328"/>
<text text-anchor="middle" x="3736" y="-305.8" font-family="Times,serif" font-size="14.00" fill="#000000">AppComponent </text>
</g>
<!-- AppModule&#45;&gt;AppComponent  -->
<g id="edge15" class="edge">
<title>AppModule&#45;&gt;AppComponent </title>
<path fill="none" stroke="#000000" stroke-dasharray="1,5" d="M3736,-263.1061C3736,-263.1061 3736,-281.991 3736,-281.991"/>
<polygon fill="#000000" stroke="#000000" points="3732.5001,-281.9909 3736,-291.991 3739.5001,-281.991 3732.5001,-281.9909"/>
</g>
<!-- RouterModule -->
<g id="node11" class="node">
<title>RouterModule</title>
<polygon fill="#8dd3c7" stroke="#000000" points="3844.6528,-198 3841.6528,-202 3820.6528,-202 3817.6528,-198 3747.3472,-198 3747.3472,-162 3844.6528,-162 3844.6528,-198"/>
<text text-anchor="middle" x="3796" y="-175.8" font-family="Times,serif" font-size="14.00" fill="#000000">RouterModule</text>
</g>
<!-- RouterModule&#45;&gt;AppModule -->
<g id="edge9" class="edge">
<title>RouterModule&#45;&gt;AppModule</title>
<path fill="none" stroke="#000000" d="M3762.5011,-198.1061C3762.5011,-198.1061 3762.5011,-216.991 3762.5011,-216.991"/>
<polygon fill="#000000" stroke="#000000" points="3759.0011,-216.9909 3762.5011,-226.991 3766.0011,-216.991 3759.0011,-216.9909"/>
</g>
<!-- BrowserModule -->
<g id="node12" class="node">
<title>BrowserModule</title>
<polygon fill="#8dd3c7" stroke="#000000" points="3729.4734,-198 3726.4734,-202 3705.4734,-202 3702.4734,-198 3622.5266,-198 3622.5266,-162 3729.4734,-162 3729.4734,-198"/>
<text text-anchor="middle" x="3676" y="-175.8" font-family="Times,serif" font-size="14.00" fill="#000000">BrowserModule</text>
</g>
<!-- BrowserModule&#45;&gt;AppModule -->
<g id="edge10" class="edge">
<title>BrowserModule&#45;&gt;AppModule</title>
<path fill="none" stroke="#000000" d="M3717.7151,-198.1061C3717.7151,-198.1061 3717.7151,-216.991 3717.7151,-216.991"/>
<polygon fill="#000000" stroke="#000000" points="3714.2152,-216.9909 3717.7151,-226.991 3721.2152,-216.991 3714.2152,-216.9909"/>
</g>
<!-- BrowserAnimationsModule -->
<g id="node13" class="node">
<title>BrowserAnimationsModule</title>
<polygon fill="#8dd3c7" stroke="#000000" points="4367.3019,-198 4364.3019,-202 4343.3019,-202 4340.3019,-198 4194.6981,-198 4194.6981,-162 4367.3019,-162 4367.3019,-198"/>
<text text-anchor="middle" x="4281" y="-175.8" font-family="Times,serif" font-size="14.00" fill="#000000">BrowserAnimationsModule</text>
</g>
<!-- BrowserAnimationsModule&#45;&gt;AppModule -->
<g id="edge11" class="edge">
<title>BrowserAnimationsModule&#45;&gt;AppModule</title>
<path fill="none" stroke="#000000" d="M4281,-198.1289C4281,-218.5724 4281,-249 4281,-249 4281,-249 3787.8603,-249 3787.8603,-249"/>
<polygon fill="#000000" stroke="#000000" points="3787.8603,-245.5001 3777.8603,-249 3787.8603,-252.5001 3787.8603,-245.5001"/>
</g>
<!-- IonicModule.forRoot(args) -->
<g id="node14" class="node">
<title>IonicModule.forRoot(args)</title>
<polygon fill="#8dd3c7" stroke="#000000" points="4177.005,-198 4174.005,-202 4153.005,-202 4150.005,-198 4008.995,-198 4008.995,-162 4177.005,-162 4177.005,-198"/>
<text text-anchor="middle" x="4093" y="-175.8" font-family="Times,serif" font-size="14.00" fill="#000000">IonicModule.forRoot(args)</text>
</g>
<!-- IonicModule.forRoot(args)&#45;&gt;AppModule -->
<g id="edge13" class="edge">
<title>IonicModule.forRoot(args)&#45;&gt;AppModule</title>
<path fill="none" stroke="#000000" d="M4093,-198.2667C4093,-216.5552 4093,-242 4093,-242 4093,-242 3788.0022,-242 3788.0022,-242"/>
<polygon fill="#000000" stroke="#000000" points="3788.0023,-238.5001 3778.0022,-242 3788.0022,-245.5001 3788.0023,-238.5001"/>
</g>
<!-- AppRoutingModule -->
<g id="node15" class="node">
<title>AppRoutingModule</title>
<polygon fill="#8dd3c7" stroke="#000000" points="3991.2744,-198 3988.2744,-202 3967.2744,-202 3964.2744,-198 3862.7256,-198 3862.7256,-162 3991.2744,-162 3991.2744,-198"/>
<text text-anchor="middle" x="3927" y="-175.8" font-family="Times,serif" font-size="14.00" fill="#000000">AppRoutingModule</text>
</g>
<!-- AppRoutingModule&#45;&gt;AppModule -->
<g id="edge14" class="edge">
<title>AppRoutingModule&#45;&gt;AppModule</title>
<path fill="none" stroke="#000000" d="M3927,-198.0091C3927,-214.0494 3927,-235 3927,-235 3927,-235 3787.9158,-235 3787.9158,-235"/>
<polygon fill="#000000" stroke="#000000" points="3787.9158,-231.5001 3777.9158,-235 3787.9157,-238.5001 3787.9158,-231.5001"/>
</g>
<!-- StatusBar -->
<g id="node17" class="node">
<title>StatusBar</title>
<ellipse fill="#fdb462" stroke="#000000" cx="3018" cy="-180" rx="48.6694" ry="18"/>
<text text-anchor="middle" x="3018" y="-175.8" font-family="Times,serif" font-size="14.00" fill="#000000">StatusBar</text>
</g>
<!-- StatusBar&#45;&gt;AppModule -->
<g id="edge16" class="edge">
<title>StatusBar&#45;&gt;AppModule</title>
<path fill="none" stroke="#000000" d="M3018,-198.0091C3018,-214.0494 3018,-235 3018,-235 3018,-235 3684.2938,-235 3684.2938,-235"/>
<polygon fill="#000000" stroke="#000000" points="3684.2939,-238.5001 3694.2938,-235 3684.2938,-231.5001 3684.2939,-238.5001"/>
</g>
<!-- SplashScreen -->
<g id="node18" class="node">
<title>SplashScreen</title>
<ellipse fill="#fdb462" stroke="#000000" cx="2888" cy="-180" rx="63.1189" ry="18"/>
<text text-anchor="middle" x="2888" y="-175.8" font-family="Times,serif" font-size="14.00" fill="#000000">SplashScreen</text>
</g>
<!-- SplashScreen&#45;&gt;AppModule -->
<g id="edge17" class="edge">
<title>SplashScreen&#45;&gt;AppModule</title>
<path fill="none" stroke="#000000" d="M2888,-198.0336C2888,-215.0597 2888,-238 2888,-238 2888,-238 3684.2368,-238 3684.2368,-238"/>
<polygon fill="#000000" stroke="#000000" points="3684.2368,-241.5001 3694.2368,-238 3684.2368,-234.5001 3684.2368,-241.5001"/>
</g>
<!-- { provide: RouteReuseStrategy, useClass: IonicRouteStrategy } -->
<g id="node19" class="node">
<title>{ provide: RouteReuseStrategy, useClass: IonicRouteStrategy }</title>
<ellipse fill="#fdb462" stroke="#000000" cx="3342" cy="-180" rx="257.2723" ry="18"/>
<text text-anchor="middle" x="3342" y="-175.8" font-family="Times,serif" font-size="14.00" fill="#000000">{ provide: RouteReuseStrategy, useClass: IonicRouteStrategy }</text>
</g>
<!-- { provide: RouteReuseStrategy, useClass: IonicRouteStrategy }&#45;&gt;AppModule -->
<g id="edge18" class="edge">
<title>{ provide: RouteReuseStrategy, useClass: IonicRouteStrategy }&#45;&gt;AppModule</title>
<path fill="none" stroke="#000000" d="M3342,-198.1243C3342,-212.7832 3342,-231 3342,-231 3342,-231 3684.2081,-231 3684.2081,-231"/>
<polygon fill="#000000" stroke="#000000" points="3684.2081,-234.5001 3694.2081,-231 3684.2081,-227.5001 3684.2081,-234.5001"/>
</g>
<!-- GamePage -->
<g id="node20" class="node">
<title>GamePage</title>
<polygon fill="#ffffb3" stroke="#000000" points="2498.139,-198 2421.861,-198 2421.861,-162 2498.139,-162 2498.139,-198"/>
<text text-anchor="middle" x="2460" y="-175.8" font-family="Times,serif" font-size="14.00" fill="#000000">GamePage</text>
</g>
<!-- GamePage&#45;&gt;GamePageModule -->
<g id="edge19" class="edge">
<title>GamePage&#45;&gt;GamePageModule</title>
<path fill="none" stroke="#000000" d="M2460,-198.0449C2460,-219.6623 2460,-253 2460,-253 2460,-253 2012.1809,-253 2012.1809,-253"/>
<polygon fill="#000000" stroke="#000000" points="2012.1809,-249.5001 2002.1809,-253 2012.1808,-256.5001 2012.1809,-249.5001"/>
</g>
<!-- BoardComponent -->
<g id="node21" class="node">
<title>BoardComponent</title>
<polygon fill="#ffffb3" stroke="#000000" points="2403.5451,-198 2288.4549,-198 2288.4549,-162 2403.5451,-162 2403.5451,-198"/>
<text text-anchor="middle" x="2346" y="-175.8" font-family="Times,serif" font-size="14.00" fill="#000000">BoardComponent</text>
</g>
<!-- BoardComponent&#45;&gt;GamePageModule -->
<g id="edge20" class="edge">
<title>BoardComponent&#45;&gt;GamePageModule</title>
<path fill="none" stroke="#000000" d="M2346,-198.1289C2346,-218.5724 2346,-249 2346,-249 2346,-249 2012.4829,-249 2012.4829,-249"/>
<polygon fill="#000000" stroke="#000000" points="2012.4829,-245.5001 2002.4829,-249 2012.4828,-252.5001 2012.4829,-245.5001"/>
</g>
<!-- InfoComponent -->
<g id="node22" class="node">
<title>InfoComponent</title>
<polygon fill="#ffffb3" stroke="#000000" points="2270.1542,-198 2165.8458,-198 2165.8458,-162 2270.1542,-162 2270.1542,-198"/>
<text text-anchor="middle" x="2218" y="-175.8" font-family="Times,serif" font-size="14.00" fill="#000000">InfoComponent</text>
</g>
<!-- InfoComponent&#45;&gt;GamePageModule -->
<g id="edge21" class="edge">
<title>InfoComponent&#45;&gt;GamePageModule</title>
<path fill="none" stroke="#000000" d="M2218,-198.1061C2218,-217.3391 2218,-245 2218,-245 2218,-245 2012.2283,-245 2012.2283,-245"/>
<polygon fill="#000000" stroke="#000000" points="2012.2284,-241.5001 2002.2283,-245 2012.2283,-248.5001 2012.2284,-241.5001"/>
</g>
<!-- ControlComponent -->
<g id="node23" class="node">
<title>ControlComponent</title>
<polygon fill="#ffffb3" stroke="#000000" points="2148.1108,-198 2023.8892,-198 2023.8892,-162 2148.1108,-162 2148.1108,-198"/>
<text text-anchor="middle" x="2086" y="-175.8" font-family="Times,serif" font-size="14.00" fill="#000000">ControlComponent</text>
</g>
<!-- ControlComponent&#45;&gt;GamePageModule -->
<g id="edge22" class="edge">
<title>ControlComponent&#45;&gt;GamePageModule</title>
<path fill="none" stroke="#000000" d="M2086,-198.2667C2086,-216.5552 2086,-242 2086,-242 2086,-242 2012.2346,-242 2012.2346,-242"/>
<polygon fill="#000000" stroke="#000000" points="2012.2346,-238.5001 2002.2346,-242 2012.2346,-245.5001 2012.2346,-238.5001"/>
</g>
<!-- ConsoleComponent -->
<g id="node24" class="node">
<title>ConsoleComponent</title>
<polygon fill="#ffffb3" stroke="#000000" points="2005.719,-198 1878.281,-198 1878.281,-162 2005.719,-162 2005.719,-198"/>
<text text-anchor="middle" x="1942" y="-175.8" font-family="Times,serif" font-size="14.00" fill="#000000">ConsoleComponent</text>
</g>
<!-- ConsoleComponent&#45;&gt;GamePageModule -->
<g id="edge23" class="edge">
<title>ConsoleComponent&#45;&gt;GamePageModule</title>
<path fill="none" stroke="#000000" d="M1972.047,-198.1061C1972.047,-198.1061 1972.047,-216.991 1972.047,-216.991"/>
<polygon fill="#000000" stroke="#000000" points="1968.5471,-216.9909 1972.047,-226.991 1975.5471,-216.991 1968.5471,-216.9909"/>
</g>
<!-- HexComponent -->
<g id="node25" class="node">
<title>HexComponent</title>
<polygon fill="#ffffb3" stroke="#000000" points="1860.1542,-198 1755.8458,-198 1755.8458,-162 1860.1542,-162 1860.1542,-198"/>
<text text-anchor="middle" x="1808" y="-175.8" font-family="Times,serif" font-size="14.00" fill="#000000">HexComponent</text>
</g>
<!-- HexComponent&#45;&gt;GamePageModule -->
<g id="edge24" class="edge">
<title>HexComponent&#45;&gt;GamePageModule</title>
<path fill="none" stroke="#000000" d="M1808,-198.2222C1808,-216.8285 1808,-243 1808,-243 1808,-243 1871.664,-243 1871.664,-243"/>
<polygon fill="#000000" stroke="#000000" points="1871.6641,-246.5001 1881.664,-243 1871.664,-239.5001 1871.6641,-246.5001"/>
</g>
<!-- PenguinComponent -->
<g id="node26" class="node">
<title>PenguinComponent</title>
<polygon fill="#ffffb3" stroke="#000000" points="2784.7204,-198 2657.2796,-198 2657.2796,-162 2784.7204,-162 2784.7204,-198"/>
<text text-anchor="middle" x="2721" y="-175.8" font-family="Times,serif" font-size="14.00" fill="#000000">PenguinComponent</text>
</g>
<!-- PenguinComponent&#45;&gt;GamePageModule -->
<g id="edge25" class="edge">
<title>PenguinComponent&#45;&gt;GamePageModule</title>
<path fill="none" stroke="#000000" d="M2721,-198.1532C2721,-221.7566 2721,-260 2721,-260 2721,-260 2012.1556,-260 2012.1556,-260"/>
<polygon fill="#000000" stroke="#000000" points="2012.1556,-256.5001 2002.1556,-260 2012.1556,-263.5001 2012.1556,-256.5001"/>
</g>
<!-- ResultsComponent -->
<g id="node27" class="node">
<title>ResultsComponent</title>
<polygon fill="#ffffb3" stroke="#000000" points="2639.0548,-198 2516.9452,-198 2516.9452,-162 2639.0548,-162 2639.0548,-198"/>
<text text-anchor="middle" x="2578" y="-175.8" font-family="Times,serif" font-size="14.00" fill="#000000">ResultsComponent</text>
</g>
<!-- ResultsComponent&#45;&gt;GamePageModule -->
<g id="edge26" class="edge">
<title>ResultsComponent&#45;&gt;GamePageModule</title>
<path fill="none" stroke="#000000" d="M2578,-198.0109C2578,-220.4852 2578,-256 2578,-256 2578,-256 2012.1197,-256 2012.1197,-256"/>
<polygon fill="#000000" stroke="#000000" points="2012.1198,-252.5001 2002.1197,-256 2012.1197,-259.5001 2012.1198,-252.5001"/>
</g>
<!-- GamePageRoutingModule&#45;&gt;RouterModule  -->
<g id="edge33" class="edge">
<title>GamePageRoutingModule&#45;&gt;RouterModule </title>
<path fill="none" stroke="#000000" stroke-dasharray="5,2" d="M1676.551,-161.8533C1676.551,-148.2605 1676.551,-132 1676.551,-132 1676.551,-132 713.2034,-132 713.2034,-132 713.2034,-132 713.2034,-131.0207 713.2034,-131.0207"/>
<polygon fill="#000000" stroke="#000000" points="716.7035,-132.2069 713.2034,-122.207 709.7035,-132.207 716.7035,-132.2069"/>
</g>
<!-- GamePageRoutingModule&#45;&gt;GamePageModule -->
<g id="edge30" class="edge">
<title>GamePageRoutingModule&#45;&gt;GamePageModule</title>
<path fill="none" stroke="#000000" d="M1649,-198.2228C1649,-218.3652 1649,-248 1649,-248 1649,-248 1871.6455,-248 1871.6455,-248"/>
<polygon fill="#000000" stroke="#000000" points="1871.6455,-251.5001 1881.6455,-248 1871.6454,-244.5001 1871.6455,-251.5001"/>
</g>
<!-- ChartsModule -->
<g id="node30" class="node">
<title>ChartsModule</title>
<polygon fill="#8dd3c7" stroke="#000000" points="1548.0968,-198 1545.0968,-202 1524.0968,-202 1521.0968,-198 1451.9032,-198 1451.9032,-162 1548.0968,-162 1548.0968,-198"/>
<text text-anchor="middle" x="1500" y="-175.8" font-family="Times,serif" font-size="14.00" fill="#000000">ChartsModule</text>
</g>
<!-- ChartsModule&#45;&gt;GamePageModule -->
<g id="edge31" class="edge">
<title>ChartsModule&#45;&gt;GamePageModule</title>
<path fill="none" stroke="#000000" d="M1500,-198.0449C1500,-219.6623 1500,-253 1500,-253 1500,-253 1871.4686,-253 1871.4686,-253"/>
<polygon fill="#000000" stroke="#000000" points="1871.4686,-256.5001 1881.4686,-253 1871.4685,-249.5001 1871.4686,-256.5001"/>
</g>
<!-- HomePage -->
<g id="node31" class="node">
<title>HomePage</title>
<polygon fill="#ffffb3" stroke="#000000" points="291.9248,-198 214.0752,-198 214.0752,-162 291.9248,-162 291.9248,-198"/>
<text text-anchor="middle" x="253" y="-175.8" font-family="Times,serif" font-size="14.00" fill="#000000">HomePage</text>
</g>
<!-- HomePage&#45;&gt;HomePageModule -->
<g id="edge34" class="edge">
<title>HomePage&#45;&gt;HomePageModule</title>
<path fill="none" stroke="#000000" d="M240.0961,-198.1061C240.0961,-198.1061 240.0961,-216.991 240.0961,-216.991"/>
<polygon fill="#000000" stroke="#000000" points="236.5962,-216.9909 240.0961,-226.991 243.5962,-216.991 236.5962,-216.9909"/>
</g>
<!-- HomePageRoutingModule&#45;&gt;RouterModule  -->
<g id="edge40" class="edge">
<title>HomePageRoutingModule&#45;&gt;RouterModule </title>
<path fill="none" stroke="#000000" stroke-dasharray="5,2" d="M107,-161.8015C107,-137.6437 107,-98 107,-98 107,-98 619.4014,-98 619.4014,-98"/>
<polygon fill="#000000" stroke="#000000" points="619.4015,-101.5001 629.4014,-98 619.4014,-94.5001 619.4015,-101.5001"/>
</g>
<!-- HomePageRoutingModule&#45;&gt;HomePageModule -->
<g id="edge38" class="edge">
<title>HomePageRoutingModule&#45;&gt;HomePageModule</title>
<path fill="none" stroke="#000000" d="M183.0241,-198.1061C183.0241,-198.1061 183.0241,-216.991 183.0241,-216.991"/>
<polygon fill="#000000" stroke="#000000" points="179.5242,-216.9909 183.0241,-226.991 186.5242,-216.991 179.5242,-216.9909"/>
</g>
<!-- TeamPage -->
<g id="node34" class="node">
<title>TeamPage</title>
<polygon fill="#ffffb3" stroke="#000000" points="753.5842,-198 678.4158,-198 678.4158,-162 753.5842,-162 753.5842,-198"/>
<text text-anchor="middle" x="716" y="-175.8" font-family="Times,serif" font-size="14.00" fill="#000000">TeamPage</text>
</g>
<!-- TeamPage&#45;&gt;TeamPageModule -->
<g id="edge41" class="edge">
<title>TeamPage&#45;&gt;TeamPageModule</title>
<path fill="none" stroke="#000000" d="M703.486,-198.1061C703.486,-198.1061 703.486,-216.991 703.486,-216.991"/>
<polygon fill="#000000" stroke="#000000" points="699.9861,-216.9909 703.486,-226.991 706.9861,-216.991 699.9861,-216.9909"/>
</g>
<!-- TeamCardComponent -->
<g id="node35" class="node">
<title>TeamCardComponent</title>
<polygon fill="#ffffb3" stroke="#000000" points="660.4172,-198 519.5828,-198 519.5828,-162 660.4172,-162 660.4172,-198"/>
<text text-anchor="middle" x="590" y="-175.8" font-family="Times,serif" font-size="14.00" fill="#000000">TeamCardComponent</text>
</g>
<!-- TeamCardComponent&#45;&gt;TeamPageModule -->
<g id="edge42" class="edge">
<title>TeamCardComponent&#45;&gt;TeamPageModule</title>
<path fill="none" stroke="#000000" d="M651.9457,-198.1061C651.9457,-198.1061 651.9457,-216.991 651.9457,-216.991"/>
<polygon fill="#000000" stroke="#000000" points="648.4457,-216.9909 651.9457,-226.991 655.4457,-216.991 648.4457,-216.9909"/>
</g>
<!-- TeamPageRoutingModule&#45;&gt;RouterModule  -->
<g id="edge48" class="edge">
<title>TeamPageRoutingModule&#45;&gt;RouterModule </title>
<path fill="none" stroke="#000000" stroke-dasharray="5,2" d="M386.708,-161.9733C386.708,-141.2328 386.708,-110 386.708,-110 386.708,-110 619.2473,-110 619.2473,-110"/>
<polygon fill="#000000" stroke="#000000" points="619.2473,-113.5001 629.2473,-110 619.2472,-106.5001 619.2473,-113.5001"/>
</g>
<!-- TeamPageRoutingModule&#45;&gt;TeamPageModule -->
<g id="edge46" class="edge">
<title>TeamPageRoutingModule&#45;&gt;TeamPageModule</title>
<path fill="none" stroke="#000000" d="M414,-198.1061C414,-217.3391 414,-245 414,-245 414,-245 633.8192,-245 633.8192,-245"/>
<polygon fill="#000000" stroke="#000000" points="633.8192,-248.5001 643.8192,-245 633.8191,-241.5001 633.8192,-248.5001"/>
</g>
</g>
</svg>
