<?xml version="1.0" encoding="UTF-8" standalone="no"?>
<!DOCTYPE svg PUBLIC "-//W3C//DTD SVG 1.1//EN"
 "http://www.w3.org/Graphics/SVG/1.1/DTD/svg11.dtd">
<!-- Generated by graphviz version 2.40.1 (20161225.0304)
 -->
<!-- Title: dependencies Pages: 1 -->
<svg width="4117pt" height="360pt"
 viewBox="0.00 0.00 4117.00 360.00" xmlns="http://www.w3.org/2000/svg" xmlns:xlink="http://www.w3.org/1999/xlink">
<g id="graph0" class="graph" transform="scale(1 1) rotate(0) translate(4 356)">
<title>dependencies</title>
<polygon fill="#ffffff" stroke="transparent" points="-4,4 -4,-356 4113,-356 4113,4 -4,4"/>
<text text-anchor="start" x="2033.5091" y="-42.4" font-family="sans-serif" font-weight="bold" font-size="14.00" fill="#000000">Legend</text>
<polygon fill="#ffffb3" stroke="transparent" points="1820.5,-10 1820.5,-30 1840.5,-30 1840.5,-10 1820.5,-10"/>
<text text-anchor="start" x="1844.129" y="-15.4" font-family="sans-serif" font-size="14.00" fill="#000000"> &#160;Declarations</text>
<polygon fill="#8dd3c7" stroke="transparent" points="1933.5,-10 1933.5,-30 1953.5,-30 1953.5,-10 1933.5,-10"/>
<text text-anchor="start" x="1957.2251" y="-15.4" font-family="sans-serif" font-size="14.00" fill="#000000"> &#160;Module</text>
<polygon fill="#80b1d3" stroke="transparent" points="2019.5,-10 2019.5,-30 2039.5,-30 2039.5,-10 2019.5,-10"/>
<text text-anchor="start" x="2043.2812" y="-15.4" font-family="sans-serif" font-size="14.00" fill="#000000"> &#160;Bootstrap</text>
<polygon fill="#fdb462" stroke="transparent" points="2116.5,-10 2116.5,-30 2136.5,-30 2136.5,-10 2116.5,-10"/>
<text text-anchor="start" x="2140.1732" y="-15.4" font-family="sans-serif" font-size="14.00" fill="#000000"> &#160;Providers</text>
<polygon fill="#fb8072" stroke="transparent" points="2212.5,-10 2212.5,-30 2232.5,-30 2232.5,-10 2212.5,-10"/>
<text text-anchor="start" x="2236.2258" y="-15.4" font-family="sans-serif" font-size="14.00" fill="#000000"> &#160;Exports</text>
<g id="clust1" class="cluster">
<title>cluster_AboutPageModule</title>
<polygon fill="none" stroke="#000000" stroke-dasharray="1,5" points="620,-146 620,-271 1270,-271 1270,-146 620,-146"/>
</g>
<g id="clust2" class="cluster">
<title>cluster_AboutPageModule_declarations</title>
<polygon fill="none" stroke="#000000" points="1168,-154 1168,-206 1262,-206 1262,-154 1168,-154"/>
</g>
<g id="clust4" class="cluster">
<title>cluster_AboutPageModule_imports</title>
<polygon fill="none" stroke="#000000" points="628,-154 628,-206 1160,-206 1160,-154 628,-154"/>
</g>
<g id="clust8" class="cluster">
<title>cluster_AboutPageRoutingModule</title>
<polygon fill="none" stroke="#000000" stroke-dasharray="1,5" points="534,-70 534,-138 874,-138 874,-70 534,-70"/>
</g>
<g id="clust10" class="cluster">
<title>cluster_AboutPageRoutingModule_imports</title>
<polygon fill="none" stroke="#000000" points="668,-78 668,-130 866,-130 866,-78 668,-78"/>
</g>
<g id="clust11" class="cluster">
<title>cluster_AboutPageRoutingModule_exports</title>
<polygon fill="none" stroke="#000000" points="542,-78 542,-130 660,-130 660,-78 542,-78"/>
</g>
<g id="clust14" class="cluster">
<title>cluster_AppModule</title>
<polygon fill="none" stroke="#000000" stroke-dasharray="1,5" points="2396,-146 2396,-344 4101,-344 4101,-146 2396,-146"/>
</g>
<g id="clust15" class="cluster">
<title>cluster_AppModule_declarations</title>
<polygon fill="none" stroke="#000000" points="3971,-154 3971,-206 4093,-206 4093,-154 3971,-154"/>
</g>
<g id="clust17" class="cluster">
<title>cluster_AppModule_imports</title>
<polygon fill="none" stroke="#000000" points="3202,-154 3202,-206 3963,-206 3963,-154 3202,-154"/>
</g>
<g id="clust19" class="cluster">
<title>cluster_AppModule_bootstrap</title>
<polygon fill="none" stroke="#000000" points="3313,-284 3313,-336 3437,-336 3437,-284 3313,-284"/>
</g>
<g id="clust20" class="cluster">
<title>cluster_AppModule_providers</title>
<polygon fill="none" stroke="#000000" points="2404,-154 2404,-206 3194,-206 3194,-154 2404,-154"/>
</g>
<g id="clust21" class="cluster">
<title>cluster_GamePageModule</title>
<polygon fill="none" stroke="#000000" stroke-dasharray="1,5" points="1278,-146 1278,-271 2388,-271 2388,-146 1278,-146"/>
</g>
<g id="clust22" class="cluster">
<title>cluster_GamePageModule_declarations</title>
<polygon fill="none" stroke="#000000" points="1476,-154 1476,-206 2380,-206 2380,-154 1476,-154"/>
</g>
<g id="clust30" class="cluster">
<title>cluster_GamePageModule_imports</title>
<polygon fill="none" stroke="#000000" points="1286,-154 1286,-206 1468,-206 1468,-154 1286,-154"/>
</g>
<g id="clust40" class="cluster">
<title>cluster_HomePageModule</title>
<polygon fill="none" stroke="#000000" stroke-dasharray="1,5" points="8,-146 8,-271 308,-271 308,-146 8,-146"/>
</g>
<g id="clust41" class="cluster">
<title>cluster_HomePageModule_declarations</title>
<polygon fill="none" stroke="#000000" points="206,-154 206,-206 300,-206 300,-154 206,-154"/>
</g>
<g id="clust43" class="cluster">
<title>cluster_HomePageModule_imports</title>
<polygon fill="none" stroke="#000000" points="16,-154 16,-206 198,-206 198,-154 16,-154"/>
</g>
<g id="clust53" class="cluster">
<title>cluster_TeamPageModule</title>
<polygon fill="none" stroke="#000000" stroke-dasharray="1,5" points="316,-146 316,-271 612,-271 612,-146 316,-146"/>
</g>
<g id="clust54" class="cluster">
<title>cluster_TeamPageModule_declarations</title>
<polygon fill="none" stroke="#000000" points="512,-154 512,-206 604,-206 604,-154 512,-154"/>
</g>
<g id="clust56" class="cluster">
<title>cluster_TeamPageModule_imports</title>
<polygon fill="none" stroke="#000000" points="324,-154 324,-206 504,-206 504,-154 324,-154"/>
</g>
<!-- AboutPage -->
<g id="node1" class="node">
<title>AboutPage</title>
<polygon fill="#ffffb3" stroke="#000000" points="1254.2093,-198 1175.7907,-198 1175.7907,-162 1254.2093,-162 1254.2093,-198"/>
<text text-anchor="middle" x="1215" y="-175.8" font-family="Times,serif" font-size="14.00" fill="#000000">AboutPage</text>
</g>
<!-- AboutPageModule -->
<g id="node2" class="node">
<title>AboutPageModule</title>
<polygon fill="#8dd3c7" stroke="#000000" points="1015.759,-263 1012.759,-267 991.759,-267 988.759,-263 894.241,-263 894.241,-227 1015.759,-227 1015.759,-263"/>
<text text-anchor="middle" x="955" y="-240.8" font-family="Times,serif" font-size="14.00" fill="#000000">AboutPageModule</text>
</g>
<!-- AboutPage&#45;&gt;AboutPageModule -->
<g id="edge1" class="edge">
<title>AboutPage&#45;&gt;AboutPageModule</title>
<path fill="none" stroke="#000000" d="M1215,-198.0109C1215,-220.4852 1215,-256 1215,-256 1215,-256 1025.9584,-256 1025.9584,-256"/>
<polygon fill="#000000" stroke="#000000" points="1025.9585,-252.5001 1015.9584,-256 1025.9584,-259.5001 1025.9585,-252.5001"/>
</g>
<!-- CommonModule -->
<g id="node3" class="node">
<title>CommonModule</title>
<polygon fill="#8dd3c7" stroke="#000000" points="853.6681,-198 850.6681,-202 829.6681,-202 826.6681,-198 742.3319,-198 742.3319,-162 853.6681,-162 853.6681,-198"/>
<text text-anchor="middle" x="798" y="-175.8" font-family="Times,serif" font-size="14.00" fill="#000000">CommonModule</text>
</g>
<!-- CommonModule&#45;&gt;AboutPageModule -->
<g id="edge2" class="edge">
<title>CommonModule&#45;&gt;AboutPageModule</title>
<path fill="none" stroke="#000000" d="M831.5003,-198.1061C831.5003,-217.3391 831.5003,-245 831.5003,-245 831.5003,-245 883.9738,-245 883.9738,-245"/>
<polygon fill="#000000" stroke="#000000" points="883.9738,-248.5001 893.9738,-245 883.9737,-241.5001 883.9738,-248.5001"/>
</g>
<!-- GamePageModule -->
<g id="node27" class="node">
<title>GamePageModule</title>
<polygon fill="#8dd3c7" stroke="#000000" points="1738.1881,-263 1735.1881,-267 1714.1881,-267 1711.1881,-263 1617.8119,-263 1617.8119,-227 1738.1881,-227 1738.1881,-263"/>
<text text-anchor="middle" x="1678" y="-240.8" font-family="Times,serif" font-size="14.00" fill="#000000">GamePageModule</text>
</g>
<!-- CommonModule&#45;&gt;GamePageModule -->
<g id="edge26" class="edge">
<title>CommonModule&#45;&gt;GamePageModule</title>
<path fill="none" stroke="#000000" d="M786.8332,-198.0579C786.8332,-202.4945 786.8332,-206 786.8332,-206 786.8332,-206 1621.7896,-206 1621.7896,-206 1621.7896,-206 1621.7896,-216.8701 1621.7896,-216.8701"/>
<polygon fill="#000000" stroke="#000000" points="1618.2897,-216.8701 1621.7896,-226.8701 1625.2897,-216.8701 1618.2897,-216.8701"/>
</g>
<!-- HomePageModule -->
<g id="node30" class="node">
<title>HomePageModule</title>
<polygon fill="#8dd3c7" stroke="#000000" points="300.4734,-263 297.4734,-267 276.4734,-267 273.4734,-263 179.5266,-263 179.5266,-227 300.4734,-227 300.4734,-263"/>
<text text-anchor="middle" x="240" y="-240.8" font-family="Times,serif" font-size="14.00" fill="#000000">HomePageModule</text>
</g>
<!-- CommonModule&#45;&gt;HomePageModule -->
<g id="edge33" class="edge">
<title>CommonModule&#45;&gt;HomePageModule</title>
<path fill="none" stroke="#000000" d="M764.4997,-198.0664C764.4997,-207.4587 764.4997,-217 764.4997,-217 764.4997,-217 296.0993,-217 296.0993,-217 296.0993,-217 296.0993,-217.9793 296.0993,-217.9793"/>
<polygon fill="#000000" stroke="#000000" points="292.5994,-216.793 296.0993,-226.793 299.5994,-216.7931 292.5994,-216.793"/>
</g>
<!-- TeamPageModule -->
<g id="node33" class="node">
<title>TeamPageModule</title>
<polygon fill="#8dd3c7" stroke="#000000" points="604.1346,-263 601.1346,-267 580.1346,-267 577.1346,-263 485.8654,-263 485.8654,-227 604.1346,-227 604.1346,-263"/>
<text text-anchor="middle" x="545" y="-240.8" font-family="Times,serif" font-size="14.00" fill="#000000">TeamPageModule</text>
</g>
<!-- CommonModule&#45;&gt;TeamPageModule -->
<g id="edge40" class="edge">
<title>CommonModule&#45;&gt;TeamPageModule</title>
<path fill="none" stroke="#000000" d="M809.1668,-198.027C809.1668,-214.3976 809.1668,-236 809.1668,-236 809.1668,-236 614.2842,-236 614.2842,-236"/>
<polygon fill="#000000" stroke="#000000" points="614.2842,-232.5001 604.2842,-236 614.2841,-239.5001 614.2842,-232.5001"/>
</g>
<!-- FormsModule -->
<g id="node4" class="node">
<title>FormsModule</title>
<polygon fill="#8dd3c7" stroke="#000000" points="1151.8288,-198 1148.8288,-202 1127.8288,-202 1124.8288,-198 1056.1712,-198 1056.1712,-162 1151.8288,-162 1151.8288,-198"/>
<text text-anchor="middle" x="1104" y="-175.8" font-family="Times,serif" font-size="14.00" fill="#000000">FormsModule</text>
</g>
<!-- FormsModule&#45;&gt;AboutPageModule -->
<g id="edge3" class="edge">
<title>FormsModule&#45;&gt;AboutPageModule</title>
<path fill="none" stroke="#000000" d="M1119.888,-198.1289C1119.888,-218.5724 1119.888,-249 1119.888,-249 1119.888,-249 1025.9297,-249 1025.9297,-249"/>
<polygon fill="#000000" stroke="#000000" points="1025.9298,-245.5001 1015.9297,-249 1025.9297,-252.5001 1025.9298,-245.5001"/>
</g>
<!-- AppModule -->
<g id="node10" class="node">
<title>AppModule</title>
<polygon fill="#8dd3c7" stroke="#000000" points="3416.6571,-263 3413.6571,-267 3392.6571,-267 3389.6571,-263 3333.3429,-263 3333.3429,-227 3416.6571,-227 3416.6571,-263"/>
<text text-anchor="middle" x="3375" y="-240.8" font-family="Times,serif" font-size="14.00" fill="#000000">AppModule</text>
</g>
<!-- FormsModule&#45;&gt;AppModule -->
<g id="edge12" class="edge">
<title>FormsModule&#45;&gt;AppModule</title>
<path fill="none" stroke="#000000" d="M1104,-198.1679C1104,-200.4478 1104,-202 1104,-202 1104,-202 3349.4981,-202 3349.4981,-202 3349.4981,-202 3349.4981,-216.5146 3349.4981,-216.5146"/>
<polygon fill="#000000" stroke="#000000" points="3345.9982,-216.5145 3349.4981,-226.5146 3352.9982,-216.5146 3345.9982,-216.5145"/>
</g>
<!-- FormsModule&#45;&gt;GamePageModule -->
<g id="edge27" class="edge">
<title>FormsModule&#45;&gt;GamePageModule</title>
<path fill="none" stroke="#000000" d="M1135.7761,-198.2667C1135.7761,-216.5552 1135.7761,-242 1135.7761,-242 1135.7761,-242 1607.9008,-242 1607.9008,-242"/>
<polygon fill="#000000" stroke="#000000" points="1607.9009,-245.5001 1617.9008,-242 1607.9008,-238.5001 1607.9009,-245.5001"/>
</g>
<!-- FormsModule&#45;&gt;HomePageModule -->
<g id="edge34" class="edge">
<title>FormsModule&#45;&gt;HomePageModule</title>
<path fill="none" stroke="#000000" d="M1072.2239,-198.1274C1072.2239,-208.7109 1072.2239,-220 1072.2239,-220 1072.2239,-220 298.293,-220 298.293,-220 298.293,-220 298.293,-220.6831 298.293,-220.6831"/>
<polygon fill="#000000" stroke="#000000" points="294.7931,-216.8313 298.293,-226.8314 301.7931,-216.8314 294.7931,-216.8313"/>
</g>
<!-- FormsModule&#45;&gt;TeamPageModule -->
<g id="edge41" class="edge">
<title>FormsModule&#45;&gt;TeamPageModule</title>
<path fill="none" stroke="#000000" d="M1088.112,-198.1505C1088.112,-210.2708 1088.112,-224 1088.112,-224 1088.112,-224 570.514,-224 570.514,-224 570.514,-224 570.514,-224.292 570.514,-224.292"/>
<polygon fill="#000000" stroke="#000000" points="567.0144,-216.9198 570.514,-226.92 574.0144,-216.9201 567.0144,-216.9198"/>
</g>
<!-- IonicModule -->
<g id="node5" class="node">
<title>IonicModule</title>
<polygon fill="#8dd3c7" stroke="#000000" points="724.3162,-198 721.3162,-202 700.3162,-202 697.3162,-198 635.6838,-198 635.6838,-162 724.3162,-162 724.3162,-198"/>
<text text-anchor="middle" x="680" y="-175.8" font-family="Times,serif" font-size="14.00" fill="#000000">IonicModule</text>
</g>
<!-- IonicModule&#45;&gt;AboutPageModule -->
<g id="edge4" class="edge">
<title>IonicModule&#45;&gt;AboutPageModule</title>
<path fill="none" stroke="#000000" d="M702.0789,-198.2921C702.0789,-220.2057 702.0789,-254 702.0789,-254 702.0789,-254 884.0972,-254 884.0972,-254"/>
<polygon fill="#000000" stroke="#000000" points="884.0973,-257.5001 894.0972,-254 884.0972,-250.5001 884.0973,-257.5001"/>
</g>
<!-- IonicModule&#45;&gt;GamePageModule -->
<g id="edge28" class="edge">
<title>IonicModule&#45;&gt;GamePageModule</title>
<path fill="none" stroke="#000000" d="M680,-198.2015C680,-204.028 680,-209 680,-209 680,-209 1619.8478,-209 1619.8478,-209 1619.8478,-209 1619.8478,-216.5782 1619.8478,-216.5782"/>
<polygon fill="#000000" stroke="#000000" points="1616.3479,-216.5781 1619.8478,-226.5782 1623.3479,-216.5782 1616.3479,-216.5781"/>
</g>
<!-- IonicModule&#45;&gt;HomePageModule -->
<g id="edge35" class="edge">
<title>IonicModule&#45;&gt;HomePageModule</title>
<path fill="none" stroke="#000000" d="M657.9211,-198.0449C657.9211,-205.749 657.9211,-213 657.9211,-213 657.9211,-213 293.9055,-213 293.9055,-213 293.9055,-213 293.9055,-216.7566 293.9055,-216.7566"/>
<polygon fill="#000000" stroke="#000000" points="290.4056,-216.7566 293.9055,-226.7566 297.4056,-216.7566 290.4056,-216.7566"/>
</g>
<!-- IonicModule&#45;&gt;TeamPageModule -->
<g id="edge42" class="edge">
<title>IonicModule&#45;&gt;TeamPageModule</title>
<path fill="none" stroke="#000000" d="M635.7493,-180C617.2311,-180 599.9295,-180 599.9295,-180 599.9295,-180 599.9295,-216.8939 599.9295,-216.8939"/>
<polygon fill="#000000" stroke="#000000" points="596.4296,-216.8938 599.9295,-226.8939 603.4296,-216.8939 596.4296,-216.8938"/>
</g>
<!-- AboutPageRoutingModule -->
<g id="node6" class="node">
<title>AboutPageRoutingModule</title>
<polygon fill="#8dd3c7" stroke="#000000" points="1038.3766,-198 1035.3766,-202 1014.3766,-202 1011.3766,-198 871.6234,-198 871.6234,-162 1038.3766,-162 1038.3766,-198"/>
<text text-anchor="middle" x="955" y="-175.8" font-family="Times,serif" font-size="14.00" fill="#000000">AboutPageRoutingModule</text>
</g>
<!-- AboutPageRoutingModule&#45;&gt;AboutPageModule -->
<g id="edge5" class="edge">
<title>AboutPageRoutingModule&#45;&gt;AboutPageModule</title>
<path fill="none" stroke="#000000" d="M955,-198.1061C955,-198.1061 955,-216.991 955,-216.991"/>
<polygon fill="#000000" stroke="#000000" points="951.5001,-216.9909 955,-226.991 958.5001,-216.991 951.5001,-216.9909"/>
</g>
<!-- RouterModule  -->
<g id="node8" class="node">
<title>RouterModule </title>
<polygon fill="#fb8072" stroke="#000000" points="651.6523,-122 550.3477,-122 550.3477,-86 651.6523,-86 651.6523,-122"/>
<text text-anchor="middle" x="601" y="-99.8" font-family="Times,serif" font-size="14.00" fill="#000000">RouterModule </text>
</g>
<!-- AboutPageRoutingModule&#45;&gt;RouterModule  -->
<g id="edge7" class="edge">
<title>AboutPageRoutingModule&#45;&gt;RouterModule </title>
<path fill="none" stroke="#000000" stroke-dasharray="5,2" d="M982.8128,-161.8056C982.8128,-153.7218 982.8128,-146 982.8128,-146 982.8128,-146 641.0868,-146 641.0868,-146 641.0868,-146 641.0868,-132.0555 641.0868,-132.0555"/>
<polygon fill="#000000" stroke="#000000" points="644.5869,-132.0555 641.0868,-122.0555 637.5869,-132.0556 644.5869,-132.0555"/>
</g>
<!-- RouterModule.forChild(args) -->
<g id="node7" class="node">
<title>RouterModule.forChild(args)</title>
<polygon fill="#8dd3c7" stroke="#000000" points="857.7323,-122 854.7323,-126 833.7323,-126 830.7323,-122 676.2677,-122 676.2677,-86 857.7323,-86 857.7323,-122"/>
<text text-anchor="middle" x="767" y="-99.8" font-family="Times,serif" font-size="14.00" fill="#000000">RouterModule.forChild(args)</text>
</g>
<!-- RouterModule.forChild(args)&#45;&gt;AboutPageRoutingModule -->
<g id="edge6" class="edge">
<title>RouterModule.forChild(args)&#45;&gt;AboutPageRoutingModule</title>
<path fill="none" stroke="#000000" d="M857.8584,-110C894.0131,-110 927.1872,-110 927.1872,-110 927.1872,-110 927.1872,-151.9733 927.1872,-151.9733"/>
<polygon fill="#000000" stroke="#000000" points="923.6873,-151.9732 927.1872,-161.9733 930.6873,-151.9733 923.6873,-151.9732"/>
</g>
<!-- GamePageRoutingModule -->
<g id="node28" class="node">
<title>GamePageRoutingModule</title>
<polygon fill="#8dd3c7" stroke="#000000" points="1459.8061,-198 1456.8061,-202 1435.8061,-202 1432.8061,-198 1294.1939,-198 1294.1939,-162 1459.8061,-162 1459.8061,-198"/>
<text text-anchor="middle" x="1377" y="-175.8" font-family="Times,serif" font-size="14.00" fill="#000000">GamePageRoutingModule</text>
</g>
<!-- RouterModule.forChild(args)&#45;&gt;GamePageRoutingModule -->
<g id="edge30" class="edge">
<title>RouterModule.forChild(args)&#45;&gt;GamePageRoutingModule</title>
<path fill="none" stroke="#000000" d="M857.6879,-98C1021.3947,-98 1349.449,-98 1349.449,-98 1349.449,-98 1349.449,-151.8015 1349.449,-151.8015"/>
<polygon fill="#000000" stroke="#000000" points="1345.9491,-151.8015 1349.449,-161.8015 1352.9491,-151.8016 1345.9491,-151.8015"/>
</g>
<!-- HomePageRoutingModule -->
<g id="node31" class="node">
<title>HomePageRoutingModule</title>
<polygon fill="#8dd3c7" stroke="#000000" points="190.0912,-198 187.0912,-202 166.0912,-202 163.0912,-198 23.9088,-198 23.9088,-162 190.0912,-162 190.0912,-198"/>
<text text-anchor="middle" x="107" y="-175.8" font-family="Times,serif" font-size="14.00" fill="#000000">HomePageRoutingModule</text>
</g>
<!-- RouterModule.forChild(args)&#45;&gt;HomePageRoutingModule -->
<g id="edge37" class="edge">
<title>RouterModule.forChild(args)&#45;&gt;HomePageRoutingModule</title>
<path fill="none" stroke="#000000" d="M692.3085,-122.1944C692.3085,-130.2782 692.3085,-138 692.3085,-138 692.3085,-138 134.6819,-138 134.6819,-138 134.6819,-138 134.6819,-151.9445 134.6819,-151.9445"/>
<polygon fill="#000000" stroke="#000000" points="131.182,-151.9444 134.6819,-161.9445 138.182,-151.9445 131.182,-151.9444"/>
</g>
<!-- TeamPageRoutingModule -->
<g id="node34" class="node">
<title>TeamPageRoutingModule</title>
<polygon fill="#8dd3c7" stroke="#000000" points="495.752,-198 492.752,-202 471.752,-202 468.752,-198 332.248,-198 332.248,-162 495.752,-162 495.752,-198"/>
<text text-anchor="middle" x="414" y="-175.8" font-family="Times,serif" font-size="14.00" fill="#000000">TeamPageRoutingModule</text>
</g>
<!-- RouterModule.forChild(args)&#45;&gt;TeamPageRoutingModule -->
<g id="edge44" class="edge">
<title>RouterModule.forChild(args)&#45;&gt;TeamPageRoutingModule</title>
<path fill="none" stroke="#000000" d="M708.2332,-122.0511C708.2332,-136.373 708.2332,-154 708.2332,-154 708.2332,-154 441.292,-154 441.292,-154 441.292,-154 441.292,-154.7942 441.292,-154.7942"/>
<polygon fill="#000000" stroke="#000000" points="437.7921,-151.9421 441.292,-161.9421 444.7921,-151.9422 437.7921,-151.9421"/>
</g>
<!-- AppComponent -->
<g id="node9" class="node">
<title>AppComponent</title>
<polygon fill="#ffffb3" stroke="#000000" points="4084.9399,-198 3979.0601,-198 3979.0601,-162 4084.9399,-162 4084.9399,-198"/>
<text text-anchor="middle" x="4032" y="-175.8" font-family="Times,serif" font-size="14.00" fill="#000000">AppComponent</text>
</g>
<!-- AppComponent&#45;&gt;AppModule -->
<g id="edge8" class="edge">
<title>AppComponent&#45;&gt;AppModule</title>
<path fill="none" stroke="#000000" d="M4032,-198.0109C4032,-220.4852 4032,-256 4032,-256 4032,-256 3426.8469,-256 3426.8469,-256"/>
<polygon fill="#000000" stroke="#000000" points="3426.8469,-252.5001 3416.8469,-256 3426.8469,-259.5001 3426.8469,-252.5001"/>
</g>
<!-- AppComponent  -->
<g id="node16" class="node">
<title>AppComponent </title>
<polygon fill="#80b1d3" stroke="#000000" points="3429.439,-328 3320.561,-328 3320.561,-292 3429.439,-292 3429.439,-328"/>
<text text-anchor="middle" x="3375" y="-305.8" font-family="Times,serif" font-size="14.00" fill="#000000">AppComponent </text>
</g>
<!-- AppModule&#45;&gt;AppComponent  -->
<g id="edge15" class="edge">
<title>AppModule&#45;&gt;AppComponent </title>
<path fill="none" stroke="#000000" stroke-dasharray="1,5" d="M3375,-263.1061C3375,-263.1061 3375,-281.991 3375,-281.991"/>
<polygon fill="#000000" stroke="#000000" points="3371.5001,-281.9909 3375,-291.991 3378.5001,-281.991 3371.5001,-281.9909"/>
</g>
<!-- RouterModule -->
<g id="node11" class="node">
<title>RouterModule</title>
<polygon fill="#8dd3c7" stroke="#000000" points="3622.6528,-198 3619.6528,-202 3598.6528,-202 3595.6528,-198 3525.3472,-198 3525.3472,-162 3622.6528,-162 3622.6528,-198"/>
<text text-anchor="middle" x="3574" y="-175.8" font-family="Times,serif" font-size="14.00" fill="#000000">RouterModule</text>
</g>
<!-- RouterModule&#45;&gt;AppModule -->
<g id="edge9" class="edge">
<title>RouterModule&#45;&gt;AppModule</title>
<path fill="none" stroke="#000000" d="M3574,-198.0091C3574,-214.0494 3574,-235 3574,-235 3574,-235 3426.7169,-235 3426.7169,-235"/>
<polygon fill="#000000" stroke="#000000" points="3426.717,-231.5001 3416.7169,-235 3426.7169,-238.5001 3426.717,-231.5001"/>
</g>
<!-- BrowserModule -->
<g id="node12" class="node">
<title>BrowserModule</title>
<polygon fill="#8dd3c7" stroke="#000000" points="3507.4734,-198 3504.4734,-202 3483.4734,-202 3480.4734,-198 3400.5266,-198 3400.5266,-162 3507.4734,-162 3507.4734,-198"/>
<text text-anchor="middle" x="3454" y="-175.8" font-family="Times,serif" font-size="14.00" fill="#000000">BrowserModule</text>
</g>
<!-- BrowserModule&#45;&gt;AppModule -->
<g id="edge10" class="edge">
<title>BrowserModule&#45;&gt;AppModule</title>
<path fill="none" stroke="#000000" d="M3408.6708,-198.1061C3408.6708,-198.1061 3408.6708,-216.991 3408.6708,-216.991"/>
<polygon fill="#000000" stroke="#000000" points="3405.1708,-216.9909 3408.6708,-226.991 3412.1708,-216.991 3405.1708,-216.9909"/>
</g>
<!-- BrowserAnimationsModule -->
<g id="node13" class="node">
<title>BrowserAnimationsModule</title>
<polygon fill="#8dd3c7" stroke="#000000" points="3382.3019,-198 3379.3019,-202 3358.3019,-202 3355.3019,-198 3209.6981,-198 3209.6981,-162 3382.3019,-162 3382.3019,-198"/>
<text text-anchor="middle" x="3296" y="-175.8" font-family="Times,serif" font-size="14.00" fill="#000000">BrowserAnimationsModule</text>
</g>
<!-- BrowserAnimationsModule&#45;&gt;AppModule -->
<g id="edge11" class="edge">
<title>BrowserAnimationsModule&#45;&gt;AppModule</title>
<path fill="none" stroke="#000000" d="M3365.8245,-198.1061C3365.8245,-198.1061 3365.8245,-216.991 3365.8245,-216.991"/>
<polygon fill="#000000" stroke="#000000" points="3362.3246,-216.9909 3365.8245,-226.991 3369.3246,-216.991 3362.3246,-216.9909"/>
</g>
<!-- IonicModule.forRoot(args) -->
<g id="node14" class="node">
<title>IonicModule.forRoot(args)</title>
<polygon fill="#8dd3c7" stroke="#000000" points="3955.005,-198 3952.005,-202 3931.005,-202 3928.005,-198 3786.995,-198 3786.995,-162 3955.005,-162 3955.005,-198"/>
<text text-anchor="middle" x="3871" y="-175.8" font-family="Times,serif" font-size="14.00" fill="#000000">IonicModule.forRoot(args)</text>
</g>
<!-- IonicModule.forRoot(args)&#45;&gt;AppModule -->
<g id="edge13" class="edge">
<title>IonicModule.forRoot(args)&#45;&gt;AppModule</title>
<path fill="none" stroke="#000000" d="M3871,-198.1289C3871,-218.5724 3871,-249 3871,-249 3871,-249 3426.8612,-249 3426.8612,-249"/>
<polygon fill="#000000" stroke="#000000" points="3426.8612,-245.5001 3416.8612,-249 3426.8612,-252.5001 3426.8612,-245.5001"/>
</g>
<!-- AppRoutingModule -->
<g id="node15" class="node">
<title>AppRoutingModule</title>
<polygon fill="#8dd3c7" stroke="#000000" points="3769.2744,-198 3766.2744,-202 3745.2744,-202 3742.2744,-198 3640.7256,-198 3640.7256,-162 3769.2744,-162 3769.2744,-198"/>
<text text-anchor="middle" x="3705" y="-175.8" font-family="Times,serif" font-size="14.00" fill="#000000">AppRoutingModule</text>
</g>
<!-- AppRoutingModule&#45;&gt;AppModule -->
<g id="edge14" class="edge">
<title>AppRoutingModule&#45;&gt;AppModule</title>
<path fill="none" stroke="#000000" d="M3705,-198.2667C3705,-216.5552 3705,-242 3705,-242 3705,-242 3426.7947,-242 3426.7947,-242"/>
<polygon fill="#000000" stroke="#000000" points="3426.7948,-238.5001 3416.7947,-242 3426.7947,-245.5001 3426.7948,-238.5001"/>
</g>
<!-- StatusBar -->
<g id="node17" class="node">
<title>StatusBar</title>
<ellipse fill="#fdb462" stroke="#000000" cx="2605" cy="-180" rx="48.6694" ry="18"/>
<text text-anchor="middle" x="2605" y="-175.8" font-family="Times,serif" font-size="14.00" fill="#000000">StatusBar</text>
</g>
<!-- StatusBar&#45;&gt;AppModule -->
<g id="edge16" class="edge">
<title>StatusBar&#45;&gt;AppModule</title>
<path fill="none" stroke="#000000" d="M2605,-198.027C2605,-214.3976 2605,-236 2605,-236 2605,-236 3323.3284,-236 3323.3284,-236"/>
<polygon fill="#000000" stroke="#000000" points="3323.3285,-239.5001 3333.3284,-236 3323.3284,-232.5001 3323.3285,-239.5001"/>
</g>
<!-- SplashScreen -->
<g id="node18" class="node">
<title>SplashScreen</title>
<ellipse fill="#fdb462" stroke="#000000" cx="2475" cy="-180" rx="63.1189" ry="18"/>
<text text-anchor="middle" x="2475" y="-175.8" font-family="Times,serif" font-size="14.00" fill="#000000">SplashScreen</text>
</g>
<!-- SplashScreen&#45;&gt;AppModule -->
<g id="edge17" class="edge">
<title>SplashScreen&#45;&gt;AppModule</title>
<path fill="none" stroke="#000000" d="M2475,-198.302C2475,-216.2699 2475,-241 2475,-241 2475,-241 3323.0977,-241 3323.0977,-241"/>
<polygon fill="#000000" stroke="#000000" points="3323.0977,-244.5001 3333.0977,-241 3323.0976,-237.5001 3323.0977,-244.5001"/>
</g>
<!-- { provide: RouteReuseStrategy, useClass: IonicRouteStrategy } -->
<g id="node19" class="node">
<title>{ provide: RouteReuseStrategy, useClass: IonicRouteStrategy }</title>
<ellipse fill="#fdb462" stroke="#000000" cx="2929" cy="-180" rx="257.2723" ry="18"/>
<text text-anchor="middle" x="2929" y="-175.8" font-family="Times,serif" font-size="14.00" fill="#000000">{ provide: RouteReuseStrategy, useClass: IonicRouteStrategy }</text>
</g>
<!-- { provide: RouteReuseStrategy, useClass: IonicRouteStrategy }&#45;&gt;AppModule -->
<g id="edge18" class="edge">
<title>{ provide: RouteReuseStrategy, useClass: IonicRouteStrategy }&#45;&gt;AppModule</title>
<path fill="none" stroke="#000000" d="M2929,-198.1871C2929,-213.1824 2929,-232 2929,-232 2929,-232 3323.0414,-232 3323.0414,-232"/>
<polygon fill="#000000" stroke="#000000" points="3323.0414,-235.5001 3333.0414,-232 3323.0414,-228.5001 3323.0414,-235.5001"/>
</g>
<!-- GamePage -->
<g id="node20" class="node">
<title>GamePage</title>
<polygon fill="#ffffb3" stroke="#000000" points="1958.139,-198 1881.861,-198 1881.861,-162 1958.139,-162 1958.139,-198"/>
<text text-anchor="middle" x="1920" y="-175.8" font-family="Times,serif" font-size="14.00" fill="#000000">GamePage</text>
</g>
<!-- GamePage&#45;&gt;GamePageModule -->
<g id="edge19" class="edge">
<title>GamePage&#45;&gt;GamePageModule</title>
<path fill="none" stroke="#000000" d="M1920,-198.1061C1920,-217.3391 1920,-245 1920,-245 1920,-245 1748.1312,-245 1748.1312,-245"/>
<polygon fill="#000000" stroke="#000000" points="1748.1312,-241.5001 1738.1312,-245 1748.1311,-248.5001 1748.1312,-241.5001"/>
</g>
<!-- BoardComponent -->
<g id="node21" class="node">
<title>BoardComponent</title>
<polygon fill="#ffffb3" stroke="#000000" points="1863.5451,-198 1748.4549,-198 1748.4549,-162 1863.5451,-162 1863.5451,-198"/>
<text text-anchor="middle" x="1806" y="-175.8" font-family="Times,serif" font-size="14.00" fill="#000000">BoardComponent</text>
</g>
<!-- BoardComponent&#45;&gt;GamePageModule -->
<g id="edge20" class="edge">
<title>BoardComponent&#45;&gt;GamePageModule</title>
<path fill="none" stroke="#000000" d="M1748.3937,-180C1740.0479,-180 1734.2104,-180 1734.2104,-180 1734.2104,-180 1734.2104,-216.8939 1734.2104,-216.8939"/>
<polygon fill="#000000" stroke="#000000" points="1730.7105,-216.8938 1734.2104,-226.8939 1737.7105,-216.8939 1730.7105,-216.8938"/>
</g>
<!-- InfoComponent -->
<g id="node22" class="node">
<title>InfoComponent</title>
<polygon fill="#ffffb3" stroke="#000000" points="1730.1542,-198 1625.8458,-198 1625.8458,-162 1730.1542,-162 1730.1542,-198"/>
<text text-anchor="middle" x="1678" y="-175.8" font-family="Times,serif" font-size="14.00" fill="#000000">InfoComponent</text>
</g>
<!-- InfoComponent&#45;&gt;GamePageModule -->
<g id="edge21" class="edge">
<title>InfoComponent&#45;&gt;GamePageModule</title>
<path fill="none" stroke="#000000" d="M1678,-198.1061C1678,-198.1061 1678,-216.991 1678,-216.991"/>
<polygon fill="#000000" stroke="#000000" points="1674.5001,-216.9909 1678,-226.991 1681.5001,-216.991 1674.5001,-216.9909"/>
</g>
<!-- ControlComponent -->
<g id="node23" class="node">
<title>ControlComponent</title>
<polygon fill="#ffffb3" stroke="#000000" points="1608.1108,-198 1483.8892,-198 1483.8892,-162 1608.1108,-162 1608.1108,-198"/>
<text text-anchor="middle" x="1546" y="-175.8" font-family="Times,serif" font-size="14.00" fill="#000000">ControlComponent</text>
</g>
<!-- ControlComponent&#45;&gt;GamePageModule -->
<g id="edge22" class="edge">
<title>ControlComponent&#45;&gt;GamePageModule</title>
<path fill="none" stroke="#000000" d="M1608.3742,-180C1617.4107,-180 1623.7314,-180 1623.7314,-180 1623.7314,-180 1623.7314,-216.8939 1623.7314,-216.8939"/>
<polygon fill="#000000" stroke="#000000" points="1620.2315,-216.8938 1623.7314,-226.8939 1627.2315,-216.8939 1620.2315,-216.8938"/>
</g>
<!-- ConsoleComponent -->
<g id="node24" class="node">
<title>ConsoleComponent</title>
<polygon fill="#ffffb3" stroke="#000000" points="2371.719,-198 2244.281,-198 2244.281,-162 2371.719,-162 2371.719,-198"/>
<text text-anchor="middle" x="2308" y="-175.8" font-family="Times,serif" font-size="14.00" fill="#000000">ConsoleComponent</text>
</g>
<!-- ConsoleComponent&#45;&gt;GamePageModule -->
<g id="edge23" class="edge">
<title>ConsoleComponent&#45;&gt;GamePageModule</title>
<path fill="none" stroke="#000000" d="M2308,-198.3228C2308,-221.6602 2308,-259 2308,-259 2308,-259 1748.1217,-259 1748.1217,-259"/>
<polygon fill="#000000" stroke="#000000" points="1748.1217,-255.5001 1738.1217,-259 1748.1216,-262.5001 1748.1217,-255.5001"/>
</g>
<!-- HexComponent -->
<g id="node25" class="node">
<title>HexComponent</title>
<polygon fill="#ffffb3" stroke="#000000" points="2226.1542,-198 2121.8458,-198 2121.8458,-162 2226.1542,-162 2226.1542,-198"/>
<text text-anchor="middle" x="2174" y="-175.8" font-family="Times,serif" font-size="14.00" fill="#000000">HexComponent</text>
</g>
<!-- HexComponent&#45;&gt;GamePageModule -->
<g id="edge24" class="edge">
<title>HexComponent&#45;&gt;GamePageModule</title>
<path fill="none" stroke="#000000" d="M2174,-198.2921C2174,-220.2057 2174,-254 2174,-254 2174,-254 1748.3235,-254 1748.3235,-254"/>
<polygon fill="#000000" stroke="#000000" points="1748.3235,-250.5001 1738.3235,-254 1748.3234,-257.5001 1748.3235,-250.5001"/>
</g>
<!-- PenguinComponent -->
<g id="node26" class="node">
<title>PenguinComponent</title>
<polygon fill="#ffffb3" stroke="#000000" points="2103.7204,-198 1976.2796,-198 1976.2796,-162 2103.7204,-162 2103.7204,-198"/>
<text text-anchor="middle" x="2040" y="-175.8" font-family="Times,serif" font-size="14.00" fill="#000000">PenguinComponent</text>
</g>
<!-- PenguinComponent&#45;&gt;GamePageModule -->
<g id="edge25" class="edge">
<title>PenguinComponent&#45;&gt;GamePageModule</title>
<path fill="none" stroke="#000000" d="M2040,-198.0267C2040,-218.7672 2040,-250 2040,-250 2040,-250 1748.1833,-250 1748.1833,-250"/>
<polygon fill="#000000" stroke="#000000" points="1748.1833,-246.5001 1738.1833,-250 1748.1833,-253.5001 1748.1833,-246.5001"/>
</g>
<!-- GamePageRoutingModule&#45;&gt;RouterModule  -->
<g id="edge31" class="edge">
<title>GamePageRoutingModule&#45;&gt;RouterModule </title>
<path fill="none" stroke="#000000" stroke-dasharray="5,2" d="M1404.551,-161.9489C1404.551,-147.627 1404.551,-130 1404.551,-130 1404.551,-130 646.3315,-130 646.3315,-130 646.3315,-130 646.3315,-129.2058 646.3315,-129.2058"/>
<polygon fill="#000000" stroke="#000000" points="649.8316,-132.0578 646.3315,-122.0579 642.8316,-132.0579 649.8316,-132.0578"/>
</g>
<!-- GamePageRoutingModule&#45;&gt;GamePageModule -->
<g id="edge29" class="edge">
<title>GamePageRoutingModule&#45;&gt;GamePageModule</title>
<path fill="none" stroke="#000000" d="M1377,-198.0091C1377,-214.0494 1377,-235 1377,-235 1377,-235 1607.8116,-235 1607.8116,-235"/>
<polygon fill="#000000" stroke="#000000" points="1607.8116,-238.5001 1617.8116,-235 1607.8116,-231.5001 1607.8116,-238.5001"/>
</g>
<!-- HomePage -->
<g id="node29" class="node">
<title>HomePage</title>
<polygon fill="#ffffb3" stroke="#000000" points="291.9248,-198 214.0752,-198 214.0752,-162 291.9248,-162 291.9248,-198"/>
<text text-anchor="middle" x="253" y="-175.8" font-family="Times,serif" font-size="14.00" fill="#000000">HomePage</text>
</g>
<!-- HomePage&#45;&gt;HomePageModule -->
<g id="edge32" class="edge">
<title>HomePage&#45;&gt;HomePageModule</title>
<path fill="none" stroke="#000000" d="M253,-198.1061C253,-198.1061 253,-216.991 253,-216.991"/>
<polygon fill="#000000" stroke="#000000" points="249.5001,-216.9909 253,-226.991 256.5001,-216.991 249.5001,-216.9909"/>
</g>
<!-- HomePageRoutingModule&#45;&gt;RouterModule  -->
<g id="edge38" class="edge">
<title>HomePageRoutingModule&#45;&gt;RouterModule </title>
<path fill="none" stroke="#000000" stroke-dasharray="5,2" d="M79.3181,-161.8015C79.3181,-137.6437 79.3181,-98 79.3181,-98 79.3181,-98 540.0291,-98 540.0291,-98"/>
<polygon fill="#000000" stroke="#000000" points="540.0291,-101.5001 550.0291,-98 540.0291,-94.5001 540.0291,-101.5001"/>
</g>
<!-- HomePageRoutingModule&#45;&gt;HomePageModule -->
<g id="edge36" class="edge">
<title>HomePageRoutingModule&#45;&gt;HomePageModule</title>
<path fill="none" stroke="#000000" d="M184.7795,-198.1061C184.7795,-198.1061 184.7795,-216.991 184.7795,-216.991"/>
<polygon fill="#000000" stroke="#000000" points="181.2795,-216.9909 184.7795,-226.991 188.2795,-216.991 181.2795,-216.9909"/>
</g>
<!-- TeamPage -->
<g id="node32" class="node">
<title>TeamPage</title>
<polygon fill="#ffffb3" stroke="#000000" points="595.5842,-198 520.4158,-198 520.4158,-162 595.5842,-162 595.5842,-198"/>
<text text-anchor="middle" x="558" y="-175.8" font-family="Times,serif" font-size="14.00" fill="#000000">TeamPage</text>
</g>
<!-- TeamPage&#45;&gt;TeamPageModule -->
<g id="edge39" class="edge">
<title>TeamPage&#45;&gt;TeamPageModule</title>
<path fill="none" stroke="#000000" d="M545.486,-198.1061C545.486,-198.1061 545.486,-216.991 545.486,-216.991"/>
<polygon fill="#000000" stroke="#000000" points="541.9861,-216.9909 545.486,-226.991 548.9861,-216.991 541.9861,-216.9909"/>
</g>
<!-- TeamPageRoutingModule&#45;&gt;RouterModule  -->
<g id="edge45" class="edge">
<title>TeamPageRoutingModule&#45;&gt;RouterModule </title>
<path fill="none" stroke="#000000" stroke-dasharray="5,2" d="M386.708,-161.9733C386.708,-141.2328 386.708,-110 386.708,-110 386.708,-110 540.2158,-110 540.2158,-110"/>
<polygon fill="#000000" stroke="#000000" points="540.2158,-113.5001 550.2158,-110 540.2158,-106.5001 540.2158,-113.5001"/>
</g>
<!-- TeamPageRoutingModule&#45;&gt;TeamPageModule -->
<g id="edge43" class="edge">
<title>TeamPageRoutingModule&#45;&gt;TeamPageModule</title>
<path fill="none" stroke="#000000" d="M490.7795,-198.1061C490.7795,-198.1061 490.7795,-216.991 490.7795,-216.991"/>
<polygon fill="#000000" stroke="#000000" points="487.2795,-216.9909 490.7795,-226.991 494.2795,-216.991 487.2795,-216.9909"/>
</g>
</g>
</svg>
