<?xml version="1.0" encoding="UTF-8" standalone="no"?>
<!DOCTYPE svg PUBLIC "-//W3C//DTD SVG 1.1//EN"
 "http://www.w3.org/Graphics/SVG/1.1/DTD/svg11.dtd">
<!-- Generated by graphviz version 2.40.1 (20161225.0304)
 -->
<!-- Title: dependencies Pages: 1 -->
<svg width="2049pt" height="284pt"
 viewBox="0.00 0.00 2049.00 284.00" xmlns="http://www.w3.org/2000/svg" xmlns:xlink="http://www.w3.org/1999/xlink">
<g id="graph0" class="graph" transform="scale(1 1) rotate(0) translate(4 280)">
<title>dependencies</title>
<polygon fill="#ffffff" stroke="transparent" points="-4,4 -4,-280 2045,-280 2045,4 -4,4"/>
<text text-anchor="start" x="999.5091" y="-42.4" font-family="sans-serif" font-weight="bold" font-size="14.00" fill="#000000">Legend</text>
<polygon fill="#ffffb3" stroke="transparent" points="786.5,-10 786.5,-30 806.5,-30 806.5,-10 786.5,-10"/>
<text text-anchor="start" x="810.129" y="-15.4" font-family="sans-serif" font-size="14.00" fill="#000000"> &#160;Declarations</text>
<polygon fill="#8dd3c7" stroke="transparent" points="899.5,-10 899.5,-30 919.5,-30 919.5,-10 899.5,-10"/>
<text text-anchor="start" x="923.2251" y="-15.4" font-family="sans-serif" font-size="14.00" fill="#000000"> &#160;Module</text>
<polygon fill="#80b1d3" stroke="transparent" points="985.5,-10 985.5,-30 1005.5,-30 1005.5,-10 985.5,-10"/>
<text text-anchor="start" x="1009.2812" y="-15.4" font-family="sans-serif" font-size="14.00" fill="#000000"> &#160;Bootstrap</text>
<polygon fill="#fdb462" stroke="transparent" points="1082.5,-10 1082.5,-30 1102.5,-30 1102.5,-10 1082.5,-10"/>
<text text-anchor="start" x="1106.1732" y="-15.4" font-family="sans-serif" font-size="14.00" fill="#000000"> &#160;Providers</text>
<polygon fill="#fb8072" stroke="transparent" points="1178.5,-10 1178.5,-30 1198.5,-30 1198.5,-10 1178.5,-10"/>
<text text-anchor="start" x="1202.2258" y="-15.4" font-family="sans-serif" font-size="14.00" fill="#000000"> &#160;Exports</text>
<g id="clust1" class="cluster">
<title>cluster_AboutPageModule</title>
<polygon fill="none" stroke="#000000" stroke-dasharray="1,5" points="8,-70 8,-195 308,-195 308,-70 8,-70"/>
</g>
<g id="clust2" class="cluster">
<title>cluster_AboutPageModule_declarations</title>
<polygon fill="none" stroke="#000000" points="206,-78 206,-130 300,-130 300,-78 206,-78"/>
</g>
<g id="clust4" class="cluster">
<title>cluster_AboutPageModule_imports</title>
<polygon fill="none" stroke="#000000" points="16,-78 16,-130 198,-130 198,-78 16,-78"/>
</g>
<g id="clust14" class="cluster">
<title>cluster_AppModule</title>
<polygon fill="none" stroke="#000000" stroke-dasharray="1,5" points="316,-70 316,-268 606,-268 606,-70 316,-70"/>
</g>
<g id="clust15" class="cluster">
<title>cluster_AppModule_declarations</title>
<polygon fill="none" stroke="#000000" points="476,-78 476,-130 598,-130 598,-78 476,-78"/>
</g>
<g id="clust17" class="cluster">
<title>cluster_AppModule_imports</title>
<polygon fill="none" stroke="#000000" points="324,-78 324,-130 468,-130 468,-78 324,-78"/>
</g>
<g id="clust19" class="cluster">
<title>cluster_AppModule_bootstrap</title>
<polygon fill="none" stroke="#000000" points="404,-208 404,-260 528,-260 528,-208 404,-208"/>
</g>
<g id="clust27" class="cluster">
<title>cluster_GamePageModule</title>
<polygon fill="none" stroke="#000000" stroke-dasharray="1,5" points="614,-70 614,-195 1725,-195 1725,-70 614,-70"/>
</g>
<g id="clust28" class="cluster">
<title>cluster_GamePageModule_declarations</title>
<polygon fill="none" stroke="#000000" points="812,-78 812,-130 1717,-130 1717,-78 812,-78"/>
</g>
<g id="clust36" class="cluster">
<title>cluster_GamePageModule_imports</title>
<polygon fill="none" stroke="#000000" points="622,-78 622,-130 804,-130 804,-78 622,-78"/>
</g>
<g id="clust46" class="cluster">
<title>cluster_HomePageModule</title>
<polygon fill="none" stroke="#000000" stroke-dasharray="1,5" points="1733,-70 1733,-195 2033,-195 2033,-70 1733,-70"/>
</g>
<g id="clust47" class="cluster">
<title>cluster_HomePageModule_declarations</title>
<polygon fill="none" stroke="#000000" points="1931,-78 1931,-130 2025,-130 2025,-78 1931,-78"/>
</g>
<g id="clust49" class="cluster">
<title>cluster_HomePageModule_imports</title>
<polygon fill="none" stroke="#000000" points="1741,-78 1741,-130 1923,-130 1923,-78 1741,-78"/>
</g>
<!-- AboutPage -->
<g id="node1" class="node">
<title>AboutPage</title>
<polygon fill="#ffffb3" stroke="#000000" points="292.2093,-122 213.7907,-122 213.7907,-86 292.2093,-86 292.2093,-122"/>
<text text-anchor="middle" x="253" y="-99.8" font-family="Times,serif" font-size="14.00" fill="#000000">AboutPage</text>
</g>
<!-- AboutPageModule -->
<g id="node2" class="node">
<title>AboutPageModule</title>
<polygon fill="#8dd3c7" stroke="#000000" points="233.759,-187 230.759,-191 209.759,-191 206.759,-187 112.241,-187 112.241,-151 233.759,-151 233.759,-187"/>
<text text-anchor="middle" x="173" y="-164.8" font-family="Times,serif" font-size="14.00" fill="#000000">AboutPageModule</text>
</g>
<!-- AboutPage&#45;&gt;AboutPageModule -->
<g id="edge1" class="edge">
<title>AboutPage&#45;&gt;AboutPageModule</title>
<path fill="none" stroke="#000000" d="M223.8875,-122.1061C223.8875,-122.1061 223.8875,-140.991 223.8875,-140.991"/>
<polygon fill="#000000" stroke="#000000" points="220.3875,-140.9909 223.8875,-150.991 227.3875,-140.991 220.3875,-140.9909"/>
</g>
<!-- AboutPageRoutingModule -->
<g id="node3" class="node">
<title>AboutPageRoutingModule</title>
<polygon fill="#8dd3c7" stroke="#000000" points="190.3766,-122 187.3766,-126 166.3766,-126 163.3766,-122 23.6234,-122 23.6234,-86 190.3766,-86 190.3766,-122"/>
<text text-anchor="middle" x="107" y="-99.8" font-family="Times,serif" font-size="14.00" fill="#000000">AboutPageRoutingModule</text>
</g>
<!-- AboutPageRoutingModule&#45;&gt;AboutPageModule -->
<g id="edge2" class="edge">
<title>AboutPageRoutingModule&#45;&gt;AboutPageModule</title>
<path fill="none" stroke="#000000" d="M151.2795,-122.1061C151.2795,-122.1061 151.2795,-140.991 151.2795,-140.991"/>
<polygon fill="#000000" stroke="#000000" points="147.7795,-140.9909 151.2795,-150.991 154.7795,-140.991 147.7795,-140.9909"/>
</g>
<!-- AppComponent -->
<g id="node4" class="node">
<title>AppComponent</title>
<polygon fill="#ffffb3" stroke="#000000" points="589.9399,-122 484.0601,-122 484.0601,-86 589.9399,-86 589.9399,-122"/>
<text text-anchor="middle" x="537" y="-99.8" font-family="Times,serif" font-size="14.00" fill="#000000">AppComponent</text>
</g>
<!-- AppModule -->
<g id="node5" class="node">
<title>AppModule</title>
<polygon fill="#8dd3c7" stroke="#000000" points="507.6571,-187 504.6571,-191 483.6571,-191 480.6571,-187 424.3429,-187 424.3429,-151 507.6571,-151 507.6571,-187"/>
<text text-anchor="middle" x="466" y="-164.8" font-family="Times,serif" font-size="14.00" fill="#000000">AppModule</text>
</g>
<!-- AppComponent&#45;&gt;AppModule -->
<g id="edge3" class="edge">
<title>AppComponent&#45;&gt;AppModule</title>
<path fill="none" stroke="#000000" d="M496.0544,-122.1061C496.0544,-122.1061 496.0544,-140.991 496.0544,-140.991"/>
<polygon fill="#000000" stroke="#000000" points="492.5544,-140.9909 496.0544,-150.991 499.5544,-140.991 492.5544,-140.9909"/>
</g>
<!-- AppComponent  -->
<g id="node7" class="node">
<title>AppComponent </title>
<polygon fill="#80b1d3" stroke="#000000" points="520.439,-252 411.561,-252 411.561,-216 520.439,-216 520.439,-252"/>
<text text-anchor="middle" x="466" y="-229.8" font-family="Times,serif" font-size="14.00" fill="#000000">AppComponent </text>
</g>
<!-- AppModule&#45;&gt;AppComponent  -->
<g id="edge5" class="edge">
<title>AppModule&#45;&gt;AppComponent </title>
<path fill="none" stroke="#000000" stroke-dasharray="1,5" d="M466,-187.1061C466,-187.1061 466,-205.991 466,-205.991"/>
<polygon fill="#000000" stroke="#000000" points="462.5001,-205.9909 466,-215.991 469.5001,-205.991 462.5001,-205.9909"/>
</g>
<!-- AppRoutingModule -->
<g id="node6" class="node">
<title>AppRoutingModule</title>
<polygon fill="#8dd3c7" stroke="#000000" points="460.2744,-122 457.2744,-126 436.2744,-126 433.2744,-122 331.7256,-122 331.7256,-86 460.2744,-86 460.2744,-122"/>
<text text-anchor="middle" x="396" y="-99.8" font-family="Times,serif" font-size="14.00" fill="#000000">AppRoutingModule</text>
</g>
<!-- AppRoutingModule&#45;&gt;AppModule -->
<g id="edge4" class="edge">
<title>AppRoutingModule&#45;&gt;AppModule</title>
<path fill="none" stroke="#000000" d="M442.2795,-122.1061C442.2795,-122.1061 442.2795,-140.991 442.2795,-140.991"/>
<polygon fill="#000000" stroke="#000000" points="438.7795,-140.9909 442.2795,-150.991 445.7795,-140.991 438.7795,-140.9909"/>
</g>
<!-- BoardComponent -->
<g id="node8" class="node">
<title>BoardComponent</title>
<polygon fill="#ffffb3" stroke="#000000" points="1708.5451,-122 1593.4549,-122 1593.4549,-86 1708.5451,-86 1708.5451,-122"/>
<text text-anchor="middle" x="1651" y="-99.8" font-family="Times,serif" font-size="14.00" fill="#000000">BoardComponent</text>
</g>
<!-- GamePageModule -->
<g id="node15" class="node">
<title>GamePageModule</title>
<polygon fill="#8dd3c7" stroke="#000000" points="1255.1881,-187 1252.1881,-191 1231.1881,-191 1228.1881,-187 1134.8119,-187 1134.8119,-151 1255.1881,-151 1255.1881,-187"/>
<text text-anchor="middle" x="1195" y="-164.8" font-family="Times,serif" font-size="14.00" fill="#000000">GamePageModule</text>
</g>
<!-- BoardComponent&#45;&gt;GamePageModule -->
<g id="edge6" class="edge">
<title>BoardComponent&#45;&gt;GamePageModule</title>
<path fill="none" stroke="#000000" d="M1651,-122.2921C1651,-144.2057 1651,-178 1651,-178 1651,-178 1265.5533,-178 1265.5533,-178"/>
<polygon fill="#000000" stroke="#000000" points="1265.5533,-174.5001 1255.5533,-178 1265.5532,-181.5001 1265.5533,-174.5001"/>
</g>
<!-- ConsoleComponent -->
<g id="node9" class="node">
<title>ConsoleComponent</title>
<polygon fill="#ffffb3" stroke="#000000" points="1575.719,-122 1448.281,-122 1448.281,-86 1575.719,-86 1575.719,-122"/>
<text text-anchor="middle" x="1512" y="-99.8" font-family="Times,serif" font-size="14.00" fill="#000000">ConsoleComponent</text>
</g>
<!-- ConsoleComponent&#45;&gt;GamePageModule -->
<g id="edge7" class="edge">
<title>ConsoleComponent&#45;&gt;GamePageModule</title>
<path fill="none" stroke="#000000" d="M1512,-122.1061C1512,-141.3391 1512,-169 1512,-169 1512,-169 1265.3714,-169 1265.3714,-169"/>
<polygon fill="#000000" stroke="#000000" points="1265.3715,-165.5001 1255.3714,-169 1265.3714,-172.5001 1265.3715,-165.5001"/>
</g>
<!-- ControlComponent -->
<g id="node10" class="node">
<title>ControlComponent</title>
<polygon fill="#ffffb3" stroke="#000000" points="1430.1108,-122 1305.8892,-122 1305.8892,-86 1430.1108,-86 1430.1108,-122"/>
<text text-anchor="middle" x="1368" y="-99.8" font-family="Times,serif" font-size="14.00" fill="#000000">ControlComponent</text>
</g>
<!-- ControlComponent&#45;&gt;GamePageModule -->
<g id="edge8" class="edge">
<title>ControlComponent&#45;&gt;GamePageModule</title>
<path fill="none" stroke="#000000" d="M1368,-122.027C1368,-138.3976 1368,-160 1368,-160 1368,-160 1265.507,-160 1265.507,-160"/>
<polygon fill="#000000" stroke="#000000" points="1265.507,-156.5001 1255.507,-160 1265.507,-163.5001 1265.507,-156.5001"/>
</g>
<!-- GamePage -->
<g id="node11" class="node">
<title>GamePage</title>
<polygon fill="#ffffb3" stroke="#000000" points="1288.139,-122 1211.861,-122 1211.861,-86 1288.139,-86 1288.139,-122"/>
<text text-anchor="middle" x="1250" y="-99.8" font-family="Times,serif" font-size="14.00" fill="#000000">GamePage</text>
</g>
<!-- GamePage&#45;&gt;GamePageModule -->
<g id="edge9" class="edge">
<title>GamePage&#45;&gt;GamePageModule</title>
<path fill="none" stroke="#000000" d="M1233.3875,-122.1061C1233.3875,-122.1061 1233.3875,-140.991 1233.3875,-140.991"/>
<polygon fill="#000000" stroke="#000000" points="1229.8875,-140.9909 1233.3875,-150.991 1236.8875,-140.991 1229.8875,-140.9909"/>
</g>
<!-- HexComponent -->
<g id="node12" class="node">
<title>HexComponent</title>
<polygon fill="#ffffb3" stroke="#000000" points="1193.1542,-122 1088.8458,-122 1088.8458,-86 1193.1542,-86 1193.1542,-122"/>
<text text-anchor="middle" x="1141" y="-99.8" font-family="Times,serif" font-size="14.00" fill="#000000">HexComponent</text>
</g>
<!-- HexComponent&#45;&gt;GamePageModule -->
<g id="edge10" class="edge">
<title>HexComponent&#45;&gt;GamePageModule</title>
<path fill="none" stroke="#000000" d="M1164.1164,-122.1061C1164.1164,-122.1061 1164.1164,-140.991 1164.1164,-140.991"/>
<polygon fill="#000000" stroke="#000000" points="1160.6165,-140.9909 1164.1164,-150.991 1167.6165,-140.991 1160.6165,-140.9909"/>
</g>
<!-- InfoComponent -->
<g id="node13" class="node">
<title>InfoComponent</title>
<polygon fill="#ffffb3" stroke="#000000" points="1070.1542,-122 965.8458,-122 965.8458,-86 1070.1542,-86 1070.1542,-122"/>
<text text-anchor="middle" x="1018" y="-99.8" font-family="Times,serif" font-size="14.00" fill="#000000">InfoComponent</text>
</g>
<!-- InfoComponent&#45;&gt;GamePageModule -->
<g id="edge11" class="edge">
<title>InfoComponent&#45;&gt;GamePageModule</title>
<path fill="none" stroke="#000000" d="M1018,-122.027C1018,-138.3976 1018,-160 1018,-160 1018,-160 1124.5817,-160 1124.5817,-160"/>
<polygon fill="#000000" stroke="#000000" points="1124.5817,-163.5001 1134.5817,-160 1124.5817,-156.5001 1124.5817,-163.5001"/>
</g>
<!-- PenguinComponent -->
<g id="node14" class="node">
<title>PenguinComponent</title>
<polygon fill="#ffffb3" stroke="#000000" points="947.7204,-122 820.2796,-122 820.2796,-86 947.7204,-86 947.7204,-122"/>
<text text-anchor="middle" x="884" y="-99.8" font-family="Times,serif" font-size="14.00" fill="#000000">PenguinComponent</text>
</g>
<!-- PenguinComponent&#45;&gt;GamePageModule -->
<g id="edge12" class="edge">
<title>PenguinComponent&#45;&gt;GamePageModule</title>
<path fill="none" stroke="#000000" d="M884,-122.1061C884,-141.3391 884,-169 884,-169 884,-169 1124.6673,-169 1124.6673,-169"/>
<polygon fill="#000000" stroke="#000000" points="1124.6673,-172.5001 1134.6673,-169 1124.6673,-165.5001 1124.6673,-172.5001"/>
</g>
<!-- GamePageRoutingModule -->
<g id="node16" class="node">
<title>GamePageRoutingModule</title>
<polygon fill="#8dd3c7" stroke="#000000" points="795.8061,-122 792.8061,-126 771.8061,-126 768.8061,-122 630.1939,-122 630.1939,-86 795.8061,-86 795.8061,-122"/>
<text text-anchor="middle" x="713" y="-99.8" font-family="Times,serif" font-size="14.00" fill="#000000">GamePageRoutingModule</text>
</g>
<!-- GamePageRoutingModule&#45;&gt;GamePageModule -->
<g id="edge13" class="edge">
<title>GamePageRoutingModule&#45;&gt;GamePageModule</title>
<path fill="none" stroke="#000000" d="M713,-122.2921C713,-144.2057 713,-178 713,-178 713,-178 1124.4424,-178 1124.4424,-178"/>
<polygon fill="#000000" stroke="#000000" points="1124.4425,-181.5001 1134.4424,-178 1124.4424,-174.5001 1124.4425,-181.5001"/>
</g>
<!-- HomePage -->
<g id="node17" class="node">
<title>HomePage</title>
<polygon fill="#ffffb3" stroke="#000000" points="2016.9248,-122 1939.0752,-122 1939.0752,-86 2016.9248,-86 2016.9248,-122"/>
<text text-anchor="middle" x="1978" y="-99.8" font-family="Times,serif" font-size="14.00" fill="#000000">HomePage</text>
</g>
<!-- HomePageModule -->
<g id="node18" class="node">
<title>HomePageModule</title>
<polygon fill="#8dd3c7" stroke="#000000" points="1958.4734,-187 1955.4734,-191 1934.4734,-191 1931.4734,-187 1837.5266,-187 1837.5266,-151 1958.4734,-151 1958.4734,-187"/>
<text text-anchor="middle" x="1898" y="-164.8" font-family="Times,serif" font-size="14.00" fill="#000000">HomePageModule</text>
</g>
<!-- HomePage&#45;&gt;HomePageModule -->
<g id="edge14" class="edge">
<title>HomePage&#45;&gt;HomePageModule</title>
<path fill="none" stroke="#000000" d="M1948.8875,-122.1061C1948.8875,-122.1061 1948.8875,-140.991 1948.8875,-140.991"/>
<polygon fill="#000000" stroke="#000000" points="1945.3875,-140.9909 1948.8875,-150.991 1952.3875,-140.991 1945.3875,-140.9909"/>
</g>
<!-- HomePageRoutingModule -->
<g id="node19" class="node">
<title>HomePageRoutingModule</title>
<polygon fill="#8dd3c7" stroke="#000000" points="1915.0912,-122 1912.0912,-126 1891.0912,-126 1888.0912,-122 1748.9088,-122 1748.9088,-86 1915.0912,-86 1915.0912,-122"/>
<text text-anchor="middle" x="1832" y="-99.8" font-family="Times,serif" font-size="14.00" fill="#000000">HomePageRoutingModule</text>
</g>
<!-- HomePageRoutingModule&#45;&gt;HomePageModule -->
<g id="edge15" class="edge">
<title>HomePageRoutingModule&#45;&gt;HomePageModule</title>
<path fill="none" stroke="#000000" d="M1876.2795,-122.1061C1876.2795,-122.1061 1876.2795,-140.991 1876.2795,-140.991"/>
<polygon fill="#000000" stroke="#000000" points="1872.7795,-140.9909 1876.2795,-150.991 1879.7795,-140.991 1872.7795,-140.9909"/>
</g>
</g>
</svg>
