<?xml version="1.0" encoding="UTF-8" standalone="no"?>
<!DOCTYPE svg PUBLIC "-//W3C//DTD SVG 1.1//EN"
 "http://www.w3.org/Graphics/SVG/1.1/DTD/svg11.dtd">
<!-- Generated by graphviz version 2.40.1 (20161225.0304)
 -->
<!-- Title: dependencies Pages: 1 -->
<svg width="2517pt" height="436pt"
 viewBox="0.00 0.00 2517.00 436.00" xmlns="http://www.w3.org/2000/svg" xmlns:xlink="http://www.w3.org/1999/xlink">
<g id="graph0" class="graph" transform="scale(1 1) rotate(0) translate(4 432)">
<title>dependencies</title>
<polygon fill="#ffffff" stroke="transparent" points="-4,4 -4,-432 2513,-432 2513,4 -4,4"/>
<text text-anchor="start" x="1233.5091" y="-42.4" font-family="sans-serif" font-weight="bold" font-size="14.00" fill="#000000">Legend</text>
<polygon fill="#ffffb3" stroke="transparent" points="1020.5,-10 1020.5,-30 1040.5,-30 1040.5,-10 1020.5,-10"/>
<text text-anchor="start" x="1044.129" y="-15.4" font-family="sans-serif" font-size="14.00" fill="#000000"> &#160;Declarations</text>
<polygon fill="#8dd3c7" stroke="transparent" points="1133.5,-10 1133.5,-30 1153.5,-30 1153.5,-10 1133.5,-10"/>
<text text-anchor="start" x="1157.2251" y="-15.4" font-family="sans-serif" font-size="14.00" fill="#000000"> &#160;Module</text>
<polygon fill="#80b1d3" stroke="transparent" points="1219.5,-10 1219.5,-30 1239.5,-30 1239.5,-10 1219.5,-10"/>
<text text-anchor="start" x="1243.2812" y="-15.4" font-family="sans-serif" font-size="14.00" fill="#000000"> &#160;Bootstrap</text>
<polygon fill="#fdb462" stroke="transparent" points="1316.5,-10 1316.5,-30 1336.5,-30 1336.5,-10 1316.5,-10"/>
<text text-anchor="start" x="1340.1732" y="-15.4" font-family="sans-serif" font-size="14.00" fill="#000000"> &#160;Providers</text>
<polygon fill="#fb8072" stroke="transparent" points="1412.5,-10 1412.5,-30 1432.5,-30 1432.5,-10 1412.5,-10"/>
<text text-anchor="start" x="1436.2258" y="-15.4" font-family="sans-serif" font-size="14.00" fill="#000000"> &#160;Exports</text>
<g id="clust1" class="cluster">
<title>cluster_AboutModule</title>
<polygon fill="none" stroke="#000000" stroke-dasharray="1,5" points="8,-70 8,-206 320,-206 320,-70 8,-70"/>
</g>
<g id="clust2" class="cluster">
<title>cluster_AboutModule_declarations</title>
<polygon fill="none" stroke="#000000" points="180,-78 180,-130 312,-130 312,-78 180,-78"/>
</g>
<g id="clust4" class="cluster">
<title>cluster_AboutModule_imports</title>
<polygon fill="none" stroke="#000000" points="16,-78 16,-130 172,-130 172,-78 16,-78"/>
</g>
<g id="clust14" class="cluster">
<title>cluster_AppModule</title>
<polygon fill="none" stroke="#000000" stroke-dasharray="1,5" points="646,-146 646,-420 1373,-420 1373,-146 646,-146"/>
</g>
<g id="clust15" class="cluster">
<title>cluster_AppModule_declarations</title>
<polygon fill="none" stroke="#000000" points="1243,-230 1243,-282 1365,-282 1365,-230 1243,-230"/>
</g>
<g id="clust17" class="cluster">
<title>cluster_AppModule_imports</title>
<polygon fill="none" stroke="#000000" points="654,-154 654,-282 1235,-282 1235,-154 654,-154"/>
</g>
<g id="clust19" class="cluster">
<title>cluster_AppModule_bootstrap</title>
<polygon fill="none" stroke="#000000" points="878,-360 878,-412 1002,-412 1002,-360 878,-360"/>
</g>
<g id="clust33" class="cluster">
<title>cluster_GameModule</title>
<polygon fill="none" stroke="#000000" stroke-dasharray="1,5" points="1381,-70 1381,-206 2501,-206 2501,-70 1381,-70"/>
</g>
<g id="clust34" class="cluster">
<title>cluster_GameModule_declarations</title>
<polygon fill="none" stroke="#000000" points="1551,-78 1551,-130 2493,-130 2493,-78 1551,-78"/>
</g>
<g id="clust42" class="cluster">
<title>cluster_GameModule_imports</title>
<polygon fill="none" stroke="#000000" points="1389,-78 1389,-130 1543,-130 1543,-78 1389,-78"/>
</g>
<g id="clust52" class="cluster">
<title>cluster_HomeModule</title>
<polygon fill="none" stroke="#000000" stroke-dasharray="1,5" points="328,-146 328,-214 638,-214 638,-146 328,-146"/>
</g>
<g id="clust53" class="cluster">
<title>cluster_HomeModule_declarations</title>
<polygon fill="none" stroke="#000000" points="498,-154 498,-206 630,-206 630,-154 498,-154"/>
</g>
<g id="clust55" class="cluster">
<title>cluster_HomeModule_imports</title>
<polygon fill="none" stroke="#000000" points="336,-154 336,-206 490,-206 490,-154 336,-154"/>
</g>
<g id="clust65" class="cluster">
<title>cluster_SharedModule</title>
<polygon fill="none" stroke="#000000" stroke-dasharray="1,5" points="1381,-222 1381,-290 1681,-290 1681,-222 1381,-222"/>
</g>
<g id="clust66" class="cluster">
<title>cluster_SharedModule_declarations</title>
<polygon fill="none" stroke="#000000" points="1537,-230 1537,-282 1673,-282 1673,-230 1537,-230"/>
</g>
<g id="clust69" class="cluster">
<title>cluster_SharedModule_exports</title>
<polygon fill="none" stroke="#000000" points="1389,-230 1389,-282 1529,-282 1529,-230 1389,-230"/>
</g>
<g id="clust72" class="cluster">
<title>cluster_ShellModule</title>
<polygon fill="none" stroke="#000000" stroke-dasharray="1,5" points="578,-70 578,-138 720,-138 720,-70 578,-70"/>
</g>
<g id="clust73" class="cluster">
<title>cluster_ShellModule_declarations</title>
<polygon fill="none" stroke="#000000" points="586,-78 586,-130 712,-130 712,-78 586,-78"/>
</g>
<g id="clust79" class="cluster">
<title>cluster_TeamModule</title>
<polygon fill="none" stroke="#000000" stroke-dasharray="1,5" points="728,-70 728,-138 1034,-138 1034,-70 728,-70"/>
</g>
<g id="clust80" class="cluster">
<title>cluster_TeamModule_declarations</title>
<polygon fill="none" stroke="#000000" points="896,-78 896,-130 1026,-130 1026,-78 896,-78"/>
</g>
<g id="clust82" class="cluster">
<title>cluster_TeamModule_imports</title>
<polygon fill="none" stroke="#000000" points="736,-78 736,-130 888,-130 888,-78 736,-78"/>
</g>
<!-- AboutComponent -->
<g id="node1" class="node">
<title>AboutComponent</title>
<polygon fill="#ffffb3" stroke="#000000" points="304.3301,-122 187.6699,-122 187.6699,-86 304.3301,-86 304.3301,-122"/>
<text text-anchor="middle" x="246" y="-99.8" font-family="Times,serif" font-size="14.00" fill="#000000">AboutComponent</text>
</g>
<!-- AboutModule -->
<g id="node2" class="node">
<title>AboutModule</title>
<polygon fill="#8dd3c7" stroke="#000000" points="217.0481,-198 214.0481,-202 193.0481,-202 190.0481,-198 122.9519,-198 122.9519,-162 217.0481,-162 217.0481,-198"/>
<text text-anchor="middle" x="170" y="-175.8" font-family="Times,serif" font-size="14.00" fill="#000000">AboutModule</text>
</g>
<!-- AboutComponent&#45;&gt;AboutModule -->
<g id="edge1" class="edge">
<title>AboutComponent&#45;&gt;AboutModule</title>
<path fill="none" stroke="#000000" d="M202.5544,-122.0109C202.5544,-122.0109 202.5544,-151.855 202.5544,-151.855"/>
<polygon fill="#000000" stroke="#000000" points="199.0544,-151.8549 202.5544,-161.855 206.0544,-151.855 199.0544,-151.8549"/>
</g>
<!-- AboutRoutingModule -->
<g id="node3" class="node">
<title>AboutRoutingModule</title>
<polygon fill="#8dd3c7" stroke="#000000" points="163.6652,-122 160.6652,-126 139.6652,-126 136.6652,-122 24.3348,-122 24.3348,-86 163.6652,-86 163.6652,-122"/>
<text text-anchor="middle" x="94" y="-99.8" font-family="Times,serif" font-size="14.00" fill="#000000">AboutRoutingModule</text>
</g>
<!-- AboutRoutingModule&#45;&gt;AboutModule -->
<g id="edge2" class="edge">
<title>AboutRoutingModule&#45;&gt;AboutModule</title>
<path fill="none" stroke="#000000" d="M143.2795,-122.0109C143.2795,-122.0109 143.2795,-151.855 143.2795,-151.855"/>
<polygon fill="#000000" stroke="#000000" points="139.7795,-151.8549 143.2795,-161.855 146.7795,-151.855 139.7795,-151.8549"/>
</g>
<!-- AppComponent -->
<g id="node4" class="node">
<title>AppComponent</title>
<polygon fill="#ffffb3" stroke="#000000" points="1356.9399,-274 1251.0601,-274 1251.0601,-238 1356.9399,-238 1356.9399,-274"/>
<text text-anchor="middle" x="1304" y="-251.8" font-family="Times,serif" font-size="14.00" fill="#000000">AppComponent</text>
</g>
<!-- AppModule -->
<g id="node5" class="node">
<title>AppModule</title>
<polygon fill="#8dd3c7" stroke="#000000" points="981.6571,-339 978.6571,-343 957.6571,-343 954.6571,-339 898.3429,-339 898.3429,-303 981.6571,-303 981.6571,-339"/>
<text text-anchor="middle" x="940" y="-316.8" font-family="Times,serif" font-size="14.00" fill="#000000">AppModule</text>
</g>
<!-- AppComponent&#45;&gt;AppModule -->
<g id="edge3" class="edge">
<title>AppComponent&#45;&gt;AppModule</title>
<path fill="none" stroke="#000000" d="M1251.1447,-256C1154.9064,-256 960.9141,-256 960.9141,-256 960.9141,-256 960.9141,-292.8939 960.9141,-292.8939"/>
<polygon fill="#000000" stroke="#000000" points="957.4142,-292.8938 960.9141,-302.8939 964.4142,-292.8939 957.4142,-292.8938"/>
</g>
<!-- AppComponent  -->
<g id="node12" class="node">
<title>AppComponent </title>
<polygon fill="#80b1d3" stroke="#000000" points="994.439,-404 885.561,-404 885.561,-368 994.439,-368 994.439,-404"/>
<text text-anchor="middle" x="940" y="-381.8" font-family="Times,serif" font-size="14.00" fill="#000000">AppComponent </text>
</g>
<!-- AppModule&#45;&gt;AppComponent  -->
<g id="edge10" class="edge">
<title>AppModule&#45;&gt;AppComponent </title>
<path fill="none" stroke="#000000" stroke-dasharray="1,5" d="M940,-339.1061C940,-339.1061 940,-357.991 940,-357.991"/>
<polygon fill="#000000" stroke="#000000" points="936.5001,-357.9909 940,-367.991 943.5001,-357.991 936.5001,-357.9909"/>
</g>
<!-- AppRoutingModule -->
<g id="node6" class="node">
<title>AppRoutingModule</title>
<polygon fill="#8dd3c7" stroke="#000000" points="1004.2744,-198 1001.2744,-202 980.2744,-202 977.2744,-198 875.7256,-198 875.7256,-162 1004.2744,-162 1004.2744,-198"/>
<text text-anchor="middle" x="940" y="-175.8" font-family="Times,serif" font-size="14.00" fill="#000000">AppRoutingModule</text>
</g>
<!-- AppRoutingModule&#45;&gt;AppModule -->
<g id="edge4" class="edge">
<title>AppRoutingModule&#45;&gt;AppModule</title>
<path fill="none" stroke="#000000" d="M940,-198.1446C940,-198.1446 940,-292.925 940,-292.925"/>
<polygon fill="#000000" stroke="#000000" points="936.5001,-292.925 940,-302.925 943.5001,-292.925 936.5001,-292.925"/>
</g>
<!-- CoreModule -->
<g id="node7" class="node">
<title>CoreModule</title>
<polygon fill="#8dd3c7" stroke="#000000" points="748.2619,-198 745.2619,-202 724.2619,-202 721.2619,-198 661.7381,-198 661.7381,-162 748.2619,-162 748.2619,-198"/>
<text text-anchor="middle" x="705" y="-175.8" font-family="Times,serif" font-size="14.00" fill="#000000">CoreModule</text>
</g>
<!-- CoreModule&#45;&gt;AppModule -->
<g id="edge5" class="edge">
<title>CoreModule&#45;&gt;AppModule</title>
<path fill="none" stroke="#000000" d="M748.3583,-180C755.7439,-180 761.0849,-180 761.0849,-180 761.0849,-180 761.0849,-327 761.0849,-327 761.0849,-327 888.0523,-327 888.0523,-327"/>
<polygon fill="#000000" stroke="#000000" points="888.0524,-330.5001 898.0523,-327 888.0523,-323.5001 888.0524,-330.5001"/>
</g>
<!-- HomeModule -->
<g id="node8" class="node">
<title>HomeModule</title>
<polygon fill="#8dd3c7" stroke="#000000" points="755.7619,-274 752.7619,-278 731.7619,-278 728.7619,-274 662.2381,-274 662.2381,-238 755.7619,-238 755.7619,-274"/>
<text text-anchor="middle" x="709" y="-251.8" font-family="Times,serif" font-size="14.00" fill="#000000">HomeModule</text>
</g>
<!-- CoreModule&#45;&gt;HomeModule -->
<g id="edge20" class="edge">
<title>CoreModule&#45;&gt;HomeModule</title>
<path fill="none" stroke="#000000" d="M705.25,-198.0109C705.25,-198.0109 705.25,-227.855 705.25,-227.855"/>
<polygon fill="#000000" stroke="#000000" points="701.7501,-227.8549 705.25,-237.855 708.7501,-227.855 701.7501,-227.8549"/>
</g>
<!-- HomeModule&#45;&gt;AppModule -->
<g id="edge6" class="edge">
<title>HomeModule&#45;&gt;AppModule</title>
<path fill="none" stroke="#000000" d="M755.8859,-265C817.803,-265 919.0859,-265 919.0859,-265 919.0859,-265 919.0859,-292.973 919.0859,-292.973"/>
<polygon fill="#000000" stroke="#000000" points="915.586,-292.973 919.0859,-302.973 922.586,-292.973 915.586,-292.973"/>
</g>
<!-- SharedModule -->
<g id="node9" class="node">
<title>SharedModule</title>
<polygon fill="#8dd3c7" stroke="#000000" points="1227.4231,-198 1224.4231,-202 1203.4231,-202 1200.4231,-198 1128.5769,-198 1128.5769,-162 1227.4231,-162 1227.4231,-198"/>
<text text-anchor="middle" x="1178" y="-175.8" font-family="Times,serif" font-size="14.00" fill="#000000">SharedModule</text>
</g>
<!-- SharedModule&#45;&gt;AppModule -->
<g id="edge7" class="edge">
<title>SharedModule&#45;&gt;AppModule</title>
<path fill="none" stroke="#000000" d="M1194.4037,-198.0251C1194.4037,-237.2783 1194.4037,-327 1194.4037,-327 1194.4037,-327 991.7247,-327 991.7247,-327"/>
<polygon fill="#000000" stroke="#000000" points="991.7248,-323.5001 981.7247,-327 991.7247,-330.5001 991.7248,-323.5001"/>
</g>
<!-- SharedModule&#45;&gt;HomeModule -->
<g id="edge22" class="edge">
<title>SharedModule&#45;&gt;HomeModule</title>
<path fill="none" stroke="#000000" d="M1161.5963,-198.308C1161.5963,-218.1455 1161.5963,-247 1161.5963,-247 1161.5963,-247 766.1549,-247 766.1549,-247"/>
<polygon fill="#000000" stroke="#000000" points="766.1549,-243.5001 756.1549,-247 766.1549,-250.5001 766.1549,-243.5001"/>
</g>
<!-- LoaderComponent  -->
<g id="node25" class="node">
<title>LoaderComponent </title>
<polygon fill="#fb8072" stroke="#000000" points="1521.4757,-274 1396.5243,-274 1396.5243,-238 1521.4757,-238 1521.4757,-274"/>
<text text-anchor="middle" x="1459" y="-251.8" font-family="Times,serif" font-size="14.00" fill="#000000">LoaderComponent </text>
</g>
<!-- SharedModule&#45;&gt;LoaderComponent  -->
<g id="edge24" class="edge">
<title>SharedModule&#45;&gt;LoaderComponent </title>
<path fill="none" stroke="#000000" stroke-dasharray="5,2" d="M1227.2847,-192C1307.9016,-192 1459.0952,-192 1459.0952,-192 1459.0952,-192 1459.0952,-227.8314 1459.0952,-227.8314"/>
<polygon fill="#000000" stroke="#000000" points="1455.5953,-227.8313 1459.0952,-237.8314 1462.5953,-227.8314 1455.5953,-227.8313"/>
</g>
<!-- ShellModule -->
<g id="node10" class="node">
<title>ShellModule</title>
<polygon fill="#8dd3c7" stroke="#000000" points="1111.3288,-198 1108.3288,-202 1087.3288,-202 1084.3288,-198 1022.6712,-198 1022.6712,-162 1111.3288,-162 1111.3288,-198"/>
<text text-anchor="middle" x="1067" y="-175.8" font-family="Times,serif" font-size="14.00" fill="#000000">ShellModule</text>
</g>
<!-- ShellModule&#45;&gt;AppModule -->
<g id="edge8" class="edge">
<title>ShellModule&#45;&gt;AppModule</title>
<path fill="none" stroke="#000000" d="M1067,-198.2067C1067,-235.0559 1067,-315 1067,-315 1067,-315 991.9365,-315 991.9365,-315"/>
<polygon fill="#000000" stroke="#000000" points="991.9366,-311.5001 981.9365,-315 991.9365,-318.5001 991.9366,-311.5001"/>
</g>
<!-- TeamModule -->
<g id="node11" class="node">
<title>TeamModule</title>
<polygon fill="#8dd3c7" stroke="#000000" points="857.9232,-198 854.9232,-202 833.9232,-202 830.9232,-198 766.0768,-198 766.0768,-162 857.9232,-162 857.9232,-198"/>
<text text-anchor="middle" x="812" y="-175.8" font-family="Times,serif" font-size="14.00" fill="#000000">TeamModule</text>
</g>
<!-- TeamModule&#45;&gt;AppModule -->
<g id="edge9" class="edge">
<title>TeamModule&#45;&gt;AppModule</title>
<path fill="none" stroke="#000000" d="M812,-198.2067C812,-235.0559 812,-315 812,-315 812,-315 888.088,-315 888.088,-315"/>
<polygon fill="#000000" stroke="#000000" points="888.088,-318.5001 898.088,-315 888.088,-311.5001 888.088,-318.5001"/>
</g>
<!-- BoardComponent -->
<g id="node13" class="node">
<title>BoardComponent</title>
<polygon fill="#ffffb3" stroke="#000000" points="1819.5451,-122 1704.4549,-122 1704.4549,-86 1819.5451,-86 1819.5451,-122"/>
<text text-anchor="middle" x="1762" y="-99.8" font-family="Times,serif" font-size="14.00" fill="#000000">BoardComponent</text>
</g>
<!-- GameModule -->
<g id="node20" class="node">
<title>GameModule</title>
<polygon fill="#8dd3c7" stroke="#000000" points="2014.4762,-198 2011.4762,-202 1990.4762,-202 1987.4762,-198 1921.5238,-198 1921.5238,-162 2014.4762,-162 2014.4762,-198"/>
<text text-anchor="middle" x="1968" y="-175.8" font-family="Times,serif" font-size="14.00" fill="#000000">GameModule</text>
</g>
<!-- BoardComponent&#45;&gt;GameModule -->
<g id="edge11" class="edge">
<title>BoardComponent&#45;&gt;GameModule</title>
<path fill="none" stroke="#000000" d="M1762,-122.1686C1762,-141.0898 1762,-168 1762,-168 1762,-168 1911.5127,-168 1911.5127,-168"/>
<polygon fill="#000000" stroke="#000000" points="1911.5128,-171.5001 1921.5127,-168 1911.5127,-164.5001 1911.5128,-171.5001"/>
</g>
<!-- ConsoleComponent -->
<g id="node14" class="node">
<title>ConsoleComponent</title>
<polygon fill="#ffffb3" stroke="#000000" points="1686.719,-122 1559.281,-122 1559.281,-86 1686.719,-86 1686.719,-122"/>
<text text-anchor="middle" x="1623" y="-99.8" font-family="Times,serif" font-size="14.00" fill="#000000">ConsoleComponent</text>
</g>
<!-- ConsoleComponent&#45;&gt;GameModule -->
<g id="edge12" class="edge">
<title>ConsoleComponent&#45;&gt;GameModule</title>
<path fill="none" stroke="#000000" d="M1676.0484,-122.0267C1676.0484,-142.7672 1676.0484,-174 1676.0484,-174 1676.0484,-174 1911.4166,-174 1911.4166,-174"/>
<polygon fill="#000000" stroke="#000000" points="1911.4166,-177.5001 1921.4166,-174 1911.4165,-170.5001 1911.4166,-177.5001"/>
</g>
<!-- ControlComponent -->
<g id="node15" class="node">
<title>ControlComponent</title>
<polygon fill="#ffffb3" stroke="#000000" points="2485.1108,-122 2360.8892,-122 2360.8892,-86 2485.1108,-86 2485.1108,-122"/>
<text text-anchor="middle" x="2423" y="-99.8" font-family="Times,serif" font-size="14.00" fill="#000000">ControlComponent</text>
</g>
<!-- ControlComponent&#45;&gt;GameModule -->
<g id="edge13" class="edge">
<title>ControlComponent&#45;&gt;GameModule</title>
<path fill="none" stroke="#000000" d="M2423,-122.0263C2423,-146.9773 2423,-189 2423,-189 2423,-189 2024.5547,-189 2024.5547,-189"/>
<polygon fill="#000000" stroke="#000000" points="2024.5548,-185.5001 2014.5547,-189 2024.5547,-192.5001 2024.5548,-185.5001"/>
</g>
<!-- GameComponent -->
<g id="node16" class="node">
<title>GameComponent</title>
<polygon fill="#ffffb3" stroke="#000000" points="2343.2591,-122 2228.7409,-122 2228.7409,-86 2343.2591,-86 2343.2591,-122"/>
<text text-anchor="middle" x="2286" y="-99.8" font-family="Times,serif" font-size="14.00" fill="#000000">GameComponent</text>
</g>
<!-- GameComponent&#45;&gt;GameModule -->
<g id="edge14" class="edge">
<title>GameComponent&#45;&gt;GameModule</title>
<path fill="none" stroke="#000000" d="M2286,-122.0109C2286,-144.4852 2286,-180 2286,-180 2286,-180 2024.5805,-180 2024.5805,-180"/>
<polygon fill="#000000" stroke="#000000" points="2024.5805,-176.5001 2014.5805,-180 2024.5805,-183.5001 2024.5805,-176.5001"/>
</g>
<!-- HexComponent -->
<g id="node17" class="node">
<title>HexComponent</title>
<polygon fill="#ffffb3" stroke="#000000" points="2210.1542,-122 2105.8458,-122 2105.8458,-86 2210.1542,-86 2210.1542,-122"/>
<text text-anchor="middle" x="2158" y="-99.8" font-family="Times,serif" font-size="14.00" fill="#000000">HexComponent</text>
</g>
<!-- HexComponent&#45;&gt;GameModule -->
<g id="edge15" class="edge">
<title>HexComponent&#45;&gt;GameModule</title>
<path fill="none" stroke="#000000" d="M2158,-122.308C2158,-142.1455 2158,-171 2158,-171 2158,-171 2024.4792,-171 2024.4792,-171"/>
<polygon fill="#000000" stroke="#000000" points="2024.4793,-167.5001 2014.4792,-171 2024.4792,-174.5001 2024.4793,-167.5001"/>
</g>
<!-- InfoComponent -->
<g id="node18" class="node">
<title>InfoComponent</title>
<polygon fill="#ffffb3" stroke="#000000" points="2087.1542,-122 1982.8458,-122 1982.8458,-86 2087.1542,-86 2087.1542,-122"/>
<text text-anchor="middle" x="2035" y="-99.8" font-family="Times,serif" font-size="14.00" fill="#000000">InfoComponent</text>
</g>
<!-- InfoComponent&#45;&gt;GameModule -->
<g id="edge16" class="edge">
<title>InfoComponent&#45;&gt;GameModule</title>
<path fill="none" stroke="#000000" d="M1998.5807,-122.0109C1998.5807,-122.0109 1998.5807,-151.855 1998.5807,-151.855"/>
<polygon fill="#000000" stroke="#000000" points="1995.0807,-151.8549 1998.5807,-161.855 2002.0807,-151.855 1995.0807,-151.8549"/>
</g>
<!-- PenguinComponent -->
<g id="node19" class="node">
<title>PenguinComponent</title>
<polygon fill="#ffffb3" stroke="#000000" points="1964.7204,-122 1837.2796,-122 1837.2796,-86 1964.7204,-86 1964.7204,-122"/>
<text text-anchor="middle" x="1901" y="-99.8" font-family="Times,serif" font-size="14.00" fill="#000000">PenguinComponent</text>
</g>
<!-- PenguinComponent&#45;&gt;GameModule -->
<g id="edge17" class="edge">
<title>PenguinComponent&#45;&gt;GameModule</title>
<path fill="none" stroke="#000000" d="M1943.061,-122.0109C1943.061,-122.0109 1943.061,-151.855 1943.061,-151.855"/>
<polygon fill="#000000" stroke="#000000" points="1939.5611,-151.8549 1943.061,-161.855 1946.5611,-151.855 1939.5611,-151.8549"/>
</g>
<!-- GameRoutingModule -->
<g id="node21" class="node">
<title>GameRoutingModule</title>
<polygon fill="#8dd3c7" stroke="#000000" points="1535.094,-122 1532.094,-126 1511.094,-126 1508.094,-122 1396.906,-122 1396.906,-86 1535.094,-86 1535.094,-122"/>
<text text-anchor="middle" x="1466" y="-99.8" font-family="Times,serif" font-size="14.00" fill="#000000">GameRoutingModule</text>
</g>
<!-- GameRoutingModule&#45;&gt;GameModule -->
<g id="edge18" class="edge">
<title>GameRoutingModule&#45;&gt;GameModule</title>
<path fill="none" stroke="#000000" d="M1528.1422,-122.0109C1528.1422,-144.4852 1528.1422,-180 1528.1422,-180 1528.1422,-180 1911.3439,-180 1911.3439,-180"/>
<polygon fill="#000000" stroke="#000000" points="1911.344,-183.5001 1921.3439,-180 1911.3439,-176.5001 1911.344,-183.5001"/>
</g>
<!-- HomeComponent -->
<g id="node22" class="node">
<title>HomeComponent</title>
<polygon fill="#ffffb3" stroke="#000000" points="621.5451,-198 506.4549,-198 506.4549,-162 621.5451,-162 621.5451,-198"/>
<text text-anchor="middle" x="564" y="-175.8" font-family="Times,serif" font-size="14.00" fill="#000000">HomeComponent</text>
</g>
<!-- HomeComponent&#45;&gt;HomeModule -->
<g id="edge19" class="edge">
<title>HomeComponent&#45;&gt;HomeModule</title>
<path fill="none" stroke="#000000" d="M564,-198.0267C564,-218.7672 564,-250 564,-250 564,-250 651.9227,-250 651.9227,-250"/>
<polygon fill="#000000" stroke="#000000" points="651.9227,-253.5001 661.9227,-250 651.9226,-246.5001 651.9227,-253.5001"/>
</g>
<!-- HomeRoutingModule -->
<g id="node23" class="node">
<title>HomeRoutingModule</title>
<polygon fill="#8dd3c7" stroke="#000000" points="482.3795,-198 479.3795,-202 458.3795,-202 455.3795,-198 343.6205,-198 343.6205,-162 482.3795,-162 482.3795,-198"/>
<text text-anchor="middle" x="413" y="-175.8" font-family="Times,serif" font-size="14.00" fill="#000000">HomeRoutingModule</text>
</g>
<!-- HomeRoutingModule&#45;&gt;HomeModule -->
<g id="edge21" class="edge">
<title>HomeRoutingModule&#45;&gt;HomeModule</title>
<path fill="none" stroke="#000000" d="M413,-198.1985C413,-222.3563 413,-262 413,-262 413,-262 652.0979,-262 652.0979,-262"/>
<polygon fill="#000000" stroke="#000000" points="652.098,-265.5001 662.0979,-262 652.0979,-258.5001 652.098,-265.5001"/>
</g>
<!-- LoaderComponent -->
<g id="node24" class="node">
<title>LoaderComponent</title>
<polygon fill="#ffffb3" stroke="#000000" points="1665.4748,-274 1544.5252,-274 1544.5252,-238 1665.4748,-238 1665.4748,-274"/>
<text text-anchor="middle" x="1605" y="-251.8" font-family="Times,serif" font-size="14.00" fill="#000000">LoaderComponent</text>
</g>
<!-- LoaderComponent&#45;&gt;SharedModule -->
<g id="edge23" class="edge">
<title>LoaderComponent&#45;&gt;SharedModule</title>
<path fill="none" stroke="#000000" d="M1551.9516,-237.9733C1551.9516,-217.2328 1551.9516,-186 1551.9516,-186 1551.9516,-186 1237.2722,-186 1237.2722,-186"/>
<polygon fill="#000000" stroke="#000000" points="1237.2722,-182.5001 1227.2722,-186 1237.2721,-189.5001 1237.2722,-182.5001"/>
</g>
<!-- ShellComponent -->
<g id="node26" class="node">
<title>ShellComponent</title>
<polygon fill="#ffffb3" stroke="#000000" points="704.1109,-122 593.8891,-122 593.8891,-86 704.1109,-86 704.1109,-122"/>
<text text-anchor="middle" x="649" y="-99.8" font-family="Times,serif" font-size="14.00" fill="#000000">ShellComponent</text>
</g>
<!-- ShellComponent&#45;&gt;ShellModule -->
<g id="edge25" class="edge">
<title>ShellComponent&#45;&gt;ShellModule</title>
<path fill="none" stroke="#000000" d="M682.8373,-122.2434C682.8373,-129.4297 682.8373,-136 682.8373,-136 682.8373,-136 1067,-136 1067,-136 1067,-136 1067,-151.8495 1067,-151.8495"/>
<polygon fill="#000000" stroke="#000000" points="1063.5001,-151.8494 1067,-161.8495 1070.5001,-151.8495 1063.5001,-151.8494"/>
</g>
<!-- TeamComponent -->
<g id="node27" class="node">
<title>TeamComponent</title>
<polygon fill="#ffffb3" stroke="#000000" points="1017.705,-122 904.295,-122 904.295,-86 1017.705,-86 1017.705,-122"/>
<text text-anchor="middle" x="961" y="-99.8" font-family="Times,serif" font-size="14.00" fill="#000000">TeamComponent</text>
</g>
<!-- TeamComponent&#45;&gt;TeamModule -->
<g id="edge26" class="edge">
<title>TeamComponent&#45;&gt;TeamModule</title>
<path fill="none" stroke="#000000" d="M954.3924,-122.0439C954.3924,-134.5633 954.3924,-149 954.3924,-149 954.3924,-149 827.237,-149 827.237,-149 827.237,-149 827.237,-151.9672 827.237,-151.9672"/>
<polygon fill="#000000" stroke="#000000" points="823.7371,-151.9671 827.237,-161.9672 830.7371,-151.9672 823.7371,-151.9671"/>
</g>
<!-- TeamRoutingModule -->
<g id="node28" class="node">
<title>TeamRoutingModule</title>
<polygon fill="#8dd3c7" stroke="#000000" points="880.0408,-122 877.0408,-126 856.0408,-126 853.0408,-122 743.9592,-122 743.9592,-86 880.0408,-86 880.0408,-122"/>
<text text-anchor="middle" x="812" y="-99.8" font-family="Times,serif" font-size="14.00" fill="#000000">TeamRoutingModule</text>
</g>
<!-- TeamRoutingModule&#45;&gt;TeamModule -->
<g id="edge27" class="edge">
<title>TeamRoutingModule&#45;&gt;TeamModule</title>
<path fill="none" stroke="#000000" d="M796.763,-122.0109C796.763,-122.0109 796.763,-151.855 796.763,-151.855"/>
<polygon fill="#000000" stroke="#000000" points="793.2631,-151.8549 796.763,-161.855 800.2631,-151.855 793.2631,-151.8549"/>
</g>
</g>
</svg>
