<?xml version="1.0" encoding="UTF-8" standalone="no"?>
<!DOCTYPE svg PUBLIC "-//W3C//DTD SVG 1.1//EN"
 "http://www.w3.org/Graphics/SVG/1.1/DTD/svg11.dtd">
<!-- Generated by graphviz version 2.40.1 (20161225.0304)
 -->
<!-- Title: /workspace/src/game_logic/AbstractInterface.hpp Pages: 1 -->
<svg width="503pt" height="195pt"
 viewBox="0.00 0.00 503.00 195.00" xmlns="http://www.w3.org/2000/svg" xmlns:xlink="http://www.w3.org/1999/xlink">
<g id="graph0" class="graph" transform="scale(1 1) rotate(0) translate(4 191)">
<title>/workspace/src/game_logic/AbstractInterface.hpp</title>
<!-- Node1 -->
<g id="node1" class="node">
<title>Node1</title>
<polygon fill="#bfbfbf" stroke="#000000" points="179,-156.5 179,-186.5 332,-186.5 332,-156.5 179,-156.5"/>
<text text-anchor="start" x="187" y="-174.5" font-family="Helvetica,sans-Serif" font-size="10.00" fill="#000000">/workspace/src/game</text>
<text text-anchor="middle" x="255.5" y="-163.5" font-family="Helvetica,sans-Serif" font-size="10.00" fill="#000000">_logic/AbstractInterface.hpp</text>
</g>
<!-- Node2 -->
<g id="node2" class="node">
<title>Node2</title>
<g id="a_node2"><a xlink:href="penguin_2_console_game_8hpp.html" target="_top" xlink:title="/workspace/src/game\l_logic/penguin/ConsoleGame.hpp">
<polygon fill="none" stroke="#000000" points="77,-84 77,-114 256,-114 256,-84 77,-84"/>
<text text-anchor="start" x="85" y="-102" font-family="Helvetica,sans-Serif" font-size="10.00" fill="#000000">/workspace/src/game</text>
<text text-anchor="middle" x="166.5" y="-91" font-family="Helvetica,sans-Serif" font-size="10.00" fill="#000000">_logic/penguin/ConsoleGame.hpp</text>
</a>
</g>
</g>
<!-- Node1&#45;&gt;Node2 -->
<g id="edge1" class="edge">
<title>Node1&#45;&gt;Node2</title>
<path fill="none" stroke="#191970" d="M229.0864,-149.9833C214.8677,-138.4007 197.6804,-124.3998 184.9172,-114.0028"/>
<polygon fill="#191970" stroke="#191970" points="227.0955,-152.8758 237.0591,-156.478 231.5165,-147.4486 227.0955,-152.8758"/>
</g>
<!-- Node5 -->
<g id="node5" class="node">
<title>Node5</title>
<g id="a_node5"><a xlink:href="tic__tac__toe_2_console_game_8hpp.html" target="_top" xlink:title="/workspace/src/game\l_logic/tic_tac_toe/Console\lGame.hpp">
<polygon fill="none" stroke="#000000" points="274,-78.5 274,-119.5 417,-119.5 417,-78.5 274,-78.5"/>
<text text-anchor="start" x="282" y="-107.5" font-family="Helvetica,sans-Serif" font-size="10.00" fill="#000000">/workspace/src/game</text>
<text text-anchor="start" x="282" y="-96.5" font-family="Helvetica,sans-Serif" font-size="10.00" fill="#000000">_logic/tic_tac_toe/Console</text>
<text text-anchor="middle" x="345.5" y="-85.5" font-family="Helvetica,sans-Serif" font-size="10.00" fill="#000000">Game.hpp</text>
</a>
</g>
</g>
<!-- Node1&#45;&gt;Node5 -->
<g id="edge4" class="edge">
<title>Node1&#45;&gt;Node5</title>
<path fill="none" stroke="#191970" d="M282.0654,-150.1001C294.0672,-140.432 308.1841,-129.06 320.0499,-119.5015"/>
<polygon fill="#191970" stroke="#191970" points="279.74,-147.479 274.1481,-156.478 284.1313,-152.9303 279.74,-147.479"/>
</g>
<!-- Node3 -->
<g id="node3" class="node">
<title>Node3</title>
<g id="a_node3"><a xlink:href="penguin_2_console_game_8cpp.html" target="_top" xlink:title="/workspace/src/game\l_logic/penguin/ConsoleGame.cpp">
<polygon fill="none" stroke="#000000" points="0,-6 0,-36 179,-36 179,-6 0,-6"/>
<text text-anchor="start" x="8" y="-24" font-family="Helvetica,sans-Serif" font-size="10.00" fill="#000000">/workspace/src/game</text>
<text text-anchor="middle" x="89.5" y="-13" font-family="Helvetica,sans-Serif" font-size="10.00" fill="#000000">_logic/penguin/ConsoleGame.cpp</text>
</a>
</g>
</g>
<!-- Node2&#45;&gt;Node3 -->
<g id="edge2" class="edge">
<title>Node2&#45;&gt;Node3</title>
<path fill="none" stroke="#191970" d="M144.5266,-76.7412C131.7373,-63.7859 115.945,-47.7884 104.5635,-36.2592"/>
<polygon fill="#191970" stroke="#191970" points="142.1375,-79.3031 151.6536,-83.9608 147.1191,-74.3854 142.1375,-79.3031"/>
</g>
<!-- Node4 -->
<g id="node4" class="node">
<title>Node4</title>
<g id="a_node4"><a xlink:href="main_8cpp.html" target="_top" xlink:title="/workspace/src/main.cpp">
<polygon fill="none" stroke="#000000" points="197,-11.5 197,-30.5 334,-30.5 334,-11.5 197,-11.5"/>
<text text-anchor="middle" x="265.5" y="-18.5" font-family="Helvetica,sans-Serif" font-size="10.00" fill="#000000">/workspace/src/main.cpp</text>
</a>
</g>
</g>
<!-- Node2&#45;&gt;Node4 -->
<g id="edge3" class="edge">
<title>Node2&#45;&gt;Node4</title>
<path fill="none" stroke="#191970" d="M193.5481,-77.6894C213.0791,-62.3013 238.5271,-42.2514 253.3359,-30.5839"/>
<polygon fill="#191970" stroke="#191970" points="191.2771,-75.0228 185.5882,-83.9608 195.6092,-80.5213 191.2771,-75.0228"/>
</g>
<!-- Node5&#45;&gt;Node4 -->
<g id="edge6" class="edge">
<title>Node5&#45;&gt;Node4</title>
<path fill="none" stroke="#191970" d="M316.7725,-70.9907C302.38,-56.958 285.8674,-40.8582 275.5586,-30.8072"/>
<polygon fill="#191970" stroke="#191970" points="314.4581,-73.6224 324.0615,-78.0974 319.3448,-68.6104 314.4581,-73.6224"/>
</g>
<!-- Node6 -->
<g id="node6" class="node">
<title>Node6</title>
<g id="a_node6"><a xlink:href="tic__tac__toe_2_console_game_8cpp.html" target="_top" xlink:title="/workspace/src/game\l_logic/tic_tac_toe/Console\lGame.cpp">
<polygon fill="none" stroke="#000000" points="352,-.5 352,-41.5 495,-41.5 495,-.5 352,-.5"/>
<text text-anchor="start" x="360" y="-29.5" font-family="Helvetica,sans-Serif" font-size="10.00" fill="#000000">/workspace/src/game</text>
<text text-anchor="start" x="360" y="-18.5" font-family="Helvetica,sans-Serif" font-size="10.00" fill="#000000">_logic/tic_tac_toe/Console</text>
<text text-anchor="middle" x="423.5" y="-7.5" font-family="Helvetica,sans-Serif" font-size="10.00" fill="#000000">Game.cpp</text>
</a>
</g>
</g>
<!-- Node5&#45;&gt;Node6 -->
<g id="edge5" class="edge">
<title>Node5&#45;&gt;Node6</title>
<path fill="none" stroke="#191970" d="M373.5548,-70.9452C383.2134,-61.2866 393.8465,-50.6535 402.8102,-41.6898"/>
<polygon fill="#191970" stroke="#191970" points="370.9988,-68.5515 366.4026,-78.0974 375.9485,-73.5012 370.9988,-68.5515"/>
</g>
</g>
</svg>
