<?xml version="1.0" encoding="UTF-8" standalone="no"?>
<!DOCTYPE svg PUBLIC "-//W3C//DTD SVG 1.1//EN"
 "http://www.w3.org/Graphics/SVG/1.1/DTD/svg11.dtd">
<!-- Generated by graphviz version 2.40.1 (20161225.0304)
 -->
<!-- Title: /workspace/src/game_logic/AbstractGame.cpp Pages: 1 -->
<svg width="887pt" height="207pt"
 viewBox="0.00 0.00 886.50 207.00" xmlns="http://www.w3.org/2000/svg" xmlns:xlink="http://www.w3.org/1999/xlink">
<g id="graph0" class="graph" transform="scale(1 1) rotate(0) translate(4 203)">
<title>/workspace/src/game_logic/AbstractGame.cpp</title>
<!-- Node0 -->
<g id="node1" class="node">
<title>Node0</title>
<polygon fill="#bfbfbf" stroke="#000000" points="380,-168.5 380,-198.5 518,-198.5 518,-168.5 380,-168.5"/>
<text text-anchor="start" x="388" y="-186.5" font-family="Helvetica,sans-Serif" font-size="10.00" fill="#000000">/workspace/src/game</text>
<text text-anchor="middle" x="449" y="-175.5" font-family="Helvetica,sans-Serif" font-size="10.00" fill="#000000">_logic/AbstractGame.cpp</text>
</g>
<!-- Node1 -->
<g id="node2" class="node">
<title>Node1</title>
<g id="a_node2"><a xlink:href="_player_8hpp.html" target="_top" xlink:title="tic_tac_toe/Player.hpp">
<polygon fill="none" stroke="#000000" points="162,-112.5 162,-131.5 286,-131.5 286,-112.5 162,-112.5"/>
<text text-anchor="middle" x="224" y="-119.5" font-family="Helvetica,sans-Serif" font-size="10.00" fill="#000000">tic_tac_toe/Player.hpp</text>
</a>
</g>
</g>
<!-- Node0&#45;&gt;Node1 -->
<g id="edge1" class="edge">
<title>Node0&#45;&gt;Node1</title>
<path fill="none" stroke="#191970" d="M393.9588,-168.4554C355.429,-157.9239 304.6078,-144.0328 268.6059,-134.1923"/>
<polygon fill="#191970" stroke="#191970" points="269.436,-130.7909 258.867,-131.5303 267.5903,-137.5432 269.436,-130.7909"/>
</g>
<!-- Node5 -->
<g id="node6" class="node">
<title>Node5</title>
<g id="a_node6"><a xlink:href="tic__tac__toe_2_board_cell_8hpp.html" target="_top" xlink:title="tic_tac_toe/BoardCell.hpp">
<polygon fill="none" stroke="#000000" points="737.5,-112.5 737.5,-131.5 878.5,-131.5 878.5,-112.5 737.5,-112.5"/>
<text text-anchor="middle" x="808" y="-119.5" font-family="Helvetica,sans-Serif" font-size="10.00" fill="#000000">tic_tac_toe/BoardCell.hpp</text>
</a>
</g>
</g>
<!-- Node0&#45;&gt;Node5 -->
<g id="edge5" class="edge">
<title>Node0&#45;&gt;Node5</title>
<path fill="none" stroke="#191970" d="M518.2188,-171.6422C583.0097,-160.5429 679.0981,-144.0821 742.6164,-133.2008"/>
<polygon fill="#191970" stroke="#191970" points="743.2558,-136.6423 752.5213,-131.504 742.0738,-129.7428 743.2558,-136.6423"/>
</g>
<!-- Node10 -->
<g id="node11" class="node">
<title>Node10</title>
<g id="a_node11"><a xlink:href="_human_player_8hpp.html" target="_top" xlink:title="penguin/HumanPlayer.hpp">
<polygon fill="none" stroke="#000000" points="304.5,-112.5 304.5,-131.5 449.5,-131.5 449.5,-112.5 304.5,-112.5"/>
<text text-anchor="middle" x="377" y="-119.5" font-family="Helvetica,sans-Serif" font-size="10.00" fill="#000000">penguin/HumanPlayer.hpp</text>
</a>
</g>
</g>
<!-- Node0&#45;&gt;Node10 -->
<g id="edge10" class="edge">
<title>Node0&#45;&gt;Node10</title>
<path fill="none" stroke="#191970" d="M431.2022,-168.2977C420.5833,-159.2274 407.0969,-147.7077 396.2333,-138.4285"/>
<polygon fill="#191970" stroke="#191970" points="398.4051,-135.6805 388.5281,-131.8469 393.8587,-141.0031 398.4051,-135.6805"/>
</g>
<!-- Node12 -->
<g id="node13" class="node">
<title>Node12</title>
<g id="a_node13"><a xlink:href="_penguin_pawn_8hpp.html" target="_top" xlink:title="penguin/PenguinPawn.hpp">
<polygon fill="none" stroke="#000000" points="0,-112.5 0,-131.5 144,-131.5 144,-112.5 0,-112.5"/>
<text text-anchor="middle" x="72" y="-119.5" font-family="Helvetica,sans-Serif" font-size="10.00" fill="#000000">penguin/PenguinPawn.hpp</text>
</a>
</g>
</g>
<!-- Node0&#45;&gt;Node12 -->
<g id="edge13" class="edge">
<title>Node0&#45;&gt;Node12</title>
<path fill="none" stroke="#191970" d="M379.8524,-172.22C311.8147,-161.121 208.5356,-144.273 140.6651,-133.2013"/>
<polygon fill="#191970" stroke="#191970" points="140.9354,-129.6992 130.5023,-131.5435 139.8083,-136.6079 140.9354,-129.6992"/>
</g>
<!-- Node13 -->
<g id="node14" class="node">
<title>Node13</title>
<g id="a_node14"><a xlink:href="penguin_2_board_cell_8hpp.html" target="_top" xlink:title="penguin/BoardCell.hpp">
<polygon fill="none" stroke="#000000" points="592.5,-112.5 592.5,-131.5 719.5,-131.5 719.5,-112.5 592.5,-112.5"/>
<text text-anchor="middle" x="656" y="-119.5" font-family="Helvetica,sans-Serif" font-size="10.00" fill="#000000">penguin/BoardCell.hpp</text>
</a>
</g>
</g>
<!-- Node0&#45;&gt;Node13 -->
<g id="edge15" class="edge">
<title>Node0&#45;&gt;Node13</title>
<path fill="none" stroke="#191970" d="M499.6379,-168.4554C534.7823,-158.0139 581.0424,-144.27 614.1103,-134.4455"/>
<polygon fill="#191970" stroke="#191970" points="615.3333,-137.7334 623.9223,-131.5303 613.3397,-131.0233 615.3333,-137.7334"/>
</g>
<!-- Node14 -->
<g id="node15" class="node">
<title>Node14</title>
<g id="a_node15"><a xlink:href="_abstract_game_8hpp.html" target="_top" xlink:title="AbstractGame.hpp">
<polygon fill="none" stroke="#000000" points="467.5,-112.5 467.5,-131.5 574.5,-131.5 574.5,-112.5 467.5,-112.5"/>
<text text-anchor="middle" x="521" y="-119.5" font-family="Helvetica,sans-Serif" font-size="10.00" fill="#000000">AbstractGame.hpp</text>
</a>
</g>
</g>
<!-- Node0&#45;&gt;Node14 -->
<g id="edge18" class="edge">
<title>Node0&#45;&gt;Node14</title>
<path fill="none" stroke="#191970" d="M466.7978,-168.2977C477.4167,-159.2274 490.9031,-147.7077 501.7667,-138.4285"/>
<polygon fill="#191970" stroke="#191970" points="504.1413,-141.0031 509.4719,-131.8469 499.5949,-135.6805 504.1413,-141.0031"/>
</g>
<!-- Node2 -->
<g id="node3" class="node">
<title>Node2</title>
<polygon fill="none" stroke="#bfbfbf" points="194,-56.5 194,-75.5 254,-75.5 254,-56.5 194,-56.5"/>
<text text-anchor="middle" x="224" y="-63.5" font-family="Helvetica,sans-Serif" font-size="10.00" fill="#000000">iostream</text>
</g>
<!-- Node1&#45;&gt;Node2 -->
<g id="edge2" class="edge">
<title>Node1&#45;&gt;Node2</title>
<path fill="none" stroke="#191970" d="M224,-112.2455C224,-104.9382 224,-94.6944 224,-85.7046"/>
<polygon fill="#191970" stroke="#191970" points="227.5001,-85.6426 224,-75.6427 220.5001,-85.6427 227.5001,-85.6426"/>
</g>
<!-- Node3 -->
<g id="node4" class="node">
<title>Node3</title>
<g id="a_node4"><a xlink:href="_abstract_player_8hpp.html" target="_top" xlink:title="../AbstractPlayer.hpp">
<polygon fill="none" stroke="#000000" points="273.5,-56.5 273.5,-75.5 390.5,-75.5 390.5,-56.5 273.5,-56.5"/>
<text text-anchor="middle" x="332" y="-63.5" font-family="Helvetica,sans-Serif" font-size="10.00" fill="#000000">../AbstractPlayer.hpp</text>
</a>
</g>
</g>
<!-- Node1&#45;&gt;Node3 -->
<g id="edge3" class="edge">
<title>Node1&#45;&gt;Node3</title>
<path fill="none" stroke="#191970" d="M242.8122,-112.2455C259.8473,-103.4125 285.1575,-90.2887 304.4681,-80.2758"/>
<polygon fill="#191970" stroke="#191970" points="306.137,-83.353 313.4034,-75.6427 302.9147,-77.1388 306.137,-83.353"/>
</g>
<!-- Node4 -->
<g id="node5" class="node">
<title>Node4</title>
<g id="a_node5"><a xlink:href="_abstract_pawn_8hpp.html" target="_top" xlink:title="../AbstractPawn.hpp">
<polygon fill="none" stroke="#000000" points="39.5,-56.5 39.5,-75.5 152.5,-75.5 152.5,-56.5 39.5,-56.5"/>
<text text-anchor="middle" x="96" y="-63.5" font-family="Helvetica,sans-Serif" font-size="10.00" fill="#000000">../AbstractPawn.hpp</text>
</a>
</g>
</g>
<!-- Node1&#45;&gt;Node4 -->
<g id="edge4" class="edge">
<title>Node1&#45;&gt;Node4</title>
<path fill="none" stroke="#191970" d="M201.996,-112.3733C181.3565,-103.3435 150.2842,-89.7494 127.1111,-79.6111"/>
<polygon fill="#191970" stroke="#191970" points="128.2813,-76.3028 117.7169,-75.5011 125.4755,-82.7159 128.2813,-76.3028"/>
</g>
<!-- Node6 -->
<g id="node7" class="node">
<title>Node6</title>
<g id="a_node7"><a xlink:href="_position_8hpp.html" target="_top" xlink:title="../utils/Position.hpp">
<polygon fill="none" stroke="#000000" points="604,-56.5 604,-75.5 714,-75.5 714,-56.5 604,-56.5"/>
<text text-anchor="middle" x="659" y="-63.5" font-family="Helvetica,sans-Serif" font-size="10.00" fill="#000000">../utils/Position.hpp</text>
</a>
</g>
</g>
<!-- Node5&#45;&gt;Node6 -->
<g id="edge6" class="edge">
<title>Node5&#45;&gt;Node6</title>
<path fill="none" stroke="#191970" d="M782.386,-112.3733C757.9313,-103.1822 720.8946,-89.2624 693.7791,-79.0713"/>
<polygon fill="#191970" stroke="#191970" points="694.8719,-75.7431 684.2798,-75.5011 692.4091,-82.2956 694.8719,-75.7431"/>
</g>
<!-- Node9 -->
<g id="node10" class="node">
<title>Node9</title>
<g id="a_node10"><a xlink:href="_abstract_board_cell_8hpp.html" target="_top" xlink:title="../AbstractBoardCell.hpp">
<polygon fill="none" stroke="#000000" points="738,-56.5 738,-75.5 872,-75.5 872,-56.5 738,-56.5"/>
<text text-anchor="middle" x="805" y="-63.5" font-family="Helvetica,sans-Serif" font-size="10.00" fill="#000000">../AbstractBoardCell.hpp</text>
</a>
</g>
</g>
<!-- Node5&#45;&gt;Node9 -->
<g id="edge9" class="edge">
<title>Node5&#45;&gt;Node9</title>
<path fill="none" stroke="#191970" d="M807.4774,-112.2455C807.086,-104.9382 806.5372,-94.6944 806.0556,-85.7046"/>
<polygon fill="#191970" stroke="#191970" points="809.5466,-85.4411 805.5166,-75.6427 802.5566,-85.8156 809.5466,-85.4411"/>
</g>
<!-- Node7 -->
<g id="node8" class="node">
<title>Node7</title>
<polygon fill="none" stroke="#bfbfbf" points="587.5,-.5 587.5,-19.5 640.5,-19.5 640.5,-.5 587.5,-.5"/>
<text text-anchor="middle" x="614" y="-7.5" font-family="Helvetica,sans-Serif" font-size="10.00" fill="#000000">stdlib.h</text>
</g>
<!-- Node6&#45;&gt;Node7 -->
<g id="edge7" class="edge">
<title>Node6&#45;&gt;Node7</title>
<path fill="none" stroke="#191970" d="M651.1616,-56.2455C644.838,-48.3761 635.7776,-37.101 628.1864,-27.6542"/>
<polygon fill="#191970" stroke="#191970" points="630.7408,-25.2454 621.7486,-19.6427 625.2842,-29.6302 630.7408,-25.2454"/>
</g>
<!-- Node8 -->
<g id="node9" class="node">
<title>Node8</title>
<polygon fill="none" stroke="#bfbfbf" points="658.5,-.5 658.5,-19.5 751.5,-19.5 751.5,-.5 658.5,-.5"/>
<text text-anchor="middle" x="705" y="-7.5" font-family="Helvetica,sans-Serif" font-size="10.00" fill="#000000">unordered_map</text>
</g>
<!-- Node6&#45;&gt;Node8 -->
<g id="edge8" class="edge">
<title>Node6&#45;&gt;Node8</title>
<path fill="none" stroke="#191970" d="M667.0126,-56.2455C673.4768,-48.3761 682.7385,-37.101 690.4983,-27.6542"/>
<polygon fill="#191970" stroke="#191970" points="693.4364,-29.5916 697.0792,-19.6427 688.0273,-25.1484 693.4364,-29.5916"/>
</g>
<!-- Node10&#45;&gt;Node3 -->
<g id="edge12" class="edge">
<title>Node10&#45;&gt;Node3</title>
<path fill="none" stroke="#191970" d="M369.1616,-112.2455C362.838,-104.3761 353.7776,-93.101 346.1864,-83.6542"/>
<polygon fill="#191970" stroke="#191970" points="348.7408,-81.2454 339.7486,-75.6427 343.2842,-85.6302 348.7408,-81.2454"/>
</g>
<!-- Node11 -->
<g id="node12" class="node">
<title>Node11</title>
<polygon fill="none" stroke="#bfbfbf" points="410.5,-56.5 410.5,-75.5 457.5,-75.5 457.5,-56.5 410.5,-56.5"/>
<text text-anchor="middle" x="434" y="-63.5" font-family="Helvetica,sans-Serif" font-size="10.00" fill="#000000">vector</text>
</g>
<!-- Node10&#45;&gt;Node11 -->
<g id="edge11" class="edge">
<title>Node10&#45;&gt;Node11</title>
<path fill="none" stroke="#191970" d="M386.9286,-112.2455C395.1838,-104.1352 407.1209,-92.4075 416.9082,-82.7919"/>
<polygon fill="#191970" stroke="#191970" points="419.5046,-85.1476 424.1851,-75.6427 414.5989,-80.1542 419.5046,-85.1476"/>
</g>
<!-- Node12&#45;&gt;Node4 -->
<g id="edge14" class="edge">
<title>Node12&#45;&gt;Node4</title>
<path fill="none" stroke="#191970" d="M76.1805,-112.2455C79.381,-104.7776 83.896,-94.2427 87.8084,-85.1137"/>
<polygon fill="#191970" stroke="#191970" points="91.1452,-86.2129 91.8674,-75.6427 84.7112,-83.4554 91.1452,-86.2129"/>
</g>
<!-- Node13&#45;&gt;Node6 -->
<g id="edge17" class="edge">
<title>Node13&#45;&gt;Node6</title>
<path fill="none" stroke="#191970" d="M656.5226,-112.2455C656.914,-104.9382 657.4628,-94.6944 657.9444,-85.7046"/>
<polygon fill="#191970" stroke="#191970" points="661.4434,-85.8156 658.4834,-75.6427 654.4534,-85.4411 661.4434,-85.8156"/>
</g>
<!-- Node13&#45;&gt;Node9 -->
<g id="edge16" class="edge">
<title>Node13&#45;&gt;Node9</title>
<path fill="none" stroke="#191970" d="M681.614,-112.3733C706.0687,-103.1822 743.1054,-89.2624 770.2209,-79.0713"/>
<polygon fill="#191970" stroke="#191970" points="771.5909,-82.2956 779.7202,-75.5011 769.1281,-75.7431 771.5909,-82.2956"/>
</g>
<!-- Node14&#45;&gt;Node11 -->
<g id="edge19" class="edge">
<title>Node14&#45;&gt;Node11</title>
<path fill="none" stroke="#191970" d="M505.8458,-112.2455C492.4973,-103.6534 472.8414,-91.0014 457.4617,-81.1018"/>
<polygon fill="#191970" stroke="#191970" points="459.2836,-78.1121 448.9806,-75.6427 455.4949,-83.9982 459.2836,-78.1121"/>
</g>
<!-- Node15 -->
<g id="node16" class="node">
<title>Node15</title>
<g id="a_node16"><a xlink:href="_move_8hpp.html" target="_top" xlink:title="utils/Move.hpp">
<polygon fill="none" stroke="#000000" points="477,-56.5 477,-75.5 565,-75.5 565,-56.5 477,-56.5"/>
<text text-anchor="middle" x="521" y="-63.5" font-family="Helvetica,sans-Serif" font-size="10.00" fill="#000000">utils/Move.hpp</text>
</a>
</g>
</g>
<!-- Node14&#45;&gt;Node15 -->
<g id="edge20" class="edge">
<title>Node14&#45;&gt;Node15</title>
<path fill="none" stroke="#191970" d="M521,-112.2455C521,-104.9382 521,-94.6944 521,-85.7046"/>
<polygon fill="#191970" stroke="#191970" points="524.5001,-85.6426 521,-75.6427 517.5001,-85.6427 524.5001,-85.6426"/>
</g>
</g>
</svg>
