<?xml version="1.0" encoding="UTF-8" standalone="no"?>
<!DOCTYPE svg PUBLIC "-//W3C//DTD SVG 1.1//EN"
 "http://www.w3.org/Graphics/SVG/1.1/DTD/svg11.dtd">
<!-- Generated by graphviz version 2.40.1 (20161225.0304)
 -->
<!-- Title: /workspace/src/game_logic/AbstractPawn.cpp Pages: 1 -->
<!--zoomable 207 -->
<svg id="main" version="1.1" xmlns="http://www.w3.org/2000/svg" xmlns:xlink="http://www.w3.org/1999/xlink" xml:space="preserve" onload="init(evt)">
<style type="text/css"><![CDATA[
.edge:hover path { stroke: red; }
.edge:hover polygon { stroke: red; fill: red; }
]]></style>
<script type="text/javascript"><![CDATA[
var edges = document.getElementsByTagName('g');
if (edges && edges.length) {
  for (var i=0;i<edges.length;i++) {
    if (edges[i].id.substr(0,4)=='edge') {
      edges[i].setAttribute('class','edge');
    }
  }
}
]]></script>
        <defs>
                <circle id="rim" cx="0" cy="0" r="7"/>
                <circle id="rim2" cx="0" cy="0" r="3.5"/>
                <g id="zoomPlus">
                        <use xlink:href="#rim" fill="#404040">
                                <set attributeName="fill" to="#808080" begin="zoomplus.mouseover" end="zoomplus.mouseout"/>
                        </use>
                        <path d="M-4,0h8M0,-4v8" fill="none" stroke="white" stroke-width="1.5" pointer-events="none"/>
                </g>
                <g id="zoomMin">
                        <use xlink:href="#rim" fill="#404040">
                                <set attributeName="fill" to="#808080" begin="zoomminus.mouseover" end="zoomminus.mouseout"/>
                        </use>
                        <path d="M-4,0h8" fill="none" stroke="white" stroke-width="1.5" pointer-events="none"/>
                </g>
                <g id="dirArrow">
                        <path fill="none" stroke="white" stroke-width="1.5" d="M0,-3.0v7 M-2.5,-0.5L0,-3.0L2.5,-0.5"/>
                </g>
               <g id="resetDef">
                       <use xlink:href="#rim2" fill="#404040">
                               <set attributeName="fill" to="#808080" begin="reset.mouseover" end="reset.mouseout"/>
                       </use>
               </g>
        </defs>

<script type="text/javascript">
var viewWidth = 875;
var viewHeight = 207;
var sectionId = 'dynsection-0';
</script>
<script xlink:href="svgpan.js"/>
<svg id="graph" class="graph">
<g id="viewport">
<title>/workspace/src/game_logic/AbstractPawn.cpp</title>
<!-- Node0 -->
<g id="node1" class="node">
<title>Node0</title>
<polygon fill="#bfbfbf" stroke="#000000" points="385,-168.5 385,-198.5 519,-198.5 519,-168.5 385,-168.5"/>
<text text-anchor="start" x="393" y="-186.5" font-family="Helvetica,sans-Serif" font-size="10.00" fill="#000000">/workspace/src/game</text>
<text text-anchor="middle" x="452" y="-175.5" font-family="Helvetica,sans-Serif" font-size="10.00" fill="#000000">_logic/AbstractPawn.cpp</text>
</g>
<!-- Node1 -->
<g id="node2" class="node">
<title>Node1</title>
<polygon fill="none" stroke="#bfbfbf" points="0,-112.5 0,-131.5 56,-131.5 56,-112.5 0,-112.5"/>
<text text-anchor="middle" x="28" y="-119.5" font-family="Helvetica,sans-Serif" font-size="10.00" fill="#000000">assert.h</text>
</g>
<!-- Node0&#45;&gt;Node1 -->
<g id="edge1" class="edge">
<title>Node0&#45;&gt;Node1</title>
<path fill="none" stroke="#191970" d="M384.787,-177.2682C309.3652,-169.6668 183.2735,-155.1362 66.0545,-132.0012"/>
<polygon fill="#191970" stroke="#191970" points="66.683,-128.5577 56.1909,-130.0297 65.3109,-135.4219 66.683,-128.5577"/>
</g>
<!-- Node2 -->
<g id="node3" class="node">
<title>Node2</title>
<g id="a_node3"><a xlink:href="_player_8hpp.html" target="_top" xlink:title="tic_tac_toe/Player.hpp">
<polygon fill="none" stroke="#000000" points="74,-112.5 74,-131.5 198,-131.5 198,-112.5 74,-112.5"/>
<text text-anchor="middle" x="136" y="-119.5" font-family="Helvetica,sans-Serif" font-size="10.00" fill="#000000">tic_tac_toe/Player.hpp</text>
</a>
</g>
</g>
<!-- Node0&#45;&gt;Node2 -->
<g id="edge2" class="edge">
<title>Node0&#45;&gt;Node2</title>
<path fill="none" stroke="#191970" d="M384.9845,-170.4574C328.6481,-159.4932 248.9012,-143.9729 194.9606,-133.4749"/>
<polygon fill="#191970" stroke="#191970" points="195.3506,-129.9852 184.8661,-131.5103 194.0133,-136.8563 195.3506,-129.9852"/>
</g>
<!-- Node5 -->
<g id="node6" class="node">
<title>Node5</title>
<g id="a_node6"><a xlink:href="_abstract_pawn_8hpp.html" target="_top" xlink:title="../AbstractPawn.hpp">
<polygon fill="none" stroke="#000000" points="395.5,-56.5 395.5,-75.5 508.5,-75.5 508.5,-56.5 395.5,-56.5"/>
<text text-anchor="middle" x="452" y="-63.5" font-family="Helvetica,sans-Serif" font-size="10.00" fill="#000000">../AbstractPawn.hpp</text>
</a>
</g>
</g>
<!-- Node0&#45;&gt;Node5 -->
<g id="edge19" class="edge">
<title>Node0&#45;&gt;Node5</title>
<path fill="none" stroke="#191970" d="M491.3687,-168.4817C518.2998,-155.7319 546.8244,-135.749 533,-112 524.3761,-97.185 509.0066,-86.752 493.9562,-79.6123"/>
<polygon fill="#191970" stroke="#191970" points="495.2559,-76.3609 484.6897,-75.5826 492.4644,-82.7802 495.2559,-76.3609"/>
</g>
<!-- Node6 -->
<g id="node7" class="node">
<title>Node6</title>
<g id="a_node7"><a xlink:href="tic__tac__toe_2_board_cell_8hpp.html" target="_top" xlink:title="tic_tac_toe/BoardCell.hpp">
<polygon fill="none" stroke="#000000" points="725.5,-112.5 725.5,-131.5 866.5,-131.5 866.5,-112.5 725.5,-112.5"/>
<text text-anchor="middle" x="796" y="-119.5" font-family="Helvetica,sans-Serif" font-size="10.00" fill="#000000">tic_tac_toe/BoardCell.hpp</text>
</a>
</g>
</g>
<!-- Node0&#45;&gt;Node6 -->
<g id="edge6" class="edge">
<title>Node0&#45;&gt;Node6</title>
<path fill="none" stroke="#191970" d="M519.1433,-171.4962C580.9706,-160.4428 672.0284,-144.1635 732.6296,-133.3293"/>
<polygon fill="#191970" stroke="#191970" points="733.6018,-136.7111 742.8298,-131.5057 732.3698,-129.8203 733.6018,-136.7111"/>
</g>
<!-- Node11 -->
<g id="node12" class="node">
<title>Node11</title>
<g id="a_node12"><a xlink:href="_human_player_8hpp.html" target="_top" xlink:title="penguin/HumanPlayer.hpp">
<polygon fill="none" stroke="#000000" points="216.5,-112.5 216.5,-131.5 361.5,-131.5 361.5,-112.5 216.5,-112.5"/>
<text text-anchor="middle" x="289" y="-119.5" font-family="Helvetica,sans-Serif" font-size="10.00" fill="#000000">penguin/HumanPlayer.hpp</text>
</a>
</g>
</g>
<!-- Node0&#45;&gt;Node11 -->
<g id="edge11" class="edge">
<title>Node0&#45;&gt;Node11</title>
<path fill="none" stroke="#191970" d="M412.1257,-168.4554C385.048,-158.239 349.5906,-144.8609 323.6834,-135.0861"/>
<polygon fill="#191970" stroke="#191970" points="324.851,-131.7858 314.2592,-131.5303 322.3799,-138.3352 324.851,-131.7858"/>
</g>
<!-- Node13 -->
<g id="node14" class="node">
<title>Node13</title>
<g id="a_node14"><a xlink:href="_penguin_pawn_8hpp.html" target="_top" xlink:title="penguin/PenguinPawn.hpp">
<polygon fill="none" stroke="#000000" points="380,-112.5 380,-131.5 524,-131.5 524,-112.5 380,-112.5"/>
<text text-anchor="middle" x="452" y="-119.5" font-family="Helvetica,sans-Serif" font-size="10.00" fill="#000000">penguin/PenguinPawn.hpp</text>
</a>
</g>
</g>
<!-- Node0&#45;&gt;Node13 -->
<g id="edge14" class="edge">
<title>Node0&#45;&gt;Node13</title>
<path fill="none" stroke="#191970" d="M452,-168.2977C452,-160.3834 452,-150.6043 452,-142.0759"/>
<polygon fill="#191970" stroke="#191970" points="455.5001,-141.8469 452,-131.8469 448.5001,-141.847 455.5001,-141.8469"/>
</g>
<!-- Node14 -->
<g id="node15" class="node">
<title>Node14</title>
<g id="a_node15"><a xlink:href="penguin_2_board_cell_8hpp.html" target="_top" xlink:title="penguin/BoardCell.hpp">
<polygon fill="none" stroke="#000000" points="580.5,-112.5 580.5,-131.5 707.5,-131.5 707.5,-112.5 580.5,-112.5"/>
<text text-anchor="middle" x="644" y="-119.5" font-family="Helvetica,sans-Serif" font-size="10.00" fill="#000000">penguin/BoardCell.hpp</text>
</a>
</g>
</g>
<!-- Node0&#45;&gt;Node14 -->
<g id="edge16" class="edge">
<title>Node0&#45;&gt;Node14</title>
<path fill="none" stroke="#191970" d="M498.9685,-168.4554C531.2852,-158.104 573.7351,-144.5067 604.3499,-134.7004"/>
<polygon fill="#191970" stroke="#191970" points="605.7911,-137.914 614.2468,-131.5303 603.6557,-131.2477 605.7911,-137.914"/>
</g>
<!-- Node3 -->
<g id="node4" class="node">
<title>Node3</title>
<polygon fill="none" stroke="#bfbfbf" points="79,-56.5 79,-75.5 139,-75.5 139,-56.5 79,-56.5"/>
<text text-anchor="middle" x="109" y="-63.5" font-family="Helvetica,sans-Serif" font-size="10.00" fill="#000000">iostream</text>
</g>
<!-- Node2&#45;&gt;Node3 -->
<g id="edge3" class="edge">
<title>Node2&#45;&gt;Node3</title>
<path fill="none" stroke="#191970" d="M131.297,-112.2455C127.6576,-104.6973 122.5076,-94.0158 118.0738,-84.8197"/>
<polygon fill="#191970" stroke="#191970" points="121.1449,-83.1303 113.6491,-75.6427 114.8395,-86.1704 121.1449,-83.1303"/>
</g>
<!-- Node4 -->
<g id="node5" class="node">
<title>Node4</title>
<g id="a_node5"><a xlink:href="_abstract_player_8hpp.html" target="_top" xlink:title="../AbstractPlayer.hpp">
<polygon fill="none" stroke="#000000" points="157.5,-56.5 157.5,-75.5 274.5,-75.5 274.5,-56.5 157.5,-56.5"/>
<text text-anchor="middle" x="216" y="-63.5" font-family="Helvetica,sans-Serif" font-size="10.00" fill="#000000">../AbstractPlayer.hpp</text>
</a>
</g>
</g>
<!-- Node2&#45;&gt;Node4 -->
<g id="edge4" class="edge">
<title>Node2&#45;&gt;Node4</title>
<path fill="none" stroke="#191970" d="M149.9349,-112.2455C162.0947,-103.7337 179.9464,-91.2375 194.0285,-81.3801"/>
<polygon fill="#191970" stroke="#191970" points="196.0395,-84.2447 202.2248,-75.6427 192.0253,-78.51 196.0395,-84.2447"/>
</g>
<!-- Node2&#45;&gt;Node5 -->
<g id="edge5" class="edge">
<title>Node2&#45;&gt;Node5</title>
<path fill="none" stroke="#191970" d="M189.9633,-112.4369C244.8395,-102.712 329.857,-87.6456 388.075,-77.3285"/>
<polygon fill="#191970" stroke="#191970" points="389.0235,-80.715 398.2593,-75.5237 387.8019,-73.8224 389.0235,-80.715"/>
</g>
<!-- Node7 -->
<g id="node8" class="node">
<title>Node7</title>
<g id="a_node8"><a xlink:href="_position_8hpp.html" target="_top" xlink:title="../utils/Position.hpp">
<polygon fill="none" stroke="#000000" points="592,-56.5 592,-75.5 702,-75.5 702,-56.5 592,-56.5"/>
<text text-anchor="middle" x="647" y="-63.5" font-family="Helvetica,sans-Serif" font-size="10.00" fill="#000000">../utils/Position.hpp</text>
</a>
</g>
</g>
<!-- Node6&#45;&gt;Node7 -->
<g id="edge7" class="edge">
<title>Node6&#45;&gt;Node7</title>
<path fill="none" stroke="#191970" d="M770.386,-112.3733C745.9313,-103.1822 708.8946,-89.2624 681.7791,-79.0713"/>
<polygon fill="#191970" stroke="#191970" points="682.8719,-75.7431 672.2798,-75.5011 680.4091,-82.2956 682.8719,-75.7431"/>
</g>
<!-- Node10 -->
<g id="node11" class="node">
<title>Node10</title>
<g id="a_node11"><a xlink:href="_abstract_board_cell_8hpp.html" target="_top" xlink:title="../AbstractBoardCell.hpp">
<polygon fill="none" stroke="#000000" points="726,-56.5 726,-75.5 860,-75.5 860,-56.5 726,-56.5"/>
<text text-anchor="middle" x="793" y="-63.5" font-family="Helvetica,sans-Serif" font-size="10.00" fill="#000000">../AbstractBoardCell.hpp</text>
</a>
</g>
</g>
<!-- Node6&#45;&gt;Node10 -->
<g id="edge10" class="edge">
<title>Node6&#45;&gt;Node10</title>
<path fill="none" stroke="#191970" d="M795.4774,-112.2455C795.086,-104.9382 794.5372,-94.6944 794.0556,-85.7046"/>
<polygon fill="#191970" stroke="#191970" points="797.5466,-85.4411 793.5166,-75.6427 790.5566,-85.8156 797.5466,-85.4411"/>
</g>
<!-- Node8 -->
<g id="node9" class="node">
<title>Node8</title>
<polygon fill="none" stroke="#bfbfbf" points="575.5,-.5 575.5,-19.5 628.5,-19.5 628.5,-.5 575.5,-.5"/>
<text text-anchor="middle" x="602" y="-7.5" font-family="Helvetica,sans-Serif" font-size="10.00" fill="#000000">stdlib.h</text>
</g>
<!-- Node7&#45;&gt;Node8 -->
<g id="edge8" class="edge">
<title>Node7&#45;&gt;Node8</title>
<path fill="none" stroke="#191970" d="M639.1616,-56.2455C632.838,-48.3761 623.7776,-37.101 616.1864,-27.6542"/>
<polygon fill="#191970" stroke="#191970" points="618.7408,-25.2454 609.7486,-19.6427 613.2842,-29.6302 618.7408,-25.2454"/>
</g>
<!-- Node9 -->
<g id="node10" class="node">
<title>Node9</title>
<polygon fill="none" stroke="#bfbfbf" points="646.5,-.5 646.5,-19.5 739.5,-19.5 739.5,-.5 646.5,-.5"/>
<text text-anchor="middle" x="693" y="-7.5" font-family="Helvetica,sans-Serif" font-size="10.00" fill="#000000">unordered_map</text>
</g>
<!-- Node7&#45;&gt;Node9 -->
<g id="edge9" class="edge">
<title>Node7&#45;&gt;Node9</title>
<path fill="none" stroke="#191970" d="M655.0126,-56.2455C661.4768,-48.3761 670.7385,-37.101 678.4983,-27.6542"/>
<polygon fill="#191970" stroke="#191970" points="681.4364,-29.5916 685.0792,-19.6427 676.0273,-25.1484 681.4364,-29.5916"/>
</g>
<!-- Node11&#45;&gt;Node4 -->
<g id="edge13" class="edge">
<title>Node11&#45;&gt;Node4</title>
<path fill="none" stroke="#191970" d="M276.2844,-112.2455C265.398,-103.8943 249.5117,-91.7076 236.78,-81.9408"/>
<polygon fill="#191970" stroke="#191970" points="238.6346,-78.9523 228.5699,-75.6427 234.3739,-84.5063 238.6346,-78.9523"/>
</g>
<!-- Node12 -->
<g id="node13" class="node">
<title>Node12</title>
<polygon fill="none" stroke="#bfbfbf" points="292.5,-56.5 292.5,-75.5 339.5,-75.5 339.5,-56.5 292.5,-56.5"/>
<text text-anchor="middle" x="316" y="-63.5" font-family="Helvetica,sans-Serif" font-size="10.00" fill="#000000">vector</text>
</g>
<!-- Node11&#45;&gt;Node12 -->
<g id="edge12" class="edge">
<title>Node11&#45;&gt;Node12</title>
<path fill="none" stroke="#191970" d="M293.703,-112.2455C297.3424,-104.6973 302.4924,-94.0158 306.9262,-84.8197"/>
<polygon fill="#191970" stroke="#191970" points="310.1605,-86.1704 311.3509,-75.6427 303.8551,-83.1303 310.1605,-86.1704"/>
</g>
<!-- Node13&#45;&gt;Node5 -->
<g id="edge15" class="edge">
<title>Node13&#45;&gt;Node5</title>
<path fill="none" stroke="#191970" d="M452,-112.2455C452,-104.9382 452,-94.6944 452,-85.7046"/>
<polygon fill="#191970" stroke="#191970" points="455.5001,-85.6426 452,-75.6427 448.5001,-85.6427 455.5001,-85.6426"/>
</g>
<!-- Node14&#45;&gt;Node7 -->
<g id="edge18" class="edge">
<title>Node14&#45;&gt;Node7</title>
<path fill="none" stroke="#191970" d="M644.5226,-112.2455C644.914,-104.9382 645.4628,-94.6944 645.9444,-85.7046"/>
<polygon fill="#191970" stroke="#191970" points="649.4434,-85.8156 646.4834,-75.6427 642.4534,-85.4411 649.4434,-85.8156"/>
</g>
<!-- Node14&#45;&gt;Node10 -->
<g id="edge17" class="edge">
<title>Node14&#45;&gt;Node10</title>
<path fill="none" stroke="#191970" d="M669.614,-112.3733C694.0687,-103.1822 731.1054,-89.2624 758.2209,-79.0713"/>
<polygon fill="#191970" stroke="#191970" points="759.5909,-82.2956 767.7202,-75.5011 757.1281,-75.7431 759.5909,-82.2956"/>
</g>
</g>
</svg>
        <g id="navigator" transform="translate(0 0)" fill="#404254">
                <rect fill="#f2f5e9" fill-opacity="0.5" stroke="#606060" stroke-width=".5" x="0" y="0" width="60" height="60"/>
                <use id="zoomplus" xlink:href="#zoomPlus" x="17" y="9" onmousedown="handleZoom(evt,'in')"/>
                <use id="zoomminus" xlink:href="#zoomMin" x="42" y="9" onmousedown="handleZoom(evt,'out')"/>
                <use id="reset" xlink:href="#resetDef" x="30" y="36" onmousedown="handleReset()"/>
                <g id="arrowUp" xlink:href="#dirArrow" transform="translate(30 24)" onmousedown="handlePan(0,-1)">
                  <use xlink:href="#rim" fill="#404040">
                        <set attributeName="fill" to="#808080" begin="arrowUp.mouseover" end="arrowUp.mouseout"/>
                  </use>
                  <path fill="none" stroke="white" stroke-width="1.5" d="M0,-3.0v7 M-2.5,-0.5L0,-3.0L2.5,-0.5"/>
                </g>
                <g id="arrowRight" xlink:href="#dirArrow" transform="rotate(90) translate(36 -43)" onmousedown="handlePan(1,0)">
                  <use xlink:href="#rim" fill="#404040">
                        <set attributeName="fill" to="#808080" begin="arrowRight.mouseover" end="arrowRight.mouseout"/>
                  </use>
                  <path fill="none" stroke="white" stroke-width="1.5" d="M0,-3.0v7 M-2.5,-0.5L0,-3.0L2.5,-0.5"/>
                </g>
                <g id="arrowDown" xlink:href="#dirArrow" transform="rotate(180) translate(-30 -48)" onmousedown="handlePan(0,1)">
                  <use xlink:href="#rim" fill="#404040">
                        <set attributeName="fill" to="#808080" begin="arrowDown.mouseover" end="arrowDown.mouseout"/>
                  </use>
                  <path fill="none" stroke="white" stroke-width="1.5" d="M0,-3.0v7 M-2.5,-0.5L0,-3.0L2.5,-0.5"/>
                </g>
                <g id="arrowLeft" xlink:href="#dirArrow" transform="rotate(270) translate(-36 17)" onmousedown="handlePan(-1,0)">
                  <use xlink:href="#rim" fill="#404040">
                        <set attributeName="fill" to="#808080" begin="arrowLeft.mouseover" end="arrowLeft.mouseout"/>
                  </use>
                  <path fill="none" stroke="white" stroke-width="1.5" d="M0,-3.0v7 M-2.5,-0.5L0,-3.0L2.5,-0.5"/>
                </g>
        </g>
        <svg viewBox="0 0 15 15" width="100%" height="30px" preserveAspectRatio="xMaxYMin meet">
         <g id="arrow_out" transform="scale(0.3 0.3)">
          <a xlink:href="_abstract_pawn_8cpp__incl_org.svg" target="_base">
           <rect id="button" ry="5" rx="5" y="6" x="6" height="38" width="38"
                fill="#f2f5e9" fill-opacity="0.5" stroke="#606060" stroke-width="1.0"/>
           <path id="arrow"
             d="M 11.500037,31.436501 C 11.940474,20.09759 22.043105,11.32322 32.158766,21.979434 L 37.068811,17.246167 C 37.068811,17.246167 37.088388,32 37.088388,32 L 22.160133,31.978069 C 22.160133,31.978069 26.997745,27.140456 26.997745,27.140456 C 18.528582,18.264221 13.291696,25.230495 11.500037,31.436501 z"
             style="fill:#404040;"/>
          </a>
         </g>
        </svg>
</svg>
