<?xml version="1.0" encoding="UTF-8" standalone="no"?>
<!DOCTYPE svg PUBLIC "-//W3C//DTD SVG 1.1//EN"
 "http://www.w3.org/Graphics/SVG/1.1/DTD/svg11.dtd">
<!-- Generated by graphviz version 2.40.1 (20161225.0304)
 -->
<!-- Title: /workspace/src/mcts/MCTS.hpp Pages: 1 -->
<svg width="791pt" height="218pt"
 viewBox="0.00 0.00 791.00 218.00" xmlns="http://www.w3.org/2000/svg" xmlns:xlink="http://www.w3.org/1999/xlink">
<g id="graph0" class="graph" transform="scale(1 1) rotate(0) translate(4 214)">
<title>/workspace/src/mcts/MCTS.hpp</title>
<!-- Node0 -->
<g id="node1" class="node">
<title>Node0</title>
<polygon fill="#bfbfbf" stroke="#000000" points="148,-179.5 148,-209.5 264,-209.5 264,-179.5 148,-179.5"/>
<text text-anchor="start" x="156" y="-197.5" font-family="Helvetica,sans-Serif" font-size="10.00" fill="#000000">/workspace/src/mcts</text>
<text text-anchor="middle" x="206" y="-186.5" font-family="Helvetica,sans-Serif" font-size="10.00" fill="#000000">/MCTS.hpp</text>
</g>
<!-- Node1 -->
<g id="node2" class="node">
<title>Node1</title>
<g id="a_node2"><a xlink:href="_abstract_game_8hpp.html" target="_top" xlink:title="../game_logic/AbstractGame.hpp">
<polygon fill="none" stroke="#000000" points="0,-62 0,-81 176,-81 176,-62 0,-62"/>
<text text-anchor="middle" x="88" y="-69" font-family="Helvetica,sans-Serif" font-size="10.00" fill="#000000">../game_logic/AbstractGame.hpp</text>
</a>
</g>
</g>
<!-- Node0&#45;&gt;Node1 -->
<g id="edge1" class="edge">
<title>Node0&#45;&gt;Node1</title>
<path fill="none" stroke="#191970" d="M191.5309,-179.4178C169.4143,-156.3641 127.3386,-112.5055 104.2188,-88.406"/>
<polygon fill="#191970" stroke="#191970" points="106.6097,-85.8425 97.1611,-81.0493 101.5583,-90.6885 106.6097,-85.8425"/>
</g>
<!-- Node4 -->
<g id="node5" class="node">
<title>Node4</title>
<g id="a_node5"><a xlink:href="_tree_8hpp.html" target="_top" xlink:title="Tree.hpp">
<polygon fill="none" stroke="#000000" points="262,-123.5 262,-142.5 320,-142.5 320,-123.5 262,-123.5"/>
<text text-anchor="middle" x="291" y="-130.5" font-family="Helvetica,sans-Serif" font-size="10.00" fill="#000000">Tree.hpp</text>
</a>
</g>
</g>
<!-- Node0&#45;&gt;Node4 -->
<g id="edge4" class="edge">
<title>Node0&#45;&gt;Node4</title>
<path fill="none" stroke="#191970" d="M227.0112,-179.2977C239.7934,-170.0495 256.0946,-158.2551 269.0448,-148.8853"/>
<polygon fill="#191970" stroke="#191970" points="271.3403,-151.5445 277.3904,-142.8469 267.237,-145.8732 271.3403,-151.5445"/>
</g>
<!-- Node2 -->
<g id="node3" class="node">
<title>Node2</title>
<polygon fill="none" stroke="#bfbfbf" points="64.5,-.5 64.5,-19.5 111.5,-19.5 111.5,-.5 64.5,-.5"/>
<text text-anchor="middle" x="88" y="-7.5" font-family="Helvetica,sans-Serif" font-size="10.00" fill="#000000">vector</text>
</g>
<!-- Node1&#45;&gt;Node2 -->
<g id="edge2" class="edge">
<title>Node1&#45;&gt;Node2</title>
<path fill="none" stroke="#191970" d="M88,-61.8906C88,-53.3657 88,-40.6392 88,-29.9235"/>
<polygon fill="#191970" stroke="#191970" points="91.5001,-29.7448 88,-19.7449 84.5001,-29.7449 91.5001,-29.7448"/>
</g>
<!-- Node3 -->
<g id="node4" class="node">
<title>Node3</title>
<g id="a_node4"><a xlink:href="_move_8hpp.html" target="_top" xlink:title="utils/Move.hpp">
<polygon fill="none" stroke="#000000" points="145,-.5 145,-19.5 233,-19.5 233,-.5 145,-.5"/>
<text text-anchor="middle" x="189" y="-7.5" font-family="Helvetica,sans-Serif" font-size="10.00" fill="#000000">utils/Move.hpp</text>
</a>
</g>
</g>
<!-- Node1&#45;&gt;Node3 -->
<g id="edge3" class="edge">
<title>Node1&#45;&gt;Node3</title>
<path fill="none" stroke="#191970" d="M103.7813,-61.8906C120.0875,-51.9616 145.754,-36.333 164.6614,-24.8201"/>
<polygon fill="#191970" stroke="#191970" points="166.6087,-27.7322 173.3296,-19.5419 162.9681,-21.7533 166.6087,-27.7322"/>
</g>
<!-- Node4&#45;&gt;Node1 -->
<g id="edge9" class="edge">
<title>Node4&#45;&gt;Node1</title>
<path fill="none" stroke="#191970" d="M261.915,-124.1885C227.0471,-113.6251 168.3893,-95.8544 128.9519,-83.9066"/>
<polygon fill="#191970" stroke="#191970" points="129.9511,-80.5523 119.3658,-81.0024 127.9214,-87.2516 129.9511,-80.5523"/>
</g>
<!-- Node4&#45;&gt;Node3 -->
<g id="edge11" class="edge">
<title>Node4&#45;&gt;Node3</title>
<path fill="none" stroke="#191970" d="M270.8974,-123.3349C256.0289,-115.3374 236.1581,-102.7517 223,-87 208.8594,-70.0722 199.5741,-46.3383 194.3343,-29.7086"/>
<polygon fill="#191970" stroke="#191970" points="197.6436,-28.556 191.4649,-19.9494 190.9279,-30.5306 197.6436,-28.556"/>
</g>
<!-- Node5 -->
<g id="node6" class="node">
<title>Node5</title>
<polygon fill="none" stroke="#bfbfbf" points="232,-62 232,-81 282,-81 282,-62 232,-62"/>
<text text-anchor="middle" x="257" y="-69" font-family="Helvetica,sans-Serif" font-size="10.00" fill="#000000">chrono</text>
</g>
<!-- Node4&#45;&gt;Node5 -->
<g id="edge5" class="edge">
<title>Node4&#45;&gt;Node5</title>
<path fill="none" stroke="#191970" d="M285.6875,-123.3906C280.7761,-114.5068 273.3421,-101.0601 267.2725,-90.0811"/>
<polygon fill="#191970" stroke="#191970" points="270.2888,-88.3031 262.3874,-81.2449 264.1627,-91.6899 270.2888,-88.3031"/>
</g>
<!-- Node6 -->
<g id="node7" class="node">
<title>Node6</title>
<polygon fill="none" stroke="#bfbfbf" points="300.5,-62 300.5,-81 351.5,-81 351.5,-62 300.5,-62"/>
<text text-anchor="middle" x="326" y="-69" font-family="Helvetica,sans-Serif" font-size="10.00" fill="#000000">math.h</text>
</g>
<!-- Node4&#45;&gt;Node6 -->
<g id="edge6" class="edge">
<title>Node4&#45;&gt;Node6</title>
<path fill="none" stroke="#191970" d="M296.4688,-123.3906C301.5246,-114.5068 309.1772,-101.0601 315.4254,-90.0811"/>
<polygon fill="#191970" stroke="#191970" points="318.5498,-91.6672 320.4541,-81.2449 312.466,-88.2048 318.5498,-91.6672"/>
</g>
<!-- Node7 -->
<g id="node8" class="node">
<title>Node7</title>
<polygon fill="none" stroke="#bfbfbf" points="369.5,-62 369.5,-81 416.5,-81 416.5,-62 369.5,-62"/>
<text text-anchor="middle" x="393" y="-69" font-family="Helvetica,sans-Serif" font-size="10.00" fill="#000000">queue</text>
</g>
<!-- Node4&#45;&gt;Node7 -->
<g id="edge7" class="edge">
<title>Node4&#45;&gt;Node7</title>
<path fill="none" stroke="#191970" d="M306.9375,-123.3906C323.4051,-113.4616 349.3258,-97.833 368.4204,-86.3201"/>
<polygon fill="#191970" stroke="#191970" points="370.4178,-89.2027 377.1744,-81.0419 366.8034,-83.2081 370.4178,-89.2027"/>
</g>
<!-- Node8 -->
<g id="node9" class="node">
<title>Node8</title>
<g id="a_node9"><a xlink:href="_abstract_player_8hpp.html" target="_top" xlink:title="../game_logic/AbstractPlayer.hpp">
<polygon fill="none" stroke="#000000" points="435,-62 435,-81 611,-81 611,-62 435,-62"/>
<text text-anchor="middle" x="523" y="-69" font-family="Helvetica,sans-Serif" font-size="10.00" fill="#000000">../game_logic/AbstractPlayer.hpp</text>
</a>
</g>
</g>
<!-- Node4&#45;&gt;Node8 -->
<g id="edge8" class="edge">
<title>Node4&#45;&gt;Node8</title>
<path fill="none" stroke="#191970" d="M320.383,-125.211C359.9139,-114.7319 430.6249,-95.9874 477.1772,-83.647"/>
<polygon fill="#191970" stroke="#191970" points="478.2432,-86.9854 487.0125,-81.0398 476.4495,-80.2191 478.2432,-86.9854"/>
</g>
<!-- Node9 -->
<g id="node10" class="node">
<title>Node9</title>
<g id="a_node10"><a xlink:href="_abstract_board_cell_8hpp.html" target="_top" xlink:title="../game_logic/AbstractBoard\lCell.hpp">
<polygon fill="none" stroke="#000000" points="629,-56.5 629,-86.5 783,-86.5 783,-56.5 629,-56.5"/>
<text text-anchor="start" x="637" y="-74.5" font-family="Helvetica,sans-Serif" font-size="10.00" fill="#000000">../game_logic/AbstractBoard</text>
<text text-anchor="middle" x="706" y="-63.5" font-family="Helvetica,sans-Serif" font-size="10.00" fill="#000000">Cell.hpp</text>
</a>
</g>
</g>
<!-- Node4&#45;&gt;Node9 -->
<g id="edge10" class="edge">
<title>Node4&#45;&gt;Node9</title>
<path fill="none" stroke="#191970" d="M320.1041,-129.3223C375.9203,-122.1852 502.1026,-105.645 618.5173,-87.203"/>
<polygon fill="#191970" stroke="#191970" points="619.3445,-90.6155 628.6694,-85.5859 618.2433,-83.7026 619.3445,-90.6155"/>
</g>
</g>
</svg>
