<?xml version="1.0" encoding="UTF-8" standalone="no"?>
<!DOCTYPE svg PUBLIC "-//W3C//DTD SVG 1.1//EN"
 "http://www.w3.org/Graphics/SVG/1.1/DTD/svg11.dtd">
<!-- Generated by graphviz version 2.40.1 (20161225.0304)
 -->
<!-- Title: /workspace/src/mcts/MCTSPlayer.hpp Pages: 1 -->
<svg width="522pt" height="195pt"
 viewBox="0.00 0.00 521.50 195.00" xmlns="http://www.w3.org/2000/svg" xmlns:xlink="http://www.w3.org/1999/xlink">
<g id="graph0" class="graph" transform="scale(1 1) rotate(0) translate(4 191)">
<title>/workspace/src/mcts/MCTSPlayer.hpp</title>
<!-- Node10 -->
<g id="node1" class="node">
<title>Node10</title>
<polygon fill="#bfbfbf" stroke="#000000" points="199.5,-156.5 199.5,-186.5 315.5,-186.5 315.5,-156.5 199.5,-156.5"/>
<text text-anchor="start" x="207.5" y="-174.5" font-family="Helvetica,sans-Serif" font-size="10.00" fill="#000000">/workspace/src/mcts</text>
<text text-anchor="middle" x="257.5" y="-163.5" font-family="Helvetica,sans-Serif" font-size="10.00" fill="#000000">/MCTSPlayer.hpp</text>
</g>
<!-- Node11 -->
<g id="node2" class="node">
<title>Node11</title>
<g id="a_node2"><a xlink:href="penguin_2_console_game_8cpp.html" target="_top" xlink:title="/workspace/src/game\l_logic/penguin/ConsoleGame.cpp">
<polygon fill="none" stroke="#000000" points="0,-84 0,-114 179,-114 179,-84 0,-84"/>
<text text-anchor="start" x="8" y="-102" font-family="Helvetica,sans-Serif" font-size="10.00" fill="#000000">/workspace/src/game</text>
<text text-anchor="middle" x="89.5" y="-91" font-family="Helvetica,sans-Serif" font-size="10.00" fill="#000000">_logic/penguin/ConsoleGame.cpp</text>
</a>
</g>
</g>
<!-- Node10&#45;&gt;Node11 -->
<g id="edge1" class="edge">
<title>Node10&#45;&gt;Node11</title>
<path fill="none" stroke="#191970" d="M213.197,-152.3811C185.39,-140.3811 150.0461,-125.1285 124.2651,-114.0028"/>
<polygon fill="#191970" stroke="#191970" points="212.1219,-155.7292 222.6903,-156.478 214.8956,-149.3021 212.1219,-155.7292"/>
</g>
<!-- Node12 -->
<g id="node3" class="node">
<title>Node12</title>
<g id="a_node3"><a xlink:href="tic__tac__toe_2_console_game_8cpp.html" target="_top" xlink:title="/workspace/src/game\l_logic/tic_tac_toe/Console\lGame.cpp">
<polygon fill="none" stroke="#000000" points="136,-.5 136,-41.5 279,-41.5 279,-.5 136,-.5"/>
<text text-anchor="start" x="144" y="-29.5" font-family="Helvetica,sans-Serif" font-size="10.00" fill="#000000">/workspace/src/game</text>
<text text-anchor="start" x="144" y="-18.5" font-family="Helvetica,sans-Serif" font-size="10.00" fill="#000000">_logic/tic_tac_toe/Console</text>
<text text-anchor="middle" x="207.5" y="-7.5" font-family="Helvetica,sans-Serif" font-size="10.00" fill="#000000">Game.cpp</text>
</a>
</g>
</g>
<!-- Node10&#45;&gt;Node12 -->
<g id="edge2" class="edge">
<title>Node10&#45;&gt;Node12</title>
<path fill="none" stroke="#191970" d="M241.5056,-147.7993C236.3891,-139.3277 231.1194,-129.5175 227.5,-120 217.5898,-93.9406 212.2747,-62.0619 209.6698,-41.6451"/>
<polygon fill="#191970" stroke="#191970" points="238.6231,-149.7903 246.9119,-156.3893 244.5474,-146.0617 238.6231,-149.7903"/>
</g>
<!-- Node13 -->
<g id="node4" class="node">
<title>Node13</title>
<g id="a_node4"><a xlink:href="tic__tac__toe_2_console_game_8hpp.html" target="_top" xlink:title="/workspace/src/game\l_logic/tic_tac_toe/Console\lGame.hpp">
<polygon fill="none" stroke="#000000" points="236,-78.5 236,-119.5 379,-119.5 379,-78.5 236,-78.5"/>
<text text-anchor="start" x="244" y="-107.5" font-family="Helvetica,sans-Serif" font-size="10.00" fill="#000000">/workspace/src/game</text>
<text text-anchor="start" x="244" y="-96.5" font-family="Helvetica,sans-Serif" font-size="10.00" fill="#000000">_logic/tic_tac_toe/Console</text>
<text text-anchor="middle" x="307.5" y="-85.5" font-family="Helvetica,sans-Serif" font-size="10.00" fill="#000000">Game.hpp</text>
</a>
</g>
</g>
<!-- Node10&#45;&gt;Node13 -->
<g id="edge3" class="edge">
<title>Node10&#45;&gt;Node13</title>
<path fill="none" stroke="#191970" d="M273.6201,-148.1258C279.9763,-138.9094 287.2126,-128.4167 293.361,-119.5015"/>
<polygon fill="#191970" stroke="#191970" points="270.6562,-146.2587 267.86,-156.478 276.4187,-150.2329 270.6562,-146.2587"/>
</g>
<!-- Node15 -->
<g id="node6" class="node">
<title>Node15</title>
<g id="a_node6"><a xlink:href="_m_c_t_s_player_8cpp.html" target="_top" xlink:title="/workspace/src/mcts\l/MCTSPlayer.cpp">
<polygon fill="none" stroke="#000000" points="397.5,-84 397.5,-114 513.5,-114 513.5,-84 397.5,-84"/>
<text text-anchor="start" x="405.5" y="-102" font-family="Helvetica,sans-Serif" font-size="10.00" fill="#000000">/workspace/src/mcts</text>
<text text-anchor="middle" x="455.5" y="-91" font-family="Helvetica,sans-Serif" font-size="10.00" fill="#000000">/MCTSPlayer.cpp</text>
</a>
</g>
</g>
<!-- Node10&#45;&gt;Node15 -->
<g id="edge6" class="edge">
<title>Node10&#45;&gt;Node15</title>
<path fill="none" stroke="#191970" d="M308.0052,-153.0069C341.0281,-140.9152 383.6114,-125.3228 414.5268,-114.0028"/>
<polygon fill="#191970" stroke="#191970" points="306.7126,-149.7529 298.5257,-156.478 309.1195,-156.3261 306.7126,-149.7529"/>
</g>
<!-- Node13&#45;&gt;Node12 -->
<g id="edge4" class="edge">
<title>Node13&#45;&gt;Node12</title>
<path fill="none" stroke="#191970" d="M272.8108,-71.9424C260.0178,-61.9639 245.7449,-50.831 233.8126,-41.5239"/>
<polygon fill="#191970" stroke="#191970" points="270.9267,-74.9116 280.9644,-78.3022 275.232,-69.3921 270.9267,-74.9116"/>
</g>
<!-- Node14 -->
<g id="node5" class="node">
<title>Node14</title>
<g id="a_node5"><a xlink:href="main_8cpp.html" target="_top" xlink:title="/workspace/src/main.cpp">
<polygon fill="none" stroke="#000000" points="297,-11.5 297,-30.5 434,-30.5 434,-11.5 297,-11.5"/>
<text text-anchor="middle" x="365.5" y="-18.5" font-family="Helvetica,sans-Serif" font-size="10.00" fill="#000000">/workspace/src/main.cpp</text>
</a>
</g>
</g>
<!-- Node13&#45;&gt;Node14 -->
<g id="edge5" class="edge">
<title>Node13&#45;&gt;Node14</title>
<path fill="none" stroke="#191970" d="M329.1924,-69.8275C339.4176,-56.0763 350.9394,-40.5815 358.2075,-30.8072"/>
<polygon fill="#191970" stroke="#191970" points="326.2014,-67.9843 323.0429,-78.0974 331.8186,-72.1613 326.2014,-67.9843"/>
</g>
</g>
</svg>
