<?xml version="1.0" encoding="UTF-8" standalone="no"?>
<!DOCTYPE svg PUBLIC "-//W3C//DTD SVG 1.1//EN"
 "http://www.w3.org/Graphics/SVG/1.1/DTD/svg11.dtd">
<!-- Generated by graphviz version 2.40.1 (20161225.0304)
 -->
<!-- Title: /workspace/src/game_logic/penguin/PenguinPawn.hpp Pages: 1 -->
<svg width="2419pt" height="106pt"
 viewBox="0.00 0.00 2418.50 106.00" xmlns="http://www.w3.org/2000/svg" xmlns:xlink="http://www.w3.org/1999/xlink">
<g id="graph0" class="graph" transform="scale(1 1) rotate(0) translate(4 102)">
<title>/workspace/src/game_logic/penguin/PenguinPawn.hpp</title>
<!-- Node2 -->
<g id="node1" class="node">
<title>Node2</title>
<polygon fill="#bfbfbf" stroke="#000000" points="1133.5,-67.5 1133.5,-97.5 1309.5,-97.5 1309.5,-67.5 1133.5,-67.5"/>
<text text-anchor="start" x="1141.5" y="-85.5" font-family="Helvetica,sans-Serif" font-size="10.00" fill="#000000">/workspace/src/game</text>
<text text-anchor="middle" x="1221.5" y="-74.5" font-family="Helvetica,sans-Serif" font-size="10.00" fill="#000000">_logic/penguin/PenguinPawn.hpp</text>
</g>
<!-- Node3 -->
<g id="node2" class="node">
<title>Node3</title>
<g id="a_node2"><a xlink:href="_abstract_board_8cpp.html" target="_top" xlink:title="/workspace/src/game\l_logic/AbstractBoard.cpp">
<polygon fill="none" stroke="#000000" points="0,-.5 0,-30.5 137,-30.5 137,-.5 0,-.5"/>
<text text-anchor="start" x="8" y="-18.5" font-family="Helvetica,sans-Serif" font-size="10.00" fill="#000000">/workspace/src/game</text>
<text text-anchor="middle" x="68.5" y="-7.5" font-family="Helvetica,sans-Serif" font-size="10.00" fill="#000000">_logic/AbstractBoard.cpp</text>
</a>
</g>
</g>
<!-- Node2&#45;&gt;Node3 -->
<g id="edge1" class="edge">
<title>Node2&#45;&gt;Node3</title>
<path fill="none" stroke="#191970" d="M1122.8372,-79.6477C894.2659,-72.7359 333.7159,-53.9575 146.5,-31 143.4852,-30.6303 140.4125,-30.2097 137.3141,-29.7496"/>
<polygon fill="#191970" stroke="#191970" points="1123.0375,-83.1553 1133.1384,-79.958 1123.2483,-76.1584 1123.0375,-83.1553"/>
</g>
<!-- Node4 -->
<g id="node3" class="node">
<title>Node4</title>
<g id="a_node3"><a xlink:href="_abstract_game_8cpp.html" target="_top" xlink:title="/workspace/src/game\l_logic/AbstractGame.cpp">
<polygon fill="none" stroke="#000000" points="155.5,-.5 155.5,-30.5 293.5,-30.5 293.5,-.5 155.5,-.5"/>
<text text-anchor="start" x="163.5" y="-18.5" font-family="Helvetica,sans-Serif" font-size="10.00" fill="#000000">/workspace/src/game</text>
<text text-anchor="middle" x="224.5" y="-7.5" font-family="Helvetica,sans-Serif" font-size="10.00" fill="#000000">_logic/AbstractGame.cpp</text>
</a>
</g>
</g>
<!-- Node2&#45;&gt;Node4 -->
<g id="edge2" class="edge">
<title>Node2&#45;&gt;Node4</title>
<path fill="none" stroke="#191970" d="M1123.2812,-81.5054C954.7282,-78.7929 599.8144,-68.6828 302.5,-31 299.6237,-30.6354 296.6943,-30.2264 293.7401,-29.7826"/>
<polygon fill="#191970" stroke="#191970" points="1123.3224,-85.0064 1133.3757,-81.6626 1123.4314,-78.0072 1123.3224,-85.0064"/>
</g>
<!-- Node5 -->
<g id="node4" class="node">
<title>Node5</title>
<g id="a_node4"><a xlink:href="_abstract_pawn_8cpp.html" target="_top" xlink:title="/workspace/src/game\l_logic/AbstractPawn.cpp">
<polygon fill="none" stroke="#000000" points="311.5,-.5 311.5,-30.5 445.5,-30.5 445.5,-.5 311.5,-.5"/>
<text text-anchor="start" x="319.5" y="-18.5" font-family="Helvetica,sans-Serif" font-size="10.00" fill="#000000">/workspace/src/game</text>
<text text-anchor="middle" x="378.5" y="-7.5" font-family="Helvetica,sans-Serif" font-size="10.00" fill="#000000">_logic/AbstractPawn.cpp</text>
</a>
</g>
</g>
<!-- Node2&#45;&gt;Node5 -->
<g id="edge3" class="edge">
<title>Node2&#45;&gt;Node5</title>
<path fill="none" stroke="#191970" d="M1123.1076,-80.1121C976.7487,-75.6077 693.2868,-63.2186 454.5,-31 451.5641,-30.6039 448.5715,-30.1613 445.5536,-29.6833"/>
<polygon fill="#191970" stroke="#191970" points="1123.3049,-83.6196 1133.406,-80.423 1123.5162,-76.6228 1123.3049,-83.6196"/>
</g>
<!-- Node6 -->
<g id="node5" class="node">
<title>Node6</title>
<g id="a_node5"><a xlink:href="_history_8cpp.html" target="_top" xlink:title="/workspace/src/game\l_logic/History.cpp">
<polygon fill="none" stroke="#000000" points="463.5,-.5 463.5,-30.5 583.5,-30.5 583.5,-.5 463.5,-.5"/>
<text text-anchor="start" x="471.5" y="-18.5" font-family="Helvetica,sans-Serif" font-size="10.00" fill="#000000">/workspace/src/game</text>
<text text-anchor="middle" x="523.5" y="-7.5" font-family="Helvetica,sans-Serif" font-size="10.00" fill="#000000">_logic/History.cpp</text>
</a>
</g>
</g>
<!-- Node2&#45;&gt;Node6 -->
<g id="edge4" class="edge">
<title>Node2&#45;&gt;Node6</title>
<path fill="none" stroke="#191970" d="M1123.0352,-78.6848C998.7994,-72.8983 778.8429,-59.4168 592.5,-31 589.587,-30.5558 586.6138,-30.0586 583.6172,-29.5224"/>
<polygon fill="#191970" stroke="#191970" points="1123.1332,-82.1929 1133.2831,-79.1547 1123.454,-75.2002 1123.1332,-82.1929"/>
</g>
<!-- Node7 -->
<g id="node6" class="node">
<title>Node7</title>
<g id="a_node6"><a xlink:href="penguin_2_board_8cpp.html" target="_top" xlink:title="/workspace/src/game\l_logic/penguin/Board.cpp">
<polygon fill="none" stroke="#000000" points="602,-.5 602,-30.5 741,-30.5 741,-.5 602,-.5"/>
<text text-anchor="start" x="610" y="-18.5" font-family="Helvetica,sans-Serif" font-size="10.00" fill="#000000">/workspace/src/game</text>
<text text-anchor="middle" x="671.5" y="-7.5" font-family="Helvetica,sans-Serif" font-size="10.00" fill="#000000">_logic/penguin/Board.cpp</text>
</a>
</g>
</g>
<!-- Node2&#45;&gt;Node7 -->
<g id="edge5" class="edge">
<title>Node2&#45;&gt;Node7</title>
<path fill="none" stroke="#191970" d="M1122.8741,-74.1702C1027.3586,-65.5248 878.5848,-50.5318 750.5,-31 747.4602,-30.5365 744.3595,-30.0381 741.2307,-29.5144"/>
<polygon fill="#191970" stroke="#191970" points="1122.826,-77.6799 1133.0994,-75.0898 1123.4531,-70.708 1122.826,-77.6799"/>
</g>
<!-- Node8 -->
<g id="node7" class="node">
<title>Node8</title>
<g id="a_node7"><a xlink:href="penguin_2_board_cell_8cpp.html" target="_top" xlink:title="/workspace/src/game\l_logic/penguin/BoardCell.cpp">
<polygon fill="none" stroke="#000000" points="759.5,-.5 759.5,-30.5 917.5,-30.5 917.5,-.5 759.5,-.5"/>
<text text-anchor="start" x="767.5" y="-18.5" font-family="Helvetica,sans-Serif" font-size="10.00" fill="#000000">/workspace/src/game</text>
<text text-anchor="middle" x="838.5" y="-7.5" font-family="Helvetica,sans-Serif" font-size="10.00" fill="#000000">_logic/penguin/BoardCell.cpp</text>
</a>
</g>
</g>
<!-- Node2&#45;&gt;Node8 -->
<g id="edge6" class="edge">
<title>Node2&#45;&gt;Node8</title>
<path fill="none" stroke="#191970" d="M1125.1381,-65.7154C1067.4989,-55.6662 992.8028,-42.6266 926.5,-31 923.5968,-30.4909 920.6399,-29.972 917.6531,-29.4476"/>
<polygon fill="#191970" stroke="#191970" points="1124.8778,-69.2227 1135.3303,-67.4922 1126.08,-62.3267 1124.8778,-69.2227"/>
</g>
<!-- Node9 -->
<g id="node8" class="node">
<title>Node9</title>
<g id="a_node8"><a xlink:href="penguin_2_console_game_8cpp.html" target="_top" xlink:title="/workspace/src/game\l_logic/penguin/ConsoleGame.cpp">
<polygon fill="none" stroke="#000000" points="936,-.5 936,-30.5 1115,-30.5 1115,-.5 936,-.5"/>
<text text-anchor="start" x="944" y="-18.5" font-family="Helvetica,sans-Serif" font-size="10.00" fill="#000000">/workspace/src/game</text>
<text text-anchor="middle" x="1025.5" y="-7.5" font-family="Helvetica,sans-Serif" font-size="10.00" fill="#000000">_logic/penguin/ConsoleGame.cpp</text>
</a>
</g>
</g>
<!-- Node2&#45;&gt;Node9 -->
<g id="edge7" class="edge">
<title>Node2&#45;&gt;Node9</title>
<path fill="none" stroke="#191970" d="M1167.7879,-64.1392C1136.9665,-53.6033 1098.744,-40.5375 1069.6781,-30.6017"/>
<polygon fill="#191970" stroke="#191970" points="1166.9192,-67.5411 1177.5138,-67.4639 1169.1835,-60.9174 1166.9192,-67.5411"/>
</g>
<!-- Node10 -->
<g id="node9" class="node">
<title>Node10</title>
<g id="a_node9"><a xlink:href="_human_player_8cpp.html" target="_top" xlink:title="/workspace/src/game\l_logic/penguin/HumanPlayer.cpp">
<polygon fill="none" stroke="#000000" points="1133.5,-.5 1133.5,-30.5 1309.5,-30.5 1309.5,-.5 1133.5,-.5"/>
<text text-anchor="start" x="1141.5" y="-18.5" font-family="Helvetica,sans-Serif" font-size="10.00" fill="#000000">/workspace/src/game</text>
<text text-anchor="middle" x="1221.5" y="-7.5" font-family="Helvetica,sans-Serif" font-size="10.00" fill="#000000">_logic/penguin/HumanPlayer.cpp</text>
</a>
</g>
</g>
<!-- Node2&#45;&gt;Node10 -->
<g id="edge8" class="edge">
<title>Node2&#45;&gt;Node10</title>
<path fill="none" stroke="#191970" d="M1221.5,-57.0249C1221.5,-48.128 1221.5,-38.4287 1221.5,-30.6432"/>
<polygon fill="#191970" stroke="#191970" points="1218.0001,-57.2966 1221.5,-67.2967 1225.0001,-57.2967 1218.0001,-57.2966"/>
</g>
<!-- Node11 -->
<g id="node10" class="node">
<title>Node11</title>
<g id="a_node10"><a xlink:href="_penguin_game_8cpp.html" target="_top" xlink:title="/workspace/src/game\l_logic/penguin/PenguinGame.cpp">
<polygon fill="none" stroke="#000000" points="1328,-.5 1328,-30.5 1507,-30.5 1507,-.5 1328,-.5"/>
<text text-anchor="start" x="1336" y="-18.5" font-family="Helvetica,sans-Serif" font-size="10.00" fill="#000000">/workspace/src/game</text>
<text text-anchor="middle" x="1417.5" y="-7.5" font-family="Helvetica,sans-Serif" font-size="10.00" fill="#000000">_logic/penguin/PenguinGame.cpp</text>
</a>
</g>
</g>
<!-- Node2&#45;&gt;Node11 -->
<g id="edge9" class="edge">
<title>Node2&#45;&gt;Node11</title>
<path fill="none" stroke="#191970" d="M1275.2121,-64.1392C1306.0335,-53.6033 1344.256,-40.5375 1373.3219,-30.6017"/>
<polygon fill="#191970" stroke="#191970" points="1273.8165,-60.9174 1265.4862,-67.4639 1276.0808,-67.5411 1273.8165,-60.9174"/>
</g>
<!-- Node12 -->
<g id="node11" class="node">
<title>Node12</title>
<g id="a_node11"><a xlink:href="_penguin_pawn_8cpp.html" target="_top" xlink:title="/workspace/src/game\l_logic/penguin/PenguinPawn.cpp">
<polygon fill="none" stroke="#000000" points="1525,-.5 1525,-30.5 1700,-30.5 1700,-.5 1525,-.5"/>
<text text-anchor="start" x="1533" y="-18.5" font-family="Helvetica,sans-Serif" font-size="10.00" fill="#000000">/workspace/src/game</text>
<text text-anchor="middle" x="1612.5" y="-7.5" font-family="Helvetica,sans-Serif" font-size="10.00" fill="#000000">_logic/penguin/PenguinPawn.cpp</text>
</a>
</g>
</g>
<!-- Node2&#45;&gt;Node12 -->
<g id="edge10" class="edge">
<title>Node2&#45;&gt;Node12</title>
<path fill="none" stroke="#191970" d="M1319.2099,-65.7569C1382.296,-54.9467 1463.6796,-41.0012 1524.7073,-30.5438"/>
<polygon fill="#191970" stroke="#191970" points="1318.5132,-62.3252 1309.248,-67.4639 1319.6955,-69.2246 1318.5132,-62.3252"/>
</g>
<!-- Node13 -->
<g id="node12" class="node">
<title>Node13</title>
<g id="a_node12"><a xlink:href="_print_hex_8cpp.html" target="_top" xlink:title="/workspace/src/game\l_logic/penguin/PrintHex.cpp">
<polygon fill="none" stroke="#000000" points="1718.5,-.5 1718.5,-30.5 1870.5,-30.5 1870.5,-.5 1718.5,-.5"/>
<text text-anchor="start" x="1726.5" y="-18.5" font-family="Helvetica,sans-Serif" font-size="10.00" fill="#000000">/workspace/src/game</text>
<text text-anchor="middle" x="1794.5" y="-7.5" font-family="Helvetica,sans-Serif" font-size="10.00" fill="#000000">_logic/penguin/PrintHex.cpp</text>
</a>
</g>
</g>
<!-- Node2&#45;&gt;Node13 -->
<g id="edge11" class="edge">
<title>Node2&#45;&gt;Node13</title>
<path fill="none" stroke="#191970" d="M1319.8732,-74.308C1418.622,-65.5706 1574.9818,-50.335 1709.5,-31 1712.3211,-30.5945 1715.1916,-30.1638 1718.0887,-29.7139"/>
<polygon fill="#191970" stroke="#191970" points="1319.5608,-70.8219 1309.9062,-75.1852 1320.1746,-77.795 1319.5608,-70.8219"/>
</g>
<!-- Node14 -->
<g id="node13" class="node">
<title>Node14</title>
<g id="a_node13"><a xlink:href="_move_8cpp.html" target="_top" xlink:title="/workspace/src/game\l_logic/utils/Move.cpp">
<polygon fill="none" stroke="#000000" points="1888.5,-.5 1888.5,-30.5 2008.5,-30.5 2008.5,-.5 1888.5,-.5"/>
<text text-anchor="start" x="1896.5" y="-18.5" font-family="Helvetica,sans-Serif" font-size="10.00" fill="#000000">/workspace/src/game</text>
<text text-anchor="middle" x="1948.5" y="-7.5" font-family="Helvetica,sans-Serif" font-size="10.00" fill="#000000">_logic/utils/Move.cpp</text>
</a>
</g>
</g>
<!-- Node2&#45;&gt;Node14 -->
<g id="edge12" class="edge">
<title>Node2&#45;&gt;Node14</title>
<path fill="none" stroke="#191970" d="M1320.0174,-79.1796C1449.1201,-73.8263 1682.3046,-60.7102 1879.5,-31 1882.4138,-30.561 1885.3876,-30.0681 1888.3847,-29.5352"/>
<polygon fill="#191970" stroke="#191970" points="1319.6096,-75.6932 1309.7604,-79.5976 1319.8947,-82.6874 1319.6096,-75.6932"/>
</g>
<!-- Node15 -->
<g id="node14" class="node">
<title>Node15</title>
<g id="a_node14"><a xlink:href="_m_c_t_s_8cpp.html" target="_top" xlink:title="/workspace/src/mcts\l/MCTS.cpp">
<polygon fill="none" stroke="#000000" points="2026.5,-.5 2026.5,-30.5 2142.5,-30.5 2142.5,-.5 2026.5,-.5"/>
<text text-anchor="start" x="2034.5" y="-18.5" font-family="Helvetica,sans-Serif" font-size="10.00" fill="#000000">/workspace/src/mcts</text>
<text text-anchor="middle" x="2084.5" y="-7.5" font-family="Helvetica,sans-Serif" font-size="10.00" fill="#000000">/MCTS.cpp</text>
</a>
</g>
</g>
<!-- Node2&#45;&gt;Node15 -->
<g id="edge13" class="edge">
<title>Node2&#45;&gt;Node15</title>
<path fill="none" stroke="#191970" d="M1319.8291,-78.1429C1502.0497,-69.7354 1885.637,-50.3868 2017.5,-31 2020.3349,-30.5832 2023.2272,-30.1083 2026.1411,-29.5899"/>
<polygon fill="#191970" stroke="#191970" points="1319.5419,-74.6523 1309.7132,-78.6079 1319.8634,-81.6449 1319.5419,-74.6523"/>
</g>
<!-- Node16 -->
<g id="node15" class="node">
<title>Node16</title>
<g id="a_node15"><a xlink:href="_m_c_t_s_player_8cpp.html" target="_top" xlink:title="/workspace/src/mcts\l/MCTSPlayer.cpp">
<polygon fill="none" stroke="#000000" points="2160.5,-.5 2160.5,-30.5 2276.5,-30.5 2276.5,-.5 2160.5,-.5"/>
<text text-anchor="start" x="2168.5" y="-18.5" font-family="Helvetica,sans-Serif" font-size="10.00" fill="#000000">/workspace/src/mcts</text>
<text text-anchor="middle" x="2218.5" y="-7.5" font-family="Helvetica,sans-Serif" font-size="10.00" fill="#000000">/MCTSPlayer.cpp</text>
</a>
</g>
</g>
<!-- Node2&#45;&gt;Node16 -->
<g id="edge14" class="edge">
<title>Node2&#45;&gt;Node16</title>
<path fill="none" stroke="#191970" d="M1319.7219,-79.2029C1524.9494,-71.9628 1993.2772,-53.512 2151.5,-31 2154.3368,-30.5964 2157.2306,-30.1322 2160.1458,-29.6224"/>
<polygon fill="#191970" stroke="#191970" points="1319.4267,-75.711 1309.5557,-79.56 1319.6724,-82.7067 1319.4267,-75.711"/>
</g>
<!-- Node17 -->
<g id="node16" class="node">
<title>Node17</title>
<g id="a_node16"><a xlink:href="_tree_8cpp.html" target="_top" xlink:title="/workspace/src/mcts\l/Tree.cpp">
<polygon fill="none" stroke="#000000" points="2294.5,-.5 2294.5,-30.5 2410.5,-30.5 2410.5,-.5 2294.5,-.5"/>
<text text-anchor="start" x="2302.5" y="-18.5" font-family="Helvetica,sans-Serif" font-size="10.00" fill="#000000">/workspace/src/mcts</text>
<text text-anchor="middle" x="2352.5" y="-7.5" font-family="Helvetica,sans-Serif" font-size="10.00" fill="#000000">/Tree.cpp</text>
</a>
</g>
</g>
<!-- Node2&#45;&gt;Node17 -->
<g id="edge15" class="edge">
<title>Node2&#45;&gt;Node17</title>
<path fill="none" stroke="#191970" d="M1320.0335,-79.9867C1546.8989,-73.834 2100.804,-56.6236 2285.5,-31 2288.3382,-30.6062 2291.2331,-30.1501 2294.1492,-29.6467"/>
<polygon fill="#191970" stroke="#191970" points="1319.7094,-76.4941 1309.8074,-80.2625 1319.8982,-83.4915 1319.7094,-76.4941"/>
</g>
</g>
</svg>
