<?xml version="1.0" encoding="UTF-8" standalone="no"?>
<!DOCTYPE svg PUBLIC "-//W3C//DTD SVG 1.1//EN"
 "http://www.w3.org/Graphics/SVG/1.1/DTD/svg11.dtd">
<!-- Generated by graphviz version 2.40.1 (20161225.0304)
 -->
<!-- Title: /workspace/src/game_logic/tic_tac_toe/Player.cpp Pages: 1 -->
<svg width="615pt" height="207pt"
 viewBox="0.00 0.00 615.00 207.00" xmlns="http://www.w3.org/2000/svg" xmlns:xlink="http://www.w3.org/1999/xlink">
<g id="graph0" class="graph" transform="scale(1 1) rotate(0) translate(4 203)">
<title>/workspace/src/game_logic/tic_tac_toe/Player.cpp</title>
<!-- Node0 -->
<g id="node1" class="node">
<title>Node0</title>
<polygon fill="#bfbfbf" stroke="#000000" points="259.5,-168.5 259.5,-198.5 414.5,-198.5 414.5,-168.5 259.5,-168.5"/>
<text text-anchor="start" x="267.5" y="-186.5" font-family="Helvetica,sans-Serif" font-size="10.00" fill="#000000">/workspace/src/game</text>
<text text-anchor="middle" x="337" y="-175.5" font-family="Helvetica,sans-Serif" font-size="10.00" fill="#000000">_logic/tic_tac_toe/Player.cpp</text>
</g>
<!-- Node1 -->
<g id="node2" class="node">
<title>Node1</title>
<g id="a_node2"><a xlink:href="_abstract_pawn_8hpp.html" target="_top" xlink:title="../AbstractPawn.hpp">
<polygon fill="none" stroke="#000000" points="280.5,-56.5 280.5,-75.5 393.5,-75.5 393.5,-56.5 280.5,-56.5"/>
<text text-anchor="middle" x="337" y="-63.5" font-family="Helvetica,sans-Serif" font-size="10.00" fill="#000000">../AbstractPawn.hpp</text>
</a>
</g>
</g>
<!-- Node0&#45;&gt;Node1 -->
<g id="edge1" class="edge">
<title>Node0&#45;&gt;Node1</title>
<path fill="none" stroke="#191970" d="M337,-168.1389C337,-146.9692 337,-108.8174 337,-85.6112"/>
<polygon fill="#191970" stroke="#191970" points="340.5001,-85.5594 337,-75.5595 333.5001,-85.5595 340.5001,-85.5594"/>
</g>
<!-- Node2 -->
<g id="node3" class="node">
<title>Node2</title>
<g id="a_node3"><a xlink:href="tic__tac__toe_2_board_cell_8hpp.html" target="_top" xlink:title="BoardCell.hpp">
<polygon fill="none" stroke="#000000" points="164.5,-112.5 164.5,-131.5 249.5,-131.5 249.5,-112.5 164.5,-112.5"/>
<text text-anchor="middle" x="207" y="-119.5" font-family="Helvetica,sans-Serif" font-size="10.00" fill="#000000">BoardCell.hpp</text>
</a>
</g>
</g>
<!-- Node0&#45;&gt;Node2 -->
<g id="edge2" class="edge">
<title>Node0&#45;&gt;Node2</title>
<path fill="none" stroke="#191970" d="M305.1984,-168.4554C284.1735,-158.509 256.8141,-145.5659 236.3157,-135.8686"/>
<polygon fill="#191970" stroke="#191970" points="237.6816,-132.6429 227.1454,-131.5303 234.6881,-138.9706 237.6816,-132.6429"/>
</g>
<!-- Node7 -->
<g id="node8" class="node">
<title>Node7</title>
<g id="a_node8"><a xlink:href="_player_8hpp.html" target="_top" xlink:title="Player.hpp">
<polygon fill="none" stroke="#000000" points="400,-112.5 400,-131.5 468,-131.5 468,-112.5 400,-112.5"/>
<text text-anchor="middle" x="434" y="-119.5" font-family="Helvetica,sans-Serif" font-size="10.00" fill="#000000">Player.hpp</text>
</a>
</g>
</g>
<!-- Node0&#45;&gt;Node7 -->
<g id="edge7" class="edge">
<title>Node0&#45;&gt;Node7</title>
<path fill="none" stroke="#191970" d="M360.9775,-168.2977C375.9376,-158.8127 395.122,-146.6495 410.0726,-137.1705"/>
<polygon fill="#191970" stroke="#191970" points="412.1873,-139.9739 418.7587,-131.6633 408.439,-134.062 412.1873,-139.9739"/>
</g>
<!-- Node3 -->
<g id="node4" class="node">
<title>Node3</title>
<g id="a_node4"><a xlink:href="_position_8hpp.html" target="_top" xlink:title="../utils/Position.hpp">
<polygon fill="none" stroke="#000000" points="152,-56.5 152,-75.5 262,-75.5 262,-56.5 152,-56.5"/>
<text text-anchor="middle" x="207" y="-63.5" font-family="Helvetica,sans-Serif" font-size="10.00" fill="#000000">../utils/Position.hpp</text>
</a>
</g>
</g>
<!-- Node2&#45;&gt;Node3 -->
<g id="edge3" class="edge">
<title>Node2&#45;&gt;Node3</title>
<path fill="none" stroke="#191970" d="M207,-112.2455C207,-104.9382 207,-94.6944 207,-85.7046"/>
<polygon fill="#191970" stroke="#191970" points="210.5001,-85.6426 207,-75.6427 203.5001,-85.6427 210.5001,-85.6426"/>
</g>
<!-- Node6 -->
<g id="node7" class="node">
<title>Node6</title>
<g id="a_node7"><a xlink:href="_abstract_board_cell_8hpp.html" target="_top" xlink:title="../AbstractBoardCell.hpp">
<polygon fill="none" stroke="#000000" points="0,-56.5 0,-75.5 134,-75.5 134,-56.5 0,-56.5"/>
<text text-anchor="middle" x="67" y="-63.5" font-family="Helvetica,sans-Serif" font-size="10.00" fill="#000000">../AbstractBoardCell.hpp</text>
</a>
</g>
</g>
<!-- Node2&#45;&gt;Node6 -->
<g id="edge6" class="edge">
<title>Node2&#45;&gt;Node6</title>
<path fill="none" stroke="#191970" d="M182.9331,-112.3733C160.1572,-103.2629 125.7656,-89.5062 100.351,-79.3404"/>
<polygon fill="#191970" stroke="#191970" points="101.3375,-75.9654 90.7528,-75.5011 98.7377,-82.4648 101.3375,-75.9654"/>
</g>
<!-- Node4 -->
<g id="node5" class="node">
<title>Node4</title>
<polygon fill="none" stroke="#bfbfbf" points="134.5,-.5 134.5,-19.5 187.5,-19.5 187.5,-.5 134.5,-.5"/>
<text text-anchor="middle" x="161" y="-7.5" font-family="Helvetica,sans-Serif" font-size="10.00" fill="#000000">stdlib.h</text>
</g>
<!-- Node3&#45;&gt;Node4 -->
<g id="edge4" class="edge">
<title>Node3&#45;&gt;Node4</title>
<path fill="none" stroke="#191970" d="M198.9874,-56.2455C192.5232,-48.3761 183.2615,-37.101 175.5017,-27.6542"/>
<polygon fill="#191970" stroke="#191970" points="177.9727,-25.1484 168.9208,-19.6427 172.5636,-29.5916 177.9727,-25.1484"/>
</g>
<!-- Node5 -->
<g id="node6" class="node">
<title>Node5</title>
<polygon fill="none" stroke="#bfbfbf" points="205.5,-.5 205.5,-19.5 298.5,-19.5 298.5,-.5 205.5,-.5"/>
<text text-anchor="middle" x="252" y="-7.5" font-family="Helvetica,sans-Serif" font-size="10.00" fill="#000000">unordered_map</text>
</g>
<!-- Node3&#45;&gt;Node5 -->
<g id="edge5" class="edge">
<title>Node3&#45;&gt;Node5</title>
<path fill="none" stroke="#191970" d="M214.8384,-56.2455C221.162,-48.3761 230.2224,-37.101 237.8136,-27.6542"/>
<polygon fill="#191970" stroke="#191970" points="240.7158,-29.6302 244.2514,-19.6427 235.2592,-25.2454 240.7158,-29.6302"/>
</g>
<!-- Node7&#45;&gt;Node1 -->
<g id="edge10" class="edge">
<title>Node7&#45;&gt;Node1</title>
<path fill="none" stroke="#191970" d="M417.1039,-112.2455C402.082,-103.5731 379.8957,-90.7645 362.679,-80.825"/>
<polygon fill="#191970" stroke="#191970" points="364.1128,-77.6114 353.7025,-75.6427 360.6129,-83.6737 364.1128,-77.6114"/>
</g>
<!-- Node8 -->
<g id="node9" class="node">
<title>Node8</title>
<polygon fill="none" stroke="#bfbfbf" points="547,-56.5 547,-75.5 607,-75.5 607,-56.5 547,-56.5"/>
<text text-anchor="middle" x="577" y="-63.5" font-family="Helvetica,sans-Serif" font-size="10.00" fill="#000000">iostream</text>
</g>
<!-- Node7&#45;&gt;Node8 -->
<g id="edge8" class="edge">
<title>Node7&#45;&gt;Node8</title>
<path fill="none" stroke="#191970" d="M458.5826,-112.3733C481.9496,-103.2226 517.2862,-89.3844 543.2784,-79.2057"/>
<polygon fill="#191970" stroke="#191970" points="544.703,-82.4066 552.7382,-75.5011 542.1505,-75.8886 544.703,-82.4066"/>
</g>
<!-- Node9 -->
<g id="node10" class="node">
<title>Node9</title>
<g id="a_node10"><a xlink:href="_abstract_player_8hpp.html" target="_top" xlink:title="../AbstractPlayer.hpp">
<polygon fill="none" stroke="#000000" points="411.5,-56.5 411.5,-75.5 528.5,-75.5 528.5,-56.5 411.5,-56.5"/>
<text text-anchor="middle" x="470" y="-63.5" font-family="Helvetica,sans-Serif" font-size="10.00" fill="#000000">../AbstractPlayer.hpp</text>
</a>
</g>
</g>
<!-- Node7&#45;&gt;Node9 -->
<g id="edge9" class="edge">
<title>Node7&#45;&gt;Node9</title>
<path fill="none" stroke="#191970" d="M440.2707,-112.2455C445.2264,-104.5367 452.283,-93.5598 458.2776,-84.2348"/>
<polygon fill="#191970" stroke="#191970" points="461.3376,-85.9471 463.8011,-75.6427 455.4494,-82.1618 461.3376,-85.9471"/>
</g>
</g>
</svg>
