<?xml version="1.0" encoding="UTF-8" standalone="no"?>
<!DOCTYPE svg PUBLIC "-//W3C//DTD SVG 1.1//EN"
 "http://www.w3.org/Graphics/SVG/1.1/DTD/svg11.dtd">
<!-- Generated by graphviz version 2.40.1 (20161225.0304)
 -->
<!-- Title: /workspace/src/game_logic/penguin/PrintHex.hpp Pages: 1 -->
<svg width="554pt" height="173pt"
 viewBox="0.00 0.00 553.50 173.00" xmlns="http://www.w3.org/2000/svg" xmlns:xlink="http://www.w3.org/1999/xlink">
<g id="graph0" class="graph" transform="scale(1 1) rotate(0) translate(4 169)">
<title>/workspace/src/game_logic/penguin/PrintHex.hpp</title>
<!-- Node4 -->
<g id="node1" class="node">
<title>Node4</title>
<polygon fill="#bfbfbf" stroke="#000000" points="150,-134.5 150,-164.5 303,-164.5 303,-134.5 150,-134.5"/>
<text text-anchor="start" x="158" y="-152.5" font-family="Helvetica,sans-Serif" font-size="10.00" fill="#000000">/workspace/src/game</text>
<text text-anchor="middle" x="226.5" y="-141.5" font-family="Helvetica,sans-Serif" font-size="10.00" fill="#000000">_logic/penguin/PrintHex.hpp</text>
</g>
<!-- Node5 -->
<g id="node2" class="node">
<title>Node5</title>
<g id="a_node2"><a xlink:href="penguin_2_board_8cpp.html" target="_top" xlink:title="/workspace/src/game\l_logic/penguin/Board.cpp">
<polygon fill="none" stroke="#000000" points="0,-67.5 0,-97.5 139,-97.5 139,-67.5 0,-67.5"/>
<text text-anchor="start" x="8" y="-85.5" font-family="Helvetica,sans-Serif" font-size="10.00" fill="#000000">/workspace/src/game</text>
<text text-anchor="middle" x="69.5" y="-74.5" font-family="Helvetica,sans-Serif" font-size="10.00" fill="#000000">_logic/penguin/Board.cpp</text>
</a>
</g>
</g>
<!-- Node4&#45;&gt;Node5 -->
<g id="edge1" class="edge">
<title>Node4&#45;&gt;Node5</title>
<path fill="none" stroke="#191970" d="M181.8641,-130.4516C157.465,-120.0392 127.666,-107.3224 104.8875,-97.6017"/>
<polygon fill="#191970" stroke="#191970" points="180.6948,-133.7579 191.2661,-134.4639 183.4424,-127.3197 180.6948,-133.7579"/>
</g>
<!-- Node6 -->
<g id="node3" class="node">
<title>Node6</title>
<g id="a_node3"><a xlink:href="penguin_2_console_game_8cpp.html" target="_top" xlink:title="/workspace/src/game\l_logic/penguin/ConsoleGame.cpp">
<polygon fill="none" stroke="#000000" points="78,-.5 78,-30.5 257,-30.5 257,-.5 78,-.5"/>
<text text-anchor="start" x="86" y="-18.5" font-family="Helvetica,sans-Serif" font-size="10.00" fill="#000000">/workspace/src/game</text>
<text text-anchor="middle" x="167.5" y="-7.5" font-family="Helvetica,sans-Serif" font-size="10.00" fill="#000000">_logic/penguin/ConsoleGame.cpp</text>
</a>
</g>
</g>
<!-- Node4&#45;&gt;Node6 -->
<g id="edge2" class="edge">
<title>Node4&#45;&gt;Node6</title>
<path fill="none" stroke="#191970" d="M205.8566,-126.4677C199.1701,-118.0061 192.2593,-108.0315 187.5,-98 177.0134,-75.8968 171.7172,-47.7698 169.2894,-30.7249"/>
<polygon fill="#191970" stroke="#191970" points="203.3152,-128.887 212.3803,-134.371 208.7136,-124.4308 203.3152,-128.887"/>
</g>
<!-- Node7 -->
<g id="node4" class="node">
<title>Node7</title>
<g id="a_node4"><a xlink:href="penguin_2_console_game_8hpp.html" target="_top" xlink:title="/workspace/src/game\l_logic/penguin/ConsoleGame.hpp">
<polygon fill="none" stroke="#000000" points="196,-67.5 196,-97.5 375,-97.5 375,-67.5 196,-67.5"/>
<text text-anchor="start" x="204" y="-85.5" font-family="Helvetica,sans-Serif" font-size="10.00" fill="#000000">/workspace/src/game</text>
<text text-anchor="middle" x="285.5" y="-74.5" font-family="Helvetica,sans-Serif" font-size="10.00" fill="#000000">_logic/penguin/ConsoleGame.hpp</text>
</a>
</g>
</g>
<!-- Node4&#45;&gt;Node7 -->
<g id="edge3" class="edge">
<title>Node4&#45;&gt;Node7</title>
<path fill="none" stroke="#191970" d="M246.6318,-126.6385C255.0619,-117.0653 264.631,-106.1987 272.165,-97.6432"/>
<polygon fill="#191970" stroke="#191970" points="243.8701,-124.4786 239.888,-134.2967 249.1236,-129.1048 243.8701,-124.4786"/>
</g>
<!-- Node9 -->
<g id="node6" class="node">
<title>Node9</title>
<g id="a_node6"><a xlink:href="_print_hex_8cpp.html" target="_top" xlink:title="/workspace/src/game\l_logic/penguin/PrintHex.cpp">
<polygon fill="none" stroke="#000000" points="393.5,-67.5 393.5,-97.5 545.5,-97.5 545.5,-67.5 393.5,-67.5"/>
<text text-anchor="start" x="401.5" y="-85.5" font-family="Helvetica,sans-Serif" font-size="10.00" fill="#000000">/workspace/src/game</text>
<text text-anchor="middle" x="469.5" y="-74.5" font-family="Helvetica,sans-Serif" font-size="10.00" fill="#000000">_logic/penguin/PrintHex.cpp</text>
</a>
</g>
</g>
<!-- Node4&#45;&gt;Node9 -->
<g id="edge6" class="edge">
<title>Node4&#45;&gt;Node9</title>
<path fill="none" stroke="#191970" d="M291.1154,-131.6842C329.6598,-121.0568 378.0684,-107.7095 414.7282,-97.6017"/>
<polygon fill="#191970" stroke="#191970" points="289.7439,-128.4317 281.0339,-134.4639 291.6046,-135.1799 289.7439,-128.4317"/>
</g>
<!-- Node7&#45;&gt;Node6 -->
<g id="edge4" class="edge">
<title>Node7&#45;&gt;Node6</title>
<path fill="none" stroke="#191970" d="M250.0227,-62.3561C232.135,-52.1995 210.7977,-40.0843 194.3014,-30.7177"/>
<polygon fill="#191970" stroke="#191970" points="248.5943,-65.5699 259.0185,-67.4639 252.0506,-59.4827 248.5943,-65.5699"/>
</g>
<!-- Node8 -->
<g id="node5" class="node">
<title>Node8</title>
<g id="a_node5"><a xlink:href="main_8cpp.html" target="_top" xlink:title="/workspace/src/main.cpp">
<polygon fill="none" stroke="#000000" points="275,-6 275,-25 412,-25 412,-6 275,-6"/>
<text text-anchor="middle" x="343.5" y="-13" font-family="Helvetica,sans-Serif" font-size="10.00" fill="#000000">/workspace/src/main.cpp</text>
</a>
</g>
</g>
<!-- Node7&#45;&gt;Node8 -->
<g id="edge5" class="edge">
<title>Node7&#45;&gt;Node8</title>
<path fill="none" stroke="#191970" d="M305.3887,-59.5252C315.5963,-47.7336 327.4803,-34.0055 335.2285,-25.055"/>
<polygon fill="#191970" stroke="#191970" points="302.5599,-57.4453 298.6611,-67.2967 307.8524,-62.0268 302.5599,-57.4453"/>
</g>
</g>
</svg>
