<?xml version="1.0" encoding="UTF-8" standalone="no"?>
<!DOCTYPE svg PUBLIC "-//W3C//DTD SVG 1.1//EN"
 "http://www.w3.org/Graphics/SVG/1.1/DTD/svg11.dtd">
<!-- Generated by graphviz version 2.40.1 (20161225.0304)
 -->
<!-- Title: /workspace/src/game_logic/tic_tac_toe/TicTacToe.hpp Pages: 1 -->
<svg width="201pt" height="151pt"
 viewBox="0.00 0.00 200.50 151.00" xmlns="http://www.w3.org/2000/svg" xmlns:xlink="http://www.w3.org/1999/xlink">
<g id="graph0" class="graph" transform="scale(1 1) rotate(0) translate(4 147)">
<title>/workspace/src/game_logic/tic_tac_toe/TicTacToe.hpp</title>
<!-- Node0 -->
<g id="node1" class="node">
<title>Node0</title>
<polygon fill="#bfbfbf" stroke="#000000" points="5.5,-112.5 5.5,-142.5 177.5,-142.5 177.5,-112.5 5.5,-112.5"/>
<text text-anchor="start" x="13.5" y="-130.5" font-family="Helvetica,sans-Serif" font-size="10.00" fill="#000000">/workspace/src/game</text>
<text text-anchor="middle" x="91.5" y="-119.5" font-family="Helvetica,sans-Serif" font-size="10.00" fill="#000000">_logic/tic_tac_toe/TicTacToe.hpp</text>
</g>
<!-- Node1 -->
<g id="node2" class="node">
<title>Node1</title>
<g id="a_node2"><a xlink:href="_move_8hpp.html" target="_top" xlink:title="../utils/Move.hpp">
<polygon fill="none" stroke="#000000" points="0,-.5 0,-19.5 97,-19.5 97,-.5 0,-.5"/>
<text text-anchor="middle" x="48.5" y="-7.5" font-family="Helvetica,sans-Serif" font-size="10.00" fill="#000000">../utils/Move.hpp</text>
</a>
</g>
</g>
<!-- Node0&#45;&gt;Node1 -->
<g id="edge1" class="edge">
<title>Node0&#45;&gt;Node1</title>
<path fill="none" stroke="#191970" d="M83.7238,-112.4427C78.6827,-102.3133 72.2032,-88.5638 67.5,-76 61.7521,-60.6455 56.6975,-42.745 53.2496,-29.463"/>
<polygon fill="#191970" stroke="#191970" points="56.589,-28.3912 50.7513,-19.5497 49.8012,-30.1018 56.589,-28.3912"/>
</g>
<!-- Node2 -->
<g id="node3" class="node">
<title>Node2</title>
<g id="a_node3"><a xlink:href="_abstract_game_8hpp.html" target="_top" xlink:title="../AbstractGame.hpp">
<polygon fill="none" stroke="#000000" points="76.5,-56.5 76.5,-75.5 192.5,-75.5 192.5,-56.5 76.5,-56.5"/>
<text text-anchor="middle" x="134.5" y="-63.5" font-family="Helvetica,sans-Serif" font-size="10.00" fill="#000000">../AbstractGame.hpp</text>
</a>
</g>
</g>
<!-- Node0&#45;&gt;Node2 -->
<g id="edge2" class="edge">
<title>Node0&#45;&gt;Node2</title>
<path fill="none" stroke="#191970" d="M102.1292,-112.2977C108.0981,-103.7609 115.5838,-93.0545 121.8529,-84.0883"/>
<polygon fill="#191970" stroke="#191970" points="124.7534,-86.048 127.6152,-75.8469 119.0165,-82.0368 124.7534,-86.048"/>
</g>
<!-- Node2&#45;&gt;Node1 -->
<g id="edge4" class="edge">
<title>Node2&#45;&gt;Node1</title>
<path fill="none" stroke="#191970" d="M119.5199,-56.2455C106.3249,-47.6534 86.8949,-35.0014 71.6921,-25.1018"/>
<polygon fill="#191970" stroke="#191970" points="73.5983,-22.1665 63.3084,-19.6427 69.7785,-28.0325 73.5983,-22.1665"/>
</g>
<!-- Node3 -->
<g id="node4" class="node">
<title>Node3</title>
<polygon fill="none" stroke="#bfbfbf" points="115,-.5 115,-19.5 162,-19.5 162,-.5 115,-.5"/>
<text text-anchor="middle" x="138.5" y="-7.5" font-family="Helvetica,sans-Serif" font-size="10.00" fill="#000000">vector</text>
</g>
<!-- Node2&#45;&gt;Node3 -->
<g id="edge3" class="edge">
<title>Node2&#45;&gt;Node3</title>
<path fill="none" stroke="#191970" d="M135.1967,-56.2455C135.7187,-48.9382 136.4504,-38.6944 137.0925,-29.7046"/>
<polygon fill="#191970" stroke="#191970" points="140.5898,-29.8667 137.8112,-19.6427 133.6076,-29.3679 140.5898,-29.8667"/>
</g>
</g>
</svg>
