<?xml version="1.0" encoding="UTF-8" standalone="no"?>
<!DOCTYPE svg PUBLIC "-//W3C//DTD SVG 1.1//EN"
 "http://www.w3.org/Graphics/SVG/1.1/DTD/svg11.dtd">
<!-- Generated by graphviz version 2.40.1 (20161225.0304)
 -->
<!-- Title: mcts::MCTS::begin Pages: 1 -->
<svg width="538pt" height="303pt"
 viewBox="0.00 0.00 538.00 303.00" xmlns="http://www.w3.org/2000/svg" xmlns:xlink="http://www.w3.org/1999/xlink">
<g id="graph0" class="graph" transform="scale(1 1) rotate(0) translate(4 299)">
<title>mcts::MCTS::begin</title>
<!-- Node12 -->
<g id="node1" class="node">
<title>Node12</title>
<polygon fill="#bfbfbf" stroke="#000000" points="0,-138 0,-157 107,-157 107,-138 0,-138"/>
<text text-anchor="middle" x="53.5" y="-145" font-family="Helvetica,sans-Serif" font-size="10.00" fill="#000000">mcts::MCTS::begin</text>
</g>
<!-- Node13 -->
<g id="node2" class="node">
<title>Node13</title>
<g id="a_node2"><a xlink:href="structmcts_1_1timer.html#af6b8b0201318b987bcab531de4b964f9" target="_top" xlink:title="mcts::timer::milliseconds\l_elapsed">
<polygon fill="none" stroke="#000000" points="158,-264.5 158,-294.5 298,-294.5 298,-264.5 158,-264.5"/>
<text text-anchor="start" x="166" y="-282.5" font-family="Helvetica,sans-Serif" font-size="10.00" fill="#000000">mcts::timer::milliseconds</text>
<text text-anchor="middle" x="228" y="-271.5" font-family="Helvetica,sans-Serif" font-size="10.00" fill="#000000">_elapsed</text>
</a>
</g>
</g>
<!-- Node12&#45;&gt;Node13 -->
<g id="edge1" class="edge">
<title>Node12&#45;&gt;Node13</title>
<path fill="none" stroke="#191970" d="M59.4456,-157.1113C72.2831,-177.1082 104.5632,-223.4887 143,-249.5 149.059,-253.6003 155.7396,-257.2034 162.6129,-260.3544"/>
<polygon fill="#191970" stroke="#191970" points="161.4925,-263.6812 172.0646,-264.3749 164.2326,-257.2398 161.4925,-263.6812"/>
</g>
<!-- Node14 -->
<g id="node3" class="node">
<title>Node14</title>
<g id="a_node3"><a xlink:href="classmcts_1_1_m_c_t_s.html#a5a3c4a056b0611c19839d6757871653b" target="_top" xlink:title="mcts::MCTS::selectBestChild\lAndDoAction">
<polygon fill="none" stroke="#000000" points="150.5,-176.5 150.5,-206.5 305.5,-206.5 305.5,-176.5 150.5,-176.5"/>
<text text-anchor="start" x="158.5" y="-194.5" font-family="Helvetica,sans-Serif" font-size="10.00" fill="#000000">mcts::MCTS::selectBestChild</text>
<text text-anchor="middle" x="228" y="-183.5" font-family="Helvetica,sans-Serif" font-size="10.00" fill="#000000">AndDoAction</text>
</a>
</g>
</g>
<!-- Node12&#45;&gt;Node14 -->
<g id="edge2" class="edge">
<title>Node12&#45;&gt;Node14</title>
<path fill="none" stroke="#191970" d="M91.3639,-157.0473C111.0105,-162.0012 135.6386,-168.2112 158.5551,-173.9895"/>
<polygon fill="#191970" stroke="#191970" points="157.6999,-177.3834 168.2521,-176.4346 159.4114,-170.5958 157.6999,-177.3834"/>
</g>
<!-- Node15 -->
<g id="node4" class="node">
<title>Node15</title>
<g id="a_node4"><a xlink:href="classmcts_1_1_m_c_t_s.html#a9b161c003bc21fe3910d7800c09fff1d" target="_top" xlink:title="mcts::MCTS::doActionOnBoard">
<polygon fill="none" stroke="#000000" points="357.5,-223 357.5,-242 521.5,-242 521.5,-223 357.5,-223"/>
<text text-anchor="middle" x="439.5" y="-230" font-family="Helvetica,sans-Serif" font-size="10.00" fill="#000000">mcts::MCTS::doActionOnBoard</text>
</a>
</g>
</g>
<!-- Node12&#45;&gt;Node15 -->
<g id="edge7" class="edge">
<title>Node12&#45;&gt;Node15</title>
<path fill="none" stroke="#191970" d="M62.0043,-157.0539C76.7021,-172.8018 108.6031,-203.7355 143,-216.5 208.2182,-240.7022 287.0654,-243.835 347.0519,-241.3861"/>
<polygon fill="#191970" stroke="#191970" points="347.4417,-244.8717 357.2671,-240.908 347.1144,-237.8794 347.4417,-244.8717"/>
</g>
<!-- Node17 -->
<g id="node6" class="node">
<title>Node17</title>
<g id="a_node6"><a xlink:href="classmcts_1_1_m_c_t_s.html#a8c65e74d070a037e5ad0331a39379c9c" target="_top" xlink:title="mcts::MCTS::expandNode">
<polygon fill="none" stroke="#000000" points="157.5,-138 157.5,-157 298.5,-157 298.5,-138 157.5,-138"/>
<text text-anchor="middle" x="228" y="-145" font-family="Helvetica,sans-Serif" font-size="10.00" fill="#000000">mcts::MCTS::expandNode</text>
</a>
</g>
</g>
<!-- Node12&#45;&gt;Node17 -->
<g id="edge5" class="edge">
<title>Node12&#45;&gt;Node17</title>
<path fill="none" stroke="#191970" d="M107.2796,-147.5C119.888,-147.5 133.5955,-147.5 147.0992,-147.5"/>
<polygon fill="#191970" stroke="#191970" points="147.3642,-151.0001 157.3641,-147.5 147.3641,-144.0001 147.3642,-151.0001"/>
</g>
<!-- Node18 -->
<g id="node7" class="node">
<title>Node18</title>
<g id="a_node7"><a xlink:href="classmcts_1_1_m_c_t_s.html#a6b5686f91610bb4f46c395634a17a5b8" target="_top" xlink:title="mcts::MCTS::randomChoose\lChildOrFallbackOnNode">
<polygon fill="none" stroke="#000000" points="151.5,-88.5 151.5,-118.5 304.5,-118.5 304.5,-88.5 151.5,-88.5"/>
<text text-anchor="start" x="159.5" y="-106.5" font-family="Helvetica,sans-Serif" font-size="10.00" fill="#000000">mcts::MCTS::randomChoose</text>
<text text-anchor="middle" x="228" y="-95.5" font-family="Helvetica,sans-Serif" font-size="10.00" fill="#000000">ChildOrFallbackOnNode</text>
</a>
</g>
</g>
<!-- Node12&#45;&gt;Node18 -->
<g id="edge6" class="edge">
<title>Node12&#45;&gt;Node18</title>
<path fill="none" stroke="#191970" d="M91.3639,-137.9527C111.0105,-132.9988 135.6386,-126.7888 158.5551,-121.0105"/>
<polygon fill="#191970" stroke="#191970" points="159.4114,-124.4042 168.2521,-118.5654 157.6999,-117.6166 159.4114,-124.4042"/>
</g>
<!-- Node19 -->
<g id="node8" class="node">
<title>Node19</title>
<g id="a_node8"><a xlink:href="classmcts_1_1_m_c_t_s.html#ad465558c1f4933cae2a32ff7394fc49b" target="_top" xlink:title="mcts::MCTS::randomSimulation">
<polygon fill="none" stroke="#000000" points="143,-50 143,-69 313,-69 313,-50 143,-50"/>
<text text-anchor="middle" x="228" y="-57" font-family="Helvetica,sans-Serif" font-size="10.00" fill="#000000">mcts::MCTS::randomSimulation</text>
</a>
</g>
</g>
<!-- Node12&#45;&gt;Node19 -->
<g id="edge8" class="edge">
<title>Node12&#45;&gt;Node19</title>
<path fill="none" stroke="#191970" d="M62.9996,-137.8322C78.3775,-122.7644 110.3127,-93.8225 143,-78.5 148.2627,-76.0331 153.8612,-73.8786 159.5762,-71.9984"/>
<polygon fill="#191970" stroke="#191970" points="160.6958,-75.3166 169.2652,-69.0863 158.6809,-68.6129 160.6958,-75.3166"/>
</g>
<!-- Node21 -->
<g id="node10" class="node">
<title>Node21</title>
<g id="a_node10"><a xlink:href="classmcts_1_1_m_c_t_s.html#a53275dba0c93543b2fa8c24ad928e4a8" target="_top" xlink:title="mcts::MCTS::backPropagate\lAndRevertAction">
<polygon fill="none" stroke="#000000" points="152,-.5 152,-30.5 304,-30.5 304,-.5 152,-.5"/>
<text text-anchor="start" x="160" y="-18.5" font-family="Helvetica,sans-Serif" font-size="10.00" fill="#000000">mcts::MCTS::backPropagate</text>
<text text-anchor="middle" x="228" y="-7.5" font-family="Helvetica,sans-Serif" font-size="10.00" fill="#000000">AndRevertAction</text>
</a>
</g>
</g>
<!-- Node12&#45;&gt;Node21 -->
<g id="edge10" class="edge">
<title>Node12&#45;&gt;Node21</title>
<path fill="none" stroke="#191970" d="M58.8402,-137.8773C70.9684,-116.92 102.6911,-66.917 143,-40.5 146.144,-38.4396 149.4622,-36.5447 152.8929,-34.8025"/>
<polygon fill="#191970" stroke="#191970" points="154.5621,-37.8877 162.194,-30.5389 151.6451,-31.5244 154.5621,-37.8877"/>
</g>
<!-- Node14&#45;&gt;Node15 -->
<g id="edge3" class="edge">
<title>Node14&#45;&gt;Node15</title>
<path fill="none" stroke="#191970" d="M305.5538,-206.5341C330.2012,-211.312 357.053,-216.5174 380.1996,-221.0044"/>
<polygon fill="#191970" stroke="#191970" points="379.7295,-224.4784 390.2129,-222.9455 381.0618,-217.6063 379.7295,-224.4784"/>
</g>
<!-- Node16 -->
<g id="node5" class="node">
<title>Node16</title>
<g id="a_node5"><a xlink:href="classmcts_1_1_m_c_t_s.html#ac75ac1b12fbb40dca468f1c31a9fc8cd" target="_top" xlink:title="mcts::MCTS::formula">
<polygon fill="none" stroke="#000000" points="380.5,-182 380.5,-201 498.5,-201 498.5,-182 380.5,-182"/>
<text text-anchor="middle" x="439.5" y="-189" font-family="Helvetica,sans-Serif" font-size="10.00" fill="#000000">mcts::MCTS::formula</text>
</a>
</g>
</g>
<!-- Node14&#45;&gt;Node16 -->
<g id="edge4" class="edge">
<title>Node14&#45;&gt;Node16</title>
<path fill="none" stroke="#191970" d="M305.5538,-191.5C326.6325,-191.5 349.3236,-191.5 369.9306,-191.5"/>
<polygon fill="#191970" stroke="#191970" points="370.1789,-195.0001 380.1789,-191.5 370.1788,-188.0001 370.1789,-195.0001"/>
</g>
<!-- Node20 -->
<g id="node9" class="node">
<title>Node20</title>
<g id="a_node9"><a xlink:href="classmcts_1_1_m_c_t_s.html#a3e918b416dfe1e5155b077788936f137" target="_top" xlink:title="mcts::MCTS::getRandomAvailable\lMoveFromBoard">
<polygon fill="none" stroke="#000000" points="349,-44.5 349,-74.5 530,-74.5 530,-44.5 349,-44.5"/>
<text text-anchor="start" x="357" y="-62.5" font-family="Helvetica,sans-Serif" font-size="10.00" fill="#000000">mcts::MCTS::getRandomAvailable</text>
<text text-anchor="middle" x="439.5" y="-51.5" font-family="Helvetica,sans-Serif" font-size="10.00" fill="#000000">MoveFromBoard</text>
</a>
</g>
</g>
<!-- Node19&#45;&gt;Node20 -->
<g id="edge9" class="edge">
<title>Node19&#45;&gt;Node20</title>
<path fill="none" stroke="#191970" d="M313.1109,-59.5C321.5261,-59.5 330.1228,-59.5 338.6764,-59.5"/>
<polygon fill="#191970" stroke="#191970" points="338.6843,-63.0001 348.6843,-59.5 338.6842,-56.0001 338.6843,-63.0001"/>
</g>
</g>
</svg>
