<?xml version="1.0" encoding="UTF-8" standalone="no"?>
<!DOCTYPE svg PUBLIC "-//W3C//DTD SVG 1.1//EN"
 "http://www.w3.org/Graphics/SVG/1.1/DTD/svg11.dtd">
<!-- Generated by graphviz version 2.40.1 (20161225.0304)
 -->
<!-- Title: game::penguin::Board::size Pages: 1 -->
<svg width="452pt" height="183pt"
 viewBox="0.00 0.00 452.00 182.78" xmlns="http://www.w3.org/2000/svg" xmlns:xlink="http://www.w3.org/1999/xlink">
<g id="graph0" class="graph" transform="scale(1 1) rotate(0) translate(4 178.7785)">
<title>game::penguin::Board::size</title>
<!-- Node122 -->
<g id="node1" class="node">
<title>Node122</title>
<polygon fill="#bfbfbf" stroke="#000000" points="0,-72.3893 0,-102.3893 124,-102.3893 124,-72.3893 0,-72.3893"/>
<text text-anchor="start" x="8" y="-90.3893" font-family="Helvetica,sans-Serif" font-size="10.00" fill="#000000">game::penguin::Board</text>
<text text-anchor="middle" x="62" y="-79.3893" font-family="Helvetica,sans-Serif" font-size="10.00" fill="#000000">::size</text>
</g>
<!-- Node123 -->
<g id="node2" class="node">
<title>Node123</title>
<g id="a_node2"><a xlink:href="classgame_1_1penguin_1_1_board.html#ac9fbe04a302208fcb5f66e717182b6d4" target="_top" xlink:title="Get the Cell. ">
<polygon fill="none" stroke="#000000" points="320,-143.3893 320,-173.3893 444,-173.3893 444,-143.3893 320,-143.3893"/>
<text text-anchor="start" x="328" y="-161.3893" font-family="Helvetica,sans-Serif" font-size="10.00" fill="#000000">game::penguin::Board</text>
<text text-anchor="middle" x="382" y="-150.3893" font-family="Helvetica,sans-Serif" font-size="10.00" fill="#000000">::getCell</text>
</a>
</g>
</g>
<!-- Node122&#45;&gt;Node123 -->
<g id="edge1" class="edge">
<title>Node122&#45;&gt;Node123</title>
<path fill="none" stroke="#191970" d="M75.805,-102.6146C93.3196,-120.6787 125.4332,-149.8044 160,-161.3893 207.9772,-177.4685 265.1257,-176.2684 309.4238,-171.2821"/>
<polygon fill="#191970" stroke="#191970" points="310.0263,-174.7347 319.5313,-170.0543 309.1822,-167.7858 310.0263,-174.7347"/>
</g>
<!-- Node124 -->
<g id="node3" class="node">
<title>Node124</title>
<g id="a_node3"><a xlink:href="classgame_1_1penguin_1_1_board.html#a13a38d7c935dd363d7ec9394488539ee" target="_top" xlink:title="Get the Players that are presently palying on the board. ">
<polygon fill="none" stroke="#000000" points="160,-121.3893 160,-151.3893 284,-151.3893 284,-121.3893 160,-121.3893"/>
<text text-anchor="start" x="168" y="-139.3893" font-family="Helvetica,sans-Serif" font-size="10.00" fill="#000000">game::penguin::Board</text>
<text text-anchor="middle" x="222" y="-128.3893" font-family="Helvetica,sans-Serif" font-size="10.00" fill="#000000">::getPawnsOnBoard</text>
</a>
</g>
</g>
<!-- Node122&#45;&gt;Node124 -->
<g id="edge2" class="edge">
<title>Node122&#45;&gt;Node124</title>
<path fill="none" stroke="#191970" d="M111.3108,-102.4907C127.6598,-107.4976 146.0243,-113.1217 163.0252,-118.3282"/>
<polygon fill="#191970" stroke="#191970" points="162.2654,-121.756 172.852,-121.3377 164.3152,-115.0628 162.2654,-121.756"/>
</g>
<!-- Node125 -->
<g id="node4" class="node">
<title>Node125</title>
<g id="a_node4"><a xlink:href="classgame_1_1penguin_1_1_board.html#acae84c13dacef3bd988d1ea9a41d055f" target="_top" xlink:title="Get a player by it&#39;s id. ">
<polygon fill="none" stroke="#000000" points="320,-1.3893 320,-31.3893 444,-31.3893 444,-1.3893 320,-1.3893"/>
<text text-anchor="start" x="328" y="-19.3893" font-family="Helvetica,sans-Serif" font-size="10.00" fill="#000000">game::penguin::Board</text>
<text text-anchor="middle" x="382" y="-8.3893" font-family="Helvetica,sans-Serif" font-size="10.00" fill="#000000">::getPawnById</text>
</a>
</g>
</g>
<!-- Node122&#45;&gt;Node125 -->
<g id="edge3" class="edge">
<title>Node122&#45;&gt;Node125</title>
<path fill="none" stroke="#191970" d="M75.805,-72.1639C93.3196,-54.0998 125.4332,-24.9741 160,-13.3893 207.9772,2.69 265.1257,1.4898 309.4238,-3.4965"/>
<polygon fill="#191970" stroke="#191970" points="309.1822,-6.9928 319.5313,-4.7242 310.0263,-.0438 309.1822,-6.9928"/>
</g>
<!-- Node126 -->
<g id="node5" class="node">
<title>Node126</title>
<g id="a_node5"><a xlink:href="classgame_1_1penguin_1_1_board.html#a8728b4381bc2e007710d275bb226cf95" target="_top" xlink:title="Gets the player corresponding to a certain id. ">
<polygon fill="none" stroke="#000000" points="160,-23.3893 160,-53.3893 284,-53.3893 284,-23.3893 160,-23.3893"/>
<text text-anchor="start" x="168" y="-41.3893" font-family="Helvetica,sans-Serif" font-size="10.00" fill="#000000">game::penguin::Board</text>
<text text-anchor="middle" x="222" y="-30.3893" font-family="Helvetica,sans-Serif" font-size="10.00" fill="#000000">::getPlayerById</text>
</a>
</g>
</g>
<!-- Node122&#45;&gt;Node126 -->
<g id="edge4" class="edge">
<title>Node122&#45;&gt;Node126</title>
<path fill="none" stroke="#191970" d="M111.3108,-72.2878C127.6598,-67.281 146.0243,-61.6568 163.0252,-56.4503"/>
<polygon fill="#191970" stroke="#191970" points="164.3152,-59.7158 172.852,-53.4408 162.2654,-53.0226 164.3152,-59.7158"/>
</g>
<!-- Node127 -->
<g id="node6" class="node">
<title>Node127</title>
<g id="a_node6"><a xlink:href="classgame_1_1penguin_1_1_board.html#acad4a3c7bee2103aea4586356ceabb8e" target="_top" xlink:title="game::penguin::Board\l::clone">
<polygon fill="none" stroke="#000000" points="160,-72.3893 160,-102.3893 284,-102.3893 284,-72.3893 160,-72.3893"/>
<text text-anchor="start" x="168" y="-90.3893" font-family="Helvetica,sans-Serif" font-size="10.00" fill="#000000">game::penguin::Board</text>
<text text-anchor="middle" x="222" y="-79.3893" font-family="Helvetica,sans-Serif" font-size="10.00" fill="#000000">::clone</text>
</a>
</g>
</g>
<!-- Node122&#45;&gt;Node127 -->
<g id="edge5" class="edge">
<title>Node122&#45;&gt;Node127</title>
<path fill="none" stroke="#191970" d="M124.3183,-87.3893C132.615,-87.3893 141.1788,-87.3893 149.628,-87.3893"/>
<polygon fill="#191970" stroke="#191970" points="149.8518,-90.8894 159.8518,-87.3893 149.8517,-83.8894 149.8518,-90.8894"/>
</g>
<!-- Node127&#45;&gt;Node123 -->
<g id="edge8" class="edge">
<title>Node127&#45;&gt;Node123</title>
<path fill="none" stroke="#191970" d="M260.174,-102.394C268.0842,-105.6117 276.3398,-109.0502 284,-112.3893 303.0437,-120.6905 323.9117,-130.3987 341.4786,-138.7514"/>
<polygon fill="#191970" stroke="#191970" points="340.3338,-142.0833 350.8658,-143.2348 343.3506,-135.7667 340.3338,-142.0833"/>
</g>
<!-- Node127&#45;&gt;Node125 -->
<g id="edge7" class="edge">
<title>Node127&#45;&gt;Node125</title>
<path fill="none" stroke="#191970" d="M262.2079,-72.3503C269.5006,-69.4738 277.0082,-66.4137 284,-63.3893 303.7621,-54.8409 325.3777,-44.5751 343.2681,-35.8213"/>
<polygon fill="#191970" stroke="#191970" points="344.8277,-38.9547 352.2544,-31.3986 341.7367,-32.6741 344.8277,-38.9547"/>
</g>
<!-- Node128 -->
<g id="node7" class="node">
<title>Node128</title>
<g id="a_node7"><a xlink:href="classgame_1_1penguin_1_1_board.html#aea5bd314dbc295e71759baf2051409c5" target="_top" xlink:title="Construct a new Board object. ">
<polygon fill="none" stroke="#000000" points="320,-72.3893 320,-102.3893 444,-102.3893 444,-72.3893 320,-72.3893"/>
<text text-anchor="start" x="328" y="-90.3893" font-family="Helvetica,sans-Serif" font-size="10.00" fill="#000000">game::penguin::Board</text>
<text text-anchor="middle" x="382" y="-79.3893" font-family="Helvetica,sans-Serif" font-size="10.00" fill="#000000">::Board</text>
</a>
</g>
</g>
<!-- Node127&#45;&gt;Node128 -->
<g id="edge6" class="edge">
<title>Node127&#45;&gt;Node128</title>
<path fill="none" stroke="#191970" d="M284.3183,-87.3893C292.615,-87.3893 301.1788,-87.3893 309.628,-87.3893"/>
<polygon fill="#191970" stroke="#191970" points="309.8518,-90.8894 319.8518,-87.3893 309.8517,-83.8894 309.8518,-90.8894"/>
</g>
</g>
</svg>
