<?xml version="1.0" encoding="UTF-8" standalone="no"?>
<!DOCTYPE svg PUBLIC "-//W3C//DTD SVG 1.1//EN"
 "http://www.w3.org/Graphics/SVG/1.1/DTD/svg11.dtd">
<!-- Generated by graphviz version 2.40.1 (20161225.0304)
 -->
<!-- Title: mcts::Tree&lt; CellT, PlayerT, PawnT &gt; Pages: 1 -->
<svg width="433pt" height="375pt"
 viewBox="0.00 0.00 433.00 375.00" xmlns="http://www.w3.org/2000/svg" xmlns:xlink="http://www.w3.org/1999/xlink">
<g id="graph0" class="graph" transform="scale(1 1) rotate(0) translate(4 371)">
<title>mcts::Tree&lt; CellT, PlayerT, PawnT &gt;</title>
<!-- Node1 -->
<g id="node1" class="node">
<title>Node1</title>
<polygon fill="#bfbfbf" stroke="#000000" points="143,-.5 143,-145.5 272,-145.5 272,-.5 143,-.5"/>
<text text-anchor="start" x="151" y="-133.5" font-family="Helvetica,sans-Serif" font-size="10.00" fill="#000000">mcts::Tree&lt; CellT,</text>
<text text-anchor="middle" x="207.5" y="-122.5" font-family="Helvetica,sans-Serif" font-size="10.00" fill="#000000"> PlayerT, PawnT &gt;</text>
<polyline fill="none" stroke="#000000" points="143,-115.5 272,-115.5 "/>
<text text-anchor="middle" x="207.5" y="-103.5" font-family="Helvetica,sans-Serif" font-size="10.00" fill="#000000"> </text>
<polyline fill="none" stroke="#000000" points="143,-96.5 272,-96.5 "/>
<text text-anchor="start" x="151" y="-84.5" font-family="Helvetica,sans-Serif" font-size="10.00" fill="#000000">+ Tree()</text>
<text text-anchor="start" x="151" y="-73.5" font-family="Helvetica,sans-Serif" font-size="10.00" fill="#000000">+ ~Tree()</text>
<text text-anchor="start" x="151" y="-62.5" font-family="Helvetica,sans-Serif" font-size="10.00" fill="#000000">+ bestMove()</text>
<text text-anchor="start" x="151" y="-51.5" font-family="Helvetica,sans-Serif" font-size="10.00" fill="#000000">+ moveRootToMove()</text>
<text text-anchor="start" x="151" y="-40.5" font-family="Helvetica,sans-Serif" font-size="10.00" fill="#000000">+ merge()</text>
<text text-anchor="start" x="151" y="-29.5" font-family="Helvetica,sans-Serif" font-size="10.00" fill="#000000">+ getRootNode()</text>
<text text-anchor="start" x="151" y="-18.5" font-family="Helvetica,sans-Serif" font-size="10.00" fill="#000000"># expandNode()</text>
<text text-anchor="start" x="151" y="-7.5" font-family="Helvetica,sans-Serif" font-size="10.00" fill="#000000"># nodeWithMaxVisits()</text>
</g>
<!-- Node2 -->
<g id="node2" class="node">
<title>Node2</title>
<polygon fill="none" stroke="#bfbfbf" points="0,-193.5 0,-261.5 125,-261.5 125,-193.5 0,-193.5"/>
<text text-anchor="start" x="8" y="-249.5" font-family="Helvetica,sans-Serif" font-size="10.00" fill="#000000">AbstractGame&lt; CellT,</text>
<text text-anchor="middle" x="62.5" y="-238.5" font-family="Helvetica,sans-Serif" font-size="10.00" fill="#000000"> PlayerT, PawnT &gt; *</text>
<polyline fill="none" stroke="#bfbfbf" points="0,-231.5 125,-231.5 "/>
<text text-anchor="middle" x="62.5" y="-219.5" font-family="Helvetica,sans-Serif" font-size="10.00" fill="#000000"> </text>
<polyline fill="none" stroke="#bfbfbf" points="0,-212.5 125,-212.5 "/>
<text text-anchor="middle" x="62.5" y="-200.5" font-family="Helvetica,sans-Serif" font-size="10.00" fill="#000000"> </text>
</g>
<!-- Node2&#45;&gt;Node1 -->
<g id="edge1" class="edge">
<title>Node2&#45;&gt;Node1</title>
<path fill="none" stroke="#404040" d="M94.6802,-193.2114C106.5369,-180.5779 120.5033,-165.6965 134.4947,-150.7884"/>
<polygon fill="none" stroke="#404040" points="134.5077,-150.7745 135.697,-143.6622 142.7197,-142.0245 141.5304,-149.1369 134.5077,-150.7745"/>
<text text-anchor="middle" x="142.5" y="-167" font-family="Helvetica,sans-Serif" font-size="10.00" fill="#000000"> +game</text>
</g>
<!-- Node3 -->
<g id="node3" class="node">
<title>Node3</title>
<g id="a_node3"><a xlink:href="structmcts_1_1_m_c_t_s_constraints.html" target="_top" xlink:title="{mcts::MCTSConstraints\n||}">
<polygon fill="none" stroke="#000000" points="143,-199 143,-256 272,-256 272,-199 143,-199"/>
<text text-anchor="middle" x="207.5" y="-244" font-family="Helvetica,sans-Serif" font-size="10.00" fill="#000000">mcts::MCTSConstraints</text>
<polyline fill="none" stroke="#000000" points="143,-237 272,-237 "/>
<text text-anchor="middle" x="207.5" y="-225" font-family="Helvetica,sans-Serif" font-size="10.00" fill="#000000"> </text>
<polyline fill="none" stroke="#000000" points="143,-218 272,-218 "/>
<text text-anchor="middle" x="207.5" y="-206" font-family="Helvetica,sans-Serif" font-size="10.00" fill="#000000"> </text>
</a>
</g>
</g>
<!-- Node3&#45;&gt;Node1 -->
<g id="edge2" class="edge">
<title>Node3&#45;&gt;Node1</title>
<path fill="none" stroke="#404040" d="M207.5,-198.8018C207.5,-187.0073 207.5,-172.6733 207.5,-157.9626"/>
<polygon fill="none" stroke="#404040" points="207.5001,-157.5644 203.5,-151.5644 207.5,-145.5644 211.5,-151.5644 207.5001,-157.5644"/>
<text text-anchor="middle" x="240.5" y="-167" font-family="Helvetica,sans-Serif" font-size="10.00" fill="#000000"> +constraints</text>
</g>
<!-- Node4 -->
<g id="node4" class="node">
<title>Node4</title>
<polygon fill="none" stroke="#bfbfbf" points="193,-309.5 193,-366.5 222,-366.5 222,-309.5 193,-309.5"/>
<text text-anchor="middle" x="207.5" y="-354.5" font-family="Helvetica,sans-Serif" font-size="10.00" fill="#000000">int</text>
<polyline fill="none" stroke="#bfbfbf" points="193,-347.5 222,-347.5 "/>
<text text-anchor="middle" x="207.5" y="-335.5" font-family="Helvetica,sans-Serif" font-size="10.00" fill="#000000"> </text>
<polyline fill="none" stroke="#bfbfbf" points="193,-328.5 222,-328.5 "/>
<text text-anchor="middle" x="207.5" y="-316.5" font-family="Helvetica,sans-Serif" font-size="10.00" fill="#000000"> </text>
</g>
<!-- Node4&#45;&gt;Node3 -->
<g id="edge3" class="edge">
<title>Node4&#45;&gt;Node3</title>
<path fill="none" stroke="#404040" d="M207.5,-309.2559C207.5,-296.7224 207.5,-281.8039 207.5,-268.1631"/>
<polygon fill="none" stroke="#404040" points="207.5001,-268.1002 203.5,-262.1002 207.5,-256.1002 211.5,-262.1002 207.5001,-268.1002"/>
<text text-anchor="middle" x="224.5" y="-283" font-family="Helvetica,sans-Serif" font-size="10.00" fill="#000000"> +time</text>
</g>
<!-- Node5 -->
<g id="node5" class="node">
<title>Node5</title>
<polygon fill="none" stroke="#bfbfbf" points="290,-199 290,-256 425,-256 425,-199 290,-199"/>
<text text-anchor="middle" x="357.5" y="-244" font-family="Helvetica,sans-Serif" font-size="10.00" fill="#000000">Node&lt; CellT, PawnT &gt; *</text>
<polyline fill="none" stroke="#bfbfbf" points="290,-237 425,-237 "/>
<text text-anchor="middle" x="357.5" y="-225" font-family="Helvetica,sans-Serif" font-size="10.00" fill="#000000"> </text>
<polyline fill="none" stroke="#bfbfbf" points="290,-218 425,-218 "/>
<text text-anchor="middle" x="357.5" y="-206" font-family="Helvetica,sans-Serif" font-size="10.00" fill="#000000"> </text>
</g>
<!-- Node5&#45;&gt;Node1 -->
<g id="edge4" class="edge">
<title>Node5&#45;&gt;Node1</title>
<path fill="none" stroke="#404040" d="M329.6377,-198.8018C315.731,-184.4779 298.1881,-166.4087 280.7696,-148.4677"/>
<polygon fill="none" stroke="#404040" points="280.6043,-148.2974 273.5548,-146.7788 272.2453,-139.6876 279.2947,-141.2062 280.6043,-148.2974"/>
<text text-anchor="middle" x="334" y="-167" font-family="Helvetica,sans-Serif" font-size="10.00" fill="#000000"> #rootNode</text>
</g>
</g>
</svg>
