<?xml version="1.0" encoding="UTF-8" standalone="no"?>
<!DOCTYPE svg PUBLIC "-//W3C//DTD SVG 1.1//EN"
 "http://www.w3.org/Graphics/SVG/1.1/DTD/svg11.dtd">
<!-- Generated by graphviz version 2.40.1 (20161225.0304)
 -->
<!-- Title: game::penguin::Board::revertMove Pages: 1 -->
<!--zoomable 372 -->
<svg id="main" version="1.1" xmlns="http://www.w3.org/2000/svg" xmlns:xlink="http://www.w3.org/1999/xlink" xml:space="preserve" onload="init(evt)">
<style type="text/css"><![CDATA[
.edge:hover path { stroke: red; }
.edge:hover polygon { stroke: red; fill: red; }
]]></style>
<script type="text/javascript"><![CDATA[
var edges = document.getElementsByTagName('g');
if (edges && edges.length) {
  for (var i=0;i<edges.length;i++) {
    if (edges[i].id.substr(0,4)=='edge') {
      edges[i].setAttribute('class','edge');
    }
  }
}
]]></script>
        <defs>
                <circle id="rim" cx="0" cy="0" r="7"/>
                <circle id="rim2" cx="0" cy="0" r="3.5"/>
                <g id="zoomPlus">
                        <use xlink:href="#rim" fill="#404040">
                                <set attributeName="fill" to="#808080" begin="zoomplus.mouseover" end="zoomplus.mouseout"/>
                        </use>
                        <path d="M-4,0h8M0,-4v8" fill="none" stroke="white" stroke-width="1.5" pointer-events="none"/>
                </g>
                <g id="zoomMin">
                        <use xlink:href="#rim" fill="#404040">
                                <set attributeName="fill" to="#808080" begin="zoomminus.mouseover" end="zoomminus.mouseout"/>
                        </use>
                        <path d="M-4,0h8" fill="none" stroke="white" stroke-width="1.5" pointer-events="none"/>
                </g>
                <g id="dirArrow">
                        <path fill="none" stroke="white" stroke-width="1.5" d="M0,-3.0v7 M-2.5,-0.5L0,-3.0L2.5,-0.5"/>
                </g>
               <g id="resetDef">
                       <use xlink:href="#rim2" fill="#404040">
                               <set attributeName="fill" to="#808080" begin="reset.mouseover" end="reset.mouseout"/>
                       </use>
               </g>
        </defs>

<script type="text/javascript">
var viewWidth = 687;
var viewHeight = 372;
var sectionId = 'dynsection-18';
</script>
<script xlink:href="svgpan.js"/>
<svg id="graph" class="graph">
<g id="viewport">
<title>game::penguin::Board::revertMove</title>
<!-- Node106 -->
<g id="node1" class="node">
<title>Node106</title>
<polygon fill="#bfbfbf" stroke="#000000" points="0,-171.5 0,-201.5 124,-201.5 124,-171.5 0,-171.5"/>
<text text-anchor="start" x="8" y="-189.5" font-family="Helvetica,sans-Serif" font-size="10.00" fill="#000000">game::penguin::Board</text>
<text text-anchor="middle" x="62" y="-178.5" font-family="Helvetica,sans-Serif" font-size="10.00" fill="#000000">::revertMove</text>
</g>
<!-- Node107 -->
<g id="node2" class="node">
<title>Node107</title>
<g id="a_node2"><a xlink:href="classgame_1_1_abstract_board.html#acc2d5fac68ec019e42fe166b727b7299" target="_top" xlink:title="revertMove &amp; sets the current cell on the pawn ">
<polygon fill="none" stroke="#000000" points="181,-333.5 181,-363.5 300,-363.5 300,-333.5 181,-333.5"/>
<text text-anchor="start" x="189" y="-351.5" font-family="Helvetica,sans-Serif" font-size="10.00" fill="#000000">game::AbstractBoard</text>
<text text-anchor="middle" x="240.5" y="-340.5" font-family="Helvetica,sans-Serif" font-size="10.00" fill="#000000">::revertMove</text>
</a>
</g>
</g>
<!-- Node106&#45;&gt;Node107 -->
<g id="edge1" class="edge">
<title>Node106&#45;&gt;Node107</title>
<path fill="none" stroke="#191970" d="M69.538,-201.8008C83.6635,-228.9904 116.6469,-285.9212 160,-318.5 165.3673,-322.5334 171.3362,-326.076 177.529,-329.1755"/>
<polygon fill="#191970" stroke="#191970" points="176.1711,-332.4035 186.7185,-333.4054 179.0981,-326.0447 176.1711,-332.4035"/>
</g>
<!-- Node108 -->
<g id="node3" class="node">
<title>Node108</title>
<g id="a_node3"><a xlink:href="classgame_1_1penguin_1_1_board_cell.html#a011487b961b356a891144edcccc1473f" target="_top" xlink:title="Get the penguin standing on the cell. ">
<polygon fill="none" stroke="#000000" points="536,-278.5 536,-308.5 679,-308.5 679,-278.5 536,-278.5"/>
<text text-anchor="start" x="544" y="-296.5" font-family="Helvetica,sans-Serif" font-size="10.00" fill="#000000">game::penguin::BoardCell</text>
<text text-anchor="middle" x="607.5" y="-285.5" font-family="Helvetica,sans-Serif" font-size="10.00" fill="#000000">::getOwner</text>
</a>
</g>
</g>
<!-- Node106&#45;&gt;Node108 -->
<g id="edge2" class="edge">
<title>Node106&#45;&gt;Node108</title>
<path fill="none" stroke="#191970" d="M71.4353,-201.8135C86.715,-224.9848 119.3086,-268.0953 160,-285.5 279.2506,-336.5062 433.2405,-324.399 525.9705,-309.7967"/>
<polygon fill="#191970" stroke="#191970" points="526.5474,-313.249 535.8583,-308.1935 525.427,-306.3392 526.5474,-313.249"/>
</g>
<!-- Node109 -->
<g id="node4" class="node">
<title>Node109</title>
<g id="a_node4"><a xlink:href="classgame_1_1penguin_1_1_board_cell.html#a923c503caf2ed45b2fb0f49eb0cf3201" target="_top" xlink:title="Nobody owns the cell now. ">
<polygon fill="none" stroke="#000000" points="169,-245.5 169,-275.5 312,-275.5 312,-245.5 169,-245.5"/>
<text text-anchor="start" x="177" y="-263.5" font-family="Helvetica,sans-Serif" font-size="10.00" fill="#000000">game::penguin::BoardCell</text>
<text text-anchor="middle" x="240.5" y="-252.5" font-family="Helvetica,sans-Serif" font-size="10.00" fill="#000000">::clearOwner</text>
</a>
</g>
</g>
<!-- Node106&#45;&gt;Node109 -->
<g id="edge3" class="edge">
<title>Node106&#45;&gt;Node109</title>
<path fill="none" stroke="#191970" d="M88.4244,-201.6454C107.8073,-212.34 134.9973,-226.4915 160,-236.5 164.9926,-238.4985 170.2171,-240.4192 175.5031,-242.2431"/>
<polygon fill="#191970" stroke="#191970" points="174.4542,-245.5827 185.0477,-245.4174 176.6633,-238.9404 174.4542,-245.5827"/>
</g>
<!-- Node110 -->
<g id="node5" class="node">
<title>Node110</title>
<g id="a_node5"><a xlink:href="classgame_1_1penguin_1_1_board_cell.html#a097c6986431cadcf0adac373fe01ccee" target="_top" xlink:title="Sets the gone flag. ">
<polygon fill="none" stroke="#000000" points="169,-196.5 169,-226.5 312,-226.5 312,-196.5 169,-196.5"/>
<text text-anchor="start" x="177" y="-214.5" font-family="Helvetica,sans-Serif" font-size="10.00" fill="#000000">game::penguin::BoardCell</text>
<text text-anchor="middle" x="240.5" y="-203.5" font-family="Helvetica,sans-Serif" font-size="10.00" fill="#000000">::setGone</text>
</a>
</g>
</g>
<!-- Node106&#45;&gt;Node110 -->
<g id="edge4" class="edge">
<title>Node106&#45;&gt;Node110</title>
<path fill="none" stroke="#191970" d="M124.1801,-195.2087C135.3082,-196.7673 147.0566,-198.4127 158.6379,-200.0347"/>
<polygon fill="#191970" stroke="#191970" points="158.3638,-203.5304 168.7526,-201.4513 159.3348,-196.5981 158.3638,-203.5304"/>
</g>
<!-- Node111 -->
<g id="node6" class="node">
<title>Node111</title>
<g id="a_node6"><a xlink:href="classgame_1_1_abstract_pawn.html#aac49fdd8bd4aa4386fd47d3f6993b8df" target="_top" xlink:title="game::AbstractPawn\l::getOwner">
<polygon fill="none" stroke="#000000" points="182.5,-147.5 182.5,-177.5 298.5,-177.5 298.5,-147.5 182.5,-147.5"/>
<text text-anchor="start" x="190.5" y="-165.5" font-family="Helvetica,sans-Serif" font-size="10.00" fill="#000000">game::AbstractPawn</text>
<text text-anchor="middle" x="240.5" y="-154.5" font-family="Helvetica,sans-Serif" font-size="10.00" fill="#000000">::getOwner</text>
</a>
</g>
</g>
<!-- Node106&#45;&gt;Node111 -->
<g id="edge5" class="edge">
<title>Node106&#45;&gt;Node111</title>
<path fill="none" stroke="#191970" d="M124.1801,-178.1397C139.6968,-176.0534 156.4193,-173.805 172.2134,-171.6814"/>
<polygon fill="#191970" stroke="#191970" points="172.9919,-175.1083 182.4363,-170.3069 172.0591,-168.1707 172.9919,-175.1083"/>
</g>
<!-- Node112 -->
<g id="node7" class="node">
<title>Node112</title>
<g id="a_node7"><a xlink:href="classgame_1_1penguin_1_1_human_player.html#ac164fc99bfe3fc2c6818aeb7d41fc885" target="_top" xlink:title="Substract to the score. ">
<polygon fill="none" stroke="#000000" points="160,-98.5 160,-128.5 321,-128.5 321,-98.5 160,-98.5"/>
<text text-anchor="start" x="168" y="-116.5" font-family="Helvetica,sans-Serif" font-size="10.00" fill="#000000">game::penguin::HumanPlayer</text>
<text text-anchor="middle" x="240.5" y="-105.5" font-family="Helvetica,sans-Serif" font-size="10.00" fill="#000000">::substractScore</text>
</a>
</g>
</g>
<!-- Node106&#45;&gt;Node112 -->
<g id="edge6" class="edge">
<title>Node106&#45;&gt;Node112</title>
<path fill="none" stroke="#191970" d="M89.7836,-171.4613C109.1246,-161.3496 135.7042,-148.1557 160,-138.5 165.801,-136.1945 171.9039,-133.9633 178.0469,-131.8455"/>
<polygon fill="#191970" stroke="#191970" points="179.3233,-135.1092 187.6957,-128.6166 177.1019,-128.471 179.3233,-135.1092"/>
</g>
<!-- Node113 -->
<g id="node8" class="node">
<title>Node113</title>
<g id="a_node8"><a xlink:href="classgame_1_1penguin_1_1_board_cell.html#abe8f2dc0eef3aed1e8701dc0b021c5a6" target="_top" xlink:title="Get the number of fish contained inside the cell. ">
<polygon fill="none" stroke="#000000" points="169,-49.5 169,-79.5 312,-79.5 312,-49.5 169,-49.5"/>
<text text-anchor="start" x="177" y="-67.5" font-family="Helvetica,sans-Serif" font-size="10.00" fill="#000000">game::penguin::BoardCell</text>
<text text-anchor="middle" x="240.5" y="-56.5" font-family="Helvetica,sans-Serif" font-size="10.00" fill="#000000">::getFish</text>
</a>
</g>
</g>
<!-- Node106&#45;&gt;Node113 -->
<g id="edge7" class="edge">
<title>Node106&#45;&gt;Node113</title>
<path fill="none" stroke="#191970" d="M73.2238,-171.2211C89.8324,-149.6797 123.0051,-110.5539 160,-88.5 162.9712,-86.7288 166.0828,-85.0798 169.2834,-83.5455"/>
<polygon fill="#191970" stroke="#191970" points="170.7344,-86.7311 178.4959,-79.5193 167.9311,-80.3169 170.7344,-86.7311"/>
</g>
<!-- Node120 -->
<g id="node15" class="node">
<title>Node120</title>
<g id="a_node15"><a xlink:href="classgame_1_1penguin_1_1_board_cell.html#a5d3fd7b5a5e170bd6fbc101f5240f4b1" target="_top" xlink:title="Set the penguin who stands on the cell, ie the cell&#39;s owner atm. ">
<polygon fill="none" stroke="#000000" points="169,-.5 169,-30.5 312,-30.5 312,-.5 169,-.5"/>
<text text-anchor="start" x="177" y="-18.5" font-family="Helvetica,sans-Serif" font-size="10.00" fill="#000000">game::penguin::BoardCell</text>
<text text-anchor="middle" x="240.5" y="-7.5" font-family="Helvetica,sans-Serif" font-size="10.00" fill="#000000">::setOwner</text>
</a>
</g>
</g>
<!-- Node106&#45;&gt;Node120 -->
<g id="edge15" class="edge">
<title>Node106&#45;&gt;Node120</title>
<path fill="none" stroke="#191970" d="M67.8468,-171.4921C80.2129,-141.7285 111.8931,-75.0396 160,-39.5 162.0527,-37.9835 164.201,-36.5622 166.4221,-35.2302"/>
<polygon fill="#191970" stroke="#191970" points="168.1067,-38.2986 175.3026,-30.5223 164.828,-32.1139 168.1067,-38.2986"/>
</g>
<!-- Node114 -->
<g id="node9" class="node">
<title>Node114</title>
<g id="a_node9"><a xlink:href="classgame_1_1penguin_1_1_board_cell.html#a1ed5a3134f831bef111c6294c07388bf" target="_top" xlink:title="game::penguin::BoardCell\l::equals_to">
<polygon fill="none" stroke="#000000" points="357,-49.5 357,-79.5 500,-79.5 500,-49.5 357,-49.5"/>
<text text-anchor="start" x="365" y="-67.5" font-family="Helvetica,sans-Serif" font-size="10.00" fill="#000000">game::penguin::BoardCell</text>
<text text-anchor="middle" x="428.5" y="-56.5" font-family="Helvetica,sans-Serif" font-size="10.00" fill="#000000">::equals_to</text>
</a>
</g>
</g>
<!-- Node113&#45;&gt;Node114 -->
<g id="edge8" class="edge">
<title>Node113&#45;&gt;Node114</title>
<path fill="none" stroke="#191970" d="M312.111,-64.5C323.4273,-64.5 335.2033,-64.5 346.7296,-64.5"/>
<polygon fill="#191970" stroke="#191970" points="346.7768,-68.0001 356.7768,-64.5 346.7768,-61.0001 346.7768,-68.0001"/>
</g>
<!-- Node116 -->
<g id="node11" class="node">
<title>Node116</title>
<g id="a_node11"><a xlink:href="classgame_1_1penguin_1_1_board_cell.html#a4d3577488552bf0ba4822ac265532825" target="_top" xlink:title="game::penguin::BoardCell\l::clone">
<polygon fill="none" stroke="#000000" points="357,-158.5 357,-188.5 500,-188.5 500,-158.5 357,-158.5"/>
<text text-anchor="start" x="365" y="-176.5" font-family="Helvetica,sans-Serif" font-size="10.00" fill="#000000">game::penguin::BoardCell</text>
<text text-anchor="middle" x="428.5" y="-165.5" font-family="Helvetica,sans-Serif" font-size="10.00" fill="#000000">::clone</text>
</a>
</g>
</g>
<!-- Node113&#45;&gt;Node116 -->
<g id="edge10" class="edge">
<title>Node113&#45;&gt;Node116</title>
<path fill="none" stroke="#191970" d="M300.419,-79.5776C307.5168,-82.1717 314.5302,-85.1367 321,-88.5 353.3839,-105.3345 385.5576,-132.5149 406.1448,-151.5973"/>
<polygon fill="#191970" stroke="#191970" points="403.7659,-154.1647 413.444,-158.4758 408.5667,-149.0703 403.7659,-154.1647"/>
</g>
<!-- Node115 -->
<g id="node10" class="node">
<title>Node115</title>
<g id="a_node10"><a xlink:href="classgame_1_1_abstract_pawn.html#a49354506912d0e1bf5272627aa2bc86e" target="_top" xlink:title="Get pawn&#39;s id. ">
<polygon fill="none" stroke="#000000" points="549.5,-49.5 549.5,-79.5 665.5,-79.5 665.5,-49.5 549.5,-49.5"/>
<text text-anchor="start" x="557.5" y="-67.5" font-family="Helvetica,sans-Serif" font-size="10.00" fill="#000000">game::AbstractPawn</text>
<text text-anchor="middle" x="607.5" y="-56.5" font-family="Helvetica,sans-Serif" font-size="10.00" fill="#000000">::getId</text>
</a>
</g>
</g>
<!-- Node114&#45;&gt;Node115 -->
<g id="edge9" class="edge">
<title>Node114&#45;&gt;Node115</title>
<path fill="none" stroke="#191970" d="M500.0172,-64.5C512.9262,-64.5 526.3557,-64.5 539.1708,-64.5"/>
<polygon fill="#191970" stroke="#191970" points="539.295,-68.0001 549.2949,-64.5 539.2949,-61.0001 539.295,-68.0001"/>
</g>
<!-- Node116&#45;&gt;Node108 -->
<g id="edge14" class="edge">
<title>Node116&#45;&gt;Node108</title>
<path fill="none" stroke="#191970" d="M450.1887,-188.7236C471.8047,-203.8266 506.0106,-227.5381 536,-247.5 548.6558,-255.9241 562.7021,-265.0159 574.9712,-272.8745"/>
<polygon fill="#191970" stroke="#191970" points="573.2341,-275.9179 583.5457,-278.3516 577.0024,-270.0187 573.2341,-275.9179"/>
</g>
<!-- Node117 -->
<g id="node12" class="node">
<title>Node117</title>
<g id="a_node12"><a xlink:href="classgame_1_1penguin_1_1_board_cell.html#a2c76e638f5d0d4374b422756b08cb61f" target="_top" xlink:title="Construct a new Board Cell object. ">
<polygon fill="none" stroke="#000000" points="536,-109.5 536,-139.5 679,-139.5 679,-109.5 536,-109.5"/>
<text text-anchor="start" x="544" y="-127.5" font-family="Helvetica,sans-Serif" font-size="10.00" fill="#000000">game::penguin::BoardCell</text>
<text text-anchor="middle" x="607.5" y="-116.5" font-family="Helvetica,sans-Serif" font-size="10.00" fill="#000000">::BoardCell</text>
</a>
</g>
</g>
<!-- Node116&#45;&gt;Node117 -->
<g id="edge11" class="edge">
<title>Node116&#45;&gt;Node117</title>
<path fill="none" stroke="#191970" d="M483.6665,-158.3986C502.3842,-153.2747 523.4635,-147.5044 542.8526,-142.1968"/>
<polygon fill="#191970" stroke="#191970" points="543.7946,-145.5677 552.5157,-139.5516 541.9464,-138.8161 543.7946,-145.5677"/>
</g>
<!-- Node118 -->
<g id="node13" class="node">
<title>Node118</title>
<g id="a_node13"><a xlink:href="classgame_1_1penguin_1_1_board_cell.html#a12cd55e333821bcecaa201dde758c1a1" target="_top" xlink:title="Is a penguin on the cell. ">
<polygon fill="none" stroke="#000000" points="536,-207.5 536,-237.5 679,-237.5 679,-207.5 536,-207.5"/>
<text text-anchor="start" x="544" y="-225.5" font-family="Helvetica,sans-Serif" font-size="10.00" fill="#000000">game::penguin::BoardCell</text>
<text text-anchor="middle" x="607.5" y="-214.5" font-family="Helvetica,sans-Serif" font-size="10.00" fill="#000000">::isOwned</text>
</a>
</g>
</g>
<!-- Node116&#45;&gt;Node118 -->
<g id="edge12" class="edge">
<title>Node116&#45;&gt;Node118</title>
<path fill="none" stroke="#191970" d="M483.6665,-188.6014C502.3842,-193.7253 523.4635,-199.4956 542.8526,-204.8032"/>
<polygon fill="#191970" stroke="#191970" points="541.9464,-208.1839 552.5157,-207.4484 543.7946,-201.4323 541.9464,-208.1839"/>
</g>
<!-- Node119 -->
<g id="node14" class="node">
<title>Node119</title>
<g id="a_node14"><a xlink:href="classgame_1_1penguin_1_1_board.html#acae84c13dacef3bd988d1ea9a41d055f" target="_top" xlink:title="Get a player by it&#39;s id. ">
<polygon fill="none" stroke="#000000" points="545.5,-158.5 545.5,-188.5 669.5,-188.5 669.5,-158.5 545.5,-158.5"/>
<text text-anchor="start" x="553.5" y="-176.5" font-family="Helvetica,sans-Serif" font-size="10.00" fill="#000000">game::penguin::Board</text>
<text text-anchor="middle" x="607.5" y="-165.5" font-family="Helvetica,sans-Serif" font-size="10.00" fill="#000000">::getPawnById</text>
</a>
</g>
</g>
<!-- Node116&#45;&gt;Node119 -->
<g id="edge13" class="edge">
<title>Node116&#45;&gt;Node119</title>
<path fill="none" stroke="#191970" d="M500.0172,-173.5C511.6161,-173.5 523.6352,-173.5 535.2514,-173.5"/>
<polygon fill="#191970" stroke="#191970" points="535.3351,-177.0001 545.3351,-173.5 535.335,-170.0001 535.3351,-177.0001"/>
</g>
</g>
</svg>
        <g id="navigator" transform="translate(0 0)" fill="#404254">
                <rect fill="#f2f5e9" fill-opacity="0.5" stroke="#606060" stroke-width=".5" x="0" y="0" width="60" height="60"/>
                <use id="zoomplus" xlink:href="#zoomPlus" x="17" y="9" onmousedown="handleZoom(evt,'in')"/>
                <use id="zoomminus" xlink:href="#zoomMin" x="42" y="9" onmousedown="handleZoom(evt,'out')"/>
                <use id="reset" xlink:href="#resetDef" x="30" y="36" onmousedown="handleReset()"/>
                <g id="arrowUp" xlink:href="#dirArrow" transform="translate(30 24)" onmousedown="handlePan(0,-1)">
                  <use xlink:href="#rim" fill="#404040">
                        <set attributeName="fill" to="#808080" begin="arrowUp.mouseover" end="arrowUp.mouseout"/>
                  </use>
                  <path fill="none" stroke="white" stroke-width="1.5" d="M0,-3.0v7 M-2.5,-0.5L0,-3.0L2.5,-0.5"/>
                </g>
                <g id="arrowRight" xlink:href="#dirArrow" transform="rotate(90) translate(36 -43)" onmousedown="handlePan(1,0)">
                  <use xlink:href="#rim" fill="#404040">
                        <set attributeName="fill" to="#808080" begin="arrowRight.mouseover" end="arrowRight.mouseout"/>
                  </use>
                  <path fill="none" stroke="white" stroke-width="1.5" d="M0,-3.0v7 M-2.5,-0.5L0,-3.0L2.5,-0.5"/>
                </g>
                <g id="arrowDown" xlink:href="#dirArrow" transform="rotate(180) translate(-30 -48)" onmousedown="handlePan(0,1)">
                  <use xlink:href="#rim" fill="#404040">
                        <set attributeName="fill" to="#808080" begin="arrowDown.mouseover" end="arrowDown.mouseout"/>
                  </use>
                  <path fill="none" stroke="white" stroke-width="1.5" d="M0,-3.0v7 M-2.5,-0.5L0,-3.0L2.5,-0.5"/>
                </g>
                <g id="arrowLeft" xlink:href="#dirArrow" transform="rotate(270) translate(-36 17)" onmousedown="handlePan(-1,0)">
                  <use xlink:href="#rim" fill="#404040">
                        <set attributeName="fill" to="#808080" begin="arrowLeft.mouseover" end="arrowLeft.mouseout"/>
                  </use>
                  <path fill="none" stroke="white" stroke-width="1.5" d="M0,-3.0v7 M-2.5,-0.5L0,-3.0L2.5,-0.5"/>
                </g>
        </g>
        <svg viewBox="0 0 15 15" width="100%" height="30px" preserveAspectRatio="xMaxYMin meet">
         <g id="arrow_out" transform="scale(0.3 0.3)">
          <a xlink:href="classgame_1_1penguin_1_1_board_a45ecb5bba50b4d03592ac4ddf9255b49_cgraph_org.svg" target="_base">
           <rect id="button" ry="5" rx="5" y="6" x="6" height="38" width="38"
                fill="#f2f5e9" fill-opacity="0.5" stroke="#606060" stroke-width="1.0"/>
           <path id="arrow"
             d="M 11.500037,31.436501 C 11.940474,20.09759 22.043105,11.32322 32.158766,21.979434 L 37.068811,17.246167 C 37.068811,17.246167 37.088388,32 37.088388,32 L 22.160133,31.978069 C 22.160133,31.978069 26.997745,27.140456 26.997745,27.140456 C 18.528582,18.264221 13.291696,25.230495 11.500037,31.436501 z"
             style="fill:#404040;"/>
          </a>
         </g>
        </svg>
</svg>
