<?xml version="1.0" encoding="UTF-8" standalone="no"?>
<!DOCTYPE svg PUBLIC "-//W3C//DTD SVG 1.1//EN"
 "http://www.w3.org/Graphics/SVG/1.1/DTD/svg11.dtd">
<!-- Generated by graphviz version 2.40.1 (20161225.0304)
 -->
<!-- Title: game::penguin::Board::performMove Pages: 1 -->
<!--zoomable 480 -->
<svg id="main" version="1.1" xmlns="http://www.w3.org/2000/svg" xmlns:xlink="http://www.w3.org/1999/xlink" xml:space="preserve" onload="init(evt)">
<style type="text/css"><![CDATA[
.edge:hover path { stroke: red; }
.edge:hover polygon { stroke: red; fill: red; }
]]></style>
<script type="text/javascript"><![CDATA[
var edges = document.getElementsByTagName('g');
if (edges && edges.length) {
  for (var i=0;i<edges.length;i++) {
    if (edges[i].id.substr(0,4)=='edge') {
      edges[i].setAttribute('class','edge');
    }
  }
}
]]></script>
        <defs>
                <circle id="rim" cx="0" cy="0" r="7"/>
                <circle id="rim2" cx="0" cy="0" r="3.5"/>
                <g id="zoomPlus">
                        <use xlink:href="#rim" fill="#404040">
                                <set attributeName="fill" to="#808080" begin="zoomplus.mouseover" end="zoomplus.mouseout"/>
                        </use>
                        <path d="M-4,0h8M0,-4v8" fill="none" stroke="white" stroke-width="1.5" pointer-events="none"/>
                </g>
                <g id="zoomMin">
                        <use xlink:href="#rim" fill="#404040">
                                <set attributeName="fill" to="#808080" begin="zoomminus.mouseover" end="zoomminus.mouseout"/>
                        </use>
                        <path d="M-4,0h8" fill="none" stroke="white" stroke-width="1.5" pointer-events="none"/>
                </g>
                <g id="dirArrow">
                        <path fill="none" stroke="white" stroke-width="1.5" d="M0,-3.0v7 M-2.5,-0.5L0,-3.0L2.5,-0.5"/>
                </g>
               <g id="resetDef">
                       <use xlink:href="#rim2" fill="#404040">
                               <set attributeName="fill" to="#808080" begin="reset.mouseover" end="reset.mouseout"/>
                       </use>
               </g>
        </defs>

<script type="text/javascript">
var viewWidth = 687;
var viewHeight = 480;
var sectionId = 'dynsection-16';
</script>
<script xlink:href="svgpan.js"/>
<svg id="graph" class="graph">
<g id="viewport">
<title>game::penguin::Board::performMove</title>
<!-- Node84 -->
<g id="node1" class="node">
<title>Node84</title>
<polygon fill="#bfbfbf" stroke="#000000" points="0,-220.5 0,-250.5 124,-250.5 124,-220.5 0,-220.5"/>
<text text-anchor="start" x="8" y="-238.5" font-family="Helvetica,sans-Serif" font-size="10.00" fill="#000000">game::penguin::Board</text>
<text text-anchor="middle" x="62" y="-227.5" font-family="Helvetica,sans-Serif" font-size="10.00" fill="#000000">::performMove</text>
</g>
<!-- Node85 -->
<g id="node2" class="node">
<title>Node85</title>
<g id="a_node2"><a xlink:href="classgame_1_1_abstract_pawn.html#aac49fdd8bd4aa4386fd47d3f6993b8df" target="_top" xlink:title="game::AbstractPawn\l::getOwner">
<polygon fill="none" stroke="#000000" points="182.5,-441.5 182.5,-471.5 298.5,-471.5 298.5,-441.5 182.5,-441.5"/>
<text text-anchor="start" x="190.5" y="-459.5" font-family="Helvetica,sans-Serif" font-size="10.00" fill="#000000">game::AbstractPawn</text>
<text text-anchor="middle" x="240.5" y="-448.5" font-family="Helvetica,sans-Serif" font-size="10.00" fill="#000000">::getOwner</text>
</a>
</g>
</g>
<!-- Node84&#45;&gt;Node85 -->
<g id="edge1" class="edge">
<title>Node84&#45;&gt;Node85</title>
<path fill="none" stroke="#191970" d="M65.1693,-250.643C73.6765,-287.4884 100.5173,-382.4529 160,-432.5 163.9441,-435.8184 168.3335,-438.678 172.9701,-441.1422"/>
<polygon fill="#191970" stroke="#191970" points="171.5963,-444.3633 182.1393,-445.4104 174.5504,-438.0172 171.5963,-444.3633"/>
</g>
<!-- Node86 -->
<g id="node3" class="node">
<title>Node86</title>
<g id="a_node3"><a xlink:href="classgame_1_1_abstract_pawn.html#ae9ad3bf0ee738571d0dd5992feae6bb7" target="_top" xlink:title="game::AbstractPawn\l::getCurrentCell">
<polygon fill="none" stroke="#000000" points="182.5,-392.5 182.5,-422.5 298.5,-422.5 298.5,-392.5 182.5,-392.5"/>
<text text-anchor="start" x="190.5" y="-410.5" font-family="Helvetica,sans-Serif" font-size="10.00" fill="#000000">game::AbstractPawn</text>
<text text-anchor="middle" x="240.5" y="-399.5" font-family="Helvetica,sans-Serif" font-size="10.00" fill="#000000">::getCurrentCell</text>
</a>
</g>
</g>
<!-- Node84&#45;&gt;Node86 -->
<g id="edge2" class="edge">
<title>Node84&#45;&gt;Node86</title>
<path fill="none" stroke="#191970" d="M67.8177,-250.6098C80.1315,-280.5755 111.7221,-347.7174 160,-383.5 163.9652,-386.439 168.289,-389.0203 172.8071,-391.2872"/>
<polygon fill="#191970" stroke="#191970" points="171.7425,-394.6443 182.3017,-395.5126 174.5886,-388.249 171.7425,-394.6443"/>
</g>
<!-- Node87 -->
<g id="node4" class="node">
<title>Node87</title>
<g id="a_node4"><a xlink:href="classgame_1_1penguin_1_1_board.html#a2864b1af9dbdf19273185c504257435c" target="_top" xlink:title="Checks wether or not the move is allowed to be performed. ">
<polygon fill="none" stroke="#000000" points="178.5,-343.5 178.5,-373.5 302.5,-373.5 302.5,-343.5 178.5,-343.5"/>
<text text-anchor="start" x="186.5" y="-361.5" font-family="Helvetica,sans-Serif" font-size="10.00" fill="#000000">game::penguin::Board</text>
<text text-anchor="middle" x="240.5" y="-350.5" font-family="Helvetica,sans-Serif" font-size="10.00" fill="#000000">::checkForCorrectness</text>
</a>
</g>
</g>
<!-- Node84&#45;&gt;Node87 -->
<g id="edge3" class="edge">
<title>Node84&#45;&gt;Node87</title>
<path fill="none" stroke="#191970" d="M72.9117,-250.5766C89.3825,-272.2646 122.6648,-312.1146 160,-334.5 162.9667,-336.2787 166.0746,-337.9339 169.2722,-339.4731"/>
<polygon fill="#191970" stroke="#191970" points="167.9145,-342.6994 178.4782,-343.5102 170.7258,-336.2887 167.9145,-342.6994"/>
</g>
<!-- Node91 -->
<g id="node8" class="node">
<title>Node91</title>
<g id="a_node8"><a xlink:href="classgame_1_1penguin_1_1_board_cell.html#a802b2f75d1e3136146625266f6a2c03a" target="_top" xlink:title="Get the Position object. ">
<polygon fill="none" stroke="#000000" points="169,-294.5 169,-324.5 312,-324.5 312,-294.5 169,-294.5"/>
<text text-anchor="start" x="177" y="-312.5" font-family="Helvetica,sans-Serif" font-size="10.00" fill="#000000">game::penguin::BoardCell</text>
<text text-anchor="middle" x="240.5" y="-301.5" font-family="Helvetica,sans-Serif" font-size="10.00" fill="#000000">::getPosition</text>
</a>
</g>
</g>
<!-- Node84&#45;&gt;Node91 -->
<g id="edge7" class="edge">
<title>Node84&#45;&gt;Node91</title>
<path fill="none" stroke="#191970" d="M88.4244,-250.6454C107.8073,-261.34 134.9973,-275.4915 160,-285.5 164.9926,-287.4985 170.2171,-289.4192 175.5031,-291.2431"/>
<polygon fill="#191970" stroke="#191970" points="174.4542,-294.5827 185.0477,-294.4174 176.6633,-287.9404 174.4542,-294.5827"/>
</g>
<!-- Node92 -->
<g id="node9" class="node">
<title>Node92</title>
<g id="a_node9"><a xlink:href="classgame_1_1penguin_1_1_board_cell.html#a923c503caf2ed45b2fb0f49eb0cf3201" target="_top" xlink:title="Nobody owns the cell now. ">
<polygon fill="none" stroke="#000000" points="169,-245.5 169,-275.5 312,-275.5 312,-245.5 169,-245.5"/>
<text text-anchor="start" x="177" y="-263.5" font-family="Helvetica,sans-Serif" font-size="10.00" fill="#000000">game::penguin::BoardCell</text>
<text text-anchor="middle" x="240.5" y="-252.5" font-family="Helvetica,sans-Serif" font-size="10.00" fill="#000000">::clearOwner</text>
</a>
</g>
</g>
<!-- Node84&#45;&gt;Node92 -->
<g id="edge8" class="edge">
<title>Node84&#45;&gt;Node92</title>
<path fill="none" stroke="#191970" d="M124.1801,-244.2087C135.3082,-245.7673 147.0566,-247.4127 158.6379,-249.0347"/>
<polygon fill="#191970" stroke="#191970" points="158.3638,-252.5304 168.7526,-250.4513 159.3348,-245.5981 158.3638,-252.5304"/>
</g>
<!-- Node93 -->
<g id="node10" class="node">
<title>Node93</title>
<g id="a_node10"><a xlink:href="classgame_1_1penguin_1_1_board_cell.html#a097c6986431cadcf0adac373fe01ccee" target="_top" xlink:title="Sets the gone flag. ">
<polygon fill="none" stroke="#000000" points="169,-196.5 169,-226.5 312,-226.5 312,-196.5 169,-196.5"/>
<text text-anchor="start" x="177" y="-214.5" font-family="Helvetica,sans-Serif" font-size="10.00" fill="#000000">game::penguin::BoardCell</text>
<text text-anchor="middle" x="240.5" y="-203.5" font-family="Helvetica,sans-Serif" font-size="10.00" fill="#000000">::setGone</text>
</a>
</g>
</g>
<!-- Node84&#45;&gt;Node93 -->
<g id="edge9" class="edge">
<title>Node84&#45;&gt;Node93</title>
<path fill="none" stroke="#191970" d="M124.1801,-227.1397C135.3082,-225.6434 147.0566,-224.0638 158.6379,-222.5067"/>
<polygon fill="#191970" stroke="#191970" points="159.3082,-225.9481 168.7526,-221.1467 158.3754,-219.0106 159.3082,-225.9481"/>
</g>
<!-- Node94 -->
<g id="node11" class="node">
<title>Node94</title>
<g id="a_node11"><a xlink:href="classgame_1_1penguin_1_1_board_cell.html#a5d3fd7b5a5e170bd6fbc101f5240f4b1" target="_top" xlink:title="Set the penguin who stands on the cell, ie the cell&#39;s owner atm. ">
<polygon fill="none" stroke="#000000" points="169,-147.5 169,-177.5 312,-177.5 312,-147.5 169,-147.5"/>
<text text-anchor="start" x="177" y="-165.5" font-family="Helvetica,sans-Serif" font-size="10.00" fill="#000000">game::penguin::BoardCell</text>
<text text-anchor="middle" x="240.5" y="-154.5" font-family="Helvetica,sans-Serif" font-size="10.00" fill="#000000">::setOwner</text>
</a>
</g>
</g>
<!-- Node84&#45;&gt;Node94 -->
<g id="edge10" class="edge">
<title>Node84&#45;&gt;Node94</title>
<path fill="none" stroke="#191970" d="M89.7836,-220.4613C109.1246,-210.3496 135.7042,-197.1557 160,-187.5 165.801,-185.1945 171.9039,-182.9633 178.0469,-180.8455"/>
<polygon fill="#191970" stroke="#191970" points="179.3233,-184.1092 187.6957,-177.6166 177.1019,-177.471 179.3233,-184.1092"/>
</g>
<!-- Node95 -->
<g id="node12" class="node">
<title>Node95</title>
<g id="a_node12"><a xlink:href="classgame_1_1penguin_1_1_human_player.html#a1474720bb1f767c195ac316dd6a8ee82" target="_top" xlink:title="Adds to the score;. ">
<polygon fill="none" stroke="#000000" points="160,-98.5 160,-128.5 321,-128.5 321,-98.5 160,-98.5"/>
<text text-anchor="start" x="168" y="-116.5" font-family="Helvetica,sans-Serif" font-size="10.00" fill="#000000">game::penguin::HumanPlayer</text>
<text text-anchor="middle" x="240.5" y="-105.5" font-family="Helvetica,sans-Serif" font-size="10.00" fill="#000000">::addScore</text>
</a>
</g>
</g>
<!-- Node84&#45;&gt;Node95 -->
<g id="edge11" class="edge">
<title>Node84&#45;&gt;Node95</title>
<path fill="none" stroke="#191970" d="M73.2936,-220.4387C89.9869,-199.1923 123.262,-160.5564 160,-138.5 163.5993,-136.3391 167.4028,-134.3485 171.3196,-132.5173"/>
<polygon fill="#191970" stroke="#191970" points="172.8102,-135.6864 180.6214,-128.5284 170.0513,-129.253 172.8102,-135.6864"/>
</g>
<!-- Node96 -->
<g id="node13" class="node">
<title>Node96</title>
<g id="a_node13"><a xlink:href="classgame_1_1penguin_1_1_board_cell.html#abe8f2dc0eef3aed1e8701dc0b021c5a6" target="_top" xlink:title="Get the number of fish contained inside the cell. ">
<polygon fill="none" stroke="#000000" points="169,-49.5 169,-79.5 312,-79.5 312,-49.5 169,-49.5"/>
<text text-anchor="start" x="177" y="-67.5" font-family="Helvetica,sans-Serif" font-size="10.00" fill="#000000">game::penguin::BoardCell</text>
<text text-anchor="middle" x="240.5" y="-56.5" font-family="Helvetica,sans-Serif" font-size="10.00" fill="#000000">::getFish</text>
</a>
</g>
</g>
<!-- Node84&#45;&gt;Node96 -->
<g id="edge12" class="edge">
<title>Node84&#45;&gt;Node96</title>
<path fill="none" stroke="#191970" d="M67.8468,-220.4921C80.2129,-190.7285 111.8931,-124.0396 160,-88.5 162.0527,-86.9835 164.201,-85.5622 166.4221,-84.2302"/>
<polygon fill="#191970" stroke="#191970" points="168.1067,-87.2986 175.3026,-79.5223 164.828,-81.1139 168.1067,-87.2986"/>
</g>
<!-- Node103 -->
<g id="node20" class="node">
<title>Node103</title>
<g id="a_node20"><a xlink:href="classgame_1_1_abstract_board.html#ac2b6d96389ad0ac58d22323d75f91f97" target="_top" xlink:title="perform a movement on the board, sets the current cell on the pawn ">
<polygon fill="none" stroke="#000000" points="181,-.5 181,-30.5 300,-30.5 300,-.5 181,-.5"/>
<text text-anchor="start" x="189" y="-18.5" font-family="Helvetica,sans-Serif" font-size="10.00" fill="#000000">game::AbstractBoard</text>
<text text-anchor="middle" x="240.5" y="-7.5" font-family="Helvetica,sans-Serif" font-size="10.00" fill="#000000">::performMove</text>
</a>
</g>
</g>
<!-- Node84&#45;&gt;Node103 -->
<g id="edge20" class="edge">
<title>Node84&#45;&gt;Node103</title>
<path fill="none" stroke="#191970" d="M65.1934,-220.4327C73.755,-183.7715 100.7086,-89.2833 160,-39.5 163.5513,-36.5182 167.4623,-33.9068 171.5889,-31.6199"/>
<polygon fill="#191970" stroke="#191970" points="173.4309,-34.6171 180.9111,-27.1139 170.3845,-28.3147 173.4309,-34.6171"/>
</g>
<!-- Node88 -->
<g id="node5" class="node">
<title>Node88</title>
<g id="a_node5"><a xlink:href="namespacegame.html#a758b3d0eea6eae0e6ce5ea1b8dc90ed9" target="_top" xlink:title="Converts an axial position to a cube position in an hexagonal grid. ">
<polygon fill="none" stroke="#000000" points="358,-289 358,-308 499,-308 499,-289 358,-289"/>
<text text-anchor="middle" x="428.5" y="-296" font-family="Helvetica,sans-Serif" font-size="10.00" fill="#000000">game::hex_axial_to_cube</text>
</a>
</g>
</g>
<!-- Node87&#45;&gt;Node88 -->
<g id="edge4" class="edge">
<title>Node87&#45;&gt;Node88</title>
<path fill="none" stroke="#191970" d="M292.1113,-343.3912C301.7307,-340.4963 311.6842,-337.4476 321,-334.5 324.5193,-333.3864 360.8398,-321.2121 390.3037,-311.3247"/>
<polygon fill="#191970" stroke="#191970" points="391.609,-314.5786 399.9756,-308.0786 389.3816,-307.9424 391.609,-314.5786"/>
</g>
<!-- Node89 -->
<g id="node6" class="node">
<title>Node89</title>
<g id="a_node6"><a xlink:href="classgame_1_1penguin_1_1_board_cell.html#a6a978b7e72ef20475771eb6e453e0a39" target="_top" xlink:title="tells if the cell is gone or not ">
<polygon fill="none" stroke="#000000" points="357,-365.5 357,-395.5 500,-395.5 500,-365.5 357,-365.5"/>
<text text-anchor="start" x="365" y="-383.5" font-family="Helvetica,sans-Serif" font-size="10.00" fill="#000000">game::penguin::BoardCell</text>
<text text-anchor="middle" x="428.5" y="-372.5" font-family="Helvetica,sans-Serif" font-size="10.00" fill="#000000">::isGone</text>
</a>
</g>
</g>
<!-- Node87&#45;&gt;Node89 -->
<g id="edge5" class="edge">
<title>Node87&#45;&gt;Node89</title>
<path fill="none" stroke="#191970" d="M302.5793,-365.7646C316.657,-367.412 331.8187,-369.1862 346.5765,-370.9132"/>
<polygon fill="#191970" stroke="#191970" points="346.3717,-374.413 356.7107,-372.0991 347.1853,-367.4605 346.3717,-374.413"/>
</g>
<!-- Node90 -->
<g id="node7" class="node">
<title>Node90</title>
<g id="a_node7"><a xlink:href="classgame_1_1penguin_1_1_board_cell.html#a12cd55e333821bcecaa201dde758c1a1" target="_top" xlink:title="Is a penguin on the cell. ">
<polygon fill="none" stroke="#000000" points="536,-297.5 536,-327.5 679,-327.5 679,-297.5 536,-297.5"/>
<text text-anchor="start" x="544" y="-315.5" font-family="Helvetica,sans-Serif" font-size="10.00" fill="#000000">game::penguin::BoardCell</text>
<text text-anchor="middle" x="607.5" y="-304.5" font-family="Helvetica,sans-Serif" font-size="10.00" fill="#000000">::isOwned</text>
</a>
</g>
</g>
<!-- Node87&#45;&gt;Node90 -->
<g id="edge6" class="edge">
<title>Node87&#45;&gt;Node90</title>
<path fill="none" stroke="#191970" d="M302.7565,-350.6967C364.1275,-343.0045 458.2481,-331.2073 525.6444,-322.7598"/>
<polygon fill="#191970" stroke="#191970" points="526.3173,-326.203 535.8044,-321.4864 525.4467,-319.2573 526.3173,-326.203"/>
</g>
<!-- Node97 -->
<g id="node14" class="node">
<title>Node97</title>
<g id="a_node14"><a xlink:href="classgame_1_1penguin_1_1_board_cell.html#a1ed5a3134f831bef111c6294c07388bf" target="_top" xlink:title="game::penguin::BoardCell\l::equals_to">
<polygon fill="none" stroke="#000000" points="357,-49.5 357,-79.5 500,-79.5 500,-49.5 357,-49.5"/>
<text text-anchor="start" x="365" y="-67.5" font-family="Helvetica,sans-Serif" font-size="10.00" fill="#000000">game::penguin::BoardCell</text>
<text text-anchor="middle" x="428.5" y="-56.5" font-family="Helvetica,sans-Serif" font-size="10.00" fill="#000000">::equals_to</text>
</a>
</g>
</g>
<!-- Node96&#45;&gt;Node97 -->
<g id="edge13" class="edge">
<title>Node96&#45;&gt;Node97</title>
<path fill="none" stroke="#191970" d="M312.111,-64.5C323.4273,-64.5 335.2033,-64.5 346.7296,-64.5"/>
<polygon fill="#191970" stroke="#191970" points="346.7768,-68.0001 356.7768,-64.5 346.7768,-61.0001 346.7768,-68.0001"/>
</g>
<!-- Node99 -->
<g id="node16" class="node">
<title>Node99</title>
<g id="a_node16"><a xlink:href="classgame_1_1penguin_1_1_board_cell.html#a4d3577488552bf0ba4822ac265532825" target="_top" xlink:title="game::penguin::BoardCell\l::clone">
<polygon fill="none" stroke="#000000" points="357,-172.5 357,-202.5 500,-202.5 500,-172.5 357,-172.5"/>
<text text-anchor="start" x="365" y="-190.5" font-family="Helvetica,sans-Serif" font-size="10.00" fill="#000000">game::penguin::BoardCell</text>
<text text-anchor="middle" x="428.5" y="-179.5" font-family="Helvetica,sans-Serif" font-size="10.00" fill="#000000">::clone</text>
</a>
</g>
</g>
<!-- Node96&#45;&gt;Node99 -->
<g id="edge15" class="edge">
<title>Node96&#45;&gt;Node99</title>
<path fill="none" stroke="#191970" d="M301.9419,-79.5958C308.5576,-82.1592 315.0415,-85.1121 321,-88.5 356.3581,-108.6042 389.5887,-142.3522 409.4905,-164.772"/>
<polygon fill="#191970" stroke="#191970" points="406.9914,-167.2317 416.199,-172.4731 412.2697,-162.6338 406.9914,-167.2317"/>
</g>
<!-- Node98 -->
<g id="node15" class="node">
<title>Node98</title>
<g id="a_node15"><a xlink:href="classgame_1_1_abstract_pawn.html#a49354506912d0e1bf5272627aa2bc86e" target="_top" xlink:title="Get pawn&#39;s id. ">
<polygon fill="none" stroke="#000000" points="549.5,-49.5 549.5,-79.5 665.5,-79.5 665.5,-49.5 549.5,-49.5"/>
<text text-anchor="start" x="557.5" y="-67.5" font-family="Helvetica,sans-Serif" font-size="10.00" fill="#000000">game::AbstractPawn</text>
<text text-anchor="middle" x="607.5" y="-56.5" font-family="Helvetica,sans-Serif" font-size="10.00" fill="#000000">::getId</text>
</a>
</g>
</g>
<!-- Node97&#45;&gt;Node98 -->
<g id="edge14" class="edge">
<title>Node97&#45;&gt;Node98</title>
<path fill="none" stroke="#191970" d="M500.0172,-64.5C512.9262,-64.5 526.3557,-64.5 539.1708,-64.5"/>
<polygon fill="#191970" stroke="#191970" points="539.295,-68.0001 549.2949,-64.5 539.2949,-61.0001 539.295,-68.0001"/>
</g>
<!-- Node99&#45;&gt;Node90 -->
<g id="edge17" class="edge">
<title>Node99&#45;&gt;Node90</title>
<path fill="none" stroke="#191970" d="M450.0916,-202.5779C481.8083,-224.7265 541.1269,-266.1501 577.1941,-291.3367"/>
<polygon fill="#191970" stroke="#191970" points="575.6292,-294.5127 585.8318,-297.3686 579.637,-288.7736 575.6292,-294.5127"/>
</g>
<!-- Node100 -->
<g id="node17" class="node">
<title>Node100</title>
<g id="a_node17"><a xlink:href="classgame_1_1penguin_1_1_board_cell.html#a2c76e638f5d0d4374b422756b08cb61f" target="_top" xlink:title="Construct a new Board Cell object. ">
<polygon fill="none" stroke="#000000" points="536,-123.5 536,-153.5 679,-153.5 679,-123.5 536,-123.5"/>
<text text-anchor="start" x="544" y="-141.5" font-family="Helvetica,sans-Serif" font-size="10.00" fill="#000000">game::penguin::BoardCell</text>
<text text-anchor="middle" x="607.5" y="-130.5" font-family="Helvetica,sans-Serif" font-size="10.00" fill="#000000">::BoardCell</text>
</a>
</g>
</g>
<!-- Node99&#45;&gt;Node100 -->
<g id="edge16" class="edge">
<title>Node99&#45;&gt;Node100</title>
<path fill="none" stroke="#191970" d="M483.6665,-172.3986C502.3842,-167.2747 523.4635,-161.5044 542.8526,-156.1968"/>
<polygon fill="#191970" stroke="#191970" points="543.7946,-159.5677 552.5157,-153.5516 541.9464,-152.8161 543.7946,-159.5677"/>
</g>
<!-- Node101 -->
<g id="node18" class="node">
<title>Node101</title>
<g id="a_node18"><a xlink:href="classgame_1_1penguin_1_1_board.html#acae84c13dacef3bd988d1ea9a41d055f" target="_top" xlink:title="Get a player by it&#39;s id. ">
<polygon fill="none" stroke="#000000" points="545.5,-221.5 545.5,-251.5 669.5,-251.5 669.5,-221.5 545.5,-221.5"/>
<text text-anchor="start" x="553.5" y="-239.5" font-family="Helvetica,sans-Serif" font-size="10.00" fill="#000000">game::penguin::Board</text>
<text text-anchor="middle" x="607.5" y="-228.5" font-family="Helvetica,sans-Serif" font-size="10.00" fill="#000000">::getPawnById</text>
</a>
</g>
</g>
<!-- Node99&#45;&gt;Node101 -->
<g id="edge18" class="edge">
<title>Node99&#45;&gt;Node101</title>
<path fill="none" stroke="#191970" d="M483.6665,-202.6014C502.3842,-207.7253 523.4635,-213.4956 542.8526,-218.8032"/>
<polygon fill="#191970" stroke="#191970" points="541.9464,-222.1839 552.5157,-221.4484 543.7946,-215.4323 541.9464,-222.1839"/>
</g>
<!-- Node102 -->
<g id="node19" class="node">
<title>Node102</title>
<g id="a_node19"><a xlink:href="classgame_1_1penguin_1_1_board_cell.html#a011487b961b356a891144edcccc1473f" target="_top" xlink:title="Get the penguin standing on the cell. ">
<polygon fill="none" stroke="#000000" points="536,-172.5 536,-202.5 679,-202.5 679,-172.5 536,-172.5"/>
<text text-anchor="start" x="544" y="-190.5" font-family="Helvetica,sans-Serif" font-size="10.00" fill="#000000">game::penguin::BoardCell</text>
<text text-anchor="middle" x="607.5" y="-179.5" font-family="Helvetica,sans-Serif" font-size="10.00" fill="#000000">::getOwner</text>
</a>
</g>
</g>
<!-- Node99&#45;&gt;Node102 -->
<g id="edge19" class="edge">
<title>Node99&#45;&gt;Node102</title>
<path fill="none" stroke="#191970" d="M500.0172,-187.5C508.4862,-187.5 517.1793,-187.5 525.776,-187.5"/>
<polygon fill="#191970" stroke="#191970" points="525.8043,-191.0001 535.8042,-187.5 525.8042,-184.0001 525.8043,-191.0001"/>
</g>
</g>
</svg>
        <g id="navigator" transform="translate(0 0)" fill="#404254">
                <rect fill="#f2f5e9" fill-opacity="0.5" stroke="#606060" stroke-width=".5" x="0" y="0" width="60" height="60"/>
                <use id="zoomplus" xlink:href="#zoomPlus" x="17" y="9" onmousedown="handleZoom(evt,'in')"/>
                <use id="zoomminus" xlink:href="#zoomMin" x="42" y="9" onmousedown="handleZoom(evt,'out')"/>
                <use id="reset" xlink:href="#resetDef" x="30" y="36" onmousedown="handleReset()"/>
                <g id="arrowUp" xlink:href="#dirArrow" transform="translate(30 24)" onmousedown="handlePan(0,-1)">
                  <use xlink:href="#rim" fill="#404040">
                        <set attributeName="fill" to="#808080" begin="arrowUp.mouseover" end="arrowUp.mouseout"/>
                  </use>
                  <path fill="none" stroke="white" stroke-width="1.5" d="M0,-3.0v7 M-2.5,-0.5L0,-3.0L2.5,-0.5"/>
                </g>
                <g id="arrowRight" xlink:href="#dirArrow" transform="rotate(90) translate(36 -43)" onmousedown="handlePan(1,0)">
                  <use xlink:href="#rim" fill="#404040">
                        <set attributeName="fill" to="#808080" begin="arrowRight.mouseover" end="arrowRight.mouseout"/>
                  </use>
                  <path fill="none" stroke="white" stroke-width="1.5" d="M0,-3.0v7 M-2.5,-0.5L0,-3.0L2.5,-0.5"/>
                </g>
                <g id="arrowDown" xlink:href="#dirArrow" transform="rotate(180) translate(-30 -48)" onmousedown="handlePan(0,1)">
                  <use xlink:href="#rim" fill="#404040">
                        <set attributeName="fill" to="#808080" begin="arrowDown.mouseover" end="arrowDown.mouseout"/>
                  </use>
                  <path fill="none" stroke="white" stroke-width="1.5" d="M0,-3.0v7 M-2.5,-0.5L0,-3.0L2.5,-0.5"/>
                </g>
                <g id="arrowLeft" xlink:href="#dirArrow" transform="rotate(270) translate(-36 17)" onmousedown="handlePan(-1,0)">
                  <use xlink:href="#rim" fill="#404040">
                        <set attributeName="fill" to="#808080" begin="arrowLeft.mouseover" end="arrowLeft.mouseout"/>
                  </use>
                  <path fill="none" stroke="white" stroke-width="1.5" d="M0,-3.0v7 M-2.5,-0.5L0,-3.0L2.5,-0.5"/>
                </g>
        </g>
        <svg viewBox="0 0 15 15" width="100%" height="30px" preserveAspectRatio="xMaxYMin meet">
         <g id="arrow_out" transform="scale(0.3 0.3)">
          <a xlink:href="classgame_1_1penguin_1_1_board_af297dc572afb02dafc61e3b8e849338f_cgraph_org.svg" target="_base">
           <rect id="button" ry="5" rx="5" y="6" x="6" height="38" width="38"
                fill="#f2f5e9" fill-opacity="0.5" stroke="#606060" stroke-width="1.0"/>
           <path id="arrow"
             d="M 11.500037,31.436501 C 11.940474,20.09759 22.043105,11.32322 32.158766,21.979434 L 37.068811,17.246167 C 37.068811,17.246167 37.088388,32 37.088388,32 L 22.160133,31.978069 C 22.160133,31.978069 26.997745,27.140456 26.997745,27.140456 C 18.528582,18.264221 13.291696,25.230495 11.500037,31.436501 z"
             style="fill:#404040;"/>
          </a>
         </g>
        </svg>
</svg>
