<?xml version="1.0" encoding="UTF-8" standalone="no"?>
<!DOCTYPE svg PUBLIC "-//W3C//DTD SVG 1.1//EN"
 "http://www.w3.org/Graphics/SVG/1.1/DTD/svg11.dtd">
<!-- Generated by graphviz version 2.40.1 (20161225.0304)
 -->
<!-- Title: is_detected Pages: 1 -->
<svg width="202pt" height="171pt"
 viewBox="0.00 0.00 202.00 171.00" xmlns="http://www.w3.org/2000/svg" xmlns:xlink="http://www.w3.org/1999/xlink">
<g id="graph0" class="graph" transform="scale(1 1) rotate(0) translate(4 167)">
<title>is_detected</title>
<!-- Node0 -->
<g id="node1" class="node">
<title>Node0</title>
<polygon fill="#bfbfbf" stroke="#000000" points="60.5,-105.5 60.5,-162.5 133.5,-162.5 133.5,-105.5 60.5,-105.5"/>
<text text-anchor="middle" x="97" y="-150.5" font-family="Helvetica,sans-Serif" font-size="10.00" fill="#000000">is_detected</text>
<polyline fill="none" stroke="#000000" points="60.5,-143.5 133.5,-143.5 "/>
<text text-anchor="middle" x="97" y="-131.5" font-family="Helvetica,sans-Serif" font-size="10.00" fill="#000000"> </text>
<polyline fill="none" stroke="#000000" points="60.5,-124.5 133.5,-124.5 "/>
<text text-anchor="middle" x="97" y="-112.5" font-family="Helvetica,sans-Serif" font-size="10.00" fill="#000000"> </text>
</g>
<!-- Node1 -->
<g id="node2" class="node">
<title>Node1</title>
<g id="a_node2"><a xlink:href="structdbg_1_1detail_1_1has__ostream__operator.html" target="_top" xlink:title="{dbg::detail::has_ostream\l_operator\&lt; ostream_operator_t, T \&gt;\n||}">
<polygon fill="none" stroke="#000000" points="0,-.5 0,-68.5 194,-68.5 194,-.5 0,-.5"/>
<text text-anchor="start" x="8" y="-56.5" font-family="Helvetica,sans-Serif" font-size="10.00" fill="#000000">dbg::detail::has_ostream</text>
<text text-anchor="middle" x="97" y="-45.5" font-family="Helvetica,sans-Serif" font-size="10.00" fill="#000000">_operator&lt; ostream_operator_t, T &gt;</text>
<polyline fill="none" stroke="#000000" points="0,-38.5 194,-38.5 "/>
<text text-anchor="middle" x="97" y="-26.5" font-family="Helvetica,sans-Serif" font-size="10.00" fill="#000000"> </text>
<polyline fill="none" stroke="#000000" points="0,-19.5 194,-19.5 "/>
<text text-anchor="middle" x="97" y="-7.5" font-family="Helvetica,sans-Serif" font-size="10.00" fill="#000000"> </text>
</a>
</g>
</g>
<!-- Node0&#45;&gt;Node1 -->
<g id="edge1" class="edge">
<title>Node0&#45;&gt;Node1</title>
<path fill="none" stroke="#191970" d="M97,-95.4268C97,-86.6025 97,-77.2834 97,-68.6596"/>
<polygon fill="none" stroke="#191970" points="93.5001,-95.4873 97,-105.4873 100.5001,-95.4873 93.5001,-95.4873"/>
</g>
</g>
</svg>
