<?xml version="1.0" encoding="UTF-8" standalone="no"?>
<!DOCTYPE svg PUBLIC "-//W3C//DTD SVG 1.1//EN"
 "http://www.w3.org/Graphics/SVG/1.1/DTD/svg11.dtd">
<!-- Generated by graphviz version 2.40.1 (20161225.0304)
 -->
<!-- Title: game::penguin::ConsoleGame::draw Pages: 1 -->
<!--zoomable 340 -->
<svg id="main" version="1.1" xmlns="http://www.w3.org/2000/svg" xmlns:xlink="http://www.w3.org/1999/xlink" xml:space="preserve" onload="init(evt)">
<style type="text/css"><![CDATA[
.edge:hover path { stroke: red; }
.edge:hover polygon { stroke: red; fill: red; }
]]></style>
<script type="text/javascript"><![CDATA[
var edges = document.getElementsByTagName('g');
if (edges && edges.length) {
  for (var i=0;i<edges.length;i++) {
    if (edges[i].id.substr(0,4)=='edge') {
      edges[i].setAttribute('class','edge');
    }
  }
}
]]></script>
        <defs>
                <circle id="rim" cx="0" cy="0" r="7"/>
                <circle id="rim2" cx="0" cy="0" r="3.5"/>
                <g id="zoomPlus">
                        <use xlink:href="#rim" fill="#404040">
                                <set attributeName="fill" to="#808080" begin="zoomplus.mouseover" end="zoomplus.mouseout"/>
                        </use>
                        <path d="M-4,0h8M0,-4v8" fill="none" stroke="white" stroke-width="1.5" pointer-events="none"/>
                </g>
                <g id="zoomMin">
                        <use xlink:href="#rim" fill="#404040">
                                <set attributeName="fill" to="#808080" begin="zoomminus.mouseover" end="zoomminus.mouseout"/>
                        </use>
                        <path d="M-4,0h8" fill="none" stroke="white" stroke-width="1.5" pointer-events="none"/>
                </g>
                <g id="dirArrow">
                        <path fill="none" stroke="white" stroke-width="1.5" d="M0,-3.0v7 M-2.5,-0.5L0,-3.0L2.5,-0.5"/>
                </g>
               <g id="resetDef">
                       <use xlink:href="#rim2" fill="#404040">
                               <set attributeName="fill" to="#808080" begin="reset.mouseover" end="reset.mouseout"/>
                       </use>
               </g>
        </defs>

<script type="text/javascript">
var viewWidth = 884;
var viewHeight = 340;
var sectionId = 'dynsection-3';
</script>
<script xlink:href="svgpan.js"/>
<svg id="graph" class="graph">
<g id="viewport">
<title>game::penguin::ConsoleGame::draw</title>
<!-- Node25 -->
<g id="node1" class="node">
<title>Node25</title>
<polygon fill="#bfbfbf" stroke="#000000" points="0,-139 0,-169 164,-169 164,-139 0,-139"/>
<text text-anchor="start" x="8" y="-157" font-family="Helvetica,sans-Serif" font-size="10.00" fill="#000000">game::penguin::ConsoleGame</text>
<text text-anchor="middle" x="82" y="-146" font-family="Helvetica,sans-Serif" font-size="10.00" fill="#000000">::draw</text>
</g>
<!-- Node26 -->
<g id="node2" class="node">
<title>Node26</title>
<g id="a_node2"><a xlink:href="classgame_1_1penguin_1_1_print_hex.html#a87a58be4fea97f043e6dbe01a3045c1d" target="_top" xlink:title="game::penguin::PrintHex\l::print">
<polygon fill="none" stroke="#000000" points="200,-139 200,-169 337,-169 337,-139 200,-139"/>
<text text-anchor="start" x="208" y="-157" font-family="Helvetica,sans-Serif" font-size="10.00" fill="#000000">game::penguin::PrintHex</text>
<text text-anchor="middle" x="268.5" y="-146" font-family="Helvetica,sans-Serif" font-size="10.00" fill="#000000">::print</text>
</a>
</g>
</g>
<!-- Node25&#45;&gt;Node26 -->
<g id="edge1" class="edge">
<title>Node25&#45;&gt;Node26</title>
<path fill="none" stroke="#191970" d="M164.073,-154C172.5492,-154 181.1504,-154 189.591,-154"/>
<polygon fill="#191970" stroke="#191970" points="189.7879,-157.5001 199.7878,-154 189.7878,-150.5001 189.7879,-157.5001"/>
</g>
<!-- Node27 -->
<g id="node3" class="node">
<title>Node27</title>
<g id="a_node3"><a xlink:href="classgame_1_1penguin_1_1_board.html#ac9fbe04a302208fcb5f66e717182b6d4" target="_top" xlink:title="Get the Cell. ">
<polygon fill="none" stroke="#000000" points="383.5,-301 383.5,-331 507.5,-331 507.5,-301 383.5,-301"/>
<text text-anchor="start" x="391.5" y="-319" font-family="Helvetica,sans-Serif" font-size="10.00" fill="#000000">game::penguin::Board</text>
<text text-anchor="middle" x="445.5" y="-308" font-family="Helvetica,sans-Serif" font-size="10.00" fill="#000000">::getCell</text>
</a>
</g>
</g>
<!-- Node26&#45;&gt;Node27 -->
<g id="edge2" class="edge">
<title>Node26&#45;&gt;Node27</title>
<path fill="none" stroke="#191970" d="M276.0303,-169.266C290.7579,-197.5843 326.0782,-258.4187 373,-292 375.0755,-293.4854 377.2488,-294.8831 379.4934,-296.1979"/>
<polygon fill="#191970" stroke="#191970" points="377.964,-299.3476 388.4491,-300.8684 381.2009,-293.1409 377.964,-299.3476"/>
</g>
<!-- Node28 -->
<g id="node4" class="node">
<title>Node28</title>
<g id="a_node4"><a xlink:href="classgame_1_1penguin_1_1_board_cell.html#a6a978b7e72ef20475771eb6e453e0a39" target="_top" xlink:title="tells if the cell is gone or not ">
<polygon fill="none" stroke="#000000" points="374,-252 374,-282 517,-282 517,-252 374,-252"/>
<text text-anchor="start" x="382" y="-270" font-family="Helvetica,sans-Serif" font-size="10.00" fill="#000000">game::penguin::BoardCell</text>
<text text-anchor="middle" x="445.5" y="-259" font-family="Helvetica,sans-Serif" font-size="10.00" fill="#000000">::isGone</text>
</a>
</g>
</g>
<!-- Node26&#45;&gt;Node28 -->
<g id="edge3" class="edge">
<title>Node26&#45;&gt;Node28</title>
<path fill="none" stroke="#191970" d="M284.4628,-169.0455C304.1092,-186.9801 339.0525,-217.0281 373,-237 379.6867,-240.9339 386.9865,-244.6023 394.2957,-247.9285"/>
<polygon fill="#191970" stroke="#191970" points="392.9485,-251.1593 403.5135,-251.9531 395.7494,-244.7441 392.9485,-251.1593"/>
</g>
<!-- Node29 -->
<g id="node5" class="node">
<title>Node29</title>
<g id="a_node5"><a xlink:href="classgame_1_1penguin_1_1_board_cell.html#a011487b961b356a891144edcccc1473f" target="_top" xlink:title="Get the penguin standing on the cell. ">
<polygon fill="none" stroke="#000000" points="733,-262 733,-292 876,-292 876,-262 733,-262"/>
<text text-anchor="start" x="741" y="-280" font-family="Helvetica,sans-Serif" font-size="10.00" fill="#000000">game::penguin::BoardCell</text>
<text text-anchor="middle" x="804.5" y="-269" font-family="Helvetica,sans-Serif" font-size="10.00" fill="#000000">::getOwner</text>
</a>
</g>
</g>
<!-- Node26&#45;&gt;Node29 -->
<g id="edge4" class="edge">
<title>Node26&#45;&gt;Node29</title>
<path fill="none" stroke="#191970" d="M330.914,-169.0556C344.7637,-172.3618 359.3747,-175.823 373,-179 496.7795,-207.8612 640.7964,-240.3504 727.1915,-259.7233"/>
<polygon fill="#191970" stroke="#191970" points="726.6544,-263.1897 737.1778,-261.9617 728.1855,-256.3591 726.6544,-263.1897"/>
</g>
<!-- Node30 -->
<g id="node6" class="node">
<title>Node30</title>
<g id="a_node6"><a xlink:href="classgame_1_1_abstract_pawn.html#a49354506912d0e1bf5272627aa2bc86e" target="_top" xlink:title="Get pawn&#39;s id. ">
<polygon fill="none" stroke="#000000" points="746.5,-66 746.5,-96 862.5,-96 862.5,-66 746.5,-66"/>
<text text-anchor="start" x="754.5" y="-84" font-family="Helvetica,sans-Serif" font-size="10.00" fill="#000000">game::AbstractPawn</text>
<text text-anchor="middle" x="804.5" y="-73" font-family="Helvetica,sans-Serif" font-size="10.00" fill="#000000">::getId</text>
</a>
</g>
</g>
<!-- Node26&#45;&gt;Node30 -->
<g id="edge5" class="edge">
<title>Node26&#45;&gt;Node30</title>
<path fill="none" stroke="#191970" d="M329.9238,-138.9398C344.0267,-135.7478 358.9937,-132.5705 373,-130 500.1982,-106.6564 650.6604,-92.5966 736.1074,-85.8596"/>
<polygon fill="#191970" stroke="#191970" points="736.5013,-89.3396 746.1996,-85.0742 735.9581,-82.3607 736.5013,-89.3396"/>
</g>
<!-- Node31 -->
<g id="node7" class="node">
<title>Node31</title>
<g id="a_node7"><a xlink:href="classgame_1_1penguin_1_1_board_cell.html#abe8f2dc0eef3aed1e8701dc0b021c5a6" target="_top" xlink:title="Get the number of fish contained inside the cell. ">
<polygon fill="none" stroke="#000000" points="374,-139 374,-169 517,-169 517,-139 374,-139"/>
<text text-anchor="start" x="382" y="-157" font-family="Helvetica,sans-Serif" font-size="10.00" fill="#000000">game::penguin::BoardCell</text>
<text text-anchor="middle" x="445.5" y="-146" font-family="Helvetica,sans-Serif" font-size="10.00" fill="#000000">::getFish</text>
</a>
</g>
</g>
<!-- Node26&#45;&gt;Node31 -->
<g id="edge6" class="edge">
<title>Node26&#45;&gt;Node31</title>
<path fill="none" stroke="#191970" d="M337.1862,-154C345.941,-154 354.9685,-154 363.9017,-154"/>
<polygon fill="#191970" stroke="#191970" points="363.9279,-157.5001 373.9279,-154 363.9278,-150.5001 363.9279,-157.5001"/>
</g>
<!-- Node37 -->
<g id="node13" class="node">
<title>Node37</title>
<g id="a_node13"><a xlink:href="namespacegame.html#a0fb03836882da582210ce59b390ad61f" target="_top" xlink:title="Converts a cube position in an offset system. ">
<polygon fill="none" stroke="#000000" points="373,-38.5 373,-57.5 518,-57.5 518,-38.5 373,-38.5"/>
<text text-anchor="middle" x="445.5" y="-45.5" font-family="Helvetica,sans-Serif" font-size="10.00" fill="#000000">game::hex_cube_to_offset</text>
</a>
</g>
</g>
<!-- Node26&#45;&gt;Node37 -->
<g id="edge14" class="edge">
<title>Node26&#45;&gt;Node37</title>
<path fill="none" stroke="#191970" d="M284.2607,-138.7314C303.7082,-120.6148 338.4556,-90.537 373,-72 380.979,-67.7184 389.8607,-64.0131 398.5957,-60.8814"/>
<polygon fill="#191970" stroke="#191970" points="399.9859,-64.1062 408.3394,-57.5892 397.7451,-57.4745 399.9859,-64.1062"/>
</g>
<!-- Node38 -->
<g id="node14" class="node">
<title>Node38</title>
<g id="a_node14"><a xlink:href="namespacegame.html#a758b3d0eea6eae0e6ce5ea1b8dc90ed9" target="_top" xlink:title="Converts an axial position to a cube position in an hexagonal grid. ">
<polygon fill="none" stroke="#000000" points="375,-.5 375,-19.5 516,-19.5 516,-.5 375,-.5"/>
<text text-anchor="middle" x="445.5" y="-7.5" font-family="Helvetica,sans-Serif" font-size="10.00" fill="#000000">game::hex_axial_to_cube</text>
</a>
</g>
</g>
<!-- Node26&#45;&gt;Node38 -->
<g id="edge15" class="edge">
<title>Node26&#45;&gt;Node38</title>
<path fill="none" stroke="#191970" d="M276.951,-138.681C292.4129,-112.1244 327.8592,-57.6414 373,-29 376.3647,-26.8651 379.962,-24.9691 383.688,-23.2853"/>
<polygon fill="#191970" stroke="#191970" points="385.1558,-26.4683 393.1558,-19.5221 382.5701,-19.9634 385.1558,-26.4683"/>
</g>
<!-- Node32 -->
<g id="node8" class="node">
<title>Node32</title>
<g id="a_node8"><a xlink:href="classgame_1_1penguin_1_1_board_cell.html#a1ed5a3134f831bef111c6294c07388bf" target="_top" xlink:title="game::penguin::BoardCell\l::equals_to">
<polygon fill="none" stroke="#000000" points="554,-115 554,-145 697,-145 697,-115 554,-115"/>
<text text-anchor="start" x="562" y="-133" font-family="Helvetica,sans-Serif" font-size="10.00" fill="#000000">game::penguin::BoardCell</text>
<text text-anchor="middle" x="625.5" y="-122" font-family="Helvetica,sans-Serif" font-size="10.00" fill="#000000">::equals_to</text>
</a>
</g>
</g>
<!-- Node31&#45;&gt;Node32 -->
<g id="edge7" class="edge">
<title>Node31&#45;&gt;Node32</title>
<path fill="none" stroke="#191970" d="M517.158,-144.4456C525.9195,-143.2774 534.9232,-142.0769 543.8176,-140.891"/>
<polygon fill="#191970" stroke="#191970" points="544.3448,-144.3518 553.7945,-139.5607 543.4196,-137.4132 544.3448,-144.3518"/>
</g>
<!-- Node33 -->
<g id="node9" class="node">
<title>Node33</title>
<g id="a_node9"><a xlink:href="classgame_1_1penguin_1_1_board_cell.html#a4d3577488552bf0ba4822ac265532825" target="_top" xlink:title="game::penguin::BoardCell\l::clone">
<polygon fill="none" stroke="#000000" points="554,-164 554,-194 697,-194 697,-164 554,-164"/>
<text text-anchor="start" x="562" y="-182" font-family="Helvetica,sans-Serif" font-size="10.00" fill="#000000">game::penguin::BoardCell</text>
<text text-anchor="middle" x="625.5" y="-171" font-family="Helvetica,sans-Serif" font-size="10.00" fill="#000000">::clone</text>
</a>
</g>
</g>
<!-- Node31&#45;&gt;Node33 -->
<g id="edge9" class="edge">
<title>Node31&#45;&gt;Node33</title>
<path fill="none" stroke="#191970" d="M517.158,-163.9525C525.9195,-165.1694 534.9232,-166.4199 543.8176,-167.6552"/>
<polygon fill="#191970" stroke="#191970" points="543.4081,-171.1319 553.7945,-169.0409 544.3711,-164.1984 543.4081,-171.1319"/>
</g>
<!-- Node32&#45;&gt;Node30 -->
<g id="edge8" class="edge">
<title>Node32&#45;&gt;Node30</title>
<path fill="none" stroke="#191970" d="M680.6665,-114.8986C699.3842,-109.7747 720.4635,-104.0044 739.8526,-98.6968"/>
<polygon fill="#191970" stroke="#191970" points="740.7946,-102.0677 749.5157,-96.0516 738.9464,-95.3161 740.7946,-102.0677"/>
</g>
<!-- Node33&#45;&gt;Node29 -->
<g id="edge13" class="edge">
<title>Node33&#45;&gt;Node29</title>
<path fill="none" stroke="#191970" d="M670.801,-194.0622C679.9268,-198.1571 689.1247,-203.1222 697,-209 717.2489,-224.113 712.2101,-238.6404 733,-253 735.2457,-254.5511 737.5996,-256.0087 740.0294,-257.3777"/>
<polygon fill="#191970" stroke="#191970" points="738.5964,-260.575 749.1008,-261.9565 741.7506,-254.3259 738.5964,-260.575"/>
</g>
<!-- Node34 -->
<g id="node10" class="node">
<title>Node34</title>
<g id="a_node10"><a xlink:href="classgame_1_1penguin_1_1_board_cell.html#a2c76e638f5d0d4374b422756b08cb61f" target="_top" xlink:title="Construct a new Board Cell object. ">
<polygon fill="none" stroke="#000000" points="733,-213 733,-243 876,-243 876,-213 733,-213"/>
<text text-anchor="start" x="741" y="-231" font-family="Helvetica,sans-Serif" font-size="10.00" fill="#000000">game::penguin::BoardCell</text>
<text text-anchor="middle" x="804.5" y="-220" font-family="Helvetica,sans-Serif" font-size="10.00" fill="#000000">::BoardCell</text>
</a>
</g>
</g>
<!-- Node33&#45;&gt;Node34 -->
<g id="edge10" class="edge">
<title>Node33&#45;&gt;Node34</title>
<path fill="none" stroke="#191970" d="M680.6665,-194.1014C699.3842,-199.2253 720.4635,-204.9956 739.8526,-210.3032"/>
<polygon fill="#191970" stroke="#191970" points="738.9464,-213.6839 749.5157,-212.9484 740.7946,-206.9323 738.9464,-213.6839"/>
</g>
<!-- Node35 -->
<g id="node11" class="node">
<title>Node35</title>
<g id="a_node11"><a xlink:href="classgame_1_1penguin_1_1_board_cell.html#a12cd55e333821bcecaa201dde758c1a1" target="_top" xlink:title="Is a penguin on the cell. ">
<polygon fill="none" stroke="#000000" points="733,-164 733,-194 876,-194 876,-164 733,-164"/>
<text text-anchor="start" x="741" y="-182" font-family="Helvetica,sans-Serif" font-size="10.00" fill="#000000">game::penguin::BoardCell</text>
<text text-anchor="middle" x="804.5" y="-171" font-family="Helvetica,sans-Serif" font-size="10.00" fill="#000000">::isOwned</text>
</a>
</g>
</g>
<!-- Node33&#45;&gt;Node35 -->
<g id="edge11" class="edge">
<title>Node33&#45;&gt;Node35</title>
<path fill="none" stroke="#191970" d="M697.0172,-179C705.4862,-179 714.1793,-179 722.776,-179"/>
<polygon fill="#191970" stroke="#191970" points="722.8043,-182.5001 732.8042,-179 722.8042,-175.5001 722.8043,-182.5001"/>
</g>
<!-- Node36 -->
<g id="node12" class="node">
<title>Node36</title>
<g id="a_node12"><a xlink:href="classgame_1_1penguin_1_1_board.html#acae84c13dacef3bd988d1ea9a41d055f" target="_top" xlink:title="Get a player by it&#39;s id. ">
<polygon fill="none" stroke="#000000" points="742.5,-115 742.5,-145 866.5,-145 866.5,-115 742.5,-115"/>
<text text-anchor="start" x="750.5" y="-133" font-family="Helvetica,sans-Serif" font-size="10.00" fill="#000000">game::penguin::Board</text>
<text text-anchor="middle" x="804.5" y="-122" font-family="Helvetica,sans-Serif" font-size="10.00" fill="#000000">::getPawnById</text>
</a>
</g>
</g>
<!-- Node33&#45;&gt;Node36 -->
<g id="edge12" class="edge">
<title>Node33&#45;&gt;Node36</title>
<path fill="none" stroke="#191970" d="M680.6665,-163.8986C699.3842,-158.7747 720.4635,-153.0044 739.8526,-147.6968"/>
<polygon fill="#191970" stroke="#191970" points="740.7946,-151.0677 749.5157,-145.0516 738.9464,-144.3161 740.7946,-151.0677"/>
</g>
</g>
</svg>
        <g id="navigator" transform="translate(0 0)" fill="#404254">
                <rect fill="#f2f5e9" fill-opacity="0.5" stroke="#606060" stroke-width=".5" x="0" y="0" width="60" height="60"/>
                <use id="zoomplus" xlink:href="#zoomPlus" x="17" y="9" onmousedown="handleZoom(evt,'in')"/>
                <use id="zoomminus" xlink:href="#zoomMin" x="42" y="9" onmousedown="handleZoom(evt,'out')"/>
                <use id="reset" xlink:href="#resetDef" x="30" y="36" onmousedown="handleReset()"/>
                <g id="arrowUp" xlink:href="#dirArrow" transform="translate(30 24)" onmousedown="handlePan(0,-1)">
                  <use xlink:href="#rim" fill="#404040">
                        <set attributeName="fill" to="#808080" begin="arrowUp.mouseover" end="arrowUp.mouseout"/>
                  </use>
                  <path fill="none" stroke="white" stroke-width="1.5" d="M0,-3.0v7 M-2.5,-0.5L0,-3.0L2.5,-0.5"/>
                </g>
                <g id="arrowRight" xlink:href="#dirArrow" transform="rotate(90) translate(36 -43)" onmousedown="handlePan(1,0)">
                  <use xlink:href="#rim" fill="#404040">
                        <set attributeName="fill" to="#808080" begin="arrowRight.mouseover" end="arrowRight.mouseout"/>
                  </use>
                  <path fill="none" stroke="white" stroke-width="1.5" d="M0,-3.0v7 M-2.5,-0.5L0,-3.0L2.5,-0.5"/>
                </g>
                <g id="arrowDown" xlink:href="#dirArrow" transform="rotate(180) translate(-30 -48)" onmousedown="handlePan(0,1)">
                  <use xlink:href="#rim" fill="#404040">
                        <set attributeName="fill" to="#808080" begin="arrowDown.mouseover" end="arrowDown.mouseout"/>
                  </use>
                  <path fill="none" stroke="white" stroke-width="1.5" d="M0,-3.0v7 M-2.5,-0.5L0,-3.0L2.5,-0.5"/>
                </g>
                <g id="arrowLeft" xlink:href="#dirArrow" transform="rotate(270) translate(-36 17)" onmousedown="handlePan(-1,0)">
                  <use xlink:href="#rim" fill="#404040">
                        <set attributeName="fill" to="#808080" begin="arrowLeft.mouseover" end="arrowLeft.mouseout"/>
                  </use>
                  <path fill="none" stroke="white" stroke-width="1.5" d="M0,-3.0v7 M-2.5,-0.5L0,-3.0L2.5,-0.5"/>
                </g>
        </g>
        <svg viewBox="0 0 15 15" width="100%" height="30px" preserveAspectRatio="xMaxYMin meet">
         <g id="arrow_out" transform="scale(0.3 0.3)">
          <a xlink:href="classgame_1_1penguin_1_1_console_game_a71c697742201f71b29327bf8554c2ef0_cgraph_org.svg" target="_base">
           <rect id="button" ry="5" rx="5" y="6" x="6" height="38" width="38"
                fill="#f2f5e9" fill-opacity="0.5" stroke="#606060" stroke-width="1.0"/>
           <path id="arrow"
             d="M 11.500037,31.436501 C 11.940474,20.09759 22.043105,11.32322 32.158766,21.979434 L 37.068811,17.246167 C 37.068811,17.246167 37.088388,32 37.088388,32 L 22.160133,31.978069 C 22.160133,31.978069 26.997745,27.140456 26.997745,27.140456 C 18.528582,18.264221 13.291696,25.230495 11.500037,31.436501 z"
             style="fill:#404040;"/>
          </a>
         </g>
        </svg>
</svg>
