<?xml version="1.0" encoding="UTF-8" standalone="no"?>
<!DOCTYPE svg PUBLIC "-//W3C//DTD SVG 1.1//EN"
 "http://www.w3.org/Graphics/SVG/1.1/DTD/svg11.dtd">
<!-- Generated by graphviz version 2.40.1 (20161225.0304)
 -->
<!-- Title: game::AbstractBoard::revertMove Pages: 1 -->
<svg width="327pt" height="247pt"
 viewBox="0.00 0.00 327.00 246.50" xmlns="http://www.w3.org/2000/svg" xmlns:xlink="http://www.w3.org/1999/xlink">
<g id="graph0" class="graph" transform="scale(1 1) rotate(0) translate(4 242.5)">
<title>game::AbstractBoard::revertMove</title>
<!-- Node54 -->
<g id="node1" class="node">
<title>Node54</title>
<polygon fill="#bfbfbf" stroke="#000000" points="0,-98.5 0,-128.5 119,-128.5 119,-98.5 0,-98.5"/>
<text text-anchor="start" x="8" y="-116.5" font-family="Helvetica,sans-Serif" font-size="10.00" fill="#000000">game::AbstractBoard</text>
<text text-anchor="middle" x="59.5" y="-105.5" font-family="Helvetica,sans-Serif" font-size="10.00" fill="#000000">::revertMove</text>
</g>
<!-- Node55 -->
<g id="node2" class="node">
<title>Node55</title>
<g id="a_node2"><a xlink:href="classgame_1_1_abstract_board.html#a1331343872024287df1749cea4a96f5e" target="_top" xlink:title="game::AbstractBoard\l\&lt; BoardCell, Player,\l Player \&gt;::~AbstractBoard">
<polygon fill="none" stroke="#000000" points="164.5,-197 164.5,-238 309.5,-238 309.5,-197 164.5,-197"/>
<text text-anchor="start" x="172.5" y="-226" font-family="Helvetica,sans-Serif" font-size="10.00" fill="#000000">game::AbstractBoard</text>
<text text-anchor="start" x="172.5" y="-215" font-family="Helvetica,sans-Serif" font-size="10.00" fill="#000000">&lt; BoardCell, Player,</text>
<text text-anchor="middle" x="237" y="-204" font-family="Helvetica,sans-Serif" font-size="10.00" fill="#000000"> Player &gt;::~AbstractBoard</text>
</a>
</g>
</g>
<!-- Node54&#45;&gt;Node55 -->
<g id="edge1" class="edge">
<title>Node54&#45;&gt;Node55</title>
<path fill="none" stroke="#191970" d="M83.2686,-135.2984C101.7543,-151.381 128.6156,-172.9151 155,-187.5 161.1028,-190.8735 167.6599,-194.0033 174.3112,-196.868"/>
<polygon fill="#191970" stroke="#191970" points="85.4517,-132.5568 75.6409,-128.557 80.816,-137.8019 85.4517,-132.5568"/>
</g>
<!-- Node56 -->
<g id="node3" class="node">
<title>Node56</title>
<g id="a_node3"><a xlink:href="classgame_1_1penguin_1_1_board.html#a45ecb5bba50b4d03592ac4ddf9255b49" target="_top" xlink:title="Revert the last move made on the behalf of the human player. ">
<polygon fill="none" stroke="#000000" points="175,-147.5 175,-177.5 299,-177.5 299,-147.5 175,-147.5"/>
<text text-anchor="start" x="183" y="-165.5" font-family="Helvetica,sans-Serif" font-size="10.00" fill="#000000">game::penguin::Board</text>
<text text-anchor="middle" x="237" y="-154.5" font-family="Helvetica,sans-Serif" font-size="10.00" fill="#000000">::revertMove</text>
</a>
</g>
</g>
<!-- Node54&#45;&gt;Node56 -->
<g id="edge2" class="edge">
<title>Node54&#45;&gt;Node56</title>
<path fill="none" stroke="#191970" d="M124.0566,-131.3212C143.2212,-136.6118 164.0155,-142.3522 182.4764,-147.4484"/>
<polygon fill="#191970" stroke="#191970" points="124.775,-127.8887 114.2042,-128.6014 122.9123,-134.6363 124.775,-127.8887"/>
</g>
<!-- Node57 -->
<g id="node4" class="node">
<title>Node57</title>
<g id="a_node4"><a xlink:href="classgame_1_1tic__tac__toe_1_1_board.html#ac77aad0bb0945d12a959bb8db0e31908" target="_top" xlink:title="revertMove &amp; sets the current cell on the pawn ">
<polygon fill="none" stroke="#000000" points="182,-98.5 182,-128.5 292,-128.5 292,-98.5 182,-98.5"/>
<text text-anchor="start" x="190" y="-116.5" font-family="Helvetica,sans-Serif" font-size="10.00" fill="#000000">game::tic_tac_toe::</text>
<text text-anchor="middle" x="237" y="-105.5" font-family="Helvetica,sans-Serif" font-size="10.00" fill="#000000">Board::revertMove</text>
</a>
</g>
</g>
<!-- Node54&#45;&gt;Node57 -->
<g id="edge3" class="edge">
<title>Node54&#45;&gt;Node57</title>
<path fill="none" stroke="#191970" d="M129.2245,-113.5C146.6608,-113.5 165.1251,-113.5 181.7511,-113.5"/>
<polygon fill="#191970" stroke="#191970" points="129.0987,-110.0001 119.0987,-113.5 129.0987,-117.0001 129.0987,-110.0001"/>
</g>
<!-- Node58 -->
<g id="node5" class="node">
<title>Node58</title>
<g id="a_node5"><a xlink:href="classgame_1_1penguin_1_1_penguin_game.html#a16aabdfdf43ad7b5b417b58eb593e063" target="_top" xlink:title="game::penguin::PenguinGame\l::revertPlay">
<polygon fill="none" stroke="#000000" points="155,-49.5 155,-79.5 319,-79.5 319,-49.5 155,-49.5"/>
<text text-anchor="start" x="163" y="-67.5" font-family="Helvetica,sans-Serif" font-size="10.00" fill="#000000">game::penguin::PenguinGame</text>
<text text-anchor="middle" x="237" y="-56.5" font-family="Helvetica,sans-Serif" font-size="10.00" fill="#000000">::revertPlay</text>
</a>
</g>
</g>
<!-- Node54&#45;&gt;Node58 -->
<g id="edge4" class="edge">
<title>Node54&#45;&gt;Node58</title>
<path fill="none" stroke="#191970" d="M124.0566,-95.6788C143.2212,-90.3882 164.0155,-84.6478 182.4764,-79.5516"/>
<polygon fill="#191970" stroke="#191970" points="122.9123,-92.3637 114.2042,-98.3986 124.775,-99.1113 122.9123,-92.3637"/>
</g>
<!-- Node59 -->
<g id="node6" class="node">
<title>Node59</title>
<g id="a_node6"><a xlink:href="classgame_1_1tic__tac__toe_1_1_tic_tac_toe.html#a38a848001838eb4ccbafa9800f3cbfd4" target="_top" xlink:title="game::tic_tac_toe::\lTicTacToe::revertPlay">
<polygon fill="none" stroke="#000000" points="177.5,-.5 177.5,-30.5 296.5,-30.5 296.5,-.5 177.5,-.5"/>
<text text-anchor="start" x="185.5" y="-18.5" font-family="Helvetica,sans-Serif" font-size="10.00" fill="#000000">game::tic_tac_toe::</text>
<text text-anchor="middle" x="237" y="-7.5" font-family="Helvetica,sans-Serif" font-size="10.00" fill="#000000">TicTacToe::revertPlay</text>
</a>
</g>
</g>
<!-- Node54&#45;&gt;Node59 -->
<g id="edge5" class="edge">
<title>Node54&#45;&gt;Node59</title>
<path fill="none" stroke="#191970" d="M83.3437,-91.3821C101.732,-75.3355 128.4356,-54.1375 155,-40.5 162.2821,-36.7616 170.2201,-33.4755 178.1961,-30.6201"/>
<polygon fill="#191970" stroke="#191970" points="80.6581,-89.0865 75.5104,-98.3467 85.3093,-94.3178 80.6581,-89.0865"/>
</g>
</g>
</svg>
