<?xml version="1.0" encoding="UTF-8" standalone="no"?>
<!DOCTYPE svg PUBLIC "-//W3C//DTD SVG 1.1//EN"
 "http://www.w3.org/Graphics/SVG/1.1/DTD/svg11.dtd">
<!-- Generated by graphviz version 2.40.1 (20161225.0304)
 -->
<!-- Title: game::penguin::PrintHex::PrintHex Pages: 1 -->
<!--zoomable 183 -->
<svg id="main" version="1.1" xmlns="http://www.w3.org/2000/svg" xmlns:xlink="http://www.w3.org/1999/xlink" xml:space="preserve" onload="init(evt)">
<style type="text/css"><![CDATA[
.edge:hover path { stroke: red; }
.edge:hover polygon { stroke: red; fill: red; }
]]></style>
<script type="text/javascript"><![CDATA[
var edges = document.getElementsByTagName('g');
if (edges && edges.length) {
  for (var i=0;i<edges.length;i++) {
    if (edges[i].id.substr(0,4)=='edge') {
      edges[i].setAttribute('class','edge');
    }
  }
}
]]></script>
        <defs>
                <circle id="rim" cx="0" cy="0" r="7"/>
                <circle id="rim2" cx="0" cy="0" r="3.5"/>
                <g id="zoomPlus">
                        <use xlink:href="#rim" fill="#404040">
                                <set attributeName="fill" to="#808080" begin="zoomplus.mouseover" end="zoomplus.mouseout"/>
                        </use>
                        <path d="M-4,0h8M0,-4v8" fill="none" stroke="white" stroke-width="1.5" pointer-events="none"/>
                </g>
                <g id="zoomMin">
                        <use xlink:href="#rim" fill="#404040">
                                <set attributeName="fill" to="#808080" begin="zoomminus.mouseover" end="zoomminus.mouseout"/>
                        </use>
                        <path d="M-4,0h8" fill="none" stroke="white" stroke-width="1.5" pointer-events="none"/>
                </g>
                <g id="dirArrow">
                        <path fill="none" stroke="white" stroke-width="1.5" d="M0,-3.0v7 M-2.5,-0.5L0,-3.0L2.5,-0.5"/>
                </g>
               <g id="resetDef">
                       <use xlink:href="#rim2" fill="#404040">
                               <set attributeName="fill" to="#808080" begin="reset.mouseover" end="reset.mouseout"/>
                       </use>
               </g>
        </defs>

<script type="text/javascript">
var viewWidth = 625;
var viewHeight = 183;
var sectionId = 'dynsection-1';
</script>
<script xlink:href="svgpan.js"/>
<svg id="graph" class="graph">
<g id="viewport">
<title>game::penguin::PrintHex::PrintHex</title>
<!-- Node0 -->
<g id="node1" class="node">
<title>Node0</title>
<polygon fill="#bfbfbf" stroke="#000000" points="0,-72.3893 0,-102.3893 137,-102.3893 137,-72.3893 0,-72.3893"/>
<text text-anchor="start" x="8" y="-90.3893" font-family="Helvetica,sans-Serif" font-size="10.00" fill="#000000">game::penguin::PrintHex</text>
<text text-anchor="middle" x="68.5" y="-79.3893" font-family="Helvetica,sans-Serif" font-size="10.00" fill="#000000">::PrintHex</text>
</g>
<!-- Node1 -->
<g id="node2" class="node">
<title>Node1</title>
<g id="a_node2"><a xlink:href="classgame_1_1penguin_1_1_board.html#a7636e3bdb2da72d2a6395b1a2d846394" target="_top" xlink:title="game::penguin::Board\l::size">
<polygon fill="none" stroke="#000000" points="173,-72.3893 173,-102.3893 297,-102.3893 297,-72.3893 173,-72.3893"/>
<text text-anchor="start" x="181" y="-90.3893" font-family="Helvetica,sans-Serif" font-size="10.00" fill="#000000">game::penguin::Board</text>
<text text-anchor="middle" x="235" y="-79.3893" font-family="Helvetica,sans-Serif" font-size="10.00" fill="#000000">::size</text>
</a>
</g>
</g>
<!-- Node0&#45;&gt;Node1 -->
<g id="edge1" class="edge">
<title>Node0&#45;&gt;Node1</title>
<path fill="none" stroke="#191970" d="M137.1832,-87.3893C145.5896,-87.3893 154.2005,-87.3893 162.6586,-87.3893"/>
<polygon fill="#191970" stroke="#191970" points="162.8758,-90.8894 172.8758,-87.3893 162.8757,-83.8894 162.8758,-90.8894"/>
</g>
<!-- Node2 -->
<g id="node3" class="node">
<title>Node2</title>
<g id="a_node3"><a xlink:href="classgame_1_1penguin_1_1_board.html#ac9fbe04a302208fcb5f66e717182b6d4" target="_top" xlink:title="Get the Cell. ">
<polygon fill="none" stroke="#000000" points="493,-143.3893 493,-173.3893 617,-173.3893 617,-143.3893 493,-143.3893"/>
<text text-anchor="start" x="501" y="-161.3893" font-family="Helvetica,sans-Serif" font-size="10.00" fill="#000000">game::penguin::Board</text>
<text text-anchor="middle" x="555" y="-150.3893" font-family="Helvetica,sans-Serif" font-size="10.00" fill="#000000">::getCell</text>
</a>
</g>
</g>
<!-- Node1&#45;&gt;Node2 -->
<g id="edge2" class="edge">
<title>Node1&#45;&gt;Node2</title>
<path fill="none" stroke="#191970" d="M248.805,-102.6146C266.3196,-120.6787 298.4332,-149.8044 333,-161.3893 380.9772,-177.4685 438.1257,-176.2684 482.4238,-171.2821"/>
<polygon fill="#191970" stroke="#191970" points="483.0263,-174.7347 492.5313,-170.0543 482.1822,-167.7858 483.0263,-174.7347"/>
</g>
<!-- Node3 -->
<g id="node4" class="node">
<title>Node3</title>
<g id="a_node4"><a xlink:href="classgame_1_1penguin_1_1_board.html#a13a38d7c935dd363d7ec9394488539ee" target="_top" xlink:title="Get the Players that are presently palying on the board. ">
<polygon fill="none" stroke="#000000" points="333,-121.3893 333,-151.3893 457,-151.3893 457,-121.3893 333,-121.3893"/>
<text text-anchor="start" x="341" y="-139.3893" font-family="Helvetica,sans-Serif" font-size="10.00" fill="#000000">game::penguin::Board</text>
<text text-anchor="middle" x="395" y="-128.3893" font-family="Helvetica,sans-Serif" font-size="10.00" fill="#000000">::getPawnsOnBoard</text>
</a>
</g>
</g>
<!-- Node1&#45;&gt;Node3 -->
<g id="edge3" class="edge">
<title>Node1&#45;&gt;Node3</title>
<path fill="none" stroke="#191970" d="M284.3108,-102.4907C300.6598,-107.4976 319.0243,-113.1217 336.0252,-118.3282"/>
<polygon fill="#191970" stroke="#191970" points="335.2654,-121.756 345.852,-121.3377 337.3152,-115.0628 335.2654,-121.756"/>
</g>
<!-- Node4 -->
<g id="node5" class="node">
<title>Node4</title>
<g id="a_node5"><a xlink:href="classgame_1_1penguin_1_1_board.html#acae84c13dacef3bd988d1ea9a41d055f" target="_top" xlink:title="Get a player by it&#39;s id. ">
<polygon fill="none" stroke="#000000" points="493,-1.3893 493,-31.3893 617,-31.3893 617,-1.3893 493,-1.3893"/>
<text text-anchor="start" x="501" y="-19.3893" font-family="Helvetica,sans-Serif" font-size="10.00" fill="#000000">game::penguin::Board</text>
<text text-anchor="middle" x="555" y="-8.3893" font-family="Helvetica,sans-Serif" font-size="10.00" fill="#000000">::getPawnById</text>
</a>
</g>
</g>
<!-- Node1&#45;&gt;Node4 -->
<g id="edge4" class="edge">
<title>Node1&#45;&gt;Node4</title>
<path fill="none" stroke="#191970" d="M248.805,-72.1639C266.3196,-54.0998 298.4332,-24.9741 333,-13.3893 380.9772,2.69 438.1257,1.4898 482.4238,-3.4965"/>
<polygon fill="#191970" stroke="#191970" points="482.1822,-6.9928 492.5313,-4.7242 483.0263,-.0438 482.1822,-6.9928"/>
</g>
<!-- Node5 -->
<g id="node6" class="node">
<title>Node5</title>
<g id="a_node6"><a xlink:href="classgame_1_1penguin_1_1_board.html#a8728b4381bc2e007710d275bb226cf95" target="_top" xlink:title="Gets the player corresponding to a certain id. ">
<polygon fill="none" stroke="#000000" points="333,-23.3893 333,-53.3893 457,-53.3893 457,-23.3893 333,-23.3893"/>
<text text-anchor="start" x="341" y="-41.3893" font-family="Helvetica,sans-Serif" font-size="10.00" fill="#000000">game::penguin::Board</text>
<text text-anchor="middle" x="395" y="-30.3893" font-family="Helvetica,sans-Serif" font-size="10.00" fill="#000000">::getPlayerById</text>
</a>
</g>
</g>
<!-- Node1&#45;&gt;Node5 -->
<g id="edge5" class="edge">
<title>Node1&#45;&gt;Node5</title>
<path fill="none" stroke="#191970" d="M284.3108,-72.2878C300.6598,-67.281 319.0243,-61.6568 336.0252,-56.4503"/>
<polygon fill="#191970" stroke="#191970" points="337.3152,-59.7158 345.852,-53.4408 335.2654,-53.0226 337.3152,-59.7158"/>
</g>
<!-- Node6 -->
<g id="node7" class="node">
<title>Node6</title>
<g id="a_node7"><a xlink:href="classgame_1_1penguin_1_1_board.html#acad4a3c7bee2103aea4586356ceabb8e" target="_top" xlink:title="game::penguin::Board\l::clone">
<polygon fill="none" stroke="#000000" points="333,-72.3893 333,-102.3893 457,-102.3893 457,-72.3893 333,-72.3893"/>
<text text-anchor="start" x="341" y="-90.3893" font-family="Helvetica,sans-Serif" font-size="10.00" fill="#000000">game::penguin::Board</text>
<text text-anchor="middle" x="395" y="-79.3893" font-family="Helvetica,sans-Serif" font-size="10.00" fill="#000000">::clone</text>
</a>
</g>
</g>
<!-- Node1&#45;&gt;Node6 -->
<g id="edge6" class="edge">
<title>Node1&#45;&gt;Node6</title>
<path fill="none" stroke="#191970" d="M297.3183,-87.3893C305.615,-87.3893 314.1788,-87.3893 322.628,-87.3893"/>
<polygon fill="#191970" stroke="#191970" points="322.8518,-90.8894 332.8518,-87.3893 322.8517,-83.8894 322.8518,-90.8894"/>
</g>
<!-- Node6&#45;&gt;Node2 -->
<g id="edge9" class="edge">
<title>Node6&#45;&gt;Node2</title>
<path fill="none" stroke="#191970" d="M433.174,-102.394C441.0842,-105.6117 449.3398,-109.0502 457,-112.3893 476.0437,-120.6905 496.9117,-130.3987 514.4786,-138.7514"/>
<polygon fill="#191970" stroke="#191970" points="513.3338,-142.0833 523.8658,-143.2348 516.3506,-135.7667 513.3338,-142.0833"/>
</g>
<!-- Node6&#45;&gt;Node4 -->
<g id="edge8" class="edge">
<title>Node6&#45;&gt;Node4</title>
<path fill="none" stroke="#191970" d="M435.2079,-72.3503C442.5006,-69.4738 450.0082,-66.4137 457,-63.3893 476.7621,-54.8409 498.3777,-44.5751 516.2681,-35.8213"/>
<polygon fill="#191970" stroke="#191970" points="517.8277,-38.9547 525.2544,-31.3986 514.7367,-32.6741 517.8277,-38.9547"/>
</g>
<!-- Node7 -->
<g id="node8" class="node">
<title>Node7</title>
<g id="a_node8"><a xlink:href="classgame_1_1penguin_1_1_board.html#aea5bd314dbc295e71759baf2051409c5" target="_top" xlink:title="Construct a new Board object. ">
<polygon fill="none" stroke="#000000" points="493,-72.3893 493,-102.3893 617,-102.3893 617,-72.3893 493,-72.3893"/>
<text text-anchor="start" x="501" y="-90.3893" font-family="Helvetica,sans-Serif" font-size="10.00" fill="#000000">game::penguin::Board</text>
<text text-anchor="middle" x="555" y="-79.3893" font-family="Helvetica,sans-Serif" font-size="10.00" fill="#000000">::Board</text>
</a>
</g>
</g>
<!-- Node6&#45;&gt;Node7 -->
<g id="edge7" class="edge">
<title>Node6&#45;&gt;Node7</title>
<path fill="none" stroke="#191970" d="M457.3183,-87.3893C465.615,-87.3893 474.1788,-87.3893 482.628,-87.3893"/>
<polygon fill="#191970" stroke="#191970" points="482.8518,-90.8894 492.8518,-87.3893 482.8517,-83.8894 482.8518,-90.8894"/>
</g>
</g>
</svg>
        <g id="navigator" transform="translate(0 0)" fill="#404254">
                <rect fill="#f2f5e9" fill-opacity="0.5" stroke="#606060" stroke-width=".5" x="0" y="0" width="60" height="60"/>
                <use id="zoomplus" xlink:href="#zoomPlus" x="17" y="9" onmousedown="handleZoom(evt,'in')"/>
                <use id="zoomminus" xlink:href="#zoomMin" x="42" y="9" onmousedown="handleZoom(evt,'out')"/>
                <use id="reset" xlink:href="#resetDef" x="30" y="36" onmousedown="handleReset()"/>
                <g id="arrowUp" xlink:href="#dirArrow" transform="translate(30 24)" onmousedown="handlePan(0,-1)">
                  <use xlink:href="#rim" fill="#404040">
                        <set attributeName="fill" to="#808080" begin="arrowUp.mouseover" end="arrowUp.mouseout"/>
                  </use>
                  <path fill="none" stroke="white" stroke-width="1.5" d="M0,-3.0v7 M-2.5,-0.5L0,-3.0L2.5,-0.5"/>
                </g>
                <g id="arrowRight" xlink:href="#dirArrow" transform="rotate(90) translate(36 -43)" onmousedown="handlePan(1,0)">
                  <use xlink:href="#rim" fill="#404040">
                        <set attributeName="fill" to="#808080" begin="arrowRight.mouseover" end="arrowRight.mouseout"/>
                  </use>
                  <path fill="none" stroke="white" stroke-width="1.5" d="M0,-3.0v7 M-2.5,-0.5L0,-3.0L2.5,-0.5"/>
                </g>
                <g id="arrowDown" xlink:href="#dirArrow" transform="rotate(180) translate(-30 -48)" onmousedown="handlePan(0,1)">
                  <use xlink:href="#rim" fill="#404040">
                        <set attributeName="fill" to="#808080" begin="arrowDown.mouseover" end="arrowDown.mouseout"/>
                  </use>
                  <path fill="none" stroke="white" stroke-width="1.5" d="M0,-3.0v7 M-2.5,-0.5L0,-3.0L2.5,-0.5"/>
                </g>
                <g id="arrowLeft" xlink:href="#dirArrow" transform="rotate(270) translate(-36 17)" onmousedown="handlePan(-1,0)">
                  <use xlink:href="#rim" fill="#404040">
                        <set attributeName="fill" to="#808080" begin="arrowLeft.mouseover" end="arrowLeft.mouseout"/>
                  </use>
                  <path fill="none" stroke="white" stroke-width="1.5" d="M0,-3.0v7 M-2.5,-0.5L0,-3.0L2.5,-0.5"/>
                </g>
        </g>
        <svg viewBox="0 0 15 15" width="100%" height="30px" preserveAspectRatio="xMaxYMin meet">
         <g id="arrow_out" transform="scale(0.3 0.3)">
          <a xlink:href="classgame_1_1penguin_1_1_print_hex_acdb07dd749d832db180a0f42040e33ed_cgraph_org.svg" target="_base">
           <rect id="button" ry="5" rx="5" y="6" x="6" height="38" width="38"
                fill="#f2f5e9" fill-opacity="0.5" stroke="#606060" stroke-width="1.0"/>
           <path id="arrow"
             d="M 11.500037,31.436501 C 11.940474,20.09759 22.043105,11.32322 32.158766,21.979434 L 37.068811,17.246167 C 37.068811,17.246167 37.088388,32 37.088388,32 L 22.160133,31.978069 C 22.160133,31.978069 26.997745,27.140456 26.997745,27.140456 C 18.528582,18.264221 13.291696,25.230495 11.500037,31.436501 z"
             style="fill:#404040;"/>
          </a>
         </g>
        </svg>
</svg>
