<?xml version="1.0" encoding="UTF-8" standalone="no"?>
<!DOCTYPE svg PUBLIC "-//W3C//DTD SVG 1.1//EN"
 "http://www.w3.org/Graphics/SVG/1.1/DTD/svg11.dtd">
<!-- Generated by graphviz version 2.40.1 (20161225.0304)
 -->
<!-- Title: mcts::Tree::nodeWithMaxVisits Pages: 1 -->
<svg width="802pt" height="88pt"
 viewBox="0.00 0.00 802.00 88.00" xmlns="http://www.w3.org/2000/svg" xmlns:xlink="http://www.w3.org/1999/xlink">
<g id="graph0" class="graph" transform="scale(1 1) rotate(0) translate(4 84)">
<title>mcts::Tree::nodeWithMaxVisits</title>
<!-- Node29 -->
<g id="node1" class="node">
<title>Node29</title>
<polygon fill="#bfbfbf" stroke="#000000" points="0,-30 0,-49 167,-49 167,-30 0,-30"/>
<text text-anchor="middle" x="83.5" y="-37" font-family="Helvetica,sans-Serif" font-size="10.00" fill="#000000">mcts::Tree::nodeWithMaxVisits</text>
</g>
<!-- Node30 -->
<g id="node2" class="node">
<title>Node30</title>
<g id="a_node2"><a xlink:href="classmcts_1_1_tree.html#a0431bd1074e29e682fe3c7bc6a3aee89" target="_top" xlink:title="mcts::Tree::bestMove">
<polygon fill="none" stroke="#000000" points="203,-30 203,-49 323,-49 323,-30 203,-30"/>
<text text-anchor="middle" x="263" y="-37" font-family="Helvetica,sans-Serif" font-size="10.00" fill="#000000">mcts::Tree::bestMove</text>
</a>
</g>
</g>
<!-- Node29&#45;&gt;Node30 -->
<g id="edge1" class="edge">
<title>Node29&#45;&gt;Node30</title>
<path fill="none" stroke="#191970" d="M177.4012,-39.5C186.082,-39.5 194.7108,-39.5 202.962,-39.5"/>
<polygon fill="#191970" stroke="#191970" points="177.2065,-36.0001 167.2065,-39.5 177.2064,-43.0001 177.2065,-36.0001"/>
</g>
<!-- Node31 -->
<g id="node3" class="node">
<title>Node31</title>
<g id="a_node3"><a xlink:href="classmcts_1_1_m_c_t_s_player.html#a48340fed9c5730f0d64ca177682f575e" target="_top" xlink:title="Returns the best move after running the ai. ">
<polygon fill="none" stroke="#000000" points="359,-30 359,-49 517,-49 517,-30 359,-30"/>
<text text-anchor="middle" x="438" y="-37" font-family="Helvetica,sans-Serif" font-size="10.00" fill="#000000">mcts::MCTSPlayer::bestMove</text>
</a>
</g>
</g>
<!-- Node30&#45;&gt;Node31 -->
<g id="edge2" class="edge">
<title>Node30&#45;&gt;Node31</title>
<path fill="none" stroke="#191970" d="M333.323,-39.5C341.7085,-39.5 350.3131,-39.5 358.8121,-39.5"/>
<polygon fill="#191970" stroke="#191970" points="333.2251,-36.0001 323.2251,-39.5 333.225,-43.0001 333.2251,-36.0001"/>
</g>
<!-- Node32 -->
<g id="node4" class="node">
<title>Node32</title>
<g id="a_node4"><a xlink:href="classgame_1_1penguin_1_1_console_game.html#a56af132d8e3d16902fb46b7979d37eae" target="_top" xlink:title="Loop while the game is not finished, told by the isFinished method. ">
<polygon fill="none" stroke="#000000" points="553,-49.5 553,-79.5 717,-79.5 717,-49.5 553,-49.5"/>
<text text-anchor="start" x="561" y="-67.5" font-family="Helvetica,sans-Serif" font-size="10.00" fill="#000000">game::penguin::ConsoleGame</text>
<text text-anchor="middle" x="635" y="-56.5" font-family="Helvetica,sans-Serif" font-size="10.00" fill="#000000">::loop</text>
</a>
</g>
</g>
<!-- Node31&#45;&gt;Node32 -->
<g id="edge3" class="edge">
<title>Node31&#45;&gt;Node32</title>
<path fill="none" stroke="#191970" d="M523.2305,-50.3161C533.089,-51.5671 543.1281,-52.8411 552.9431,-54.0867"/>
<polygon fill="#191970" stroke="#191970" points="523.4003,-46.8096 513.0392,-49.0227 522.519,-53.7539 523.4003,-46.8096"/>
</g>
<!-- Node34 -->
<g id="node6" class="node">
<title>Node34</title>
<g id="a_node6"><a xlink:href="classgame_1_1tic__tac__toe_1_1_console_game.html#a06b07e4c713a60999258b0b573b02a33" target="_top" xlink:title="Loop while the game is not finished, told by the isFinished method. ">
<polygon fill="none" stroke="#000000" points="579,-.5 579,-30.5 691,-30.5 691,-.5 579,-.5"/>
<text text-anchor="start" x="587" y="-18.5" font-family="Helvetica,sans-Serif" font-size="10.00" fill="#000000">game::tic_tac_toe::</text>
<text text-anchor="middle" x="635" y="-7.5" font-family="Helvetica,sans-Serif" font-size="10.00" fill="#000000">ConsoleGame::loop</text>
</a>
</g>
</g>
<!-- Node31&#45;&gt;Node34 -->
<g id="edge5" class="edge">
<title>Node31&#45;&gt;Node34</title>
<path fill="none" stroke="#191970" d="M526.5387,-28.7136C544.3117,-26.5483 562.5216,-24.3299 578.8222,-22.344"/>
<polygon fill="#191970" stroke="#191970" points="525.6459,-25.2964 516.1426,-29.9801 526.4925,-32.245 525.6459,-25.2964"/>
</g>
<!-- Node33 -->
<g id="node5" class="node">
<title>Node33</title>
<g id="a_node5"><a xlink:href="main_8cpp.html#a1dfeea39dabf076270426c94def1a2a2" target="_top" xlink:title="main">
<polygon fill="none" stroke="#000000" points="753,-55 753,-74 794,-74 794,-55 753,-55"/>
<text text-anchor="middle" x="773.5" y="-62" font-family="Helvetica,sans-Serif" font-size="10.00" fill="#000000">main</text>
</a>
</g>
</g>
<!-- Node32&#45;&gt;Node33 -->
<g id="edge4" class="edge">
<title>Node32&#45;&gt;Node33</title>
<path fill="none" stroke="#191970" d="M727.2725,-64.5C736.7768,-64.5 745.6282,-64.5 752.9893,-64.5"/>
<polygon fill="#191970" stroke="#191970" points="727.1668,-61.0001 717.1667,-64.5 727.1667,-68.0001 727.1668,-61.0001"/>
</g>
</g>
</svg>
