<?xml version="1.0" encoding="UTF-8" standalone="no"?>
<!DOCTYPE svg PUBLIC "-//W3C//DTD SVG 1.1//EN"
 "http://www.w3.org/Graphics/SVG/1.1/DTD/svg11.dtd">
<!-- Generated by graphviz version 2.40.1 (20161225.0304)
 -->
<!-- Title: game::AbstractBoard::clone Pages: 1 -->
<svg width="327pt" height="149pt"
 viewBox="0.00 0.00 327.00 148.50" xmlns="http://www.w3.org/2000/svg" xmlns:xlink="http://www.w3.org/1999/xlink">
<g id="graph0" class="graph" transform="scale(1 1) rotate(0) translate(4 144.5)">
<title>game::AbstractBoard::clone</title>
<!-- Node17 -->
<g id="node1" class="node">
<title>Node17</title>
<polygon fill="#bfbfbf" stroke="#000000" points="0,-49.5 0,-79.5 119,-79.5 119,-49.5 0,-49.5"/>
<text text-anchor="start" x="8" y="-67.5" font-family="Helvetica,sans-Serif" font-size="10.00" fill="#000000">game::AbstractBoard</text>
<text text-anchor="middle" x="59.5" y="-56.5" font-family="Helvetica,sans-Serif" font-size="10.00" fill="#000000">::clone</text>
</g>
<!-- Node18 -->
<g id="node2" class="node">
<title>Node18</title>
<g id="a_node2"><a xlink:href="classgame_1_1_abstract_board.html#a1331343872024287df1749cea4a96f5e" target="_top" xlink:title="game::AbstractBoard\l\&lt; BoardCell, Player,\l Player \&gt;::~AbstractBoard">
<polygon fill="none" stroke="#000000" points="164.5,-99 164.5,-140 309.5,-140 309.5,-99 164.5,-99"/>
<text text-anchor="start" x="172.5" y="-128" font-family="Helvetica,sans-Serif" font-size="10.00" fill="#000000">game::AbstractBoard</text>
<text text-anchor="start" x="172.5" y="-117" font-family="Helvetica,sans-Serif" font-size="10.00" fill="#000000">&lt; BoardCell, Player,</text>
<text text-anchor="middle" x="237" y="-106" font-family="Helvetica,sans-Serif" font-size="10.00" fill="#000000"> Player &gt;::~AbstractBoard</text>
</a>
</g>
</g>
<!-- Node17&#45;&gt;Node18 -->
<g id="edge1" class="edge">
<title>Node17&#45;&gt;Node18</title>
<path fill="none" stroke="#191970" d="M117.7387,-82.5458C134.6418,-87.7834 153.226,-93.5419 170.59,-98.9223"/>
<polygon fill="#191970" stroke="#191970" points="118.5906,-79.1456 108.0027,-79.529 116.5187,-85.832 118.5906,-79.1456"/>
</g>
<!-- Node19 -->
<g id="node3" class="node">
<title>Node19</title>
<g id="a_node3"><a xlink:href="classgame_1_1penguin_1_1_penguin_game.html#af4277cfe44814a9b99051348f25ce264" target="_top" xlink:title="Clone function for clonning games. ">
<polygon fill="none" stroke="#000000" points="155,-49.5 155,-79.5 319,-79.5 319,-49.5 155,-49.5"/>
<text text-anchor="start" x="163" y="-67.5" font-family="Helvetica,sans-Serif" font-size="10.00" fill="#000000">game::penguin::PenguinGame</text>
<text text-anchor="middle" x="237" y="-56.5" font-family="Helvetica,sans-Serif" font-size="10.00" fill="#000000">::clone</text>
</a>
</g>
</g>
<!-- Node17&#45;&gt;Node19 -->
<g id="edge2" class="edge">
<title>Node17&#45;&gt;Node19</title>
<path fill="none" stroke="#191970" d="M129.2172,-64.5C137.6275,-64.5 146.2771,-64.5 154.8444,-64.5"/>
<polygon fill="#191970" stroke="#191970" points="129.0987,-61.0001 119.0987,-64.5 129.0987,-68.0001 129.0987,-61.0001"/>
</g>
<!-- Node20 -->
<g id="node4" class="node">
<title>Node20</title>
<g id="a_node4"><a xlink:href="classgame_1_1tic__tac__toe_1_1_tic_tac_toe.html#a11f31f44ee9ebe8c394bcc9f2a74fab4" target="_top" xlink:title="Clone function for clonning games. ">
<polygon fill="none" stroke="#000000" points="182,-.5 182,-30.5 292,-30.5 292,-.5 182,-.5"/>
<text text-anchor="start" x="190" y="-18.5" font-family="Helvetica,sans-Serif" font-size="10.00" fill="#000000">game::tic_tac_toe::</text>
<text text-anchor="middle" x="237" y="-7.5" font-family="Helvetica,sans-Serif" font-size="10.00" fill="#000000">TicTacToe::clone</text>
</a>
</g>
</g>
<!-- Node17&#45;&gt;Node20 -->
<g id="edge3" class="edge">
<title>Node17&#45;&gt;Node20</title>
<path fill="none" stroke="#191970" d="M124.0566,-46.6788C143.2212,-41.3882 164.0155,-35.6478 182.4764,-30.5516"/>
<polygon fill="#191970" stroke="#191970" points="122.9123,-43.3637 114.2042,-49.3986 124.775,-50.1113 122.9123,-43.3637"/>
</g>
</g>
</svg>
