<?xml version="1.0" encoding="UTF-8" standalone="no"?>
<!DOCTYPE svg PUBLIC "-//W3C//DTD SVG 1.1//EN"
 "http://www.w3.org/Graphics/SVG/1.1/DTD/svg11.dtd">
<!-- Generated by graphviz version 2.40.1 (20161225.0304)
 -->
<!-- Title: mcts::MCTS::getRandomAvailableMoveFromBoard Pages: 1 -->
<!--zoomable 88 -->
<svg id="main" version="1.1" xmlns="http://www.w3.org/2000/svg" xmlns:xlink="http://www.w3.org/1999/xlink" xml:space="preserve" onload="init(evt)">
<style type="text/css"><![CDATA[
.edge:hover path { stroke: red; }
.edge:hover polygon { stroke: red; fill: red; }
]]></style>
<script type="text/javascript"><![CDATA[
var edges = document.getElementsByTagName('g');
if (edges && edges.length) {
  for (var i=0;i<edges.length;i++) {
    if (edges[i].id.substr(0,4)=='edge') {
      edges[i].setAttribute('class','edge');
    }
  }
}
]]></script>
        <defs>
                <circle id="rim" cx="0" cy="0" r="7"/>
                <circle id="rim2" cx="0" cy="0" r="3.5"/>
                <g id="zoomPlus">
                        <use xlink:href="#rim" fill="#404040">
                                <set attributeName="fill" to="#808080" begin="zoomplus.mouseover" end="zoomplus.mouseout"/>
                        </use>
                        <path d="M-4,0h8M0,-4v8" fill="none" stroke="white" stroke-width="1.5" pointer-events="none"/>
                </g>
                <g id="zoomMin">
                        <use xlink:href="#rim" fill="#404040">
                                <set attributeName="fill" to="#808080" begin="zoomminus.mouseover" end="zoomminus.mouseout"/>
                        </use>
                        <path d="M-4,0h8" fill="none" stroke="white" stroke-width="1.5" pointer-events="none"/>
                </g>
                <g id="dirArrow">
                        <path fill="none" stroke="white" stroke-width="1.5" d="M0,-3.0v7 M-2.5,-0.5L0,-3.0L2.5,-0.5"/>
                </g>
               <g id="resetDef">
                       <use xlink:href="#rim2" fill="#404040">
                               <set attributeName="fill" to="#808080" begin="reset.mouseover" end="reset.mouseout"/>
                       </use>
               </g>
        </defs>

<script type="text/javascript">
var viewWidth = 1223;
var viewHeight = 88;
var sectionId = 'dynsection-7';
</script>
<script xlink:href="svgpan.js"/>
<svg id="graph" class="graph">
<g id="viewport">
<title>mcts::MCTS::getRandomAvailableMoveFromBoard</title>
<!-- Node59 -->
<g id="node1" class="node">
<title>Node59</title>
<polygon fill="#bfbfbf" stroke="#000000" points="0,-24.5 0,-54.5 181,-54.5 181,-24.5 0,-24.5"/>
<text text-anchor="start" x="8" y="-42.5" font-family="Helvetica,sans-Serif" font-size="10.00" fill="#000000">mcts::MCTS::getRandomAvailable</text>
<text text-anchor="middle" x="90.5" y="-31.5" font-family="Helvetica,sans-Serif" font-size="10.00" fill="#000000">MoveFromBoard</text>
</g>
<!-- Node60 -->
<g id="node2" class="node">
<title>Node60</title>
<g id="a_node2"><a xlink:href="classmcts_1_1_m_c_t_s.html#ad465558c1f4933cae2a32ff7394fc49b" target="_top" xlink:title="mcts::MCTS::randomSimulation">
<polygon fill="none" stroke="#000000" points="217,-30 217,-49 387,-49 387,-30 217,-30"/>
<text text-anchor="middle" x="302" y="-37" font-family="Helvetica,sans-Serif" font-size="10.00" fill="#000000">mcts::MCTS::randomSimulation</text>
</a>
</g>
</g>
<!-- Node59&#45;&gt;Node60 -->
<g id="edge1" class="edge">
<title>Node59&#45;&gt;Node60</title>
<path fill="none" stroke="#191970" d="M191.1911,-39.5C199.8033,-39.5 208.4604,-39.5 216.9331,-39.5"/>
<polygon fill="#191970" stroke="#191970" points="191.1155,-36.0001 181.1154,-39.5 191.1154,-43.0001 191.1155,-36.0001"/>
</g>
<!-- Node61 -->
<g id="node3" class="node">
<title>Node61</title>
<g id="a_node3"><a xlink:href="classmcts_1_1_m_c_t_s.html#ae8b2818e7a34e858e9dd284d33bca874" target="_top" xlink:title="Start the mcts. ">
<polygon fill="none" stroke="#000000" points="423,-30 423,-49 530,-49 530,-30 423,-30"/>
<text text-anchor="middle" x="476.5" y="-37" font-family="Helvetica,sans-Serif" font-size="10.00" fill="#000000">mcts::MCTS::begin</text>
</a>
</g>
</g>
<!-- Node60&#45;&gt;Node61 -->
<g id="edge2" class="edge">
<title>Node60&#45;&gt;Node61</title>
<path fill="none" stroke="#191970" d="M397.4166,-39.5C406.0903,-39.5 414.6554,-39.5 422.765,-39.5"/>
<polygon fill="#191970" stroke="#191970" points="397.2053,-36.0001 387.2052,-39.5 397.2052,-43.0001 397.2053,-36.0001"/>
</g>
<!-- Node62 -->
<g id="node4" class="node">
<title>Node62</title>
<g id="a_node4"><a xlink:href="classmcts_1_1_m_c_t_s_player.html#a53677f7c7f9cfe4b7999af8abcfb8641" target="_top" xlink:title="Unleashe the power of the MCTS !!!! ">
<polygon fill="none" stroke="#000000" points="566,-30 566,-49 744,-49 744,-30 566,-30"/>
<text text-anchor="middle" x="655" y="-37" font-family="Helvetica,sans-Serif" font-size="10.00" fill="#000000">mcts::MCTSPlayer::unleash_mcts</text>
</a>
</g>
</g>
<!-- Node61&#45;&gt;Node62 -->
<g id="edge3" class="edge">
<title>Node61&#45;&gt;Node62</title>
<path fill="none" stroke="#191970" d="M540.0586,-39.5C548.4106,-39.5 557.0906,-39.5 565.7704,-39.5"/>
<polygon fill="#191970" stroke="#191970" points="540.0559,-36.0001 530.0559,-39.5 540.0559,-43.0001 540.0559,-36.0001"/>
</g>
<!-- Node63 -->
<g id="node5" class="node">
<title>Node63</title>
<g id="a_node5"><a xlink:href="classmcts_1_1_m_c_t_s_player.html#a48340fed9c5730f0d64ca177682f575e" target="_top" xlink:title="Returns the best move after running the ai. ">
<polygon fill="none" stroke="#000000" points="780,-30 780,-49 938,-49 938,-30 780,-30"/>
<text text-anchor="middle" x="859" y="-37" font-family="Helvetica,sans-Serif" font-size="10.00" fill="#000000">mcts::MCTSPlayer::bestMove</text>
</a>
</g>
</g>
<!-- Node62&#45;&gt;Node63 -->
<g id="edge4" class="edge">
<title>Node62&#45;&gt;Node63</title>
<path fill="none" stroke="#191970" d="M754.2632,-39.5C762.8748,-39.5 771.5125,-39.5 779.9304,-39.5"/>
<polygon fill="#191970" stroke="#191970" points="754.1806,-36.0001 744.1806,-39.5 754.1806,-43.0001 754.1806,-36.0001"/>
</g>
<!-- Node64 -->
<g id="node6" class="node">
<title>Node64</title>
<g id="a_node6"><a xlink:href="classgame_1_1penguin_1_1_console_game.html#a56af132d8e3d16902fb46b7979d37eae" target="_top" xlink:title="Loop while the game is not finished, told by the isFinished method. ">
<polygon fill="none" stroke="#000000" points="974,-49.5 974,-79.5 1138,-79.5 1138,-49.5 974,-49.5"/>
<text text-anchor="start" x="982" y="-67.5" font-family="Helvetica,sans-Serif" font-size="10.00" fill="#000000">game::penguin::ConsoleGame</text>
<text text-anchor="middle" x="1056" y="-56.5" font-family="Helvetica,sans-Serif" font-size="10.00" fill="#000000">::loop</text>
</a>
</g>
</g>
<!-- Node63&#45;&gt;Node64 -->
<g id="edge5" class="edge">
<title>Node63&#45;&gt;Node64</title>
<path fill="none" stroke="#191970" d="M944.2305,-50.3161C954.089,-51.5671 964.1281,-52.8411 973.9431,-54.0867"/>
<polygon fill="#191970" stroke="#191970" points="944.4003,-46.8096 934.0392,-49.0227 943.519,-53.7539 944.4003,-46.8096"/>
</g>
<!-- Node66 -->
<g id="node8" class="node">
<title>Node66</title>
<g id="a_node8"><a xlink:href="classgame_1_1tic__tac__toe_1_1_console_game.html#a06b07e4c713a60999258b0b573b02a33" target="_top" xlink:title="Loop while the game is not finished, told by the isFinished method. ">
<polygon fill="none" stroke="#000000" points="1000,-.5 1000,-30.5 1112,-30.5 1112,-.5 1000,-.5"/>
<text text-anchor="start" x="1008" y="-18.5" font-family="Helvetica,sans-Serif" font-size="10.00" fill="#000000">game::tic_tac_toe::</text>
<text text-anchor="middle" x="1056" y="-7.5" font-family="Helvetica,sans-Serif" font-size="10.00" fill="#000000">ConsoleGame::loop</text>
</a>
</g>
</g>
<!-- Node63&#45;&gt;Node66 -->
<g id="edge7" class="edge">
<title>Node63&#45;&gt;Node66</title>
<path fill="none" stroke="#191970" d="M947.5387,-28.7136C965.3117,-26.5483 983.5216,-24.3299 999.8222,-22.344"/>
<polygon fill="#191970" stroke="#191970" points="946.6459,-25.2964 937.1426,-29.9801 947.4925,-32.245 946.6459,-25.2964"/>
</g>
<!-- Node65 -->
<g id="node7" class="node">
<title>Node65</title>
<g id="a_node7"><a xlink:href="main_8cpp.html#a1dfeea39dabf076270426c94def1a2a2" target="_top" xlink:title="main">
<polygon fill="none" stroke="#000000" points="1174,-55 1174,-74 1215,-74 1215,-55 1174,-55"/>
<text text-anchor="middle" x="1194.5" y="-62" font-family="Helvetica,sans-Serif" font-size="10.00" fill="#000000">main</text>
</a>
</g>
</g>
<!-- Node64&#45;&gt;Node65 -->
<g id="edge6" class="edge">
<title>Node64&#45;&gt;Node65</title>
<path fill="none" stroke="#191970" d="M1148.2725,-64.5C1157.7768,-64.5 1166.6282,-64.5 1173.9893,-64.5"/>
<polygon fill="#191970" stroke="#191970" points="1148.1668,-61.0001 1138.1667,-64.5 1148.1667,-68.0001 1148.1668,-61.0001"/>
</g>
</g>
</svg>
        <g id="navigator" transform="translate(0 0)" fill="#404254">
                <rect fill="#f2f5e9" fill-opacity="0.5" stroke="#606060" stroke-width=".5" x="0" y="0" width="60" height="60"/>
                <use id="zoomplus" xlink:href="#zoomPlus" x="17" y="9" onmousedown="handleZoom(evt,'in')"/>
                <use id="zoomminus" xlink:href="#zoomMin" x="42" y="9" onmousedown="handleZoom(evt,'out')"/>
                <use id="reset" xlink:href="#resetDef" x="30" y="36" onmousedown="handleReset()"/>
                <g id="arrowUp" xlink:href="#dirArrow" transform="translate(30 24)" onmousedown="handlePan(0,-1)">
                  <use xlink:href="#rim" fill="#404040">
                        <set attributeName="fill" to="#808080" begin="arrowUp.mouseover" end="arrowUp.mouseout"/>
                  </use>
                  <path fill="none" stroke="white" stroke-width="1.5" d="M0,-3.0v7 M-2.5,-0.5L0,-3.0L2.5,-0.5"/>
                </g>
                <g id="arrowRight" xlink:href="#dirArrow" transform="rotate(90) translate(36 -43)" onmousedown="handlePan(1,0)">
                  <use xlink:href="#rim" fill="#404040">
                        <set attributeName="fill" to="#808080" begin="arrowRight.mouseover" end="arrowRight.mouseout"/>
                  </use>
                  <path fill="none" stroke="white" stroke-width="1.5" d="M0,-3.0v7 M-2.5,-0.5L0,-3.0L2.5,-0.5"/>
                </g>
                <g id="arrowDown" xlink:href="#dirArrow" transform="rotate(180) translate(-30 -48)" onmousedown="handlePan(0,1)">
                  <use xlink:href="#rim" fill="#404040">
                        <set attributeName="fill" to="#808080" begin="arrowDown.mouseover" end="arrowDown.mouseout"/>
                  </use>
                  <path fill="none" stroke="white" stroke-width="1.5" d="M0,-3.0v7 M-2.5,-0.5L0,-3.0L2.5,-0.5"/>
                </g>
                <g id="arrowLeft" xlink:href="#dirArrow" transform="rotate(270) translate(-36 17)" onmousedown="handlePan(-1,0)">
                  <use xlink:href="#rim" fill="#404040">
                        <set attributeName="fill" to="#808080" begin="arrowLeft.mouseover" end="arrowLeft.mouseout"/>
                  </use>
                  <path fill="none" stroke="white" stroke-width="1.5" d="M0,-3.0v7 M-2.5,-0.5L0,-3.0L2.5,-0.5"/>
                </g>
        </g>
        <svg viewBox="0 0 15 15" width="100%" height="30px" preserveAspectRatio="xMaxYMin meet">
         <g id="arrow_out" transform="scale(0.3 0.3)">
          <a xlink:href="classmcts_1_1_m_c_t_s_a3e918b416dfe1e5155b077788936f137_icgraph_org.svg" target="_base">
           <rect id="button" ry="5" rx="5" y="6" x="6" height="38" width="38"
                fill="#f2f5e9" fill-opacity="0.5" stroke="#606060" stroke-width="1.0"/>
           <path id="arrow"
             d="M 11.500037,31.436501 C 11.940474,20.09759 22.043105,11.32322 32.158766,21.979434 L 37.068811,17.246167 C 37.068811,17.246167 37.088388,32 37.088388,32 L 22.160133,31.978069 C 22.160133,31.978069 26.997745,27.140456 26.997745,27.140456 C 18.528582,18.264221 13.291696,25.230495 11.500037,31.436501 z"
             style="fill:#404040;"/>
          </a>
         </g>
        </svg>
</svg>
