<?xml version="1.0" encoding="UTF-8" standalone="no"?>
<!DOCTYPE svg PUBLIC "-//W3C//DTD SVG 1.1//EN"
 "http://www.w3.org/Graphics/SVG/1.1/DTD/svg11.dtd">
<!-- Generated by graphviz version 2.40.1 (20161225.0304)
 -->
<!-- Title: game::penguin::BoardCell::getFish Pages: 1 -->
<!--zoomable 235 -->
<svg id="main" version="1.1" xmlns="http://www.w3.org/2000/svg" xmlns:xlink="http://www.w3.org/1999/xlink" xml:space="preserve" onload="init(evt)">
<style type="text/css"><![CDATA[
.edge:hover path { stroke: red; }
.edge:hover polygon { stroke: red; fill: red; }
]]></style>
<script type="text/javascript"><![CDATA[
var edges = document.getElementsByTagName('g');
if (edges && edges.length) {
  for (var i=0;i<edges.length;i++) {
    if (edges[i].id.substr(0,4)=='edge') {
      edges[i].setAttribute('class','edge');
    }
  }
}
]]></script>
        <defs>
                <circle id="rim" cx="0" cy="0" r="7"/>
                <circle id="rim2" cx="0" cy="0" r="3.5"/>
                <g id="zoomPlus">
                        <use xlink:href="#rim" fill="#404040">
                                <set attributeName="fill" to="#808080" begin="zoomplus.mouseover" end="zoomplus.mouseout"/>
                        </use>
                        <path d="M-4,0h8M0,-4v8" fill="none" stroke="white" stroke-width="1.5" pointer-events="none"/>
                </g>
                <g id="zoomMin">
                        <use xlink:href="#rim" fill="#404040">
                                <set attributeName="fill" to="#808080" begin="zoomminus.mouseover" end="zoomminus.mouseout"/>
                        </use>
                        <path d="M-4,0h8" fill="none" stroke="white" stroke-width="1.5" pointer-events="none"/>
                </g>
                <g id="dirArrow">
                        <path fill="none" stroke="white" stroke-width="1.5" d="M0,-3.0v7 M-2.5,-0.5L0,-3.0L2.5,-0.5"/>
                </g>
               <g id="resetDef">
                       <use xlink:href="#rim2" fill="#404040">
                               <set attributeName="fill" to="#808080" begin="reset.mouseover" end="reset.mouseout"/>
                       </use>
               </g>
        </defs>

<script type="text/javascript">
var viewWidth = 509;
var viewHeight = 235;
var sectionId = 'dynsection-8';
</script>
<script xlink:href="svgpan.js"/>
<svg id="graph" class="graph">
<g id="viewport">
<title>game::penguin::BoardCell::getFish</title>
<!-- Node43 -->
<g id="node1" class="node">
<title>Node43</title>
<polygon fill="#bfbfbf" stroke="#000000" points="0,-122.5 0,-152.5 143,-152.5 143,-122.5 0,-122.5"/>
<text text-anchor="start" x="8" y="-140.5" font-family="Helvetica,sans-Serif" font-size="10.00" fill="#000000">game::penguin::BoardCell</text>
<text text-anchor="middle" x="71.5" y="-129.5" font-family="Helvetica,sans-Serif" font-size="10.00" fill="#000000">::getFish</text>
</g>
<!-- Node44 -->
<g id="node2" class="node">
<title>Node44</title>
<g id="a_node2"><a xlink:href="classgame_1_1penguin_1_1_board_cell.html#a1ed5a3134f831bef111c6294c07388bf" target="_top" xlink:title="game::penguin::BoardCell\l::equals_to">
<polygon fill="none" stroke="#000000" points="179,-171.5 179,-201.5 322,-201.5 322,-171.5 179,-171.5"/>
<text text-anchor="start" x="187" y="-189.5" font-family="Helvetica,sans-Serif" font-size="10.00" fill="#000000">game::penguin::BoardCell</text>
<text text-anchor="middle" x="250.5" y="-178.5" font-family="Helvetica,sans-Serif" font-size="10.00" fill="#000000">::equals_to</text>
</a>
</g>
</g>
<!-- Node43&#45;&gt;Node44 -->
<g id="edge1" class="edge">
<title>Node43&#45;&gt;Node44</title>
<path fill="none" stroke="#191970" d="M126.6665,-152.6014C145.3842,-157.7253 166.4635,-163.4956 185.8526,-168.8032"/>
<polygon fill="#191970" stroke="#191970" points="184.9464,-172.1839 195.5157,-171.4484 186.7946,-165.4323 184.9464,-172.1839"/>
</g>
<!-- Node46 -->
<g id="node4" class="node">
<title>Node46</title>
<g id="a_node4"><a xlink:href="classgame_1_1penguin_1_1_board_cell.html#a4d3577488552bf0ba4822ac265532825" target="_top" xlink:title="game::penguin::BoardCell\l::clone">
<polygon fill="none" stroke="#000000" points="179,-98.5 179,-128.5 322,-128.5 322,-98.5 179,-98.5"/>
<text text-anchor="start" x="187" y="-116.5" font-family="Helvetica,sans-Serif" font-size="10.00" fill="#000000">game::penguin::BoardCell</text>
<text text-anchor="middle" x="250.5" y="-105.5" font-family="Helvetica,sans-Serif" font-size="10.00" fill="#000000">::clone</text>
</a>
</g>
</g>
<!-- Node43&#45;&gt;Node46 -->
<g id="edge3" class="edge">
<title>Node43&#45;&gt;Node46</title>
<path fill="none" stroke="#191970" d="M143.0172,-127.9111C151.4862,-126.7756 160.1793,-125.61 168.776,-124.4574"/>
<polygon fill="#191970" stroke="#191970" points="169.3581,-127.9108 178.8042,-123.1128 168.4278,-120.9729 169.3581,-127.9108"/>
</g>
<!-- Node45 -->
<g id="node3" class="node">
<title>Node45</title>
<g id="a_node3"><a xlink:href="classgame_1_1_abstract_pawn.html#a49354506912d0e1bf5272627aa2bc86e" target="_top" xlink:title="Get pawn&#39;s id. ">
<polygon fill="none" stroke="#000000" points="371.5,-196.5 371.5,-226.5 487.5,-226.5 487.5,-196.5 371.5,-196.5"/>
<text text-anchor="start" x="379.5" y="-214.5" font-family="Helvetica,sans-Serif" font-size="10.00" fill="#000000">game::AbstractPawn</text>
<text text-anchor="middle" x="429.5" y="-203.5" font-family="Helvetica,sans-Serif" font-size="10.00" fill="#000000">::getId</text>
</a>
</g>
</g>
<!-- Node44&#45;&gt;Node45 -->
<g id="edge2" class="edge">
<title>Node44&#45;&gt;Node45</title>
<path fill="none" stroke="#191970" d="M322.0172,-196.4884C334.9262,-198.2914 348.3557,-200.167 361.1708,-201.9568"/>
<polygon fill="#191970" stroke="#191970" points="360.9069,-205.4538 371.2949,-203.3708 361.8752,-198.5211 360.9069,-205.4538"/>
</g>
<!-- Node47 -->
<g id="node5" class="node">
<title>Node47</title>
<g id="a_node5"><a xlink:href="classgame_1_1penguin_1_1_board_cell.html#a2c76e638f5d0d4374b422756b08cb61f" target="_top" xlink:title="Construct a new Board Cell object. ">
<polygon fill="none" stroke="#000000" points="358,-147.5 358,-177.5 501,-177.5 501,-147.5 358,-147.5"/>
<text text-anchor="start" x="366" y="-165.5" font-family="Helvetica,sans-Serif" font-size="10.00" fill="#000000">game::penguin::BoardCell</text>
<text text-anchor="middle" x="429.5" y="-154.5" font-family="Helvetica,sans-Serif" font-size="10.00" fill="#000000">::BoardCell</text>
</a>
</g>
</g>
<!-- Node46&#45;&gt;Node47 -->
<g id="edge4" class="edge">
<title>Node46&#45;&gt;Node47</title>
<path fill="none" stroke="#191970" d="M305.6665,-128.6014C324.3842,-133.7253 345.4635,-139.4956 364.8526,-144.8032"/>
<polygon fill="#191970" stroke="#191970" points="363.9464,-148.1839 374.5157,-147.4484 365.7946,-141.4323 363.9464,-148.1839"/>
</g>
<!-- Node48 -->
<g id="node6" class="node">
<title>Node48</title>
<g id="a_node6"><a xlink:href="classgame_1_1penguin_1_1_board_cell.html#a12cd55e333821bcecaa201dde758c1a1" target="_top" xlink:title="Is a penguin on the cell. ">
<polygon fill="none" stroke="#000000" points="358,-98.5 358,-128.5 501,-128.5 501,-98.5 358,-98.5"/>
<text text-anchor="start" x="366" y="-116.5" font-family="Helvetica,sans-Serif" font-size="10.00" fill="#000000">game::penguin::BoardCell</text>
<text text-anchor="middle" x="429.5" y="-105.5" font-family="Helvetica,sans-Serif" font-size="10.00" fill="#000000">::isOwned</text>
</a>
</g>
</g>
<!-- Node46&#45;&gt;Node48 -->
<g id="edge5" class="edge">
<title>Node46&#45;&gt;Node48</title>
<path fill="none" stroke="#191970" d="M322.0172,-113.5C330.4862,-113.5 339.1793,-113.5 347.776,-113.5"/>
<polygon fill="#191970" stroke="#191970" points="347.8043,-117.0001 357.8042,-113.5 347.8042,-110.0001 347.8043,-117.0001"/>
</g>
<!-- Node49 -->
<g id="node7" class="node">
<title>Node49</title>
<g id="a_node7"><a xlink:href="classgame_1_1penguin_1_1_board.html#acae84c13dacef3bd988d1ea9a41d055f" target="_top" xlink:title="Get a player by it&#39;s id. ">
<polygon fill="none" stroke="#000000" points="367.5,-49.5 367.5,-79.5 491.5,-79.5 491.5,-49.5 367.5,-49.5"/>
<text text-anchor="start" x="375.5" y="-67.5" font-family="Helvetica,sans-Serif" font-size="10.00" fill="#000000">game::penguin::Board</text>
<text text-anchor="middle" x="429.5" y="-56.5" font-family="Helvetica,sans-Serif" font-size="10.00" fill="#000000">::getPawnById</text>
</a>
</g>
</g>
<!-- Node46&#45;&gt;Node49 -->
<g id="edge6" class="edge">
<title>Node46&#45;&gt;Node49</title>
<path fill="none" stroke="#191970" d="M305.6665,-98.3986C324.3842,-93.2747 345.4635,-87.5044 364.8526,-82.1968"/>
<polygon fill="#191970" stroke="#191970" points="365.7946,-85.5677 374.5157,-79.5516 363.9464,-78.8161 365.7946,-85.5677"/>
</g>
<!-- Node50 -->
<g id="node8" class="node">
<title>Node50</title>
<g id="a_node8"><a xlink:href="classgame_1_1penguin_1_1_board_cell.html#a011487b961b356a891144edcccc1473f" target="_top" xlink:title="Get the penguin standing on the cell. ">
<polygon fill="none" stroke="#000000" points="358,-.5 358,-30.5 501,-30.5 501,-.5 358,-.5"/>
<text text-anchor="start" x="366" y="-18.5" font-family="Helvetica,sans-Serif" font-size="10.00" fill="#000000">game::penguin::BoardCell</text>
<text text-anchor="middle" x="429.5" y="-7.5" font-family="Helvetica,sans-Serif" font-size="10.00" fill="#000000">::getOwner</text>
</a>
</g>
</g>
<!-- Node46&#45;&gt;Node50 -->
<g id="edge7" class="edge">
<title>Node46&#45;&gt;Node50</title>
<path fill="none" stroke="#191970" d="M269.3687,-98.4391C290.1307,-82.4182 324.9547,-57.1386 358,-40.5 362.254,-38.3581 366.7355,-36.3218 371.2949,-34.4042"/>
<polygon fill="#191970" stroke="#191970" points="372.7286,-37.6004 380.7153,-30.6388 370.1305,-31.1004 372.7286,-37.6004"/>
</g>
</g>
</svg>
        <g id="navigator" transform="translate(0 0)" fill="#404254">
                <rect fill="#f2f5e9" fill-opacity="0.5" stroke="#606060" stroke-width=".5" x="0" y="0" width="60" height="60"/>
                <use id="zoomplus" xlink:href="#zoomPlus" x="17" y="9" onmousedown="handleZoom(evt,'in')"/>
                <use id="zoomminus" xlink:href="#zoomMin" x="42" y="9" onmousedown="handleZoom(evt,'out')"/>
                <use id="reset" xlink:href="#resetDef" x="30" y="36" onmousedown="handleReset()"/>
                <g id="arrowUp" xlink:href="#dirArrow" transform="translate(30 24)" onmousedown="handlePan(0,-1)">
                  <use xlink:href="#rim" fill="#404040">
                        <set attributeName="fill" to="#808080" begin="arrowUp.mouseover" end="arrowUp.mouseout"/>
                  </use>
                  <path fill="none" stroke="white" stroke-width="1.5" d="M0,-3.0v7 M-2.5,-0.5L0,-3.0L2.5,-0.5"/>
                </g>
                <g id="arrowRight" xlink:href="#dirArrow" transform="rotate(90) translate(36 -43)" onmousedown="handlePan(1,0)">
                  <use xlink:href="#rim" fill="#404040">
                        <set attributeName="fill" to="#808080" begin="arrowRight.mouseover" end="arrowRight.mouseout"/>
                  </use>
                  <path fill="none" stroke="white" stroke-width="1.5" d="M0,-3.0v7 M-2.5,-0.5L0,-3.0L2.5,-0.5"/>
                </g>
                <g id="arrowDown" xlink:href="#dirArrow" transform="rotate(180) translate(-30 -48)" onmousedown="handlePan(0,1)">
                  <use xlink:href="#rim" fill="#404040">
                        <set attributeName="fill" to="#808080" begin="arrowDown.mouseover" end="arrowDown.mouseout"/>
                  </use>
                  <path fill="none" stroke="white" stroke-width="1.5" d="M0,-3.0v7 M-2.5,-0.5L0,-3.0L2.5,-0.5"/>
                </g>
                <g id="arrowLeft" xlink:href="#dirArrow" transform="rotate(270) translate(-36 17)" onmousedown="handlePan(-1,0)">
                  <use xlink:href="#rim" fill="#404040">
                        <set attributeName="fill" to="#808080" begin="arrowLeft.mouseover" end="arrowLeft.mouseout"/>
                  </use>
                  <path fill="none" stroke="white" stroke-width="1.5" d="M0,-3.0v7 M-2.5,-0.5L0,-3.0L2.5,-0.5"/>
                </g>
        </g>
        <svg viewBox="0 0 15 15" width="100%" height="30px" preserveAspectRatio="xMaxYMin meet">
         <g id="arrow_out" transform="scale(0.3 0.3)">
          <a xlink:href="classgame_1_1penguin_1_1_board_cell_abe8f2dc0eef3aed1e8701dc0b021c5a6_cgraph_org.svg" target="_base">
           <rect id="button" ry="5" rx="5" y="6" x="6" height="38" width="38"
                fill="#f2f5e9" fill-opacity="0.5" stroke="#606060" stroke-width="1.0"/>
           <path id="arrow"
             d="M 11.500037,31.436501 C 11.940474,20.09759 22.043105,11.32322 32.158766,21.979434 L 37.068811,17.246167 C 37.068811,17.246167 37.088388,32 37.088388,32 L 22.160133,31.978069 C 22.160133,31.978069 26.997745,27.140456 26.997745,27.140456 C 18.528582,18.264221 13.291696,25.230495 11.500037,31.436501 z"
             style="fill:#404040;"/>
          </a>
         </g>
        </svg>
</svg>
