<?xml version="1.0" encoding="UTF-8" standalone="no"?>
<!DOCTYPE svg PUBLIC "-//W3C//DTD SVG 1.1//EN"
 "http://www.w3.org/Graphics/SVG/1.1/DTD/svg11.dtd">
<!-- Generated by graphviz version 2.40.1 (20161225.0304)
 -->
<!-- Title: /workspace/src/game_logic/utils/conversions.cpp Pages: 1 -->
<svg width="260pt" height="207pt"
 viewBox="0.00 0.00 259.50 207.00" xmlns="http://www.w3.org/2000/svg" xmlns:xlink="http://www.w3.org/1999/xlink">
<g id="graph0" class="graph" transform="scale(1 1) rotate(0) translate(4 203)">
<title>/workspace/src/game_logic/utils/conversions.cpp</title>
<!-- Node0 -->
<g id="node1" class="node">
<title>Node0</title>
<polygon fill="#bfbfbf" stroke="#000000" points="46.5,-168.5 46.5,-198.5 197.5,-198.5 197.5,-168.5 46.5,-168.5"/>
<text text-anchor="start" x="54.5" y="-186.5" font-family="Helvetica,sans-Serif" font-size="10.00" fill="#000000">/workspace/src/game</text>
<text text-anchor="middle" x="122" y="-175.5" font-family="Helvetica,sans-Serif" font-size="10.00" fill="#000000">_logic/utils/conversions.cpp</text>
</g>
<!-- Node1 -->
<g id="node2" class="node">
<title>Node1</title>
<g id="a_node2"><a xlink:href="conversions_8hpp.html" target="_top" xlink:title="conversions.hpp">
<polygon fill="none" stroke="#000000" points="74,-112.5 74,-131.5 170,-131.5 170,-112.5 74,-112.5"/>
<text text-anchor="middle" x="122" y="-119.5" font-family="Helvetica,sans-Serif" font-size="10.00" fill="#000000">conversions.hpp</text>
</a>
</g>
</g>
<!-- Node0&#45;&gt;Node1 -->
<g id="edge1" class="edge">
<title>Node0&#45;&gt;Node1</title>
<path fill="none" stroke="#191970" d="M122,-168.2977C122,-160.3834 122,-150.6043 122,-142.0759"/>
<polygon fill="#191970" stroke="#191970" points="125.5001,-141.8469 122,-131.8469 118.5001,-141.847 125.5001,-141.8469"/>
</g>
<!-- Node2 -->
<g id="node3" class="node">
<title>Node2</title>
<g id="a_node3"><a xlink:href="_position_8hpp.html" target="_top" xlink:title="../utils/Position.hpp">
<polygon fill="none" stroke="#000000" points="0,-56.5 0,-75.5 110,-75.5 110,-56.5 0,-56.5"/>
<text text-anchor="middle" x="55" y="-63.5" font-family="Helvetica,sans-Serif" font-size="10.00" fill="#000000">../utils/Position.hpp</text>
</a>
</g>
</g>
<!-- Node1&#45;&gt;Node2 -->
<g id="edge2" class="edge">
<title>Node1&#45;&gt;Node2</title>
<path fill="none" stroke="#191970" d="M110.3295,-112.2455C100.4339,-103.9746 86.0373,-91.9416 74.4099,-82.2232"/>
<polygon fill="#191970" stroke="#191970" points="76.4542,-79.3703 66.5368,-75.6427 71.965,-84.7413 76.4542,-79.3703"/>
</g>
<!-- Node5 -->
<g id="node6" class="node">
<title>Node5</title>
<g id="a_node6"><a xlink:href="_position3_d_8hpp.html" target="_top" xlink:title="../utils/Position3D.hpp">
<polygon fill="none" stroke="#000000" points="128.5,-56.5 128.5,-75.5 251.5,-75.5 251.5,-56.5 128.5,-56.5"/>
<text text-anchor="middle" x="190" y="-63.5" font-family="Helvetica,sans-Serif" font-size="10.00" fill="#000000">../utils/Position3D.hpp</text>
</a>
</g>
</g>
<!-- Node1&#45;&gt;Node5 -->
<g id="edge5" class="edge">
<title>Node1&#45;&gt;Node5</title>
<path fill="none" stroke="#191970" d="M133.8447,-112.2455C143.888,-103.9746 158.4995,-91.9416 170.3004,-82.2232"/>
<polygon fill="#191970" stroke="#191970" points="172.7967,-84.7015 178.291,-75.6427 168.3467,-79.298 172.7967,-84.7015"/>
</g>
<!-- Node3 -->
<g id="node4" class="node">
<title>Node3</title>
<polygon fill="none" stroke="#bfbfbf" points="50.5,-.5 50.5,-19.5 103.5,-19.5 103.5,-.5 50.5,-.5"/>
<text text-anchor="middle" x="77" y="-7.5" font-family="Helvetica,sans-Serif" font-size="10.00" fill="#000000">stdlib.h</text>
</g>
<!-- Node2&#45;&gt;Node3 -->
<g id="edge3" class="edge">
<title>Node2&#45;&gt;Node3</title>
<path fill="none" stroke="#191970" d="M58.8321,-56.2455C61.7659,-48.7776 65.9047,-38.2427 69.491,-29.1137"/>
<polygon fill="#191970" stroke="#191970" points="72.8129,-30.23 73.2118,-19.6427 66.2976,-27.6704 72.8129,-30.23"/>
</g>
<!-- Node4 -->
<g id="node5" class="node">
<title>Node4</title>
<polygon fill="none" stroke="#bfbfbf" points="132.5,-.5 132.5,-19.5 225.5,-19.5 225.5,-.5 132.5,-.5"/>
<text text-anchor="middle" x="179" y="-7.5" font-family="Helvetica,sans-Serif" font-size="10.00" fill="#000000">unordered_map</text>
</g>
<!-- Node2&#45;&gt;Node4 -->
<g id="edge4" class="edge">
<title>Node2&#45;&gt;Node4</title>
<path fill="none" stroke="#191970" d="M76.3164,-56.3733C96.2216,-47.3838 126.1436,-33.8706 148.56,-23.7471"/>
<polygon fill="#191970" stroke="#191970" points="150.2887,-26.8068 157.9618,-19.5011 147.4075,-20.4272 150.2887,-26.8068"/>
</g>
<!-- Node5&#45;&gt;Node3 -->
<g id="edge6" class="edge">
<title>Node5&#45;&gt;Node3</title>
<path fill="none" stroke="#191970" d="M170.5746,-56.3733C152.5979,-47.4644 125.6559,-34.1127 105.291,-24.0203"/>
<polygon fill="#191970" stroke="#191970" points="106.6861,-20.8055 96.1719,-19.5011 103.5778,-27.0776 106.6861,-20.8055"/>
</g>
<!-- Node5&#45;&gt;Node4 -->
<g id="edge7" class="edge">
<title>Node5&#45;&gt;Node4</title>
<path fill="none" stroke="#191970" d="M188.0839,-56.2455C186.6486,-48.9382 184.6364,-38.6944 182.8705,-29.7046"/>
<polygon fill="#191970" stroke="#191970" points="186.256,-28.7805 180.8941,-19.6427 179.3873,-30.1298 186.256,-28.7805"/>
</g>
</g>
</svg>
