<?xml version="1.0" encoding="UTF-8" standalone="no"?>
<!DOCTYPE svg PUBLIC "-//W3C//DTD SVG 1.1//EN"
 "http://www.w3.org/Graphics/SVG/1.1/DTD/svg11.dtd">
<!-- Generated by graphviz version 2.40.1 (20161225.0304)
 -->
<!-- Title: /workspace/src/game_logic/penguin Pages: 1 -->
<svg width="152pt" height="151pt"
 viewBox="0.00 0.00 152.00 151.00" xmlns="http://www.w3.org/2000/svg" xmlns:xlink="http://www.w3.org/1999/xlink">
<g id="graph0" class="graph" transform="scale(1 1) rotate(0) translate(4 147)">
<title>/workspace/src/game_logic/penguin</title>
<g id="clust1" class="cluster">
<title>clusterdir_67c31d1dabedcd2de121732d2ab29758</title>
<g id="a_clust1"><a xlink:href="dir_67c31d1dabedcd2de121732d2ab29758.html" target="_top" xlink:title="game_logic">
<polygon fill="#ddddee" stroke="#000000" points="8,-64 8,-135 81,-135 81,-64 8,-64"/>
<text text-anchor="middle" x="44.5" y="-123" font-family="Helvetica,sans-Serif" font-size="10.00" fill="#000000">game_logic</text>
</a>
</g>
</g>
<!-- dir_3d571726d2a03b99b8b056d1165a6136 -->
<g id="node1" class="node">
<title>dir_3d571726d2a03b99b8b056d1165a6136</title>
<g id="a_node1"><a xlink:href="dir_3d571726d2a03b99b8b056d1165a6136.html" target="_top" xlink:title="penguin">
<polygon fill="#eeeeff" stroke="#000000" points="72,-108 16,-108 16,-72 72,-72 72,-108"/>
<text text-anchor="middle" x="44" y="-87.5" font-family="Helvetica,sans-Serif" font-size="10.00" fill="#000000">penguin</text>
</a>
</g>
</g>
<!-- dir_40ef77c4b8501182ec5a1210fe11d29f -->
<g id="node2" class="node">
<title>dir_40ef77c4b8501182ec5a1210fe11d29f</title>
<g id="a_node2"><a xlink:href="dir_40ef77c4b8501182ec5a1210fe11d29f.html" target="_top" xlink:title="utils">
<polygon fill="none" stroke="#000000" points="107,-36 53,-36 53,0 107,0 107,-36"/>
<text text-anchor="middle" x="80" y="-15.5" font-family="Helvetica,sans-Serif" font-size="10.00" fill="#000000">utils</text>
</a>
</g>
</g>
<!-- dir_3d571726d2a03b99b8b056d1165a6136&#45;&gt;dir_40ef77c4b8501182ec5a1210fe11d29f -->
<g id="edge2" class="edge">
<title>dir_3d571726d2a03b99b8b056d1165a6136&#45;&gt;dir_40ef77c4b8501182ec5a1210fe11d29f</title>
<path fill="none" stroke="#000000" d="M47.1319,-71.8314C50.368,-63.7925 54.9746,-54.1666 59.7828,-45.2918"/>
<polygon fill="#000000" stroke="#000000" points="62.9292,-46.8385 64.8174,-36.4133 56.8401,-43.3856 62.9292,-46.8385"/>
<g id="a_edge2&#45;headlabel"><a xlink:href="dir_000002_000004.html" target="_top" xlink:title="7">
<text text-anchor="middle" x="63.626" y="-48.8659" font-family="Helvetica,sans-Serif" font-size="10.00" fill="#000000">7</text>
</a>
</g>
</g>
<!-- dir_a8e9c5c3b84d532c328524d59d900346 -->
<g id="node3" class="node">
<title>dir_a8e9c5c3b84d532c328524d59d900346</title>
<g id="a_node3"><a xlink:href="dir_a8e9c5c3b84d532c328524d59d900346.html" target="_top" xlink:title="mcts">
<polygon fill="none" stroke="#000000" points="144,-108 90,-108 90,-72 144,-72 144,-108"/>
<text text-anchor="middle" x="117" y="-87.5" font-family="Helvetica,sans-Serif" font-size="10.00" fill="#000000">mcts</text>
</a>
</g>
</g>
<!-- dir_3d571726d2a03b99b8b056d1165a6136&#45;&gt;dir_a8e9c5c3b84d532c328524d59d900346 -->
<g id="edge3" class="edge">
<title>dir_3d571726d2a03b99b8b056d1165a6136&#45;&gt;dir_a8e9c5c3b84d532c328524d59d900346</title>
<path fill="none" stroke="#000000" d="M72.2305,-90C74.6897,-90 77.149,-90 79.6083,-90"/>
<polygon fill="#000000" stroke="#000000" points="79.7186,-93.5001 89.7186,-90 79.7185,-86.5001 79.7186,-93.5001"/>
<g id="a_edge3&#45;headlabel"><a xlink:href="dir_000002_000005.html" target="_top" xlink:title="1">
<text text-anchor="middle" x="76.124" y="-93.8393" font-family="Helvetica,sans-Serif" font-size="10.00" fill="#000000">1</text>
</a>
</g>
</g>
<!-- dir_40ef77c4b8501182ec5a1210fe11d29f&#45;&gt;dir_3d571726d2a03b99b8b056d1165a6136 -->
<g id="edge1" class="edge">
<title>dir_40ef77c4b8501182ec5a1210fe11d29f&#45;&gt;dir_3d571726d2a03b99b8b056d1165a6136</title>
<path fill="none" stroke="#000000" d="M76.7694,-36.4133C73.5057,-44.484 68.8833,-54.1182 64.0711,-62.9775"/>
<polygon fill="#000000" stroke="#000000" points="60.9372,-61.4084 59.0367,-71.8314 67.0222,-64.8684 60.9372,-61.4084"/>
<g id="a_edge1&#45;headlabel"><a xlink:href="dir_000004_000002.html" target="_top" xlink:title="2">
<text text-anchor="middle" x="60.2457" y="-54.3802" font-family="Helvetica,sans-Serif" font-size="10.00" fill="#000000">2</text>
</a>
</g>
</g>
<!-- dir_a8e9c5c3b84d532c328524d59d900346&#45;&gt;dir_3d571726d2a03b99b8b056d1165a6136 -->
<g id="edge5" class="edge">
<title>dir_a8e9c5c3b84d532c328524d59d900346&#45;&gt;dir_3d571726d2a03b99b8b056d1165a6136</title>
<path fill="none" stroke="#000000" d="M89.7186,-90C87.2593,-90 84.8,-90 82.3408,-90"/>
<polygon fill="#000000" stroke="#000000" points="82.2305,-86.5001 72.2305,-90 82.2304,-93.5001 82.2305,-86.5001"/>
<g id="a_edge5&#45;headlabel"><a xlink:href="dir_000005_000002.html" target="_top" xlink:title="9">
<text text-anchor="middle" x="85.8251" y="-81.1607" font-family="Helvetica,sans-Serif" font-size="10.00" fill="#000000">9</text>
</a>
</g>
</g>
<!-- dir_a8e9c5c3b84d532c328524d59d900346&#45;&gt;dir_40ef77c4b8501182ec5a1210fe11d29f -->
<g id="edge4" class="edge">
<title>dir_a8e9c5c3b84d532c328524d59d900346&#45;&gt;dir_40ef77c4b8501182ec5a1210fe11d29f</title>
<path fill="none" stroke="#000000" d="M107.6633,-71.8314C103.5757,-63.8771 98.6896,-54.369 94.1691,-45.5723"/>
<polygon fill="#000000" stroke="#000000" points="97.1461,-43.7078 89.4624,-36.4133 90.9201,-46.9074 97.1461,-43.7078"/>
<g id="a_edge4&#45;headlabel"><a xlink:href="dir_000005_000004.html" target="_top" xlink:title="1">
<text text-anchor="middle" x="101.3144" y="-43.1073" font-family="Helvetica,sans-Serif" font-size="10.00" fill="#000000">1</text>
</a>
</g>
</g>
</g>
</svg>
