<?xml version="1.0" encoding="UTF-8" standalone="no"?>
<!DOCTYPE svg PUBLIC "-//W3C//DTD SVG 1.1//EN"
 "http://www.w3.org/Graphics/SVG/1.1/DTD/svg11.dtd">
<!-- Generated by graphviz version 2.40.1 (20161225.0304)
 -->
<!-- Title: /workspace/src/main.cpp Pages: 1 -->
<!--zoomable 330 -->
<svg id="main" version="1.1" xmlns="http://www.w3.org/2000/svg" xmlns:xlink="http://www.w3.org/1999/xlink" xml:space="preserve" onload="init(evt)">
<style type="text/css"><![CDATA[
.edge:hover path { stroke: red; }
.edge:hover polygon { stroke: red; fill: red; }
]]></style>
<script type="text/javascript"><![CDATA[
var edges = document.getElementsByTagName('g');
if (edges && edges.length) {
  for (var i=0;i<edges.length;i++) {
    if (edges[i].id.substr(0,4)=='edge') {
      edges[i].setAttribute('class','edge');
    }
  }
}
]]></script>
        <defs>
                <circle id="rim" cx="0" cy="0" r="7"/>
                <circle id="rim2" cx="0" cy="0" r="3.5"/>
                <g id="zoomPlus">
                        <use xlink:href="#rim" fill="#404040">
                                <set attributeName="fill" to="#808080" begin="zoomplus.mouseover" end="zoomplus.mouseout"/>
                        </use>
                        <path d="M-4,0h8M0,-4v8" fill="none" stroke="white" stroke-width="1.5" pointer-events="none"/>
                </g>
                <g id="zoomMin">
                        <use xlink:href="#rim" fill="#404040">
                                <set attributeName="fill" to="#808080" begin="zoomminus.mouseover" end="zoomminus.mouseout"/>
                        </use>
                        <path d="M-4,0h8" fill="none" stroke="white" stroke-width="1.5" pointer-events="none"/>
                </g>
                <g id="dirArrow">
                        <path fill="none" stroke="white" stroke-width="1.5" d="M0,-3.0v7 M-2.5,-0.5L0,-3.0L2.5,-0.5"/>
                </g>
               <g id="resetDef">
                       <use xlink:href="#rim2" fill="#404040">
                               <set attributeName="fill" to="#808080" begin="reset.mouseover" end="reset.mouseout"/>
                       </use>
               </g>
        </defs>

<script type="text/javascript">
var viewWidth = 901;
var viewHeight = 330;
var sectionId = 'dynsection-0';
</script>
<script xlink:href="svgpan.js"/>
<svg id="graph" class="graph">
<g id="viewport">
<title>/workspace/src/main.cpp</title>
<!-- Node0 -->
<g id="node1" class="node">
<title>Node0</title>
<polygon fill="#bfbfbf" stroke="#000000" points="343,-302.5 343,-321.5 480,-321.5 480,-302.5 343,-302.5"/>
<text text-anchor="middle" x="411.5" y="-309.5" font-family="Helvetica,sans-Serif" font-size="10.00" fill="#000000">/workspace/src/main.cpp</text>
</g>
<!-- Node1 -->
<g id="node2" class="node">
<title>Node1</title>
<polygon fill="none" stroke="#bfbfbf" points="215.5,-241 215.5,-260 265.5,-260 265.5,-241 215.5,-241"/>
<text text-anchor="middle" x="240.5" y="-248" font-family="Helvetica,sans-Serif" font-size="10.00" fill="#000000">cstring</text>
</g>
<!-- Node0&#45;&gt;Node1 -->
<g id="edge1" class="edge">
<title>Node0&#45;&gt;Node1</title>
<path fill="none" stroke="#191970" d="M380.1544,-302.4953C352.169,-293.769 310.2078,-280.0901 274.5,-266 272.9235,-265.3779 271.3147,-264.7214 269.6966,-264.0439"/>
<polygon fill="#191970" stroke="#191970" points="271.053,-260.8172 260.4875,-260.0288 268.2553,-267.2338 271.053,-260.8172"/>
</g>
<!-- Node2 -->
<g id="node3" class="node">
<title>Node2</title>
<polygon fill="none" stroke="#bfbfbf" points="815.5,-123.5 815.5,-142.5 875.5,-142.5 875.5,-123.5 815.5,-123.5"/>
<text text-anchor="middle" x="845.5" y="-130.5" font-family="Helvetica,sans-Serif" font-size="10.00" fill="#000000">iostream</text>
</g>
<!-- Node0&#45;&gt;Node2 -->
<g id="edge2" class="edge">
<title>Node0&#45;&gt;Node2</title>
<path fill="none" stroke="#191970" d="M453.1274,-302.4855C518.8581,-286.5248 649.6769,-250.9217 751.5,-199 778.9789,-184.9879 807.5705,-163.8118 825.8972,-149.2453"/>
<polygon fill="#191970" stroke="#191970" points="828.4387,-151.6917 834.0195,-142.6858 824.0406,-146.2458 828.4387,-151.6917"/>
</g>
<!-- Node3 -->
<g id="node4" class="node">
<title>Node3</title>
<g id="a_node4"><a xlink:href="penguin_2_console_game_8hpp.html" target="_top" xlink:title="game_logic/penguin\l/ConsoleGame.hpp">
<polygon fill="none" stroke="#000000" points="284,-235.5 284,-265.5 399,-265.5 399,-235.5 284,-235.5"/>
<text text-anchor="start" x="292" y="-253.5" font-family="Helvetica,sans-Serif" font-size="10.00" fill="#000000">game_logic/penguin</text>
<text text-anchor="middle" x="341.5" y="-242.5" font-family="Helvetica,sans-Serif" font-size="10.00" fill="#000000">/ConsoleGame.hpp</text>
</a>
</g>
</g>
<!-- Node0&#45;&gt;Node3 -->
<g id="edge3" class="edge">
<title>Node0&#45;&gt;Node3</title>
<path fill="none" stroke="#191970" d="M400.5625,-302.3906C391.4397,-294.3756 378.0897,-282.6466 366.3888,-272.3666"/>
<polygon fill="#191970" stroke="#191970" points="368.4465,-269.5155 358.6239,-265.5446 363.8263,-274.7742 368.4465,-269.5155"/>
</g>
<!-- Node14 -->
<g id="node15" class="node">
<title>Node14</title>
<g id="a_node15"><a xlink:href="tic__tac__toe_2_console_game_8hpp.html" target="_top" xlink:title="game_logic/tic_tac\l_toe/ConsoleGame.hpp">
<polygon fill="none" stroke="#000000" points="417.5,-235.5 417.5,-265.5 547.5,-265.5 547.5,-235.5 417.5,-235.5"/>
<text text-anchor="start" x="425.5" y="-253.5" font-family="Helvetica,sans-Serif" font-size="10.00" fill="#000000">game_logic/tic_tac</text>
<text text-anchor="middle" x="482.5" y="-242.5" font-family="Helvetica,sans-Serif" font-size="10.00" fill="#000000">_toe/ConsoleGame.hpp</text>
</a>
</g>
</g>
<!-- Node0&#45;&gt;Node14 -->
<g id="edge14" class="edge">
<title>Node0&#45;&gt;Node14</title>
<path fill="none" stroke="#191970" d="M422.5938,-302.3906C431.8468,-294.3756 445.3876,-282.6466 457.2556,-272.3666"/>
<polygon fill="#191970" stroke="#191970" points="459.8643,-274.7374 465.1314,-265.5446 455.2812,-269.4464 459.8643,-274.7374"/>
</g>
<!-- Node4 -->
<g id="node5" class="node">
<title>Node4</title>
<g id="a_node5"><a xlink:href="_abstract_interface_8hpp.html" target="_top" xlink:title="../AbstractInterface.hpp">
<polygon fill="none" stroke="#000000" points="300,-179.5 300,-198.5 431,-198.5 431,-179.5 300,-179.5"/>
<text text-anchor="middle" x="365.5" y="-186.5" font-family="Helvetica,sans-Serif" font-size="10.00" fill="#000000">../AbstractInterface.hpp</text>
</a>
</g>
</g>
<!-- Node3&#45;&gt;Node4 -->
<g id="edge4" class="edge">
<title>Node3&#45;&gt;Node4</title>
<path fill="none" stroke="#191970" d="M347.4326,-235.2977C350.6252,-227.1166 354.5954,-216.943 358.0004,-208.2179"/>
<polygon fill="#191970" stroke="#191970" points="361.2823,-209.4351 361.6573,-198.8469 354.7613,-206.8903 361.2823,-209.4351"/>
</g>
<!-- Node5 -->
<g id="node6" class="node">
<title>Node5</title>
<g id="a_node6"><a xlink:href="_penguin_game_8hpp.html" target="_top" xlink:title="PenguinGame.hpp">
<polygon fill="none" stroke="#000000" points="175.5,-179.5 175.5,-198.5 281.5,-198.5 281.5,-179.5 175.5,-179.5"/>
<text text-anchor="middle" x="228.5" y="-186.5" font-family="Helvetica,sans-Serif" font-size="10.00" fill="#000000">PenguinGame.hpp</text>
</a>
</g>
</g>
<!-- Node3&#45;&gt;Node5 -->
<g id="edge5" class="edge">
<title>Node3&#45;&gt;Node5</title>
<path fill="none" stroke="#191970" d="M313.8571,-235.4554C295.9951,-225.734 272.8732,-213.15 255.2005,-203.5317"/>
<polygon fill="#191970" stroke="#191970" points="256.4675,-200.2365 246.011,-198.5303 253.1213,-206.3849 256.4675,-200.2365"/>
</g>
<!-- Node10 -->
<g id="node11" class="node">
<title>Node10</title>
<g id="a_node11"><a xlink:href="_print_hex_8hpp.html" target="_top" xlink:title="PrintHex.hpp">
<polygon fill="none" stroke="#000000" points="72.5,-179.5 72.5,-198.5 152.5,-198.5 152.5,-179.5 72.5,-179.5"/>
<text text-anchor="middle" x="112.5" y="-186.5" font-family="Helvetica,sans-Serif" font-size="10.00" fill="#000000">PrintHex.hpp</text>
</a>
</g>
</g>
<!-- Node3&#45;&gt;Node10 -->
<g id="edge10" class="edge">
<title>Node3&#45;&gt;Node10</title>
<path fill="none" stroke="#191970" d="M285.4803,-235.4554C246.2655,-224.9239 194.5408,-211.0328 157.8989,-201.1923"/>
<polygon fill="#191970" stroke="#191970" points="158.5525,-197.7438 147.9869,-198.5303 156.7368,-204.5043 158.5525,-197.7438"/>
</g>
<!-- Node6 -->
<g id="node7" class="node">
<title>Node6</title>
<polygon fill="none" stroke="#bfbfbf" points="182.5,-123.5 182.5,-142.5 226.5,-142.5 226.5,-123.5 182.5,-123.5"/>
<text text-anchor="middle" x="204.5" y="-130.5" font-family="Helvetica,sans-Serif" font-size="10.00" fill="#000000">limits</text>
</g>
<!-- Node5&#45;&gt;Node6 -->
<g id="edge6" class="edge">
<title>Node5&#45;&gt;Node6</title>
<path fill="none" stroke="#191970" d="M224.3195,-179.2455C221.119,-171.7776 216.604,-161.2427 212.6916,-152.1137"/>
<polygon fill="#191970" stroke="#191970" points="215.7888,-150.4554 208.6326,-142.6427 209.3548,-153.2129 215.7888,-150.4554"/>
</g>
<!-- Node7 -->
<g id="node8" class="node">
<title>Node7</title>
<g id="a_node8"><a xlink:href="_abstract_game_8hpp.html" target="_top" xlink:title="../AbstractGame.hpp">
<polygon fill="none" stroke="#000000" points="228.5,-62 228.5,-81 344.5,-81 344.5,-62 228.5,-62"/>
<text text-anchor="middle" x="286.5" y="-69" font-family="Helvetica,sans-Serif" font-size="10.00" fill="#000000">../AbstractGame.hpp</text>
</a>
</g>
</g>
<!-- Node5&#45;&gt;Node7 -->
<g id="edge7" class="edge">
<title>Node5&#45;&gt;Node7</title>
<path fill="none" stroke="#191970" d="M281.6634,-179.7302C302.7302,-173.1702 324.8965,-161.9987 337.5,-143 350.5693,-123.299 329.0975,-101.2333 310.132,-86.8946"/>
<polygon fill="#191970" stroke="#191970" points="312.1652,-84.0458 301.997,-81.0694 308.0898,-89.7371 312.1652,-84.0458"/>
</g>
<!-- Node8 -->
<g id="node9" class="node">
<title>Node8</title>
<polygon fill="none" stroke="#bfbfbf" points="306,-.5 306,-19.5 353,-19.5 353,-.5 306,-.5"/>
<text text-anchor="middle" x="329.5" y="-7.5" font-family="Helvetica,sans-Serif" font-size="10.00" fill="#000000">vector</text>
</g>
<!-- Node7&#45;&gt;Node8 -->
<g id="edge8" class="edge">
<title>Node7&#45;&gt;Node8</title>
<path fill="none" stroke="#191970" d="M293.2188,-61.8906C299.493,-52.917 309.0223,-39.2879 316.7404,-28.2491"/>
<polygon fill="#191970" stroke="#191970" points="319.8247,-29.9459 322.6865,-19.7449 314.0879,-25.9348 319.8247,-29.9459"/>
</g>
<!-- Node9 -->
<g id="node10" class="node">
<title>Node9</title>
<g id="a_node10"><a xlink:href="_move_8hpp.html" target="_top" xlink:title="utils/Move.hpp">
<polygon fill="none" stroke="#000000" points="199.5,-.5 199.5,-19.5 287.5,-19.5 287.5,-.5 199.5,-.5"/>
<text text-anchor="middle" x="243.5" y="-7.5" font-family="Helvetica,sans-Serif" font-size="10.00" fill="#000000">utils/Move.hpp</text>
</a>
</g>
</g>
<!-- Node7&#45;&gt;Node9 -->
<g id="edge9" class="edge">
<title>Node7&#45;&gt;Node9</title>
<path fill="none" stroke="#191970" d="M279.7813,-61.8906C273.507,-52.917 263.9777,-39.2879 256.2596,-28.2491"/>
<polygon fill="#191970" stroke="#191970" points="258.9121,-25.9348 250.3135,-19.7449 253.1753,-29.9459 258.9121,-25.9348"/>
</g>
<!-- Node11 -->
<g id="node12" class="node">
<title>Node11</title>
<g id="a_node12"><a xlink:href="_position_8hpp.html" target="_top" xlink:title="../utils/Position.hpp">
<polygon fill="none" stroke="#000000" points="54.5,-123.5 54.5,-142.5 164.5,-142.5 164.5,-123.5 54.5,-123.5"/>
<text text-anchor="middle" x="109.5" y="-130.5" font-family="Helvetica,sans-Serif" font-size="10.00" fill="#000000">../utils/Position.hpp</text>
</a>
</g>
</g>
<!-- Node10&#45;&gt;Node11 -->
<g id="edge11" class="edge">
<title>Node10&#45;&gt;Node11</title>
<path fill="none" stroke="#191970" d="M111.9774,-179.2455C111.586,-171.9382 111.0372,-161.6944 110.5556,-152.7046"/>
<polygon fill="#191970" stroke="#191970" points="114.0466,-152.4411 110.0166,-142.6427 107.0566,-152.8156 114.0466,-152.4411"/>
</g>
<!-- Node12 -->
<g id="node13" class="node">
<title>Node12</title>
<polygon fill="none" stroke="#bfbfbf" points="0,-62 0,-81 53,-81 53,-62 0,-62"/>
<text text-anchor="middle" x="26.5" y="-69" font-family="Helvetica,sans-Serif" font-size="10.00" fill="#000000">stdlib.h</text>
</g>
<!-- Node11&#45;&gt;Node12 -->
<g id="edge12" class="edge">
<title>Node11&#45;&gt;Node12</title>
<path fill="none" stroke="#191970" d="M96.5313,-123.3906C83.4966,-113.7324 63.1836,-98.6812 47.7845,-87.271"/>
<polygon fill="#191970" stroke="#191970" points="49.4961,-84.1832 39.3777,-81.0419 45.3287,-89.8075 49.4961,-84.1832"/>
</g>
<!-- Node13 -->
<g id="node14" class="node">
<title>Node13</title>
<polygon fill="none" stroke="#bfbfbf" points="71,-62 71,-81 164,-81 164,-62 71,-62"/>
<text text-anchor="middle" x="117.5" y="-69" font-family="Helvetica,sans-Serif" font-size="10.00" fill="#000000">unordered_map</text>
</g>
<!-- Node11&#45;&gt;Node13 -->
<g id="edge13" class="edge">
<title>Node11&#45;&gt;Node13</title>
<path fill="none" stroke="#191970" d="M110.75,-123.3906C111.8589,-114.8657 113.5144,-102.1392 114.9083,-91.4235"/>
<polygon fill="#191970" stroke="#191970" points="118.4131,-91.6128 116.2324,-81.2449 111.4716,-90.7098 118.4131,-91.6128"/>
</g>
<!-- Node14&#45;&gt;Node4 -->
<g id="edge15" class="edge">
<title>Node14&#45;&gt;Node4</title>
<path fill="none" stroke="#191970" d="M453.8786,-235.4554C435.213,-225.644 411.0001,-212.9167 392.6388,-203.2653"/>
<polygon fill="#191970" stroke="#191970" points="394.111,-200.0851 383.6308,-198.5303 390.854,-206.2812 394.111,-200.0851"/>
</g>
<!-- Node15 -->
<g id="node16" class="node">
<title>Node15</title>
<g id="a_node16"><a xlink:href="_tic_tac_toe_8hpp.html" target="_top" xlink:title="TicTacToe.hpp">
<polygon fill="none" stroke="#000000" points="244.5,-123.5 244.5,-142.5 328.5,-142.5 328.5,-123.5 244.5,-123.5"/>
<text text-anchor="middle" x="286.5" y="-130.5" font-family="Helvetica,sans-Serif" font-size="10.00" fill="#000000">TicTacToe.hpp</text>
</a>
</g>
</g>
<!-- Node14&#45;&gt;Node15 -->
<g id="edge16" class="edge">
<title>Node14&#45;&gt;Node15</title>
<path fill="none" stroke="#191970" d="M477.2161,-235.3791C470.7791,-219.1299 458.3708,-193.667 439.5,-179 410.4507,-156.422 370.4286,-144.8915 338.6035,-139.0218"/>
<polygon fill="#191970" stroke="#191970" points="339.03,-135.544 328.583,-137.3081 337.8499,-142.4438 339.03,-135.544"/>
</g>
<!-- Node16 -->
<g id="node17" class="node">
<title>Node16</title>
<g id="a_node17"><a xlink:href="_player_8hpp.html" target="_top" xlink:title="Player.hpp">
<polygon fill="none" stroke="#000000" points="674.5,-179.5 674.5,-198.5 742.5,-198.5 742.5,-179.5 674.5,-179.5"/>
<text text-anchor="middle" x="708.5" y="-186.5" font-family="Helvetica,sans-Serif" font-size="10.00" fill="#000000">Player.hpp</text>
</a>
</g>
</g>
<!-- Node14&#45;&gt;Node16 -->
<g id="edge19" class="edge">
<title>Node14&#45;&gt;Node16</title>
<path fill="none" stroke="#191970" d="M537.7858,-235.4554C576.8452,-224.8264 628.4804,-210.7753 664.6965,-200.92"/>
<polygon fill="#191970" stroke="#191970" points="665.7491,-204.2609 674.4792,-198.2579 663.911,-197.5065 665.7491,-204.2609"/>
</g>
<!-- Node19 -->
<g id="node20" class="node">
<title>Node19</title>
<g id="a_node20"><a xlink:href="_m_c_t_s_player_8hpp.html" target="_top" xlink:title="../../mcts/MCTSPlayer.hpp">
<polygon fill="none" stroke="#000000" points="487.5,-179.5 487.5,-198.5 627.5,-198.5 627.5,-179.5 487.5,-179.5"/>
<text text-anchor="middle" x="557.5" y="-186.5" font-family="Helvetica,sans-Serif" font-size="10.00" fill="#000000">../../mcts/MCTSPlayer.hpp</text>
</a>
</g>
</g>
<!-- Node14&#45;&gt;Node19 -->
<g id="edge23" class="edge">
<title>Node14&#45;&gt;Node19</title>
<path fill="none" stroke="#191970" d="M501.0393,-235.2977C512.1008,-226.2274 526.1491,-214.7077 537.4653,-205.4285"/>
<polygon fill="#191970" stroke="#191970" points="539.9781,-207.8942 545.4916,-198.8469 535.5396,-202.4813 539.9781,-207.8942"/>
</g>
<!-- Node15&#45;&gt;Node7 -->
<g id="edge18" class="edge">
<title>Node15&#45;&gt;Node7</title>
<path fill="none" stroke="#191970" d="M286.5,-123.3906C286.5,-114.8657 286.5,-102.1392 286.5,-91.4235"/>
<polygon fill="#191970" stroke="#191970" points="290.0001,-91.2448 286.5,-81.2449 283.0001,-91.2449 290.0001,-91.2448"/>
</g>
<!-- Node15&#45;&gt;Node9 -->
<g id="edge17" class="edge">
<title>Node15&#45;&gt;Node9</title>
<path fill="none" stroke="#191970" d="M262.0288,-123.3462C246.7893,-115.9011 228.4388,-103.9799 219.5,-87 209.5218,-68.0457 220.0388,-44.2488 230.1197,-28.1651"/>
<polygon fill="#191970" stroke="#191970" points="233.1524,-29.9281 235.8465,-19.6815 227.3506,-26.0116 233.1524,-29.9281"/>
</g>
<!-- Node16&#45;&gt;Node2 -->
<g id="edge20" class="edge">
<title>Node16&#45;&gt;Node2</title>
<path fill="none" stroke="#191970" d="M732.0511,-179.3733C754.3391,-170.2629 787.9937,-156.5062 812.8637,-146.3404"/>
<polygon fill="#191970" stroke="#191970" points="814.3239,-149.5247 822.2562,-142.5011 811.6753,-143.0451 814.3239,-149.5247"/>
</g>
<!-- Node17 -->
<g id="node18" class="node">
<title>Node17</title>
<g id="a_node18"><a xlink:href="_abstract_player_8hpp.html" target="_top" xlink:title="../AbstractPlayer.hpp">
<polygon fill="none" stroke="#000000" points="776,-62 776,-81 893,-81 893,-62 776,-62"/>
<text text-anchor="middle" x="834.5" y="-69" font-family="Helvetica,sans-Serif" font-size="10.00" fill="#000000">../AbstractPlayer.hpp</text>
</a>
</g>
</g>
<!-- Node16&#45;&gt;Node17 -->
<g id="edge21" class="edge">
<title>Node16&#45;&gt;Node17</title>
<path fill="none" stroke="#191970" d="M697.441,-179.4886C683.2813,-166.1464 662.0881,-141.442 675.5,-123 682.3621,-113.5643 743.3618,-95.6569 787.765,-83.6472"/>
<polygon fill="#191970" stroke="#191970" points="788.7723,-87.0008 797.5243,-81.0297 786.9589,-80.2398 788.7723,-87.0008"/>
</g>
<!-- Node18 -->
<g id="node19" class="node">
<title>Node18</title>
<g id="a_node19"><a xlink:href="_abstract_pawn_8hpp.html" target="_top" xlink:title="../AbstractPawn.hpp">
<polygon fill="none" stroke="#000000" points="684,-123.5 684,-142.5 797,-142.5 797,-123.5 684,-123.5"/>
<text text-anchor="middle" x="740.5" y="-130.5" font-family="Helvetica,sans-Serif" font-size="10.00" fill="#000000">../AbstractPawn.hpp</text>
</a>
</g>
</g>
<!-- Node16&#45;&gt;Node18 -->
<g id="edge22" class="edge">
<title>Node16&#45;&gt;Node18</title>
<path fill="none" stroke="#191970" d="M714.074,-179.2455C718.4331,-171.617 724.6211,-160.7881 729.9133,-151.5267"/>
<polygon fill="#191970" stroke="#191970" points="733.0673,-153.0616 734.9899,-142.6427 726.9896,-149.5886 733.0673,-153.0616"/>
</g>
<!-- Node19&#45;&gt;Node7 -->
<g id="edge25" class="edge">
<title>Node19&#45;&gt;Node7</title>
<path fill="none" stroke="#191970" d="M535.3229,-179.3845C487.2646,-158.5474 373.3878,-109.1728 317.9334,-85.1289"/>
<polygon fill="#191970" stroke="#191970" points="319.1705,-81.8505 308.6034,-81.0836 316.3859,-88.2728 319.1705,-81.8505"/>
</g>
<!-- Node19&#45;&gt;Node17 -->
<g id="edge26" class="edge">
<title>Node19&#45;&gt;Node17</title>
<path fill="none" stroke="#191970" d="M571.0066,-179.3054C591.0329,-165.2908 630.1562,-139.2718 666.5,-123 704.5123,-105.9812 749.7609,-92.4677 783.7167,-83.561"/>
<polygon fill="#191970" stroke="#191970" points="784.6143,-86.9441 793.4244,-81.0591 782.8673,-80.1656 784.6143,-86.9441"/>
</g>
<!-- Node20 -->
<g id="node21" class="node">
<title>Node20</title>
<g id="a_node21"><a xlink:href="_abstract_board_cell_8hpp.html" target="_top" xlink:title="../game_logic/AbstractBoard\lCell.hpp">
<polygon fill="none" stroke="#000000" points="362.5,-56.5 362.5,-86.5 516.5,-86.5 516.5,-56.5 362.5,-56.5"/>
<text text-anchor="start" x="370.5" y="-74.5" font-family="Helvetica,sans-Serif" font-size="10.00" fill="#000000">../game_logic/AbstractBoard</text>
<text text-anchor="middle" x="439.5" y="-63.5" font-family="Helvetica,sans-Serif" font-size="10.00" fill="#000000">Cell.hpp</text>
</a>
</g>
</g>
<!-- Node19&#45;&gt;Node20 -->
<g id="edge24" class="edge">
<title>Node19&#45;&gt;Node20</title>
<path fill="none" stroke="#191970" d="M547.8436,-179.3845C529.2073,-160.8272 487.8404,-119.6355 461.9553,-93.8601"/>
<polygon fill="#191970" stroke="#191970" points="464.3348,-91.2902 454.7791,-86.7143 459.3955,-96.2505 464.3348,-91.2902"/>
</g>
<!-- Node21 -->
<g id="node22" class="node">
<title>Node21</title>
<g id="a_node22"><a xlink:href="_tree_8hpp.html" target="_top" xlink:title="Tree.hpp">
<polygon fill="none" stroke="#000000" points="531.5,-123.5 531.5,-142.5 589.5,-142.5 589.5,-123.5 531.5,-123.5"/>
<text text-anchor="middle" x="560.5" y="-130.5" font-family="Helvetica,sans-Serif" font-size="10.00" fill="#000000">Tree.hpp</text>
</a>
</g>
</g>
<!-- Node19&#45;&gt;Node21 -->
<g id="edge27" class="edge">
<title>Node19&#45;&gt;Node21</title>
<path fill="none" stroke="#191970" d="M558.0226,-179.2455C558.414,-171.9382 558.9628,-161.6944 559.4444,-152.7046"/>
<polygon fill="#191970" stroke="#191970" points="562.9434,-152.8156 559.9834,-142.6427 555.9534,-152.4411 562.9434,-152.8156"/>
</g>
<!-- Node21&#45;&gt;Node7 -->
<g id="edge32" class="edge">
<title>Node21&#45;&gt;Node7</title>
<path fill="none" stroke="#191970" d="M531.3435,-126.6043C491.254,-117.7913 416.868,-101.3705 353.5,-87 348.2604,-85.8118 342.7926,-84.5624 337.3388,-83.31"/>
<polygon fill="#191970" stroke="#191970" points="338.1196,-79.8982 327.5892,-81.065 336.5488,-86.7197 338.1196,-79.8982"/>
</g>
<!-- Node21&#45;&gt;Node9 -->
<g id="edge34" class="edge">
<title>Node21&#45;&gt;Node9</title>
<path fill="none" stroke="#191970" d="M589.7703,-126.9922C635.6047,-117.2935 719.9932,-98.1492 728.5,-87 736.8575,-76.0465 737.8291,-66.1388 728.5,-56 697.4786,-22.2859 377.8102,-25.9945 298.0122,-19.7399"/>
<polygon fill="#191970" stroke="#191970" points="297.9933,-16.22 287.6908,-18.6915 297.2859,-23.1842 297.9933,-16.22"/>
</g>
<!-- Node21&#45;&gt;Node17 -->
<g id="edge31" class="edge">
<title>Node21&#45;&gt;Node17</title>
<path fill="none" stroke="#191970" d="M589.6359,-126.1863C594.272,-125.113 599.0161,-124.0212 603.5,-123 664.3385,-109.1443 734.2828,-93.6051 781.1223,-83.2552"/>
<polygon fill="#191970" stroke="#191970" points="782.037,-86.6376 791.0469,-81.0634 780.5274,-79.8023 782.037,-86.6376"/>
</g>
<!-- Node21&#45;&gt;Node20 -->
<g id="edge33" class="edge">
<title>Node21&#45;&gt;Node20</title>
<path fill="none" stroke="#191970" d="M541.5938,-123.3906C524.6872,-114.7976 499.3815,-101.9356 478.1946,-91.1671"/>
<polygon fill="#191970" stroke="#191970" points="479.6004,-87.9555 469.0999,-86.5446 476.4287,-94.1957 479.6004,-87.9555"/>
</g>
<!-- Node22 -->
<g id="node23" class="node">
<title>Node22</title>
<polygon fill="none" stroke="#bfbfbf" points="669.5,-62 669.5,-81 719.5,-81 719.5,-62 669.5,-62"/>
<text text-anchor="middle" x="694.5" y="-69" font-family="Helvetica,sans-Serif" font-size="10.00" fill="#000000">chrono</text>
</g>
<!-- Node21&#45;&gt;Node22 -->
<g id="edge28" class="edge">
<title>Node21&#45;&gt;Node22</title>
<path fill="none" stroke="#191970" d="M581.4375,-123.3906C603.7598,-113.1457 639.3037,-96.8326 664.5757,-85.2339"/>
<polygon fill="#191970" stroke="#191970" points="666.081,-88.3942 673.7095,-81.0419 663.1611,-82.0322 666.081,-88.3942"/>
</g>
<!-- Node23 -->
<g id="node24" class="node">
<title>Node23</title>
<polygon fill="none" stroke="#bfbfbf" points="535,-62 535,-81 586,-81 586,-62 535,-62"/>
<text text-anchor="middle" x="560.5" y="-69" font-family="Helvetica,sans-Serif" font-size="10.00" fill="#000000">math.h</text>
</g>
<!-- Node21&#45;&gt;Node23 -->
<g id="edge29" class="edge">
<title>Node21&#45;&gt;Node23</title>
<path fill="none" stroke="#191970" d="M560.5,-123.3906C560.5,-114.8657 560.5,-102.1392 560.5,-91.4235"/>
<polygon fill="#191970" stroke="#191970" points="564.0001,-91.2448 560.5,-81.2449 557.0001,-91.2449 564.0001,-91.2448"/>
</g>
<!-- Node24 -->
<g id="node25" class="node">
<title>Node24</title>
<polygon fill="none" stroke="#bfbfbf" points="604,-62 604,-81 651,-81 651,-62 604,-62"/>
<text text-anchor="middle" x="627.5" y="-69" font-family="Helvetica,sans-Serif" font-size="10.00" fill="#000000">queue</text>
</g>
<!-- Node21&#45;&gt;Node24 -->
<g id="edge30" class="edge">
<title>Node21&#45;&gt;Node24</title>
<path fill="none" stroke="#191970" d="M570.9688,-123.3906C581.2337,-113.9683 597.0903,-99.4134 609.4006,-88.1137"/>
<polygon fill="#191970" stroke="#191970" points="611.8834,-90.5856 616.8837,-81.2449 607.1499,-85.4287 611.8834,-90.5856"/>
</g>
</g>
</svg>
        <g id="navigator" transform="translate(0 0)" fill="#404254">
                <rect fill="#f2f5e9" fill-opacity="0.5" stroke="#606060" stroke-width=".5" x="0" y="0" width="60" height="60"/>
                <use id="zoomplus" xlink:href="#zoomPlus" x="17" y="9" onmousedown="handleZoom(evt,'in')"/>
                <use id="zoomminus" xlink:href="#zoomMin" x="42" y="9" onmousedown="handleZoom(evt,'out')"/>
                <use id="reset" xlink:href="#resetDef" x="30" y="36" onmousedown="handleReset()"/>
                <g id="arrowUp" xlink:href="#dirArrow" transform="translate(30 24)" onmousedown="handlePan(0,-1)">
                  <use xlink:href="#rim" fill="#404040">
                        <set attributeName="fill" to="#808080" begin="arrowUp.mouseover" end="arrowUp.mouseout"/>
                  </use>
                  <path fill="none" stroke="white" stroke-width="1.5" d="M0,-3.0v7 M-2.5,-0.5L0,-3.0L2.5,-0.5"/>
                </g>
                <g id="arrowRight" xlink:href="#dirArrow" transform="rotate(90) translate(36 -43)" onmousedown="handlePan(1,0)">
                  <use xlink:href="#rim" fill="#404040">
                        <set attributeName="fill" to="#808080" begin="arrowRight.mouseover" end="arrowRight.mouseout"/>
                  </use>
                  <path fill="none" stroke="white" stroke-width="1.5" d="M0,-3.0v7 M-2.5,-0.5L0,-3.0L2.5,-0.5"/>
                </g>
                <g id="arrowDown" xlink:href="#dirArrow" transform="rotate(180) translate(-30 -48)" onmousedown="handlePan(0,1)">
                  <use xlink:href="#rim" fill="#404040">
                        <set attributeName="fill" to="#808080" begin="arrowDown.mouseover" end="arrowDown.mouseout"/>
                  </use>
                  <path fill="none" stroke="white" stroke-width="1.5" d="M0,-3.0v7 M-2.5,-0.5L0,-3.0L2.5,-0.5"/>
                </g>
                <g id="arrowLeft" xlink:href="#dirArrow" transform="rotate(270) translate(-36 17)" onmousedown="handlePan(-1,0)">
                  <use xlink:href="#rim" fill="#404040">
                        <set attributeName="fill" to="#808080" begin="arrowLeft.mouseover" end="arrowLeft.mouseout"/>
                  </use>
                  <path fill="none" stroke="white" stroke-width="1.5" d="M0,-3.0v7 M-2.5,-0.5L0,-3.0L2.5,-0.5"/>
                </g>
        </g>
        <svg viewBox="0 0 15 15" width="100%" height="30px" preserveAspectRatio="xMaxYMin meet">
         <g id="arrow_out" transform="scale(0.3 0.3)">
          <a xlink:href="main_8cpp__incl_org.svg" target="_base">
           <rect id="button" ry="5" rx="5" y="6" x="6" height="38" width="38"
                fill="#f2f5e9" fill-opacity="0.5" stroke="#606060" stroke-width="1.0"/>
           <path id="arrow"
             d="M 11.500037,31.436501 C 11.940474,20.09759 22.043105,11.32322 32.158766,21.979434 L 37.068811,17.246167 C 37.068811,17.246167 37.088388,32 37.088388,32 L 22.160133,31.978069 C 22.160133,31.978069 26.997745,27.140456 26.997745,27.140456 C 18.528582,18.264221 13.291696,25.230495 11.500037,31.436501 z"
             style="fill:#404040;"/>
          </a>
         </g>
        </svg>
</svg>
