<?xml version="1.0" encoding="UTF-8" standalone="no"?>
<!DOCTYPE svg PUBLIC "-//W3C//DTD SVG 1.1//EN"
 "http://www.w3.org/Graphics/SVG/1.1/DTD/svg11.dtd">
<!-- Generated by graphviz version 2.40.1 (20161225.0304)
 -->
<!-- Title: dbg::type_name Pages: 1 -->
<svg width="353pt" height="47pt"
 viewBox="0.00 0.00 353.00 47.00" xmlns="http://www.w3.org/2000/svg" xmlns:xlink="http://www.w3.org/1999/xlink">
<g id="graph0" class="graph" transform="scale(1 1) rotate(0) translate(4 43)">
<title>dbg::type_name</title>
<!-- Node100 -->
<g id="node1" class="node">
<title>Node100</title>
<polygon fill="#bfbfbf" stroke="#000000" points="0,-19.5 0,-38.5 95,-38.5 95,-19.5 0,-19.5"/>
<text text-anchor="middle" x="47.5" y="-26.5" font-family="Helvetica,sans-Serif" font-size="10.00" fill="#000000">dbg::type_name</text>
</g>
<!-- Node101 -->
<g id="node2" class="node">
<title>Node101</title>
<g id="a_node2"><a xlink:href="namespacedbg.html#a2365d80e3a3525e6025040383ff8661b" target="_top" xlink:title="dbg::type">
<polygon fill="none" stroke="#000000" points="283,-19.5 283,-38.5 345,-38.5 345,-19.5 283,-19.5"/>
<text text-anchor="middle" x="314" y="-26.5" font-family="Helvetica,sans-Serif" font-size="10.00" fill="#000000">dbg::type</text>
</a>
</g>
</g>
<!-- Node100&#45;&gt;Node101 -->
<g id="edge1" class="edge">
<title>Node100&#45;&gt;Node101</title>
<path fill="none" stroke="#191970" d="M95.1449,-29C145.7768,-29 225.0053,-29 272.9632,-29"/>
<polygon fill="#191970" stroke="#191970" points="272.9913,-32.5001 282.9913,-29 272.9912,-25.5001 272.9913,-32.5001"/>
</g>
<!-- Node102 -->
<g id="node3" class="node">
<title>Node102</title>
<g id="a_node3"><a xlink:href="namespacedbg.html#a20edc7ca4e92e4b3bddc6b983384aa00" target="_top" xlink:title="dbg::get_type_name">
<polygon fill="none" stroke="#000000" points="131,-.5 131,-19.5 247,-19.5 247,-.5 131,-.5"/>
<text text-anchor="middle" x="189" y="-7.5" font-family="Helvetica,sans-Serif" font-size="10.00" fill="#000000">dbg::get_type_name</text>
</a>
</g>
</g>
<!-- Node100&#45;&gt;Node102 -->
<g id="edge2" class="edge">
<title>Node100&#45;&gt;Node102</title>
<path fill="none" stroke="#191970" d="M95.0111,-22.6204C103.2631,-21.5124 111.9897,-20.3406 120.6677,-19.1754"/>
<polygon fill="#191970" stroke="#191970" points="121.356,-22.6144 130.8012,-17.8147 120.4244,-15.6767 121.356,-22.6144"/>
</g>
<!-- Node102&#45;&gt;Node101 -->
<g id="edge3" class="edge">
<title>Node102&#45;&gt;Node101</title>
<path fill="none" stroke="#191970" d="M247.1087,-18.8325C255.8054,-20.1544 264.616,-21.4936 272.8626,-22.7471"/>
<polygon fill="#191970" stroke="#191970" points="272.5432,-26.2387 282.9556,-24.2812 273.5951,-19.3182 272.5432,-26.2387"/>
</g>
</g>
</svg>
