<?xml version="1.0" encoding="UTF-8" standalone="no"?>
<!DOCTYPE svg PUBLIC "-//W3C//DTD SVG 1.1//EN"
 "http://www.w3.org/Graphics/SVG/1.1/DTD/svg11.dtd">
<!-- Generated by graphviz version 2.40.1 (20161225.0304)
 -->
<!-- Title: /workspace/src/game_logic/penguin/ConsoleGame.hpp Pages: 1 -->
<svg width="468pt" height="207pt"
 viewBox="0.00 0.00 468.00 207.00" xmlns="http://www.w3.org/2000/svg" xmlns:xlink="http://www.w3.org/1999/xlink">
<g id="graph0" class="graph" transform="scale(1 1) rotate(0) translate(4 203)">
<title>/workspace/src/game_logic/penguin/ConsoleGame.hpp</title>
<!-- Node0 -->
<g id="node1" class="node">
<title>Node0</title>
<polygon fill="#bfbfbf" stroke="#000000" points="113,-168.5 113,-198.5 292,-198.5 292,-168.5 113,-168.5"/>
<text text-anchor="start" x="121" y="-186.5" font-family="Helvetica,sans-Serif" font-size="10.00" fill="#000000">/workspace/src/game</text>
<text text-anchor="middle" x="202.5" y="-175.5" font-family="Helvetica,sans-Serif" font-size="10.00" fill="#000000">_logic/penguin/ConsoleGame.hpp</text>
</g>
<!-- Node1 -->
<g id="node2" class="node">
<title>Node1</title>
<g id="a_node2"><a xlink:href="_abstract_interface_8hpp.html" target="_top" xlink:title="../AbstractInterface.hpp">
<polygon fill="none" stroke="#000000" points="0,-112.5 0,-131.5 131,-131.5 131,-112.5 0,-112.5"/>
<text text-anchor="middle" x="65.5" y="-119.5" font-family="Helvetica,sans-Serif" font-size="10.00" fill="#000000">../AbstractInterface.hpp</text>
</a>
</g>
</g>
<!-- Node0&#45;&gt;Node1 -->
<g id="edge1" class="edge">
<title>Node0&#45;&gt;Node1</title>
<path fill="none" stroke="#191970" d="M168.986,-168.4554C146.7288,-158.464 117.7353,-145.4487 96.1015,-135.7372"/>
<polygon fill="#191970" stroke="#191970" points="97.2865,-132.4327 86.7301,-131.5303 94.4197,-138.8187 97.2865,-132.4327"/>
</g>
<!-- Node2 -->
<g id="node3" class="node">
<title>Node2</title>
<g id="a_node3"><a xlink:href="_penguin_game_8hpp.html" target="_top" xlink:title="PenguinGame.hpp">
<polygon fill="none" stroke="#000000" points="149.5,-112.5 149.5,-131.5 255.5,-131.5 255.5,-112.5 149.5,-112.5"/>
<text text-anchor="middle" x="202.5" y="-119.5" font-family="Helvetica,sans-Serif" font-size="10.00" fill="#000000">PenguinGame.hpp</text>
</a>
</g>
</g>
<!-- Node0&#45;&gt;Node2 -->
<g id="edge2" class="edge">
<title>Node0&#45;&gt;Node2</title>
<path fill="none" stroke="#191970" d="M202.5,-168.2977C202.5,-160.3834 202.5,-150.6043 202.5,-142.0759"/>
<polygon fill="#191970" stroke="#191970" points="206.0001,-141.8469 202.5,-131.8469 199.0001,-141.847 206.0001,-141.8469"/>
</g>
<!-- Node7 -->
<g id="node8" class="node">
<title>Node7</title>
<g id="a_node8"><a xlink:href="_print_hex_8hpp.html" target="_top" xlink:title="PrintHex.hpp">
<polygon fill="none" stroke="#000000" points="283.5,-112.5 283.5,-131.5 363.5,-131.5 363.5,-112.5 283.5,-112.5"/>
<text text-anchor="middle" x="323.5" y="-119.5" font-family="Helvetica,sans-Serif" font-size="10.00" fill="#000000">PrintHex.hpp</text>
</a>
</g>
</g>
<!-- Node0&#45;&gt;Node7 -->
<g id="edge7" class="edge">
<title>Node0&#45;&gt;Node7</title>
<path fill="none" stroke="#191970" d="M232.0999,-168.4554C251.4922,-158.599 276.6742,-145.7999 295.6943,-136.1327"/>
<polygon fill="#191970" stroke="#191970" points="297.4205,-139.1815 304.7493,-131.5303 294.2488,-132.9412 297.4205,-139.1815"/>
</g>
<!-- Node3 -->
<g id="node4" class="node">
<title>Node3</title>
<polygon fill="none" stroke="#bfbfbf" points="82.5,-56.5 82.5,-75.5 126.5,-75.5 126.5,-56.5 82.5,-56.5"/>
<text text-anchor="middle" x="104.5" y="-63.5" font-family="Helvetica,sans-Serif" font-size="10.00" fill="#000000">limits</text>
</g>
<!-- Node2&#45;&gt;Node3 -->
<g id="edge3" class="edge">
<title>Node2&#45;&gt;Node3</title>
<path fill="none" stroke="#191970" d="M185.4297,-112.2455C170.253,-103.5731 147.8379,-90.7645 130.4437,-80.825"/>
<polygon fill="#191970" stroke="#191970" points="131.7936,-77.5653 121.3747,-75.6427 128.3206,-83.643 131.7936,-77.5653"/>
</g>
<!-- Node4 -->
<g id="node5" class="node">
<title>Node4</title>
<g id="a_node5"><a xlink:href="_abstract_game_8hpp.html" target="_top" xlink:title="../AbstractGame.hpp">
<polygon fill="none" stroke="#000000" points="144.5,-56.5 144.5,-75.5 260.5,-75.5 260.5,-56.5 144.5,-56.5"/>
<text text-anchor="middle" x="202.5" y="-63.5" font-family="Helvetica,sans-Serif" font-size="10.00" fill="#000000">../AbstractGame.hpp</text>
</a>
</g>
</g>
<!-- Node2&#45;&gt;Node4 -->
<g id="edge4" class="edge">
<title>Node2&#45;&gt;Node4</title>
<path fill="none" stroke="#191970" d="M202.5,-112.2455C202.5,-104.9382 202.5,-94.6944 202.5,-85.7046"/>
<polygon fill="#191970" stroke="#191970" points="206.0001,-85.6426 202.5,-75.6427 199.0001,-85.6427 206.0001,-85.6426"/>
</g>
<!-- Node5 -->
<g id="node6" class="node">
<title>Node5</title>
<polygon fill="none" stroke="#bfbfbf" points="104,-.5 104,-19.5 151,-19.5 151,-.5 104,-.5"/>
<text text-anchor="middle" x="127.5" y="-7.5" font-family="Helvetica,sans-Serif" font-size="10.00" fill="#000000">vector</text>
</g>
<!-- Node4&#45;&gt;Node5 -->
<g id="edge5" class="edge">
<title>Node4&#45;&gt;Node5</title>
<path fill="none" stroke="#191970" d="M189.436,-56.2455C178.1438,-47.814 161.6155,-35.4729 148.4729,-25.6598"/>
<polygon fill="#191970" stroke="#191970" points="150.5211,-22.8211 140.4143,-19.6427 146.3331,-28.4301 150.5211,-22.8211"/>
</g>
<!-- Node6 -->
<g id="node7" class="node">
<title>Node6</title>
<g id="a_node7"><a xlink:href="_move_8hpp.html" target="_top" xlink:title="utils/Move.hpp">
<polygon fill="none" stroke="#000000" points="169.5,-.5 169.5,-19.5 257.5,-19.5 257.5,-.5 169.5,-.5"/>
<text text-anchor="middle" x="213.5" y="-7.5" font-family="Helvetica,sans-Serif" font-size="10.00" fill="#000000">utils/Move.hpp</text>
</a>
</g>
</g>
<!-- Node4&#45;&gt;Node6 -->
<g id="edge6" class="edge">
<title>Node4&#45;&gt;Node6</title>
<path fill="none" stroke="#191970" d="M204.4161,-56.2455C205.8514,-48.9382 207.8636,-38.6944 209.6295,-29.7046"/>
<polygon fill="#191970" stroke="#191970" points="213.1127,-30.1298 211.6059,-19.6427 206.244,-28.7805 213.1127,-30.1298"/>
</g>
<!-- Node8 -->
<g id="node9" class="node">
<title>Node8</title>
<g id="a_node9"><a xlink:href="_position_8hpp.html" target="_top" xlink:title="../utils/Position.hpp">
<polygon fill="none" stroke="#000000" points="278.5,-56.5 278.5,-75.5 388.5,-75.5 388.5,-56.5 278.5,-56.5"/>
<text text-anchor="middle" x="333.5" y="-63.5" font-family="Helvetica,sans-Serif" font-size="10.00" fill="#000000">../utils/Position.hpp</text>
</a>
</g>
</g>
<!-- Node7&#45;&gt;Node8 -->
<g id="edge8" class="edge">
<title>Node7&#45;&gt;Node8</title>
<path fill="none" stroke="#191970" d="M325.2419,-112.2455C326.5467,-104.9382 328.376,-94.6944 329.9813,-85.7046"/>
<polygon fill="#191970" stroke="#191970" points="333.4656,-86.1022 331.7781,-75.6427 326.5746,-84.8717 333.4656,-86.1022"/>
</g>
<!-- Node9 -->
<g id="node10" class="node">
<title>Node9</title>
<polygon fill="none" stroke="#bfbfbf" points="296,-.5 296,-19.5 349,-19.5 349,-.5 296,-.5"/>
<text text-anchor="middle" x="322.5" y="-7.5" font-family="Helvetica,sans-Serif" font-size="10.00" fill="#000000">stdlib.h</text>
</g>
<!-- Node8&#45;&gt;Node9 -->
<g id="edge9" class="edge">
<title>Node8&#45;&gt;Node9</title>
<path fill="none" stroke="#191970" d="M331.5839,-56.2455C330.1486,-48.9382 328.1364,-38.6944 326.3705,-29.7046"/>
<polygon fill="#191970" stroke="#191970" points="329.756,-28.7805 324.3941,-19.6427 322.8873,-30.1298 329.756,-28.7805"/>
</g>
<!-- Node10 -->
<g id="node11" class="node">
<title>Node10</title>
<polygon fill="none" stroke="#bfbfbf" points="367,-.5 367,-19.5 460,-19.5 460,-.5 367,-.5"/>
<text text-anchor="middle" x="413.5" y="-7.5" font-family="Helvetica,sans-Serif" font-size="10.00" fill="#000000">unordered_map</text>
</g>
<!-- Node8&#45;&gt;Node10 -->
<g id="edge10" class="edge">
<title>Node8&#45;&gt;Node10</title>
<path fill="none" stroke="#191970" d="M347.4349,-56.2455C359.5947,-47.7337 377.4464,-35.2375 391.5285,-25.3801"/>
<polygon fill="#191970" stroke="#191970" points="393.5395,-28.2447 399.7248,-19.6427 389.5253,-22.51 393.5395,-28.2447"/>
</g>
</g>
</svg>
