<?xml version="1.0" encoding="UTF-8" standalone="no"?>
<!DOCTYPE svg PUBLIC "-//W3C//DTD SVG 1.1//EN"
 "http://www.w3.org/Graphics/SVG/1.1/DTD/svg11.dtd">
<!-- Generated by graphviz version 2.40.1 (20161225.0304)
 -->
<!-- Title: mcts::MCTSConstraints Pages: 1 -->
<svg width="137pt" height="171pt"
 viewBox="0.00 0.00 137.00 171.00" xmlns="http://www.w3.org/2000/svg" xmlns:xlink="http://www.w3.org/1999/xlink">
<g id="graph0" class="graph" transform="scale(1 1) rotate(0) translate(4 167)">
<title>mcts::MCTSConstraints</title>
<!-- Node1 -->
<g id="node1" class="node">
<title>Node1</title>
<polygon fill="#bfbfbf" stroke="#000000" points="0,-.5 0,-57.5 129,-57.5 129,-.5 0,-.5"/>
<text text-anchor="middle" x="64.5" y="-45.5" font-family="Helvetica,sans-Serif" font-size="10.00" fill="#000000">mcts::MCTSConstraints</text>
<polyline fill="none" stroke="#000000" points="0,-38.5 129,-38.5 "/>
<text text-anchor="middle" x="64.5" y="-26.5" font-family="Helvetica,sans-Serif" font-size="10.00" fill="#000000"> </text>
<polyline fill="none" stroke="#000000" points="0,-19.5 129,-19.5 "/>
<text text-anchor="middle" x="64.5" y="-7.5" font-family="Helvetica,sans-Serif" font-size="10.00" fill="#000000"> </text>
</g>
<!-- Node2 -->
<g id="node2" class="node">
<title>Node2</title>
<polygon fill="none" stroke="#bfbfbf" points="50,-105.5 50,-162.5 79,-162.5 79,-105.5 50,-105.5"/>
<text text-anchor="middle" x="64.5" y="-150.5" font-family="Helvetica,sans-Serif" font-size="10.00" fill="#000000">int</text>
<polyline fill="none" stroke="#bfbfbf" points="50,-143.5 79,-143.5 "/>
<text text-anchor="middle" x="64.5" y="-131.5" font-family="Helvetica,sans-Serif" font-size="10.00" fill="#000000"> </text>
<polyline fill="none" stroke="#bfbfbf" points="50,-124.5 79,-124.5 "/>
<text text-anchor="middle" x="64.5" y="-112.5" font-family="Helvetica,sans-Serif" font-size="10.00" fill="#000000"> </text>
</g>
<!-- Node2&#45;&gt;Node1 -->
<g id="edge1" class="edge">
<title>Node2&#45;&gt;Node1</title>
<path fill="none" stroke="#404040" d="M64.5,-105.3083C64.5,-94.4281 64.5,-81.817 64.5,-70.0192"/>
<polygon fill="none" stroke="#404040" points="64.5001,-69.657 60.5,-63.6571 64.5,-57.657 68.5,-63.657 64.5001,-69.657"/>
<text text-anchor="middle" x="81.5" y="-79" font-family="Helvetica,sans-Serif" font-size="10.00" fill="#000000"> +time</text>
</g>
</g>
</svg>
