<?xml version="1.0" encoding="UTF-8" standalone="no"?>
<!DOCTYPE svg PUBLIC "-//W3C//DTD SVG 1.1//EN"
 "http://www.w3.org/Graphics/SVG/1.1/DTD/svg11.dtd">
<!-- Generated by graphviz version 2.40.1 (20161225.0304)
 -->
<!-- Title: /workspace/src/game_logic/tic_tac_toe/BoardCell.hpp Pages: 1 -->
<svg width="1829pt" height="117pt"
 viewBox="0.00 0.00 1828.50 117.00" xmlns="http://www.w3.org/2000/svg" xmlns:xlink="http://www.w3.org/1999/xlink">
<g id="graph0" class="graph" transform="scale(1 1) rotate(0) translate(4 113)">
<title>/workspace/src/game_logic/tic_tac_toe/BoardCell.hpp</title>
<!-- Node5 -->
<g id="node1" class="node">
<title>Node5</title>
<polygon fill="#bfbfbf" stroke="#000000" points="861,-78.5 861,-108.5 1034,-108.5 1034,-78.5 861,-78.5"/>
<text text-anchor="start" x="869" y="-96.5" font-family="Helvetica,sans-Serif" font-size="10.00" fill="#000000">/workspace/src/game</text>
<text text-anchor="middle" x="947.5" y="-85.5" font-family="Helvetica,sans-Serif" font-size="10.00" fill="#000000">_logic/tic_tac_toe/BoardCell.hpp</text>
</g>
<!-- Node6 -->
<g id="node2" class="node">
<title>Node6</title>
<g id="a_node2"><a xlink:href="_abstract_board_8cpp.html" target="_top" xlink:title="/workspace/src/game\l_logic/AbstractBoard.cpp">
<polygon fill="none" stroke="#000000" points="0,-6 0,-36 137,-36 137,-6 0,-6"/>
<text text-anchor="start" x="8" y="-24" font-family="Helvetica,sans-Serif" font-size="10.00" fill="#000000">/workspace/src/game</text>
<text text-anchor="middle" x="68.5" y="-13" font-family="Helvetica,sans-Serif" font-size="10.00" fill="#000000">_logic/AbstractBoard.cpp</text>
</a>
</g>
</g>
<!-- Node5&#45;&gt;Node6 -->
<g id="edge1" class="edge">
<title>Node5&#45;&gt;Node6</title>
<path fill="none" stroke="#191970" d="M850.5813,-89.6837C667.9628,-82.0928 279.3295,-63.9269 146.5,-42 137.3678,-40.4925 127.76,-38.3665 118.5287,-36.0411"/>
<polygon fill="#191970" stroke="#191970" points="850.5786,-93.1865 860.7148,-90.1029 850.868,-86.1925 850.5786,-93.1865"/>
</g>
<!-- Node7 -->
<g id="node3" class="node">
<title>Node7</title>
<g id="a_node3"><a xlink:href="_abstract_game_8cpp.html" target="_top" xlink:title="/workspace/src/game\l_logic/AbstractGame.cpp">
<polygon fill="none" stroke="#000000" points="155.5,-6 155.5,-36 293.5,-36 293.5,-6 155.5,-6"/>
<text text-anchor="start" x="163.5" y="-24" font-family="Helvetica,sans-Serif" font-size="10.00" fill="#000000">/workspace/src/game</text>
<text text-anchor="middle" x="224.5" y="-13" font-family="Helvetica,sans-Serif" font-size="10.00" fill="#000000">_logic/AbstractGame.cpp</text>
</a>
</g>
</g>
<!-- Node5&#45;&gt;Node7 -->
<g id="edge2" class="edge">
<title>Node5&#45;&gt;Node7</title>
<path fill="none" stroke="#191970" d="M850.727,-91.2938C723.9564,-87.1464 495.1427,-75.3333 302.5,-42 293.518,-40.4458 284.0686,-38.327 274.9682,-36.0306"/>
<polygon fill="#191970" stroke="#191970" points="850.6928,-94.7943 860.799,-91.6141 850.9154,-87.7979 850.6928,-94.7943"/>
</g>
<!-- Node8 -->
<g id="node4" class="node">
<title>Node8</title>
<g id="a_node4"><a xlink:href="_abstract_pawn_8cpp.html" target="_top" xlink:title="/workspace/src/game\l_logic/AbstractPawn.cpp">
<polygon fill="none" stroke="#000000" points="311.5,-6 311.5,-36 445.5,-36 445.5,-6 311.5,-6"/>
<text text-anchor="start" x="319.5" y="-24" font-family="Helvetica,sans-Serif" font-size="10.00" fill="#000000">/workspace/src/game</text>
<text text-anchor="middle" x="378.5" y="-13" font-family="Helvetica,sans-Serif" font-size="10.00" fill="#000000">_logic/AbstractPawn.cpp</text>
</a>
</g>
</g>
<!-- Node5&#45;&gt;Node8 -->
<g id="edge3" class="edge">
<title>Node5&#45;&gt;Node8</title>
<path fill="none" stroke="#191970" d="M850.8544,-88.1461C750.9574,-81.5067 590.8194,-67.7701 454.5,-42 446.0261,-40.3981 437.1202,-38.3128 428.5082,-36.0791"/>
<polygon fill="#191970" stroke="#191970" points="850.7231,-91.6449 860.9303,-88.8053 851.1801,-84.6599 850.7231,-91.6449"/>
</g>
<!-- Node9 -->
<g id="node5" class="node">
<title>Node9</title>
<g id="a_node5"><a xlink:href="_history_8cpp.html" target="_top" xlink:title="/workspace/src/game\l_logic/History.cpp">
<polygon fill="none" stroke="#000000" points="463.5,-6 463.5,-36 583.5,-36 583.5,-6 463.5,-6"/>
<text text-anchor="start" x="471.5" y="-24" font-family="Helvetica,sans-Serif" font-size="10.00" fill="#000000">/workspace/src/game</text>
<text text-anchor="middle" x="523.5" y="-13" font-family="Helvetica,sans-Serif" font-size="10.00" fill="#000000">_logic/History.cpp</text>
</a>
</g>
</g>
<!-- Node5&#45;&gt;Node9 -->
<g id="edge4" class="edge">
<title>Node5&#45;&gt;Node9</title>
<path fill="none" stroke="#191970" d="M850.8142,-83.4806C779.0238,-75.0738 678.9932,-61.3191 592.5,-42 585.0455,-40.335 577.2258,-38.2711 569.6383,-36.093"/>
<polygon fill="#191970" stroke="#191970" points="850.4161,-86.9578 860.7523,-84.6313 851.2213,-80.0042 850.4161,-86.9578"/>
</g>
<!-- Node10 -->
<g id="node6" class="node">
<title>Node10</title>
<g id="a_node6"><a xlink:href="tic__tac__toe_2_board_8cpp.html" target="_top" xlink:title="/workspace/src/game\l_logic/tic_tac_toe/Board.cpp">
<polygon fill="none" stroke="#000000" points="602,-6 602,-36 755,-36 755,-6 602,-6"/>
<text text-anchor="start" x="610" y="-24" font-family="Helvetica,sans-Serif" font-size="10.00" fill="#000000">/workspace/src/game</text>
<text text-anchor="middle" x="678.5" y="-13" font-family="Helvetica,sans-Serif" font-size="10.00" fill="#000000">_logic/tic_tac_toe/Board.cpp</text>
</a>
</g>
</g>
<!-- Node5&#45;&gt;Node10 -->
<g id="edge5" class="edge">
<title>Node5&#45;&gt;Node10</title>
<path fill="none" stroke="#191970" d="M882.0394,-75.8573C836.76,-63.6537 777.1583,-47.5901 734.1656,-36.0028"/>
<polygon fill="#191970" stroke="#191970" points="881.1967,-79.255 891.763,-78.478 883.0184,-72.4962 881.1967,-79.255"/>
</g>
<!-- Node11 -->
<g id="node7" class="node">
<title>Node11</title>
<g id="a_node7"><a xlink:href="tic__tac__toe_2_board_cell_8cpp.html" target="_top" xlink:title="/workspace/src/game\l_logic/tic_tac_toe/BoardCell.cpp">
<polygon fill="none" stroke="#000000" points="773.5,-6 773.5,-36 945.5,-36 945.5,-6 773.5,-6"/>
<text text-anchor="start" x="781.5" y="-24" font-family="Helvetica,sans-Serif" font-size="10.00" fill="#000000">/workspace/src/game</text>
<text text-anchor="middle" x="859.5" y="-13" font-family="Helvetica,sans-Serif" font-size="10.00" fill="#000000">_logic/tic_tac_toe/BoardCell.cpp</text>
</a>
</g>
</g>
<!-- Node5&#45;&gt;Node11 -->
<g id="edge6" class="edge">
<title>Node5&#45;&gt;Node11</title>
<path fill="none" stroke="#191970" d="M921.3831,-71.9833C907.3242,-60.4007 890.33,-46.3998 877.7103,-36.0028"/>
<polygon fill="#191970" stroke="#191970" points="919.3228,-74.8206 929.2663,-78.478 923.7738,-69.418 919.3228,-74.8206"/>
</g>
<!-- Node12 -->
<g id="node8" class="node">
<title>Node12</title>
<g id="a_node8"><a xlink:href="tic__tac__toe_2_console_game_8cpp.html" target="_top" xlink:title="/workspace/src/game\l_logic/tic_tac_toe/Console\lGame.cpp">
<polygon fill="none" stroke="#000000" points="964,-.5 964,-41.5 1107,-41.5 1107,-.5 964,-.5"/>
<text text-anchor="start" x="972" y="-29.5" font-family="Helvetica,sans-Serif" font-size="10.00" fill="#000000">/workspace/src/game</text>
<text text-anchor="start" x="972" y="-18.5" font-family="Helvetica,sans-Serif" font-size="10.00" fill="#000000">_logic/tic_tac_toe/Console</text>
<text text-anchor="middle" x="1035.5" y="-7.5" font-family="Helvetica,sans-Serif" font-size="10.00" fill="#000000">Game.cpp</text>
</a>
</g>
</g>
<!-- Node5&#45;&gt;Node12 -->
<g id="edge7" class="edge">
<title>Node5&#45;&gt;Node12</title>
<path fill="none" stroke="#191970" d="M973.4751,-72.1001C985.2101,-62.432 999.0133,-51.06 1010.6154,-41.5015"/>
<polygon fill="#191970" stroke="#191970" points="971.2262,-69.418 965.7337,-78.478 975.6772,-74.8206 971.2262,-69.418"/>
</g>
<!-- Node13 -->
<g id="node9" class="node">
<title>Node13</title>
<g id="a_node9"><a xlink:href="_player_8cpp.html" target="_top" xlink:title="/workspace/src/game\l_logic/tic_tac_toe/Player.cpp">
<polygon fill="none" stroke="#000000" points="1125,-6 1125,-36 1280,-36 1280,-6 1125,-6"/>
<text text-anchor="start" x="1133" y="-24" font-family="Helvetica,sans-Serif" font-size="10.00" fill="#000000">/workspace/src/game</text>
<text text-anchor="middle" x="1202.5" y="-13" font-family="Helvetica,sans-Serif" font-size="10.00" fill="#000000">_logic/tic_tac_toe/Player.cpp</text>
</a>
</g>
</g>
<!-- Node5&#45;&gt;Node13 -->
<g id="edge8" class="edge">
<title>Node5&#45;&gt;Node13</title>
<path fill="none" stroke="#191970" d="M1010.0943,-75.7036C1052.9501,-63.5191 1109.1472,-47.5415 1149.7315,-36.0028"/>
<polygon fill="#191970" stroke="#191970" points="1008.9978,-72.3765 1000.3362,-78.478 1010.9121,-79.1097 1008.9978,-72.3765"/>
</g>
<!-- Node14 -->
<g id="node10" class="node">
<title>Node14</title>
<g id="a_node10"><a xlink:href="_move_8cpp.html" target="_top" xlink:title="/workspace/src/game\l_logic/utils/Move.cpp">
<polygon fill="none" stroke="#000000" points="1298.5,-6 1298.5,-36 1418.5,-36 1418.5,-6 1298.5,-6"/>
<text text-anchor="start" x="1306.5" y="-24" font-family="Helvetica,sans-Serif" font-size="10.00" fill="#000000">/workspace/src/game</text>
<text text-anchor="middle" x="1358.5" y="-13" font-family="Helvetica,sans-Serif" font-size="10.00" fill="#000000">_logic/utils/Move.cpp</text>
</a>
</g>
</g>
<!-- Node5&#45;&gt;Node14 -->
<g id="edge9" class="edge">
<title>Node5&#45;&gt;Node14</title>
<path fill="none" stroke="#191970" d="M1044.2103,-82.7604C1113.0873,-74.1843 1207.5846,-60.5288 1289.5,-42 1296.95,-40.3148 1304.7673,-38.2404 1312.3539,-36.058"/>
<polygon fill="#191970" stroke="#191970" points="1043.7356,-79.2924 1034.2386,-83.9889 1044.5915,-86.2399 1043.7356,-79.2924"/>
</g>
<!-- Node15 -->
<g id="node11" class="node">
<title>Node15</title>
<g id="a_node11"><a xlink:href="_m_c_t_s_8cpp.html" target="_top" xlink:title="/workspace/src/mcts\l/MCTS.cpp">
<polygon fill="none" stroke="#000000" points="1436.5,-6 1436.5,-36 1552.5,-36 1552.5,-6 1436.5,-6"/>
<text text-anchor="start" x="1444.5" y="-24" font-family="Helvetica,sans-Serif" font-size="10.00" fill="#000000">/workspace/src/mcts</text>
<text text-anchor="middle" x="1494.5" y="-13" font-family="Helvetica,sans-Serif" font-size="10.00" fill="#000000">/MCTS.cpp</text>
</a>
</g>
</g>
<!-- Node5&#45;&gt;Node15 -->
<g id="edge10" class="edge">
<title>Node5&#45;&gt;Node15</title>
<path fill="none" stroke="#191970" d="M1044.2771,-88.7205C1141.8413,-82.5951 1296.3464,-69.3118 1427.5,-42 1435.1377,-40.4095 1443.1441,-38.3018 1450.8574,-36.0348"/>
<polygon fill="#191970" stroke="#191970" points="1043.9027,-85.2369 1034.1365,-89.3443 1044.3325,-92.2237 1043.9027,-85.2369"/>
</g>
<!-- Node16 -->
<g id="node12" class="node">
<title>Node16</title>
<g id="a_node12"><a xlink:href="_m_c_t_s_player_8cpp.html" target="_top" xlink:title="/workspace/src/mcts\l/MCTSPlayer.cpp">
<polygon fill="none" stroke="#000000" points="1570.5,-6 1570.5,-36 1686.5,-36 1686.5,-6 1570.5,-6"/>
<text text-anchor="start" x="1578.5" y="-24" font-family="Helvetica,sans-Serif" font-size="10.00" fill="#000000">/workspace/src/mcts</text>
<text text-anchor="middle" x="1628.5" y="-13" font-family="Helvetica,sans-Serif" font-size="10.00" fill="#000000">/MCTSPlayer.cpp</text>
</a>
</g>
</g>
<!-- Node5&#45;&gt;Node16 -->
<g id="edge11" class="edge">
<title>Node5&#45;&gt;Node16</title>
<path fill="none" stroke="#191970" d="M1044.5319,-87.9722C1191.9257,-79.1318 1465.2682,-60.8775 1561.5,-42 1569.2753,-40.4747 1577.4215,-38.3702 1585.2491,-36.0789"/>
<polygon fill="#191970" stroke="#191970" points="1043.915,-84.5027 1034.1413,-88.5923 1044.3321,-91.4902 1043.915,-84.5027"/>
</g>
<!-- Node17 -->
<g id="node13" class="node">
<title>Node17</title>
<g id="a_node13"><a xlink:href="_tree_8cpp.html" target="_top" xlink:title="/workspace/src/mcts\l/Tree.cpp">
<polygon fill="none" stroke="#000000" points="1704.5,-6 1704.5,-36 1820.5,-36 1820.5,-6 1704.5,-6"/>
<text text-anchor="start" x="1712.5" y="-24" font-family="Helvetica,sans-Serif" font-size="10.00" fill="#000000">/workspace/src/mcts</text>
<text text-anchor="middle" x="1762.5" y="-13" font-family="Helvetica,sans-Serif" font-size="10.00" fill="#000000">/Tree.cpp</text>
</a>
</g>
</g>
<!-- Node5&#45;&gt;Node17 -->
<g id="edge12" class="edge">
<title>Node5&#45;&gt;Node17</title>
<path fill="none" stroke="#191970" d="M1044.1985,-89.6712C1217.2867,-82.3468 1573.373,-65.0114 1695.5,-42 1703.4062,-40.5103 1711.6891,-38.3929 1719.6289,-36.0705"/>
<polygon fill="#191970" stroke="#191970" points="1043.9198,-86.1798 1034.0758,-90.097 1044.214,-93.1736 1043.9198,-86.1798"/>
</g>
</g>
</svg>
