<?xml version="1.0" encoding="UTF-8" standalone="no"?>
<!DOCTYPE svg PUBLIC "-//W3C//DTD SVG 1.1//EN"
 "http://www.w3.org/Graphics/SVG/1.1/DTD/svg11.dtd">
<!-- Generated by graphviz version 2.40.1 (20161225.0304)
 -->
<!-- Title: /workspace/src/game_logic/AbstractPawn.hpp Pages: 1 -->
<!--zoomable 262 -->
<svg id="main" version="1.1" xmlns="http://www.w3.org/2000/svg" xmlns:xlink="http://www.w3.org/1999/xlink" xml:space="preserve" onload="init(evt)">
<style type="text/css"><![CDATA[
.edge:hover path { stroke: red; }
.edge:hover polygon { stroke: red; fill: red; }
]]></style>
<script type="text/javascript"><![CDATA[
var edges = document.getElementsByTagName('g');
if (edges && edges.length) {
  for (var i=0;i<edges.length;i++) {
    if (edges[i].id.substr(0,4)=='edge') {
      edges[i].setAttribute('class','edge');
    }
  }
}
]]></script>
        <defs>
                <circle id="rim" cx="0" cy="0" r="7"/>
                <circle id="rim2" cx="0" cy="0" r="3.5"/>
                <g id="zoomPlus">
                        <use xlink:href="#rim" fill="#404040">
                                <set attributeName="fill" to="#808080" begin="zoomplus.mouseover" end="zoomplus.mouseout"/>
                        </use>
                        <path d="M-4,0h8M0,-4v8" fill="none" stroke="white" stroke-width="1.5" pointer-events="none"/>
                </g>
                <g id="zoomMin">
                        <use xlink:href="#rim" fill="#404040">
                                <set attributeName="fill" to="#808080" begin="zoomminus.mouseover" end="zoomminus.mouseout"/>
                        </use>
                        <path d="M-4,0h8" fill="none" stroke="white" stroke-width="1.5" pointer-events="none"/>
                </g>
                <g id="dirArrow">
                        <path fill="none" stroke="white" stroke-width="1.5" d="M0,-3.0v7 M-2.5,-0.5L0,-3.0L2.5,-0.5"/>
                </g>
               <g id="resetDef">
                       <use xlink:href="#rim2" fill="#404040">
                               <set attributeName="fill" to="#808080" begin="reset.mouseover" end="reset.mouseout"/>
                       </use>
               </g>
        </defs>

<script type="text/javascript">
var viewWidth = 2964;
var viewHeight = 262;
var sectionId = 'dynsection-0';
</script>
<script xlink:href="svgpan.js"/>
<svg id="graph" class="graph">
<g id="viewport">
<title>/workspace/src/game_logic/AbstractPawn.hpp</title>
<!-- Node1 -->
<g id="node1" class="node">
<title>Node1</title>
<polygon fill="#bfbfbf" stroke="#000000" points="567,-223.5 567,-253.5 702,-253.5 702,-223.5 567,-223.5"/>
<text text-anchor="start" x="575" y="-241.5" font-family="Helvetica,sans-Serif" font-size="10.00" fill="#000000">/workspace/src/game</text>
<text text-anchor="middle" x="634.5" y="-230.5" font-family="Helvetica,sans-Serif" font-size="10.00" fill="#000000">_logic/AbstractPawn.hpp</text>
</g>
<!-- Node2 -->
<g id="node2" class="node">
<title>Node2</title>
<g id="a_node2"><a xlink:href="_player_8hpp.html" target="_top" xlink:title="/workspace/src/game\l_logic/tic_tac_toe/Player.hpp">
<polygon fill="none" stroke="#000000" points="689,-156.5 689,-186.5 844,-186.5 844,-156.5 689,-156.5"/>
<text text-anchor="start" x="697" y="-174.5" font-family="Helvetica,sans-Serif" font-size="10.00" fill="#000000">/workspace/src/game</text>
<text text-anchor="middle" x="766.5" y="-163.5" font-family="Helvetica,sans-Serif" font-size="10.00" fill="#000000">_logic/tic_tac_toe/Player.hpp</text>
</a>
</g>
</g>
<!-- Node1&#45;&gt;Node2 -->
<g id="edge1" class="edge">
<title>Node1&#45;&gt;Node2</title>
<path fill="none" stroke="#191970" d="M673.089,-218.9132C693.3187,-208.645 717.7267,-196.2561 736.5188,-186.7177"/>
<polygon fill="#191970" stroke="#191970" points="671.4563,-215.8168 664.1234,-223.4639 674.6246,-222.0587 671.4563,-215.8168"/>
</g>
<!-- Node5 -->
<g id="node5" class="node">
<title>Node5</title>
<g id="a_node5"><a xlink:href="_abstract_pawn_8cpp.html" target="_top" xlink:title="/workspace/src/game\l_logic/AbstractPawn.cpp">
<polygon fill="none" stroke="#000000" points="173.5,-84 173.5,-114 307.5,-114 307.5,-84 173.5,-84"/>
<text text-anchor="start" x="181.5" y="-102" font-family="Helvetica,sans-Serif" font-size="10.00" fill="#000000">/workspace/src/game</text>
<text text-anchor="middle" x="240.5" y="-91" font-family="Helvetica,sans-Serif" font-size="10.00" fill="#000000">_logic/AbstractPawn.cpp</text>
</a>
</g>
</g>
<!-- Node1&#45;&gt;Node5 -->
<g id="edge35" class="edge">
<title>Node1&#45;&gt;Node5</title>
<path fill="none" stroke="#191970" d="M582.244,-219.9982C503.482,-192.1116 355.8507,-139.8412 283.1598,-114.1042"/>
<polygon fill="#191970" stroke="#191970" points="581.366,-223.4002 591.9607,-223.4385 583.7023,-216.8016 581.366,-223.4002"/>
</g>
<!-- Node13 -->
<g id="node13" class="node">
<title>Node13</title>
<g id="a_node13"><a xlink:href="_player_8cpp.html" target="_top" xlink:title="/workspace/src/game\l_logic/tic_tac_toe/Player.cpp">
<polygon fill="none" stroke="#000000" points="0,-84 0,-114 155,-114 155,-84 0,-84"/>
<text text-anchor="start" x="8" y="-102" font-family="Helvetica,sans-Serif" font-size="10.00" fill="#000000">/workspace/src/game</text>
<text text-anchor="middle" x="77.5" y="-91" font-family="Helvetica,sans-Serif" font-size="10.00" fill="#000000">_logic/tic_tac_toe/Player.cpp</text>
</a>
</g>
</g>
<!-- Node1&#45;&gt;Node13 -->
<g id="edge36" class="edge">
<title>Node1&#45;&gt;Node13</title>
<path fill="none" stroke="#191970" d="M556.8675,-222.742C510.4738,-213.0488 450.4485,-200.023 397.5,-187 302.1045,-163.5368 191.8342,-132.2926 128.818,-114.0396"/>
<polygon fill="#191970" stroke="#191970" points="556.3481,-226.2089 566.8516,-224.8206 557.7749,-219.3558 556.3481,-226.2089"/>
</g>
<!-- Node18 -->
<g id="node18" class="node">
<title>Node18</title>
<g id="a_node18"><a xlink:href="_penguin_pawn_8hpp.html" target="_top" xlink:title="/workspace/src/game\l_logic/penguin/PenguinPawn.hpp">
<polygon fill="none" stroke="#000000" points="1439.5,-156.5 1439.5,-186.5 1615.5,-186.5 1615.5,-156.5 1439.5,-156.5"/>
<text text-anchor="start" x="1447.5" y="-174.5" font-family="Helvetica,sans-Serif" font-size="10.00" fill="#000000">/workspace/src/game</text>
<text text-anchor="middle" x="1527.5" y="-163.5" font-family="Helvetica,sans-Serif" font-size="10.00" fill="#000000">_logic/penguin/PenguinPawn.hpp</text>
</a>
</g>
</g>
<!-- Node1&#45;&gt;Node18 -->
<g id="edge19" class="edge">
<title>Node1&#45;&gt;Node18</title>
<path fill="none" stroke="#191970" d="M712.474,-232.6498C878.2928,-220.2087 1264.9898,-191.1956 1439.401,-178.1099"/>
<polygon fill="#191970" stroke="#191970" points="712.0632,-229.1707 702.3531,-233.4091 712.587,-236.151 712.0632,-229.1707"/>
</g>
<!-- Node3 -->
<g id="node3" class="node">
<title>Node3</title>
<g id="a_node3"><a xlink:href="_abstract_board_8cpp.html" target="_top" xlink:title="/workspace/src/game\l_logic/AbstractBoard.cpp">
<polygon fill="none" stroke="#000000" points="1532,-84 1532,-114 1669,-114 1669,-84 1532,-84"/>
<text text-anchor="start" x="1540" y="-102" font-family="Helvetica,sans-Serif" font-size="10.00" fill="#000000">/workspace/src/game</text>
<text text-anchor="middle" x="1600.5" y="-91" font-family="Helvetica,sans-Serif" font-size="10.00" fill="#000000">_logic/AbstractBoard.cpp</text>
</a>
</g>
</g>
<!-- Node2&#45;&gt;Node3 -->
<g id="edge2" class="edge">
<title>Node2&#45;&gt;Node3</title>
<path fill="none" stroke="#191970" d="M854.5121,-167.6639C1025.3746,-159.8603 1396.2948,-141.0805 1522.5,-120 1531.6293,-118.4751 1541.2357,-116.3407 1550.4665,-114.0123"/>
<polygon fill="#191970" stroke="#191970" points="854.1257,-164.1778 844.295,-168.1284 854.4436,-171.1706 854.1257,-164.1778"/>
</g>
<!-- Node4 -->
<g id="node4" class="node">
<title>Node4</title>
<g id="a_node4"><a xlink:href="_abstract_game_8cpp.html" target="_top" xlink:title="/workspace/src/game\l_logic/AbstractGame.cpp">
<polygon fill="none" stroke="#000000" points="697.5,-84 697.5,-114 835.5,-114 835.5,-84 697.5,-84"/>
<text text-anchor="start" x="705.5" y="-102" font-family="Helvetica,sans-Serif" font-size="10.00" fill="#000000">/workspace/src/game</text>
<text text-anchor="middle" x="766.5" y="-91" font-family="Helvetica,sans-Serif" font-size="10.00" fill="#000000">_logic/AbstractGame.cpp</text>
</a>
</g>
</g>
<!-- Node2&#45;&gt;Node4 -->
<g id="edge3" class="edge">
<title>Node2&#45;&gt;Node4</title>
<path fill="none" stroke="#191970" d="M766.5,-146.3409C766.5,-135.5601 766.5,-123.3309 766.5,-114.0028"/>
<polygon fill="#191970" stroke="#191970" points="763.0001,-146.4779 766.5,-156.478 770.0001,-146.478 763.0001,-146.4779"/>
</g>
<!-- Node2&#45;&gt;Node5 -->
<g id="edge4" class="edge">
<title>Node2&#45;&gt;Node5</title>
<path fill="none" stroke="#191970" d="M678.9,-165.4157C587.9652,-158.176 441.8909,-143.952 317.5,-120 309.0641,-118.3756 300.1979,-116.3063 291.6046,-114.1028"/>
<polygon fill="#191970" stroke="#191970" points="678.6467,-168.9065 688.8902,-166.2006 679.1951,-161.928 678.6467,-168.9065"/>
</g>
<!-- Node6 -->
<g id="node6" class="node">
<title>Node6</title>
<g id="a_node6"><a xlink:href="_history_8cpp.html" target="_top" xlink:title="/workspace/src/game\l_logic/History.cpp">
<polygon fill="none" stroke="#000000" points="853.5,-84 853.5,-114 973.5,-114 973.5,-84 853.5,-84"/>
<text text-anchor="start" x="861.5" y="-102" font-family="Helvetica,sans-Serif" font-size="10.00" fill="#000000">/workspace/src/game</text>
<text text-anchor="middle" x="913.5" y="-91" font-family="Helvetica,sans-Serif" font-size="10.00" fill="#000000">_logic/History.cpp</text>
</a>
</g>
</g>
<!-- Node2&#45;&gt;Node6 -->
<g id="edge5" class="edge">
<title>Node2&#45;&gt;Node6</title>
<path fill="none" stroke="#191970" d="M806.2247,-151.9079C830.4051,-139.9822 860.8177,-124.9828 883.0805,-114.0028"/>
<polygon fill="#191970" stroke="#191970" points="804.3789,-148.9156 796.9585,-156.478 807.4752,-155.1936 804.3789,-148.9156"/>
</g>
<!-- Node7 -->
<g id="node7" class="node">
<title>Node7</title>
<g id="a_node7"><a xlink:href="tic__tac__toe_2_board_8cpp.html" target="_top" xlink:title="/workspace/src/game\l_logic/tic_tac_toe/Board.cpp">
<polygon fill="none" stroke="#000000" points="672,-6 672,-36 825,-36 825,-6 672,-6"/>
<text text-anchor="start" x="680" y="-24" font-family="Helvetica,sans-Serif" font-size="10.00" fill="#000000">/workspace/src/game</text>
<text text-anchor="middle" x="748.5" y="-13" font-family="Helvetica,sans-Serif" font-size="10.00" fill="#000000">_logic/tic_tac_toe/Board.cpp</text>
</a>
</g>
</g>
<!-- Node2&#45;&gt;Node7 -->
<g id="edge6" class="edge">
<title>Node2&#45;&gt;Node7</title>
<path fill="none" stroke="#191970" d="M720.113,-151.3113C707.5876,-143.4533 695.5592,-133.1199 688.5,-120 679.6554,-103.5617 681.1361,-95.1528 688.5,-78 695.9251,-60.7046 711.4624,-46.1842 724.8653,-36.1276"/>
<polygon fill="#191970" stroke="#191970" points="718.4033,-154.3658 728.8088,-156.3598 721.9179,-148.312 718.4033,-154.3658"/>
</g>
<!-- Node8 -->
<g id="node8" class="node">
<title>Node8</title>
<g id="a_node8"><a xlink:href="tic__tac__toe_2_board_8hpp.html" target="_top" xlink:title="/workspace/src/game\l_logic/tic_tac_toe/Board.hpp">
<polygon fill="none" stroke="#000000" points="487.5,-84 487.5,-114 641.5,-114 641.5,-84 487.5,-84"/>
<text text-anchor="start" x="495.5" y="-102" font-family="Helvetica,sans-Serif" font-size="10.00" fill="#000000">/workspace/src/game</text>
<text text-anchor="middle" x="564.5" y="-91" font-family="Helvetica,sans-Serif" font-size="10.00" fill="#000000">_logic/tic_tac_toe/Board.hpp</text>
</a>
</g>
</g>
<!-- Node2&#45;&gt;Node8 -->
<g id="edge7" class="edge">
<title>Node2&#45;&gt;Node8</title>
<path fill="none" stroke="#191970" d="M714.9745,-153.0069C681.2845,-140.9152 637.8409,-125.3228 606.3009,-114.0028"/>
<polygon fill="#191970" stroke="#191970" points="714.051,-156.394 724.6455,-156.478 716.4157,-149.8055 714.051,-156.394"/>
</g>
<!-- Node11 -->
<g id="node11" class="node">
<title>Node11</title>
<g id="a_node11"><a xlink:href="tic__tac__toe_2_console_game_8hpp.html" target="_top" xlink:title="/workspace/src/game\l_logic/tic_tac_toe/Console\lGame.hpp">
<polygon fill="none" stroke="#000000" points="326,-78.5 326,-119.5 469,-119.5 469,-78.5 326,-78.5"/>
<text text-anchor="start" x="334" y="-107.5" font-family="Helvetica,sans-Serif" font-size="10.00" fill="#000000">/workspace/src/game</text>
<text text-anchor="start" x="334" y="-96.5" font-family="Helvetica,sans-Serif" font-size="10.00" fill="#000000">_logic/tic_tac_toe/Console</text>
<text text-anchor="middle" x="397.5" y="-85.5" font-family="Helvetica,sans-Serif" font-size="10.00" fill="#000000">Game.hpp</text>
</a>
</g>
</g>
<!-- Node2&#45;&gt;Node11 -->
<g id="edge11" class="edge">
<title>Node2&#45;&gt;Node11</title>
<path fill="none" stroke="#191970" d="M678.7691,-157.608C621.5346,-148.1036 545.321,-134.6139 478.5,-120 475.5197,-119.3482 472.4833,-118.662 469.42,-117.9515"/>
<polygon fill="#191970" stroke="#191970" points="678.4302,-161.0994 688.867,-159.2763 679.5713,-154.193 678.4302,-161.0994"/>
</g>
<!-- Node2&#45;&gt;Node13 -->
<g id="edge14" class="edge">
<title>Node2&#45;&gt;Node13</title>
<path fill="none" stroke="#191970" d="M678.5461,-168.1519C560.8311,-162.7205 345.841,-149.4684 164.5,-120 154.6845,-118.4049 144.3392,-116.2949 134.3425,-114.0271"/>
<polygon fill="#191970" stroke="#191970" points="678.4393,-171.6506 688.5876,-168.6071 678.7564,-164.6578 678.4393,-171.6506"/>
</g>
<!-- Node14 -->
<g id="node14" class="node">
<title>Node14</title>
<g id="a_node14"><a xlink:href="_move_8cpp.html" target="_top" xlink:title="/workspace/src/game\l_logic/utils/Move.cpp">
<polygon fill="none" stroke="#000000" points="991.5,-84 991.5,-114 1111.5,-114 1111.5,-84 991.5,-84"/>
<text text-anchor="start" x="999.5" y="-102" font-family="Helvetica,sans-Serif" font-size="10.00" fill="#000000">/workspace/src/game</text>
<text text-anchor="middle" x="1051.5" y="-91" font-family="Helvetica,sans-Serif" font-size="10.00" fill="#000000">_logic/utils/Move.cpp</text>
</a>
</g>
</g>
<!-- Node2&#45;&gt;Node14 -->
<g id="edge15" class="edge">
<title>Node2&#45;&gt;Node14</title>
<path fill="none" stroke="#191970" d="M844.3647,-154.1513C885.5805,-144.6619 936.9548,-132.3479 982.5,-120 989.2678,-118.1652 996.3765,-116.1282 1003.353,-114.0653"/>
<polygon fill="#191970" stroke="#191970" points="843.3506,-150.7929 834.3858,-156.4394 844.9151,-157.6158 843.3506,-150.7929"/>
</g>
<!-- Node15 -->
<g id="node15" class="node">
<title>Node15</title>
<g id="a_node15"><a xlink:href="_m_c_t_s_8cpp.html" target="_top" xlink:title="/workspace/src/mcts\l/MCTS.cpp">
<polygon fill="none" stroke="#000000" points="1129.5,-84 1129.5,-114 1245.5,-114 1245.5,-84 1129.5,-84"/>
<text text-anchor="start" x="1137.5" y="-102" font-family="Helvetica,sans-Serif" font-size="10.00" fill="#000000">/workspace/src/mcts</text>
<text text-anchor="middle" x="1187.5" y="-91" font-family="Helvetica,sans-Serif" font-size="10.00" fill="#000000">/MCTS.cpp</text>
</a>
</g>
</g>
<!-- Node2&#45;&gt;Node15 -->
<g id="edge16" class="edge">
<title>Node2&#45;&gt;Node15</title>
<path fill="none" stroke="#191970" d="M854.1006,-162.6882C926.1795,-154.4998 1030.7155,-140.4645 1120.5,-120 1127.8688,-118.3204 1135.5982,-116.2227 1143.0813,-114.0078"/>
<polygon fill="#191970" stroke="#191970" points="853.6976,-159.2114 844.1503,-163.8049 854.4783,-166.1677 853.6976,-159.2114"/>
</g>
<!-- Node16 -->
<g id="node16" class="node">
<title>Node16</title>
<g id="a_node16"><a xlink:href="_m_c_t_s_player_8cpp.html" target="_top" xlink:title="/workspace/src/mcts\l/MCTSPlayer.cpp">
<polygon fill="none" stroke="#000000" points="1263.5,-84 1263.5,-114 1379.5,-114 1379.5,-84 1263.5,-84"/>
<text text-anchor="start" x="1271.5" y="-102" font-family="Helvetica,sans-Serif" font-size="10.00" fill="#000000">/workspace/src/mcts</text>
<text text-anchor="middle" x="1321.5" y="-91" font-family="Helvetica,sans-Serif" font-size="10.00" fill="#000000">/MCTSPlayer.cpp</text>
</a>
</g>
</g>
<!-- Node2&#45;&gt;Node16 -->
<g id="edge17" class="edge">
<title>Node2&#45;&gt;Node16</title>
<path fill="none" stroke="#191970" d="M854.3344,-167.4883C952.6601,-161.7842 1116.327,-148.6482 1254.5,-120 1262.1391,-118.4161 1270.1461,-116.3117 1277.8597,-114.046"/>
<polygon fill="#191970" stroke="#191970" points="853.9306,-164.0055 844.1449,-168.0663 854.3271,-170.9942 853.9306,-164.0055"/>
</g>
<!-- Node17 -->
<g id="node17" class="node">
<title>Node17</title>
<g id="a_node17"><a xlink:href="_tree_8cpp.html" target="_top" xlink:title="/workspace/src/mcts\l/Tree.cpp">
<polygon fill="none" stroke="#000000" points="1397.5,-84 1397.5,-114 1513.5,-114 1513.5,-84 1397.5,-84"/>
<text text-anchor="start" x="1405.5" y="-102" font-family="Helvetica,sans-Serif" font-size="10.00" fill="#000000">/workspace/src/mcts</text>
<text text-anchor="middle" x="1455.5" y="-91" font-family="Helvetica,sans-Serif" font-size="10.00" fill="#000000">/Tree.cpp</text>
</a>
</g>
</g>
<!-- Node2&#45;&gt;Node17 -->
<g id="edge18" class="edge">
<title>Node2&#45;&gt;Node17</title>
<path fill="none" stroke="#191970" d="M854.5694,-166.6168C1001.1071,-158.0871 1288.7411,-139.5139 1388.5,-120 1396.2761,-118.4789 1404.4227,-116.3764 1412.2505,-114.0858"/>
<polygon fill="#191970" stroke="#191970" points="854.048,-163.141 844.2671,-167.2134 854.4528,-170.1293 854.048,-163.141"/>
</g>
<!-- Node8&#45;&gt;Node7 -->
<g id="edge8" class="edge">
<title>Node8&#45;&gt;Node7</title>
<path fill="none" stroke="#191970" d="M609.4908,-79.9278C641.2871,-66.4489 683.3272,-48.6276 712.8184,-36.1259"/>
<polygon fill="#191970" stroke="#191970" points="607.8179,-76.8354 599.9771,-83.9608 610.55,-83.2802 607.8179,-76.8354"/>
</g>
<!-- Node9 -->
<g id="node9" class="node">
<title>Node9</title>
<g id="a_node9"><a xlink:href="tic__tac__toe_2_console_game_8cpp.html" target="_top" xlink:title="/workspace/src/game\l_logic/tic_tac_toe/Console\lGame.cpp">
<polygon fill="none" stroke="#000000" points="322,-.5 322,-41.5 465,-41.5 465,-.5 322,-.5"/>
<text text-anchor="start" x="330" y="-29.5" font-family="Helvetica,sans-Serif" font-size="10.00" fill="#000000">/workspace/src/game</text>
<text text-anchor="start" x="330" y="-18.5" font-family="Helvetica,sans-Serif" font-size="10.00" fill="#000000">_logic/tic_tac_toe/Console</text>
<text text-anchor="middle" x="393.5" y="-7.5" font-family="Helvetica,sans-Serif" font-size="10.00" fill="#000000">Game.cpp</text>
</a>
</g>
</g>
<!-- Node8&#45;&gt;Node9 -->
<g id="edge9" class="edge">
<title>Node8&#45;&gt;Node9</title>
<path fill="none" stroke="#191970" d="M522.166,-79.6898C496.7836,-68.1118 464.5208,-53.3955 438.6519,-41.5956"/>
<polygon fill="#191970" stroke="#191970" points="520.9787,-82.9951 531.5295,-83.9608 523.8838,-76.6263 520.9787,-82.9951"/>
</g>
<!-- Node10 -->
<g id="node10" class="node">
<title>Node10</title>
<g id="a_node10"><a xlink:href="_tic_tac_toe_8cpp.html" target="_top" xlink:title="/workspace/src/game\l_logic/tic_tac_toe/TicTacToe.cpp">
<polygon fill="none" stroke="#000000" points="483,-6 483,-36 654,-36 654,-6 483,-6"/>
<text text-anchor="start" x="491" y="-24" font-family="Helvetica,sans-Serif" font-size="10.00" fill="#000000">/workspace/src/game</text>
<text text-anchor="middle" x="568.5" y="-13" font-family="Helvetica,sans-Serif" font-size="10.00" fill="#000000">_logic/tic_tac_toe/TicTacToe.cpp</text>
</a>
</g>
</g>
<!-- Node8&#45;&gt;Node10 -->
<g id="edge10" class="edge">
<title>Node8&#45;&gt;Node10</title>
<path fill="none" stroke="#191970" d="M565.793,-73.7875C566.4272,-61.4187 567.1704,-46.9264 567.7175,-36.2592"/>
<polygon fill="#191970" stroke="#191970" points="562.2881,-73.7947 565.2712,-83.9608 569.2789,-74.1532 562.2881,-73.7947"/>
</g>
<!-- Node11&#45;&gt;Node9 -->
<g id="edge12" class="edge">
<title>Node11&#45;&gt;Node9</title>
<path fill="none" stroke="#191970" d="M395.9143,-68.0789C395.4599,-59.2178 394.9756,-49.7747 394.561,-41.6898"/>
<polygon fill="#191970" stroke="#191970" points="392.4204,-68.2898 396.4281,-78.0974 399.4112,-67.9313 392.4204,-68.2898"/>
</g>
<!-- Node12 -->
<g id="node12" class="node">
<title>Node12</title>
<g id="a_node12"><a xlink:href="main_8cpp.html" target="_top" xlink:title="/workspace/src/main.cpp">
<polygon fill="none" stroke="#000000" points="167,-11.5 167,-30.5 304,-30.5 304,-11.5 167,-11.5"/>
<text text-anchor="middle" x="235.5" y="-18.5" font-family="Helvetica,sans-Serif" font-size="10.00" fill="#000000">/workspace/src/main.cpp</text>
</a>
</g>
</g>
<!-- Node11&#45;&gt;Node12 -->
<g id="edge13" class="edge">
<title>Node11&#45;&gt;Node12</title>
<path fill="none" stroke="#191970" d="M345.2482,-73.8417C314.6731,-59.1204 277.8185,-41.3756 255.5459,-30.6517"/>
<polygon fill="#191970" stroke="#191970" points="343.9839,-77.1175 354.5123,-78.3022 347.0206,-70.8105 343.9839,-77.1175"/>
</g>
<!-- Node18&#45;&gt;Node3 -->
<g id="edge20" class="edge">
<title>Node18&#45;&gt;Node3</title>
<path fill="none" stroke="#191970" d="M1549.8216,-149.3313C1561.3534,-137.8785 1575.1208,-124.2054 1585.3937,-114.0028"/>
<polygon fill="#191970" stroke="#191970" points="1547.2546,-146.9478 1542.6256,-156.478 1552.1874,-151.9146 1547.2546,-146.9478"/>
</g>
<!-- Node18&#45;&gt;Node4 -->
<g id="edge21" class="edge">
<title>Node18&#45;&gt;Node4</title>
<path fill="none" stroke="#191970" d="M1429.0633,-169.8637C1295.6909,-166.3331 1050.5607,-155.1867 844.5,-120 835.5145,-118.4657 826.0635,-116.3566 816.9625,-114.0637"/>
<polygon fill="#191970" stroke="#191970" points="1429.1707,-173.3675 1439.257,-170.1244 1429.3497,-166.3698 1429.1707,-173.3675"/>
</g>
<!-- Node18&#45;&gt;Node5 -->
<g id="edge22" class="edge">
<title>Node18&#45;&gt;Node5</title>
<path fill="none" stroke="#191970" d="M1429.3884,-170.1515C1180.8091,-166.2809 530.871,-153.2075 317.5,-120 308.3267,-118.5723 298.6808,-116.4535 289.438,-114.1032"/>
<polygon fill="#191970" stroke="#191970" points="1429.439,-173.6526 1439.4917,-170.3072 1429.5469,-166.6535 1429.439,-173.6526"/>
</g>
<!-- Node18&#45;&gt;Node6 -->
<g id="edge23" class="edge">
<title>Node18&#45;&gt;Node6</title>
<path fill="none" stroke="#191970" d="M1429.3413,-168.1664C1319.562,-163.0662 1136.89,-150.466 982.5,-120 974.6377,-118.4485 966.3941,-116.3603 958.4512,-114.1006"/>
<polygon fill="#191970" stroke="#191970" points="1429.2583,-171.6661 1439.4065,-168.6224 1429.5752,-164.6733 1429.2583,-171.6661"/>
</g>
<!-- Node18&#45;&gt;Node14 -->
<g id="edge31" class="edge">
<title>Node18&#45;&gt;Node14</title>
<path fill="none" stroke="#191970" d="M1429.2747,-163.7756C1346.3496,-156.1352 1224.8017,-142.3024 1120.5,-120 1112.9082,-118.3767 1104.9465,-116.3079 1097.2393,-114.1046"/>
<polygon fill="#191970" stroke="#191970" points="1429.1697,-167.2804 1439.4453,-164.6995 1429.803,-160.3091 1429.1697,-167.2804"/>
</g>
<!-- Node18&#45;&gt;Node15 -->
<g id="edge32" class="edge">
<title>Node18&#45;&gt;Node15</title>
<path fill="none" stroke="#191970" d="M1429.3958,-155.8615C1377.1457,-146.8125 1311.9742,-134.3756 1254.5,-120 1247.5229,-118.2549 1240.203,-116.1987 1233.069,-114.0676"/>
<polygon fill="#191970" stroke="#191970" points="1428.8834,-159.3246 1439.3317,-157.5684 1430.0687,-152.4257 1428.8834,-159.3246"/>
</g>
<!-- Node18&#45;&gt;Node16 -->
<g id="edge33" class="edge">
<title>Node18&#45;&gt;Node16</title>
<path fill="none" stroke="#191970" d="M1474.9542,-153.0069C1440.597,-140.9152 1396.2932,-125.3228 1364.1287,-114.0028"/>
<polygon fill="#191970" stroke="#191970" points="1474.2218,-156.4596 1484.8167,-156.478 1476.5458,-149.8566 1474.2218,-156.4596"/>
</g>
<!-- Node18&#45;&gt;Node17 -->
<g id="edge34" class="edge">
<title>Node18&#45;&gt;Node17</title>
<path fill="none" stroke="#191970" d="M1505.4842,-149.3313C1494.1104,-137.8785 1480.5316,-124.2054 1470.3993,-114.0028"/>
<polygon fill="#191970" stroke="#191970" points="1503.0515,-151.8487 1512.5816,-156.478 1508.0184,-146.9161 1503.0515,-151.8487"/>
</g>
<!-- Node19 -->
<g id="node19" class="node">
<title>Node19</title>
<g id="a_node19"><a xlink:href="penguin_2_board_8cpp.html" target="_top" xlink:title="/workspace/src/game\l_logic/penguin/Board.cpp">
<polygon fill="none" stroke="#000000" points="2817,-84 2817,-114 2956,-114 2956,-84 2817,-84"/>
<text text-anchor="start" x="2825" y="-102" font-family="Helvetica,sans-Serif" font-size="10.00" fill="#000000">/workspace/src/game</text>
<text text-anchor="middle" x="2886.5" y="-91" font-family="Helvetica,sans-Serif" font-size="10.00" fill="#000000">_logic/penguin/Board.cpp</text>
</a>
</g>
</g>
<!-- Node18&#45;&gt;Node19 -->
<g id="edge24" class="edge">
<title>Node18&#45;&gt;Node19</title>
<path fill="none" stroke="#191970" d="M1625.7358,-170.336C1884.4095,-166.8246 2580.0515,-154.3786 2807.5,-120 2817.0419,-118.5578 2827.0886,-116.4 2836.6988,-114.0086"/>
<polygon fill="#191970" stroke="#191970" points="1625.5566,-166.838 1615.6045,-170.4719 1625.6506,-173.8373 1625.5566,-166.838"/>
</g>
<!-- Node20 -->
<g id="node20" class="node">
<title>Node20</title>
<g id="a_node20"><a xlink:href="penguin_2_board_cell_8cpp.html" target="_top" xlink:title="/workspace/src/game\l_logic/penguin/BoardCell.cpp">
<polygon fill="none" stroke="#000000" points="1687.5,-84 1687.5,-114 1845.5,-114 1845.5,-84 1687.5,-84"/>
<text text-anchor="start" x="1695.5" y="-102" font-family="Helvetica,sans-Serif" font-size="10.00" fill="#000000">/workspace/src/game</text>
<text text-anchor="middle" x="1766.5" y="-91" font-family="Helvetica,sans-Serif" font-size="10.00" fill="#000000">_logic/penguin/BoardCell.cpp</text>
</a>
</g>
</g>
<!-- Node18&#45;&gt;Node20 -->
<g id="edge25" class="edge">
<title>Node18&#45;&gt;Node20</title>
<path fill="none" stroke="#191970" d="M1586.6749,-153.5495C1626.7769,-141.3846 1679.1648,-125.4929 1717.0425,-114.0028"/>
<polygon fill="#191970" stroke="#191970" points="1585.5743,-150.2257 1577.021,-156.478 1587.6064,-156.9243 1585.5743,-150.2257"/>
</g>
<!-- Node21 -->
<g id="node21" class="node">
<title>Node21</title>
<g id="a_node21"><a xlink:href="penguin_2_console_game_8cpp.html" target="_top" xlink:title="/workspace/src/game\l_logic/penguin/ConsoleGame.cpp">
<polygon fill="none" stroke="#000000" points="1864,-84 1864,-114 2043,-114 2043,-84 1864,-84"/>
<text text-anchor="start" x="1872" y="-102" font-family="Helvetica,sans-Serif" font-size="10.00" fill="#000000">/workspace/src/game</text>
<text text-anchor="middle" x="1953.5" y="-91" font-family="Helvetica,sans-Serif" font-size="10.00" fill="#000000">_logic/penguin/ConsoleGame.cpp</text>
</a>
</g>
</g>
<!-- Node18&#45;&gt;Node21 -->
<g id="edge26" class="edge">
<title>Node18&#45;&gt;Node21</title>
<path fill="none" stroke="#191970" d="M1626.0869,-157.3599C1691.1023,-147.6938 1778.0558,-134.1172 1854.5,-120 1864.3483,-118.1813 1874.7191,-116.1314 1884.8914,-114.0434"/>
<polygon fill="#191970" stroke="#191970" points="1625.2247,-153.9493 1615.8456,-158.8771 1626.2506,-160.8737 1625.2247,-153.9493"/>
</g>
<!-- Node22 -->
<g id="node22" class="node">
<title>Node22</title>
<g id="a_node22"><a xlink:href="_human_player_8cpp.html" target="_top" xlink:title="/workspace/src/game\l_logic/penguin/HumanPlayer.cpp">
<polygon fill="none" stroke="#000000" points="2061.5,-84 2061.5,-114 2237.5,-114 2237.5,-84 2061.5,-84"/>
<text text-anchor="start" x="2069.5" y="-102" font-family="Helvetica,sans-Serif" font-size="10.00" fill="#000000">/workspace/src/game</text>
<text text-anchor="middle" x="2149.5" y="-91" font-family="Helvetica,sans-Serif" font-size="10.00" fill="#000000">_logic/penguin/HumanPlayer.cpp</text>
</a>
</g>
</g>
<!-- Node18&#45;&gt;Node22 -->
<g id="edge27" class="edge">
<title>Node18&#45;&gt;Node22</title>
<path fill="none" stroke="#191970" d="M1625.7002,-165.2673C1731.4971,-157.7609 1904.589,-143.1864 2052.5,-120 2063.054,-118.3456 2074.1854,-116.2608 2084.9955,-114.0511"/>
<polygon fill="#191970" stroke="#191970" points="1625.405,-161.7793 1615.675,-165.9717 1625.8957,-168.7621 1625.405,-161.7793"/>
</g>
<!-- Node23 -->
<g id="node23" class="node">
<title>Node23</title>
<g id="a_node23"><a xlink:href="_penguin_game_8cpp.html" target="_top" xlink:title="/workspace/src/game\l_logic/penguin/PenguinGame.cpp">
<polygon fill="none" stroke="#000000" points="2256,-84 2256,-114 2435,-114 2435,-84 2256,-84"/>
<text text-anchor="start" x="2264" y="-102" font-family="Helvetica,sans-Serif" font-size="10.00" fill="#000000">/workspace/src/game</text>
<text text-anchor="middle" x="2345.5" y="-91" font-family="Helvetica,sans-Serif" font-size="10.00" fill="#000000">_logic/penguin/PenguinGame.cpp</text>
</a>
</g>
</g>
<!-- Node18&#45;&gt;Node23 -->
<g id="edge28" class="edge">
<title>Node18&#45;&gt;Node23</title>
<path fill="none" stroke="#191970" d="M1625.8207,-168.7375C1764.709,-163.8648 2026.0235,-151.1293 2246.5,-120 2257.7213,-118.4157 2269.5727,-116.2966 2281.0243,-114.0128"/>
<polygon fill="#191970" stroke="#191970" points="1625.4997,-165.2464 1615.6262,-169.0887 1625.7408,-172.2423 1625.4997,-165.2464"/>
</g>
<!-- Node24 -->
<g id="node24" class="node">
<title>Node24</title>
<g id="a_node24"><a xlink:href="_penguin_pawn_8cpp.html" target="_top" xlink:title="/workspace/src/game\l_logic/penguin/PenguinPawn.cpp">
<polygon fill="none" stroke="#000000" points="2453,-84 2453,-114 2628,-114 2628,-84 2453,-84"/>
<text text-anchor="start" x="2461" y="-102" font-family="Helvetica,sans-Serif" font-size="10.00" fill="#000000">/workspace/src/game</text>
<text text-anchor="middle" x="2540.5" y="-91" font-family="Helvetica,sans-Serif" font-size="10.00" fill="#000000">_logic/penguin/PenguinPawn.cpp</text>
</a>
</g>
</g>
<!-- Node18&#45;&gt;Node24 -->
<g id="edge29" class="edge">
<title>Node18&#45;&gt;Node24</title>
<path fill="none" stroke="#191970" d="M1625.8435,-167.9609C1828.9441,-160.3264 2288.7487,-141.2709 2444.5,-120 2455.6565,-118.4764 2467.4414,-116.3425 2478.7889,-114.0144"/>
<polygon fill="#191970" stroke="#191970" points="1625.6415,-164.466 1615.7795,-168.3378 1625.9035,-171.461 1625.6415,-164.466"/>
</g>
<!-- Node25 -->
<g id="node25" class="node">
<title>Node25</title>
<g id="a_node25"><a xlink:href="_print_hex_8cpp.html" target="_top" xlink:title="/workspace/src/game\l_logic/penguin/PrintHex.cpp">
<polygon fill="none" stroke="#000000" points="2646.5,-84 2646.5,-114 2798.5,-114 2798.5,-84 2646.5,-84"/>
<text text-anchor="start" x="2654.5" y="-102" font-family="Helvetica,sans-Serif" font-size="10.00" fill="#000000">/workspace/src/game</text>
<text text-anchor="middle" x="2722.5" y="-91" font-family="Helvetica,sans-Serif" font-size="10.00" fill="#000000">_logic/penguin/PrintHex.cpp</text>
</a>
</g>
</g>
<!-- Node18&#45;&gt;Node25 -->
<g id="edge30" class="edge">
<title>Node18&#45;&gt;Node25</title>
<path fill="none" stroke="#191970" d="M1626.1004,-169.4009C1860.108,-164.0189 2443.8597,-148.1351 2637.5,-120 2647.5786,-118.5356 2658.2039,-116.3993 2668.3994,-114.0431"/>
<polygon fill="#191970" stroke="#191970" points="1625.8157,-165.9064 1615.8983,-169.634 1625.9757,-172.9046 1625.8157,-165.9064"/>
</g>
</g>
</svg>
        <g id="navigator" transform="translate(0 0)" fill="#404254">
                <rect fill="#f2f5e9" fill-opacity="0.5" stroke="#606060" stroke-width=".5" x="0" y="0" width="60" height="60"/>
                <use id="zoomplus" xlink:href="#zoomPlus" x="17" y="9" onmousedown="handleZoom(evt,'in')"/>
                <use id="zoomminus" xlink:href="#zoomMin" x="42" y="9" onmousedown="handleZoom(evt,'out')"/>
                <use id="reset" xlink:href="#resetDef" x="30" y="36" onmousedown="handleReset()"/>
                <g id="arrowUp" xlink:href="#dirArrow" transform="translate(30 24)" onmousedown="handlePan(0,-1)">
                  <use xlink:href="#rim" fill="#404040">
                        <set attributeName="fill" to="#808080" begin="arrowUp.mouseover" end="arrowUp.mouseout"/>
                  </use>
                  <path fill="none" stroke="white" stroke-width="1.5" d="M0,-3.0v7 M-2.5,-0.5L0,-3.0L2.5,-0.5"/>
                </g>
                <g id="arrowRight" xlink:href="#dirArrow" transform="rotate(90) translate(36 -43)" onmousedown="handlePan(1,0)">
                  <use xlink:href="#rim" fill="#404040">
                        <set attributeName="fill" to="#808080" begin="arrowRight.mouseover" end="arrowRight.mouseout"/>
                  </use>
                  <path fill="none" stroke="white" stroke-width="1.5" d="M0,-3.0v7 M-2.5,-0.5L0,-3.0L2.5,-0.5"/>
                </g>
                <g id="arrowDown" xlink:href="#dirArrow" transform="rotate(180) translate(-30 -48)" onmousedown="handlePan(0,1)">
                  <use xlink:href="#rim" fill="#404040">
                        <set attributeName="fill" to="#808080" begin="arrowDown.mouseover" end="arrowDown.mouseout"/>
                  </use>
                  <path fill="none" stroke="white" stroke-width="1.5" d="M0,-3.0v7 M-2.5,-0.5L0,-3.0L2.5,-0.5"/>
                </g>
                <g id="arrowLeft" xlink:href="#dirArrow" transform="rotate(270) translate(-36 17)" onmousedown="handlePan(-1,0)">
                  <use xlink:href="#rim" fill="#404040">
                        <set attributeName="fill" to="#808080" begin="arrowLeft.mouseover" end="arrowLeft.mouseout"/>
                  </use>
                  <path fill="none" stroke="white" stroke-width="1.5" d="M0,-3.0v7 M-2.5,-0.5L0,-3.0L2.5,-0.5"/>
                </g>
        </g>
        <svg viewBox="0 0 15 15" width="100%" height="30px" preserveAspectRatio="xMaxYMin meet">
         <g id="arrow_out" transform="scale(0.3 0.3)">
          <a xlink:href="_abstract_pawn_8hpp__dep__incl_org.svg" target="_base">
           <rect id="button" ry="5" rx="5" y="6" x="6" height="38" width="38"
                fill="#f2f5e9" fill-opacity="0.5" stroke="#606060" stroke-width="1.0"/>
           <path id="arrow"
             d="M 11.500037,31.436501 C 11.940474,20.09759 22.043105,11.32322 32.158766,21.979434 L 37.068811,17.246167 C 37.068811,17.246167 37.088388,32 37.088388,32 L 22.160133,31.978069 C 22.160133,31.978069 26.997745,27.140456 26.997745,27.140456 C 18.528582,18.264221 13.291696,25.230495 11.500037,31.436501 z"
             style="fill:#404040;"/>
          </a>
         </g>
        </svg>
</svg>
