<?xml version="1.0" encoding="UTF-8" standalone="no"?>
<!DOCTYPE svg PUBLIC "-//W3C//DTD SVG 1.1//EN"
 "http://www.w3.org/Graphics/SVG/1.1/DTD/svg11.dtd">
<!-- Generated by graphviz version 2.40.1 (20161225.0304)
 -->
<!-- Title: /workspace/src/game_logic/AbstractGame.hpp Pages: 1 -->
<!--zoomable 329 -->
<svg id="main" version="1.1" xmlns="http://www.w3.org/2000/svg" xmlns:xlink="http://www.w3.org/1999/xlink" xml:space="preserve" onload="init(evt)">
<style type="text/css"><![CDATA[
.edge:hover path { stroke: red; }
.edge:hover polygon { stroke: red; fill: red; }
]]></style>
<script type="text/javascript"><![CDATA[
var edges = document.getElementsByTagName('g');
if (edges && edges.length) {
  for (var i=0;i<edges.length;i++) {
    if (edges[i].id.substr(0,4)=='edge') {
      edges[i].setAttribute('class','edge');
    }
  }
}
]]></script>
        <defs>
                <circle id="rim" cx="0" cy="0" r="7"/>
                <circle id="rim2" cx="0" cy="0" r="3.5"/>
                <g id="zoomPlus">
                        <use xlink:href="#rim" fill="#404040">
                                <set attributeName="fill" to="#808080" begin="zoomplus.mouseover" end="zoomplus.mouseout"/>
                        </use>
                        <path d="M-4,0h8M0,-4v8" fill="none" stroke="white" stroke-width="1.5" pointer-events="none"/>
                </g>
                <g id="zoomMin">
                        <use xlink:href="#rim" fill="#404040">
                                <set attributeName="fill" to="#808080" begin="zoomminus.mouseover" end="zoomminus.mouseout"/>
                        </use>
                        <path d="M-4,0h8" fill="none" stroke="white" stroke-width="1.5" pointer-events="none"/>
                </g>
                <g id="dirArrow">
                        <path fill="none" stroke="white" stroke-width="1.5" d="M0,-3.0v7 M-2.5,-0.5L0,-3.0L2.5,-0.5"/>
                </g>
               <g id="resetDef">
                       <use xlink:href="#rim2" fill="#404040">
                               <set attributeName="fill" to="#808080" begin="reset.mouseover" end="reset.mouseout"/>
                       </use>
               </g>
        </defs>

<script type="text/javascript">
var viewWidth = 1153;
var viewHeight = 329;
var sectionId = 'dynsection-1';
</script>
<script xlink:href="svgpan.js"/>
<svg id="graph" class="graph">
<g id="viewport">
<title>/workspace/src/game_logic/AbstractGame.hpp</title>
<!-- Node3 -->
<g id="node1" class="node">
<title>Node3</title>
<polygon fill="#bfbfbf" stroke="#000000" points="289.5,-290.5 289.5,-320.5 428.5,-320.5 428.5,-290.5 289.5,-290.5"/>
<text text-anchor="start" x="297.5" y="-308.5" font-family="Helvetica,sans-Serif" font-size="10.00" fill="#000000">/workspace/src/game</text>
<text text-anchor="middle" x="359" y="-297.5" font-family="Helvetica,sans-Serif" font-size="10.00" fill="#000000">_logic/AbstractGame.hpp</text>
</g>
<!-- Node4 -->
<g id="node2" class="node">
<title>Node4</title>
<g id="a_node2"><a xlink:href="_abstract_game_8cpp.html" target="_top" xlink:title="/workspace/src/game\l_logic/AbstractGame.cpp">
<polygon fill="none" stroke="#000000" points="2,-223.5 2,-253.5 140,-253.5 140,-223.5 2,-223.5"/>
<text text-anchor="start" x="10" y="-241.5" font-family="Helvetica,sans-Serif" font-size="10.00" fill="#000000">/workspace/src/game</text>
<text text-anchor="middle" x="71" y="-230.5" font-family="Helvetica,sans-Serif" font-size="10.00" fill="#000000">_logic/AbstractGame.cpp</text>
</a>
</g>
</g>
<!-- Node3&#45;&gt;Node4 -->
<g id="edge1" class="edge">
<title>Node3&#45;&gt;Node4</title>
<path fill="none" stroke="#191970" d="M284.4521,-288.1573C238.4487,-277.4551 180.0104,-263.8601 135.9147,-253.6017"/>
<polygon fill="#191970" stroke="#191970" points="283.8342,-291.6069 294.3672,-290.4639 285.4204,-284.789 283.8342,-291.6069"/>
</g>
<!-- Node5 -->
<g id="node3" class="node">
<title>Node5</title>
<g id="a_node3"><a xlink:href="_m_c_t_s_player_8hpp.html" target="_top" xlink:title="/workspace/src/mcts\l/MCTSPlayer.hpp">
<polygon fill="none" stroke="#000000" points="196,-156.5 196,-186.5 312,-186.5 312,-156.5 196,-156.5"/>
<text text-anchor="start" x="204" y="-174.5" font-family="Helvetica,sans-Serif" font-size="10.00" fill="#000000">/workspace/src/mcts</text>
<text text-anchor="middle" x="254" y="-163.5" font-family="Helvetica,sans-Serif" font-size="10.00" fill="#000000">/MCTSPlayer.hpp</text>
</a>
</g>
</g>
<!-- Node3&#45;&gt;Node5 -->
<g id="edge2" class="edge">
<title>Node3&#45;&gt;Node5</title>
<path fill="none" stroke="#191970" d="M351.2054,-280.8252C344.9075,-263.4555 334.8139,-240.3095 321,-223 309.4693,-208.5514 293.0585,-195.8498 279.3647,-186.6757"/>
<polygon fill="#191970" stroke="#191970" points="347.9033,-281.9859 354.4743,-290.2969 354.5203,-279.7021 347.9033,-281.9859"/>
</g>
<!-- Node6 -->
<g id="node4" class="node">
<title>Node6</title>
<g id="a_node4"><a xlink:href="penguin_2_console_game_8cpp.html" target="_top" xlink:title="/workspace/src/game\l_logic/penguin/ConsoleGame.cpp">
<polygon fill="none" stroke="#000000" points="631.5,-84 631.5,-114 810.5,-114 810.5,-84 631.5,-84"/>
<text text-anchor="start" x="639.5" y="-102" font-family="Helvetica,sans-Serif" font-size="10.00" fill="#000000">/workspace/src/game</text>
<text text-anchor="middle" x="721" y="-91" font-family="Helvetica,sans-Serif" font-size="10.00" fill="#000000">_logic/penguin/ConsoleGame.cpp</text>
</a>
</g>
</g>
<!-- Node3&#45;&gt;Node6 -->
<g id="edge16" class="edge">
<title>Node3&#45;&gt;Node6</title>
<path fill="none" stroke="#191970" d="M438.5245,-295.286C483.4584,-287.6316 539.889,-274.7981 587,-254 634.5984,-232.9868 650.0999,-227.3081 683,-187 701.0991,-164.8256 712.0313,-132.7234 717.257,-114.0438"/>
<polygon fill="#191970" stroke="#191970" points="437.832,-291.8529 428.5357,-296.9351 438.9723,-298.7594 437.832,-291.8529"/>
</g>
<!-- Node11 -->
<g id="node9" class="node">
<title>Node11</title>
<g id="a_node9"><a xlink:href="_tree_8hpp.html" target="_top" xlink:title="/workspace/src/mcts\l/Tree.hpp">
<polygon fill="none" stroke="#000000" points="196,-223.5 196,-253.5 312,-253.5 312,-223.5 196,-223.5"/>
<text text-anchor="start" x="204" y="-241.5" font-family="Helvetica,sans-Serif" font-size="10.00" fill="#000000">/workspace/src/mcts</text>
<text text-anchor="middle" x="254" y="-230.5" font-family="Helvetica,sans-Serif" font-size="10.00" fill="#000000">/Tree.hpp</text>
</a>
</g>
</g>
<!-- Node3&#45;&gt;Node11 -->
<g id="edge9" class="edge">
<title>Node3&#45;&gt;Node11</title>
<path fill="none" stroke="#191970" d="M326.9924,-285.0761C311.1661,-274.9774 292.3929,-262.9983 277.8487,-253.7177"/>
<polygon fill="#191970" stroke="#191970" points="325.1232,-288.0352 335.436,-290.4639 328.8887,-282.1342 325.1232,-288.0352"/>
</g>
<!-- Node12 -->
<g id="node10" class="node">
<title>Node12</title>
<g id="a_node10"><a xlink:href="_m_c_t_s_8hpp.html" target="_top" xlink:title="/workspace/src/mcts\l/MCTS.hpp">
<polygon fill="none" stroke="#000000" points="24,-156.5 24,-186.5 140,-186.5 140,-156.5 24,-156.5"/>
<text text-anchor="start" x="32" y="-174.5" font-family="Helvetica,sans-Serif" font-size="10.00" fill="#000000">/workspace/src/mcts</text>
<text text-anchor="middle" x="82" y="-163.5" font-family="Helvetica,sans-Serif" font-size="10.00" fill="#000000">/MCTS.hpp</text>
</a>
</g>
</g>
<!-- Node3&#45;&gt;Node12 -->
<g id="edge26" class="edge">
<title>Node3&#45;&gt;Node12</title>
<path fill="none" stroke="#191970" d="M279.1863,-288.602C249.2467,-280.4852 215.5762,-269.1546 187,-254 167.7443,-243.7883 166.0866,-236.5318 149,-223 133.3583,-210.6125 115.4267,-196.852 102.0528,-186.6735"/>
<polygon fill="#191970" stroke="#191970" points="278.6225,-292.0727 289.184,-291.2323 280.4036,-285.303 278.6225,-292.0727"/>
</g>
<!-- Node14 -->
<g id="node12" class="node">
<title>Node14</title>
<g id="a_node12"><a xlink:href="_tree_8cpp.html" target="_top" xlink:title="/workspace/src/mcts\l/Tree.cpp">
<polygon fill="none" stroke="#000000" points="330,-156.5 330,-186.5 446,-186.5 446,-156.5 330,-156.5"/>
<text text-anchor="start" x="338" y="-174.5" font-family="Helvetica,sans-Serif" font-size="10.00" fill="#000000">/workspace/src/mcts</text>
<text text-anchor="middle" x="388" y="-163.5" font-family="Helvetica,sans-Serif" font-size="10.00" fill="#000000">/Tree.cpp</text>
</a>
</g>
</g>
<!-- Node3&#45;&gt;Node14 -->
<g id="edge27" class="edge">
<title>Node3&#45;&gt;Node14</title>
<path fill="none" stroke="#191970" d="M364.4447,-280.3415C370.4024,-252.8131 379.7607,-209.5714 384.6972,-186.7614"/>
<polygon fill="#191970" stroke="#191970" points="360.9648,-279.8749 362.2703,-290.389 367.8064,-281.3556 360.9648,-279.8749"/>
</g>
<!-- Node15 -->
<g id="node13" class="node">
<title>Node15</title>
<g id="a_node13"><a xlink:href="_penguin_game_8hpp.html" target="_top" xlink:title="/workspace/src/game\l_logic/penguin/PenguinGame.hpp">
<polygon fill="none" stroke="#000000" points="749.5,-223.5 749.5,-253.5 928.5,-253.5 928.5,-223.5 749.5,-223.5"/>
<text text-anchor="start" x="757.5" y="-241.5" font-family="Helvetica,sans-Serif" font-size="10.00" fill="#000000">/workspace/src/game</text>
<text text-anchor="middle" x="839" y="-230.5" font-family="Helvetica,sans-Serif" font-size="10.00" fill="#000000">_logic/penguin/PenguinGame.hpp</text>
</a>
</g>
</g>
<!-- Node3&#45;&gt;Node15 -->
<g id="edge17" class="edge">
<title>Node3&#45;&gt;Node15</title>
<path fill="none" stroke="#191970" d="M438.4661,-294.4079C524.0787,-282.4578 660.0232,-263.4822 749.3831,-251.009"/>
<polygon fill="#191970" stroke="#191970" points="437.9597,-290.9445 428.5396,-295.7934 438.9275,-297.8773 437.9597,-290.9445"/>
</g>
<!-- Node18 -->
<g id="node16" class="node">
<title>Node18</title>
<g id="a_node16"><a xlink:href="_tic_tac_toe_8hpp.html" target="_top" xlink:title="/workspace/src/game\l_logic/tic_tac_toe/TicTacToe.hpp">
<polygon fill="none" stroke="#000000" points="406,-223.5 406,-253.5 578,-253.5 578,-223.5 406,-223.5"/>
<text text-anchor="start" x="414" y="-241.5" font-family="Helvetica,sans-Serif" font-size="10.00" fill="#000000">/workspace/src/game</text>
<text text-anchor="middle" x="492" y="-230.5" font-family="Helvetica,sans-Serif" font-size="10.00" fill="#000000">_logic/tic_tac_toe/TicTacToe.hpp</text>
</a>
</g>
</g>
<!-- Node3&#45;&gt;Node18 -->
<g id="edge23" class="edge">
<title>Node3&#45;&gt;Node18</title>
<path fill="none" stroke="#191970" d="M397.8813,-285.9132C418.2643,-275.645 442.8572,-263.2561 461.7917,-253.7177"/>
<polygon fill="#191970" stroke="#191970" points="396.2039,-282.8391 388.8478,-290.4639 399.3533,-289.0906 396.2039,-282.8391"/>
</g>
<!-- Node5&#45;&gt;Node6 -->
<g id="edge3" class="edge">
<title>Node5&#45;&gt;Node6</title>
<path fill="none" stroke="#191970" d="M322.1656,-155.8721C434.1887,-135.2543 552.3552,-119.3437 631.2781,-109.5494"/>
<polygon fill="#191970" stroke="#191970" points="321.2339,-152.4852 312.0407,-157.7517 322.5116,-159.3676 321.2339,-152.4852"/>
</g>
<!-- Node7 -->
<g id="node5" class="node">
<title>Node7</title>
<g id="a_node5"><a xlink:href="tic__tac__toe_2_console_game_8cpp.html" target="_top" xlink:title="/workspace/src/game\l_logic/tic_tac_toe/Console\lGame.cpp">
<polygon fill="none" stroke="#000000" points="256.5,-.5 256.5,-41.5 399.5,-41.5 399.5,-.5 256.5,-.5"/>
<text text-anchor="start" x="264.5" y="-29.5" font-family="Helvetica,sans-Serif" font-size="10.00" fill="#000000">/workspace/src/game</text>
<text text-anchor="start" x="264.5" y="-18.5" font-family="Helvetica,sans-Serif" font-size="10.00" fill="#000000">_logic/tic_tac_toe/Console</text>
<text text-anchor="middle" x="328" y="-7.5" font-family="Helvetica,sans-Serif" font-size="10.00" fill="#000000">Game.cpp</text>
</a>
</g>
</g>
<!-- Node5&#45;&gt;Node7 -->
<g id="edge4" class="edge">
<title>Node5&#45;&gt;Node7</title>
<path fill="none" stroke="#191970" d="M266.0006,-147.0933C280.4252,-117.7568 304.3735,-69.0511 317.896,-41.5494"/>
<polygon fill="#191970" stroke="#191970" points="262.7743,-145.7228 261.5027,-156.241 269.0561,-148.8115 262.7743,-145.7228"/>
</g>
<!-- Node8 -->
<g id="node6" class="node">
<title>Node8</title>
<g id="a_node6"><a xlink:href="tic__tac__toe_2_console_game_8hpp.html" target="_top" xlink:title="/workspace/src/game\l_logic/tic_tac_toe/Console\lGame.hpp">
<polygon fill="none" stroke="#000000" points="383.5,-78.5 383.5,-119.5 526.5,-119.5 526.5,-78.5 383.5,-78.5"/>
<text text-anchor="start" x="391.5" y="-107.5" font-family="Helvetica,sans-Serif" font-size="10.00" fill="#000000">/workspace/src/game</text>
<text text-anchor="start" x="391.5" y="-96.5" font-family="Helvetica,sans-Serif" font-size="10.00" fill="#000000">_logic/tic_tac_toe/Console</text>
<text text-anchor="middle" x="455" y="-85.5" font-family="Helvetica,sans-Serif" font-size="10.00" fill="#000000">Game.hpp</text>
</a>
</g>
</g>
<!-- Node5&#45;&gt;Node8 -->
<g id="edge5" class="edge">
<title>Node5&#45;&gt;Node8</title>
<path fill="none" stroke="#191970" d="M305.3654,-152.9727C333.716,-142.7467 368.9856,-130.0251 398.1613,-119.5015"/>
<polygon fill="#191970" stroke="#191970" points="303.8665,-149.7925 295.6473,-156.478 306.2417,-156.3773 303.8665,-149.7925"/>
</g>
<!-- Node10 -->
<g id="node8" class="node">
<title>Node10</title>
<g id="a_node8"><a xlink:href="_m_c_t_s_player_8cpp.html" target="_top" xlink:title="/workspace/src/mcts\l/MCTSPlayer.cpp">
<polygon fill="none" stroke="#000000" points="134,-84 134,-114 250,-114 250,-84 134,-84"/>
<text text-anchor="start" x="142" y="-102" font-family="Helvetica,sans-Serif" font-size="10.00" fill="#000000">/workspace/src/mcts</text>
<text text-anchor="middle" x="192" y="-91" font-family="Helvetica,sans-Serif" font-size="10.00" fill="#000000">/MCTSPlayer.cpp</text>
</a>
</g>
</g>
<!-- Node5&#45;&gt;Node10 -->
<g id="edge8" class="edge">
<title>Node5&#45;&gt;Node10</title>
<path fill="none" stroke="#191970" d="M234.4802,-148.6745C224.8035,-137.3589 213.3888,-124.0111 204.83,-114.0028"/>
<polygon fill="#191970" stroke="#191970" points="231.9943,-151.1527 241.1536,-156.478 237.3142,-146.6032 231.9943,-151.1527"/>
</g>
<!-- Node8&#45;&gt;Node7 -->
<g id="edge6" class="edge">
<title>Node8&#45;&gt;Node7</title>
<path fill="none" stroke="#191970" d="M412.3326,-72.7948C395.7359,-62.6016 377.004,-51.0969 361.417,-41.5239"/>
<polygon fill="#191970" stroke="#191970" points="410.9468,-76.0511 421.2998,-78.3022 414.6103,-70.0863 410.9468,-76.0511"/>
</g>
<!-- Node9 -->
<g id="node7" class="node">
<title>Node9</title>
<g id="a_node7"><a xlink:href="main_8cpp.html" target="_top" xlink:title="/workspace/src/main.cpp">
<polygon fill="none" stroke="#000000" points="422.5,-11.5 422.5,-30.5 559.5,-30.5 559.5,-11.5 422.5,-11.5"/>
<text text-anchor="middle" x="491" y="-18.5" font-family="Helvetica,sans-Serif" font-size="10.00" fill="#000000">/workspace/src/main.cpp</text>
</a>
</g>
</g>
<!-- Node8&#45;&gt;Node9 -->
<g id="edge7" class="edge">
<title>Node8&#45;&gt;Node9</title>
<path fill="none" stroke="#191970" d="M469.005,-68.6559C475.2136,-55.2039 482.09,-40.3049 486.4736,-30.8072"/>
<polygon fill="#191970" stroke="#191970" points="465.6601,-67.5511 464.6473,-78.0974 472.0158,-70.4846 465.6601,-67.5511"/>
</g>
<!-- Node11&#45;&gt;Node5 -->
<g id="edge10" class="edge">
<title>Node11&#45;&gt;Node5</title>
<path fill="none" stroke="#191970" d="M254,-213.0249C254,-204.128 254,-194.4287 254,-186.6432"/>
<polygon fill="#191970" stroke="#191970" points="250.5001,-213.2966 254,-223.2967 257.5001,-213.2967 250.5001,-213.2966"/>
</g>
<!-- Node11&#45;&gt;Node10 -->
<g id="edge14" class="edge">
<title>Node11&#45;&gt;Node10</title>
<path fill="none" stroke="#191970" d="M215.0797,-217.8045C203.9346,-209.781 193.1481,-199.4802 187,-187 175.504,-163.6638 181.481,-132.5149 186.7942,-114.2202"/>
<polygon fill="#191970" stroke="#191970" points="213.3413,-220.8523 223.6014,-223.4946 217.2285,-215.0307 213.3413,-220.8523"/>
</g>
<!-- Node11&#45;&gt;Node12 -->
<g id="edge11" class="edge">
<title>Node11&#45;&gt;Node12</title>
<path fill="none" stroke="#191970" d="M205.8078,-219.7275C178.9477,-209.2645 145.9441,-196.4084 120.7685,-186.6017"/>
<polygon fill="#191970" stroke="#191970" points="204.8114,-223.0954 215.3998,-223.4639 207.3522,-216.5728 204.8114,-223.0954"/>
</g>
<!-- Node11&#45;&gt;Node14 -->
<g id="edge15" class="edge">
<title>Node11&#45;&gt;Node14</title>
<path fill="none" stroke="#191970" d="M293.1736,-218.9132C313.7099,-208.645 338.4877,-196.2561 357.5645,-186.7177"/>
<polygon fill="#191970" stroke="#191970" points="291.4512,-215.8612 284.0722,-223.4639 294.5818,-222.1222 291.4512,-215.8612"/>
</g>
<!-- Node12&#45;&gt;Node10 -->
<g id="edge13" class="edge">
<title>Node12&#45;&gt;Node10</title>
<path fill="none" stroke="#191970" d="M113.1768,-150.9517C131.0242,-139.1886 153.0202,-124.6913 169.2371,-114.0028"/>
<polygon fill="#191970" stroke="#191970" points="111.2156,-148.0524 104.7921,-156.478 115.0678,-153.8971 111.2156,-148.0524"/>
</g>
<!-- Node13 -->
<g id="node11" class="node">
<title>Node13</title>
<g id="a_node11"><a xlink:href="_m_c_t_s_8cpp.html" target="_top" xlink:title="/workspace/src/mcts\l/MCTS.cpp">
<polygon fill="none" stroke="#000000" points="0,-84 0,-114 116,-114 116,-84 0,-84"/>
<text text-anchor="start" x="8" y="-102" font-family="Helvetica,sans-Serif" font-size="10.00" fill="#000000">/workspace/src/mcts</text>
<text text-anchor="middle" x="58" y="-91" font-family="Helvetica,sans-Serif" font-size="10.00" fill="#000000">/MCTS.cpp</text>
</a>
</g>
</g>
<!-- Node12&#45;&gt;Node13 -->
<g id="edge12" class="edge">
<title>Node12&#45;&gt;Node13</title>
<path fill="none" stroke="#191970" d="M73.7828,-146.6774C70.1871,-135.8151 66.0865,-123.4281 62.9664,-114.0028"/>
<polygon fill="#191970" stroke="#191970" points="70.5618,-148.0845 77.0272,-156.478 77.2072,-145.8846 70.5618,-148.0845"/>
</g>
<!-- Node15&#45;&gt;Node6 -->
<g id="edge18" class="edge">
<title>Node15&#45;&gt;Node6</title>
<path fill="none" stroke="#191970" d="M798.5988,-218.3444C785.0095,-210.0701 770.6196,-199.4777 760,-187 741.3709,-165.1116 730.1694,-132.9111 724.8242,-114.1362"/>
<polygon fill="#191970" stroke="#191970" points="796.9618,-221.4411 807.3657,-223.4435 800.4812,-215.3902 796.9618,-221.4411"/>
</g>
<!-- Node16 -->
<g id="node14" class="node">
<title>Node16</title>
<g id="a_node14"><a xlink:href="penguin_2_console_game_8hpp.html" target="_top" xlink:title="/workspace/src/game\l_logic/penguin/ConsoleGame.hpp">
<polygon fill="none" stroke="#000000" points="965.5,-156.5 965.5,-186.5 1144.5,-186.5 1144.5,-156.5 965.5,-156.5"/>
<text text-anchor="start" x="973.5" y="-174.5" font-family="Helvetica,sans-Serif" font-size="10.00" fill="#000000">/workspace/src/game</text>
<text text-anchor="middle" x="1055" y="-163.5" font-family="Helvetica,sans-Serif" font-size="10.00" fill="#000000">_logic/penguin/ConsoleGame.hpp</text>
</a>
</g>
</g>
<!-- Node15&#45;&gt;Node16 -->
<g id="edge19" class="edge">
<title>Node15&#45;&gt;Node16</title>
<path fill="none" stroke="#191970" d="M897.3126,-220.4123C931.4292,-209.8298 974.0048,-196.6235 1006.314,-186.6017"/>
<polygon fill="#191970" stroke="#191970" points="895.9888,-217.1583 887.4746,-223.4639 898.0626,-223.8441 895.9888,-217.1583"/>
</g>
<!-- Node17 -->
<g id="node15" class="node">
<title>Node17</title>
<g id="a_node15"><a xlink:href="_penguin_game_8cpp.html" target="_top" xlink:title="/workspace/src/game\l_logic/penguin/PenguinGame.cpp">
<polygon fill="none" stroke="#000000" points="768.5,-156.5 768.5,-186.5 947.5,-186.5 947.5,-156.5 768.5,-156.5"/>
<text text-anchor="start" x="776.5" y="-174.5" font-family="Helvetica,sans-Serif" font-size="10.00" fill="#000000">/workspace/src/game</text>
<text text-anchor="middle" x="858" y="-163.5" font-family="Helvetica,sans-Serif" font-size="10.00" fill="#000000">_logic/penguin/PenguinGame.cpp</text>
</a>
</g>
</g>
<!-- Node15&#45;&gt;Node17 -->
<g id="edge22" class="edge">
<title>Node15&#45;&gt;Node17</title>
<path fill="none" stroke="#191970" d="M846.0583,-213.6103C848.6261,-204.5553 851.4493,-194.5998 853.7057,-186.6432"/>
<polygon fill="#191970" stroke="#191970" points="842.6725,-212.7211 843.3114,-223.2967 849.4069,-214.6309 842.6725,-212.7211"/>
</g>
<!-- Node16&#45;&gt;Node6 -->
<g id="edge20" class="edge">
<title>Node16&#45;&gt;Node6</title>
<path fill="none" stroke="#191970" d="M975.8348,-154.3159C919.3662,-142.0585 844.1691,-125.7358 790.1164,-114.0028"/>
<polygon fill="#191970" stroke="#191970" points="975.2801,-157.777 985.795,-156.478 976.765,-150.9363 975.2801,-157.777"/>
</g>
<!-- Node16&#45;&gt;Node9 -->
<g id="edge21" class="edge">
<title>Node16&#45;&gt;Node9</title>
<path fill="none" stroke="#191970" d="M1014.0574,-152.1892C967.8641,-131.1207 890.0271,-97.7664 820,-78 731.7138,-53.0797 626.8586,-37.1878 559.6556,-28.685"/>
<polygon fill="#191970" stroke="#191970" points="1012.8719,-155.4962 1023.4201,-156.4892 1015.7934,-149.135 1012.8719,-155.4962"/>
</g>
<!-- Node18&#45;&gt;Node8 -->
<g id="edge24" class="edge">
<title>Node18&#45;&gt;Node8</title>
<path fill="none" stroke="#191970" d="M485.3712,-213.5077C478.2568,-186.6844 467.0874,-144.5728 460.4601,-119.586"/>
<polygon fill="#191970" stroke="#191970" points="482.0231,-214.537 487.9699,-223.3055 488.7892,-212.7424 482.0231,-214.537"/>
</g>
<!-- Node19 -->
<g id="node17" class="node">
<title>Node19</title>
<g id="a_node17"><a xlink:href="_tic_tac_toe_8cpp.html" target="_top" xlink:title="/workspace/src/game\l_logic/tic_tac_toe/TicTacToe.cpp">
<polygon fill="none" stroke="#000000" points="502.5,-156.5 502.5,-186.5 673.5,-186.5 673.5,-156.5 502.5,-156.5"/>
<text text-anchor="start" x="510.5" y="-174.5" font-family="Helvetica,sans-Serif" font-size="10.00" fill="#000000">/workspace/src/game</text>
<text text-anchor="middle" x="588" y="-163.5" font-family="Helvetica,sans-Serif" font-size="10.00" fill="#000000">_logic/tic_tac_toe/TicTacToe.cpp</text>
</a>
</g>
</g>
<!-- Node18&#45;&gt;Node19 -->
<g id="edge25" class="edge">
<title>Node18&#45;&gt;Node19</title>
<path fill="none" stroke="#191970" d="M522.3089,-217.3469C536.5933,-207.3776 553.3081,-195.7121 566.3023,-186.6432"/>
<polygon fill="#191970" stroke="#191970" points="519.9811,-214.7033 513.7839,-223.2967 523.9874,-220.4436 519.9811,-214.7033"/>
</g>
</g>
</svg>
        <g id="navigator" transform="translate(0 0)" fill="#404254">
                <rect fill="#f2f5e9" fill-opacity="0.5" stroke="#606060" stroke-width=".5" x="0" y="0" width="60" height="60"/>
                <use id="zoomplus" xlink:href="#zoomPlus" x="17" y="9" onmousedown="handleZoom(evt,'in')"/>
                <use id="zoomminus" xlink:href="#zoomMin" x="42" y="9" onmousedown="handleZoom(evt,'out')"/>
                <use id="reset" xlink:href="#resetDef" x="30" y="36" onmousedown="handleReset()"/>
                <g id="arrowUp" xlink:href="#dirArrow" transform="translate(30 24)" onmousedown="handlePan(0,-1)">
                  <use xlink:href="#rim" fill="#404040">
                        <set attributeName="fill" to="#808080" begin="arrowUp.mouseover" end="arrowUp.mouseout"/>
                  </use>
                  <path fill="none" stroke="white" stroke-width="1.5" d="M0,-3.0v7 M-2.5,-0.5L0,-3.0L2.5,-0.5"/>
                </g>
                <g id="arrowRight" xlink:href="#dirArrow" transform="rotate(90) translate(36 -43)" onmousedown="handlePan(1,0)">
                  <use xlink:href="#rim" fill="#404040">
                        <set attributeName="fill" to="#808080" begin="arrowRight.mouseover" end="arrowRight.mouseout"/>
                  </use>
                  <path fill="none" stroke="white" stroke-width="1.5" d="M0,-3.0v7 M-2.5,-0.5L0,-3.0L2.5,-0.5"/>
                </g>
                <g id="arrowDown" xlink:href="#dirArrow" transform="rotate(180) translate(-30 -48)" onmousedown="handlePan(0,1)">
                  <use xlink:href="#rim" fill="#404040">
                        <set attributeName="fill" to="#808080" begin="arrowDown.mouseover" end="arrowDown.mouseout"/>
                  </use>
                  <path fill="none" stroke="white" stroke-width="1.5" d="M0,-3.0v7 M-2.5,-0.5L0,-3.0L2.5,-0.5"/>
                </g>
                <g id="arrowLeft" xlink:href="#dirArrow" transform="rotate(270) translate(-36 17)" onmousedown="handlePan(-1,0)">
                  <use xlink:href="#rim" fill="#404040">
                        <set attributeName="fill" to="#808080" begin="arrowLeft.mouseover" end="arrowLeft.mouseout"/>
                  </use>
                  <path fill="none" stroke="white" stroke-width="1.5" d="M0,-3.0v7 M-2.5,-0.5L0,-3.0L2.5,-0.5"/>
                </g>
        </g>
        <svg viewBox="0 0 15 15" width="100%" height="30px" preserveAspectRatio="xMaxYMin meet">
         <g id="arrow_out" transform="scale(0.3 0.3)">
          <a xlink:href="_abstract_game_8hpp__dep__incl_org.svg" target="_base">
           <rect id="button" ry="5" rx="5" y="6" x="6" height="38" width="38"
                fill="#f2f5e9" fill-opacity="0.5" stroke="#606060" stroke-width="1.0"/>
           <path id="arrow"
             d="M 11.500037,31.436501 C 11.940474,20.09759 22.043105,11.32322 32.158766,21.979434 L 37.068811,17.246167 C 37.068811,17.246167 37.088388,32 37.088388,32 L 22.160133,31.978069 C 22.160133,31.978069 26.997745,27.140456 26.997745,27.140456 C 18.528582,18.264221 13.291696,25.230495 11.500037,31.436501 z"
             style="fill:#404040;"/>
          </a>
         </g>
        </svg>
</svg>
