<?xml version="1.0" encoding="UTF-8" standalone="no"?>
<!DOCTYPE svg PUBLIC "-//W3C//DTD SVG 1.1//EN"
 "http://www.w3.org/Graphics/SVG/1.1/DTD/svg11.dtd">
<!-- Generated by graphviz version 2.40.1 (20161225.0304)
 -->
<!-- Title: /workspace/src/game_logic/AbstractBoard.cpp Pages: 1 -->
<!--zoomable 207 -->
<svg id="main" version="1.1" xmlns="http://www.w3.org/2000/svg" xmlns:xlink="http://www.w3.org/1999/xlink" xml:space="preserve" onload="init(evt)">
<style type="text/css"><![CDATA[
.edge:hover path { stroke: red; }
.edge:hover polygon { stroke: red; fill: red; }
]]></style>
<script type="text/javascript"><![CDATA[
var edges = document.getElementsByTagName('g');
if (edges && edges.length) {
  for (var i=0;i<edges.length;i++) {
    if (edges[i].id.substr(0,4)=='edge') {
      edges[i].setAttribute('class','edge');
    }
  }
}
]]></script>
        <defs>
                <circle id="rim" cx="0" cy="0" r="7"/>
                <circle id="rim2" cx="0" cy="0" r="3.5"/>
                <g id="zoomPlus">
                        <use xlink:href="#rim" fill="#404040">
                                <set attributeName="fill" to="#808080" begin="zoomplus.mouseover" end="zoomplus.mouseout"/>
                        </use>
                        <path d="M-4,0h8M0,-4v8" fill="none" stroke="white" stroke-width="1.5" pointer-events="none"/>
                </g>
                <g id="zoomMin">
                        <use xlink:href="#rim" fill="#404040">
                                <set attributeName="fill" to="#808080" begin="zoomminus.mouseover" end="zoomminus.mouseout"/>
                        </use>
                        <path d="M-4,0h8" fill="none" stroke="white" stroke-width="1.5" pointer-events="none"/>
                </g>
                <g id="dirArrow">
                        <path fill="none" stroke="white" stroke-width="1.5" d="M0,-3.0v7 M-2.5,-0.5L0,-3.0L2.5,-0.5"/>
                </g>
               <g id="resetDef">
                       <use xlink:href="#rim2" fill="#404040">
                               <set attributeName="fill" to="#808080" begin="reset.mouseover" end="reset.mouseout"/>
                       </use>
               </g>
        </defs>

<script type="text/javascript">
var viewWidth = 979;
var viewHeight = 207;
var sectionId = 'dynsection-0';
</script>
<script xlink:href="svgpan.js"/>
<svg id="graph" class="graph">
<g id="viewport">
<title>/workspace/src/game_logic/AbstractBoard.cpp</title>
<!-- Node0 -->
<g id="node1" class="node">
<title>Node0</title>
<polygon fill="#bfbfbf" stroke="#000000" points="382.5,-168.5 382.5,-198.5 519.5,-198.5 519.5,-168.5 382.5,-168.5"/>
<text text-anchor="start" x="390.5" y="-186.5" font-family="Helvetica,sans-Serif" font-size="10.00" fill="#000000">/workspace/src/game</text>
<text text-anchor="middle" x="451" y="-175.5" font-family="Helvetica,sans-Serif" font-size="10.00" fill="#000000">_logic/AbstractBoard.cpp</text>
</g>
<!-- Node1 -->
<g id="node2" class="node">
<title>Node1</title>
<polygon fill="none" stroke="#bfbfbf" points="0,-112.5 0,-131.5 56,-131.5 56,-112.5 0,-112.5"/>
<text text-anchor="middle" x="28" y="-119.5" font-family="Helvetica,sans-Serif" font-size="10.00" fill="#000000">assert.h</text>
</g>
<!-- Node0&#45;&gt;Node1 -->
<g id="edge1" class="edge">
<title>Node0&#45;&gt;Node1</title>
<path fill="none" stroke="#191970" d="M382.218,-177.0778C306.8626,-169.423 182.3304,-154.9584 66.3123,-132.053"/>
<polygon fill="#191970" stroke="#191970" points="66.6834,-128.558 56.1911,-130.0287 65.3105,-135.422 66.6834,-128.558"/>
</g>
<!-- Node2 -->
<g id="node3" class="node">
<title>Node2</title>
<g id="a_node3"><a xlink:href="_player_8hpp.html" target="_top" xlink:title="tic_tac_toe/Player.hpp">
<polygon fill="none" stroke="#000000" points="236,-112.5 236,-131.5 360,-131.5 360,-112.5 236,-112.5"/>
<text text-anchor="middle" x="298" y="-119.5" font-family="Helvetica,sans-Serif" font-size="10.00" fill="#000000">tic_tac_toe/Player.hpp</text>
</a>
</g>
</g>
<!-- Node0&#45;&gt;Node2 -->
<g id="edge2" class="edge">
<title>Node0&#45;&gt;Node2</title>
<path fill="none" stroke="#191970" d="M413.572,-168.4554C388.3794,-158.329 355.4593,-145.0964 331.2004,-135.3453"/>
<polygon fill="#191970" stroke="#191970" points="332.2934,-132.0125 321.7096,-131.5303 329.6827,-138.5074 332.2934,-132.0125"/>
</g>
<!-- Node6 -->
<g id="node7" class="node">
<title>Node6</title>
<g id="a_node7"><a xlink:href="tic__tac__toe_2_board_cell_8hpp.html" target="_top" xlink:title="tic_tac_toe/BoardCell.hpp">
<polygon fill="none" stroke="#000000" points="811.5,-112.5 811.5,-131.5 952.5,-131.5 952.5,-112.5 811.5,-112.5"/>
<text text-anchor="middle" x="882" y="-119.5" font-family="Helvetica,sans-Serif" font-size="10.00" fill="#000000">tic_tac_toe/BoardCell.hpp</text>
</a>
</g>
</g>
<!-- Node0&#45;&gt;Node6 -->
<g id="edge6" class="edge">
<title>Node0&#45;&gt;Node6</title>
<path fill="none" stroke="#191970" d="M519.7698,-173.6871C597.6025,-162.5811 724.0665,-144.5358 805.1053,-132.9722"/>
<polygon fill="#191970" stroke="#191970" points="805.8414,-136.4027 815.2467,-131.5251 804.8525,-129.4729 805.8414,-136.4027"/>
</g>
<!-- Node11 -->
<g id="node12" class="node">
<title>Node11</title>
<g id="a_node12"><a xlink:href="_human_player_8hpp.html" target="_top" xlink:title="penguin/HumanPlayer.hpp">
<polygon fill="none" stroke="#000000" points="378.5,-112.5 378.5,-131.5 523.5,-131.5 523.5,-112.5 378.5,-112.5"/>
<text text-anchor="middle" x="451" y="-119.5" font-family="Helvetica,sans-Serif" font-size="10.00" fill="#000000">penguin/HumanPlayer.hpp</text>
</a>
</g>
</g>
<!-- Node0&#45;&gt;Node11 -->
<g id="edge11" class="edge">
<title>Node0&#45;&gt;Node11</title>
<path fill="none" stroke="#191970" d="M451,-168.2977C451,-160.3834 451,-150.6043 451,-142.0759"/>
<polygon fill="#191970" stroke="#191970" points="454.5001,-141.8469 451,-131.8469 447.5001,-141.847 454.5001,-141.8469"/>
</g>
<!-- Node13 -->
<g id="node14" class="node">
<title>Node13</title>
<g id="a_node14"><a xlink:href="_penguin_pawn_8hpp.html" target="_top" xlink:title="penguin/PenguinPawn.hpp">
<polygon fill="none" stroke="#000000" points="74,-112.5 74,-131.5 218,-131.5 218,-112.5 74,-112.5"/>
<text text-anchor="middle" x="146" y="-119.5" font-family="Helvetica,sans-Serif" font-size="10.00" fill="#000000">penguin/PenguinPawn.hpp</text>
</a>
</g>
</g>
<!-- Node0&#45;&gt;Node13 -->
<g id="edge14" class="edge">
<title>Node0&#45;&gt;Node13</title>
<path fill="none" stroke="#191970" d="M382.1717,-169.6215C328.1451,-158.7276 253.8258,-143.7419 203.0764,-133.5088"/>
<polygon fill="#191970" stroke="#191970" points="203.7483,-130.074 193.2537,-131.5282 202.3646,-136.9359 203.7483,-130.074"/>
</g>
<!-- Node14 -->
<g id="node15" class="node">
<title>Node14</title>
<g id="a_node15"><a xlink:href="penguin_2_board_cell_8hpp.html" target="_top" xlink:title="penguin/BoardCell.hpp">
<polygon fill="none" stroke="#000000" points="666.5,-112.5 666.5,-131.5 793.5,-131.5 793.5,-112.5 666.5,-112.5"/>
<text text-anchor="middle" x="730" y="-119.5" font-family="Helvetica,sans-Serif" font-size="10.00" fill="#000000">penguin/BoardCell.hpp</text>
</a>
</g>
</g>
<!-- Node0&#45;&gt;Node14 -->
<g id="edge16" class="edge">
<title>Node0&#45;&gt;Node14</title>
<path fill="none" stroke="#191970" d="M519.2511,-168.4554C567.8447,-157.7439 632.2053,-143.5569 676.9618,-133.6912"/>
<polygon fill="#191970" stroke="#191970" points="677.7528,-137.101 686.7649,-131.5303 676.2459,-130.2651 677.7528,-137.101"/>
</g>
<!-- Node15 -->
<g id="node16" class="node">
<title>Node15</title>
<g id="a_node16"><a xlink:href="_abstract_board_8hpp.html" target="_top" xlink:title="AbstractBoard.hpp">
<polygon fill="none" stroke="#000000" points="541.5,-112.5 541.5,-131.5 648.5,-131.5 648.5,-112.5 541.5,-112.5"/>
<text text-anchor="middle" x="595" y="-119.5" font-family="Helvetica,sans-Serif" font-size="10.00" fill="#000000">AbstractBoard.hpp</text>
</a>
</g>
</g>
<!-- Node0&#45;&gt;Node15 -->
<g id="edge19" class="edge">
<title>Node0&#45;&gt;Node15</title>
<path fill="none" stroke="#191970" d="M486.2264,-168.4554C509.8316,-158.374 540.6454,-145.2139 563.4476,-135.4755"/>
<polygon fill="#191970" stroke="#191970" points="564.8634,-138.6767 572.6851,-131.5303 562.114,-132.2393 564.8634,-138.6767"/>
</g>
<!-- Node3 -->
<g id="node4" class="node">
<title>Node3</title>
<polygon fill="none" stroke="#bfbfbf" points="268,-56.5 268,-75.5 328,-75.5 328,-56.5 268,-56.5"/>
<text text-anchor="middle" x="298" y="-63.5" font-family="Helvetica,sans-Serif" font-size="10.00" fill="#000000">iostream</text>
</g>
<!-- Node2&#45;&gt;Node3 -->
<g id="edge3" class="edge">
<title>Node2&#45;&gt;Node3</title>
<path fill="none" stroke="#191970" d="M298,-112.2455C298,-104.9382 298,-94.6944 298,-85.7046"/>
<polygon fill="#191970" stroke="#191970" points="301.5001,-85.6426 298,-75.6427 294.5001,-85.6427 301.5001,-85.6426"/>
</g>
<!-- Node4 -->
<g id="node5" class="node">
<title>Node4</title>
<g id="a_node5"><a xlink:href="_abstract_player_8hpp.html" target="_top" xlink:title="../AbstractPlayer.hpp">
<polygon fill="none" stroke="#000000" points="350.5,-56.5 350.5,-75.5 467.5,-75.5 467.5,-56.5 350.5,-56.5"/>
<text text-anchor="middle" x="409" y="-63.5" font-family="Helvetica,sans-Serif" font-size="10.00" fill="#000000">../AbstractPlayer.hpp</text>
</a>
</g>
</g>
<!-- Node2&#45;&gt;Node4 -->
<g id="edge4" class="edge">
<title>Node2&#45;&gt;Node4</title>
<path fill="none" stroke="#191970" d="M317.0816,-112.3733C334.7402,-103.4644 361.2053,-90.1127 381.2098,-80.0203"/>
<polygon fill="#191970" stroke="#191970" points="382.8158,-83.1303 390.1674,-75.5011 379.6628,-76.8806 382.8158,-83.1303"/>
</g>
<!-- Node5 -->
<g id="node6" class="node">
<title>Node5</title>
<g id="a_node6"><a xlink:href="_abstract_pawn_8hpp.html" target="_top" xlink:title="../AbstractPawn.hpp">
<polygon fill="none" stroke="#000000" points="113.5,-56.5 113.5,-75.5 226.5,-75.5 226.5,-56.5 113.5,-56.5"/>
<text text-anchor="middle" x="170" y="-63.5" font-family="Helvetica,sans-Serif" font-size="10.00" fill="#000000">../AbstractPawn.hpp</text>
</a>
</g>
</g>
<!-- Node2&#45;&gt;Node5 -->
<g id="edge5" class="edge">
<title>Node2&#45;&gt;Node5</title>
<path fill="none" stroke="#191970" d="M275.996,-112.3733C255.3565,-103.3435 224.2842,-89.7494 201.1111,-79.6111"/>
<polygon fill="#191970" stroke="#191970" points="202.2813,-76.3028 191.7169,-75.5011 199.4755,-82.7159 202.2813,-76.3028"/>
</g>
<!-- Node7 -->
<g id="node8" class="node">
<title>Node7</title>
<g id="a_node8"><a xlink:href="_position_8hpp.html" target="_top" xlink:title="../utils/Position.hpp">
<polygon fill="none" stroke="#000000" points="824,-56.5 824,-75.5 934,-75.5 934,-56.5 824,-56.5"/>
<text text-anchor="middle" x="879" y="-63.5" font-family="Helvetica,sans-Serif" font-size="10.00" fill="#000000">../utils/Position.hpp</text>
</a>
</g>
</g>
<!-- Node6&#45;&gt;Node7 -->
<g id="edge7" class="edge">
<title>Node6&#45;&gt;Node7</title>
<path fill="none" stroke="#191970" d="M881.4774,-112.2455C881.086,-104.9382 880.5372,-94.6944 880.0556,-85.7046"/>
<polygon fill="#191970" stroke="#191970" points="883.5466,-85.4411 879.5166,-75.6427 876.5566,-85.8156 883.5466,-85.4411"/>
</g>
<!-- Node10 -->
<g id="node11" class="node">
<title>Node10</title>
<g id="a_node11"><a xlink:href="_abstract_board_cell_8hpp.html" target="_top" xlink:title="../AbstractBoardCell.hpp">
<polygon fill="none" stroke="#000000" points="666,-56.5 666,-75.5 800,-75.5 800,-56.5 666,-56.5"/>
<text text-anchor="middle" x="733" y="-63.5" font-family="Helvetica,sans-Serif" font-size="10.00" fill="#000000">../AbstractBoardCell.hpp</text>
</a>
</g>
</g>
<!-- Node6&#45;&gt;Node10 -->
<g id="edge10" class="edge">
<title>Node6&#45;&gt;Node10</title>
<path fill="none" stroke="#191970" d="M856.386,-112.3733C831.9313,-103.1822 794.8946,-89.2624 767.7791,-79.0713"/>
<polygon fill="#191970" stroke="#191970" points="768.8719,-75.7431 758.2798,-75.5011 766.4091,-82.2956 768.8719,-75.7431"/>
</g>
<!-- Node8 -->
<g id="node9" class="node">
<title>Node8</title>
<polygon fill="none" stroke="#bfbfbf" points="806.5,-.5 806.5,-19.5 859.5,-19.5 859.5,-.5 806.5,-.5"/>
<text text-anchor="middle" x="833" y="-7.5" font-family="Helvetica,sans-Serif" font-size="10.00" fill="#000000">stdlib.h</text>
</g>
<!-- Node7&#45;&gt;Node8 -->
<g id="edge8" class="edge">
<title>Node7&#45;&gt;Node8</title>
<path fill="none" stroke="#191970" d="M870.9874,-56.2455C864.5232,-48.3761 855.2615,-37.101 847.5017,-27.6542"/>
<polygon fill="#191970" stroke="#191970" points="849.9727,-25.1484 840.9208,-19.6427 844.5636,-29.5916 849.9727,-25.1484"/>
</g>
<!-- Node9 -->
<g id="node10" class="node">
<title>Node9</title>
<polygon fill="none" stroke="#bfbfbf" points="877.5,-.5 877.5,-19.5 970.5,-19.5 970.5,-.5 877.5,-.5"/>
<text text-anchor="middle" x="924" y="-7.5" font-family="Helvetica,sans-Serif" font-size="10.00" fill="#000000">unordered_map</text>
</g>
<!-- Node7&#45;&gt;Node9 -->
<g id="edge9" class="edge">
<title>Node7&#45;&gt;Node9</title>
<path fill="none" stroke="#191970" d="M886.8384,-56.2455C893.162,-48.3761 902.2224,-37.101 909.8136,-27.6542"/>
<polygon fill="#191970" stroke="#191970" points="912.7158,-29.6302 916.2514,-19.6427 907.2592,-25.2454 912.7158,-29.6302"/>
</g>
<!-- Node11&#45;&gt;Node4 -->
<g id="edge13" class="edge">
<title>Node11&#45;&gt;Node4</title>
<path fill="none" stroke="#191970" d="M443.6842,-112.2455C437.7821,-104.3761 429.3258,-93.101 422.2406,-83.6542"/>
<polygon fill="#191970" stroke="#191970" points="425.0321,-81.5427 416.232,-75.6427 419.432,-85.7427 425.0321,-81.5427"/>
</g>
<!-- Node12 -->
<g id="node13" class="node">
<title>Node12</title>
<polygon fill="none" stroke="#bfbfbf" points="491.5,-56.5 491.5,-75.5 538.5,-75.5 538.5,-56.5 491.5,-56.5"/>
<text text-anchor="middle" x="515" y="-63.5" font-family="Helvetica,sans-Serif" font-size="10.00" fill="#000000">vector</text>
</g>
<!-- Node11&#45;&gt;Node12 -->
<g id="edge12" class="edge">
<title>Node11&#45;&gt;Node12</title>
<path fill="none" stroke="#191970" d="M462.1479,-112.2455C471.5087,-104.0549 485.0858,-92.1749 496.1349,-82.5069"/>
<polygon fill="#191970" stroke="#191970" points="498.7588,-84.8618 503.9798,-75.6427 494.1492,-79.5937 498.7588,-84.8618"/>
</g>
<!-- Node13&#45;&gt;Node5 -->
<g id="edge15" class="edge">
<title>Node13&#45;&gt;Node5</title>
<path fill="none" stroke="#191970" d="M150.1805,-112.2455C153.381,-104.7776 157.896,-94.2427 161.8084,-85.1137"/>
<polygon fill="#191970" stroke="#191970" points="165.1452,-86.2129 165.8674,-75.6427 158.7112,-83.4554 165.1452,-86.2129"/>
</g>
<!-- Node14&#45;&gt;Node7 -->
<g id="edge18" class="edge">
<title>Node14&#45;&gt;Node7</title>
<path fill="none" stroke="#191970" d="M755.614,-112.3733C780.0687,-103.1822 817.1054,-89.2624 844.2209,-79.0713"/>
<polygon fill="#191970" stroke="#191970" points="845.5909,-82.2956 853.7202,-75.5011 843.1281,-75.7431 845.5909,-82.2956"/>
</g>
<!-- Node14&#45;&gt;Node10 -->
<g id="edge17" class="edge">
<title>Node14&#45;&gt;Node10</title>
<path fill="none" stroke="#191970" d="M730.5226,-112.2455C730.914,-104.9382 731.4628,-94.6944 731.9444,-85.7046"/>
<polygon fill="#191970" stroke="#191970" points="735.4434,-85.8156 732.4834,-75.6427 728.4534,-85.4411 735.4434,-85.8156"/>
</g>
<!-- Node15&#45;&gt;Node12 -->
<g id="edge20" class="edge">
<title>Node15&#45;&gt;Node12</title>
<path fill="none" stroke="#191970" d="M581.0651,-112.2455C568.9053,-103.7337 551.0536,-91.2375 536.9715,-81.3801"/>
<polygon fill="#191970" stroke="#191970" points="538.9747,-78.51 528.7752,-75.6427 534.9605,-84.2447 538.9747,-78.51"/>
</g>
<!-- Node16 -->
<g id="node17" class="node">
<title>Node16</title>
<g id="a_node17"><a xlink:href="_history_8hpp.html" target="_top" xlink:title="History.hpp">
<polygon fill="none" stroke="#000000" points="559.5,-56.5 559.5,-75.5 630.5,-75.5 630.5,-56.5 559.5,-56.5"/>
<text text-anchor="middle" x="595" y="-63.5" font-family="Helvetica,sans-Serif" font-size="10.00" fill="#000000">History.hpp</text>
</a>
</g>
</g>
<!-- Node15&#45;&gt;Node16 -->
<g id="edge21" class="edge">
<title>Node15&#45;&gt;Node16</title>
<path fill="none" stroke="#191970" d="M595,-112.2455C595,-104.9382 595,-94.6944 595,-85.7046"/>
<polygon fill="#191970" stroke="#191970" points="598.5001,-85.6426 595,-75.6427 591.5001,-85.6427 598.5001,-85.6426"/>
</g>
<!-- Node17 -->
<g id="node18" class="node">
<title>Node17</title>
<polygon fill="none" stroke="#bfbfbf" points="531.5,-.5 531.5,-19.5 574.5,-19.5 574.5,-.5 531.5,-.5"/>
<text text-anchor="middle" x="553" y="-7.5" font-family="Helvetica,sans-Serif" font-size="10.00" fill="#000000">stack</text>
</g>
<!-- Node16&#45;&gt;Node17 -->
<g id="edge22" class="edge">
<title>Node16&#45;&gt;Node17</title>
<path fill="none" stroke="#191970" d="M587.6842,-56.2455C581.7821,-48.3761 573.3258,-37.101 566.2406,-27.6542"/>
<polygon fill="#191970" stroke="#191970" points="569.0321,-25.5427 560.232,-19.6427 563.432,-29.7427 569.0321,-25.5427"/>
</g>
<!-- Node18 -->
<g id="node19" class="node">
<title>Node18</title>
<g id="a_node19"><a xlink:href="_move_8hpp.html" target="_top" xlink:title="utils/Move.hpp">
<polygon fill="none" stroke="#000000" points="593,-.5 593,-19.5 681,-19.5 681,-.5 593,-.5"/>
<text text-anchor="middle" x="637" y="-7.5" font-family="Helvetica,sans-Serif" font-size="10.00" fill="#000000">utils/Move.hpp</text>
</a>
</g>
</g>
<!-- Node16&#45;&gt;Node18 -->
<g id="edge23" class="edge">
<title>Node16&#45;&gt;Node18</title>
<path fill="none" stroke="#191970" d="M602.3158,-56.2455C608.2179,-48.3761 616.6742,-37.101 623.7594,-27.6542"/>
<polygon fill="#191970" stroke="#191970" points="626.568,-29.7427 629.768,-19.6427 620.9679,-25.5427 626.568,-29.7427"/>
</g>
</g>
</svg>
        <g id="navigator" transform="translate(0 0)" fill="#404254">
                <rect fill="#f2f5e9" fill-opacity="0.5" stroke="#606060" stroke-width=".5" x="0" y="0" width="60" height="60"/>
                <use id="zoomplus" xlink:href="#zoomPlus" x="17" y="9" onmousedown="handleZoom(evt,'in')"/>
                <use id="zoomminus" xlink:href="#zoomMin" x="42" y="9" onmousedown="handleZoom(evt,'out')"/>
                <use id="reset" xlink:href="#resetDef" x="30" y="36" onmousedown="handleReset()"/>
                <g id="arrowUp" xlink:href="#dirArrow" transform="translate(30 24)" onmousedown="handlePan(0,-1)">
                  <use xlink:href="#rim" fill="#404040">
                        <set attributeName="fill" to="#808080" begin="arrowUp.mouseover" end="arrowUp.mouseout"/>
                  </use>
                  <path fill="none" stroke="white" stroke-width="1.5" d="M0,-3.0v7 M-2.5,-0.5L0,-3.0L2.5,-0.5"/>
                </g>
                <g id="arrowRight" xlink:href="#dirArrow" transform="rotate(90) translate(36 -43)" onmousedown="handlePan(1,0)">
                  <use xlink:href="#rim" fill="#404040">
                        <set attributeName="fill" to="#808080" begin="arrowRight.mouseover" end="arrowRight.mouseout"/>
                  </use>
                  <path fill="none" stroke="white" stroke-width="1.5" d="M0,-3.0v7 M-2.5,-0.5L0,-3.0L2.5,-0.5"/>
                </g>
                <g id="arrowDown" xlink:href="#dirArrow" transform="rotate(180) translate(-30 -48)" onmousedown="handlePan(0,1)">
                  <use xlink:href="#rim" fill="#404040">
                        <set attributeName="fill" to="#808080" begin="arrowDown.mouseover" end="arrowDown.mouseout"/>
                  </use>
                  <path fill="none" stroke="white" stroke-width="1.5" d="M0,-3.0v7 M-2.5,-0.5L0,-3.0L2.5,-0.5"/>
                </g>
                <g id="arrowLeft" xlink:href="#dirArrow" transform="rotate(270) translate(-36 17)" onmousedown="handlePan(-1,0)">
                  <use xlink:href="#rim" fill="#404040">
                        <set attributeName="fill" to="#808080" begin="arrowLeft.mouseover" end="arrowLeft.mouseout"/>
                  </use>
                  <path fill="none" stroke="white" stroke-width="1.5" d="M0,-3.0v7 M-2.5,-0.5L0,-3.0L2.5,-0.5"/>
                </g>
        </g>
        <svg viewBox="0 0 15 15" width="100%" height="30px" preserveAspectRatio="xMaxYMin meet">
         <g id="arrow_out" transform="scale(0.3 0.3)">
          <a xlink:href="_abstract_board_8cpp__incl_org.svg" target="_base">
           <rect id="button" ry="5" rx="5" y="6" x="6" height="38" width="38"
                fill="#f2f5e9" fill-opacity="0.5" stroke="#606060" stroke-width="1.0"/>
           <path id="arrow"
             d="M 11.500037,31.436501 C 11.940474,20.09759 22.043105,11.32322 32.158766,21.979434 L 37.068811,17.246167 C 37.068811,17.246167 37.088388,32 37.088388,32 L 22.160133,31.978069 C 22.160133,31.978069 26.997745,27.140456 26.997745,27.140456 C 18.528582,18.264221 13.291696,25.230495 11.500037,31.436501 z"
             style="fill:#404040;"/>
          </a>
         </g>
        </svg>
</svg>
