<?xml version="1.0" encoding="UTF-8" standalone="no"?>
<!DOCTYPE svg PUBLIC "-//W3C//DTD SVG 1.1//EN"
 "http://www.w3.org/Graphics/SVG/1.1/DTD/svg11.dtd">
<!-- Generated by graphviz version 2.40.1 (20161225.0304)
 -->
<!-- Title: /workspace/src/game_logic/History.hpp Pages: 1 -->
<svg width="158pt" height="95pt"
 viewBox="0.00 0.00 157.50 95.00" xmlns="http://www.w3.org/2000/svg" xmlns:xlink="http://www.w3.org/1999/xlink">
<g id="graph0" class="graph" transform="scale(1 1) rotate(0) translate(4 91)">
<title>/workspace/src/game_logic/History.hpp</title>
<!-- Node0 -->
<g id="node1" class="node">
<title>Node0</title>
<polygon fill="#bfbfbf" stroke="#000000" points="3.5,-56.5 3.5,-86.5 123.5,-86.5 123.5,-56.5 3.5,-56.5"/>
<text text-anchor="start" x="11.5" y="-74.5" font-family="Helvetica,sans-Serif" font-size="10.00" fill="#000000">/workspace/src/game</text>
<text text-anchor="middle" x="63.5" y="-63.5" font-family="Helvetica,sans-Serif" font-size="10.00" fill="#000000">_logic/History.hpp</text>
</g>
<!-- Node1 -->
<g id="node2" class="node">
<title>Node1</title>
<polygon fill="none" stroke="#bfbfbf" points="0,-.5 0,-19.5 43,-19.5 43,-.5 0,-.5"/>
<text text-anchor="middle" x="21.5" y="-7.5" font-family="Helvetica,sans-Serif" font-size="10.00" fill="#000000">stack</text>
</g>
<!-- Node0&#45;&gt;Node1 -->
<g id="edge1" class="edge">
<title>Node0&#45;&gt;Node1</title>
<path fill="none" stroke="#191970" d="M53.118,-56.2977C47.3487,-47.8498 40.1284,-37.2773 34.0447,-28.369"/>
<polygon fill="#191970" stroke="#191970" points="36.7547,-26.1311 28.2247,-19.8469 30.9741,-30.0788 36.7547,-26.1311"/>
</g>
<!-- Node2 -->
<g id="node3" class="node">
<title>Node2</title>
<g id="a_node3"><a xlink:href="_move_8hpp.html" target="_top" xlink:title="utils/Move.hpp">
<polygon fill="none" stroke="#000000" points="61.5,-.5 61.5,-19.5 149.5,-19.5 149.5,-.5 61.5,-.5"/>
<text text-anchor="middle" x="105.5" y="-7.5" font-family="Helvetica,sans-Serif" font-size="10.00" fill="#000000">utils/Move.hpp</text>
</a>
</g>
</g>
<!-- Node0&#45;&gt;Node2 -->
<g id="edge2" class="edge">
<title>Node0&#45;&gt;Node2</title>
<path fill="none" stroke="#191970" d="M73.882,-56.2977C79.6513,-47.8498 86.8716,-37.2773 92.9553,-28.369"/>
<polygon fill="#191970" stroke="#191970" points="96.0259,-30.0788 98.7753,-19.8469 90.2453,-26.1311 96.0259,-30.0788"/>
</g>
</g>
</svg>
