<?xml version="1.0" encoding="UTF-8" standalone="no"?>
<!DOCTYPE svg PUBLIC "-//W3C//DTD SVG 1.1//EN"
 "http://www.w3.org/Graphics/SVG/1.1/DTD/svg11.dtd">
<!-- Generated by graphviz version 2.40.1 (20161225.0304)
 -->
<!-- Title: /workspace/src/game_logic/penguin/HumanPlayer.cpp Pages: 1 -->
<svg width="633pt" height="263pt"
 viewBox="0.00 0.00 633.00 263.00" xmlns="http://www.w3.org/2000/svg" xmlns:xlink="http://www.w3.org/1999/xlink">
<g id="graph0" class="graph" transform="scale(1 1) rotate(0) translate(4 259)">
<title>/workspace/src/game_logic/penguin/HumanPlayer.cpp</title>
<!-- Node0 -->
<g id="node1" class="node">
<title>Node0</title>
<polygon fill="#bfbfbf" stroke="#000000" points="119.5,-224.5 119.5,-254.5 295.5,-254.5 295.5,-224.5 119.5,-224.5"/>
<text text-anchor="start" x="127.5" y="-242.5" font-family="Helvetica,sans-Serif" font-size="10.00" fill="#000000">/workspace/src/game</text>
<text text-anchor="middle" x="207.5" y="-231.5" font-family="Helvetica,sans-Serif" font-size="10.00" fill="#000000">_logic/penguin/HumanPlayer.cpp</text>
</g>
<!-- Node1 -->
<g id="node2" class="node">
<title>Node1</title>
<g id="a_node2"><a xlink:href="_abstract_player_8hpp.html" target="_top" xlink:title="../AbstractPlayer.hpp">
<polygon fill="none" stroke="#000000" points="0,-112.5 0,-131.5 117,-131.5 117,-112.5 0,-112.5"/>
<text text-anchor="middle" x="58.5" y="-119.5" font-family="Helvetica,sans-Serif" font-size="10.00" fill="#000000">../AbstractPlayer.hpp</text>
</a>
</g>
</g>
<!-- Node0&#45;&gt;Node1 -->
<g id="edge1" class="edge">
<title>Node0&#45;&gt;Node1</title>
<path fill="none" stroke="#191970" d="M145.7697,-224.446C124.1253,-216.5905 101.0998,-204.9564 84.5,-188 72.1425,-175.377 65.4704,-156.1794 61.9922,-141.7376"/>
<polygon fill="#191970" stroke="#191970" points="65.3885,-140.8793 59.9137,-131.8086 58.537,-142.3136 65.3885,-140.8793"/>
</g>
<!-- Node2 -->
<g id="node3" class="node">
<title>Node2</title>
<g id="a_node3"><a xlink:href="_penguin_pawn_8hpp.html" target="_top" xlink:title="PenguinPawn.hpp">
<polygon fill="none" stroke="#000000" points="418.5,-168.5 418.5,-187.5 520.5,-187.5 520.5,-168.5 418.5,-168.5"/>
<text text-anchor="middle" x="469.5" y="-175.5" font-family="Helvetica,sans-Serif" font-size="10.00" fill="#000000">PenguinPawn.hpp</text>
</a>
</g>
</g>
<!-- Node0&#45;&gt;Node2 -->
<g id="edge2" class="edge">
<title>Node0&#45;&gt;Node2</title>
<path fill="none" stroke="#191970" d="M271.5924,-224.4554C317.0334,-213.7889 377.1565,-199.6761 419.1627,-189.8158"/>
<polygon fill="#191970" stroke="#191970" points="419.9638,-193.223 428.8993,-187.5303 418.3641,-186.4082 419.9638,-193.223"/>
</g>
<!-- Node4 -->
<g id="node5" class="node">
<title>Node4</title>
<g id="a_node5"><a xlink:href="penguin_2_board_8hpp.html" target="_top" xlink:title="Board.hpp">
<polygon fill="none" stroke="#000000" points="236.5,-168.5 236.5,-187.5 302.5,-187.5 302.5,-168.5 236.5,-168.5"/>
<text text-anchor="middle" x="269.5" y="-175.5" font-family="Helvetica,sans-Serif" font-size="10.00" fill="#000000">Board.hpp</text>
</a>
</g>
</g>
<!-- Node0&#45;&gt;Node4 -->
<g id="edge4" class="edge">
<title>Node0&#45;&gt;Node4</title>
<path fill="none" stroke="#191970" d="M222.8258,-224.2977C231.7907,-215.4052 243.1288,-204.1586 252.3851,-194.9769"/>
<polygon fill="#191970" stroke="#191970" points="254.9382,-197.3742 259.573,-187.8469 250.0085,-192.4045 254.9382,-197.3742"/>
</g>
<!-- Node13 -->
<g id="node14" class="node">
<title>Node13</title>
<g id="a_node14"><a xlink:href="_human_player_8hpp.html" target="_top" xlink:title="HumanPlayer.hpp">
<polygon fill="none" stroke="#000000" points="94,-168.5 94,-187.5 197,-187.5 197,-168.5 94,-168.5"/>
<text text-anchor="middle" x="145.5" y="-175.5" font-family="Helvetica,sans-Serif" font-size="10.00" fill="#000000">HumanPlayer.hpp</text>
</a>
</g>
</g>
<!-- Node0&#45;&gt;Node13 -->
<g id="edge15" class="edge">
<title>Node0&#45;&gt;Node13</title>
<path fill="none" stroke="#191970" d="M192.1742,-224.2977C183.2093,-215.4052 171.8712,-204.1586 162.6149,-194.9769"/>
<polygon fill="#191970" stroke="#191970" points="164.9915,-192.4045 155.427,-187.8469 160.0618,-197.3742 164.9915,-192.4045"/>
</g>
<!-- Node3 -->
<g id="node4" class="node">
<title>Node3</title>
<g id="a_node4"><a xlink:href="_abstract_pawn_8hpp.html" target="_top" xlink:title="../AbstractPawn.hpp">
<polygon fill="none" stroke="#000000" points="512,-112.5 512,-131.5 625,-131.5 625,-112.5 512,-112.5"/>
<text text-anchor="middle" x="568.5" y="-119.5" font-family="Helvetica,sans-Serif" font-size="10.00" fill="#000000">../AbstractPawn.hpp</text>
</a>
</g>
</g>
<!-- Node2&#45;&gt;Node3 -->
<g id="edge3" class="edge">
<title>Node2&#45;&gt;Node3</title>
<path fill="none" stroke="#191970" d="M486.7445,-168.2455C502.0761,-159.5731 524.7199,-146.7645 542.2916,-136.825"/>
<polygon fill="#191970" stroke="#191970" points="544.4724,-139.6126 551.4531,-131.6427 541.0259,-133.5198 544.4724,-139.6126"/>
</g>
<!-- Node5 -->
<g id="node6" class="node">
<title>Node5</title>
<polygon fill="none" stroke="#bfbfbf" points="318,-56.5 318,-75.5 411,-75.5 411,-56.5 318,-56.5"/>
<text text-anchor="middle" x="364.5" y="-63.5" font-family="Helvetica,sans-Serif" font-size="10.00" fill="#000000">unordered_map</text>
</g>
<!-- Node4&#45;&gt;Node5 -->
<g id="edge5" class="edge">
<title>Node4&#45;&gt;Node5</title>
<path fill="none" stroke="#191970" d="M289.0633,-168.4898C303.7781,-160.495 323.5533,-147.8413 336.5,-132 347.6724,-118.3297 355.0601,-99.5461 359.4272,-85.5123"/>
<polygon fill="#191970" stroke="#191970" points="362.8001,-86.4471 362.1906,-75.8698 356.071,-84.5186 362.8001,-86.4471"/>
</g>
<!-- Node6 -->
<g id="node7" class="node">
<title>Node6</title>
<polygon fill="none" stroke="#bfbfbf" points="160,-56.5 160,-75.5 207,-75.5 207,-56.5 160,-56.5"/>
<text text-anchor="middle" x="183.5" y="-63.5" font-family="Helvetica,sans-Serif" font-size="10.00" fill="#000000">vector</text>
</g>
<!-- Node4&#45;&gt;Node6 -->
<g id="edge6" class="edge">
<title>Node4&#45;&gt;Node6</title>
<path fill="none" stroke="#191970" d="M248.4455,-168.4265C233.551,-160.6271 214.2182,-148.2514 202.5,-132 192.7051,-118.4159 187.9388,-99.8708 185.6317,-85.8972"/>
<polygon fill="#191970" stroke="#191970" points="189.0809,-85.2872 184.2595,-75.853 182.1453,-86.2347 189.0809,-85.2872"/>
</g>
<!-- Node7 -->
<g id="node8" class="node">
<title>Node7</title>
<g id="a_node8"><a xlink:href="_position_8hpp.html" target="_top" xlink:title="../utils/Position.hpp">
<polygon fill="none" stroke="#000000" points="383.5,-112.5 383.5,-131.5 493.5,-131.5 493.5,-112.5 383.5,-112.5"/>
<text text-anchor="middle" x="438.5" y="-119.5" font-family="Helvetica,sans-Serif" font-size="10.00" fill="#000000">../utils/Position.hpp</text>
</a>
</g>
</g>
<!-- Node4&#45;&gt;Node7 -->
<g id="edge7" class="edge">
<title>Node4&#45;&gt;Node7</title>
<path fill="none" stroke="#191970" d="M298.5521,-168.3733C326.6543,-159.0613 369.4054,-144.8953 400.2607,-134.671"/>
<polygon fill="#191970" stroke="#191970" points="401.4355,-137.969 409.827,-131.5011 399.2336,-131.3243 401.4355,-137.969"/>
</g>
<!-- Node9 -->
<g id="node10" class="node">
<title>Node9</title>
<g id="a_node10"><a xlink:href="_abstract_board_8hpp.html" target="_top" xlink:title="../AbstractBoard.hpp">
<polygon fill="none" stroke="#000000" points="211.5,-112.5 211.5,-131.5 327.5,-131.5 327.5,-112.5 211.5,-112.5"/>
<text text-anchor="middle" x="269.5" y="-119.5" font-family="Helvetica,sans-Serif" font-size="10.00" fill="#000000">../AbstractBoard.hpp</text>
</a>
</g>
</g>
<!-- Node4&#45;&gt;Node9 -->
<g id="edge10" class="edge">
<title>Node4&#45;&gt;Node9</title>
<path fill="none" stroke="#191970" d="M269.5,-168.2455C269.5,-160.9382 269.5,-150.6944 269.5,-141.7046"/>
<polygon fill="#191970" stroke="#191970" points="273.0001,-141.6426 269.5,-131.6427 266.0001,-141.6427 273.0001,-141.6426"/>
</g>
<!-- Node7&#45;&gt;Node5 -->
<g id="edge9" class="edge">
<title>Node7&#45;&gt;Node5</title>
<path fill="none" stroke="#191970" d="M425.6102,-112.2455C414.5746,-103.8943 398.4708,-91.7076 385.5647,-81.9408"/>
<polygon fill="#191970" stroke="#191970" points="387.3283,-78.8862 377.2421,-75.6427 383.1041,-84.4681 387.3283,-78.8862"/>
</g>
<!-- Node8 -->
<g id="node9" class="node">
<title>Node8</title>
<polygon fill="none" stroke="#bfbfbf" points="429,-56.5 429,-75.5 482,-75.5 482,-56.5 429,-56.5"/>
<text text-anchor="middle" x="455.5" y="-63.5" font-family="Helvetica,sans-Serif" font-size="10.00" fill="#000000">stdlib.h</text>
</g>
<!-- Node7&#45;&gt;Node8 -->
<g id="edge8" class="edge">
<title>Node7&#45;&gt;Node8</title>
<path fill="none" stroke="#191970" d="M441.4612,-112.2455C443.7038,-104.8579 446.8577,-94.4689 449.6081,-85.4087"/>
<polygon fill="#191970" stroke="#191970" points="453.017,-86.2282 452.5728,-75.6427 446.3188,-84.1948 453.017,-86.2282"/>
</g>
<!-- Node9&#45;&gt;Node6 -->
<g id="edge11" class="edge">
<title>Node9&#45;&gt;Node6</title>
<path fill="none" stroke="#191970" d="M254.5199,-112.2455C241.3249,-103.6534 221.8949,-91.0014 206.6921,-81.1018"/>
<polygon fill="#191970" stroke="#191970" points="208.5983,-78.1665 198.3084,-75.6427 204.7785,-84.0325 208.5983,-78.1665"/>
</g>
<!-- Node10 -->
<g id="node11" class="node">
<title>Node10</title>
<g id="a_node11"><a xlink:href="_history_8hpp.html" target="_top" xlink:title="History.hpp">
<polygon fill="none" stroke="#000000" points="229,-56.5 229,-75.5 300,-75.5 300,-56.5 229,-56.5"/>
<text text-anchor="middle" x="264.5" y="-63.5" font-family="Helvetica,sans-Serif" font-size="10.00" fill="#000000">History.hpp</text>
</a>
</g>
</g>
<!-- Node9&#45;&gt;Node10 -->
<g id="edge12" class="edge">
<title>Node9&#45;&gt;Node10</title>
<path fill="none" stroke="#191970" d="M268.6291,-112.2455C267.9766,-104.9382 267.062,-94.6944 266.2593,-85.7046"/>
<polygon fill="#191970" stroke="#191970" points="269.7365,-85.2918 265.361,-75.6427 262.7642,-85.9143 269.7365,-85.2918"/>
</g>
<!-- Node11 -->
<g id="node12" class="node">
<title>Node11</title>
<polygon fill="none" stroke="#bfbfbf" points="201,-.5 201,-19.5 244,-19.5 244,-.5 201,-.5"/>
<text text-anchor="middle" x="222.5" y="-7.5" font-family="Helvetica,sans-Serif" font-size="10.00" fill="#000000">stack</text>
</g>
<!-- Node10&#45;&gt;Node11 -->
<g id="edge13" class="edge">
<title>Node10&#45;&gt;Node11</title>
<path fill="none" stroke="#191970" d="M257.1842,-56.2455C251.2821,-48.3761 242.8258,-37.101 235.7406,-27.6542"/>
<polygon fill="#191970" stroke="#191970" points="238.5321,-25.5427 229.732,-19.6427 232.932,-29.7427 238.5321,-25.5427"/>
</g>
<!-- Node12 -->
<g id="node13" class="node">
<title>Node12</title>
<g id="a_node13"><a xlink:href="_move_8hpp.html" target="_top" xlink:title="utils/Move.hpp">
<polygon fill="none" stroke="#000000" points="262.5,-.5 262.5,-19.5 350.5,-19.5 350.5,-.5 262.5,-.5"/>
<text text-anchor="middle" x="306.5" y="-7.5" font-family="Helvetica,sans-Serif" font-size="10.00" fill="#000000">utils/Move.hpp</text>
</a>
</g>
</g>
<!-- Node10&#45;&gt;Node12 -->
<g id="edge14" class="edge">
<title>Node10&#45;&gt;Node12</title>
<path fill="none" stroke="#191970" d="M271.8158,-56.2455C277.7179,-48.3761 286.1742,-37.101 293.2594,-27.6542"/>
<polygon fill="#191970" stroke="#191970" points="296.068,-29.7427 299.268,-19.6427 290.4679,-25.5427 296.068,-29.7427"/>
</g>
<!-- Node13&#45;&gt;Node1 -->
<g id="edge17" class="edge">
<title>Node13&#45;&gt;Node1</title>
<path fill="none" stroke="#191970" d="M130.3458,-168.2455C116.9973,-159.6534 97.3414,-147.0014 81.9617,-137.1018"/>
<polygon fill="#191970" stroke="#191970" points="83.7836,-134.1121 73.4806,-131.6427 79.9949,-139.9982 83.7836,-134.1121"/>
</g>
<!-- Node13&#45;&gt;Node6 -->
<g id="edge16" class="edge">
<title>Node13&#45;&gt;Node6</title>
<path fill="none" stroke="#191970" d="M148.7399,-168.4509C154.9937,-150.0186 168.8342,-109.2254 177.039,-85.043"/>
<polygon fill="#191970" stroke="#191970" points="180.3697,-86.1192 180.2683,-75.5249 173.7409,-83.8701 180.3697,-86.1192"/>
</g>
</g>
</svg>
