<?xml version="1.0" encoding="UTF-8" standalone="no"?>
<!DOCTYPE svg PUBLIC "-//W3C//DTD SVG 1.1//EN"
 "http://www.w3.org/Graphics/SVG/1.1/DTD/svg11.dtd">
<!-- Generated by graphviz version 2.40.1 (20161225.0304)
 -->
<!-- Title: /workspace/src/mcts/MCTS.cpp Pages: 1 -->
<!--zoomable 285 -->
<svg id="main" version="1.1" xmlns="http://www.w3.org/2000/svg" xmlns:xlink="http://www.w3.org/1999/xlink" xml:space="preserve" onload="init(evt)">
<style type="text/css"><![CDATA[
.edge:hover path { stroke: red; }
.edge:hover polygon { stroke: red; fill: red; }
]]></style>
<script type="text/javascript"><![CDATA[
var edges = document.getElementsByTagName('g');
if (edges && edges.length) {
  for (var i=0;i<edges.length;i++) {
    if (edges[i].id.substr(0,4)=='edge') {
      edges[i].setAttribute('class','edge');
    }
  }
}
]]></script>
        <defs>
                <circle id="rim" cx="0" cy="0" r="7"/>
                <circle id="rim2" cx="0" cy="0" r="3.5"/>
                <g id="zoomPlus">
                        <use xlink:href="#rim" fill="#404040">
                                <set attributeName="fill" to="#808080" begin="zoomplus.mouseover" end="zoomplus.mouseout"/>
                        </use>
                        <path d="M-4,0h8M0,-4v8" fill="none" stroke="white" stroke-width="1.5" pointer-events="none"/>
                </g>
                <g id="zoomMin">
                        <use xlink:href="#rim" fill="#404040">
                                <set attributeName="fill" to="#808080" begin="zoomminus.mouseover" end="zoomminus.mouseout"/>
                        </use>
                        <path d="M-4,0h8" fill="none" stroke="white" stroke-width="1.5" pointer-events="none"/>
                </g>
                <g id="dirArrow">
                        <path fill="none" stroke="white" stroke-width="1.5" d="M0,-3.0v7 M-2.5,-0.5L0,-3.0L2.5,-0.5"/>
                </g>
               <g id="resetDef">
                       <use xlink:href="#rim2" fill="#404040">
                               <set attributeName="fill" to="#808080" begin="reset.mouseover" end="reset.mouseout"/>
                       </use>
               </g>
        </defs>

<script type="text/javascript">
var viewWidth = 1084;
var viewHeight = 285;
var sectionId = 'dynsection-0';
</script>
<script xlink:href="svgpan.js"/>
<svg id="graph" class="graph">
<g id="viewport">
<title>/workspace/src/mcts/MCTS.cpp</title>
<!-- Node0 -->
<g id="node1" class="node">
<title>Node0</title>
<polygon fill="#bfbfbf" stroke="#000000" points="408.5,-246.5 408.5,-276.5 524.5,-276.5 524.5,-246.5 408.5,-246.5"/>
<text text-anchor="start" x="416.5" y="-264.5" font-family="Helvetica,sans-Serif" font-size="10.00" fill="#000000">/workspace/src/mcts</text>
<text text-anchor="middle" x="466.5" y="-253.5" font-family="Helvetica,sans-Serif" font-size="10.00" fill="#000000">/MCTS.cpp</text>
</g>
<!-- Node1 -->
<g id="node2" class="node">
<title>Node1</title>
<polygon fill="none" stroke="#bfbfbf" points="229.5,-185 229.5,-204 285.5,-204 285.5,-185 229.5,-185"/>
<text text-anchor="middle" x="257.5" y="-192" font-family="Helvetica,sans-Serif" font-size="10.00" fill="#000000">assert.h</text>
</g>
<!-- Node0&#45;&gt;Node1 -->
<g id="edge1" class="edge">
<title>Node0&#45;&gt;Node1</title>
<path fill="none" stroke="#191970" d="M415.1053,-246.4393C381.961,-236.5327 338.0104,-223.0333 299.5,-210 297.1165,-209.1933 294.6641,-208.3428 292.1984,-207.4724"/>
<polygon fill="#191970" stroke="#191970" points="293.3343,-204.1615 282.7399,-204.0676 290.9634,-210.7478 293.3343,-204.1615"/>
</g>
<!-- Node2 -->
<g id="node3" class="node">
<title>Node2</title>
<g id="a_node3"><a xlink:href="_abstract_board_8hpp.html" target="_top" xlink:title="../game_logic/AbstractBoard.hpp">
<polygon fill="none" stroke="#000000" points="0,-118 0,-137 175,-137 175,-118 0,-118"/>
<text text-anchor="middle" x="87.5" y="-125" font-family="Helvetica,sans-Serif" font-size="10.00" fill="#000000">../game_logic/AbstractBoard.hpp</text>
</a>
</g>
</g>
<!-- Node0&#45;&gt;Node2 -->
<g id="edge2" class="edge">
<title>Node0&#45;&gt;Node2</title>
<path fill="none" stroke="#191970" d="M410.7036,-246.4601C384.3324,-237.9728 353.0986,-225.8532 327.5,-210 310.392,-199.405 312.1693,-188.6299 294.5,-179 269.5023,-165.3762 199.8656,-149.5407 148.2256,-139.0643"/>
<polygon fill="#191970" stroke="#191970" points="148.6495,-135.5796 138.1562,-137.0427 147.2716,-142.4426 148.6495,-135.5796"/>
</g>
<!-- Node7 -->
<g id="node8" class="node">
<title>Node7</title>
<g id="a_node8"><a xlink:href="tic__tac__toe_2_board_cell_8hpp.html" target="_top" xlink:title="../game_logic/tic_tac\l_toe/BoardCell.hpp">
<polygon fill="none" stroke="#000000" points="741,-179.5 741,-209.5 858,-209.5 858,-179.5 741,-179.5"/>
<text text-anchor="start" x="749" y="-197.5" font-family="Helvetica,sans-Serif" font-size="10.00" fill="#000000">../game_logic/tic_tac</text>
<text text-anchor="middle" x="799.5" y="-186.5" font-family="Helvetica,sans-Serif" font-size="10.00" fill="#000000">_toe/BoardCell.hpp</text>
</a>
</g>
</g>
<!-- Node0&#45;&gt;Node7 -->
<g id="edge7" class="edge">
<title>Node0&#45;&gt;Node7</title>
<path fill="none" stroke="#191970" d="M524.5067,-250.7827C576.0625,-241.131 653.7299,-226.2831 731.0094,-210.0663"/>
<polygon fill="#191970" stroke="#191970" points="731.8572,-213.4646 740.9209,-207.9783 730.4142,-206.615 731.8572,-213.4646"/>
</g>
<!-- Node12 -->
<g id="node13" class="node">
<title>Node12</title>
<g id="a_node13"><a xlink:href="_player_8hpp.html" target="_top" xlink:title="../game_logic/tic_tac\l_toe/Player.hpp">
<polygon fill="none" stroke="#000000" points="463,-179.5 463,-209.5 580,-209.5 580,-179.5 463,-179.5"/>
<text text-anchor="start" x="471" y="-197.5" font-family="Helvetica,sans-Serif" font-size="10.00" fill="#000000">../game_logic/tic_tac</text>
<text text-anchor="middle" x="521.5" y="-186.5" font-family="Helvetica,sans-Serif" font-size="10.00" fill="#000000">_toe/Player.hpp</text>
</a>
</g>
</g>
<!-- Node0&#45;&gt;Node12 -->
<g id="edge12" class="edge">
<title>Node0&#45;&gt;Node12</title>
<path fill="none" stroke="#191970" d="M478.9804,-246.2967C485.9421,-237.816 494.7564,-227.0785 502.5524,-217.5817"/>
<polygon fill="#191970" stroke="#191970" points="505.4293,-219.5932 509.069,-209.6432 500.0188,-215.1517 505.4293,-219.5932"/>
</g>
<!-- Node16 -->
<g id="node17" class="node">
<title>Node16</title>
<g id="a_node17"><a xlink:href="penguin_2_board_cell_8hpp.html" target="_top" xlink:title="../game_logic/penguin\l/BoardCell.hpp">
<polygon fill="none" stroke="#000000" points="876.5,-179.5 876.5,-209.5 1000.5,-209.5 1000.5,-179.5 876.5,-179.5"/>
<text text-anchor="start" x="884.5" y="-197.5" font-family="Helvetica,sans-Serif" font-size="10.00" fill="#000000">../game_logic/penguin</text>
<text text-anchor="middle" x="938.5" y="-186.5" font-family="Helvetica,sans-Serif" font-size="10.00" fill="#000000">/BoardCell.hpp</text>
</a>
</g>
</g>
<!-- Node0&#45;&gt;Node16 -->
<g id="edge16" class="edge">
<title>Node0&#45;&gt;Node16</title>
<path fill="none" stroke="#191970" d="M524.6899,-255.5585C600.7696,-247.4459 738.3534,-231.596 866.1542,-209.9663"/>
<polygon fill="#191970" stroke="#191970" points="866.8534,-213.3976 876.1214,-208.2641 865.6749,-206.4975 866.8534,-213.3976"/>
</g>
<!-- Node17 -->
<g id="node18" class="node">
<title>Node17</title>
<g id="a_node18"><a xlink:href="_human_player_8hpp.html" target="_top" xlink:title="../game_logic/penguin\l/HumanPlayer.hpp">
<polygon fill="none" stroke="#000000" points="193.5,-112.5 193.5,-142.5 317.5,-142.5 317.5,-112.5 193.5,-112.5"/>
<text text-anchor="start" x="201.5" y="-130.5" font-family="Helvetica,sans-Serif" font-size="10.00" fill="#000000">../game_logic/penguin</text>
<text text-anchor="middle" x="255.5" y="-119.5" font-family="Helvetica,sans-Serif" font-size="10.00" fill="#000000">/HumanPlayer.hpp</text>
</a>
</g>
</g>
<!-- Node0&#45;&gt;Node17 -->
<g id="edge19" class="edge">
<title>Node0&#45;&gt;Node17</title>
<path fill="none" stroke="#191970" d="M436.0849,-246.4899C416.9108,-236.71 391.8325,-223.3302 370.5,-210 350.5203,-197.5151 346.6368,-192.7421 327.5,-179 313.4709,-168.9257 297.8836,-157.7716 284.8098,-148.4273"/>
<polygon fill="#191970" stroke="#191970" points="286.7943,-145.5436 276.6231,-142.5776 282.7247,-151.2391 286.7943,-145.5436"/>
</g>
<!-- Node18 -->
<g id="node19" class="node">
<title>Node18</title>
<g id="a_node19"><a xlink:href="_penguin_pawn_8hpp.html" target="_top" xlink:title="../game_logic/penguin\l/PenguinPawn.hpp">
<polygon fill="none" stroke="#000000" points="598.5,-179.5 598.5,-209.5 722.5,-209.5 722.5,-179.5 598.5,-179.5"/>
<text text-anchor="start" x="606.5" y="-197.5" font-family="Helvetica,sans-Serif" font-size="10.00" fill="#000000">../game_logic/penguin</text>
<text text-anchor="middle" x="660.5" y="-186.5" font-family="Helvetica,sans-Serif" font-size="10.00" fill="#000000">/PenguinPawn.hpp</text>
</a>
</g>
</g>
<!-- Node0&#45;&gt;Node18 -->
<g id="edge22" class="edge">
<title>Node0&#45;&gt;Node18</title>
<path fill="none" stroke="#191970" d="M510.0374,-246.4639C538.7667,-236.5419 576.5953,-223.4774 607.1344,-212.9304"/>
<polygon fill="#191970" stroke="#191970" points="608.4631,-216.1744 616.7727,-209.6017 606.178,-209.5579 608.4631,-216.1744"/>
</g>
<!-- Node19 -->
<g id="node20" class="node">
<title>Node19</title>
<g id="a_node20"><a xlink:href="_m_c_t_s_8hpp.html" target="_top" xlink:title="MCTS.hpp">
<polygon fill="none" stroke="#000000" points="380,-185 380,-204 445,-204 445,-185 380,-185"/>
<text text-anchor="middle" x="412.5" y="-192" font-family="Helvetica,sans-Serif" font-size="10.00" fill="#000000">MCTS.hpp</text>
</a>
</g>
</g>
<!-- Node0&#45;&gt;Node19 -->
<g id="edge24" class="edge">
<title>Node0&#45;&gt;Node19</title>
<path fill="none" stroke="#191970" d="M454.2466,-246.2967C445.9965,-236.0605 435.0966,-222.5366 426.5034,-211.8746"/>
<polygon fill="#191970" stroke="#191970" points="429.2014,-209.6446 420.201,-204.055 423.7512,-214.0373 429.2014,-209.6446"/>
</g>
<!-- Node3 -->
<g id="node4" class="node">
<title>Node3</title>
<polygon fill="none" stroke="#bfbfbf" points="137,-.5 137,-19.5 184,-19.5 184,-.5 137,-.5"/>
<text text-anchor="middle" x="160.5" y="-7.5" font-family="Helvetica,sans-Serif" font-size="10.00" fill="#000000">vector</text>
</g>
<!-- Node2&#45;&gt;Node3 -->
<g id="edge3" class="edge">
<title>Node2&#45;&gt;Node3</title>
<path fill="none" stroke="#191970" d="M76.2089,-117.8485C61.0869,-103.7259 37.671,-76.8462 51.5,-56 56.0209,-49.1851 97.1038,-33.0459 127.5068,-21.8217"/>
<polygon fill="#191970" stroke="#191970" points="128.7549,-25.0921 136.9427,-18.3683 126.349,-18.5185 128.7549,-25.0921"/>
</g>
<!-- Node4 -->
<g id="node5" class="node">
<title>Node4</title>
<g id="a_node5"><a xlink:href="_history_8hpp.html" target="_top" xlink:title="History.hpp">
<polygon fill="none" stroke="#000000" points="61,-56.5 61,-75.5 132,-75.5 132,-56.5 61,-56.5"/>
<text text-anchor="middle" x="96.5" y="-63.5" font-family="Helvetica,sans-Serif" font-size="10.00" fill="#000000">History.hpp</text>
</a>
</g>
</g>
<!-- Node2&#45;&gt;Node4 -->
<g id="edge4" class="edge">
<title>Node2&#45;&gt;Node4</title>
<path fill="none" stroke="#191970" d="M88.9063,-117.8906C90.1538,-109.3657 92.0162,-96.6392 93.5844,-85.9235"/>
<polygon fill="#191970" stroke="#191970" points="97.089,-86.1463 95.0739,-75.7449 90.1627,-85.1326 97.089,-86.1463"/>
</g>
<!-- Node5 -->
<g id="node6" class="node">
<title>Node5</title>
<polygon fill="none" stroke="#bfbfbf" points="75,-.5 75,-19.5 118,-19.5 118,-.5 75,-.5"/>
<text text-anchor="middle" x="96.5" y="-7.5" font-family="Helvetica,sans-Serif" font-size="10.00" fill="#000000">stack</text>
</g>
<!-- Node4&#45;&gt;Node5 -->
<g id="edge5" class="edge">
<title>Node4&#45;&gt;Node5</title>
<path fill="none" stroke="#191970" d="M96.5,-56.2455C96.5,-48.9382 96.5,-38.6944 96.5,-29.7046"/>
<polygon fill="#191970" stroke="#191970" points="100.0001,-29.6426 96.5,-19.6427 93.0001,-29.6427 100.0001,-29.6426"/>
</g>
<!-- Node6 -->
<g id="node7" class="node">
<title>Node6</title>
<g id="a_node7"><a xlink:href="_move_8hpp.html" target="_top" xlink:title="utils/Move.hpp">
<polygon fill="none" stroke="#000000" points="368.5,-.5 368.5,-19.5 456.5,-19.5 456.5,-.5 368.5,-.5"/>
<text text-anchor="middle" x="412.5" y="-7.5" font-family="Helvetica,sans-Serif" font-size="10.00" fill="#000000">utils/Move.hpp</text>
</a>
</g>
</g>
<!-- Node4&#45;&gt;Node6 -->
<g id="edge6" class="edge">
<title>Node4&#45;&gt;Node6</title>
<path fill="none" stroke="#191970" d="M132.135,-59.6849C187.2919,-49.9103 293.7114,-31.0511 358.3967,-19.5879"/>
<polygon fill="#191970" stroke="#191970" points="359.1699,-23.0055 368.4057,-17.8142 357.9484,-16.1129 359.1699,-23.0055"/>
</g>
<!-- Node8 -->
<g id="node9" class="node">
<title>Node8</title>
<g id="a_node9"><a xlink:href="_position_8hpp.html" target="_top" xlink:title="../utils/Position.hpp">
<polygon fill="none" stroke="#000000" points="883.5,-118 883.5,-137 993.5,-137 993.5,-118 883.5,-118"/>
<text text-anchor="middle" x="938.5" y="-125" font-family="Helvetica,sans-Serif" font-size="10.00" fill="#000000">../utils/Position.hpp</text>
</a>
</g>
</g>
<!-- Node7&#45;&gt;Node8 -->
<g id="edge8" class="edge">
<title>Node7&#45;&gt;Node8</title>
<path fill="none" stroke="#191970" d="M830.6943,-179.4639C854.2268,-168.1209 886.2802,-152.6707 909.3094,-141.5703"/>
<polygon fill="#191970" stroke="#191970" points="911.087,-144.5989 918.5754,-137.1039 908.0476,-138.2932 911.087,-144.5989"/>
</g>
<!-- Node11 -->
<g id="node12" class="node">
<title>Node11</title>
<g id="a_node12"><a xlink:href="_abstract_board_cell_8hpp.html" target="_top" xlink:title="../AbstractBoardCell.hpp">
<polygon fill="none" stroke="#000000" points="758.5,-56.5 758.5,-75.5 892.5,-75.5 892.5,-56.5 758.5,-56.5"/>
<text text-anchor="middle" x="825.5" y="-63.5" font-family="Helvetica,sans-Serif" font-size="10.00" fill="#000000">../AbstractBoardCell.hpp</text>
</a>
</g>
</g>
<!-- Node7&#45;&gt;Node11 -->
<g id="edge11" class="edge">
<title>Node7&#45;&gt;Node11</title>
<path fill="none" stroke="#191970" d="M802.5846,-179.2548C807.2951,-155.9744 816.2815,-111.5607 821.4914,-85.8117"/>
<polygon fill="#191970" stroke="#191970" points="824.9774,-86.2313 823.5301,-75.7358 818.1164,-84.843 824.9774,-86.2313"/>
</g>
<!-- Node9 -->
<g id="node10" class="node">
<title>Node9</title>
<polygon fill="none" stroke="#bfbfbf" points="912,-56.5 912,-75.5 965,-75.5 965,-56.5 912,-56.5"/>
<text text-anchor="middle" x="938.5" y="-63.5" font-family="Helvetica,sans-Serif" font-size="10.00" fill="#000000">stdlib.h</text>
</g>
<!-- Node8&#45;&gt;Node9 -->
<g id="edge9" class="edge">
<title>Node8&#45;&gt;Node9</title>
<path fill="none" stroke="#191970" d="M938.5,-117.8906C938.5,-109.3657 938.5,-96.6392 938.5,-85.9235"/>
<polygon fill="#191970" stroke="#191970" points="942.0001,-85.7448 938.5,-75.7449 935.0001,-85.7449 942.0001,-85.7448"/>
</g>
<!-- Node10 -->
<g id="node11" class="node">
<title>Node10</title>
<polygon fill="none" stroke="#bfbfbf" points="983,-56.5 983,-75.5 1076,-75.5 1076,-56.5 983,-56.5"/>
<text text-anchor="middle" x="1029.5" y="-63.5" font-family="Helvetica,sans-Serif" font-size="10.00" fill="#000000">unordered_map</text>
</g>
<!-- Node8&#45;&gt;Node10 -->
<g id="edge10" class="edge">
<title>Node8&#45;&gt;Node10</title>
<path fill="none" stroke="#191970" d="M952.7188,-117.8906C967.1434,-108.1421 989.6976,-92.8994 1006.636,-81.4521"/>
<polygon fill="#191970" stroke="#191970" points="1009.0556,-84.0412 1015.3811,-75.5419 1005.1359,-78.2415 1009.0556,-84.0412"/>
</g>
<!-- Node13 -->
<g id="node14" class="node">
<title>Node13</title>
<polygon fill="none" stroke="#bfbfbf" points="525.5,-118 525.5,-137 585.5,-137 585.5,-118 525.5,-118"/>
<text text-anchor="middle" x="555.5" y="-125" font-family="Helvetica,sans-Serif" font-size="10.00" fill="#000000">iostream</text>
</g>
<!-- Node12&#45;&gt;Node13 -->
<g id="edge13" class="edge">
<title>Node12&#45;&gt;Node13</title>
<path fill="none" stroke="#191970" d="M529.2151,-179.2967C534.2039,-169.4658 540.7315,-156.6026 546.0336,-146.1545"/>
<polygon fill="#191970" stroke="#191970" points="549.247,-147.5563 550.6512,-137.055 543.0047,-144.3886 549.247,-147.5563"/>
</g>
<!-- Node14 -->
<g id="node15" class="node">
<title>Node14</title>
<g id="a_node15"><a xlink:href="_abstract_player_8hpp.html" target="_top" xlink:title="../AbstractPlayer.hpp">
<polygon fill="none" stroke="#000000" points="189,-56.5 189,-75.5 306,-75.5 306,-56.5 189,-56.5"/>
<text text-anchor="middle" x="247.5" y="-63.5" font-family="Helvetica,sans-Serif" font-size="10.00" fill="#000000">../AbstractPlayer.hpp</text>
</a>
</g>
</g>
<!-- Node12&#45;&gt;Node14 -->
<g id="edge14" class="edge">
<title>Node12&#45;&gt;Node14</title>
<path fill="none" stroke="#191970" d="M489.263,-179.3816C435.7047,-154.2639 329.1605,-104.297 277.2766,-79.9646"/>
<polygon fill="#191970" stroke="#191970" points="278.4949,-76.6702 267.9549,-75.5929 275.5226,-83.0078 278.4949,-76.6702"/>
</g>
<!-- Node15 -->
<g id="node16" class="node">
<title>Node15</title>
<g id="a_node16"><a xlink:href="_abstract_pawn_8hpp.html" target="_top" xlink:title="../AbstractPawn.hpp">
<polygon fill="none" stroke="#000000" points="604,-118 604,-137 717,-137 717,-118 604,-118"/>
<text text-anchor="middle" x="660.5" y="-125" font-family="Helvetica,sans-Serif" font-size="10.00" fill="#000000">../AbstractPawn.hpp</text>
</a>
</g>
</g>
<!-- Node12&#45;&gt;Node15 -->
<g id="edge15" class="edge">
<title>Node12&#45;&gt;Node15</title>
<path fill="none" stroke="#191970" d="M552.6943,-179.4639C576.2268,-168.1209 608.2802,-152.6707 631.3094,-141.5703"/>
<polygon fill="#191970" stroke="#191970" points="633.087,-144.5989 640.5754,-137.1039 630.0476,-138.2932 633.087,-144.5989"/>
</g>
<!-- Node16&#45;&gt;Node8 -->
<g id="edge18" class="edge">
<title>Node16&#45;&gt;Node8</title>
<path fill="none" stroke="#191970" d="M938.5,-179.2967C938.5,-169.7699 938.5,-157.3954 938.5,-147.1306"/>
<polygon fill="#191970" stroke="#191970" points="942.0001,-147.0549 938.5,-137.055 935.0001,-147.055 942.0001,-147.0549"/>
</g>
<!-- Node16&#45;&gt;Node11 -->
<g id="edge17" class="edge">
<title>Node16&#45;&gt;Node11</title>
<path fill="none" stroke="#191970" d="M916.2351,-179.3943C903.1742,-169.8808 886.8635,-156.8162 874.5,-143 858.3995,-125.0078 844.1058,-101.1544 835.1721,-84.7915"/>
<polygon fill="#191970" stroke="#191970" points="838.1185,-82.8775 830.334,-75.6906 831.9376,-86.1634 838.1185,-82.8775"/>
</g>
<!-- Node17&#45;&gt;Node3 -->
<g id="edge20" class="edge">
<title>Node17&#45;&gt;Node3</title>
<path fill="none" stroke="#191970" d="M223.4534,-112.4453C208.1349,-103.7629 190.7336,-91.4795 179.5,-76 169.6637,-62.4458 164.9014,-43.8978 162.6064,-29.9155"/>
<polygon fill="#191970" stroke="#191970" points="166.0555,-29.3033 161.2449,-19.8635 159.1188,-30.2428 166.0555,-29.3033"/>
</g>
<!-- Node17&#45;&gt;Node14 -->
<g id="edge21" class="edge">
<title>Node17&#45;&gt;Node14</title>
<path fill="none" stroke="#191970" d="M253.5225,-112.2977C252.4814,-104.2945 251.1923,-94.3843 250.0742,-85.7889"/>
<polygon fill="#191970" stroke="#191970" points="253.5417,-85.3119 248.7809,-75.8469 246.6002,-86.2149 253.5417,-85.3119"/>
</g>
<!-- Node18&#45;&gt;Node15 -->
<g id="edge23" class="edge">
<title>Node18&#45;&gt;Node15</title>
<path fill="none" stroke="#191970" d="M660.5,-179.2967C660.5,-169.7699 660.5,-157.3954 660.5,-147.1306"/>
<polygon fill="#191970" stroke="#191970" points="664.0001,-147.0549 660.5,-137.055 657.0001,-147.055 664.0001,-147.0549"/>
</g>
<!-- Node20 -->
<g id="node21" class="node">
<title>Node20</title>
<g id="a_node21"><a xlink:href="_abstract_game_8hpp.html" target="_top" xlink:title="../game_logic/AbstractGame.hpp">
<polygon fill="none" stroke="#000000" points="324.5,-56.5 324.5,-75.5 500.5,-75.5 500.5,-56.5 324.5,-56.5"/>
<text text-anchor="middle" x="412.5" y="-63.5" font-family="Helvetica,sans-Serif" font-size="10.00" fill="#000000">../game_logic/AbstractGame.hpp</text>
</a>
</g>
</g>
<!-- Node19&#45;&gt;Node20 -->
<g id="edge25" class="edge">
<title>Node19&#45;&gt;Node20</title>
<path fill="none" stroke="#191970" d="M412.5,-184.8416C412.5,-163.9114 412.5,-114.004 412.5,-85.9762"/>
<polygon fill="#191970" stroke="#191970" points="416.0001,-85.7704 412.5,-75.7705 409.0001,-85.7705 416.0001,-85.7704"/>
</g>
<!-- Node21 -->
<g id="node22" class="node">
<title>Node21</title>
<g id="a_node22"><a xlink:href="_tree_8hpp.html" target="_top" xlink:title="Tree.hpp">
<polygon fill="none" stroke="#000000" points="449.5,-118 449.5,-137 507.5,-137 507.5,-118 449.5,-118"/>
<text text-anchor="middle" x="478.5" y="-125" font-family="Helvetica,sans-Serif" font-size="10.00" fill="#000000">Tree.hpp</text>
</a>
</g>
</g>
<!-- Node19&#45;&gt;Node21 -->
<g id="edge28" class="edge">
<title>Node19&#45;&gt;Node21</title>
<path fill="none" stroke="#191970" d="M421.9562,-184.9005C432.3463,-174.353 449.2338,-157.2096 461.8524,-144.3998"/>
<polygon fill="#191970" stroke="#191970" points="464.537,-146.6619 469.0614,-137.0817 459.5502,-141.7495 464.537,-146.6619"/>
</g>
<!-- Node20&#45;&gt;Node3 -->
<g id="edge26" class="edge">
<title>Node20&#45;&gt;Node3</title>
<path fill="none" stroke="#191970" d="M369.466,-56.4369C319.7775,-45.395 239.1015,-27.467 193.905,-17.4233"/>
<polygon fill="#191970" stroke="#191970" points="194.5417,-13.9795 184.0205,-15.2268 193.0231,-20.8128 194.5417,-13.9795"/>
</g>
<!-- Node20&#45;&gt;Node6 -->
<g id="edge27" class="edge">
<title>Node20&#45;&gt;Node6</title>
<path fill="none" stroke="#191970" d="M412.5,-56.2455C412.5,-48.9382 412.5,-38.6944 412.5,-29.7046"/>
<polygon fill="#191970" stroke="#191970" points="416.0001,-29.6426 412.5,-19.6427 409.0001,-29.6427 416.0001,-29.6426"/>
</g>
<!-- Node21&#45;&gt;Node6 -->
<g id="edge35" class="edge">
<title>Node21&#45;&gt;Node6</title>
<path fill="none" stroke="#191970" d="M500.8506,-117.9108C505.9539,-115.8537 511.3822,-113.769 516.5,-112 574.4194,-91.98 681.352,-103.3918 642.5,-56 620.7185,-29.4309 527.7256,-17.9019 466.8602,-13.1293"/>
<polygon fill="#191970" stroke="#191970" points="466.8719,-9.6206 456.6393,-12.3673 466.3514,-16.6012 466.8719,-9.6206"/>
</g>
<!-- Node21&#45;&gt;Node11 -->
<g id="edge34" class="edge">
<title>Node21&#45;&gt;Node11</title>
<path fill="none" stroke="#191970" d="M499.4921,-117.8927C504.9417,-115.6898 510.8654,-113.5445 516.5,-112 538.4278,-105.9894 664.204,-88.1169 748.3763,-76.5007"/>
<polygon fill="#191970" stroke="#191970" points="748.9964,-79.9484 758.4251,-75.1163 748.041,-73.0139 748.9964,-79.9484"/>
</g>
<!-- Node21&#45;&gt;Node14 -->
<g id="edge32" class="edge">
<title>Node21&#45;&gt;Node14</title>
<path fill="none" stroke="#191970" d="M449.2437,-119.711C409.8832,-109.2319 339.4769,-90.4874 293.1253,-78.147"/>
<polygon fill="#191970" stroke="#191970" points="293.8963,-74.7304 283.3324,-75.5398 292.0953,-81.4948 293.8963,-74.7304"/>
</g>
<!-- Node21&#45;&gt;Node20 -->
<g id="edge33" class="edge">
<title>Node21&#45;&gt;Node20</title>
<path fill="none" stroke="#191970" d="M468.1875,-117.8906C458.0758,-108.4683 442.4558,-93.9134 430.3293,-82.6137"/>
<polygon fill="#191970" stroke="#191970" points="432.6601,-80.0015 422.9579,-75.7449 427.888,-85.1228 432.6601,-80.0015"/>
</g>
<!-- Node22 -->
<g id="node23" class="node">
<title>Node22</title>
<polygon fill="none" stroke="#bfbfbf" points="690.5,-56.5 690.5,-75.5 740.5,-75.5 740.5,-56.5 690.5,-56.5"/>
<text text-anchor="middle" x="715.5" y="-63.5" font-family="Helvetica,sans-Serif" font-size="10.00" fill="#000000">chrono</text>
</g>
<!-- Node21&#45;&gt;Node22 -->
<g id="edge29" class="edge">
<title>Node21&#45;&gt;Node22</title>
<path fill="none" stroke="#191970" d="M500.3765,-117.8551C505.599,-115.7546 511.1979,-113.6652 516.5,-112 586.0401,-90.1604 605.6342,-93.0538 676.5,-76 677.7615,-75.6964 679.0451,-75.3843 680.3409,-75.0665"/>
<polygon fill="#191970" stroke="#191970" points="681.4988,-78.3848 690.3521,-72.565 679.8019,-71.5936 681.4988,-78.3848"/>
</g>
<!-- Node23 -->
<g id="node24" class="node">
<title>Node23</title>
<polygon fill="none" stroke="#bfbfbf" points="518,-56.5 518,-75.5 569,-75.5 569,-56.5 518,-56.5"/>
<text text-anchor="middle" x="543.5" y="-63.5" font-family="Helvetica,sans-Serif" font-size="10.00" fill="#000000">math.h</text>
</g>
<!-- Node21&#45;&gt;Node23 -->
<g id="edge30" class="edge">
<title>Node21&#45;&gt;Node23</title>
<path fill="none" stroke="#191970" d="M488.6563,-117.8906C498.5199,-108.5581 513.7055,-94.1902 525.5987,-82.9374"/>
<polygon fill="#191970" stroke="#191970" points="528.3421,-85.1601 533.2006,-75.7449 523.5311,-80.0753 528.3421,-85.1601"/>
</g>
<!-- Node24 -->
<g id="node25" class="node">
<title>Node24</title>
<polygon fill="none" stroke="#bfbfbf" points="587,-56.5 587,-75.5 634,-75.5 634,-56.5 587,-56.5"/>
<text text-anchor="middle" x="610.5" y="-63.5" font-family="Helvetica,sans-Serif" font-size="10.00" fill="#000000">queue</text>
</g>
<!-- Node21&#45;&gt;Node24 -->
<g id="edge31" class="edge">
<title>Node21&#45;&gt;Node24</title>
<path fill="none" stroke="#191970" d="M499.125,-117.8906C521.0173,-107.6908 555.8193,-91.4763 580.6927,-79.8875"/>
<polygon fill="#191970" stroke="#191970" points="582.4335,-82.9377 590.0198,-75.5419 579.4772,-76.5926 582.4335,-82.9377"/>
</g>
</g>
</svg>
        <g id="navigator" transform="translate(0 0)" fill="#404254">
                <rect fill="#f2f5e9" fill-opacity="0.5" stroke="#606060" stroke-width=".5" x="0" y="0" width="60" height="60"/>
                <use id="zoomplus" xlink:href="#zoomPlus" x="17" y="9" onmousedown="handleZoom(evt,'in')"/>
                <use id="zoomminus" xlink:href="#zoomMin" x="42" y="9" onmousedown="handleZoom(evt,'out')"/>
                <use id="reset" xlink:href="#resetDef" x="30" y="36" onmousedown="handleReset()"/>
                <g id="arrowUp" xlink:href="#dirArrow" transform="translate(30 24)" onmousedown="handlePan(0,-1)">
                  <use xlink:href="#rim" fill="#404040">
                        <set attributeName="fill" to="#808080" begin="arrowUp.mouseover" end="arrowUp.mouseout"/>
                  </use>
                  <path fill="none" stroke="white" stroke-width="1.5" d="M0,-3.0v7 M-2.5,-0.5L0,-3.0L2.5,-0.5"/>
                </g>
                <g id="arrowRight" xlink:href="#dirArrow" transform="rotate(90) translate(36 -43)" onmousedown="handlePan(1,0)">
                  <use xlink:href="#rim" fill="#404040">
                        <set attributeName="fill" to="#808080" begin="arrowRight.mouseover" end="arrowRight.mouseout"/>
                  </use>
                  <path fill="none" stroke="white" stroke-width="1.5" d="M0,-3.0v7 M-2.5,-0.5L0,-3.0L2.5,-0.5"/>
                </g>
                <g id="arrowDown" xlink:href="#dirArrow" transform="rotate(180) translate(-30 -48)" onmousedown="handlePan(0,1)">
                  <use xlink:href="#rim" fill="#404040">
                        <set attributeName="fill" to="#808080" begin="arrowDown.mouseover" end="arrowDown.mouseout"/>
                  </use>
                  <path fill="none" stroke="white" stroke-width="1.5" d="M0,-3.0v7 M-2.5,-0.5L0,-3.0L2.5,-0.5"/>
                </g>
                <g id="arrowLeft" xlink:href="#dirArrow" transform="rotate(270) translate(-36 17)" onmousedown="handlePan(-1,0)">
                  <use xlink:href="#rim" fill="#404040">
                        <set attributeName="fill" to="#808080" begin="arrowLeft.mouseover" end="arrowLeft.mouseout"/>
                  </use>
                  <path fill="none" stroke="white" stroke-width="1.5" d="M0,-3.0v7 M-2.5,-0.5L0,-3.0L2.5,-0.5"/>
                </g>
        </g>
        <svg viewBox="0 0 15 15" width="100%" height="30px" preserveAspectRatio="xMaxYMin meet">
         <g id="arrow_out" transform="scale(0.3 0.3)">
          <a xlink:href="_m_c_t_s_8cpp__incl_org.svg" target="_base">
           <rect id="button" ry="5" rx="5" y="6" x="6" height="38" width="38"
                fill="#f2f5e9" fill-opacity="0.5" stroke="#606060" stroke-width="1.0"/>
           <path id="arrow"
             d="M 11.500037,31.436501 C 11.940474,20.09759 22.043105,11.32322 32.158766,21.979434 L 37.068811,17.246167 C 37.068811,17.246167 37.088388,32 37.088388,32 L 22.160133,31.978069 C 22.160133,31.978069 26.997745,27.140456 26.997745,27.140456 C 18.528582,18.264221 13.291696,25.230495 11.500037,31.436501 z"
             style="fill:#404040;"/>
          </a>
         </g>
        </svg>
</svg>
