<?xml version="1.0" encoding="UTF-8" standalone="no"?>
<!DOCTYPE svg PUBLIC "-//W3C//DTD SVG 1.1//EN"
 "http://www.w3.org/Graphics/SVG/1.1/DTD/svg11.dtd">
<!-- Generated by graphviz version 2.40.1 (20161225.0304)
 -->
<!-- Title: /workspace/src/game_logic/utils/Position.hpp Pages: 1 -->
<!--zoomable 251 -->
<svg id="main" version="1.1" xmlns="http://www.w3.org/2000/svg" xmlns:xlink="http://www.w3.org/1999/xlink" xml:space="preserve" onload="init(evt)">
<style type="text/css"><![CDATA[
.edge:hover path { stroke: red; }
.edge:hover polygon { stroke: red; fill: red; }
]]></style>
<script type="text/javascript"><![CDATA[
var edges = document.getElementsByTagName('g');
if (edges && edges.length) {
  for (var i=0;i<edges.length;i++) {
    if (edges[i].id.substr(0,4)=='edge') {
      edges[i].setAttribute('class','edge');
    }
  }
}
]]></script>
        <defs>
                <circle id="rim" cx="0" cy="0" r="7"/>
                <circle id="rim2" cx="0" cy="0" r="3.5"/>
                <g id="zoomPlus">
                        <use xlink:href="#rim" fill="#404040">
                                <set attributeName="fill" to="#808080" begin="zoomplus.mouseover" end="zoomplus.mouseout"/>
                        </use>
                        <path d="M-4,0h8M0,-4v8" fill="none" stroke="white" stroke-width="1.5" pointer-events="none"/>
                </g>
                <g id="zoomMin">
                        <use xlink:href="#rim" fill="#404040">
                                <set attributeName="fill" to="#808080" begin="zoomminus.mouseover" end="zoomminus.mouseout"/>
                        </use>
                        <path d="M-4,0h8" fill="none" stroke="white" stroke-width="1.5" pointer-events="none"/>
                </g>
                <g id="dirArrow">
                        <path fill="none" stroke="white" stroke-width="1.5" d="M0,-3.0v7 M-2.5,-0.5L0,-3.0L2.5,-0.5"/>
                </g>
               <g id="resetDef">
                       <use xlink:href="#rim2" fill="#404040">
                               <set attributeName="fill" to="#808080" begin="reset.mouseover" end="reset.mouseout"/>
                       </use>
               </g>
        </defs>

<script type="text/javascript">
var viewWidth = 3364;
var viewHeight = 251;
var sectionId = 'dynsection-1';
</script>
<script xlink:href="svgpan.js"/>
<svg id="graph" class="graph">
<g id="viewport">
<title>/workspace/src/game_logic/utils/Position.hpp</title>
<!-- Node3 -->
<g id="node1" class="node">
<title>Node3</title>
<polygon fill="#bfbfbf" stroke="#000000" points="2294,-212.5 2294,-242.5 2426,-242.5 2426,-212.5 2294,-212.5"/>
<text text-anchor="start" x="2302" y="-230.5" font-family="Helvetica,sans-Serif" font-size="10.00" fill="#000000">/workspace/src/game</text>
<text text-anchor="middle" x="2360" y="-219.5" font-family="Helvetica,sans-Serif" font-size="10.00" fill="#000000">_logic/utils/Position.hpp</text>
</g>
<!-- Node4 -->
<g id="node2" class="node">
<title>Node4</title>
<g id="a_node2"><a xlink:href="tic__tac__toe_2_board_cell_8hpp.html" target="_top" xlink:title="/workspace/src/game\l_logic/tic_tac_toe/BoardCell.hpp">
<polygon fill="none" stroke="#000000" points="938.5,-145.5 938.5,-175.5 1111.5,-175.5 1111.5,-145.5 938.5,-145.5"/>
<text text-anchor="start" x="946.5" y="-163.5" font-family="Helvetica,sans-Serif" font-size="10.00" fill="#000000">/workspace/src/game</text>
<text text-anchor="middle" x="1025" y="-152.5" font-family="Helvetica,sans-Serif" font-size="10.00" fill="#000000">_logic/tic_tac_toe/BoardCell.hpp</text>
</a>
</g>
</g>
<!-- Node3&#45;&gt;Node4 -->
<g id="edge1" class="edge">
<title>Node3&#45;&gt;Node4</title>
<path fill="none" stroke="#191970" d="M2283.6375,-226.0128C2093.9609,-221.9272 1586.2027,-208.5922 1164,-176 1147.0534,-174.6918 1128.9816,-172.9401 1111.6672,-171.0853"/>
<polygon fill="#191970" stroke="#191970" points="2283.709,-229.5151 2293.7814,-226.229 2283.8583,-222.5167 2283.709,-229.5151"/>
</g>
<!-- Node17 -->
<g id="node15" class="node">
<title>Node17</title>
<g id="a_node15"><a xlink:href="penguin_2_board_cell_8hpp.html" target="_top" xlink:title="/workspace/src/game\l_logic/penguin/BoardCell.hpp">
<polygon fill="none" stroke="#000000" points="1173,-145.5 1173,-175.5 1331,-175.5 1331,-145.5 1173,-145.5"/>
<text text-anchor="start" x="1181" y="-163.5" font-family="Helvetica,sans-Serif" font-size="10.00" fill="#000000">/workspace/src/game</text>
<text text-anchor="middle" x="1252" y="-152.5" font-family="Helvetica,sans-Serif" font-size="10.00" fill="#000000">_logic/penguin/BoardCell.hpp</text>
</a>
</g>
</g>
<!-- Node3&#45;&gt;Node17 -->
<g id="edge14" class="edge">
<title>Node3&#45;&gt;Node17</title>
<path fill="none" stroke="#191970" d="M2283.3742,-222.8665C2081.3482,-210.6501 1535.7021,-177.6553 1331.0057,-165.2774"/>
<polygon fill="#191970" stroke="#191970" points="2283.4038,-226.3746 2293.5968,-223.4846 2283.8264,-219.3873 2283.4038,-226.3746"/>
</g>
<!-- Node21 -->
<g id="node19" class="node">
<title>Node21</title>
<g id="a_node19"><a xlink:href="conversions_8hpp.html" target="_top" xlink:title="/workspace/src/game\l_logic/utils/conversions.hpp">
<polygon fill="none" stroke="#000000" points="2284,-145.5 2284,-175.5 2436,-175.5 2436,-145.5 2284,-145.5"/>
<text text-anchor="start" x="2292" y="-163.5" font-family="Helvetica,sans-Serif" font-size="10.00" fill="#000000">/workspace/src/game</text>
<text text-anchor="middle" x="2360" y="-152.5" font-family="Helvetica,sans-Serif" font-size="10.00" fill="#000000">_logic/utils/conversions.hpp</text>
</a>
</g>
</g>
<!-- Node3&#45;&gt;Node21 -->
<g id="edge26" class="edge">
<title>Node3&#45;&gt;Node21</title>
<path fill="none" stroke="#191970" d="M2360,-202.0249C2360,-193.128 2360,-183.4287 2360,-175.6432"/>
<polygon fill="#191970" stroke="#191970" points="2356.5001,-202.2966 2360,-212.2967 2363.5001,-202.2967 2356.5001,-202.2966"/>
</g>
<!-- Node23 -->
<g id="node21" class="node">
<title>Node23</title>
<g id="a_node21"><a xlink:href="_print_hex_8hpp.html" target="_top" xlink:title="/workspace/src/game\l_logic/penguin/PrintHex.hpp">
<polygon fill="none" stroke="#000000" points="2612.5,-145.5 2612.5,-175.5 2765.5,-175.5 2765.5,-145.5 2612.5,-145.5"/>
<text text-anchor="start" x="2620.5" y="-163.5" font-family="Helvetica,sans-Serif" font-size="10.00" fill="#000000">/workspace/src/game</text>
<text text-anchor="middle" x="2689" y="-152.5" font-family="Helvetica,sans-Serif" font-size="10.00" fill="#000000">_logic/penguin/PrintHex.hpp</text>
</a>
</g>
</g>
<!-- Node3&#45;&gt;Node23 -->
<g id="edge30" class="edge">
<title>Node3&#45;&gt;Node23</title>
<path fill="none" stroke="#191970" d="M2436.0243,-212.0178C2489.903,-201.0456 2561.8081,-186.4023 2615.1848,-175.5323"/>
<polygon fill="#191970" stroke="#191970" points="2435.2827,-208.5969 2426.1823,-214.0221 2436.6796,-215.4562 2435.2827,-208.5969"/>
</g>
<!-- Node27 -->
<g id="node25" class="node">
<title>Node27</title>
<g id="a_node25"><a xlink:href="penguin_2_board_8hpp.html" target="_top" xlink:title="/workspace/src/game\l_logic/penguin/Board.hpp">
<polygon fill="none" stroke="#000000" points="2454,-145.5 2454,-175.5 2594,-175.5 2594,-145.5 2454,-145.5"/>
<text text-anchor="start" x="2462" y="-163.5" font-family="Helvetica,sans-Serif" font-size="10.00" fill="#000000">/workspace/src/game</text>
<text text-anchor="middle" x="2524" y="-152.5" font-family="Helvetica,sans-Serif" font-size="10.00" fill="#000000">_logic/penguin/Board.hpp</text>
</a>
</g>
</g>
<!-- Node3&#45;&gt;Node27 -->
<g id="edge37" class="edge">
<title>Node3&#45;&gt;Node27</title>
<path fill="none" stroke="#191970" d="M2406.288,-208.5897C2431.8374,-198.1518 2463.1354,-185.3654 2487.0347,-175.6017"/>
<polygon fill="#191970" stroke="#191970" points="2404.7384,-205.4419 2396.8048,-212.4639 2407.3858,-211.9219 2404.7384,-205.4419"/>
</g>
<!-- Node30 -->
<g id="node28" class="node">
<title>Node30</title>
<g id="a_node28"><a xlink:href="tic__tac__toe_2_board_8hpp.html" target="_top" xlink:title="/workspace/src/game\l_logic/tic_tac_toe/Board.hpp">
<polygon fill="none" stroke="#000000" points="1758,-145.5 1758,-175.5 1912,-175.5 1912,-145.5 1758,-145.5"/>
<text text-anchor="start" x="1766" y="-163.5" font-family="Helvetica,sans-Serif" font-size="10.00" fill="#000000">/workspace/src/game</text>
<text text-anchor="middle" x="1835" y="-152.5" font-family="Helvetica,sans-Serif" font-size="10.00" fill="#000000">_logic/tic_tac_toe/Board.hpp</text>
</a>
</g>
</g>
<!-- Node3&#45;&gt;Node30 -->
<g id="edge44" class="edge">
<title>Node3&#45;&gt;Node30</title>
<path fill="none" stroke="#191970" d="M2283.8101,-217.7767C2184.5195,-205.1054 2011.8355,-183.0676 1912.0992,-170.3393"/>
<polygon fill="#191970" stroke="#191970" points="2283.4117,-221.2542 2293.7744,-219.0484 2284.2979,-214.3105 2283.4117,-221.2542"/>
</g>
<!-- Node32 -->
<g id="node30" class="node">
<title>Node32</title>
<g id="a_node30"><a xlink:href="_position_8cpp.html" target="_top" xlink:title="/workspace/src/game\l_logic/utils/Position.cpp">
<polygon fill="none" stroke="#000000" points="2783.5,-145.5 2783.5,-175.5 2914.5,-175.5 2914.5,-145.5 2783.5,-145.5"/>
<text text-anchor="start" x="2791.5" y="-163.5" font-family="Helvetica,sans-Serif" font-size="10.00" fill="#000000">/workspace/src/game</text>
<text text-anchor="middle" x="2849" y="-152.5" font-family="Helvetica,sans-Serif" font-size="10.00" fill="#000000">_logic/utils/Position.cpp</text>
</a>
</g>
</g>
<!-- Node3&#45;&gt;Node32 -->
<g id="edge48" class="edge">
<title>Node3&#45;&gt;Node32</title>
<path fill="none" stroke="#191970" d="M2436.1633,-219.9654C2519.6084,-211.2646 2657.2688,-195.6002 2775,-176 2777.719,-175.5473 2780.4899,-175.0646 2783.2859,-174.5598"/>
<polygon fill="#191970" stroke="#191970" points="2435.5963,-216.5053 2426.0104,-221.0175 2436.3179,-223.468 2435.5963,-216.5053"/>
</g>
<!-- Node5 -->
<g id="node3" class="node">
<title>Node5</title>
<g id="a_node3"><a xlink:href="_abstract_board_8cpp.html" target="_top" xlink:title="/workspace/src/game\l_logic/AbstractBoard.cpp">
<polygon fill="none" stroke="#000000" points="363.5,-73 363.5,-103 500.5,-103 500.5,-73 363.5,-73"/>
<text text-anchor="start" x="371.5" y="-91" font-family="Helvetica,sans-Serif" font-size="10.00" fill="#000000">/workspace/src/game</text>
<text text-anchor="middle" x="432" y="-80" font-family="Helvetica,sans-Serif" font-size="10.00" fill="#000000">_logic/AbstractBoard.cpp</text>
</a>
</g>
</g>
<!-- Node4&#45;&gt;Node5 -->
<g id="edge2" class="edge">
<title>Node4&#45;&gt;Node5</title>
<path fill="none" stroke="#191970" d="M928.117,-155.5427C824.1057,-149.1218 654.3389,-135.4639 510,-109 501.3098,-107.4067 492.173,-105.3258 483.3356,-103.0938"/>
<polygon fill="#191970" stroke="#191970" points="928.0917,-159.0476 938.2855,-156.1603 928.5161,-152.0604 928.0917,-159.0476"/>
</g>
<!-- Node6 -->
<g id="node4" class="node">
<title>Node6</title>
<g id="a_node4"><a xlink:href="_abstract_game_8cpp.html" target="_top" xlink:title="/workspace/src/game\l_logic/AbstractGame.cpp">
<polygon fill="none" stroke="#000000" points="519,-73 519,-103 657,-103 657,-73 519,-73"/>
<text text-anchor="start" x="527" y="-91" font-family="Helvetica,sans-Serif" font-size="10.00" fill="#000000">/workspace/src/game</text>
<text text-anchor="middle" x="588" y="-80" font-family="Helvetica,sans-Serif" font-size="10.00" fill="#000000">_logic/AbstractGame.cpp</text>
</a>
</g>
</g>
<!-- Node4&#45;&gt;Node6 -->
<g id="edge3" class="edge">
<title>Node4&#45;&gt;Node6</title>
<path fill="none" stroke="#191970" d="M928.1311,-149.8129C855.5705,-141.0323 754.0619,-127.1022 666,-109 657.758,-107.3058 649.0948,-105.2521 640.6605,-103.1006"/>
<polygon fill="#191970" stroke="#191970" points="927.8274,-153.3015 938.1732,-151.0177 928.6613,-146.3514 927.8274,-153.3015"/>
</g>
<!-- Node7 -->
<g id="node5" class="node">
<title>Node7</title>
<g id="a_node5"><a xlink:href="_abstract_pawn_8cpp.html" target="_top" xlink:title="/workspace/src/game\l_logic/AbstractPawn.cpp">
<polygon fill="none" stroke="#000000" points="675,-73 675,-103 809,-103 809,-73 675,-73"/>
<text text-anchor="start" x="683" y="-91" font-family="Helvetica,sans-Serif" font-size="10.00" fill="#000000">/workspace/src/game</text>
<text text-anchor="middle" x="742" y="-80" font-family="Helvetica,sans-Serif" font-size="10.00" fill="#000000">_logic/AbstractPawn.cpp</text>
</a>
</g>
</g>
<!-- Node4&#45;&gt;Node7 -->
<g id="edge4" class="edge">
<title>Node4&#45;&gt;Node7</title>
<path fill="none" stroke="#191970" d="M952.953,-143.058C913.107,-133.2904 862.7435,-120.7455 818,-109 810.8502,-107.1231 803.3352,-105.1037 795.9271,-103.0853"/>
<polygon fill="#191970" stroke="#191970" points="952.3016,-146.5018 962.8469,-145.4793 953.9656,-139.7024 952.3016,-146.5018"/>
</g>
<!-- Node8 -->
<g id="node6" class="node">
<title>Node8</title>
<g id="a_node6"><a xlink:href="_history_8cpp.html" target="_top" xlink:title="/workspace/src/game\l_logic/History.cpp">
<polygon fill="none" stroke="#000000" points="827,-73 827,-103 947,-103 947,-73 827,-73"/>
<text text-anchor="start" x="835" y="-91" font-family="Helvetica,sans-Serif" font-size="10.00" fill="#000000">/workspace/src/game</text>
<text text-anchor="middle" x="887" y="-80" font-family="Helvetica,sans-Serif" font-size="10.00" fill="#000000">_logic/History.cpp</text>
</a>
</g>
</g>
<!-- Node4&#45;&gt;Node8 -->
<g id="edge5" class="edge">
<title>Node4&#45;&gt;Node8</title>
<path fill="none" stroke="#191970" d="M987.4057,-140.7494C964.755,-128.8495 936.3644,-113.9342 915.5571,-103.0028"/>
<polygon fill="#191970" stroke="#191970" points="985.9258,-143.9255 996.4063,-145.478 989.1815,-137.7286 985.9258,-143.9255"/>
</g>
<!-- Node9 -->
<g id="node7" class="node">
<title>Node9</title>
<g id="a_node7"><a xlink:href="tic__tac__toe_2_board_8cpp.html" target="_top" xlink:title="/workspace/src/game\l_logic/tic_tac_toe/Board.cpp">
<polygon fill="none" stroke="#000000" points="1505.5,-73 1505.5,-103 1658.5,-103 1658.5,-73 1505.5,-73"/>
<text text-anchor="start" x="1513.5" y="-91" font-family="Helvetica,sans-Serif" font-size="10.00" fill="#000000">/workspace/src/game</text>
<text text-anchor="middle" x="1582" y="-80" font-family="Helvetica,sans-Serif" font-size="10.00" fill="#000000">_logic/tic_tac_toe/Board.cpp</text>
</a>
</g>
</g>
<!-- Node4&#45;&gt;Node9 -->
<g id="edge6" class="edge">
<title>Node4&#45;&gt;Node9</title>
<path fill="none" stroke="#191970" d="M1121.9606,-149.6497C1136.0626,-148.0827 1150.4046,-146.4951 1164,-145 1311.5311,-128.7757 1349.8144,-134.6593 1496,-109 1505.3854,-107.3526 1515.2691,-105.2714 1524.8592,-103.0632"/>
<polygon fill="#191970" stroke="#191970" points="1121.3005,-146.2014 1111.7487,-150.7854 1122.0743,-153.1585 1121.3005,-146.2014"/>
</g>
<!-- Node10 -->
<g id="node8" class="node">
<title>Node10</title>
<g id="a_node8"><a xlink:href="tic__tac__toe_2_board_cell_8cpp.html" target="_top" xlink:title="/workspace/src/game\l_logic/tic_tac_toe/BoardCell.cpp">
<polygon fill="none" stroke="#000000" points="0,-73 0,-103 172,-103 172,-73 0,-73"/>
<text text-anchor="start" x="8" y="-91" font-family="Helvetica,sans-Serif" font-size="10.00" fill="#000000">/workspace/src/game</text>
<text text-anchor="middle" x="86" y="-80" font-family="Helvetica,sans-Serif" font-size="10.00" fill="#000000">_logic/tic_tac_toe/BoardCell.cpp</text>
</a>
</g>
</g>
<!-- Node4&#45;&gt;Node10 -->
<g id="edge7" class="edge">
<title>Node4&#45;&gt;Node10</title>
<path fill="none" stroke="#191970" d="M927.9673,-156.4944C737.8849,-148.3314 322.6822,-128.8576 181,-109 170.0433,-107.4644 158.4743,-105.3398 147.3236,-103.0282"/>
<polygon fill="#191970" stroke="#191970" points="928.087,-160.0026 938.2275,-156.9334 928.3863,-153.009 928.087,-160.0026"/>
</g>
<!-- Node11 -->
<g id="node9" class="node">
<title>Node11</title>
<g id="a_node9"><a xlink:href="tic__tac__toe_2_console_game_8cpp.html" target="_top" xlink:title="/workspace/src/game\l_logic/tic_tac_toe/Console\lGame.cpp">
<polygon fill="none" stroke="#000000" points="1676.5,-67.5 1676.5,-108.5 1819.5,-108.5 1819.5,-67.5 1676.5,-67.5"/>
<text text-anchor="start" x="1684.5" y="-96.5" font-family="Helvetica,sans-Serif" font-size="10.00" fill="#000000">/workspace/src/game</text>
<text text-anchor="start" x="1684.5" y="-85.5" font-family="Helvetica,sans-Serif" font-size="10.00" fill="#000000">_logic/tic_tac_toe/Console</text>
<text text-anchor="middle" x="1748" y="-74.5" font-family="Helvetica,sans-Serif" font-size="10.00" fill="#000000">Game.cpp</text>
</a>
</g>
</g>
<!-- Node4&#45;&gt;Node11 -->
<g id="edge8" class="edge">
<title>Node4&#45;&gt;Node11</title>
<path fill="none" stroke="#191970" d="M1121.9148,-149.1956C1136.0235,-147.6946 1150.3796,-146.2463 1164,-145 1387.1949,-124.5767 1445.8275,-145.2742 1667,-109 1670.0105,-108.5062 1673.0722,-107.9522 1676.1564,-107.351"/>
<polygon fill="#191970" stroke="#191970" points="1121.2671,-145.7451 1111.6994,-150.2958 1122.0167,-152.7048 1121.2671,-145.7451"/>
</g>
<!-- Node12 -->
<g id="node10" class="node">
<title>Node12</title>
<g id="a_node10"><a xlink:href="_player_8cpp.html" target="_top" xlink:title="/workspace/src/game\l_logic/tic_tac_toe/Player.cpp">
<polygon fill="none" stroke="#000000" points="190.5,-73 190.5,-103 345.5,-103 345.5,-73 190.5,-73"/>
<text text-anchor="start" x="198.5" y="-91" font-family="Helvetica,sans-Serif" font-size="10.00" fill="#000000">/workspace/src/game</text>
<text text-anchor="middle" x="268" y="-80" font-family="Helvetica,sans-Serif" font-size="10.00" fill="#000000">_logic/tic_tac_toe/Player.cpp</text>
</a>
</g>
</g>
<!-- Node4&#45;&gt;Node12 -->
<g id="edge9" class="edge">
<title>Node4&#45;&gt;Node12</title>
<path fill="none" stroke="#191970" d="M928.408,-158.0217C797.5088,-153.5414 556.8315,-141.3272 354,-109 344.1345,-107.4276 333.7346,-105.2999 323.7076,-103.0002"/>
<polygon fill="#191970" stroke="#191970" points="928.301,-161.52 938.4124,-158.3563 928.5351,-154.5239 928.301,-161.52"/>
</g>
<!-- Node13 -->
<g id="node11" class="node">
<title>Node13</title>
<g id="a_node11"><a xlink:href="_move_8cpp.html" target="_top" xlink:title="/workspace/src/game\l_logic/utils/Move.cpp">
<polygon fill="none" stroke="#000000" points="965,-73 965,-103 1085,-103 1085,-73 965,-73"/>
<text text-anchor="start" x="973" y="-91" font-family="Helvetica,sans-Serif" font-size="10.00" fill="#000000">/workspace/src/game</text>
<text text-anchor="middle" x="1025" y="-80" font-family="Helvetica,sans-Serif" font-size="10.00" fill="#000000">_logic/utils/Move.cpp</text>
</a>
</g>
</g>
<!-- Node4&#45;&gt;Node13 -->
<g id="edge10" class="edge">
<title>Node4&#45;&gt;Node13</title>
<path fill="none" stroke="#191970" d="M1025,-135.3409C1025,-124.5601 1025,-112.3309 1025,-103.0028"/>
<polygon fill="#191970" stroke="#191970" points="1021.5001,-135.4779 1025,-145.478 1028.5001,-135.478 1021.5001,-135.4779"/>
</g>
<!-- Node14 -->
<g id="node12" class="node">
<title>Node14</title>
<g id="a_node12"><a xlink:href="_m_c_t_s_8cpp.html" target="_top" xlink:title="/workspace/src/mcts\l/MCTS.cpp">
<polygon fill="none" stroke="#000000" points="1103,-73 1103,-103 1219,-103 1219,-73 1103,-73"/>
<text text-anchor="start" x="1111" y="-91" font-family="Helvetica,sans-Serif" font-size="10.00" fill="#000000">/workspace/src/mcts</text>
<text text-anchor="middle" x="1161" y="-80" font-family="Helvetica,sans-Serif" font-size="10.00" fill="#000000">/MCTS.cpp</text>
</a>
</g>
</g>
<!-- Node4&#45;&gt;Node14 -->
<g id="edge11" class="edge">
<title>Node4&#45;&gt;Node14</title>
<path fill="none" stroke="#191970" d="M1062.0494,-140.7494C1084.3719,-128.8495 1112.3511,-113.9342 1132.8568,-103.0028"/>
<polygon fill="#191970" stroke="#191970" points="1060.3572,-137.6851 1053.1793,-145.478 1063.6502,-143.8623 1060.3572,-137.6851"/>
</g>
<!-- Node15 -->
<g id="node13" class="node">
<title>Node15</title>
<g id="a_node13"><a xlink:href="_m_c_t_s_player_8cpp.html" target="_top" xlink:title="/workspace/src/mcts\l/MCTSPlayer.cpp">
<polygon fill="none" stroke="#000000" points="1237,-73 1237,-103 1353,-103 1353,-73 1237,-73"/>
<text text-anchor="start" x="1245" y="-91" font-family="Helvetica,sans-Serif" font-size="10.00" fill="#000000">/workspace/src/mcts</text>
<text text-anchor="middle" x="1295" y="-80" font-family="Helvetica,sans-Serif" font-size="10.00" fill="#000000">/MCTSPlayer.cpp</text>
</a>
</g>
</g>
<!-- Node4&#45;&gt;Node15 -->
<g id="edge12" class="edge">
<title>Node4&#45;&gt;Node15</title>
<path fill="none" stroke="#191970" d="M1098.0301,-143.0084C1136.7842,-133.4655 1185.1294,-121.1465 1228,-109 1234.5678,-107.1391 1241.4683,-105.0875 1248.2416,-103.0177"/>
<polygon fill="#191970" stroke="#191970" points="1096.7593,-139.7163 1087.8812,-145.4981 1098.4272,-146.5147 1096.7593,-139.7163"/>
</g>
<!-- Node16 -->
<g id="node14" class="node">
<title>Node16</title>
<g id="a_node14"><a xlink:href="_tree_8cpp.html" target="_top" xlink:title="/workspace/src/mcts\l/Tree.cpp">
<polygon fill="none" stroke="#000000" points="1371,-73 1371,-103 1487,-103 1487,-73 1371,-73"/>
<text text-anchor="start" x="1379" y="-91" font-family="Helvetica,sans-Serif" font-size="10.00" fill="#000000">/workspace/src/mcts</text>
<text text-anchor="middle" x="1429" y="-80" font-family="Helvetica,sans-Serif" font-size="10.00" fill="#000000">/Tree.cpp</text>
</a>
</g>
</g>
<!-- Node4&#45;&gt;Node16 -->
<g id="edge13" class="edge">
<title>Node4&#45;&gt;Node16</title>
<path fill="none" stroke="#191970" d="M1121.7996,-149.6742C1189.5609,-141.1322 1281.9289,-127.5531 1362,-109 1369.2439,-107.3215 1376.8398,-105.2506 1384.2086,-103.0696"/>
<polygon fill="#191970" stroke="#191970" points="1121.054,-146.2399 1111.5637,-150.9498 1121.9198,-153.1862 1121.054,-146.2399"/>
</g>
<!-- Node17&#45;&gt;Node5 -->
<g id="edge15" class="edge">
<title>Node17&#45;&gt;Node5</title>
<path fill="none" stroke="#191970" d="M1162.57,-149.2889C1148.3438,-147.7103 1133.7793,-146.2146 1120,-145 849.4661,-121.1536 778.0718,-152.5285 510,-109 500.8639,-107.5165 491.2542,-105.4021 482.0222,-103.0808"/>
<polygon fill="#191970" stroke="#191970" points="1162.5234,-152.8058 1172.853,-150.4502 1163.309,-145.85 1162.5234,-152.8058"/>
</g>
<!-- Node17&#45;&gt;Node6 -->
<g id="edge16" class="edge">
<title>Node17&#45;&gt;Node6</title>
<path fill="none" stroke="#191970" d="M1162.5472,-149.5334C1148.3239,-147.9232 1133.7664,-146.3536 1120,-145 918.5602,-125.1936 865.4569,-143.4563 666,-109 657.0175,-107.4483 647.5679,-105.3307 638.4675,-103.0347"/>
<polygon fill="#191970" stroke="#191970" points="1162.4955,-153.0503 1172.8287,-150.7106 1163.2918,-146.0957 1162.4955,-153.0503"/>
</g>
<!-- Node17&#45;&gt;Node7 -->
<g id="edge17" class="edge">
<title>Node17&#45;&gt;Node7</title>
<path fill="none" stroke="#191970" d="M1162.8513,-150.0058C1037.0701,-135.1875 822.2079,-109.8261 818,-109 809.6719,-107.3651 800.9199,-105.2903 792.4379,-103.0846"/>
<polygon fill="#191970" stroke="#191970" points="1162.5275,-153.4917 1172.8683,-151.1858 1163.3465,-146.5398 1162.5275,-153.4917"/>
</g>
<!-- Node17&#45;&gt;Node8 -->
<g id="edge18" class="edge">
<title>Node17&#45;&gt;Node8</title>
<path fill="none" stroke="#191970" d="M1162.8919,-147.9273C1103.829,-138.8766 1024.8315,-125.3963 956,-109 948.6915,-107.259 941.0186,-105.1806 933.5535,-103.0185"/>
<polygon fill="#191970" stroke="#191970" points="1162.5242,-151.4115 1172.9364,-149.4533 1163.5756,-144.4909 1162.5242,-151.4115"/>
</g>
<!-- Node17&#45;&gt;Node13 -->
<g id="edge22" class="edge">
<title>Node17&#45;&gt;Node13</title>
<path fill="none" stroke="#191970" d="M1195.0701,-142.3175C1157.0771,-130.1832 1107.722,-114.42 1071.9743,-103.0028"/>
<polygon fill="#191970" stroke="#191970" points="1194.3746,-145.7695 1204.9655,-145.478 1196.5044,-139.1014 1194.3746,-145.7695"/>
</g>
<!-- Node17&#45;&gt;Node14 -->
<g id="edge23" class="edge">
<title>Node17&#45;&gt;Node14</title>
<path fill="none" stroke="#191970" d="M1224.9928,-138.9833C1210.4546,-127.4007 1192.8811,-113.3998 1179.8311,-103.0028"/>
<polygon fill="#191970" stroke="#191970" points="1223.1425,-141.9841 1233.1447,-145.478 1227.5044,-136.5093 1223.1425,-141.9841"/>
</g>
<!-- Node17&#45;&gt;Node15 -->
<g id="edge24" class="edge">
<title>Node17&#45;&gt;Node15</title>
<path fill="none" stroke="#191970" d="M1266.1273,-136.6807C1272.7087,-125.5842 1280.3387,-112.7196 1286.1018,-103.0028"/>
<polygon fill="#191970" stroke="#191970" points="1263.0006,-135.0915 1260.9096,-145.478 1269.0213,-138.6624 1263.0006,-135.0915"/>
</g>
<!-- Node17&#45;&gt;Node16 -->
<g id="edge25" class="edge">
<title>Node17&#45;&gt;Node16</title>
<path fill="none" stroke="#191970" d="M1298.293,-141.5382C1327.6476,-129.5144 1365.0918,-114.1771 1392.3725,-103.0028"/>
<polygon fill="#191970" stroke="#191970" points="1296.6017,-138.4487 1288.6745,-145.478 1299.255,-144.9263 1296.6017,-138.4487"/>
</g>
<!-- Node18 -->
<g id="node16" class="node">
<title>Node18</title>
<g id="a_node16"><a xlink:href="penguin_2_board_8cpp.html" target="_top" xlink:title="/workspace/src/game\l_logic/penguin/Board.cpp">
<polygon fill="none" stroke="#000000" points="2372.5,-73 2372.5,-103 2511.5,-103 2511.5,-73 2372.5,-73"/>
<text text-anchor="start" x="2380.5" y="-91" font-family="Helvetica,sans-Serif" font-size="10.00" fill="#000000">/workspace/src/game</text>
<text text-anchor="middle" x="2442" y="-80" font-family="Helvetica,sans-Serif" font-size="10.00" fill="#000000">_logic/penguin/Board.cpp</text>
</a>
</g>
</g>
<!-- Node17&#45;&gt;Node18 -->
<g id="edge19" class="edge">
<title>Node17&#45;&gt;Node18</title>
<path fill="none" stroke="#191970" d="M1341.388,-157.4548C1587.4946,-148.9156 2263.4091,-124.3644 2363,-109 2372.3972,-107.5503 2382.2868,-105.4209 2391.7673,-103.067"/>
<polygon fill="#191970" stroke="#191970" points="1340.9249,-153.9686 1331.0521,-157.8128 1341.1673,-160.9644 1340.9249,-153.9686"/>
</g>
<!-- Node19 -->
<g id="node17" class="node">
<title>Node19</title>
<g id="a_node17"><a xlink:href="penguin_2_board_cell_8cpp.html" target="_top" xlink:title="/workspace/src/game\l_logic/penguin/BoardCell.cpp">
<polygon fill="none" stroke="#000000" points="2196,-73 2196,-103 2354,-103 2354,-73 2196,-73"/>
<text text-anchor="start" x="2204" y="-91" font-family="Helvetica,sans-Serif" font-size="10.00" fill="#000000">/workspace/src/game</text>
<text text-anchor="middle" x="2275" y="-80" font-family="Helvetica,sans-Serif" font-size="10.00" fill="#000000">_logic/penguin/BoardCell.cpp</text>
</a>
</g>
</g>
<!-- Node17&#45;&gt;Node19 -->
<g id="edge20" class="edge">
<title>Node17&#45;&gt;Node19</title>
<path fill="none" stroke="#191970" d="M1341.2617,-157.6266C1542.2874,-150.8234 2025.5143,-132.5215 2187,-109 2197.2582,-107.5058 2208.0762,-105.3863 2218.4834,-103.0631"/>
<polygon fill="#191970" stroke="#191970" points="1340.9116,-154.1363 1331.0351,-157.971 1341.1473,-161.1324 1340.9116,-154.1363"/>
</g>
<!-- Node20 -->
<g id="node18" class="node">
<title>Node20</title>
<g id="a_node18"><a xlink:href="_print_hex_8cpp.html" target="_top" xlink:title="/workspace/src/game\l_logic/penguin/PrintHex.cpp">
<polygon fill="none" stroke="#000000" points="2530,-73 2530,-103 2682,-103 2682,-73 2530,-73"/>
<text text-anchor="start" x="2538" y="-91" font-family="Helvetica,sans-Serif" font-size="10.00" fill="#000000">/workspace/src/game</text>
<text text-anchor="middle" x="2606" y="-80" font-family="Helvetica,sans-Serif" font-size="10.00" fill="#000000">_logic/penguin/PrintHex.cpp</text>
</a>
</g>
</g>
<!-- Node17&#45;&gt;Node20 -->
<g id="edge21" class="edge">
<title>Node17&#45;&gt;Node20</title>
<path fill="none" stroke="#191970" d="M1341.5166,-157.3627C1621.0846,-147.4992 2462.8139,-117.2819 2521,-109 2531.0828,-107.5649 2541.7101,-105.4425 2551.9063,-103.0909"/>
<polygon fill="#191970" stroke="#191970" points="1341.2825,-153.8687 1331.412,-157.7189 1341.5292,-160.8643 1341.2825,-153.8687"/>
</g>
<!-- Node21&#45;&gt;Node18 -->
<g id="edge27" class="edge">
<title>Node21&#45;&gt;Node18</title>
<path fill="none" stroke="#191970" d="M2384.7042,-138.6579C2397.7321,-127.1393 2413.3819,-113.3026 2425.0313,-103.0028"/>
<polygon fill="#191970" stroke="#191970" points="2382.1639,-136.232 2376.9905,-145.478 2386.8005,-141.4763 2382.1639,-136.232"/>
</g>
<!-- Node21&#45;&gt;Node20 -->
<g id="edge28" class="edge">
<title>Node21&#45;&gt;Node20</title>
<path fill="none" stroke="#191970" d="M2420.6464,-142.6266C2461.9565,-130.4518 2516.0245,-114.5172 2555.0939,-103.0028"/>
<polygon fill="#191970" stroke="#191970" points="2419.574,-139.2937 2410.9714,-145.478 2421.5529,-146.0082 2419.574,-139.2937"/>
</g>
<!-- Node22 -->
<g id="node20" class="node">
<title>Node22</title>
<g id="a_node20"><a xlink:href="conversions_8cpp.html" target="_top" xlink:title="/workspace/src/game\l_logic/utils/conversions.cpp">
<polygon fill="none" stroke="#000000" points="2026.5,-73 2026.5,-103 2177.5,-103 2177.5,-73 2026.5,-73"/>
<text text-anchor="start" x="2034.5" y="-91" font-family="Helvetica,sans-Serif" font-size="10.00" fill="#000000">/workspace/src/game</text>
<text text-anchor="middle" x="2102" y="-80" font-family="Helvetica,sans-Serif" font-size="10.00" fill="#000000">_logic/utils/conversions.cpp</text>
</a>
</g>
</g>
<!-- Node21&#45;&gt;Node22 -->
<g id="edge29" class="edge">
<title>Node21&#45;&gt;Node22</title>
<path fill="none" stroke="#191970" d="M2296.6692,-142.7036C2253.3093,-130.5191 2196.451,-114.5415 2155.3893,-103.0028"/>
<polygon fill="#191970" stroke="#191970" points="2295.9682,-146.1421 2306.5422,-145.478 2297.862,-139.4031 2295.9682,-146.1421"/>
</g>
<!-- Node23&#45;&gt;Node18 -->
<g id="edge31" class="edge">
<title>Node23&#45;&gt;Node18</title>
<path fill="none" stroke="#191970" d="M2628.107,-142.6266C2586.629,-130.4518 2532.3413,-114.5172 2493.113,-103.0028"/>
<polygon fill="#191970" stroke="#191970" points="2627.2405,-146.0198 2637.8214,-145.478 2629.212,-139.3032 2627.2405,-146.0198"/>
</g>
<!-- Node23&#45;&gt;Node20 -->
<g id="edge36" class="edge">
<title>Node23&#45;&gt;Node20</title>
<path fill="none" stroke="#191970" d="M2663.9945,-138.6579C2650.8077,-127.1393 2634.9671,-113.3026 2623.1756,-103.0028"/>
<polygon fill="#191970" stroke="#191970" points="2661.9684,-141.5353 2671.8023,-145.478 2666.5735,-136.2633 2661.9684,-141.5353"/>
</g>
<!-- Node24 -->
<g id="node22" class="node">
<title>Node24</title>
<g id="a_node22"><a xlink:href="penguin_2_console_game_8cpp.html" target="_top" xlink:title="/workspace/src/game\l_logic/penguin/ConsoleGame.cpp">
<polygon fill="none" stroke="#000000" points="3021.5,-.5 3021.5,-30.5 3200.5,-30.5 3200.5,-.5 3021.5,-.5"/>
<text text-anchor="start" x="3029.5" y="-18.5" font-family="Helvetica,sans-Serif" font-size="10.00" fill="#000000">/workspace/src/game</text>
<text text-anchor="middle" x="3111" y="-7.5" font-family="Helvetica,sans-Serif" font-size="10.00" fill="#000000">_logic/penguin/ConsoleGame.cpp</text>
</a>
</g>
</g>
<!-- Node23&#45;&gt;Node24 -->
<g id="edge32" class="edge">
<title>Node23&#45;&gt;Node24</title>
<path fill="none" stroke="#191970" d="M2775.9179,-145.1728C2867.4662,-136.4091 3071.1642,-164.2901 3121,-109 3140.3462,-87.5365 3128.1598,-51.056 3118.7962,-30.5847"/>
<polygon fill="#191970" stroke="#191970" points="2775.3713,-141.7128 2765.8481,-146.3562 2776.1883,-148.665 2775.3713,-141.7128"/>
</g>
<!-- Node25 -->
<g id="node23" class="node">
<title>Node25</title>
<g id="a_node23"><a xlink:href="penguin_2_console_game_8hpp.html" target="_top" xlink:title="/workspace/src/game\l_logic/penguin/ConsoleGame.hpp">
<polygon fill="none" stroke="#000000" points="3168.5,-73 3168.5,-103 3347.5,-103 3347.5,-73 3168.5,-73"/>
<text text-anchor="start" x="3176.5" y="-91" font-family="Helvetica,sans-Serif" font-size="10.00" fill="#000000">/workspace/src/game</text>
<text text-anchor="middle" x="3258" y="-80" font-family="Helvetica,sans-Serif" font-size="10.00" fill="#000000">_logic/penguin/ConsoleGame.hpp</text>
</a>
</g>
</g>
<!-- Node23&#45;&gt;Node25 -->
<g id="edge33" class="edge">
<title>Node23&#45;&gt;Node25</title>
<path fill="none" stroke="#191970" d="M2775.8002,-144.9696C2944.3488,-122.4101 2989.8089,-133.307 3154,-109 3165.2973,-107.3275 3177.2225,-105.2334 3188.8089,-103.02"/>
<polygon fill="#191970" stroke="#191970" points="2775.2814,-141.5079 2765.8433,-146.3218 2776.2234,-148.4442 2775.2814,-141.5079"/>
</g>
<!-- Node25&#45;&gt;Node24 -->
<g id="edge34" class="edge">
<title>Node25&#45;&gt;Node24</title>
<path fill="none" stroke="#191970" d="M3218.2753,-68.4079C3194.0949,-56.4822 3163.6823,-41.4828 3141.4195,-30.5028"/>
<polygon fill="#191970" stroke="#191970" points="3217.0248,-71.6936 3227.5415,-72.978 3220.1211,-65.4156 3217.0248,-71.6936"/>
</g>
<!-- Node26 -->
<g id="node24" class="node">
<title>Node26</title>
<g id="a_node24"><a xlink:href="main_8cpp.html" target="_top" xlink:title="/workspace/src/main.cpp">
<polygon fill="none" stroke="#000000" points="3218.5,-6 3218.5,-25 3355.5,-25 3355.5,-6 3218.5,-6"/>
<text text-anchor="middle" x="3287" y="-13" font-family="Helvetica,sans-Serif" font-size="10.00" fill="#000000">/workspace/src/main.cpp</text>
</a>
</g>
</g>
<!-- Node25&#45;&gt;Node26 -->
<g id="edge35" class="edge">
<title>Node25&#45;&gt;Node26</title>
<path fill="none" stroke="#191970" d="M3267.7699,-63.5753C3272.9905,-50.5238 3279.1298,-35.1754 3283.0417,-25.3957"/>
<polygon fill="#191970" stroke="#191970" points="3264.4731,-62.3933 3264.0088,-72.978 3270.9725,-64.9931 3264.4731,-62.3933"/>
</g>
<!-- Node27&#45;&gt;Node18 -->
<g id="edge38" class="edge">
<title>Node27&#45;&gt;Node18</title>
<path fill="none" stroke="#191970" d="M2499.2958,-138.6579C2486.2679,-127.1393 2470.6181,-113.3026 2458.9687,-103.0028"/>
<polygon fill="#191970" stroke="#191970" points="2497.1995,-141.4763 2507.0095,-145.478 2501.8361,-136.232 2497.1995,-141.4763"/>
</g>
<!-- Node27&#45;&gt;Node19 -->
<g id="edge39" class="edge">
<title>Node27&#45;&gt;Node19</title>
<path fill="none" stroke="#191970" d="M2462.614,-142.6266C2420.8001,-130.4518 2366.0728,-114.5172 2326.5269,-103.0028"/>
<polygon fill="#191970" stroke="#191970" points="2461.8273,-146.0428 2472.407,-145.478 2463.7842,-139.3219 2461.8273,-146.0428"/>
</g>
<!-- Node27&#45;&gt;Node20 -->
<g id="edge43" class="edge">
<title>Node27&#45;&gt;Node20</title>
<path fill="none" stroke="#191970" d="M2548.7042,-138.6579C2561.7321,-127.1393 2577.3819,-113.3026 2589.0313,-103.0028"/>
<polygon fill="#191970" stroke="#191970" points="2546.1639,-136.232 2540.9905,-145.478 2550.8005,-141.4763 2546.1639,-136.232"/>
</g>
<!-- Node27&#45;&gt;Node24 -->
<g id="edge40" class="edge">
<title>Node27&#45;&gt;Node24</title>
<path fill="none" stroke="#191970" d="M2604.3722,-145.093C2732.4374,-126.9728 2778.6588,-166.5154 2889,-109 2911.3225,-97.3644 2905.594,-80.2462 2927,-67 2955.3492,-49.4574 2989.7975,-37.7514 3021.187,-30.003"/>
<polygon fill="#191970" stroke="#191970" points="2603.5594,-141.6759 2594.1938,-146.6293 2604.6042,-148.5975 2603.5594,-141.6759"/>
</g>
<!-- Node28 -->
<g id="node26" class="node">
<title>Node28</title>
<g id="a_node26"><a xlink:href="_human_player_8cpp.html" target="_top" xlink:title="/workspace/src/game\l_logic/penguin/HumanPlayer.cpp">
<polygon fill="none" stroke="#000000" points="2936,-73 2936,-103 3112,-103 3112,-73 2936,-73"/>
<text text-anchor="start" x="2944" y="-91" font-family="Helvetica,sans-Serif" font-size="10.00" fill="#000000">/workspace/src/game</text>
<text text-anchor="middle" x="3024" y="-80" font-family="Helvetica,sans-Serif" font-size="10.00" fill="#000000">_logic/penguin/HumanPlayer.cpp</text>
</a>
</g>
</g>
<!-- Node27&#45;&gt;Node28 -->
<g id="edge41" class="edge">
<title>Node27&#45;&gt;Node28</title>
<path fill="none" stroke="#191970" d="M2604.1515,-145.0659C2746.3066,-123.7958 2784.6881,-130.8616 2922,-109 2932.8022,-107.2802 2944.1955,-105.2004 2955.2971,-103.0268"/>
<polygon fill="#191970" stroke="#191970" points="2603.5477,-141.6174 2594.1858,-146.5777 2604.5976,-148.5382 2603.5477,-141.6174"/>
</g>
<!-- Node29 -->
<g id="node27" class="node">
<title>Node29</title>
<g id="a_node27"><a xlink:href="_penguin_game_8cpp.html" target="_top" xlink:title="/workspace/src/game\l_logic/penguin/PenguinGame.cpp">
<polygon fill="none" stroke="#000000" points="2700.5,-73 2700.5,-103 2879.5,-103 2879.5,-73 2700.5,-73"/>
<text text-anchor="start" x="2708.5" y="-91" font-family="Helvetica,sans-Serif" font-size="10.00" fill="#000000">/workspace/src/game</text>
<text text-anchor="middle" x="2790" y="-80" font-family="Helvetica,sans-Serif" font-size="10.00" fill="#000000">_logic/penguin/PenguinGame.cpp</text>
</a>
</g>
</g>
<!-- Node27&#45;&gt;Node29 -->
<g id="edge42" class="edge">
<title>Node27&#45;&gt;Node29</title>
<path fill="none" stroke="#191970" d="M2589.0123,-142.7805C2633.752,-130.5864 2692.5311,-114.5658 2734.9552,-103.0028"/>
<polygon fill="#191970" stroke="#191970" points="2587.843,-139.4714 2579.1154,-145.478 2589.6838,-146.2251 2587.843,-139.4714"/>
</g>
<!-- Node30&#45;&gt;Node9 -->
<g id="edge45" class="edge">
<title>Node30&#45;&gt;Node9</title>
<path fill="none" stroke="#191970" d="M1772.8966,-142.7036C1730.3769,-130.5191 1674.6206,-114.5415 1634.3546,-103.0028"/>
<polygon fill="#191970" stroke="#191970" points="1772.001,-146.0877 1782.5782,-145.478 1773.9293,-139.3586 1772.001,-146.0877"/>
</g>
<!-- Node30&#45;&gt;Node11 -->
<g id="edge46" class="edge">
<title>Node30&#45;&gt;Node11</title>
<path fill="none" stroke="#191970" d="M1808.9849,-138.8207C1797.4562,-129.2135 1783.9618,-117.9681 1772.6018,-108.5015"/>
<polygon fill="#191970" stroke="#191970" points="1807.0507,-141.7649 1816.9735,-145.478 1811.532,-136.3873 1807.0507,-141.7649"/>
</g>
<!-- Node31 -->
<g id="node29" class="node">
<title>Node31</title>
<g id="a_node29"><a xlink:href="_tic_tac_toe_8cpp.html" target="_top" xlink:title="/workspace/src/game\l_logic/tic_tac_toe/TicTacToe.cpp">
<polygon fill="none" stroke="#000000" points="1837.5,-73 1837.5,-103 2008.5,-103 2008.5,-73 1837.5,-73"/>
<text text-anchor="start" x="1845.5" y="-91" font-family="Helvetica,sans-Serif" font-size="10.00" fill="#000000">/workspace/src/game</text>
<text text-anchor="middle" x="1923" y="-80" font-family="Helvetica,sans-Serif" font-size="10.00" fill="#000000">_logic/tic_tac_toe/TicTacToe.cpp</text>
</a>
</g>
</g>
<!-- Node30&#45;&gt;Node31 -->
<g id="edge47" class="edge">
<title>Node30&#45;&gt;Node31</title>
<path fill="none" stroke="#191970" d="M1861.1169,-138.9833C1875.1758,-127.4007 1892.17,-113.3998 1904.7897,-103.0028"/>
<polygon fill="#191970" stroke="#191970" points="1858.7262,-136.418 1853.2337,-145.478 1863.1772,-141.8206 1858.7262,-136.418"/>
</g>
</g>
</svg>
        <g id="navigator" transform="translate(0 0)" fill="#404254">
                <rect fill="#f2f5e9" fill-opacity="0.5" stroke="#606060" stroke-width=".5" x="0" y="0" width="60" height="60"/>
                <use id="zoomplus" xlink:href="#zoomPlus" x="17" y="9" onmousedown="handleZoom(evt,'in')"/>
                <use id="zoomminus" xlink:href="#zoomMin" x="42" y="9" onmousedown="handleZoom(evt,'out')"/>
                <use id="reset" xlink:href="#resetDef" x="30" y="36" onmousedown="handleReset()"/>
                <g id="arrowUp" xlink:href="#dirArrow" transform="translate(30 24)" onmousedown="handlePan(0,-1)">
                  <use xlink:href="#rim" fill="#404040">
                        <set attributeName="fill" to="#808080" begin="arrowUp.mouseover" end="arrowUp.mouseout"/>
                  </use>
                  <path fill="none" stroke="white" stroke-width="1.5" d="M0,-3.0v7 M-2.5,-0.5L0,-3.0L2.5,-0.5"/>
                </g>
                <g id="arrowRight" xlink:href="#dirArrow" transform="rotate(90) translate(36 -43)" onmousedown="handlePan(1,0)">
                  <use xlink:href="#rim" fill="#404040">
                        <set attributeName="fill" to="#808080" begin="arrowRight.mouseover" end="arrowRight.mouseout"/>
                  </use>
                  <path fill="none" stroke="white" stroke-width="1.5" d="M0,-3.0v7 M-2.5,-0.5L0,-3.0L2.5,-0.5"/>
                </g>
                <g id="arrowDown" xlink:href="#dirArrow" transform="rotate(180) translate(-30 -48)" onmousedown="handlePan(0,1)">
                  <use xlink:href="#rim" fill="#404040">
                        <set attributeName="fill" to="#808080" begin="arrowDown.mouseover" end="arrowDown.mouseout"/>
                  </use>
                  <path fill="none" stroke="white" stroke-width="1.5" d="M0,-3.0v7 M-2.5,-0.5L0,-3.0L2.5,-0.5"/>
                </g>
                <g id="arrowLeft" xlink:href="#dirArrow" transform="rotate(270) translate(-36 17)" onmousedown="handlePan(-1,0)">
                  <use xlink:href="#rim" fill="#404040">
                        <set attributeName="fill" to="#808080" begin="arrowLeft.mouseover" end="arrowLeft.mouseout"/>
                  </use>
                  <path fill="none" stroke="white" stroke-width="1.5" d="M0,-3.0v7 M-2.5,-0.5L0,-3.0L2.5,-0.5"/>
                </g>
        </g>
        <svg viewBox="0 0 15 15" width="100%" height="30px" preserveAspectRatio="xMaxYMin meet">
         <g id="arrow_out" transform="scale(0.3 0.3)">
          <a xlink:href="_position_8hpp__dep__incl_org.svg" target="_base">
           <rect id="button" ry="5" rx="5" y="6" x="6" height="38" width="38"
                fill="#f2f5e9" fill-opacity="0.5" stroke="#606060" stroke-width="1.0"/>
           <path id="arrow"
             d="M 11.500037,31.436501 C 11.940474,20.09759 22.043105,11.32322 32.158766,21.979434 L 37.068811,17.246167 C 37.068811,17.246167 37.088388,32 37.088388,32 L 22.160133,31.978069 C 22.160133,31.978069 26.997745,27.140456 26.997745,27.140456 C 18.528582,18.264221 13.291696,25.230495 11.500037,31.436501 z"
             style="fill:#404040;"/>
          </a>
         </g>
        </svg>
</svg>
