<?xml version="1.0" encoding="UTF-8" standalone="no"?>
<!DOCTYPE svg PUBLIC "-//W3C//DTD SVG 1.1//EN"
 "http://www.w3.org/Graphics/SVG/1.1/DTD/svg11.dtd">
<!-- Generated by graphviz version 2.40.1 (20161225.0304)
 -->
<!-- Title: /workspace/src/game_logic/utils/Position3D.cpp Pages: 1 -->
<svg width="173pt" height="151pt"
 viewBox="0.00 0.00 173.00 151.00" xmlns="http://www.w3.org/2000/svg" xmlns:xlink="http://www.w3.org/1999/xlink">
<g id="graph0" class="graph" transform="scale(1 1) rotate(0) translate(4 147)">
<title>/workspace/src/game_logic/utils/Position3D.cpp</title>
<!-- Node0 -->
<g id="node1" class="node">
<title>Node0</title>
<polygon fill="#bfbfbf" stroke="#000000" points="0,-112.5 0,-142.5 145,-142.5 145,-112.5 0,-112.5"/>
<text text-anchor="start" x="8" y="-130.5" font-family="Helvetica,sans-Serif" font-size="10.00" fill="#000000">/workspace/src/game</text>
<text text-anchor="middle" x="72.5" y="-119.5" font-family="Helvetica,sans-Serif" font-size="10.00" fill="#000000">_logic/utils/Position3D.cpp</text>
</g>
<!-- Node1 -->
<g id="node2" class="node">
<title>Node1</title>
<g id="a_node2"><a xlink:href="_position3_d_8hpp.html" target="_top" xlink:title="Position3D.hpp">
<polygon fill="none" stroke="#000000" points="27.5,-56.5 27.5,-75.5 117.5,-75.5 117.5,-56.5 27.5,-56.5"/>
<text text-anchor="middle" x="72.5" y="-63.5" font-family="Helvetica,sans-Serif" font-size="10.00" fill="#000000">Position3D.hpp</text>
</a>
</g>
</g>
<!-- Node0&#45;&gt;Node1 -->
<g id="edge1" class="edge">
<title>Node0&#45;&gt;Node1</title>
<path fill="none" stroke="#191970" d="M72.5,-112.2977C72.5,-104.3834 72.5,-94.6043 72.5,-86.0759"/>
<polygon fill="#191970" stroke="#191970" points="76.0001,-85.8469 72.5,-75.8469 69.0001,-85.847 76.0001,-85.8469"/>
</g>
<!-- Node2 -->
<g id="node3" class="node">
<title>Node2</title>
<polygon fill="none" stroke="#bfbfbf" points="1,-.5 1,-19.5 54,-19.5 54,-.5 1,-.5"/>
<text text-anchor="middle" x="27.5" y="-7.5" font-family="Helvetica,sans-Serif" font-size="10.00" fill="#000000">stdlib.h</text>
</g>
<!-- Node1&#45;&gt;Node2 -->
<g id="edge2" class="edge">
<title>Node1&#45;&gt;Node2</title>
<path fill="none" stroke="#191970" d="M64.6616,-56.2455C58.338,-48.3761 49.2776,-37.101 41.6864,-27.6542"/>
<polygon fill="#191970" stroke="#191970" points="44.2408,-25.2454 35.2486,-19.6427 38.7842,-29.6302 44.2408,-25.2454"/>
</g>
<!-- Node3 -->
<g id="node4" class="node">
<title>Node3</title>
<polygon fill="none" stroke="#bfbfbf" points="72,-.5 72,-19.5 165,-19.5 165,-.5 72,-.5"/>
<text text-anchor="middle" x="118.5" y="-7.5" font-family="Helvetica,sans-Serif" font-size="10.00" fill="#000000">unordered_map</text>
</g>
<!-- Node1&#45;&gt;Node3 -->
<g id="edge3" class="edge">
<title>Node1&#45;&gt;Node3</title>
<path fill="none" stroke="#191970" d="M80.5126,-56.2455C86.9768,-48.3761 96.2385,-37.101 103.9983,-27.6542"/>
<polygon fill="#191970" stroke="#191970" points="106.9364,-29.5916 110.5792,-19.6427 101.5273,-25.1484 106.9364,-29.5916"/>
</g>
</g>
</svg>
