<?xml version="1.0" encoding="UTF-8" standalone="no"?>
<!DOCTYPE svg PUBLIC "-//W3C//DTD SVG 1.1//EN"
 "http://www.w3.org/Graphics/SVG/1.1/DTD/svg11.dtd">
<!-- Generated by graphviz version 2.40.1 (20161225.0304)
 -->
<!-- Title: /workspace/src/game_logic/penguin/PrintHex.cpp Pages: 1 -->
<!--zoomable 263 -->
<svg id="main" version="1.1" xmlns="http://www.w3.org/2000/svg" xmlns:xlink="http://www.w3.org/1999/xlink" xml:space="preserve" onload="init(evt)">
<style type="text/css"><![CDATA[
.edge:hover path { stroke: red; }
.edge:hover polygon { stroke: red; fill: red; }
]]></style>
<script type="text/javascript"><![CDATA[
var edges = document.getElementsByTagName('g');
if (edges && edges.length) {
  for (var i=0;i<edges.length;i++) {
    if (edges[i].id.substr(0,4)=='edge') {
      edges[i].setAttribute('class','edge');
    }
  }
}
]]></script>
        <defs>
                <circle id="rim" cx="0" cy="0" r="7"/>
                <circle id="rim2" cx="0" cy="0" r="3.5"/>
                <g id="zoomPlus">
                        <use xlink:href="#rim" fill="#404040">
                                <set attributeName="fill" to="#808080" begin="zoomplus.mouseover" end="zoomplus.mouseout"/>
                        </use>
                        <path d="M-4,0h8M0,-4v8" fill="none" stroke="white" stroke-width="1.5" pointer-events="none"/>
                </g>
                <g id="zoomMin">
                        <use xlink:href="#rim" fill="#404040">
                                <set attributeName="fill" to="#808080" begin="zoomminus.mouseover" end="zoomminus.mouseout"/>
                        </use>
                        <path d="M-4,0h8" fill="none" stroke="white" stroke-width="1.5" pointer-events="none"/>
                </g>
                <g id="dirArrow">
                        <path fill="none" stroke="white" stroke-width="1.5" d="M0,-3.0v7 M-2.5,-0.5L0,-3.0L2.5,-0.5"/>
                </g>
               <g id="resetDef">
                       <use xlink:href="#rim2" fill="#404040">
                               <set attributeName="fill" to="#808080" begin="reset.mouseover" end="reset.mouseout"/>
                       </use>
               </g>
        </defs>

<script type="text/javascript">
var viewWidth = 958;
var viewHeight = 263;
var sectionId = 'dynsection-0';
</script>
<script xlink:href="svgpan.js"/>
<svg id="graph" class="graph">
<g id="viewport">
<title>/workspace/src/game_logic/penguin/PrintHex.cpp</title>
<!-- Node0 -->
<g id="node1" class="node">
<title>Node0</title>
<polygon fill="#bfbfbf" stroke="#000000" points="278,-224.5 278,-254.5 430,-254.5 430,-224.5 278,-224.5"/>
<text text-anchor="start" x="286" y="-242.5" font-family="Helvetica,sans-Serif" font-size="10.00" fill="#000000">/workspace/src/game</text>
<text text-anchor="middle" x="354" y="-231.5" font-family="Helvetica,sans-Serif" font-size="10.00" fill="#000000">_logic/penguin/PrintHex.cpp</text>
</g>
<!-- Node1 -->
<g id="node2" class="node">
<title>Node1</title>
<polygon fill="none" stroke="#bfbfbf" points="0,-168.5 0,-187.5 60,-187.5 60,-168.5 0,-168.5"/>
<text text-anchor="middle" x="30" y="-175.5" font-family="Helvetica,sans-Serif" font-size="10.00" fill="#000000">iostream</text>
</g>
<!-- Node0&#45;&gt;Node1 -->
<g id="edge1" class="edge">
<title>Node0&#45;&gt;Node1</title>
<path fill="none" stroke="#191970" d="M277.7967,-227.2679C222.6989,-218.0677 146.2757,-204.5787 70.3974,-188.1929"/>
<polygon fill="#191970" stroke="#191970" points="70.6981,-184.6765 60.1823,-185.9685 69.2086,-191.5162 70.6981,-184.6765"/>
</g>
<!-- Node2 -->
<g id="node3" class="node">
<title>Node2</title>
<polygon fill="none" stroke="#bfbfbf" points="78,-168.5 78,-187.5 128,-187.5 128,-168.5 78,-168.5"/>
<text text-anchor="middle" x="103" y="-175.5" font-family="Helvetica,sans-Serif" font-size="10.00" fill="#000000">cstring</text>
</g>
<!-- Node0&#45;&gt;Node2 -->
<g id="edge2" class="edge">
<title>Node0&#45;&gt;Node2</title>
<path fill="none" stroke="#191970" d="M286.3245,-224.4107C245.8311,-215.1558 193.1438,-202.7206 138.1397,-188.2117"/>
<polygon fill="#191970" stroke="#191970" points="138.7724,-184.7585 128.2092,-185.5761 136.9767,-191.5243 138.7724,-184.7585"/>
</g>
<!-- Node3 -->
<g id="node4" class="node">
<title>Node3</title>
<polygon fill="none" stroke="#bfbfbf" points="146,-168.5 146,-187.5 210,-187.5 210,-168.5 146,-168.5"/>
<text text-anchor="middle" x="178" y="-175.5" font-family="Helvetica,sans-Serif" font-size="10.00" fill="#000000">algorithm</text>
</g>
<!-- Node0&#45;&gt;Node3 -->
<g id="edge3" class="edge">
<title>Node0&#45;&gt;Node3</title>
<path fill="none" stroke="#191970" d="M310.9456,-224.4554C281.5795,-214.194 243.0855,-200.7429 215.0805,-190.9571"/>
<polygon fill="#191970" stroke="#191970" points="215.8686,-187.525 205.2738,-187.5303 213.5594,-194.1332 215.8686,-187.525"/>
</g>
<!-- Node4 -->
<g id="node5" class="node">
<title>Node4</title>
<g id="a_node5"><a xlink:href="conversions_8hpp.html" target="_top" xlink:title="../utils/conversions.hpp">
<polygon fill="none" stroke="#000000" points="228.5,-168.5 228.5,-187.5 357.5,-187.5 357.5,-168.5 228.5,-168.5"/>
<text text-anchor="middle" x="293" y="-175.5" font-family="Helvetica,sans-Serif" font-size="10.00" fill="#000000">../utils/conversions.hpp</text>
</a>
</g>
</g>
<!-- Node0&#45;&gt;Node4 -->
<g id="edge4" class="edge">
<title>Node0&#45;&gt;Node4</title>
<path fill="none" stroke="#191970" d="M338.9213,-224.2977C330.1011,-215.4052 318.9459,-204.1586 309.8388,-194.9769"/>
<polygon fill="#191970" stroke="#191970" points="312.294,-192.4821 302.7669,-187.8469 307.3241,-197.4116 312.294,-192.4821"/>
</g>
<!-- Node9 -->
<g id="node10" class="node">
<title>Node9</title>
<g id="a_node10"><a xlink:href="penguin_2_board_8hpp.html" target="_top" xlink:title="Board.hpp">
<polygon fill="none" stroke="#000000" points="474,-168.5 474,-187.5 540,-187.5 540,-168.5 474,-168.5"/>
<text text-anchor="middle" x="507" y="-175.5" font-family="Helvetica,sans-Serif" font-size="10.00" fill="#000000">Board.hpp</text>
</a>
</g>
</g>
<!-- Node0&#45;&gt;Node9 -->
<g id="edge11" class="edge">
<title>Node0&#45;&gt;Node9</title>
<path fill="none" stroke="#191970" d="M391.428,-224.4554C416.6206,-214.329 449.5407,-201.0964 473.7996,-191.3453"/>
<polygon fill="#191970" stroke="#191970" points="475.3173,-194.5074 483.2904,-187.5303 472.7066,-188.0125 475.3173,-194.5074"/>
</g>
<!-- Node15 -->
<g id="node16" class="node">
<title>Node15</title>
<g id="a_node16"><a xlink:href="penguin_2_board_cell_8hpp.html" target="_top" xlink:title="BoardCell.hpp">
<polygon fill="none" stroke="#000000" points="558.5,-168.5 558.5,-187.5 643.5,-187.5 643.5,-168.5 558.5,-168.5"/>
<text text-anchor="middle" x="601" y="-175.5" font-family="Helvetica,sans-Serif" font-size="10.00" fill="#000000">BoardCell.hpp</text>
</a>
</g>
</g>
<!-- Node0&#45;&gt;Node15 -->
<g id="edge20" class="edge">
<title>Node0&#45;&gt;Node15</title>
<path fill="none" stroke="#191970" d="M414.423,-224.4554C456.9913,-213.8564 513.2264,-199.8546 552.7907,-190.0035"/>
<polygon fill="#191970" stroke="#191970" points="553.8657,-193.3428 562.7238,-187.5303 552.1744,-186.5502 553.8657,-193.3428"/>
</g>
<!-- Node17 -->
<g id="node18" class="node">
<title>Node17</title>
<g id="a_node18"><a xlink:href="_penguin_pawn_8hpp.html" target="_top" xlink:title="PenguinPawn.hpp">
<polygon fill="none" stroke="#000000" points="760,-168.5 760,-187.5 862,-187.5 862,-168.5 760,-168.5"/>
<text text-anchor="middle" x="811" y="-175.5" font-family="Helvetica,sans-Serif" font-size="10.00" fill="#000000">PenguinPawn.hpp</text>
</a>
</g>
</g>
<!-- Node0&#45;&gt;Node17 -->
<g id="edge23" class="edge">
<title>Node0&#45;&gt;Node17</title>
<path fill="none" stroke="#191970" d="M430.2342,-229.2409C519.9468,-217.168 667.1289,-197.3612 749.7671,-186.2403"/>
<polygon fill="#191970" stroke="#191970" points="750.3179,-189.6978 759.7617,-184.8953 749.3842,-182.7604 750.3179,-189.6978"/>
</g>
<!-- Node19 -->
<g id="node20" class="node">
<title>Node19</title>
<g id="a_node20"><a xlink:href="_print_hex_8hpp.html" target="_top" xlink:title="PrintHex.hpp">
<polygon fill="none" stroke="#000000" points="376,-168.5 376,-187.5 456,-187.5 456,-168.5 376,-168.5"/>
<text text-anchor="middle" x="416" y="-175.5" font-family="Helvetica,sans-Serif" font-size="10.00" fill="#000000">PrintHex.hpp</text>
</a>
</g>
</g>
<!-- Node0&#45;&gt;Node19 -->
<g id="edge25" class="edge">
<title>Node0&#45;&gt;Node19</title>
<path fill="none" stroke="#191970" d="M369.3258,-224.2977C378.2907,-215.4052 389.6288,-204.1586 398.8851,-194.9769"/>
<polygon fill="#191970" stroke="#191970" points="401.4382,-197.3742 406.073,-187.8469 396.5085,-192.4045 401.4382,-197.3742"/>
</g>
<!-- Node5 -->
<g id="node6" class="node">
<title>Node5</title>
<g id="a_node6"><a xlink:href="_position_8hpp.html" target="_top" xlink:title="../utils/Position.hpp">
<polygon fill="none" stroke="#000000" points="346,-112.5 346,-131.5 456,-131.5 456,-112.5 346,-112.5"/>
<text text-anchor="middle" x="401" y="-119.5" font-family="Helvetica,sans-Serif" font-size="10.00" fill="#000000">../utils/Position.hpp</text>
</a>
</g>
</g>
<!-- Node4&#45;&gt;Node5 -->
<g id="edge5" class="edge">
<title>Node4&#45;&gt;Node5</title>
<path fill="none" stroke="#191970" d="M311.8122,-168.2455C328.8473,-159.4125 354.1575,-146.2887 373.4681,-136.2758"/>
<polygon fill="#191970" stroke="#191970" points="375.137,-139.353 382.4034,-131.6427 371.9147,-133.1388 375.137,-139.353"/>
</g>
<!-- Node8 -->
<g id="node9" class="node">
<title>Node8</title>
<g id="a_node9"><a xlink:href="_position3_d_8hpp.html" target="_top" xlink:title="../utils/Position3D.hpp">
<polygon fill="none" stroke="#000000" points="204.5,-112.5 204.5,-131.5 327.5,-131.5 327.5,-112.5 204.5,-112.5"/>
<text text-anchor="middle" x="266" y="-119.5" font-family="Helvetica,sans-Serif" font-size="10.00" fill="#000000">../utils/Position3D.hpp</text>
</a>
</g>
</g>
<!-- Node4&#45;&gt;Node8 -->
<g id="edge8" class="edge">
<title>Node4&#45;&gt;Node8</title>
<path fill="none" stroke="#191970" d="M288.297,-168.2455C284.6576,-160.6973 279.5076,-150.0158 275.0738,-140.8197"/>
<polygon fill="#191970" stroke="#191970" points="278.1449,-139.1303 270.6491,-131.6427 271.8395,-142.1704 278.1449,-139.1303"/>
</g>
<!-- Node6 -->
<g id="node7" class="node">
<title>Node6</title>
<polygon fill="none" stroke="#bfbfbf" points="261.5,-56.5 261.5,-75.5 314.5,-75.5 314.5,-56.5 261.5,-56.5"/>
<text text-anchor="middle" x="288" y="-63.5" font-family="Helvetica,sans-Serif" font-size="10.00" fill="#000000">stdlib.h</text>
</g>
<!-- Node5&#45;&gt;Node6 -->
<g id="edge6" class="edge">
<title>Node5&#45;&gt;Node6</title>
<path fill="none" stroke="#191970" d="M381.5746,-112.3733C363.5979,-103.4644 336.6559,-90.1127 316.291,-80.0203"/>
<polygon fill="#191970" stroke="#191970" points="317.6861,-76.8055 307.1719,-75.5011 314.5778,-83.0776 317.6861,-76.8055"/>
</g>
<!-- Node7 -->
<g id="node8" class="node">
<title>Node7</title>
<polygon fill="none" stroke="#bfbfbf" points="354.5,-56.5 354.5,-75.5 447.5,-75.5 447.5,-56.5 354.5,-56.5"/>
<text text-anchor="middle" x="401" y="-63.5" font-family="Helvetica,sans-Serif" font-size="10.00" fill="#000000">unordered_map</text>
</g>
<!-- Node5&#45;&gt;Node7 -->
<g id="edge7" class="edge">
<title>Node5&#45;&gt;Node7</title>
<path fill="none" stroke="#191970" d="M401,-112.2455C401,-104.9382 401,-94.6944 401,-85.7046"/>
<polygon fill="#191970" stroke="#191970" points="404.5001,-85.6426 401,-75.6427 397.5001,-85.6427 404.5001,-85.6426"/>
</g>
<!-- Node8&#45;&gt;Node6 -->
<g id="edge9" class="edge">
<title>Node8&#45;&gt;Node6</title>
<path fill="none" stroke="#191970" d="M269.8321,-112.2455C272.7659,-104.7776 276.9047,-94.2427 280.491,-85.1137"/>
<polygon fill="#191970" stroke="#191970" points="283.8129,-86.23 284.2118,-75.6427 277.2976,-83.6704 283.8129,-86.23"/>
</g>
<!-- Node8&#45;&gt;Node7 -->
<g id="edge10" class="edge">
<title>Node8&#45;&gt;Node7</title>
<path fill="none" stroke="#191970" d="M289.2073,-112.3733C311.1699,-103.2629 344.3332,-89.5062 368.8401,-79.3404"/>
<polygon fill="#191970" stroke="#191970" points="370.1997,-82.5657 378.0955,-75.5011 367.5176,-76.0999 370.1997,-82.5657"/>
</g>
<!-- Node9&#45;&gt;Node5 -->
<g id="edge14" class="edge">
<title>Node9&#45;&gt;Node5</title>
<path fill="none" stroke="#191970" d="M488.5362,-168.2455C471.8926,-159.4527 447.2007,-146.4079 428.2808,-136.4125"/>
<polygon fill="#191970" stroke="#191970" points="429.7291,-133.2193 419.2522,-131.6427 426.4592,-139.4086 429.7291,-133.2193"/>
</g>
<!-- Node9&#45;&gt;Node7 -->
<g id="edge12" class="edge">
<title>Node9&#45;&gt;Node7</title>
<path fill="none" stroke="#191970" d="M502.3034,-168.2459C495.4241,-154.6153 481.6052,-129.5704 465,-112 453.7312,-100.0762 438.9793,-89.2312 426.4787,-81.07"/>
<polygon fill="#191970" stroke="#191970" points="428.1803,-78.0051 417.8563,-75.6247 424.4425,-83.9236 428.1803,-78.0051"/>
</g>
<!-- Node10 -->
<g id="node11" class="node">
<title>Node10</title>
<polygon fill="none" stroke="#bfbfbf" points="502.5,-56.5 502.5,-75.5 549.5,-75.5 549.5,-56.5 502.5,-56.5"/>
<text text-anchor="middle" x="526" y="-63.5" font-family="Helvetica,sans-Serif" font-size="10.00" fill="#000000">vector</text>
</g>
<!-- Node9&#45;&gt;Node10 -->
<g id="edge13" class="edge">
<title>Node9&#45;&gt;Node10</title>
<path fill="none" stroke="#191970" d="M508.6199,-168.4509C511.7188,-150.184 518.5433,-109.9553 522.6584,-85.6976"/>
<polygon fill="#191970" stroke="#191970" points="526.1623,-85.9694 524.3842,-75.5249 519.2609,-84.7986 526.1623,-85.9694"/>
</g>
<!-- Node11 -->
<g id="node12" class="node">
<title>Node11</title>
<g id="a_node12"><a xlink:href="_abstract_board_8hpp.html" target="_top" xlink:title="../AbstractBoard.hpp">
<polygon fill="none" stroke="#000000" points="550,-112.5 550,-131.5 666,-131.5 666,-112.5 550,-112.5"/>
<text text-anchor="middle" x="608" y="-119.5" font-family="Helvetica,sans-Serif" font-size="10.00" fill="#000000">../AbstractBoard.hpp</text>
</a>
</g>
</g>
<!-- Node9&#45;&gt;Node11 -->
<g id="edge15" class="edge">
<title>Node9&#45;&gt;Node11</title>
<path fill="none" stroke="#191970" d="M524.5929,-168.2455C540.379,-159.4928 563.7639,-146.527 581.7587,-136.5496"/>
<polygon fill="#191970" stroke="#191970" points="583.5603,-139.5528 590.6087,-131.6427 580.1659,-133.4308 583.5603,-139.5528"/>
</g>
<!-- Node11&#45;&gt;Node10 -->
<g id="edge16" class="edge">
<title>Node11&#45;&gt;Node10</title>
<path fill="none" stroke="#191970" d="M593.7167,-112.2455C581.253,-103.7337 562.9549,-91.2375 548.5208,-81.3801"/>
<polygon fill="#191970" stroke="#191970" points="550.3515,-78.392 540.1196,-75.6427 546.4038,-84.1726 550.3515,-78.392"/>
</g>
<!-- Node12 -->
<g id="node13" class="node">
<title>Node12</title>
<g id="a_node13"><a xlink:href="_history_8hpp.html" target="_top" xlink:title="History.hpp">
<polygon fill="none" stroke="#000000" points="572.5,-56.5 572.5,-75.5 643.5,-75.5 643.5,-56.5 572.5,-56.5"/>
<text text-anchor="middle" x="608" y="-63.5" font-family="Helvetica,sans-Serif" font-size="10.00" fill="#000000">History.hpp</text>
</a>
</g>
</g>
<!-- Node11&#45;&gt;Node12 -->
<g id="edge17" class="edge">
<title>Node11&#45;&gt;Node12</title>
<path fill="none" stroke="#191970" d="M608,-112.2455C608,-104.9382 608,-94.6944 608,-85.7046"/>
<polygon fill="#191970" stroke="#191970" points="611.5001,-85.6426 608,-75.6427 604.5001,-85.6427 611.5001,-85.6426"/>
</g>
<!-- Node13 -->
<g id="node14" class="node">
<title>Node13</title>
<polygon fill="none" stroke="#bfbfbf" points="544.5,-.5 544.5,-19.5 587.5,-19.5 587.5,-.5 544.5,-.5"/>
<text text-anchor="middle" x="566" y="-7.5" font-family="Helvetica,sans-Serif" font-size="10.00" fill="#000000">stack</text>
</g>
<!-- Node12&#45;&gt;Node13 -->
<g id="edge18" class="edge">
<title>Node12&#45;&gt;Node13</title>
<path fill="none" stroke="#191970" d="M600.6842,-56.2455C594.7821,-48.3761 586.3258,-37.101 579.2406,-27.6542"/>
<polygon fill="#191970" stroke="#191970" points="582.0321,-25.5427 573.232,-19.6427 576.432,-29.7427 582.0321,-25.5427"/>
</g>
<!-- Node14 -->
<g id="node15" class="node">
<title>Node14</title>
<g id="a_node15"><a xlink:href="_move_8hpp.html" target="_top" xlink:title="utils/Move.hpp">
<polygon fill="none" stroke="#000000" points="606,-.5 606,-19.5 694,-19.5 694,-.5 606,-.5"/>
<text text-anchor="middle" x="650" y="-7.5" font-family="Helvetica,sans-Serif" font-size="10.00" fill="#000000">utils/Move.hpp</text>
</a>
</g>
</g>
<!-- Node12&#45;&gt;Node14 -->
<g id="edge19" class="edge">
<title>Node12&#45;&gt;Node14</title>
<path fill="none" stroke="#191970" d="M615.3158,-56.2455C621.2179,-48.3761 629.6742,-37.101 636.7594,-27.6542"/>
<polygon fill="#191970" stroke="#191970" points="639.568,-29.7427 642.768,-19.6427 633.9679,-25.5427 639.568,-29.7427"/>
</g>
<!-- Node15&#45;&gt;Node5 -->
<g id="edge22" class="edge">
<title>Node15&#45;&gt;Node5</title>
<path fill="none" stroke="#191970" d="M566.6188,-168.3733C532.9299,-158.9404 481.4518,-144.5265 444.8382,-134.2747"/>
<polygon fill="#191970" stroke="#191970" points="445.506,-130.8271 434.9326,-131.5011 443.6185,-137.5679 445.506,-130.8271"/>
</g>
<!-- Node16 -->
<g id="node17" class="node">
<title>Node16</title>
<g id="a_node17"><a xlink:href="_abstract_board_cell_8hpp.html" target="_top" xlink:title="../AbstractBoardCell.hpp">
<polygon fill="none" stroke="#000000" points="684,-112.5 684,-131.5 818,-131.5 818,-112.5 684,-112.5"/>
<text text-anchor="middle" x="751" y="-119.5" font-family="Helvetica,sans-Serif" font-size="10.00" fill="#000000">../AbstractBoardCell.hpp</text>
</a>
</g>
</g>
<!-- Node15&#45;&gt;Node16 -->
<g id="edge21" class="edge">
<title>Node15&#45;&gt;Node16</title>
<path fill="none" stroke="#191970" d="M626.7859,-168.3733C651.4047,-159.1822 688.69,-145.2624 715.9875,-135.0713"/>
<polygon fill="#191970" stroke="#191970" points="717.4063,-138.2777 725.5506,-131.5011 714.958,-131.7198 717.4063,-138.2777"/>
</g>
<!-- Node18 -->
<g id="node19" class="node">
<title>Node18</title>
<g id="a_node19"><a xlink:href="_abstract_pawn_8hpp.html" target="_top" xlink:title="../AbstractPawn.hpp">
<polygon fill="none" stroke="#000000" points="836.5,-112.5 836.5,-131.5 949.5,-131.5 949.5,-112.5 836.5,-112.5"/>
<text text-anchor="middle" x="893" y="-119.5" font-family="Helvetica,sans-Serif" font-size="10.00" fill="#000000">../AbstractPawn.hpp</text>
</a>
</g>
</g>
<!-- Node17&#45;&gt;Node18 -->
<g id="edge24" class="edge">
<title>Node17&#45;&gt;Node18</title>
<path fill="none" stroke="#191970" d="M825.2833,-168.2455C837.747,-159.7337 856.0451,-147.2375 870.4792,-137.3801"/>
<polygon fill="#191970" stroke="#191970" points="872.5962,-140.1726 878.8804,-131.6427 868.6485,-134.392 872.5962,-140.1726"/>
</g>
<!-- Node19&#45;&gt;Node5 -->
<g id="edge26" class="edge">
<title>Node19&#45;&gt;Node5</title>
<path fill="none" stroke="#191970" d="M413.3872,-168.2455C411.4084,-160.8579 408.6256,-150.4689 406.1988,-141.4087"/>
<polygon fill="#191970" stroke="#191970" points="409.5511,-140.3966 403.5829,-131.6427 402.7895,-142.2078 409.5511,-140.3966"/>
</g>
</g>
</svg>
        <g id="navigator" transform="translate(0 0)" fill="#404254">
                <rect fill="#f2f5e9" fill-opacity="0.5" stroke="#606060" stroke-width=".5" x="0" y="0" width="60" height="60"/>
                <use id="zoomplus" xlink:href="#zoomPlus" x="17" y="9" onmousedown="handleZoom(evt,'in')"/>
                <use id="zoomminus" xlink:href="#zoomMin" x="42" y="9" onmousedown="handleZoom(evt,'out')"/>
                <use id="reset" xlink:href="#resetDef" x="30" y="36" onmousedown="handleReset()"/>
                <g id="arrowUp" xlink:href="#dirArrow" transform="translate(30 24)" onmousedown="handlePan(0,-1)">
                  <use xlink:href="#rim" fill="#404040">
                        <set attributeName="fill" to="#808080" begin="arrowUp.mouseover" end="arrowUp.mouseout"/>
                  </use>
                  <path fill="none" stroke="white" stroke-width="1.5" d="M0,-3.0v7 M-2.5,-0.5L0,-3.0L2.5,-0.5"/>
                </g>
                <g id="arrowRight" xlink:href="#dirArrow" transform="rotate(90) translate(36 -43)" onmousedown="handlePan(1,0)">
                  <use xlink:href="#rim" fill="#404040">
                        <set attributeName="fill" to="#808080" begin="arrowRight.mouseover" end="arrowRight.mouseout"/>
                  </use>
                  <path fill="none" stroke="white" stroke-width="1.5" d="M0,-3.0v7 M-2.5,-0.5L0,-3.0L2.5,-0.5"/>
                </g>
                <g id="arrowDown" xlink:href="#dirArrow" transform="rotate(180) translate(-30 -48)" onmousedown="handlePan(0,1)">
                  <use xlink:href="#rim" fill="#404040">
                        <set attributeName="fill" to="#808080" begin="arrowDown.mouseover" end="arrowDown.mouseout"/>
                  </use>
                  <path fill="none" stroke="white" stroke-width="1.5" d="M0,-3.0v7 M-2.5,-0.5L0,-3.0L2.5,-0.5"/>
                </g>
                <g id="arrowLeft" xlink:href="#dirArrow" transform="rotate(270) translate(-36 17)" onmousedown="handlePan(-1,0)">
                  <use xlink:href="#rim" fill="#404040">
                        <set attributeName="fill" to="#808080" begin="arrowLeft.mouseover" end="arrowLeft.mouseout"/>
                  </use>
                  <path fill="none" stroke="white" stroke-width="1.5" d="M0,-3.0v7 M-2.5,-0.5L0,-3.0L2.5,-0.5"/>
                </g>
        </g>
        <svg viewBox="0 0 15 15" width="100%" height="30px" preserveAspectRatio="xMaxYMin meet">
         <g id="arrow_out" transform="scale(0.3 0.3)">
          <a xlink:href="_print_hex_8cpp__incl_org.svg" target="_base">
           <rect id="button" ry="5" rx="5" y="6" x="6" height="38" width="38"
                fill="#f2f5e9" fill-opacity="0.5" stroke="#606060" stroke-width="1.0"/>
           <path id="arrow"
             d="M 11.500037,31.436501 C 11.940474,20.09759 22.043105,11.32322 32.158766,21.979434 L 37.068811,17.246167 C 37.068811,17.246167 37.088388,32 37.088388,32 L 22.160133,31.978069 C 22.160133,31.978069 26.997745,27.140456 26.997745,27.140456 C 18.528582,18.264221 13.291696,25.230495 11.500037,31.436501 z"
             style="fill:#404040;"/>
          </a>
         </g>
        </svg>
</svg>
