<?xml version="1.0" encoding="UTF-8" standalone="no"?>
<!DOCTYPE svg PUBLIC "-//W3C//DTD SVG 1.1//EN"
 "http://www.w3.org/Graphics/SVG/1.1/DTD/svg11.dtd">
<!-- Generated by graphviz version 2.40.1 (20161225.0304)
 -->
<!-- Title: /workspace/src/game_logic/penguin/PrintHex.hpp Pages: 1 -->
<svg width="177pt" height="151pt"
 viewBox="0.00 0.00 177.00 151.00" xmlns="http://www.w3.org/2000/svg" xmlns:xlink="http://www.w3.org/1999/xlink">
<g id="graph0" class="graph" transform="scale(1 1) rotate(0) translate(4 147)">
<title>/workspace/src/game_logic/penguin/PrintHex.hpp</title>
<!-- Node0 -->
<g id="node1" class="node">
<title>Node0</title>
<polygon fill="#bfbfbf" stroke="#000000" points="0,-112.5 0,-142.5 153,-142.5 153,-112.5 0,-112.5"/>
<text text-anchor="start" x="8" y="-130.5" font-family="Helvetica,sans-Serif" font-size="10.00" fill="#000000">/workspace/src/game</text>
<text text-anchor="middle" x="76.5" y="-119.5" font-family="Helvetica,sans-Serif" font-size="10.00" fill="#000000">_logic/penguin/PrintHex.hpp</text>
</g>
<!-- Node1 -->
<g id="node2" class="node">
<title>Node1</title>
<g id="a_node2"><a xlink:href="_position_8hpp.html" target="_top" xlink:title="../utils/Position.hpp">
<polygon fill="none" stroke="#000000" points="21.5,-56.5 21.5,-75.5 131.5,-75.5 131.5,-56.5 21.5,-56.5"/>
<text text-anchor="middle" x="76.5" y="-63.5" font-family="Helvetica,sans-Serif" font-size="10.00" fill="#000000">../utils/Position.hpp</text>
</a>
</g>
</g>
<!-- Node0&#45;&gt;Node1 -->
<g id="edge1" class="edge">
<title>Node0&#45;&gt;Node1</title>
<path fill="none" stroke="#191970" d="M76.5,-112.2977C76.5,-104.3834 76.5,-94.6043 76.5,-86.0759"/>
<polygon fill="#191970" stroke="#191970" points="80.0001,-85.8469 76.5,-75.8469 73.0001,-85.847 80.0001,-85.8469"/>
</g>
<!-- Node2 -->
<g id="node3" class="node">
<title>Node2</title>
<polygon fill="none" stroke="#bfbfbf" points="5,-.5 5,-19.5 58,-19.5 58,-.5 5,-.5"/>
<text text-anchor="middle" x="31.5" y="-7.5" font-family="Helvetica,sans-Serif" font-size="10.00" fill="#000000">stdlib.h</text>
</g>
<!-- Node1&#45;&gt;Node2 -->
<g id="edge2" class="edge">
<title>Node1&#45;&gt;Node2</title>
<path fill="none" stroke="#191970" d="M68.6616,-56.2455C62.338,-48.3761 53.2776,-37.101 45.6864,-27.6542"/>
<polygon fill="#191970" stroke="#191970" points="48.2408,-25.2454 39.2486,-19.6427 42.7842,-29.6302 48.2408,-25.2454"/>
</g>
<!-- Node3 -->
<g id="node4" class="node">
<title>Node3</title>
<polygon fill="none" stroke="#bfbfbf" points="76,-.5 76,-19.5 169,-19.5 169,-.5 76,-.5"/>
<text text-anchor="middle" x="122.5" y="-7.5" font-family="Helvetica,sans-Serif" font-size="10.00" fill="#000000">unordered_map</text>
</g>
<!-- Node1&#45;&gt;Node3 -->
<g id="edge3" class="edge">
<title>Node1&#45;&gt;Node3</title>
<path fill="none" stroke="#191970" d="M84.5126,-56.2455C90.9768,-48.3761 100.2385,-37.101 107.9983,-27.6542"/>
<polygon fill="#191970" stroke="#191970" points="110.9364,-29.5916 114.5792,-19.6427 105.5273,-25.1484 110.9364,-29.5916"/>
</g>
</g>
</svg>
