<?xml version="1.0" encoding="UTF-8" standalone="no"?>
<!DOCTYPE svg PUBLIC "-//W3C//DTD SVG 1.1//EN"
 "http://www.w3.org/Graphics/SVG/1.1/DTD/svg11.dtd">
<!-- Generated by graphviz version 2.40.1 (20161225.0304)
 -->
<!-- Title: /workspace/src/game_logic/tic_tac_toe/TicTacToe.cpp Pages: 1 -->
<svg width="744pt" height="263pt"
 viewBox="0.00 0.00 743.50 263.00" xmlns="http://www.w3.org/2000/svg" xmlns:xlink="http://www.w3.org/1999/xlink">
<g id="graph0" class="graph" transform="scale(1 1) rotate(0) translate(4 259)">
<title>/workspace/src/game_logic/tic_tac_toe/TicTacToe.cpp</title>
<!-- Node0 -->
<g id="node1" class="node">
<title>Node0</title>
<polygon fill="#bfbfbf" stroke="#000000" points="324,-224.5 324,-254.5 495,-254.5 495,-224.5 324,-224.5"/>
<text text-anchor="start" x="332" y="-242.5" font-family="Helvetica,sans-Serif" font-size="10.00" fill="#000000">/workspace/src/game</text>
<text text-anchor="middle" x="409.5" y="-231.5" font-family="Helvetica,sans-Serif" font-size="10.00" fill="#000000">_logic/tic_tac_toe/TicTacToe.cpp</text>
</g>
<!-- Node1 -->
<g id="node2" class="node">
<title>Node1</title>
<polygon fill="none" stroke="#bfbfbf" points="260.5,-168.5 260.5,-187.5 324.5,-187.5 324.5,-168.5 260.5,-168.5"/>
<text text-anchor="middle" x="292.5" y="-175.5" font-family="Helvetica,sans-Serif" font-size="10.00" fill="#000000">algorithm</text>
</g>
<!-- Node0&#45;&gt;Node1 -->
<g id="edge1" class="edge">
<title>Node0&#45;&gt;Node1</title>
<path fill="none" stroke="#191970" d="M380.8786,-224.4554C362.213,-214.644 338.0001,-201.9167 319.6388,-192.2653"/>
<polygon fill="#191970" stroke="#191970" points="321.111,-189.0851 310.6308,-187.5303 317.854,-195.2812 321.111,-189.0851"/>
</g>
<!-- Node2 -->
<g id="node3" class="node">
<title>Node2</title>
<polygon fill="none" stroke="#bfbfbf" points="342.5,-168.5 342.5,-187.5 398.5,-187.5 398.5,-168.5 342.5,-168.5"/>
<text text-anchor="middle" x="370.5" y="-175.5" font-family="Helvetica,sans-Serif" font-size="10.00" fill="#000000">assert.h</text>
</g>
<!-- Node0&#45;&gt;Node2 -->
<g id="edge2" class="edge">
<title>Node0&#45;&gt;Node2</title>
<path fill="none" stroke="#191970" d="M399.8595,-224.2977C394.5023,-215.8498 387.7978,-205.2773 382.1487,-196.369"/>
<polygon fill="#191970" stroke="#191970" points="385.0556,-194.4176 376.7444,-187.8469 379.1441,-198.1664 385.0556,-194.4176"/>
</g>
<!-- Node3 -->
<g id="node4" class="node">
<title>Node3</title>
<g id="a_node4"><a xlink:href="tic__tac__toe_2_board_8hpp.html" target="_top" xlink:title="Board.hpp">
<polygon fill="none" stroke="#000000" points="416.5,-168.5 416.5,-187.5 482.5,-187.5 482.5,-168.5 416.5,-168.5"/>
<text text-anchor="middle" x="449.5" y="-175.5" font-family="Helvetica,sans-Serif" font-size="10.00" fill="#000000">Board.hpp</text>
</a>
</g>
</g>
<!-- Node0&#45;&gt;Node3 -->
<g id="edge3" class="edge">
<title>Node0&#45;&gt;Node3</title>
<path fill="none" stroke="#191970" d="M419.3876,-224.2977C424.8822,-215.8498 431.7586,-205.2773 437.5527,-196.369"/>
<polygon fill="#191970" stroke="#191970" points="440.5772,-198.1381 443.0955,-187.8469 434.7092,-194.3215 440.5772,-198.1381"/>
</g>
<!-- Node17 -->
<g id="node18" class="node">
<title>Node17</title>
<g id="a_node18"><a xlink:href="_tic_tac_toe_8hpp.html" target="_top" xlink:title="TicTacToe.hpp">
<polygon fill="none" stroke="#000000" points="601.5,-168.5 601.5,-187.5 685.5,-187.5 685.5,-168.5 601.5,-168.5"/>
<text text-anchor="middle" x="643.5" y="-175.5" font-family="Helvetica,sans-Serif" font-size="10.00" fill="#000000">TicTacToe.hpp</text>
</a>
</g>
</g>
<!-- Node0&#45;&gt;Node17 -->
<g id="edge17" class="edge">
<title>Node0&#45;&gt;Node17</title>
<path fill="none" stroke="#191970" d="M466.7428,-224.4554C506.8138,-213.9239 559.6679,-200.0328 597.1099,-190.1923"/>
<polygon fill="#191970" stroke="#191970" points="598.4564,-193.4573 607.2383,-187.5303 596.6771,-186.6872 598.4564,-193.4573"/>
</g>
<!-- Node4 -->
<g id="node5" class="node">
<title>Node4</title>
<polygon fill="none" stroke="#bfbfbf" points="525.5,-112.5 525.5,-131.5 567.5,-131.5 567.5,-112.5 525.5,-112.5"/>
<text text-anchor="middle" x="546.5" y="-119.5" font-family="Helvetica,sans-Serif" font-size="10.00" fill="#000000">array</text>
</g>
<!-- Node3&#45;&gt;Node4 -->
<g id="edge4" class="edge">
<title>Node3&#45;&gt;Node4</title>
<path fill="none" stroke="#191970" d="M466.3961,-168.2455C481.418,-159.5731 503.6043,-146.7645 520.821,-136.825"/>
<polygon fill="#191970" stroke="#191970" points="522.8871,-139.6737 529.7975,-131.6427 519.3872,-133.6114 522.8871,-139.6737"/>
</g>
<!-- Node5 -->
<g id="node6" class="node">
<title>Node5</title>
<g id="a_node6"><a xlink:href="_position_8hpp.html" target="_top" xlink:title="../utils/Position.hpp">
<polygon fill="none" stroke="#000000" points="62.5,-112.5 62.5,-131.5 172.5,-131.5 172.5,-112.5 62.5,-112.5"/>
<text text-anchor="middle" x="117.5" y="-119.5" font-family="Helvetica,sans-Serif" font-size="10.00" fill="#000000">../utils/Position.hpp</text>
</a>
</g>
</g>
<!-- Node3&#45;&gt;Node5 -->
<g id="edge5" class="edge">
<title>Node3&#45;&gt;Node5</title>
<path fill="none" stroke="#191970" d="M416.0798,-169.7995C413.184,-169.1628 410.294,-168.5534 407.5,-168 330.567,-152.7629 241.364,-139.2261 182.425,-130.8492"/>
<polygon fill="#191970" stroke="#191970" points="182.8993,-127.3816 172.508,-129.4479 181.9198,-134.3127 182.8993,-127.3816"/>
</g>
<!-- Node8 -->
<g id="node9" class="node">
<title>Node8</title>
<g id="a_node9"><a xlink:href="_abstract_board_8hpp.html" target="_top" xlink:title="../AbstractBoard.hpp">
<polygon fill="none" stroke="#000000" points="391.5,-112.5 391.5,-131.5 507.5,-131.5 507.5,-112.5 391.5,-112.5"/>
<text text-anchor="middle" x="449.5" y="-119.5" font-family="Helvetica,sans-Serif" font-size="10.00" fill="#000000">../AbstractBoard.hpp</text>
</a>
</g>
</g>
<!-- Node3&#45;&gt;Node8 -->
<g id="edge8" class="edge">
<title>Node3&#45;&gt;Node8</title>
<path fill="none" stroke="#191970" d="M449.5,-168.2455C449.5,-160.9382 449.5,-150.6944 449.5,-141.7046"/>
<polygon fill="#191970" stroke="#191970" points="453.0001,-141.6426 449.5,-131.6427 446.0001,-141.6427 453.0001,-141.6426"/>
</g>
<!-- Node13 -->
<g id="node14" class="node">
<title>Node13</title>
<g id="a_node14"><a xlink:href="_player_8hpp.html" target="_top" xlink:title="Player.hpp">
<polygon fill="none" stroke="#000000" points="295.5,-112.5 295.5,-131.5 363.5,-131.5 363.5,-112.5 295.5,-112.5"/>
<text text-anchor="middle" x="329.5" y="-119.5" font-family="Helvetica,sans-Serif" font-size="10.00" fill="#000000">Player.hpp</text>
</a>
</g>
</g>
<!-- Node3&#45;&gt;Node13 -->
<g id="edge13" class="edge">
<title>Node3&#45;&gt;Node13</title>
<path fill="none" stroke="#191970" d="M428.8713,-168.3733C409.6081,-159.3838 380.6514,-145.8706 358.9581,-135.7471"/>
<polygon fill="#191970" stroke="#191970" points="360.4015,-132.5584 349.8595,-131.5011 357.4413,-138.9017 360.4015,-132.5584"/>
</g>
<!-- Node6 -->
<g id="node7" class="node">
<title>Node6</title>
<polygon fill="none" stroke="#bfbfbf" points="0,-56.5 0,-75.5 53,-75.5 53,-56.5 0,-56.5"/>
<text text-anchor="middle" x="26.5" y="-63.5" font-family="Helvetica,sans-Serif" font-size="10.00" fill="#000000">stdlib.h</text>
</g>
<!-- Node5&#45;&gt;Node6 -->
<g id="edge6" class="edge">
<title>Node5&#45;&gt;Node6</title>
<path fill="none" stroke="#191970" d="M101.649,-112.2455C87.6868,-103.6534 67.1272,-91.0014 51.0404,-81.1018"/>
<polygon fill="#191970" stroke="#191970" points="52.5203,-77.9029 42.1693,-75.6427 48.8516,-83.8645 52.5203,-77.9029"/>
</g>
<!-- Node7 -->
<g id="node8" class="node">
<title>Node7</title>
<polygon fill="none" stroke="#bfbfbf" points="71,-56.5 71,-75.5 164,-75.5 164,-56.5 71,-56.5"/>
<text text-anchor="middle" x="117.5" y="-63.5" font-family="Helvetica,sans-Serif" font-size="10.00" fill="#000000">unordered_map</text>
</g>
<!-- Node5&#45;&gt;Node7 -->
<g id="edge7" class="edge">
<title>Node5&#45;&gt;Node7</title>
<path fill="none" stroke="#191970" d="M117.5,-112.2455C117.5,-104.9382 117.5,-94.6944 117.5,-85.7046"/>
<polygon fill="#191970" stroke="#191970" points="121.0001,-85.6426 117.5,-75.6427 114.0001,-85.6427 121.0001,-85.6426"/>
</g>
<!-- Node9 -->
<g id="node10" class="node">
<title>Node9</title>
<polygon fill="none" stroke="#bfbfbf" points="616,-56.5 616,-75.5 663,-75.5 663,-56.5 616,-56.5"/>
<text text-anchor="middle" x="639.5" y="-63.5" font-family="Helvetica,sans-Serif" font-size="10.00" fill="#000000">vector</text>
</g>
<!-- Node8&#45;&gt;Node9 -->
<g id="edge9" class="edge">
<title>Node8&#45;&gt;Node9</title>
<path fill="none" stroke="#191970" d="M482.846,-112.4968C512.8607,-103.8976 558.4157,-90.7345 606.1733,-76.3671"/>
<polygon fill="#191970" stroke="#191970" points="607.187,-79.7172 615.7503,-73.4785 605.1656,-73.0154 607.187,-79.7172"/>
</g>
<!-- Node10 -->
<g id="node11" class="node">
<title>Node10</title>
<g id="a_node11"><a xlink:href="_history_8hpp.html" target="_top" xlink:title="History.hpp">
<polygon fill="none" stroke="#000000" points="527,-56.5 527,-75.5 598,-75.5 598,-56.5 527,-56.5"/>
<text text-anchor="middle" x="562.5" y="-63.5" font-family="Helvetica,sans-Serif" font-size="10.00" fill="#000000">History.hpp</text>
</a>
</g>
</g>
<!-- Node8&#45;&gt;Node10 -->
<g id="edge10" class="edge">
<title>Node8&#45;&gt;Node10</title>
<path fill="none" stroke="#191970" d="M468.9254,-112.3733C486.9021,-103.4644 513.8441,-90.1127 534.209,-80.0203"/>
<polygon fill="#191970" stroke="#191970" points="535.9222,-83.0776 543.3281,-75.5011 532.8139,-76.8055 535.9222,-83.0776"/>
</g>
<!-- Node11 -->
<g id="node12" class="node">
<title>Node11</title>
<polygon fill="none" stroke="#bfbfbf" points="541,-.5 541,-19.5 584,-19.5 584,-.5 541,-.5"/>
<text text-anchor="middle" x="562.5" y="-7.5" font-family="Helvetica,sans-Serif" font-size="10.00" fill="#000000">stack</text>
</g>
<!-- Node10&#45;&gt;Node11 -->
<g id="edge11" class="edge">
<title>Node10&#45;&gt;Node11</title>
<path fill="none" stroke="#191970" d="M562.5,-56.2455C562.5,-48.9382 562.5,-38.6944 562.5,-29.7046"/>
<polygon fill="#191970" stroke="#191970" points="566.0001,-29.6426 562.5,-19.6427 559.0001,-29.6427 566.0001,-29.6426"/>
</g>
<!-- Node12 -->
<g id="node13" class="node">
<title>Node12</title>
<g id="a_node13"><a xlink:href="_move_8hpp.html" target="_top" xlink:title="utils/Move.hpp">
<polygon fill="none" stroke="#000000" points="647.5,-.5 647.5,-19.5 735.5,-19.5 735.5,-.5 647.5,-.5"/>
<text text-anchor="middle" x="691.5" y="-7.5" font-family="Helvetica,sans-Serif" font-size="10.00" fill="#000000">utils/Move.hpp</text>
</a>
</g>
</g>
<!-- Node10&#45;&gt;Node12 -->
<g id="edge12" class="edge">
<title>Node10&#45;&gt;Node12</title>
<path fill="none" stroke="#191970" d="M584.6759,-56.3733C605.4766,-47.3435 636.7917,-33.7494 660.1458,-23.6111"/>
<polygon fill="#191970" stroke="#191970" points="661.8343,-26.6938 669.6135,-19.5011 659.0468,-20.2727 661.8343,-26.6938"/>
</g>
<!-- Node14 -->
<g id="node15" class="node">
<title>Node14</title>
<polygon fill="none" stroke="#bfbfbf" points="182.5,-56.5 182.5,-75.5 242.5,-75.5 242.5,-56.5 182.5,-56.5"/>
<text text-anchor="middle" x="212.5" y="-63.5" font-family="Helvetica,sans-Serif" font-size="10.00" fill="#000000">iostream</text>
</g>
<!-- Node13&#45;&gt;Node14 -->
<g id="edge14" class="edge">
<title>Node13&#45;&gt;Node14</title>
<path fill="none" stroke="#191970" d="M309.387,-112.3733C290.6897,-103.4241 262.6256,-89.9917 241.5066,-79.8835"/>
<polygon fill="#191970" stroke="#191970" points="242.8817,-76.6614 232.3506,-75.5011 239.8595,-82.9755 242.8817,-76.6614"/>
</g>
<!-- Node15 -->
<g id="node16" class="node">
<title>Node15</title>
<g id="a_node16"><a xlink:href="_abstract_player_8hpp.html" target="_top" xlink:title="../AbstractPlayer.hpp">
<polygon fill="none" stroke="#000000" points="261,-56.5 261,-75.5 378,-75.5 378,-56.5 261,-56.5"/>
<text text-anchor="middle" x="319.5" y="-63.5" font-family="Helvetica,sans-Serif" font-size="10.00" fill="#000000">../AbstractPlayer.hpp</text>
</a>
</g>
</g>
<!-- Node13&#45;&gt;Node15 -->
<g id="edge15" class="edge">
<title>Node13&#45;&gt;Node15</title>
<path fill="none" stroke="#191970" d="M327.7581,-112.2455C326.4533,-104.9382 324.624,-94.6944 323.0187,-85.7046"/>
<polygon fill="#191970" stroke="#191970" points="326.4254,-84.8717 321.2219,-75.6427 319.5344,-86.1022 326.4254,-84.8717"/>
</g>
<!-- Node16 -->
<g id="node17" class="node">
<title>Node16</title>
<g id="a_node17"><a xlink:href="_abstract_pawn_8hpp.html" target="_top" xlink:title="../AbstractPawn.hpp">
<polygon fill="none" stroke="#000000" points="396,-56.5 396,-75.5 509,-75.5 509,-56.5 396,-56.5"/>
<text text-anchor="middle" x="452.5" y="-63.5" font-family="Helvetica,sans-Serif" font-size="10.00" fill="#000000">../AbstractPawn.hpp</text>
</a>
</g>
</g>
<!-- Node13&#45;&gt;Node16 -->
<g id="edge16" class="edge">
<title>Node13&#45;&gt;Node16</title>
<path fill="none" stroke="#191970" d="M350.6445,-112.3733C370.3892,-103.3838 400.0698,-89.8706 422.3055,-79.7471"/>
<polygon fill="#191970" stroke="#191970" points="423.9806,-82.8302 431.6315,-75.5011 421.08,-76.4594 423.9806,-82.8302"/>
</g>
<!-- Node17&#45;&gt;Node12 -->
<g id="edge18" class="edge">
<title>Node17&#45;&gt;Node12</title>
<path fill="none" stroke="#191970" d="M667.9712,-168.3462C683.2107,-160.9011 701.5612,-148.9799 710.5,-132 728.0526,-98.6577 712.5422,-53.5833 701.0982,-28.6086"/>
<polygon fill="#191970" stroke="#191970" points="704.2034,-26.9903 696.6967,-19.5137 697.9025,-30.0397 704.2034,-26.9903"/>
</g>
<!-- Node18 -->
<g id="node19" class="node">
<title>Node18</title>
<g id="a_node19"><a xlink:href="_abstract_game_8hpp.html" target="_top" xlink:title="../AbstractGame.hpp">
<polygon fill="none" stroke="#000000" points="585.5,-112.5 585.5,-131.5 701.5,-131.5 701.5,-112.5 585.5,-112.5"/>
<text text-anchor="middle" x="643.5" y="-119.5" font-family="Helvetica,sans-Serif" font-size="10.00" fill="#000000">../AbstractGame.hpp</text>
</a>
</g>
</g>
<!-- Node17&#45;&gt;Node18 -->
<g id="edge19" class="edge">
<title>Node17&#45;&gt;Node18</title>
<path fill="none" stroke="#191970" d="M643.5,-168.2455C643.5,-160.9382 643.5,-150.6944 643.5,-141.7046"/>
<polygon fill="#191970" stroke="#191970" points="647.0001,-141.6426 643.5,-131.6427 640.0001,-141.6427 647.0001,-141.6426"/>
</g>
<!-- Node18&#45;&gt;Node9 -->
<g id="edge20" class="edge">
<title>Node18&#45;&gt;Node9</title>
<path fill="none" stroke="#191970" d="M642.8033,-112.2455C642.2813,-104.9382 641.5496,-94.6944 640.9075,-85.7046"/>
<polygon fill="#191970" stroke="#191970" points="644.3924,-85.3679 640.1888,-75.6427 637.4102,-85.8667 644.3924,-85.3679"/>
</g>
<!-- Node18&#45;&gt;Node12 -->
<g id="edge21" class="edge">
<title>Node18&#45;&gt;Node12</title>
<path fill="none" stroke="#191970" d="M650.8106,-112.2298C657.2667,-103.2183 666.5532,-89.2668 672.5,-76 679.2062,-61.0392 684.1897,-43.1095 687.3664,-29.7161"/>
<polygon fill="#191970" stroke="#191970" points="690.8401,-30.2203 689.6081,-19.6973 684.009,-28.6918 690.8401,-30.2203"/>
</g>
</g>
</svg>
