<?xml version="1.0" encoding="UTF-8" standalone="no"?>
<!DOCTYPE svg PUBLIC "-//W3C//DTD SVG 1.1//EN"
 "http://www.w3.org/Graphics/SVG/1.1/DTD/svg11.dtd">
<!-- Generated by graphviz version 2.40.1 (20161225.0304)
 -->
<!-- Title: /workspace/src/mcts/Tree.hpp Pages: 1 -->
<svg width="791pt" height="162pt"
 viewBox="0.00 0.00 791.00 162.00" xmlns="http://www.w3.org/2000/svg" xmlns:xlink="http://www.w3.org/1999/xlink">
<g id="graph0" class="graph" transform="scale(1 1) rotate(0) translate(4 158)">
<title>/workspace/src/mcts/Tree.hpp</title>
<!-- Node0 -->
<g id="node1" class="node">
<title>Node0</title>
<polygon fill="#bfbfbf" stroke="#000000" points="233,-123.5 233,-153.5 349,-153.5 349,-123.5 233,-123.5"/>
<text text-anchor="start" x="241" y="-141.5" font-family="Helvetica,sans-Serif" font-size="10.00" fill="#000000">/workspace/src/mcts</text>
<text text-anchor="middle" x="291" y="-130.5" font-family="Helvetica,sans-Serif" font-size="10.00" fill="#000000">/Tree.hpp</text>
</g>
<!-- Node1 -->
<g id="node2" class="node">
<title>Node1</title>
<polygon fill="none" stroke="#bfbfbf" points="0,-62 0,-81 50,-81 50,-62 0,-62"/>
<text text-anchor="middle" x="25" y="-69" font-family="Helvetica,sans-Serif" font-size="10.00" fill="#000000">chrono</text>
</g>
<!-- Node0&#45;&gt;Node1 -->
<g id="edge1" class="edge">
<title>Node0&#45;&gt;Node1</title>
<path fill="none" stroke="#191970" d="M232.8826,-129.0875C185.3965,-120.5705 116.9028,-106.387 59,-87 57.1545,-86.3821 55.2747,-85.6962 53.3938,-84.9666"/>
<polygon fill="#191970" stroke="#191970" points="54.7106,-81.7235 44.1361,-81.0686 51.9942,-88.175 54.7106,-81.7235"/>
</g>
<!-- Node2 -->
<g id="node3" class="node">
<title>Node2</title>
<polygon fill="none" stroke="#bfbfbf" points="68.5,-62 68.5,-81 119.5,-81 119.5,-62 68.5,-62"/>
<text text-anchor="middle" x="94" y="-69" font-family="Helvetica,sans-Serif" font-size="10.00" fill="#000000">math.h</text>
</g>
<!-- Node0&#45;&gt;Node2 -->
<g id="edge2" class="edge">
<title>Node0&#45;&gt;Node2</title>
<path fill="none" stroke="#191970" d="M237.5824,-123.411C205.4839,-113.9033 164.0132,-100.8391 128,-87 126.418,-86.3921 124.8048,-85.7468 123.1832,-85.0781"/>
<polygon fill="#191970" stroke="#191970" points="124.5314,-81.8479 113.9637,-81.0899 121.7521,-88.2726 124.5314,-81.8479"/>
</g>
<!-- Node3 -->
<g id="node4" class="node">
<title>Node3</title>
<polygon fill="none" stroke="#bfbfbf" points="137.5,-62 137.5,-81 184.5,-81 184.5,-62 137.5,-62"/>
<text text-anchor="middle" x="161" y="-69" font-family="Helvetica,sans-Serif" font-size="10.00" fill="#000000">queue</text>
</g>
<!-- Node0&#45;&gt;Node3 -->
<g id="edge3" class="edge">
<title>Node0&#45;&gt;Node3</title>
<path fill="none" stroke="#191970" d="M261.8255,-123.4639C239.9149,-112.1715 210.1062,-96.8086 188.5895,-85.7192"/>
<polygon fill="#191970" stroke="#191970" points="190.1268,-82.5741 179.6345,-81.1039 186.9199,-88.7963 190.1268,-82.5741"/>
</g>
<!-- Node4 -->
<g id="node5" class="node">
<title>Node4</title>
<g id="a_node5"><a xlink:href="_abstract_player_8hpp.html" target="_top" xlink:title="../game_logic/AbstractPlayer.hpp">
<polygon fill="none" stroke="#000000" points="203,-62 203,-81 379,-81 379,-62 203,-62"/>
<text text-anchor="middle" x="291" y="-69" font-family="Helvetica,sans-Serif" font-size="10.00" fill="#000000">../game_logic/AbstractPlayer.hpp</text>
</a>
</g>
</g>
<!-- Node0&#45;&gt;Node4 -->
<g id="edge4" class="edge">
<title>Node0&#45;&gt;Node4</title>
<path fill="none" stroke="#191970" d="M291,-123.2967C291,-113.7699 291,-101.3954 291,-91.1306"/>
<polygon fill="#191970" stroke="#191970" points="294.5001,-91.0549 291,-81.055 287.5001,-91.055 294.5001,-91.0549"/>
</g>
<!-- Node5 -->
<g id="node6" class="node">
<title>Node5</title>
<g id="a_node6"><a xlink:href="_abstract_game_8hpp.html" target="_top" xlink:title="../game_logic/AbstractGame.hpp">
<polygon fill="none" stroke="#000000" points="397,-62 397,-81 573,-81 573,-62 397,-62"/>
<text text-anchor="middle" x="485" y="-69" font-family="Helvetica,sans-Serif" font-size="10.00" fill="#000000">../game_logic/AbstractGame.hpp</text>
</a>
</g>
</g>
<!-- Node0&#45;&gt;Node5 -->
<g id="edge5" class="edge">
<title>Node0&#45;&gt;Node5</title>
<path fill="none" stroke="#191970" d="M334.5374,-123.4639C368.6556,-111.6808 415.6068,-95.4657 447.9419,-84.2984"/>
<polygon fill="#191970" stroke="#191970" points="449.1676,-87.578 457.4772,-81.0053 446.8825,-80.9615 449.1676,-87.578"/>
</g>
<!-- Node7 -->
<g id="node8" class="node">
<title>Node7</title>
<g id="a_node8"><a xlink:href="_move_8hpp.html" target="_top" xlink:title="utils/Move.hpp">
<polygon fill="none" stroke="#000000" points="542,-.5 542,-19.5 630,-19.5 630,-.5 542,-.5"/>
<text text-anchor="middle" x="586" y="-7.5" font-family="Helvetica,sans-Serif" font-size="10.00" fill="#000000">utils/Move.hpp</text>
</a>
</g>
</g>
<!-- Node0&#45;&gt;Node7 -->
<g id="edge9" class="edge">
<title>Node0&#45;&gt;Node7</title>
<path fill="none" stroke="#191970" d="M349.0866,-136.5006C425.052,-132.5522 552.0167,-120.9271 582,-87 595.5979,-71.6135 594.336,-47.0193 591.1402,-29.7767"/>
<polygon fill="#191970" stroke="#191970" points="594.4823,-28.6816 588.8976,-19.6782 587.6488,-30.1991 594.4823,-28.6816"/>
</g>
<!-- Node8 -->
<g id="node9" class="node">
<title>Node8</title>
<g id="a_node9"><a xlink:href="_abstract_board_cell_8hpp.html" target="_top" xlink:title="../game_logic/AbstractBoard\lCell.hpp">
<polygon fill="none" stroke="#000000" points="629,-56.5 629,-86.5 783,-86.5 783,-56.5 629,-56.5"/>
<text text-anchor="start" x="637" y="-74.5" font-family="Helvetica,sans-Serif" font-size="10.00" fill="#000000">../game_logic/AbstractBoard</text>
<text text-anchor="middle" x="706" y="-63.5" font-family="Helvetica,sans-Serif" font-size="10.00" fill="#000000">Cell.hpp</text>
</a>
</g>
</g>
<!-- Node0&#45;&gt;Node8 -->
<g id="edge8" class="edge">
<title>Node0&#45;&gt;Node8</title>
<path fill="none" stroke="#191970" d="M349.2681,-129.4373C414.1523,-119.2991 522.1301,-102.2896 615,-87 616.1069,-86.8178 617.2214,-86.6339 618.3421,-86.4486"/>
<polygon fill="#191970" stroke="#191970" points="619.2733,-89.842 628.5641,-84.7496 618.1255,-82.9367 619.2733,-89.842"/>
</g>
<!-- Node6 -->
<g id="node7" class="node">
<title>Node6</title>
<polygon fill="none" stroke="#bfbfbf" points="461.5,-.5 461.5,-19.5 508.5,-19.5 508.5,-.5 461.5,-.5"/>
<text text-anchor="middle" x="485" y="-7.5" font-family="Helvetica,sans-Serif" font-size="10.00" fill="#000000">vector</text>
</g>
<!-- Node5&#45;&gt;Node6 -->
<g id="edge6" class="edge">
<title>Node5&#45;&gt;Node6</title>
<path fill="none" stroke="#191970" d="M485,-61.8906C485,-53.3657 485,-40.6392 485,-29.9235"/>
<polygon fill="#191970" stroke="#191970" points="488.5001,-29.7448 485,-19.7449 481.5001,-29.7449 488.5001,-29.7448"/>
</g>
<!-- Node5&#45;&gt;Node7 -->
<g id="edge7" class="edge">
<title>Node5&#45;&gt;Node7</title>
<path fill="none" stroke="#191970" d="M500.7813,-61.8906C517.0875,-51.9616 542.754,-36.333 561.6614,-24.8201"/>
<polygon fill="#191970" stroke="#191970" points="563.6087,-27.7322 570.3296,-19.5419 559.9681,-21.7533 563.6087,-27.7322"/>
</g>
</g>
</svg>
