<?xml version="1.0" encoding="UTF-8" standalone="no"?>
<!DOCTYPE svg PUBLIC "-//W3C//DTD SVG 1.1//EN"
 "http://www.w3.org/Graphics/SVG/1.1/DTD/svg11.dtd">
<!-- Generated by graphviz version 2.40.1 (20161225.0304)
 -->
<!-- Title: /workspace/src/mcts/Tree.hpp Pages: 1 -->
<svg width="711pt" height="262pt"
 viewBox="0.00 0.00 710.50 262.00" xmlns="http://www.w3.org/2000/svg" xmlns:xlink="http://www.w3.org/1999/xlink">
<g id="graph0" class="graph" transform="scale(1 1) rotate(0) translate(4 258)">
<title>/workspace/src/mcts/Tree.hpp</title>
<!-- Node9 -->
<g id="node1" class="node">
<title>Node9</title>
<polygon fill="#bfbfbf" stroke="#000000" points="409.5,-223.5 409.5,-253.5 525.5,-253.5 525.5,-223.5 409.5,-223.5"/>
<text text-anchor="start" x="417.5" y="-241.5" font-family="Helvetica,sans-Serif" font-size="10.00" fill="#000000">/workspace/src/mcts</text>
<text text-anchor="middle" x="467.5" y="-230.5" font-family="Helvetica,sans-Serif" font-size="10.00" fill="#000000">/Tree.hpp</text>
</g>
<!-- Node10 -->
<g id="node2" class="node">
<title>Node10</title>
<g id="a_node2"><a xlink:href="_m_c_t_s_player_8hpp.html" target="_top" xlink:title="/workspace/src/mcts\l/MCTSPlayer.hpp">
<polygon fill="none" stroke="#000000" points="249.5,-156.5 249.5,-186.5 365.5,-186.5 365.5,-156.5 249.5,-156.5"/>
<text text-anchor="start" x="257.5" y="-174.5" font-family="Helvetica,sans-Serif" font-size="10.00" fill="#000000">/workspace/src/mcts</text>
<text text-anchor="middle" x="307.5" y="-163.5" font-family="Helvetica,sans-Serif" font-size="10.00" fill="#000000">/MCTSPlayer.hpp</text>
</a>
</g>
</g>
<!-- Node9&#45;&gt;Node10 -->
<g id="edge1" class="edge">
<title>Node9&#45;&gt;Node10</title>
<path fill="none" stroke="#191970" d="M422.341,-219.5897C397.4147,-209.1518 366.8801,-196.3654 343.5637,-186.6017"/>
<polygon fill="#191970" stroke="#191970" points="421.017,-222.8297 431.5929,-223.4639 423.7208,-216.3729 421.017,-222.8297"/>
</g>
<!-- Node15 -->
<g id="node7" class="node">
<title>Node15</title>
<g id="a_node7"><a xlink:href="_m_c_t_s_player_8cpp.html" target="_top" xlink:title="/workspace/src/mcts\l/MCTSPlayer.cpp">
<polygon fill="none" stroke="#000000" points="397.5,-84 397.5,-114 513.5,-114 513.5,-84 397.5,-84"/>
<text text-anchor="start" x="405.5" y="-102" font-family="Helvetica,sans-Serif" font-size="10.00" fill="#000000">/workspace/src/mcts</text>
<text text-anchor="middle" x="455.5" y="-91" font-family="Helvetica,sans-Serif" font-size="10.00" fill="#000000">/MCTSPlayer.cpp</text>
</a>
</g>
</g>
<!-- Node9&#45;&gt;Node15 -->
<g id="edge11" class="edge">
<title>Node9&#45;&gt;Node15</title>
<path fill="none" stroke="#191970" d="M453.6669,-214.4825C449.5461,-206.0695 445.5775,-196.3763 443.5,-187 437.8963,-161.7092 444.8154,-131.7141 450.2345,-114.081"/>
<polygon fill="#191970" stroke="#191970" points="450.5645,-216.1029 458.2913,-223.3519 456.7715,-212.8666 450.5645,-216.1029"/>
</g>
<!-- Node16 -->
<g id="node8" class="node">
<title>Node16</title>
<g id="a_node8"><a xlink:href="_m_c_t_s_8hpp.html" target="_top" xlink:title="/workspace/src/mcts\l/MCTS.hpp">
<polygon fill="none" stroke="#000000" points="452.5,-156.5 452.5,-186.5 568.5,-186.5 568.5,-156.5 452.5,-156.5"/>
<text text-anchor="start" x="460.5" y="-174.5" font-family="Helvetica,sans-Serif" font-size="10.00" fill="#000000">/workspace/src/mcts</text>
<text text-anchor="middle" x="510.5" y="-163.5" font-family="Helvetica,sans-Serif" font-size="10.00" fill="#000000">/MCTS.hpp</text>
</a>
</g>
</g>
<!-- Node9&#45;&gt;Node16 -->
<g id="edge8" class="edge">
<title>Node9&#45;&gt;Node16</title>
<path fill="none" stroke="#191970" d="M482.7275,-214.7735C488.7334,-205.4154 495.4551,-194.9421 500.7812,-186.6432"/>
<polygon fill="#191970" stroke="#191970" points="479.7131,-212.9903 477.2574,-223.2967 485.6042,-216.7712 479.7131,-212.9903"/>
</g>
<!-- Node18 -->
<g id="node10" class="node">
<title>Node18</title>
<g id="a_node10"><a xlink:href="_tree_8cpp.html" target="_top" xlink:title="/workspace/src/mcts\l/Tree.cpp">
<polygon fill="none" stroke="#000000" points="586.5,-156.5 586.5,-186.5 702.5,-186.5 702.5,-156.5 586.5,-156.5"/>
<text text-anchor="start" x="594.5" y="-174.5" font-family="Helvetica,sans-Serif" font-size="10.00" fill="#000000">/workspace/src/mcts</text>
<text text-anchor="middle" x="644.5" y="-163.5" font-family="Helvetica,sans-Serif" font-size="10.00" fill="#000000">/Tree.cpp</text>
</a>
</g>
</g>
<!-- Node9&#45;&gt;Node18 -->
<g id="edge12" class="edge">
<title>Node9&#45;&gt;Node18</title>
<path fill="none" stroke="#191970" d="M516.7298,-219.865C544.436,-209.3773 578.5835,-196.4515 604.6045,-186.6017"/>
<polygon fill="#191970" stroke="#191970" points="515.3356,-216.6503 507.2223,-223.4639 517.8137,-223.197 515.3356,-216.6503"/>
</g>
<!-- Node11 -->
<g id="node3" class="node">
<title>Node11</title>
<g id="a_node3"><a xlink:href="penguin_2_console_game_8cpp.html" target="_top" xlink:title="/workspace/src/game\l_logic/penguin/ConsoleGame.cpp">
<polygon fill="none" stroke="#000000" points="0,-84 0,-114 179,-114 179,-84 0,-84"/>
<text text-anchor="start" x="8" y="-102" font-family="Helvetica,sans-Serif" font-size="10.00" fill="#000000">/workspace/src/game</text>
<text text-anchor="middle" x="89.5" y="-91" font-family="Helvetica,sans-Serif" font-size="10.00" fill="#000000">_logic/penguin/ConsoleGame.cpp</text>
</a>
</g>
</g>
<!-- Node10&#45;&gt;Node11 -->
<g id="edge2" class="edge">
<title>Node10&#45;&gt;Node11</title>
<path fill="none" stroke="#191970" d="M252.8272,-153.3175C216.3405,-141.1832 168.9423,-125.42 134.6119,-114.0028"/>
<polygon fill="#191970" stroke="#191970" points="251.7367,-156.6433 262.3303,-156.478 253.9458,-150.001 251.7367,-156.6433"/>
</g>
<!-- Node12 -->
<g id="node4" class="node">
<title>Node12</title>
<g id="a_node4"><a xlink:href="tic__tac__toe_2_console_game_8cpp.html" target="_top" xlink:title="/workspace/src/game\l_logic/tic_tac_toe/Console\lGame.cpp">
<polygon fill="none" stroke="#000000" points="136,-.5 136,-41.5 279,-41.5 279,-.5 136,-.5"/>
<text text-anchor="start" x="144" y="-29.5" font-family="Helvetica,sans-Serif" font-size="10.00" fill="#000000">/workspace/src/game</text>
<text text-anchor="start" x="144" y="-18.5" font-family="Helvetica,sans-Serif" font-size="10.00" fill="#000000">_logic/tic_tac_toe/Console</text>
<text text-anchor="middle" x="207.5" y="-7.5" font-family="Helvetica,sans-Serif" font-size="10.00" fill="#000000">Game.cpp</text>
</a>
</g>
</g>
<!-- Node10&#45;&gt;Node12 -->
<g id="edge3" class="edge">
<title>Node10&#45;&gt;Node12</title>
<path fill="none" stroke="#191970" d="M262.3116,-151.5869C248.8935,-143.5941 235.4148,-133.1138 226.5,-120 210.5606,-96.5529 207.186,-63.1363 206.8567,-41.7573"/>
<polygon fill="#191970" stroke="#191970" points="260.6351,-154.6594 271.0719,-156.4827 264.0501,-148.5489 260.6351,-154.6594"/>
</g>
<!-- Node13 -->
<g id="node5" class="node">
<title>Node13</title>
<g id="a_node5"><a xlink:href="tic__tac__toe_2_console_game_8hpp.html" target="_top" xlink:title="/workspace/src/game\l_logic/tic_tac_toe/Console\lGame.hpp">
<polygon fill="none" stroke="#000000" points="236,-78.5 236,-119.5 379,-119.5 379,-78.5 236,-78.5"/>
<text text-anchor="start" x="244" y="-107.5" font-family="Helvetica,sans-Serif" font-size="10.00" fill="#000000">/workspace/src/game</text>
<text text-anchor="start" x="244" y="-96.5" font-family="Helvetica,sans-Serif" font-size="10.00" fill="#000000">_logic/tic_tac_toe/Console</text>
<text text-anchor="middle" x="307.5" y="-85.5" font-family="Helvetica,sans-Serif" font-size="10.00" fill="#000000">Game.hpp</text>
</a>
</g>
</g>
<!-- Node10&#45;&gt;Node13 -->
<g id="edge4" class="edge">
<title>Node10&#45;&gt;Node13</title>
<path fill="none" stroke="#191970" d="M307.5,-146.4016C307.5,-137.6173 307.5,-127.8652 307.5,-119.5015"/>
<polygon fill="#191970" stroke="#191970" points="304.0001,-146.4779 307.5,-156.478 311.0001,-146.478 304.0001,-146.4779"/>
</g>
<!-- Node10&#45;&gt;Node15 -->
<g id="edge7" class="edge">
<title>Node10&#45;&gt;Node15</title>
<path fill="none" stroke="#191970" d="M347.1722,-152.066C371.5687,-140.115 402.3602,-125.0313 424.8736,-114.0028"/>
<polygon fill="#191970" stroke="#191970" points="345.6064,-148.9356 338.1657,-156.478 348.6858,-155.2219 345.6064,-148.9356"/>
</g>
<!-- Node13&#45;&gt;Node12 -->
<g id="edge5" class="edge">
<title>Node13&#45;&gt;Node12</title>
<path fill="none" stroke="#191970" d="M272.8108,-71.9424C260.0178,-61.9639 245.7449,-50.831 233.8126,-41.5239"/>
<polygon fill="#191970" stroke="#191970" points="270.9267,-74.9116 280.9644,-78.3022 275.232,-69.3921 270.9267,-74.9116"/>
</g>
<!-- Node14 -->
<g id="node6" class="node">
<title>Node14</title>
<g id="a_node6"><a xlink:href="main_8cpp.html" target="_top" xlink:title="/workspace/src/main.cpp">
<polygon fill="none" stroke="#000000" points="297,-11.5 297,-30.5 434,-30.5 434,-11.5 297,-11.5"/>
<text text-anchor="middle" x="365.5" y="-18.5" font-family="Helvetica,sans-Serif" font-size="10.00" fill="#000000">/workspace/src/main.cpp</text>
</a>
</g>
</g>
<!-- Node13&#45;&gt;Node14 -->
<g id="edge6" class="edge">
<title>Node13&#45;&gt;Node14</title>
<path fill="none" stroke="#191970" d="M329.1924,-69.8275C339.4176,-56.0763 350.9394,-40.5815 358.2075,-30.8072"/>
<polygon fill="#191970" stroke="#191970" points="326.2014,-67.9843 323.0429,-78.0974 331.8186,-72.1613 326.2014,-67.9843"/>
</g>
<!-- Node16&#45;&gt;Node15 -->
<g id="edge10" class="edge">
<title>Node16&#45;&gt;Node15</title>
<path fill="none" stroke="#191970" d="M492.9336,-148.3443C484.4035,-137.1 474.4002,-123.9139 466.8814,-114.0028"/>
<polygon fill="#191970" stroke="#191970" points="490.2716,-150.6264 499.104,-156.478 495.8485,-146.3957 490.2716,-150.6264"/>
</g>
<!-- Node17 -->
<g id="node9" class="node">
<title>Node17</title>
<g id="a_node9"><a xlink:href="_m_c_t_s_8cpp.html" target="_top" xlink:title="/workspace/src/mcts\l/MCTS.cpp">
<polygon fill="none" stroke="#000000" points="531.5,-84 531.5,-114 647.5,-114 647.5,-84 531.5,-84"/>
<text text-anchor="start" x="539.5" y="-102" font-family="Helvetica,sans-Serif" font-size="10.00" fill="#000000">/workspace/src/mcts</text>
<text text-anchor="middle" x="589.5" y="-91" font-family="Helvetica,sans-Serif" font-size="10.00" fill="#000000">/MCTS.cpp</text>
</a>
</g>
</g>
<!-- Node16&#45;&gt;Node17 -->
<g id="edge9" class="edge">
<title>Node16&#45;&gt;Node17</title>
<path fill="none" stroke="#191970" d="M534.3004,-149.6579C546.8517,-138.1393 561.9289,-124.3026 573.1521,-114.0028"/>
<polygon fill="#191970" stroke="#191970" points="531.87,-147.1378 526.8689,-156.478 536.6031,-152.2951 531.87,-147.1378"/>
</g>
</g>
</svg>
