<?xml version="1.0" encoding="UTF-8" standalone="no"?>
<!DOCTYPE svg PUBLIC "-//W3C//DTD SVG 1.1//EN"
 "http://www.w3.org/Graphics/SVG/1.1/DTD/svg11.dtd">
<!-- Generated by graphviz version 2.40.1 (20161225.0304)
 -->
<!-- Title: /workspace/src/mcts/Tree.cpp Pages: 1 -->
<!--zoomable 218 -->
<svg id="main" version="1.1" xmlns="http://www.w3.org/2000/svg" xmlns:xlink="http://www.w3.org/1999/xlink" xml:space="preserve" onload="init(evt)">
<style type="text/css"><![CDATA[
.edge:hover path { stroke: red; }
.edge:hover polygon { stroke: red; fill: red; }
]]></style>
<script type="text/javascript"><![CDATA[
var edges = document.getElementsByTagName('g');
if (edges && edges.length) {
  for (var i=0;i<edges.length;i++) {
    if (edges[i].id.substr(0,4)=='edge') {
      edges[i].setAttribute('class','edge');
    }
  }
}
]]></script>
        <defs>
                <circle id="rim" cx="0" cy="0" r="7"/>
                <circle id="rim2" cx="0" cy="0" r="3.5"/>
                <g id="zoomPlus">
                        <use xlink:href="#rim" fill="#404040">
                                <set attributeName="fill" to="#808080" begin="zoomplus.mouseover" end="zoomplus.mouseout"/>
                        </use>
                        <path d="M-4,0h8M0,-4v8" fill="none" stroke="white" stroke-width="1.5" pointer-events="none"/>
                </g>
                <g id="zoomMin">
                        <use xlink:href="#rim" fill="#404040">
                                <set attributeName="fill" to="#808080" begin="zoomminus.mouseover" end="zoomminus.mouseout"/>
                        </use>
                        <path d="M-4,0h8" fill="none" stroke="white" stroke-width="1.5" pointer-events="none"/>
                </g>
                <g id="dirArrow">
                        <path fill="none" stroke="white" stroke-width="1.5" d="M0,-3.0v7 M-2.5,-0.5L0,-3.0L2.5,-0.5"/>
                </g>
               <g id="resetDef">
                       <use xlink:href="#rim2" fill="#404040">
                               <set attributeName="fill" to="#808080" begin="reset.mouseover" end="reset.mouseout"/>
                       </use>
               </g>
        </defs>

<script type="text/javascript">
var viewWidth = 1212;
var viewHeight = 218;
var sectionId = 'dynsection-0';
</script>
<script xlink:href="svgpan.js"/>
<svg id="graph" class="graph">
<g id="viewport">
<title>/workspace/src/mcts/Tree.cpp</title>
<!-- Node0 -->
<g id="node1" class="node">
<title>Node0</title>
<polygon fill="#bfbfbf" stroke="#000000" points="472,-179.5 472,-209.5 588,-209.5 588,-179.5 472,-179.5"/>
<text text-anchor="start" x="480" y="-197.5" font-family="Helvetica,sans-Serif" font-size="10.00" fill="#000000">/workspace/src/mcts</text>
<text text-anchor="middle" x="530" y="-186.5" font-family="Helvetica,sans-Serif" font-size="10.00" fill="#000000">/Tree.cpp</text>
</g>
<!-- Node1 -->
<g id="node2" class="node">
<title>Node1</title>
<polygon fill="none" stroke="#bfbfbf" points="0,-118 0,-137 64,-137 64,-118 0,-118"/>
<text text-anchor="middle" x="32" y="-125" font-family="Helvetica,sans-Serif" font-size="10.00" fill="#000000">algorithm</text>
</g>
<!-- Node0&#45;&gt;Node1 -->
<g id="edge1" class="edge">
<title>Node0&#45;&gt;Node1</title>
<path fill="none" stroke="#191970" d="M471.845,-192.5761C384.2347,-188.6438 213.675,-176.9532 73,-143 69.9902,-142.2736 66.9015,-141.3865 63.8349,-140.4082"/>
<polygon fill="#191970" stroke="#191970" points="64.8338,-137.0499 54.239,-137.0577 62.5263,-143.6586 64.8338,-137.0499"/>
</g>
<!-- Node2 -->
<g id="node3" class="node">
<title>Node2</title>
<polygon fill="none" stroke="#bfbfbf" points="82,-118 82,-137 138,-137 138,-118 82,-118"/>
<text text-anchor="middle" x="110" y="-125" font-family="Helvetica,sans-Serif" font-size="10.00" fill="#000000">assert.h</text>
</g>
<!-- Node0&#45;&gt;Node2 -->
<g id="edge2" class="edge">
<title>Node0&#45;&gt;Node2</title>
<path fill="none" stroke="#191970" d="M471.9627,-191.4507C396.1083,-186.3923 259.6584,-173.596 147,-143 144.53,-142.3292 142.0067,-141.5316 139.4963,-140.6573"/>
<polygon fill="#191970" stroke="#191970" points="140.6076,-137.3349 130.0177,-137.0123 138.095,-143.8684 140.6076,-137.3349"/>
</g>
<!-- Node3 -->
<g id="node4" class="node">
<title>Node3</title>
<g id="a_node4"><a xlink:href="_abstract_game_8hpp.html" target="_top" xlink:title="../game_logic/AbstractGame.hpp">
<polygon fill="none" stroke="#000000" points="162,-56.5 162,-75.5 338,-75.5 338,-56.5 162,-56.5"/>
<text text-anchor="middle" x="250" y="-63.5" font-family="Helvetica,sans-Serif" font-size="10.00" fill="#000000">../game_logic/AbstractGame.hpp</text>
</a>
</g>
</g>
<!-- Node0&#45;&gt;Node3 -->
<g id="edge3" class="edge">
<title>Node0&#45;&gt;Node3</title>
<path fill="none" stroke="#191970" d="M525.6807,-179.3608C519.4717,-160.4797 506.1444,-128.661 483,-112 461.0663,-96.2106 400.4988,-84.5298 346.6157,-76.89"/>
<polygon fill="#191970" stroke="#191970" points="347.0284,-73.4139 336.6431,-75.5105 346.0692,-80.3478 347.0284,-73.4139"/>
</g>
<!-- Node6 -->
<g id="node7" class="node">
<title>Node6</title>
<g id="a_node7"><a xlink:href="_abstract_board_8hpp.html" target="_top" xlink:title="../game_logic/AbstractBoard.hpp">
<polygon fill="none" stroke="#000000" points="156.5,-118 156.5,-137 331.5,-137 331.5,-118 156.5,-118"/>
<text text-anchor="middle" x="244" y="-125" font-family="Helvetica,sans-Serif" font-size="10.00" fill="#000000">../game_logic/AbstractBoard.hpp</text>
</a>
</g>
</g>
<!-- Node0&#45;&gt;Node6 -->
<g id="edge6" class="edge">
<title>Node0&#45;&gt;Node6</title>
<path fill="none" stroke="#191970" d="M471.7789,-180.8608C419.6749,-168.6546 344.0689,-150.9427 294.4774,-139.3251"/>
<polygon fill="#191970" stroke="#191970" points="295.1492,-135.8878 284.6145,-137.0146 293.5525,-142.7033 295.1492,-135.8878"/>
</g>
<!-- Node9 -->
<g id="node10" class="node">
<title>Node9</title>
<g id="a_node10"><a xlink:href="tic__tac__toe_2_board_cell_8hpp.html" target="_top" xlink:title="../game_logic/tic_tac\l_toe/BoardCell.hpp">
<polygon fill="none" stroke="#000000" points="640.5,-112.5 640.5,-142.5 757.5,-142.5 757.5,-112.5 640.5,-112.5"/>
<text text-anchor="start" x="648.5" y="-130.5" font-family="Helvetica,sans-Serif" font-size="10.00" fill="#000000">../game_logic/tic_tac</text>
<text text-anchor="middle" x="699" y="-119.5" font-family="Helvetica,sans-Serif" font-size="10.00" fill="#000000">_toe/BoardCell.hpp</text>
</a>
</g>
</g>
<!-- Node0&#45;&gt;Node9 -->
<g id="edge11" class="edge">
<title>Node0&#45;&gt;Node9</title>
<path fill="none" stroke="#191970" d="M567.9269,-179.4639C592.6289,-169.6708 625.0531,-156.8162 651.4717,-146.3426"/>
<polygon fill="#191970" stroke="#191970" points="652.9015,-149.5408 660.9077,-142.6017 650.3216,-143.0335 652.9015,-149.5408"/>
</g>
<!-- Node14 -->
<g id="node15" class="node">
<title>Node14</title>
<g id="a_node15"><a xlink:href="_player_8hpp.html" target="_top" xlink:title="../game_logic/tic_tac\l_toe/Player.hpp">
<polygon fill="none" stroke="#000000" points="935.5,-112.5 935.5,-142.5 1052.5,-142.5 1052.5,-112.5 935.5,-112.5"/>
<text text-anchor="start" x="943.5" y="-130.5" font-family="Helvetica,sans-Serif" font-size="10.00" fill="#000000">../game_logic/tic_tac</text>
<text text-anchor="middle" x="994" y="-119.5" font-family="Helvetica,sans-Serif" font-size="10.00" fill="#000000">_toe/Player.hpp</text>
</a>
</g>
</g>
<!-- Node0&#45;&gt;Node14 -->
<g id="edge16" class="edge">
<title>Node0&#45;&gt;Node14</title>
<path fill="none" stroke="#191970" d="M588.2311,-187.4194C662.7366,-178.169 795.712,-161.0167 909,-143 914.2775,-142.1607 919.7323,-141.2548 925.2127,-140.3171"/>
<polygon fill="#191970" stroke="#191970" points="925.8201,-143.7641 935.0726,-138.6025 924.6208,-136.8676 925.8201,-143.7641"/>
</g>
<!-- Node18 -->
<g id="node19" class="node">
<title>Node18</title>
<g id="a_node19"><a xlink:href="penguin_2_board_cell_8hpp.html" target="_top" xlink:title="../game_logic/penguin\l/BoardCell.hpp">
<polygon fill="none" stroke="#000000" points="776,-112.5 776,-142.5 900,-142.5 900,-112.5 776,-112.5"/>
<text text-anchor="start" x="784" y="-130.5" font-family="Helvetica,sans-Serif" font-size="10.00" fill="#000000">../game_logic/penguin</text>
<text text-anchor="middle" x="838" y="-119.5" font-family="Helvetica,sans-Serif" font-size="10.00" fill="#000000">/BoardCell.hpp</text>
</a>
</g>
</g>
<!-- Node0&#45;&gt;Node18 -->
<g id="edge20" class="edge">
<title>Node0&#45;&gt;Node18</title>
<path fill="none" stroke="#191970" d="M588.4415,-181.8171C634.1637,-171.8908 699.6241,-157.6711 765.8832,-143.2423"/>
<polygon fill="#191970" stroke="#191970" points="766.6365,-146.6603 775.6627,-141.1124 765.1469,-139.8207 766.6365,-146.6603"/>
</g>
<!-- Node19 -->
<g id="node20" class="node">
<title>Node19</title>
<g id="a_node20"><a xlink:href="_human_player_8hpp.html" target="_top" xlink:title="../game_logic/penguin\l/HumanPlayer.hpp">
<polygon fill="none" stroke="#000000" points="350,-112.5 350,-142.5 474,-142.5 474,-112.5 350,-112.5"/>
<text text-anchor="start" x="358" y="-130.5" font-family="Helvetica,sans-Serif" font-size="10.00" fill="#000000">../game_logic/penguin</text>
<text text-anchor="middle" x="412" y="-119.5" font-family="Helvetica,sans-Serif" font-size="10.00" fill="#000000">/HumanPlayer.hpp</text>
</a>
</g>
</g>
<!-- Node0&#45;&gt;Node19 -->
<g id="edge23" class="edge">
<title>Node0&#45;&gt;Node19</title>
<path fill="none" stroke="#191970" d="M503.5185,-179.4639C487.0852,-170.1332 465.7573,-158.0232 447.8253,-147.8415"/>
<polygon fill="#191970" stroke="#191970" points="449.2256,-144.6117 438.8014,-142.7177 445.7692,-150.699 449.2256,-144.6117"/>
</g>
<!-- Node20 -->
<g id="node21" class="node">
<title>Node20</title>
<g id="a_node21"><a xlink:href="_penguin_pawn_8hpp.html" target="_top" xlink:title="../game_logic/penguin\l/PenguinPawn.hpp">
<polygon fill="none" stroke="#000000" points="1080,-112.5 1080,-142.5 1204,-142.5 1204,-112.5 1080,-112.5"/>
<text text-anchor="start" x="1088" y="-130.5" font-family="Helvetica,sans-Serif" font-size="10.00" fill="#000000">../game_logic/penguin</text>
<text text-anchor="middle" x="1142" y="-119.5" font-family="Helvetica,sans-Serif" font-size="10.00" fill="#000000">/PenguinPawn.hpp</text>
</a>
</g>
</g>
<!-- Node0&#45;&gt;Node20 -->
<g id="edge26" class="edge">
<title>Node0&#45;&gt;Node20</title>
<path fill="none" stroke="#191970" d="M588.0774,-190.6902C686.1081,-183.8546 890.5014,-167.8576 1062,-143 1064.5114,-142.636 1067.0636,-142.2469 1069.6386,-141.838"/>
<polygon fill="#191970" stroke="#191970" points="1070.355,-145.267 1079.6454,-140.174 1069.2067,-138.3618 1070.355,-145.267"/>
</g>
<!-- Node21 -->
<g id="node22" class="node">
<title>Node21</title>
<g id="a_node22"><a xlink:href="_tree_8hpp.html" target="_top" xlink:title="Tree.hpp">
<polygon fill="none" stroke="#000000" points="530,-118 530,-137 588,-137 588,-118 530,-118"/>
<text text-anchor="middle" x="559" y="-125" font-family="Helvetica,sans-Serif" font-size="10.00" fill="#000000">Tree.hpp</text>
</a>
</g>
</g>
<!-- Node0&#45;&gt;Node21 -->
<g id="edge28" class="edge">
<title>Node0&#45;&gt;Node21</title>
<path fill="none" stroke="#191970" d="M536.5805,-179.2967C540.7918,-169.5672 546.2887,-156.8675 550.7855,-146.4784"/>
<polygon fill="#191970" stroke="#191970" points="554.104,-147.6225 554.8643,-137.055 547.6799,-144.8419 554.104,-147.6225"/>
</g>
<!-- Node4 -->
<g id="node5" class="node">
<title>Node4</title>
<polygon fill="none" stroke="#bfbfbf" points="110.5,-.5 110.5,-19.5 157.5,-19.5 157.5,-.5 110.5,-.5"/>
<text text-anchor="middle" x="134" y="-7.5" font-family="Helvetica,sans-Serif" font-size="10.00" fill="#000000">vector</text>
</g>
<!-- Node3&#45;&gt;Node4 -->
<g id="edge4" class="edge">
<title>Node3&#45;&gt;Node4</title>
<path fill="none" stroke="#191970" d="M230.0589,-56.3733C211.5214,-47.4241 183.6972,-33.9917 162.7587,-23.8835"/>
<polygon fill="#191970" stroke="#191970" points="164.2081,-20.6967 153.6809,-19.5011 161.1648,-27.0006 164.2081,-20.6967"/>
</g>
<!-- Node5 -->
<g id="node6" class="node">
<title>Node5</title>
<g id="a_node6"><a xlink:href="_move_8hpp.html" target="_top" xlink:title="utils/Move.hpp">
<polygon fill="none" stroke="#000000" points="206,-.5 206,-19.5 294,-19.5 294,-.5 206,-.5"/>
<text text-anchor="middle" x="250" y="-7.5" font-family="Helvetica,sans-Serif" font-size="10.00" fill="#000000">utils/Move.hpp</text>
</a>
</g>
</g>
<!-- Node3&#45;&gt;Node5 -->
<g id="edge5" class="edge">
<title>Node3&#45;&gt;Node5</title>
<path fill="none" stroke="#191970" d="M250,-56.2455C250,-48.9382 250,-38.6944 250,-29.7046"/>
<polygon fill="#191970" stroke="#191970" points="253.5001,-29.6426 250,-19.6427 246.5001,-29.6427 253.5001,-29.6426"/>
</g>
<!-- Node6&#45;&gt;Node4 -->
<g id="edge7" class="edge">
<title>Node6&#45;&gt;Node4</title>
<path fill="none" stroke="#191970" d="M187.7681,-117.9858C126.3182,-107.0197 35.1858,-88.8589 25,-76 19.4807,-69.0322 20.0862,-63.4072 25,-56 29.5209,-49.1851 70.6038,-33.0459 101.0068,-21.8217"/>
<polygon fill="#191970" stroke="#191970" points="102.2549,-25.0921 110.4427,-18.3683 99.849,-18.5185 102.2549,-25.0921"/>
</g>
<!-- Node7 -->
<g id="node8" class="node">
<title>Node7</title>
<g id="a_node8"><a xlink:href="_history_8hpp.html" target="_top" xlink:title="History.hpp">
<polygon fill="none" stroke="#000000" points="34.5,-56.5 34.5,-75.5 105.5,-75.5 105.5,-56.5 34.5,-56.5"/>
<text text-anchor="middle" x="70" y="-63.5" font-family="Helvetica,sans-Serif" font-size="10.00" fill="#000000">History.hpp</text>
</a>
</g>
</g>
<!-- Node6&#45;&gt;Node7 -->
<g id="edge8" class="edge">
<title>Node6&#45;&gt;Node7</title>
<path fill="none" stroke="#191970" d="M216.8125,-117.8906C187.1883,-107.42 139.6313,-90.6111 106.7082,-78.9745"/>
<polygon fill="#191970" stroke="#191970" points="107.5914,-75.5745 96.9966,-75.5419 105.2586,-82.1744 107.5914,-75.5745"/>
</g>
<!-- Node7&#45;&gt;Node5 -->
<g id="edge10" class="edge">
<title>Node7&#45;&gt;Node5</title>
<path fill="none" stroke="#191970" d="M100.9431,-56.3733C131.0039,-47.021 176.8026,-32.7725 209.6978,-22.5385"/>
<polygon fill="#191970" stroke="#191970" points="210.9519,-25.8139 219.4607,-19.5011 208.8723,-19.1299 210.9519,-25.8139"/>
</g>
<!-- Node8 -->
<g id="node9" class="node">
<title>Node8</title>
<polygon fill="none" stroke="#bfbfbf" points="48.5,-.5 48.5,-19.5 91.5,-19.5 91.5,-.5 48.5,-.5"/>
<text text-anchor="middle" x="70" y="-7.5" font-family="Helvetica,sans-Serif" font-size="10.00" fill="#000000">stack</text>
</g>
<!-- Node7&#45;&gt;Node8 -->
<g id="edge9" class="edge">
<title>Node7&#45;&gt;Node8</title>
<path fill="none" stroke="#191970" d="M70,-56.2455C70,-48.9382 70,-38.6944 70,-29.7046"/>
<polygon fill="#191970" stroke="#191970" points="73.5001,-29.6426 70,-19.6427 66.5001,-29.6427 73.5001,-29.6426"/>
</g>
<!-- Node10 -->
<g id="node11" class="node">
<title>Node10</title>
<g id="a_node11"><a xlink:href="_position_8hpp.html" target="_top" xlink:title="../utils/Position.hpp">
<polygon fill="none" stroke="#000000" points="884,-56.5 884,-75.5 994,-75.5 994,-56.5 884,-56.5"/>
<text text-anchor="middle" x="939" y="-63.5" font-family="Helvetica,sans-Serif" font-size="10.00" fill="#000000">../utils/Position.hpp</text>
</a>
</g>
</g>
<!-- Node9&#45;&gt;Node10 -->
<g id="edge12" class="edge">
<title>Node9&#45;&gt;Node10</title>
<path fill="none" stroke="#191970" d="M757.7106,-112.4554C798.9847,-101.8789 853.482,-87.914 891.9119,-78.0663"/>
<polygon fill="#191970" stroke="#191970" points="892.9903,-81.4031 901.8085,-75.5303 891.2527,-74.6222 892.9903,-81.4031"/>
</g>
<!-- Node13 -->
<g id="node14" class="node">
<title>Node13</title>
<g id="a_node14"><a xlink:href="_abstract_board_cell_8hpp.html" target="_top" xlink:title="../AbstractBoardCell.hpp">
<polygon fill="none" stroke="#000000" points="732,-56.5 732,-75.5 866,-75.5 866,-56.5 732,-56.5"/>
<text text-anchor="middle" x="799" y="-63.5" font-family="Helvetica,sans-Serif" font-size="10.00" fill="#000000">../AbstractBoardCell.hpp</text>
</a>
</g>
</g>
<!-- Node9&#45;&gt;Node13 -->
<g id="edge15" class="edge">
<title>Node9&#45;&gt;Node13</title>
<path fill="none" stroke="#191970" d="M723.4628,-112.4554C739.1235,-102.8241 759.3532,-90.3828 774.9356,-80.7996"/>
<polygon fill="#191970" stroke="#191970" points="776.819,-83.7503 783.5035,-75.5303 773.152,-77.7876 776.819,-83.7503"/>
</g>
<!-- Node11 -->
<g id="node12" class="node">
<title>Node11</title>
<polygon fill="none" stroke="#bfbfbf" points="957.5,-.5 957.5,-19.5 1010.5,-19.5 1010.5,-.5 957.5,-.5"/>
<text text-anchor="middle" x="984" y="-7.5" font-family="Helvetica,sans-Serif" font-size="10.00" fill="#000000">stdlib.h</text>
</g>
<!-- Node10&#45;&gt;Node11 -->
<g id="edge13" class="edge">
<title>Node10&#45;&gt;Node11</title>
<path fill="none" stroke="#191970" d="M946.8384,-56.2455C953.162,-48.3761 962.2224,-37.101 969.8136,-27.6542"/>
<polygon fill="#191970" stroke="#191970" points="972.7158,-29.6302 976.2514,-19.6427 967.2592,-25.2454 972.7158,-29.6302"/>
</g>
<!-- Node12 -->
<g id="node13" class="node">
<title>Node12</title>
<polygon fill="none" stroke="#bfbfbf" points="846.5,-.5 846.5,-19.5 939.5,-19.5 939.5,-.5 846.5,-.5"/>
<text text-anchor="middle" x="893" y="-7.5" font-family="Helvetica,sans-Serif" font-size="10.00" fill="#000000">unordered_map</text>
</g>
<!-- Node10&#45;&gt;Node12 -->
<g id="edge14" class="edge">
<title>Node10&#45;&gt;Node12</title>
<path fill="none" stroke="#191970" d="M930.9874,-56.2455C924.5232,-48.3761 915.2615,-37.101 907.5017,-27.6542"/>
<polygon fill="#191970" stroke="#191970" points="909.9727,-25.1484 900.9208,-19.6427 904.5636,-29.5916 909.9727,-25.1484"/>
</g>
<!-- Node15 -->
<g id="node16" class="node">
<title>Node15</title>
<polygon fill="none" stroke="#bfbfbf" points="1012,-56.5 1012,-75.5 1072,-75.5 1072,-56.5 1012,-56.5"/>
<text text-anchor="middle" x="1042" y="-63.5" font-family="Helvetica,sans-Serif" font-size="10.00" fill="#000000">iostream</text>
</g>
<!-- Node14&#45;&gt;Node15 -->
<g id="edge17" class="edge">
<title>Node14&#45;&gt;Node15</title>
<path fill="none" stroke="#191970" d="M1005.8652,-112.2977C1012.5975,-103.672 1021.0585,-92.8312 1028.1006,-83.8087"/>
<polygon fill="#191970" stroke="#191970" points="1030.921,-85.8836 1034.3146,-75.8469 1025.4027,-81.5766 1030.921,-85.8836"/>
</g>
<!-- Node16 -->
<g id="node17" class="node">
<title>Node16</title>
<g id="a_node17"><a xlink:href="_abstract_player_8hpp.html" target="_top" xlink:title="../AbstractPlayer.hpp">
<polygon fill="none" stroke="#000000" points="394.5,-56.5 394.5,-75.5 511.5,-75.5 511.5,-56.5 394.5,-56.5"/>
<text text-anchor="middle" x="453" y="-63.5" font-family="Helvetica,sans-Serif" font-size="10.00" fill="#000000">../AbstractPlayer.hpp</text>
</a>
</g>
</g>
<!-- Node14&#45;&gt;Node16 -->
<g id="edge18" class="edge">
<title>Node14&#45;&gt;Node16</title>
<path fill="none" stroke="#191970" d="M935.1209,-116.0714C926.3832,-114.5765 917.4707,-113.163 909,-112 740.608,-88.8801 694.6489,-96.3141 521.5352,-75.9999"/>
<polygon fill="#191970" stroke="#191970" points="521.9218,-72.5213 511.5788,-74.8176 521.0963,-79.4725 521.9218,-72.5213"/>
</g>
<!-- Node17 -->
<g id="node18" class="node">
<title>Node17</title>
<g id="a_node18"><a xlink:href="_abstract_pawn_8hpp.html" target="_top" xlink:title="../AbstractPawn.hpp">
<polygon fill="none" stroke="#000000" points="1090.5,-56.5 1090.5,-75.5 1203.5,-75.5 1203.5,-56.5 1090.5,-56.5"/>
<text text-anchor="middle" x="1147" y="-63.5" font-family="Helvetica,sans-Serif" font-size="10.00" fill="#000000">../AbstractPawn.hpp</text>
</a>
</g>
</g>
<!-- Node14&#45;&gt;Node17 -->
<g id="edge19" class="edge">
<title>Node14&#45;&gt;Node17</title>
<path fill="none" stroke="#191970" d="M1031.428,-112.4554C1056.6206,-102.329 1089.5407,-89.0964 1113.7996,-79.3453"/>
<polygon fill="#191970" stroke="#191970" points="1115.3173,-82.5074 1123.2904,-75.5303 1112.7066,-76.0125 1115.3173,-82.5074"/>
</g>
<!-- Node18&#45;&gt;Node10 -->
<g id="edge22" class="edge">
<title>Node18&#45;&gt;Node10</title>
<path fill="none" stroke="#191970" d="M862.7074,-112.4554C878.5247,-102.8241 898.9567,-90.3828 914.6949,-80.7996"/>
<polygon fill="#191970" stroke="#191970" points="916.6277,-83.7206 923.3486,-75.5303 912.9871,-77.7418 916.6277,-83.7206"/>
</g>
<!-- Node18&#45;&gt;Node13 -->
<g id="edge21" class="edge">
<title>Node18&#45;&gt;Node13</title>
<path fill="none" stroke="#191970" d="M828.3595,-112.2977C823.0023,-103.8498 816.2978,-93.2773 810.6487,-84.369"/>
<polygon fill="#191970" stroke="#191970" points="813.5556,-82.4176 805.2444,-75.8469 807.6441,-86.1664 813.5556,-82.4176"/>
</g>
<!-- Node19&#45;&gt;Node4 -->
<g id="edge24" class="edge">
<title>Node19&#45;&gt;Node4</title>
<path fill="none" stroke="#191970" d="M349.6811,-113.8002C346.7479,-113.1852 343.8428,-112.5824 341,-112 257.6573,-94.9261 215.833,-133.3546 153,-76 140.2278,-64.3414 135.8291,-44.7097 134.4156,-29.8807"/>
<polygon fill="#191970" stroke="#191970" points="137.8978,-29.4703 133.8272,-19.6887 130.9094,-29.8738 137.8978,-29.4703"/>
</g>
<!-- Node19&#45;&gt;Node16 -->
<g id="edge25" class="edge">
<title>Node19&#45;&gt;Node16</title>
<path fill="none" stroke="#191970" d="M422.1348,-112.2977C427.7668,-103.8498 434.8151,-93.2773 440.754,-84.369"/>
<polygon fill="#191970" stroke="#191970" points="443.8005,-86.1089 446.4354,-75.8469 437.9762,-82.226 443.8005,-86.1089"/>
</g>
<!-- Node20&#45;&gt;Node17 -->
<g id="edge27" class="edge">
<title>Node20&#45;&gt;Node17</title>
<path fill="none" stroke="#191970" d="M1143.236,-112.2977C1143.8794,-104.3834 1144.6744,-94.6043 1145.3678,-86.0759"/>
<polygon fill="#191970" stroke="#191970" points="1148.8775,-86.0977 1146.1994,-75.8469 1141.9005,-85.5304 1148.8775,-86.0977"/>
</g>
<!-- Node21&#45;&gt;Node3 -->
<g id="edge33" class="edge">
<title>Node21&#45;&gt;Node3</title>
<path fill="none" stroke="#191970" d="M534.6756,-117.897C528.638,-115.7459 522.1373,-113.6235 516,-112 456.6227,-96.2931 388.3284,-84.6126 335.8079,-76.9523"/>
<polygon fill="#191970" stroke="#191970" points="336.2528,-73.4804 325.8564,-75.5213 335.2564,-80.4091 336.2528,-73.4804"/>
</g>
<!-- Node21&#45;&gt;Node5 -->
<g id="edge35" class="edge">
<title>Node21&#45;&gt;Node5</title>
<path fill="none" stroke="#191970" d="M529.7565,-118.1242C523.2611,-116.0767 516.4038,-113.9421 510,-112 455.0833,-95.345 439.3312,-97.1901 386,-76 367.897,-68.8071 364.4692,-64.6189 347,-56 324.5512,-44.9243 298.9583,-32.8087 279.6995,-23.7929"/>
<polygon fill="#191970" stroke="#191970" points="281.0679,-20.5691 270.5262,-19.5086 278.1057,-26.9115 281.0679,-20.5691"/>
</g>
<!-- Node21&#45;&gt;Node13 -->
<g id="edge34" class="edge">
<title>Node21&#45;&gt;Node13</title>
<path fill="none" stroke="#191970" d="M588.4287,-119.9589C629.212,-109.5082 703.3642,-90.5067 751.8988,-78.0697"/>
<polygon fill="#191970" stroke="#191970" points="753.0273,-81.3937 761.8455,-75.5208 751.2896,-74.6128 753.0273,-81.3937"/>
</g>
<!-- Node21&#45;&gt;Node16 -->
<g id="edge32" class="edge">
<title>Node21&#45;&gt;Node16</title>
<path fill="none" stroke="#191970" d="M542.4375,-117.8906C525.2463,-107.9165 498.1418,-92.1908 478.2734,-80.6633"/>
<polygon fill="#191970" stroke="#191970" points="479.8523,-77.533 469.4462,-75.5419 476.3394,-83.5877 479.8523,-77.533"/>
</g>
<!-- Node22 -->
<g id="node23" class="node">
<title>Node22</title>
<polygon fill="none" stroke="#bfbfbf" points="664,-56.5 664,-75.5 714,-75.5 714,-56.5 664,-56.5"/>
<text text-anchor="middle" x="689" y="-63.5" font-family="Helvetica,sans-Serif" font-size="10.00" fill="#000000">chrono</text>
</g>
<!-- Node21&#45;&gt;Node22 -->
<g id="edge29" class="edge">
<title>Node21&#45;&gt;Node22</title>
<path fill="none" stroke="#191970" d="M579.3125,-117.8906C600.8731,-107.6908 635.1478,-91.4763 659.6444,-79.8875"/>
<polygon fill="#191970" stroke="#191970" points="661.2874,-82.9822 668.8301,-75.5419 658.2939,-76.6545 661.2874,-82.9822"/>
</g>
<!-- Node23 -->
<g id="node24" class="node">
<title>Node23</title>
<polygon fill="none" stroke="#bfbfbf" points="529.5,-56.5 529.5,-75.5 580.5,-75.5 580.5,-56.5 529.5,-56.5"/>
<text text-anchor="middle" x="555" y="-63.5" font-family="Helvetica,sans-Serif" font-size="10.00" fill="#000000">math.h</text>
</g>
<!-- Node21&#45;&gt;Node23 -->
<g id="edge30" class="edge">
<title>Node21&#45;&gt;Node23</title>
<path fill="none" stroke="#191970" d="M558.375,-117.8906C557.8205,-109.3657 556.9928,-96.6392 556.2958,-85.9235"/>
<polygon fill="#191970" stroke="#191970" points="559.7756,-85.4966 555.6338,-75.7449 552.7903,-85.951 559.7756,-85.4966"/>
</g>
<!-- Node24 -->
<g id="node25" class="node">
<title>Node24</title>
<polygon fill="none" stroke="#bfbfbf" points="598.5,-56.5 598.5,-75.5 645.5,-75.5 645.5,-56.5 598.5,-56.5"/>
<text text-anchor="middle" x="622" y="-63.5" font-family="Helvetica,sans-Serif" font-size="10.00" fill="#000000">queue</text>
</g>
<!-- Node21&#45;&gt;Node24 -->
<g id="edge31" class="edge">
<title>Node21&#45;&gt;Node24</title>
<path fill="none" stroke="#191970" d="M568.8438,-117.8906C578.4039,-108.5581 593.1223,-94.1902 604.6495,-82.9374"/>
<polygon fill="#191970" stroke="#191970" points="607.3066,-85.2348 612.0175,-75.7449 602.4168,-80.2257 607.3066,-85.2348"/>
</g>
</g>
</svg>
        <g id="navigator" transform="translate(0 0)" fill="#404254">
                <rect fill="#f2f5e9" fill-opacity="0.5" stroke="#606060" stroke-width=".5" x="0" y="0" width="60" height="60"/>
                <use id="zoomplus" xlink:href="#zoomPlus" x="17" y="9" onmousedown="handleZoom(evt,'in')"/>
                <use id="zoomminus" xlink:href="#zoomMin" x="42" y="9" onmousedown="handleZoom(evt,'out')"/>
                <use id="reset" xlink:href="#resetDef" x="30" y="36" onmousedown="handleReset()"/>
                <g id="arrowUp" xlink:href="#dirArrow" transform="translate(30 24)" onmousedown="handlePan(0,-1)">
                  <use xlink:href="#rim" fill="#404040">
                        <set attributeName="fill" to="#808080" begin="arrowUp.mouseover" end="arrowUp.mouseout"/>
                  </use>
                  <path fill="none" stroke="white" stroke-width="1.5" d="M0,-3.0v7 M-2.5,-0.5L0,-3.0L2.5,-0.5"/>
                </g>
                <g id="arrowRight" xlink:href="#dirArrow" transform="rotate(90) translate(36 -43)" onmousedown="handlePan(1,0)">
                  <use xlink:href="#rim" fill="#404040">
                        <set attributeName="fill" to="#808080" begin="arrowRight.mouseover" end="arrowRight.mouseout"/>
                  </use>
                  <path fill="none" stroke="white" stroke-width="1.5" d="M0,-3.0v7 M-2.5,-0.5L0,-3.0L2.5,-0.5"/>
                </g>
                <g id="arrowDown" xlink:href="#dirArrow" transform="rotate(180) translate(-30 -48)" onmousedown="handlePan(0,1)">
                  <use xlink:href="#rim" fill="#404040">
                        <set attributeName="fill" to="#808080" begin="arrowDown.mouseover" end="arrowDown.mouseout"/>
                  </use>
                  <path fill="none" stroke="white" stroke-width="1.5" d="M0,-3.0v7 M-2.5,-0.5L0,-3.0L2.5,-0.5"/>
                </g>
                <g id="arrowLeft" xlink:href="#dirArrow" transform="rotate(270) translate(-36 17)" onmousedown="handlePan(-1,0)">
                  <use xlink:href="#rim" fill="#404040">
                        <set attributeName="fill" to="#808080" begin="arrowLeft.mouseover" end="arrowLeft.mouseout"/>
                  </use>
                  <path fill="none" stroke="white" stroke-width="1.5" d="M0,-3.0v7 M-2.5,-0.5L0,-3.0L2.5,-0.5"/>
                </g>
        </g>
        <svg viewBox="0 0 15 15" width="100%" height="30px" preserveAspectRatio="xMaxYMin meet">
         <g id="arrow_out" transform="scale(0.3 0.3)">
          <a xlink:href="_tree_8cpp__incl_org.svg" target="_base">
           <rect id="button" ry="5" rx="5" y="6" x="6" height="38" width="38"
                fill="#f2f5e9" fill-opacity="0.5" stroke="#606060" stroke-width="1.0"/>
           <path id="arrow"
             d="M 11.500037,31.436501 C 11.940474,20.09759 22.043105,11.32322 32.158766,21.979434 L 37.068811,17.246167 C 37.068811,17.246167 37.088388,32 37.088388,32 L 22.160133,31.978069 C 22.160133,31.978069 26.997745,27.140456 26.997745,27.140456 C 18.528582,18.264221 13.291696,25.230495 11.500037,31.436501 z"
             style="fill:#404040;"/>
          </a>
         </g>
        </svg>
</svg>
