<?xml version="1.0" encoding="UTF-8" standalone="no"?>
<!DOCTYPE svg PUBLIC "-//W3C//DTD SVG 1.1//EN"
 "http://www.w3.org/Graphics/SVG/1.1/DTD/svg11.dtd">
<!-- Generated by graphviz version 2.40.1 (20161225.0304)
 -->
<!-- Title: game::tic_tac_toe::Board::performMove Pages: 1 -->
<svg width="467pt" height="235pt"
 viewBox="0.00 0.00 467.00 235.00" xmlns="http://www.w3.org/2000/svg" xmlns:xlink="http://www.w3.org/1999/xlink">
<g id="graph0" class="graph" transform="scale(1 1) rotate(0) translate(4 231)">
<title>game::tic_tac_toe::Board::performMove</title>
<!-- Node54 -->
<g id="node1" class="node">
<title>Node54</title>
<polygon fill="#bfbfbf" stroke="#000000" points="0,-98.5 0,-128.5 116,-128.5 116,-98.5 0,-98.5"/>
<text text-anchor="start" x="8" y="-116.5" font-family="Helvetica,sans-Serif" font-size="10.00" fill="#000000">game::tic_tac_toe::</text>
<text text-anchor="middle" x="58" y="-105.5" font-family="Helvetica,sans-Serif" font-size="10.00" fill="#000000">Board::performMove</text>
</g>
<!-- Node55 -->
<g id="node2" class="node">
<title>Node55</title>
<g id="a_node2"><a xlink:href="classgame_1_1tic__tac__toe_1_1_board.html#acd788fca5054228f6d44f4c0b5ffca1e" target="_top" xlink:title="Check if the pos is allowed to move to. ">
<polygon fill="none" stroke="#000000" points="152,-196.5 152,-226.5 304,-226.5 304,-196.5 152,-196.5"/>
<text text-anchor="start" x="160" y="-214.5" font-family="Helvetica,sans-Serif" font-size="10.00" fill="#000000">game::tic_tac_toe::</text>
<text text-anchor="middle" x="228" y="-203.5" font-family="Helvetica,sans-Serif" font-size="10.00" fill="#000000">Board::checkForCorrectness</text>
</a>
</g>
</g>
<!-- Node54&#45;&gt;Node55 -->
<g id="edge1" class="edge">
<title>Node54&#45;&gt;Node55</title>
<path fill="none" stroke="#191970" d="M73.3839,-128.5318C91.0452,-145.0534 121.521,-171.3838 152,-187.5 155.4785,-189.3393 159.122,-191.0661 162.8509,-192.6827"/>
<polygon fill="#191970" stroke="#191970" points="161.6673,-195.9793 172.2505,-196.4756 164.2867,-189.4878 161.6673,-195.9793"/>
</g>
<!-- Node56 -->
<g id="node3" class="node">
<title>Node56</title>
<g id="a_node3"><a xlink:href="classgame_1_1tic__tac__toe_1_1_board_cell.html#aa418994b5cdf5c74b105701193d72a1b" target="_top" xlink:title="Get the Position object. ">
<polygon fill="none" stroke="#000000" points="165.5,-147.5 165.5,-177.5 290.5,-177.5 290.5,-147.5 165.5,-147.5"/>
<text text-anchor="start" x="173.5" y="-165.5" font-family="Helvetica,sans-Serif" font-size="10.00" fill="#000000">game::tic_tac_toe::</text>
<text text-anchor="middle" x="228" y="-154.5" font-family="Helvetica,sans-Serif" font-size="10.00" fill="#000000">BoardCell::getPosition</text>
</a>
</g>
</g>
<!-- Node54&#45;&gt;Node56 -->
<g id="edge2" class="edge">
<title>Node54&#45;&gt;Node56</title>
<path fill="none" stroke="#191970" d="M110.3928,-128.6014C128.007,-133.6785 147.8233,-139.3902 166.0981,-144.6577"/>
<polygon fill="#191970" stroke="#191970" points="165.202,-148.0418 175.7802,-147.4484 167.1408,-141.3157 165.202,-148.0418"/>
</g>
<!-- Node58 -->
<g id="node5" class="node">
<title>Node58</title>
<g id="a_node5"><a xlink:href="classgame_1_1_abstract_board.html#ac2b6d96389ad0ac58d22323d75f91f97" target="_top" xlink:title="perform a movement on the board, sets the current cell on the pawn ">
<polygon fill="none" stroke="#000000" points="168.5,-98.5 168.5,-128.5 287.5,-128.5 287.5,-98.5 168.5,-98.5"/>
<text text-anchor="start" x="176.5" y="-116.5" font-family="Helvetica,sans-Serif" font-size="10.00" fill="#000000">game::AbstractBoard</text>
<text text-anchor="middle" x="228" y="-105.5" font-family="Helvetica,sans-Serif" font-size="10.00" fill="#000000">::performMove</text>
</a>
</g>
</g>
<!-- Node54&#45;&gt;Node58 -->
<g id="edge4" class="edge">
<title>Node54&#45;&gt;Node58</title>
<path fill="none" stroke="#191970" d="M116.0289,-113.5C129.6514,-113.5 144.3049,-113.5 158.3768,-113.5"/>
<polygon fill="#191970" stroke="#191970" points="158.4975,-117.0001 168.4975,-113.5 158.4974,-110.0001 158.4975,-117.0001"/>
</g>
<!-- Node59 -->
<g id="node6" class="node">
<title>Node59</title>
<g id="a_node6"><a xlink:href="classgame_1_1tic__tac__toe_1_1_board_cell.html#a3ee72b5b70a0d0eb8abbe4cdcdf4038d" target="_top" xlink:title="Set the value of the cell. ">
<polygon fill="none" stroke="#000000" points="172,-49.5 172,-79.5 284,-79.5 284,-49.5 172,-49.5"/>
<text text-anchor="start" x="180" y="-67.5" font-family="Helvetica,sans-Serif" font-size="10.00" fill="#000000">game::tic_tac_toe::</text>
<text text-anchor="middle" x="228" y="-56.5" font-family="Helvetica,sans-Serif" font-size="10.00" fill="#000000">BoardCell::setValue</text>
</a>
</g>
</g>
<!-- Node54&#45;&gt;Node59 -->
<g id="edge5" class="edge">
<title>Node54&#45;&gt;Node59</title>
<path fill="none" stroke="#191970" d="M110.3928,-98.3986C128.007,-93.3215 147.8233,-87.6098 166.0981,-82.3423"/>
<polygon fill="#191970" stroke="#191970" points="167.1408,-85.6843 175.7802,-79.5516 165.202,-78.9582 167.1408,-85.6843"/>
</g>
<!-- Node60 -->
<g id="node7" class="node">
<title>Node60</title>
<g id="a_node7"><a xlink:href="classgame_1_1_abstract_player.html#a88e33e40f98283588a535f66bf1b6640" target="_top" xlink:title="Get player&#39;s id. ">
<polygon fill="none" stroke="#000000" points="167,-.5 167,-30.5 289,-30.5 289,-.5 167,-.5"/>
<text text-anchor="start" x="175" y="-18.5" font-family="Helvetica,sans-Serif" font-size="10.00" fill="#000000">game::AbstractPlayer</text>
<text text-anchor="middle" x="228" y="-7.5" font-family="Helvetica,sans-Serif" font-size="10.00" fill="#000000">::getId</text>
</a>
</g>
</g>
<!-- Node54&#45;&gt;Node60 -->
<g id="edge6" class="edge">
<title>Node54&#45;&gt;Node60</title>
<path fill="none" stroke="#191970" d="M73.7797,-98.4569C91.5535,-82.2126 121.9031,-56.5167 152,-40.5 156.1498,-38.2916 160.5307,-36.2301 165.0091,-34.3154"/>
<polygon fill="#191970" stroke="#191970" points="166.3168,-37.562 174.2954,-30.5911 163.7112,-31.065 166.3168,-37.562"/>
</g>
<!-- Node57 -->
<g id="node4" class="node">
<title>Node57</title>
<g id="a_node4"><a xlink:href="classgame_1_1tic__tac__toe_1_1_board_cell.html#a800b9a8409ad28086ad1e7cb275fa25e" target="_top" xlink:title="tells if the cell is claimed or not ">
<polygon fill="none" stroke="#000000" points="340,-147.5 340,-177.5 459,-177.5 459,-147.5 340,-147.5"/>
<text text-anchor="start" x="348" y="-165.5" font-family="Helvetica,sans-Serif" font-size="10.00" fill="#000000">game::tic_tac_toe::</text>
<text text-anchor="middle" x="399.5" y="-154.5" font-family="Helvetica,sans-Serif" font-size="10.00" fill="#000000">BoardCell::isClaimed</text>
</a>
</g>
</g>
<!-- Node56&#45;&gt;Node57 -->
<g id="edge3" class="edge">
<title>Node56&#45;&gt;Node57</title>
<path fill="none" stroke="#191970" d="M290.8864,-162.5C303.4837,-162.5 316.7911,-162.5 329.6087,-162.5"/>
<polygon fill="#191970" stroke="#191970" points="329.7603,-166.0001 339.7603,-162.5 329.7602,-159.0001 329.7603,-166.0001"/>
</g>
</g>
</svg>
