<?xml version="1.0" encoding="UTF-8" standalone="no"?>
<!DOCTYPE svg PUBLIC "-//W3C//DTD SVG 1.1//EN"
 "http://www.w3.org/Graphics/SVG/1.1/DTD/svg11.dtd">
<!-- Generated by graphviz version 2.40.1 (20161225.0304)
 -->
<!-- Title: game::tic_tac_toe::Board::size Pages: 1 -->
<svg width="294pt" height="137pt"
 viewBox="0.00 0.00 294.00 137.00" xmlns="http://www.w3.org/2000/svg" xmlns:xlink="http://www.w3.org/1999/xlink">
<g id="graph0" class="graph" transform="scale(1 1) rotate(0) translate(4 133)">
<title>game::tic_tac_toe::Board::size</title>
<!-- Node65 -->
<g id="node1" class="node">
<title>Node65</title>
<polygon fill="#bfbfbf" stroke="#000000" points="0,-49.5 0,-79.5 110,-79.5 110,-49.5 0,-49.5"/>
<text text-anchor="start" x="8" y="-67.5" font-family="Helvetica,sans-Serif" font-size="10.00" fill="#000000">game::tic_tac_toe::</text>
<text text-anchor="middle" x="55" y="-56.5" font-family="Helvetica,sans-Serif" font-size="10.00" fill="#000000">Board::size</text>
</g>
<!-- Node66 -->
<g id="node2" class="node">
<title>Node66</title>
<g id="a_node2"><a xlink:href="classgame_1_1tic__tac__toe_1_1_board.html#ab5c00479b4dabd60bef9ea00fce23779" target="_top" xlink:title="Get the Cell. ">
<polygon fill="none" stroke="#000000" points="161,-98.5 161,-128.5 271,-128.5 271,-98.5 161,-98.5"/>
<text text-anchor="start" x="169" y="-116.5" font-family="Helvetica,sans-Serif" font-size="10.00" fill="#000000">game::tic_tac_toe::</text>
<text text-anchor="middle" x="216" y="-105.5" font-family="Helvetica,sans-Serif" font-size="10.00" fill="#000000">Board::getCell</text>
</a>
</g>
</g>
<!-- Node65&#45;&gt;Node66 -->
<g id="edge1" class="edge">
<title>Node65&#45;&gt;Node66</title>
<path fill="none" stroke="#191970" d="M104.619,-79.6014C121.0702,-84.6083 139.5494,-90.2324 156.6566,-95.439"/>
<polygon fill="#191970" stroke="#191970" points="155.959,-98.8851 166.5448,-98.4484 157.9972,-92.1884 155.959,-98.8851"/>
</g>
<!-- Node67 -->
<g id="node3" class="node">
<title>Node67</title>
<g id="a_node3"><a xlink:href="classgame_1_1tic__tac__toe_1_1_board.html#a84cb90a6d844d80ecd5857fb4dc9ad1a" target="_top" xlink:title="Get the Players that are presently palying on the board. ">
<polygon fill="none" stroke="#000000" points="146,-49.5 146,-79.5 286,-79.5 286,-49.5 146,-49.5"/>
<text text-anchor="start" x="154" y="-67.5" font-family="Helvetica,sans-Serif" font-size="10.00" fill="#000000">game::tic_tac_toe::</text>
<text text-anchor="middle" x="216" y="-56.5" font-family="Helvetica,sans-Serif" font-size="10.00" fill="#000000">Board::getPawnsOnBoard</text>
</a>
</g>
</g>
<!-- Node65&#45;&gt;Node67 -->
<g id="edge2" class="edge">
<title>Node65&#45;&gt;Node67</title>
<path fill="none" stroke="#191970" d="M110.4071,-64.5C118.6446,-64.5 127.2717,-64.5 135.8928,-64.5"/>
<polygon fill="#191970" stroke="#191970" points="135.9868,-68.0001 145.9867,-64.5 135.9867,-61.0001 135.9868,-68.0001"/>
</g>
<!-- Node68 -->
<g id="node4" class="node">
<title>Node68</title>
<g id="a_node4"><a xlink:href="classgame_1_1tic__tac__toe_1_1_board.html#a7f11ea8d48d9613057dd8164a7610f9a" target="_top" xlink:title="Get a player by it&#39;s id. ">
<polygon fill="none" stroke="#000000" points="159,-.5 159,-30.5 273,-30.5 273,-.5 159,-.5"/>
<text text-anchor="start" x="167" y="-18.5" font-family="Helvetica,sans-Serif" font-size="10.00" fill="#000000">game::tic_tac_toe::</text>
<text text-anchor="middle" x="216" y="-7.5" font-family="Helvetica,sans-Serif" font-size="10.00" fill="#000000">Board::getPawnById</text>
</a>
</g>
</g>
<!-- Node65&#45;&gt;Node68 -->
<g id="edge3" class="edge">
<title>Node65&#45;&gt;Node68</title>
<path fill="none" stroke="#191970" d="M104.619,-49.3986C121.0702,-44.3917 139.5494,-38.7676 156.6566,-33.561"/>
<polygon fill="#191970" stroke="#191970" points="157.9972,-36.8116 166.5448,-30.5516 155.959,-30.1149 157.9972,-36.8116"/>
</g>
</g>
</svg>
