<?xml version="1.0" encoding="UTF-8" standalone="no"?>
<!DOCTYPE svg PUBLIC "-//W3C//DTD SVG 1.1//EN"
 "http://www.w3.org/Graphics/SVG/1.1/DTD/svg11.dtd">
<!-- Generated by graphviz version 2.40.1 (20161225.0304)
 -->
<!-- Title: game::tic_tac_toe::ConsoleGame::loop Pages: 1 -->
<!--zoomable 386 -->
<svg id="main" version="1.1" xmlns="http://www.w3.org/2000/svg" xmlns:xlink="http://www.w3.org/1999/xlink" xml:space="preserve" onload="init(evt)">
<style type="text/css"><![CDATA[
.edge:hover path { stroke: red; }
.edge:hover polygon { stroke: red; fill: red; }
]]></style>
<script type="text/javascript"><![CDATA[
var edges = document.getElementsByTagName('g');
if (edges && edges.length) {
  for (var i=0;i<edges.length;i++) {
    if (edges[i].id.substr(0,4)=='edge') {
      edges[i].setAttribute('class','edge');
    }
  }
}
]]></script>
        <defs>
                <circle id="rim" cx="0" cy="0" r="7"/>
                <circle id="rim2" cx="0" cy="0" r="3.5"/>
                <g id="zoomPlus">
                        <use xlink:href="#rim" fill="#404040">
                                <set attributeName="fill" to="#808080" begin="zoomplus.mouseover" end="zoomplus.mouseout"/>
                        </use>
                        <path d="M-4,0h8M0,-4v8" fill="none" stroke="white" stroke-width="1.5" pointer-events="none"/>
                </g>
                <g id="zoomMin">
                        <use xlink:href="#rim" fill="#404040">
                                <set attributeName="fill" to="#808080" begin="zoomminus.mouseover" end="zoomminus.mouseout"/>
                        </use>
                        <path d="M-4,0h8" fill="none" stroke="white" stroke-width="1.5" pointer-events="none"/>
                </g>
                <g id="dirArrow">
                        <path fill="none" stroke="white" stroke-width="1.5" d="M0,-3.0v7 M-2.5,-0.5L0,-3.0L2.5,-0.5"/>
                </g>
               <g id="resetDef">
                       <use xlink:href="#rim2" fill="#404040">
                               <set attributeName="fill" to="#808080" begin="reset.mouseover" end="reset.mouseout"/>
                       </use>
               </g>
        </defs>

<script type="text/javascript">
var viewWidth = 1205;
var viewHeight = 386;
var sectionId = 'dynsection-4';
</script>
<script xlink:href="svgpan.js"/>
<svg id="graph" class="graph">
<g id="viewport">
<title>game::tic_tac_toe::ConsoleGame::loop</title>
<!-- Node9 -->
<g id="node1" class="node">
<title>Node9</title>
<polygon fill="#bfbfbf" stroke="#000000" points="0,-161.5 0,-191.5 112,-191.5 112,-161.5 0,-161.5"/>
<text text-anchor="start" x="8" y="-179.5" font-family="Helvetica,sans-Serif" font-size="10.00" fill="#000000">game::tic_tac_toe::</text>
<text text-anchor="middle" x="56" y="-168.5" font-family="Helvetica,sans-Serif" font-size="10.00" fill="#000000">ConsoleGame::loop</text>
</g>
<!-- Node10 -->
<g id="node2" class="node">
<title>Node10</title>
<g id="a_node2"><a xlink:href="classgame_1_1tic__tac__toe_1_1_console_game.html#a209ec289b23e0325417d50a31a323b37" target="_top" xlink:title="game::tic_tac_toe::\lConsoleGame::draw">
<polygon fill="none" stroke="#000000" points="172.5,-298.5 172.5,-328.5 287.5,-328.5 287.5,-298.5 172.5,-298.5"/>
<text text-anchor="start" x="180.5" y="-316.5" font-family="Helvetica,sans-Serif" font-size="10.00" fill="#000000">game::tic_tac_toe::</text>
<text text-anchor="middle" x="230" y="-305.5" font-family="Helvetica,sans-Serif" font-size="10.00" fill="#000000">ConsoleGame::draw</text>
</a>
</g>
</g>
<!-- Node9&#45;&gt;Node10 -->
<g id="edge1" class="edge">
<title>Node9&#45;&gt;Node10</title>
<path fill="none" stroke="#191970" d="M64.3072,-191.7809C78.3274,-216.1288 109.0101,-263.6134 148,-289.5 152.6341,-292.5767 157.6701,-295.2671 162.8908,-297.6182"/>
<polygon fill="#191970" stroke="#191970" points="161.8585,-300.9764 172.4407,-301.494 164.4909,-294.4903 161.8585,-300.9764"/>
</g>
<!-- Node13 -->
<g id="node5" class="node">
<title>Node13</title>
<g id="a_node5"><a xlink:href="classgame_1_1tic__tac__toe_1_1_tic_tac_toe.html#a06463011bee6de3d33946f9162970989" target="_top" xlink:title="Tells if the game is finished yet. ">
<polygon fill="none" stroke="#000000" points="171.5,-249.5 171.5,-279.5 288.5,-279.5 288.5,-249.5 171.5,-249.5"/>
<text text-anchor="start" x="179.5" y="-267.5" font-family="Helvetica,sans-Serif" font-size="10.00" fill="#000000">game::tic_tac_toe::</text>
<text text-anchor="middle" x="230" y="-256.5" font-family="Helvetica,sans-Serif" font-size="10.00" fill="#000000">TicTacToe::isFinished</text>
</a>
</g>
</g>
<!-- Node9&#45;&gt;Node13 -->
<g id="edge4" class="edge">
<title>Node9&#45;&gt;Node13</title>
<path fill="none" stroke="#191970" d="M77.1826,-191.6742C95.363,-204.2461 122.5795,-222.0125 148,-234.5 156.1933,-238.5249 165.0693,-242.3162 173.8535,-245.7611"/>
<polygon fill="#191970" stroke="#191970" points="172.7214,-249.0751 183.3125,-249.358 175.2094,-242.5322 172.7214,-249.0751"/>
</g>
<!-- Node14 -->
<g id="node6" class="node">
<title>Node14</title>
<g id="a_node6"><a xlink:href="classgame_1_1_abstract_board.html#a689982e6640633d78008157906c6d63a" target="_top" xlink:title="Status of the game. ">
<polygon fill="none" stroke="#000000" points="400,-246.5 400,-276.5 519,-276.5 519,-246.5 400,-246.5"/>
<text text-anchor="start" x="408" y="-264.5" font-family="Helvetica,sans-Serif" font-size="10.00" fill="#000000">game::AbstractBoard</text>
<text text-anchor="middle" x="459.5" y="-253.5" font-family="Helvetica,sans-Serif" font-size="10.00" fill="#000000">::checkStatus</text>
</a>
</g>
</g>
<!-- Node9&#45;&gt;Node14 -->
<g id="edge29" class="edge">
<title>Node9&#45;&gt;Node14</title>
<path fill="none" stroke="#191970" d="M108.8561,-191.5921C121.6248,-195.0357 135.2622,-198.547 148,-201.5 230.6283,-220.656 326.5781,-238.479 389.9153,-249.6398"/>
<polygon fill="#191970" stroke="#191970" points="389.339,-253.0921 399.7935,-251.373 390.5488,-246.1974 389.339,-253.0921"/>
</g>
<!-- Node15 -->
<g id="node7" class="node">
<title>Node15</title>
<g id="a_node7"><a xlink:href="classgame_1_1tic__tac__toe_1_1_tic_tac_toe.html#ae460add5608bc785e202c876dea8f9ba" target="_top" xlink:title="Get the player who hadn&#39;t play yet. ">
<polygon fill="none" stroke="#000000" points="156.5,-161.5 156.5,-191.5 303.5,-191.5 303.5,-161.5 156.5,-161.5"/>
<text text-anchor="start" x="164.5" y="-179.5" font-family="Helvetica,sans-Serif" font-size="10.00" fill="#000000">game::tic_tac_toe::</text>
<text text-anchor="middle" x="230" y="-168.5" font-family="Helvetica,sans-Serif" font-size="10.00" fill="#000000">TicTacToe::getPlayerToPlay</text>
</a>
</g>
</g>
<!-- Node9&#45;&gt;Node15 -->
<g id="edge6" class="edge">
<title>Node9&#45;&gt;Node15</title>
<path fill="none" stroke="#191970" d="M112.0125,-176.5C122.9236,-176.5 134.5827,-176.5 146.1668,-176.5"/>
<polygon fill="#191970" stroke="#191970" points="146.3069,-180.0001 156.3069,-176.5 146.3068,-173.0001 146.3069,-180.0001"/>
</g>
<!-- Node16 -->
<g id="node8" class="node">
<title>Node16</title>
<g id="a_node8"><a xlink:href="classmcts_1_1_m_c_t_s_player.html#a48340fed9c5730f0d64ca177682f575e" target="_top" xlink:title="Returns the best move after running the ai. ">
<polygon fill="none" stroke="#000000" points="151,-123 151,-142 309,-142 309,-123 151,-123"/>
<text text-anchor="middle" x="230" y="-130" font-family="Helvetica,sans-Serif" font-size="10.00" fill="#000000">mcts::MCTSPlayer::bestMove</text>
</a>
</g>
</g>
<!-- Node9&#45;&gt;Node16 -->
<g id="edge7" class="edge">
<title>Node9&#45;&gt;Node16</title>
<path fill="none" stroke="#191970" d="M112.4022,-161.6346C124.1575,-158.579 136.4764,-155.4082 148,-152.5 158.444,-149.8643 169.651,-147.0932 180.3218,-144.4818"/>
<polygon fill="#191970" stroke="#191970" points="181.4602,-147.8069 190.3459,-142.0367 179.8013,-141.0062 181.4602,-147.8069"/>
</g>
<!-- Node34 -->
<g id="node26" class="node">
<title>Node34</title>
<g id="a_node26"><a xlink:href="classmcts_1_1_m_c_t_s_player.html#a02d0a6f2219decabb51ff9d8c4c9b355" target="_top" xlink:title="Moves the root node to node with targeted cell. ">
<polygon fill="none" stroke="#000000" points="148,-85 148,-104 312,-104 312,-85 148,-85"/>
<text text-anchor="middle" x="230" y="-92" font-family="Helvetica,sans-Serif" font-size="10.00" fill="#000000">mcts::MCTSPlayer::updateTree</text>
</a>
</g>
</g>
<!-- Node9&#45;&gt;Node34 -->
<g id="edge26" class="edge">
<title>Node9&#45;&gt;Node34</title>
<path fill="none" stroke="#191970" d="M73.8139,-161.2815C91.5169,-146.9196 119.9987,-125.8058 148,-113.5 153.7067,-110.9921 159.7883,-108.7924 165.9614,-106.8679"/>
<polygon fill="#191970" stroke="#191970" points="167.0552,-110.1952 175.6966,-104.0653 165.1186,-103.4684 167.0552,-110.1952"/>
</g>
<!-- Node35 -->
<g id="node27" class="node">
<title>Node35</title>
<g id="a_node27"><a xlink:href="classgame_1_1tic__tac__toe_1_1_tic_tac_toe.html#a68edd6e6abdd924bc2eae503621492bb" target="_top" xlink:title="game::tic_tac_toe::\lTicTacToe::play">
<polygon fill="none" stroke="#000000" points="175,-22.5 175,-52.5 285,-52.5 285,-22.5 175,-22.5"/>
<text text-anchor="start" x="183" y="-40.5" font-family="Helvetica,sans-Serif" font-size="10.00" fill="#000000">game::tic_tac_toe::</text>
<text text-anchor="middle" x="230" y="-29.5" font-family="Helvetica,sans-Serif" font-size="10.00" fill="#000000">TicTacToe::play</text>
</a>
</g>
</g>
<!-- Node9&#45;&gt;Node35 -->
<g id="edge27" class="edge">
<title>Node9&#45;&gt;Node35</title>
<path fill="none" stroke="#191970" d="M66.6719,-161.4009C82.4282,-139.9878 113.7685,-100.615 148,-75.5 157.6857,-68.3938 168.9124,-62.1392 179.892,-56.8625"/>
<polygon fill="#191970" stroke="#191970" points="181.3966,-60.023 189.0175,-52.6628 178.4701,-53.6641 181.3966,-60.023"/>
</g>
<!-- Node11 -->
<g id="node3" class="node">
<title>Node11</title>
<g id="a_node3"><a xlink:href="classgame_1_1_abstract_board.html#a73d6bef66826688cd6e2bc0f37acb4b0" target="_top" xlink:title="Get all of the AbstractBoardCell. ">
<polygon fill="none" stroke="#000000" points="400,-347.5 400,-377.5 519,-377.5 519,-347.5 400,-347.5"/>
<text text-anchor="start" x="408" y="-365.5" font-family="Helvetica,sans-Serif" font-size="10.00" fill="#000000">game::AbstractBoard</text>
<text text-anchor="middle" x="459.5" y="-354.5" font-family="Helvetica,sans-Serif" font-size="10.00" fill="#000000">::getBoardCells</text>
</a>
</g>
</g>
<!-- Node10&#45;&gt;Node11 -->
<g id="edge2" class="edge">
<title>Node10&#45;&gt;Node11</title>
<path fill="none" stroke="#191970" d="M287.6163,-325.8015C318.6615,-332.4299 357.1973,-340.6576 389.9081,-347.6416"/>
<polygon fill="#191970" stroke="#191970" points="389.3475,-351.1007 399.8579,-349.766 390.8092,-344.255 389.3475,-351.1007"/>
</g>
<!-- Node12 -->
<g id="node4" class="node">
<title>Node12</title>
<g id="a_node4"><a xlink:href="classgame_1_1_abstract_board.html#a17bd6905ded76d0005437d288fe8ac21" target="_top" xlink:title="game::AbstractBoard\l::size">
<polygon fill="none" stroke="#000000" points="400,-298.5 400,-328.5 519,-328.5 519,-298.5 400,-298.5"/>
<text text-anchor="start" x="408" y="-316.5" font-family="Helvetica,sans-Serif" font-size="10.00" fill="#000000">game::AbstractBoard</text>
<text text-anchor="middle" x="459.5" y="-305.5" font-family="Helvetica,sans-Serif" font-size="10.00" fill="#000000">::size</text>
</a>
</g>
</g>
<!-- Node10&#45;&gt;Node12 -->
<g id="edge3" class="edge">
<title>Node10&#45;&gt;Node12</title>
<path fill="none" stroke="#191970" d="M287.6163,-313.5C318.5276,-313.5 356.8652,-313.5 389.4848,-313.5"/>
<polygon fill="#191970" stroke="#191970" points="389.858,-317.0001 399.8579,-313.5 389.8579,-310.0001 389.858,-317.0001"/>
</g>
<!-- Node13&#45;&gt;Node14 -->
<g id="edge5" class="edge">
<title>Node13&#45;&gt;Node14</title>
<path fill="none" stroke="#191970" d="M288.5064,-263.7352C319.3037,-263.3326 357.2819,-262.8362 389.6181,-262.4135"/>
<polygon fill="#191970" stroke="#191970" points="389.9489,-265.9096 399.9023,-262.2791 389.8574,-258.9102 389.9489,-265.9096"/>
</g>
<!-- Node17 -->
<g id="node9" class="node">
<title>Node17</title>
<g id="a_node9"><a xlink:href="classmcts_1_1_m_c_t_s_player.html#a53677f7c7f9cfe4b7999af8abcfb8641" target="_top" xlink:title="Unleashe the power of the MCTS !!!! ">
<polygon fill="none" stroke="#000000" points="370.5,-202 370.5,-221 548.5,-221 548.5,-202 370.5,-202"/>
<text text-anchor="middle" x="459.5" y="-209" font-family="Helvetica,sans-Serif" font-size="10.00" fill="#000000">mcts::MCTSPlayer::unleash_mcts</text>
</a>
</g>
</g>
<!-- Node16&#45;&gt;Node17 -->
<g id="edge8" class="edge">
<title>Node16&#45;&gt;Node17</title>
<path fill="none" stroke="#191970" d="M288.1869,-142.0618C296.5053,-144.7298 304.7043,-148.1405 312,-152.5 332.5314,-164.7683 327.0493,-180.9624 348,-192.5 352.0274,-194.7179 356.2509,-196.689 360.6007,-198.44"/>
<polygon fill="#191970" stroke="#191970" points="359.7041,-201.8371 370.2985,-201.9318 362.0755,-195.251 359.7041,-201.8371"/>
</g>
<!-- Node28 -->
<g id="node20" class="node">
<title>Node28</title>
<g id="a_node20"><a xlink:href="classmcts_1_1_m_c_t_s_player.html#a9e8202cd2530b6ecc20f873d899823da" target="_top" xlink:title="Join the multiple trees into 1 so that we can get the best move. ">
<polygon fill="none" stroke="#000000" points="382.5,-164 382.5,-183 536.5,-183 536.5,-164 382.5,-164"/>
<text text-anchor="middle" x="459.5" y="-171" font-family="Helvetica,sans-Serif" font-size="10.00" fill="#000000">mcts::MCTSPlayer::joinTrees</text>
</a>
</g>
</g>
<!-- Node16&#45;&gt;Node28 -->
<g id="edge20" class="edge">
<title>Node16&#45;&gt;Node28</title>
<path fill="none" stroke="#191970" d="M280.2099,-142.0392C301.1537,-145.9719 325.741,-150.5288 348,-154.5 362.3717,-157.0641 377.7995,-159.7413 392.4581,-162.2497"/>
<polygon fill="#191970" stroke="#191970" points="392.0148,-165.7245 402.4609,-163.9558 393.1918,-158.8242 392.0148,-165.7245"/>
</g>
<!-- Node30 -->
<g id="node22" class="node">
<title>Node30</title>
<g id="a_node22"><a xlink:href="classmcts_1_1_tree.html#a0431bd1074e29e682fe3c7bc6a3aee89" target="_top" xlink:title="mcts::Tree::bestMove">
<polygon fill="none" stroke="#000000" points="399.5,-126 399.5,-145 519.5,-145 519.5,-126 399.5,-126"/>
<text text-anchor="middle" x="459.5" y="-133" font-family="Helvetica,sans-Serif" font-size="10.00" fill="#000000">mcts::Tree::bestMove</text>
</a>
</g>
</g>
<!-- Node16&#45;&gt;Node30 -->
<g id="edge22" class="edge">
<title>Node16&#45;&gt;Node30</title>
<path fill="none" stroke="#191970" d="M309.3022,-133.5366C335.2653,-133.876 363.9131,-134.2505 389.1669,-134.5806"/>
<polygon fill="#191970" stroke="#191970" points="389.3511,-138.0832 399.396,-134.7143 389.4426,-131.0838 389.3511,-138.0832"/>
</g>
<!-- Node32 -->
<g id="node24" class="node">
<title>Node32</title>
<g id="a_node24"><a xlink:href="classmcts_1_1_m_c_t_s_player.html#aa68be6bbbbd01044d42b9c2d0149b366" target="_top" xlink:title="Get the Corresponding Move object. ">
<polygon fill="none" stroke="#000000" points="348,-88 348,-107 571,-107 571,-88 348,-88"/>
<text text-anchor="middle" x="459.5" y="-95" font-family="Helvetica,sans-Serif" font-size="10.00" fill="#000000">mcts::MCTSPlayer::getCorrespondingMove</text>
</a>
</g>
</g>
<!-- Node16&#45;&gt;Node32 -->
<g id="edge24" class="edge">
<title>Node16&#45;&gt;Node32</title>
<path fill="none" stroke="#191970" d="M292.4087,-122.9823C321.6256,-118.5266 356.604,-113.1922 386.9899,-108.5582"/>
<polygon fill="#191970" stroke="#191970" points="387.7457,-111.9835 397.1037,-107.0158 386.6903,-105.0635 387.7457,-111.9835"/>
</g>
<!-- Node33 -->
<g id="node25" class="node">
<title>Node33</title>
<g id="a_node25"><a xlink:href="classmcts_1_1_tree.html#a75496cb3742583b221c1b95d8fd85718" target="_top" xlink:title="mcts::Tree::getRootNode">
<polygon fill="none" stroke="#000000" points="391.5,-50 391.5,-69 527.5,-69 527.5,-50 391.5,-50"/>
<text text-anchor="middle" x="459.5" y="-57" font-family="Helvetica,sans-Serif" font-size="10.00" fill="#000000">mcts::Tree::getRootNode</text>
</a>
</g>
</g>
<!-- Node16&#45;&gt;Node33 -->
<g id="edge25" class="edge">
<title>Node16&#45;&gt;Node33</title>
<path fill="none" stroke="#191970" d="M289.2233,-122.874C297.136,-120.4223 304.9447,-117.3498 312,-113.5 331.5889,-102.8112 328.1048,-88.6073 348,-78.5 358.2908,-73.272 369.7344,-69.4431 381.2588,-66.6464"/>
<polygon fill="#191970" stroke="#191970" points="382.3524,-69.9905 391.3801,-64.4453 380.8647,-63.1504 382.3524,-69.9905"/>
</g>
<!-- Node18 -->
<g id="node10" class="node">
<title>Node18</title>
<g id="a_node10"><a xlink:href="classmcts_1_1_m_c_t_s.html#ae8b2818e7a34e858e9dd284d33bca874" target="_top" xlink:title="Start the mcts. ">
<polygon fill="none" stroke="#000000" points="637,-202 637,-221 744,-221 744,-202 637,-202"/>
<text text-anchor="middle" x="690.5" y="-209" font-family="Helvetica,sans-Serif" font-size="10.00" fill="#000000">mcts::MCTS::begin</text>
</a>
</g>
</g>
<!-- Node17&#45;&gt;Node18 -->
<g id="edge9" class="edge">
<title>Node17&#45;&gt;Node18</title>
<path fill="none" stroke="#191970" d="M548.8106,-211.5C574.8056,-211.5 602.6689,-211.5 626.7491,-211.5"/>
<polygon fill="#191970" stroke="#191970" points="626.8211,-215.0001 636.8211,-211.5 626.821,-208.0001 626.8211,-215.0001"/>
</g>
<!-- Node19 -->
<g id="node11" class="node">
<title>Node19</title>
<g id="a_node11"><a xlink:href="structmcts_1_1timer.html#af6b8b0201318b987bcab531de4b964f9" target="_top" xlink:title="mcts::timer::milliseconds\l_elapsed">
<polygon fill="none" stroke="#000000" points="825,-328.5 825,-358.5 965,-358.5 965,-328.5 825,-328.5"/>
<text text-anchor="start" x="833" y="-346.5" font-family="Helvetica,sans-Serif" font-size="10.00" fill="#000000">mcts::timer::milliseconds</text>
<text text-anchor="middle" x="895" y="-335.5" font-family="Helvetica,sans-Serif" font-size="10.00" fill="#000000">_elapsed</text>
</a>
</g>
</g>
<!-- Node18&#45;&gt;Node19 -->
<g id="edge10" class="edge">
<title>Node18&#45;&gt;Node19</title>
<path fill="none" stroke="#191970" d="M699.4831,-221.2827C718.2401,-241.194 763.6827,-286.8004 810,-313.5 817.211,-317.6568 825.0948,-321.3813 833.0605,-324.6738"/>
<polygon fill="#191970" stroke="#191970" points="831.826,-327.9491 842.4137,-328.3403 834.3809,-321.432 831.826,-327.9491"/>
</g>
<!-- Node20 -->
<g id="node12" class="node">
<title>Node20</title>
<g id="a_node12"><a xlink:href="classmcts_1_1_m_c_t_s.html#a5a3c4a056b0611c19839d6757871653b" target="_top" xlink:title="mcts::MCTS::selectBestChild\lAndDoAction">
<polygon fill="none" stroke="#000000" points="817.5,-240.5 817.5,-270.5 972.5,-270.5 972.5,-240.5 817.5,-240.5"/>
<text text-anchor="start" x="825.5" y="-258.5" font-family="Helvetica,sans-Serif" font-size="10.00" fill="#000000">mcts::MCTS::selectBestChild</text>
<text text-anchor="middle" x="895" y="-247.5" font-family="Helvetica,sans-Serif" font-size="10.00" fill="#000000">AndDoAction</text>
</a>
</g>
</g>
<!-- Node18&#45;&gt;Node20 -->
<g id="edge11" class="edge">
<title>Node18&#45;&gt;Node20</title>
<path fill="none" stroke="#191970" d="M734.8735,-221.0473C758.3089,-226.0897 787.7925,-232.4334 815.0529,-238.2987"/>
<polygon fill="#191970" stroke="#191970" points="814.4678,-241.7528 824.9803,-240.4346 815.9403,-234.9094 814.4678,-241.7528"/>
</g>
<!-- Node21 -->
<g id="node13" class="node">
<title>Node21</title>
<g id="a_node13"><a xlink:href="classmcts_1_1_m_c_t_s.html#a9b161c003bc21fe3910d7800c09fff1d" target="_top" xlink:title="mcts::MCTS::doActionOnBoard">
<polygon fill="none" stroke="#000000" points="1024.5,-287 1024.5,-306 1188.5,-306 1188.5,-287 1024.5,-287"/>
<text text-anchor="middle" x="1106.5" y="-294" font-family="Helvetica,sans-Serif" font-size="10.00" fill="#000000">mcts::MCTS::doActionOnBoard</text>
</a>
</g>
</g>
<!-- Node18&#45;&gt;Node21 -->
<g id="edge16" class="edge">
<title>Node18&#45;&gt;Node21</title>
<path fill="none" stroke="#191970" d="M702.505,-221.0554C723.0872,-236.8054 767.0561,-267.7422 810,-280.5 876.3333,-300.2063 954.624,-303.6456 1014.0942,-302.4591"/>
<polygon fill="#191970" stroke="#191970" points="1014.3101,-305.9549 1024.2206,-302.2089 1014.1371,-298.957 1014.3101,-305.9549"/>
</g>
<!-- Node23 -->
<g id="node15" class="node">
<title>Node23</title>
<g id="a_node15"><a xlink:href="classmcts_1_1_m_c_t_s.html#a8c65e74d070a037e5ad0331a39379c9c" target="_top" xlink:title="mcts::MCTS::expandNode">
<polygon fill="none" stroke="#000000" points="824.5,-202 824.5,-221 965.5,-221 965.5,-202 824.5,-202"/>
<text text-anchor="middle" x="895" y="-209" font-family="Helvetica,sans-Serif" font-size="10.00" fill="#000000">mcts::MCTS::expandNode</text>
</a>
</g>
</g>
<!-- Node18&#45;&gt;Node23 -->
<g id="edge14" class="edge">
<title>Node18&#45;&gt;Node23</title>
<path fill="none" stroke="#191970" d="M744.23,-211.5C765.5685,-211.5 790.5772,-211.5 814.0243,-211.5"/>
<polygon fill="#191970" stroke="#191970" points="814.314,-215.0001 824.314,-211.5 814.3139,-208.0001 814.314,-215.0001"/>
</g>
<!-- Node24 -->
<g id="node16" class="node">
<title>Node24</title>
<g id="a_node16"><a xlink:href="classmcts_1_1_m_c_t_s.html#a6b5686f91610bb4f46c395634a17a5b8" target="_top" xlink:title="mcts::MCTS::randomChoose\lChildOrFallbackOnNode">
<polygon fill="none" stroke="#000000" points="818.5,-152.5 818.5,-182.5 971.5,-182.5 971.5,-152.5 818.5,-152.5"/>
<text text-anchor="start" x="826.5" y="-170.5" font-family="Helvetica,sans-Serif" font-size="10.00" fill="#000000">mcts::MCTS::randomChoose</text>
<text text-anchor="middle" x="895" y="-159.5" font-family="Helvetica,sans-Serif" font-size="10.00" fill="#000000">ChildOrFallbackOnNode</text>
</a>
</g>
</g>
<!-- Node18&#45;&gt;Node24 -->
<g id="edge15" class="edge">
<title>Node18&#45;&gt;Node24</title>
<path fill="none" stroke="#191970" d="M734.8735,-201.9527C758.3089,-196.9103 787.7925,-190.5666 815.0529,-184.7013"/>
<polygon fill="#191970" stroke="#191970" points="815.9403,-188.0906 824.9803,-182.5654 814.4678,-181.2472 815.9403,-188.0906"/>
</g>
<!-- Node25 -->
<g id="node17" class="node">
<title>Node25</title>
<g id="a_node17"><a xlink:href="classmcts_1_1_m_c_t_s.html#ad465558c1f4933cae2a32ff7394fc49b" target="_top" xlink:title="mcts::MCTS::randomSimulation">
<polygon fill="none" stroke="#000000" points="810,-114 810,-133 980,-133 980,-114 810,-114"/>
<text text-anchor="middle" x="895" y="-121" font-family="Helvetica,sans-Serif" font-size="10.00" fill="#000000">mcts::MCTS::randomSimulation</text>
</a>
</g>
</g>
<!-- Node18&#45;&gt;Node25 -->
<g id="edge17" class="edge">
<title>Node18&#45;&gt;Node25</title>
<path fill="none" stroke="#191970" d="M744.0279,-205.2611C754.5278,-202.4414 765.0489,-198.3702 774,-192.5 796.5975,-177.6803 787.4571,-158.4027 810,-143.5 813.8018,-140.9867 817.8829,-138.7879 822.1252,-136.8643"/>
<polygon fill="#191970" stroke="#191970" points="823.631,-140.032 831.6241,-133.0778 821.0389,-133.5295 823.631,-140.032"/>
</g>
<!-- Node27 -->
<g id="node19" class="node">
<title>Node27</title>
<g id="a_node19"><a xlink:href="classmcts_1_1_m_c_t_s.html#a53275dba0c93543b2fa8c24ad928e4a8" target="_top" xlink:title="mcts::MCTS::backPropagate\lAndRevertAction">
<polygon fill="none" stroke="#000000" points="819,-64.5 819,-94.5 971,-94.5 971,-64.5 819,-64.5"/>
<text text-anchor="start" x="827" y="-82.5" font-family="Helvetica,sans-Serif" font-size="10.00" fill="#000000">mcts::MCTS::backPropagate</text>
<text text-anchor="middle" x="895" y="-71.5" font-family="Helvetica,sans-Serif" font-size="10.00" fill="#000000">AndRevertAction</text>
</a>
</g>
</g>
<!-- Node18&#45;&gt;Node27 -->
<g id="edge19" class="edge">
<title>Node18&#45;&gt;Node27</title>
<path fill="none" stroke="#191970" d="M744.3771,-207.1312C755.0899,-204.2022 765.6075,-199.6136 774,-192.5 806.2354,-165.1768 778.6314,-132.8141 810,-104.5 811.7163,-102.9508 813.5242,-101.4973 815.4068,-100.1337"/>
<polygon fill="#191970" stroke="#191970" points="817.4608,-102.9774 824.089,-94.712 813.7531,-97.04 817.4608,-102.9774"/>
</g>
<!-- Node20&#45;&gt;Node21 -->
<g id="edge12" class="edge">
<title>Node20&#45;&gt;Node21</title>
<path fill="none" stroke="#191970" d="M972.5538,-270.5341C997.2012,-275.312 1024.053,-280.5174 1047.1996,-285.0044"/>
<polygon fill="#191970" stroke="#191970" points="1046.7295,-288.4784 1057.2129,-286.9455 1048.0618,-281.6063 1046.7295,-288.4784"/>
</g>
<!-- Node22 -->
<g id="node14" class="node">
<title>Node22</title>
<g id="a_node14"><a xlink:href="classmcts_1_1_m_c_t_s.html#ac75ac1b12fbb40dca468f1c31a9fc8cd" target="_top" xlink:title="mcts::MCTS::formula">
<polygon fill="none" stroke="#000000" points="1047.5,-246 1047.5,-265 1165.5,-265 1165.5,-246 1047.5,-246"/>
<text text-anchor="middle" x="1106.5" y="-253" font-family="Helvetica,sans-Serif" font-size="10.00" fill="#000000">mcts::MCTS::formula</text>
</a>
</g>
</g>
<!-- Node20&#45;&gt;Node22 -->
<g id="edge13" class="edge">
<title>Node20&#45;&gt;Node22</title>
<path fill="none" stroke="#191970" d="M972.5538,-255.5C993.6325,-255.5 1016.3236,-255.5 1036.9306,-255.5"/>
<polygon fill="#191970" stroke="#191970" points="1037.1789,-259.0001 1047.1789,-255.5 1037.1788,-252.0001 1037.1789,-259.0001"/>
</g>
<!-- Node26 -->
<g id="node18" class="node">
<title>Node26</title>
<g id="a_node18"><a xlink:href="classmcts_1_1_m_c_t_s.html#a3e918b416dfe1e5155b077788936f137" target="_top" xlink:title="mcts::MCTS::getRandomAvailable\lMoveFromBoard">
<polygon fill="none" stroke="#000000" points="1016,-108.5 1016,-138.5 1197,-138.5 1197,-108.5 1016,-108.5"/>
<text text-anchor="start" x="1024" y="-126.5" font-family="Helvetica,sans-Serif" font-size="10.00" fill="#000000">mcts::MCTS::getRandomAvailable</text>
<text text-anchor="middle" x="1106.5" y="-115.5" font-family="Helvetica,sans-Serif" font-size="10.00" fill="#000000">MoveFromBoard</text>
</a>
</g>
</g>
<!-- Node25&#45;&gt;Node26 -->
<g id="edge18" class="edge">
<title>Node25&#45;&gt;Node26</title>
<path fill="none" stroke="#191970" d="M980.1109,-123.5C988.5261,-123.5 997.1228,-123.5 1005.6764,-123.5"/>
<polygon fill="#191970" stroke="#191970" points="1005.6843,-127.0001 1015.6843,-123.5 1005.6842,-120.0001 1005.6843,-127.0001"/>
</g>
<!-- Node29 -->
<g id="node21" class="node">
<title>Node29</title>
<g id="a_node21"><a xlink:href="classmcts_1_1_tree.html#a06139b9922488bb26feb25745e54e508" target="_top" xlink:title="Merges tree into the current tree. ">
<polygon fill="none" stroke="#000000" points="638.5,-164 638.5,-183 742.5,-183 742.5,-164 638.5,-164"/>
<text text-anchor="middle" x="690.5" y="-171" font-family="Helvetica,sans-Serif" font-size="10.00" fill="#000000">mcts::Tree::merge</text>
</a>
</g>
</g>
<!-- Node28&#45;&gt;Node29 -->
<g id="edge21" class="edge">
<title>Node28&#45;&gt;Node29</title>
<path fill="none" stroke="#191970" d="M536.7408,-173.5C566.5282,-173.5 600.1431,-173.5 628.3289,-173.5"/>
<polygon fill="#191970" stroke="#191970" points="628.4505,-177.0001 638.4504,-173.5 628.4504,-170.0001 628.4505,-177.0001"/>
</g>
<!-- Node31 -->
<g id="node23" class="node">
<title>Node31</title>
<g id="a_node23"><a xlink:href="classmcts_1_1_tree.html#a2cf4616df96cb68014ebd8fa6d0aebc4" target="_top" xlink:title="mcts::Tree::nodeWithMaxVisits">
<polygon fill="none" stroke="#000000" points="607,-126 607,-145 774,-145 774,-126 607,-126"/>
<text text-anchor="middle" x="690.5" y="-133" font-family="Helvetica,sans-Serif" font-size="10.00" fill="#000000">mcts::Tree::nodeWithMaxVisits</text>
</a>
</g>
</g>
<!-- Node30&#45;&gt;Node31 -->
<g id="edge23" class="edge">
<title>Node30&#45;&gt;Node31</title>
<path fill="none" stroke="#191970" d="M519.5895,-135.5C543.0744,-135.5 570.5648,-135.5 596.5471,-135.5"/>
<polygon fill="#191970" stroke="#191970" points="596.8014,-139.0001 606.8013,-135.5 596.8013,-132.0001 596.8014,-139.0001"/>
</g>
<!-- Node36 -->
<g id="node28" class="node">
<title>Node36</title>
<g id="a_node28"><a xlink:href="classgame_1_1_abstract_board.html#ac2b6d96389ad0ac58d22323d75f91f97" target="_top" xlink:title="perform a movement on the board, sets the current cell on the pawn ">
<polygon fill="none" stroke="#000000" points="400,-.5 400,-30.5 519,-30.5 519,-.5 400,-.5"/>
<text text-anchor="start" x="408" y="-18.5" font-family="Helvetica,sans-Serif" font-size="10.00" fill="#000000">game::AbstractBoard</text>
<text text-anchor="middle" x="459.5" y="-7.5" font-family="Helvetica,sans-Serif" font-size="10.00" fill="#000000">::performMove</text>
</a>
</g>
</g>
<!-- Node35&#45;&gt;Node36 -->
<g id="edge28" class="edge">
<title>Node35&#45;&gt;Node36</title>
<path fill="none" stroke="#191970" d="M285.263,-32.2025C316.6352,-29.1951 356.2069,-25.4017 389.7066,-22.1904"/>
<polygon fill="#191970" stroke="#191970" points="390.272,-25.6524 399.8924,-21.214 389.604,-18.6843 390.272,-25.6524"/>
</g>
</g>
</svg>
        <g id="navigator" transform="translate(0 0)" fill="#404254">
                <rect fill="#f2f5e9" fill-opacity="0.5" stroke="#606060" stroke-width=".5" x="0" y="0" width="60" height="60"/>
                <use id="zoomplus" xlink:href="#zoomPlus" x="17" y="9" onmousedown="handleZoom(evt,'in')"/>
                <use id="zoomminus" xlink:href="#zoomMin" x="42" y="9" onmousedown="handleZoom(evt,'out')"/>
                <use id="reset" xlink:href="#resetDef" x="30" y="36" onmousedown="handleReset()"/>
                <g id="arrowUp" xlink:href="#dirArrow" transform="translate(30 24)" onmousedown="handlePan(0,-1)">
                  <use xlink:href="#rim" fill="#404040">
                        <set attributeName="fill" to="#808080" begin="arrowUp.mouseover" end="arrowUp.mouseout"/>
                  </use>
                  <path fill="none" stroke="white" stroke-width="1.5" d="M0,-3.0v7 M-2.5,-0.5L0,-3.0L2.5,-0.5"/>
                </g>
                <g id="arrowRight" xlink:href="#dirArrow" transform="rotate(90) translate(36 -43)" onmousedown="handlePan(1,0)">
                  <use xlink:href="#rim" fill="#404040">
                        <set attributeName="fill" to="#808080" begin="arrowRight.mouseover" end="arrowRight.mouseout"/>
                  </use>
                  <path fill="none" stroke="white" stroke-width="1.5" d="M0,-3.0v7 M-2.5,-0.5L0,-3.0L2.5,-0.5"/>
                </g>
                <g id="arrowDown" xlink:href="#dirArrow" transform="rotate(180) translate(-30 -48)" onmousedown="handlePan(0,1)">
                  <use xlink:href="#rim" fill="#404040">
                        <set attributeName="fill" to="#808080" begin="arrowDown.mouseover" end="arrowDown.mouseout"/>
                  </use>
                  <path fill="none" stroke="white" stroke-width="1.5" d="M0,-3.0v7 M-2.5,-0.5L0,-3.0L2.5,-0.5"/>
                </g>
                <g id="arrowLeft" xlink:href="#dirArrow" transform="rotate(270) translate(-36 17)" onmousedown="handlePan(-1,0)">
                  <use xlink:href="#rim" fill="#404040">
                        <set attributeName="fill" to="#808080" begin="arrowLeft.mouseover" end="arrowLeft.mouseout"/>
                  </use>
                  <path fill="none" stroke="white" stroke-width="1.5" d="M0,-3.0v7 M-2.5,-0.5L0,-3.0L2.5,-0.5"/>
                </g>
        </g>
        <svg viewBox="0 0 15 15" width="100%" height="30px" preserveAspectRatio="xMaxYMin meet">
         <g id="arrow_out" transform="scale(0.3 0.3)">
          <a xlink:href="classgame_1_1tic__tac__toe_1_1_console_game_a06b07e4c713a60999258b0b573b02a33_cgraph_org.svg" target="_base">
           <rect id="button" ry="5" rx="5" y="6" x="6" height="38" width="38"
                fill="#f2f5e9" fill-opacity="0.5" stroke="#606060" stroke-width="1.0"/>
           <path id="arrow"
             d="M 11.500037,31.436501 C 11.940474,20.09759 22.043105,11.32322 32.158766,21.979434 L 37.068811,17.246167 C 37.068811,17.246167 37.088388,32 37.088388,32 L 22.160133,31.978069 C 22.160133,31.978069 26.997745,27.140456 26.997745,27.140456 C 18.528582,18.264221 13.291696,25.230495 11.500037,31.436501 z"
             style="fill:#404040;"/>
          </a>
         </g>
        </svg>
</svg>
