<?xml version="1.0" encoding="UTF-8" standalone="no"?>
<!DOCTYPE svg PUBLIC "-//W3C//DTD SVG 1.1//EN"
 "http://www.w3.org/Graphics/SVG/1.1/DTD/svg11.dtd">
<!-- Generated by graphviz version 2.40.1 (20161225.0304)
 -->
<!-- Title: game::tic_tac_toe::ConsoleGame::draw Pages: 1 -->
<svg width="278pt" height="88pt"
 viewBox="0.00 0.00 278.00 88.00" xmlns="http://www.w3.org/2000/svg" xmlns:xlink="http://www.w3.org/1999/xlink">
<g id="graph0" class="graph" transform="scale(1 1) rotate(0) translate(4 84)">
<title>game::tic_tac_toe::ConsoleGame::draw</title>
<!-- Node4 -->
<g id="node1" class="node">
<title>Node4</title>
<polygon fill="#bfbfbf" stroke="#000000" points="0,-24.5 0,-54.5 115,-54.5 115,-24.5 0,-24.5"/>
<text text-anchor="start" x="8" y="-42.5" font-family="Helvetica,sans-Serif" font-size="10.00" fill="#000000">game::tic_tac_toe::</text>
<text text-anchor="middle" x="57.5" y="-31.5" font-family="Helvetica,sans-Serif" font-size="10.00" fill="#000000">ConsoleGame::draw</text>
</g>
<!-- Node5 -->
<g id="node2" class="node">
<title>Node5</title>
<g id="a_node2"><a xlink:href="classgame_1_1_abstract_board.html#a73d6bef66826688cd6e2bc0f37acb4b0" target="_top" xlink:title="Get all of the AbstractBoardCell. ">
<polygon fill="none" stroke="#000000" points="151,-49.5 151,-79.5 270,-79.5 270,-49.5 151,-49.5"/>
<text text-anchor="start" x="159" y="-67.5" font-family="Helvetica,sans-Serif" font-size="10.00" fill="#000000">game::AbstractBoard</text>
<text text-anchor="middle" x="210.5" y="-56.5" font-family="Helvetica,sans-Serif" font-size="10.00" fill="#000000">::getBoardCells</text>
</a>
</g>
</g>
<!-- Node4&#45;&gt;Node5 -->
<g id="edge1" class="edge">
<title>Node4&#45;&gt;Node5</title>
<path fill="none" stroke="#191970" d="M115.3427,-48.9514C123.6755,-50.313 132.3227,-51.7259 140.8553,-53.1201"/>
<polygon fill="#191970" stroke="#191970" points="140.3598,-56.5855 150.7934,-54.744 141.4887,-49.6771 140.3598,-56.5855"/>
</g>
<!-- Node6 -->
<g id="node3" class="node">
<title>Node6</title>
<g id="a_node3"><a xlink:href="classgame_1_1_abstract_board.html#a17bd6905ded76d0005437d288fe8ac21" target="_top" xlink:title="game::AbstractBoard\l::size">
<polygon fill="none" stroke="#000000" points="151,-.5 151,-30.5 270,-30.5 270,-.5 151,-.5"/>
<text text-anchor="start" x="159" y="-18.5" font-family="Helvetica,sans-Serif" font-size="10.00" fill="#000000">game::AbstractBoard</text>
<text text-anchor="middle" x="210.5" y="-7.5" font-family="Helvetica,sans-Serif" font-size="10.00" fill="#000000">::size</text>
</a>
</g>
</g>
<!-- Node4&#45;&gt;Node6 -->
<g id="edge2" class="edge">
<title>Node4&#45;&gt;Node6</title>
<path fill="none" stroke="#191970" d="M115.3427,-30.4266C123.6755,-29.1195 132.3227,-27.7631 140.8553,-26.4247"/>
<polygon fill="#191970" stroke="#191970" points="141.4566,-29.8732 150.7934,-24.8657 140.3717,-22.9578 141.4566,-29.8732"/>
</g>
</g>
</svg>
