<?xml version="1.0" encoding="UTF-8" standalone="no"?>
<!DOCTYPE svg PUBLIC "-//W3C//DTD SVG 1.1//EN"
 "http://www.w3.org/Graphics/SVG/1.1/DTD/svg11.dtd">
<!-- Generated by graphviz version 2.40.1 (20161225.0304)
 -->
<!-- Title: mcts::MCTSPlayer&lt; CellT, PlayerT, PawnT &gt; Pages: 1 -->
<svg width="628pt" height="375pt"
 viewBox="0.00 0.00 627.50 375.00" xmlns="http://www.w3.org/2000/svg" xmlns:xlink="http://www.w3.org/1999/xlink">
<g id="graph0" class="graph" transform="scale(1 1) rotate(0) translate(4 371)">
<title>mcts::MCTSPlayer&lt; CellT, PlayerT, PawnT &gt;</title>
<!-- Node1 -->
<g id="node1" class="node">
<title>Node1</title>
<polygon fill="#bfbfbf" stroke="#000000" points="281,-.5 281,-145.5 429,-145.5 429,-.5 281,-.5"/>
<text text-anchor="start" x="289" y="-133.5" font-family="Helvetica,sans-Serif" font-size="10.00" fill="#000000">mcts::MCTSPlayer&lt; CellT,</text>
<text text-anchor="middle" x="355" y="-122.5" font-family="Helvetica,sans-Serif" font-size="10.00" fill="#000000"> PlayerT, PawnT &gt;</text>
<polyline fill="none" stroke="#000000" points="281,-115.5 429,-115.5 "/>
<text text-anchor="middle" x="355" y="-103.5" font-family="Helvetica,sans-Serif" font-size="10.00" fill="#000000"> </text>
<polyline fill="none" stroke="#000000" points="281,-96.5 429,-96.5 "/>
<text text-anchor="start" x="289" y="-84.5" font-family="Helvetica,sans-Serif" font-size="10.00" fill="#000000">+ MCTSPlayer()</text>
<text text-anchor="start" x="289" y="-73.5" font-family="Helvetica,sans-Serif" font-size="10.00" fill="#000000">+ ~MCTSPlayer()</text>
<text text-anchor="start" x="289" y="-62.5" font-family="Helvetica,sans-Serif" font-size="10.00" fill="#000000">+ bestMove()</text>
<text text-anchor="start" x="289" y="-51.5" font-family="Helvetica,sans-Serif" font-size="10.00" fill="#000000">+ updateTree()</text>
<text text-anchor="start" x="289" y="-40.5" font-family="Helvetica,sans-Serif" font-size="10.00" fill="#000000">+ getResult()</text>
<text text-anchor="start" x="289" y="-29.5" font-family="Helvetica,sans-Serif" font-size="10.00" fill="#000000"># unleash_mcts()</text>
<text text-anchor="start" x="289" y="-18.5" font-family="Helvetica,sans-Serif" font-size="10.00" fill="#000000"># getCorrespondingMove()</text>
<text text-anchor="start" x="289" y="-7.5" font-family="Helvetica,sans-Serif" font-size="10.00" fill="#000000"># joinTrees()</text>
</g>
<!-- Node2 -->
<g id="node2" class="node">
<title>Node2</title>
<polygon fill="none" stroke="#bfbfbf" points="0,-193.5 0,-261.5 164,-261.5 164,-193.5 0,-193.5"/>
<text text-anchor="start" x="8" y="-249.5" font-family="Helvetica,sans-Serif" font-size="10.00" fill="#000000">vector&lt; mcts::Tree</text>
<text text-anchor="middle" x="82" y="-238.5" font-family="Helvetica,sans-Serif" font-size="10.00" fill="#000000">&lt; CellT, PlayerT, PawnT &gt; * &gt;</text>
<polyline fill="none" stroke="#bfbfbf" points="0,-231.5 164,-231.5 "/>
<text text-anchor="middle" x="82" y="-219.5" font-family="Helvetica,sans-Serif" font-size="10.00" fill="#000000"> </text>
<polyline fill="none" stroke="#bfbfbf" points="0,-212.5 164,-212.5 "/>
<text text-anchor="middle" x="82" y="-200.5" font-family="Helvetica,sans-Serif" font-size="10.00" fill="#000000"> </text>
</g>
<!-- Node2&#45;&gt;Node1 -->
<g id="edge1" class="edge">
<title>Node2&#45;&gt;Node1</title>
<path fill="none" stroke="#404040" d="M142.249,-193.4031C179.8056,-172.1485 228.7013,-144.4768 270.1461,-121.0217"/>
<polygon fill="none" stroke="#404040" points="270.3439,-120.9098 273.5956,-114.4734 280.7875,-114.9994 277.5358,-121.4358 270.3439,-120.9098"/>
<text text-anchor="middle" x="213.5" y="-167" font-family="Helvetica,sans-Serif" font-size="10.00" fill="#000000"> #trees</text>
</g>
<!-- Node3 -->
<g id="node3" class="node">
<title>Node3</title>
<g id="a_node3"><a xlink:href="structmcts_1_1_m_c_t_s_constraints.html" target="_top" xlink:title="{mcts::MCTSConstraints\n||}">
<polygon fill="none" stroke="#000000" points="182.5,-199 182.5,-256 311.5,-256 311.5,-199 182.5,-199"/>
<text text-anchor="middle" x="247" y="-244" font-family="Helvetica,sans-Serif" font-size="10.00" fill="#000000">mcts::MCTSConstraints</text>
<polyline fill="none" stroke="#000000" points="182.5,-237 311.5,-237 "/>
<text text-anchor="middle" x="247" y="-225" font-family="Helvetica,sans-Serif" font-size="10.00" fill="#000000"> </text>
<polyline fill="none" stroke="#000000" points="182.5,-218 311.5,-218 "/>
<text text-anchor="middle" x="247" y="-206" font-family="Helvetica,sans-Serif" font-size="10.00" fill="#000000"> </text>
</a>
</g>
</g>
<!-- Node3&#45;&gt;Node1 -->
<g id="edge2" class="edge">
<title>Node3&#45;&gt;Node1</title>
<path fill="none" stroke="#404040" d="M267.0609,-198.8018C275.7178,-186.4175 286.3319,-171.2336 297.153,-155.7534"/>
<polygon fill="none" stroke="#404040" points="297.4002,-155.3997 297.5593,-148.1903 304.2754,-145.5644 304.1162,-152.7738 297.4002,-155.3997"/>
<text text-anchor="middle" x="325" y="-167" font-family="Helvetica,sans-Serif" font-size="10.00" fill="#000000"> #constraints</text>
</g>
<!-- Node4 -->
<g id="node4" class="node">
<title>Node4</title>
<polygon fill="none" stroke="#bfbfbf" points="232.5,-309.5 232.5,-366.5 261.5,-366.5 261.5,-309.5 232.5,-309.5"/>
<text text-anchor="middle" x="247" y="-354.5" font-family="Helvetica,sans-Serif" font-size="10.00" fill="#000000">int</text>
<polyline fill="none" stroke="#bfbfbf" points="232.5,-347.5 261.5,-347.5 "/>
<text text-anchor="middle" x="247" y="-335.5" font-family="Helvetica,sans-Serif" font-size="10.00" fill="#000000"> </text>
<polyline fill="none" stroke="#bfbfbf" points="232.5,-328.5 261.5,-328.5 "/>
<text text-anchor="middle" x="247" y="-316.5" font-family="Helvetica,sans-Serif" font-size="10.00" fill="#000000"> </text>
</g>
<!-- Node4&#45;&gt;Node3 -->
<g id="edge3" class="edge">
<title>Node4&#45;&gt;Node3</title>
<path fill="none" stroke="#404040" d="M247,-309.2559C247,-296.7224 247,-281.8039 247,-268.1631"/>
<polygon fill="none" stroke="#404040" points="247.0001,-268.1002 243,-262.1002 247,-256.1002 251,-262.1002 247.0001,-268.1002"/>
<text text-anchor="middle" x="264" y="-283" font-family="Helvetica,sans-Serif" font-size="10.00" fill="#000000"> +time</text>
</g>
<!-- Node5 -->
<g id="node5" class="node">
<title>Node5</title>
<polygon fill="none" stroke="#bfbfbf" points="330,-193.5 330,-261.5 470,-261.5 470,-193.5 330,-193.5"/>
<text text-anchor="start" x="338" y="-249.5" font-family="Helvetica,sans-Serif" font-size="10.00" fill="#000000">AbstractGame&lt; CellT,</text>
<text text-anchor="middle" x="400" y="-238.5" font-family="Helvetica,sans-Serif" font-size="10.00" fill="#000000"> PlayerT, PawnT &gt; *const</text>
<polyline fill="none" stroke="#bfbfbf" points="330,-231.5 470,-231.5 "/>
<text text-anchor="middle" x="400" y="-219.5" font-family="Helvetica,sans-Serif" font-size="10.00" fill="#000000"> </text>
<polyline fill="none" stroke="#bfbfbf" points="330,-212.5 470,-212.5 "/>
<text text-anchor="middle" x="400" y="-200.5" font-family="Helvetica,sans-Serif" font-size="10.00" fill="#000000"> </text>
</g>
<!-- Node5&#45;&gt;Node1 -->
<g id="edge4" class="edge">
<title>Node5&#45;&gt;Node1</title>
<path fill="none" stroke="#404040" d="M390.013,-193.2114C386.8808,-182.4573 383.2741,-170.0744 379.592,-157.4327"/>
<polygon fill="none" stroke="#404040" points="379.5566,-157.3107 374.0383,-152.6687 376.2008,-145.7895 381.7191,-150.4315 379.5566,-157.3107"/>
<text text-anchor="middle" x="405" y="-167" font-family="Helvetica,sans-Serif" font-size="10.00" fill="#000000"> #game</text>
</g>
<!-- Node6 -->
<g id="node6" class="node">
<title>Node6</title>
<polygon fill="none" stroke="#bfbfbf" points="488.5,-199 488.5,-256 619.5,-256 619.5,-199 488.5,-199"/>
<text text-anchor="middle" x="554" y="-244" font-family="Helvetica,sans-Serif" font-size="10.00" fill="#000000">Result&lt; CellT, PawnT &gt;</text>
<polyline fill="none" stroke="#bfbfbf" points="488.5,-237 619.5,-237 "/>
<text text-anchor="middle" x="554" y="-225" font-family="Helvetica,sans-Serif" font-size="10.00" fill="#000000"> </text>
<polyline fill="none" stroke="#bfbfbf" points="488.5,-218 619.5,-218 "/>
<text text-anchor="middle" x="554" y="-206" font-family="Helvetica,sans-Serif" font-size="10.00" fill="#000000"> </text>
</g>
<!-- Node6&#45;&gt;Node1 -->
<g id="edge5" class="edge">
<title>Node6&#45;&gt;Node1</title>
<path fill="none" stroke="#404040" d="M517.036,-198.8018C495.0164,-181.7062 466.1252,-159.2756 438.8444,-138.0953"/>
<polygon fill="none" stroke="#404040" points="438.7547,-138.0256 431.5623,-137.5056 429.276,-130.6665 436.4683,-131.1865 438.7547,-138.0256"/>
<text text-anchor="middle" x="519.5" y="-167" font-family="Helvetica,sans-Serif" font-size="10.00" fill="#000000"> #latest_result</text>
</g>
</g>
</svg>
