<?xml version="1.0" encoding="UTF-8" standalone="no"?>
<!DOCTYPE svg PUBLIC "-//W3C//DTD SVG 1.1//EN"
 "http://www.w3.org/Graphics/SVG/1.1/DTD/svg11.dtd">
<!-- Generated by graphviz version 2.40.1 (20161225.0304)
 -->
<!-- Title: game::penguin::PenguinGame::getPlayerToPlay Pages: 1 -->
<svg width="449pt" height="39pt"
 viewBox="0.00 0.00 449.00 39.00" xmlns="http://www.w3.org/2000/svg" xmlns:xlink="http://www.w3.org/1999/xlink">
<g id="graph0" class="graph" transform="scale(1 1) rotate(0) translate(4 35)">
<title>game::penguin::PenguinGame::getPlayerToPlay</title>
<!-- Node35 -->
<g id="node1" class="node">
<title>Node35</title>
<polygon fill="#bfbfbf" stroke="#000000" points="0,-.5 0,-30.5 164,-30.5 164,-.5 0,-.5"/>
<text text-anchor="start" x="8" y="-18.5" font-family="Helvetica,sans-Serif" font-size="10.00" fill="#000000">game::penguin::PenguinGame</text>
<text text-anchor="middle" x="82" y="-7.5" font-family="Helvetica,sans-Serif" font-size="10.00" fill="#000000">::getPlayerToPlay</text>
</g>
<!-- Node36 -->
<g id="node2" class="node">
<title>Node36</title>
<g id="a_node2"><a xlink:href="classgame_1_1penguin_1_1_console_game.html#a56af132d8e3d16902fb46b7979d37eae" target="_top" xlink:title="Loop while the game is not finished, told by the isFinished method. ">
<polygon fill="none" stroke="#000000" points="200,-.5 200,-30.5 364,-30.5 364,-.5 200,-.5"/>
<text text-anchor="start" x="208" y="-18.5" font-family="Helvetica,sans-Serif" font-size="10.00" fill="#000000">game::penguin::ConsoleGame</text>
<text text-anchor="middle" x="282" y="-7.5" font-family="Helvetica,sans-Serif" font-size="10.00" fill="#000000">::loop</text>
</a>
</g>
</g>
<!-- Node35&#45;&gt;Node36 -->
<g id="edge1" class="edge">
<title>Node35&#45;&gt;Node36</title>
<path fill="none" stroke="#191970" d="M174.4658,-15.5C182.9136,-15.5 191.4335,-15.5 199.7826,-15.5"/>
<polygon fill="#191970" stroke="#191970" points="174.2135,-12.0001 164.2135,-15.5 174.2134,-19.0001 174.2135,-12.0001"/>
</g>
<!-- Node37 -->
<g id="node3" class="node">
<title>Node37</title>
<g id="a_node3"><a xlink:href="main_8cpp.html#a1dfeea39dabf076270426c94def1a2a2" target="_top" xlink:title="main">
<polygon fill="none" stroke="#000000" points="400,-6 400,-25 441,-25 441,-6 400,-6"/>
<text text-anchor="middle" x="420.5" y="-13" font-family="Helvetica,sans-Serif" font-size="10.00" fill="#000000">main</text>
</a>
</g>
</g>
<!-- Node36&#45;&gt;Node37 -->
<g id="edge2" class="edge">
<title>Node36&#45;&gt;Node37</title>
<path fill="none" stroke="#191970" d="M374.2725,-15.5C383.7768,-15.5 392.6282,-15.5 399.9893,-15.5"/>
<polygon fill="#191970" stroke="#191970" points="374.1668,-12.0001 364.1667,-15.5 374.1667,-19.0001 374.1668,-12.0001"/>
</g>
</g>
</svg>
