<?xml version="1.0" encoding="UTF-8" standalone="no"?>
<!DOCTYPE svg PUBLIC "-//W3C//DTD SVG 1.1//EN"
 "http://www.w3.org/Graphics/SVG/1.1/DTD/svg11.dtd">
<!-- Generated by graphviz version 2.40.1 (20161225.0304)
 -->
<!-- Title: game::tic_tac_toe::BoardCell::isClaimed Pages: 1 -->
<svg width="606pt" height="137pt"
 viewBox="0.00 0.00 606.00 137.00" xmlns="http://www.w3.org/2000/svg" xmlns:xlink="http://www.w3.org/1999/xlink">
<g id="graph0" class="graph" transform="scale(1 1) rotate(0) translate(4 133)">
<title>game::tic_tac_toe::BoardCell::isClaimed</title>
<!-- Node13 -->
<g id="node1" class="node">
<title>Node13</title>
<polygon fill="#bfbfbf" stroke="#000000" points="0,-73.5 0,-103.5 119,-103.5 119,-73.5 0,-73.5"/>
<text text-anchor="start" x="8" y="-91.5" font-family="Helvetica,sans-Serif" font-size="10.00" fill="#000000">game::tic_tac_toe::</text>
<text text-anchor="middle" x="59.5" y="-80.5" font-family="Helvetica,sans-Serif" font-size="10.00" fill="#000000">BoardCell::isClaimed</text>
</g>
<!-- Node14 -->
<g id="node2" class="node">
<title>Node14</title>
<g id="a_node2"><a xlink:href="classgame_1_1tic__tac__toe_1_1_board.html#a68eea4b31da1c8b4cf90ff0d6bc9d232" target="_top" xlink:title="Get a list of empty cells, ie player not passed yet. ">
<polygon fill="none" stroke="#000000" points="155,-98.5 155,-128.5 291,-128.5 291,-98.5 155,-98.5"/>
<text text-anchor="start" x="163" y="-116.5" font-family="Helvetica,sans-Serif" font-size="10.00" fill="#000000">game::tic_tac_toe::</text>
<text text-anchor="middle" x="223" y="-105.5" font-family="Helvetica,sans-Serif" font-size="10.00" fill="#000000">Board::getAvailableCells</text>
</a>
</g>
</g>
<!-- Node13&#45;&gt;Node14 -->
<g id="edge1" class="edge">
<title>Node13&#45;&gt;Node14</title>
<path fill="none" stroke="#191970" d="M129.5423,-99.2098C137.9013,-100.488 146.4271,-101.7916 154.7602,-103.0658"/>
<polygon fill="#191970" stroke="#191970" points="129.8671,-95.7189 119.453,-97.6671 128.809,-102.6385 129.8671,-95.7189"/>
</g>
<!-- Node16 -->
<g id="node4" class="node">
<title>Node16</title>
<g id="a_node4"><a xlink:href="classgame_1_1tic__tac__toe_1_1_board_cell.html#aa418994b5cdf5c74b105701193d72a1b" target="_top" xlink:title="Get the Position object. ">
<polygon fill="none" stroke="#000000" points="160.5,-49.5 160.5,-79.5 285.5,-79.5 285.5,-49.5 160.5,-49.5"/>
<text text-anchor="start" x="168.5" y="-67.5" font-family="Helvetica,sans-Serif" font-size="10.00" fill="#000000">game::tic_tac_toe::</text>
<text text-anchor="middle" x="223" y="-56.5" font-family="Helvetica,sans-Serif" font-size="10.00" fill="#000000">BoardCell::getPosition</text>
</a>
</g>
</g>
<!-- Node13&#45;&gt;Node16 -->
<g id="edge3" class="edge">
<title>Node13&#45;&gt;Node16</title>
<path fill="none" stroke="#191970" d="M129.5641,-78.2154C139.7825,-76.7154 150.2496,-75.179 160.309,-73.7024"/>
<polygon fill="#191970" stroke="#191970" points="128.8386,-74.7843 119.453,-79.6996 129.8553,-81.71 128.8386,-74.7843"/>
</g>
<!-- Node15 -->
<g id="node3" class="node">
<title>Node15</title>
<g id="a_node3"><a xlink:href="classgame_1_1tic__tac__toe_1_1_board.html#ae91180193e944c9c58d7d1d0f439918e" target="_top" xlink:title="Chek wether or not the game is finished. ">
<polygon fill="none" stroke="#000000" points="330,-98.5 330,-128.5 440,-128.5 440,-98.5 330,-98.5"/>
<text text-anchor="start" x="338" y="-116.5" font-family="Helvetica,sans-Serif" font-size="10.00" fill="#000000">game::tic_tac_toe::</text>
<text text-anchor="middle" x="385" y="-105.5" font-family="Helvetica,sans-Serif" font-size="10.00" fill="#000000">Board::checkStatus</text>
</a>
</g>
</g>
<!-- Node14&#45;&gt;Node15 -->
<g id="edge2" class="edge">
<title>Node14&#45;&gt;Node15</title>
<path fill="none" stroke="#191970" d="M301.2633,-113.5C310.9285,-113.5 320.6457,-113.5 329.8636,-113.5"/>
<polygon fill="#191970" stroke="#191970" points="301.2331,-110.0001 291.2331,-113.5 301.233,-117.0001 301.2331,-110.0001"/>
</g>
<!-- Node17 -->
<g id="node5" class="node">
<title>Node17</title>
<g id="a_node5"><a xlink:href="classgame_1_1tic__tac__toe_1_1_board.html#a08d914b0a618b2e35dcd5016ceba1b23" target="_top" xlink:title="Performs a particular move. ">
<polygon fill="none" stroke="#000000" points="327,-49.5 327,-79.5 443,-79.5 443,-49.5 327,-49.5"/>
<text text-anchor="start" x="335" y="-67.5" font-family="Helvetica,sans-Serif" font-size="10.00" fill="#000000">game::tic_tac_toe::</text>
<text text-anchor="middle" x="385" y="-56.5" font-family="Helvetica,sans-Serif" font-size="10.00" fill="#000000">Board::performMove</text>
</a>
</g>
</g>
<!-- Node16&#45;&gt;Node17 -->
<g id="edge4" class="edge">
<title>Node16&#45;&gt;Node17</title>
<path fill="none" stroke="#191970" d="M295.8937,-64.5C306.2386,-64.5 316.7617,-64.5 326.7789,-64.5"/>
<polygon fill="#191970" stroke="#191970" points="295.6335,-61.0001 285.6334,-64.5 295.6334,-68.0001 295.6335,-61.0001"/>
</g>
<!-- Node18 -->
<g id="node6" class="node">
<title>Node18</title>
<g id="a_node6"><a xlink:href="classgame_1_1tic__tac__toe_1_1_board.html#a9d7a2c225f06a3410b11b688d9d6bcf8" target="_top" xlink:title="game::tic_tac_toe::\lBoard::clone">
<polygon fill="none" stroke="#000000" points="330,-.5 330,-30.5 440,-30.5 440,-.5 330,-.5"/>
<text text-anchor="start" x="338" y="-18.5" font-family="Helvetica,sans-Serif" font-size="10.00" fill="#000000">game::tic_tac_toe::</text>
<text text-anchor="middle" x="385" y="-7.5" font-family="Helvetica,sans-Serif" font-size="10.00" fill="#000000">Board::clone</text>
</a>
</g>
</g>
<!-- Node16&#45;&gt;Node18 -->
<g id="edge5" class="edge">
<title>Node16&#45;&gt;Node18</title>
<path fill="none" stroke="#191970" d="M282.8835,-46.3871C300.1061,-41.1778 318.6979,-35.5543 335.2376,-30.5516"/>
<polygon fill="#191970" stroke="#191970" points="281.4856,-43.1532 272.9272,-49.3986 283.5123,-49.8534 281.4856,-43.1532"/>
</g>
<!-- Node19 -->
<g id="node7" class="node">
<title>Node19</title>
<g id="a_node7"><a xlink:href="classgame_1_1tic__tac__toe_1_1_board.html#a7907b8fc363b7e33d585edbc7ec102ae" target="_top" xlink:title="Gets the player corresponding to a certain id. ">
<polygon fill="none" stroke="#000000" points="479,-.5 479,-30.5 598,-30.5 598,-.5 479,-.5"/>
<text text-anchor="start" x="487" y="-18.5" font-family="Helvetica,sans-Serif" font-size="10.00" fill="#000000">game::tic_tac_toe::</text>
<text text-anchor="middle" x="538.5" y="-7.5" font-family="Helvetica,sans-Serif" font-size="10.00" fill="#000000">Board::getPlayerById</text>
</a>
</g>
</g>
<!-- Node18&#45;&gt;Node19 -->
<g id="edge6" class="edge">
<title>Node18&#45;&gt;Node19</title>
<path fill="none" stroke="#191970" d="M450.4846,-15.5C459.8708,-15.5 469.4869,-15.5 478.7546,-15.5"/>
<polygon fill="#191970" stroke="#191970" points="450.4171,-12.0001 440.417,-15.5 450.417,-19.0001 450.4171,-12.0001"/>
</g>
</g>
</svg>
