<?xml version="1.0" encoding="UTF-8" standalone="no"?>
<!DOCTYPE svg PUBLIC "-//W3C//DTD SVG 1.1//EN"
 "http://www.w3.org/Graphics/SVG/1.1/DTD/svg11.dtd">
<!-- Generated by graphviz version 2.40.1 (20161225.0304)
 -->
<!-- Title: game::AbstractPlayer::equals_to Pages: 1 -->
<svg width="327pt" height="137pt"
 viewBox="0.00 0.00 327.00 137.00" xmlns="http://www.w3.org/2000/svg" xmlns:xlink="http://www.w3.org/1999/xlink">
<g id="graph0" class="graph" transform="scale(1 1) rotate(0) translate(4 133)">
<title>game::AbstractPlayer::equals_to</title>
<!-- Node7 -->
<g id="node1" class="node">
<title>Node7</title>
<polygon fill="#bfbfbf" stroke="#000000" points="0,-49.5 0,-79.5 122,-79.5 122,-49.5 0,-49.5"/>
<text text-anchor="start" x="8" y="-67.5" font-family="Helvetica,sans-Serif" font-size="10.00" fill="#000000">game::AbstractPlayer</text>
<text text-anchor="middle" x="61" y="-56.5" font-family="Helvetica,sans-Serif" font-size="10.00" fill="#000000">::equals_to</text>
</g>
<!-- Node8 -->
<g id="node2" class="node">
<title>Node8</title>
<g id="a_node2"><a xlink:href="classgame_1_1_abstract_player.html#aaffd1859f7b8b2cd3a00fc47432800e4" target="_top" xlink:title="game::AbstractPlayer\l::operator==">
<polygon fill="none" stroke="#000000" points="177.5,-98.5 177.5,-128.5 299.5,-128.5 299.5,-98.5 177.5,-98.5"/>
<text text-anchor="start" x="185.5" y="-116.5" font-family="Helvetica,sans-Serif" font-size="10.00" fill="#000000">game::AbstractPlayer</text>
<text text-anchor="middle" x="238.5" y="-105.5" font-family="Helvetica,sans-Serif" font-size="10.00" fill="#000000">::operator==</text>
</a>
</g>
</g>
<!-- Node7&#45;&gt;Node8 -->
<g id="edge1" class="edge">
<title>Node7&#45;&gt;Node8</title>
<path fill="none" stroke="#191970" d="M125.5566,-82.3212C144.7212,-87.6118 165.5155,-93.3522 183.9764,-98.4484"/>
<polygon fill="#191970" stroke="#191970" points="126.275,-78.8887 115.7042,-79.6014 124.4123,-85.6363 126.275,-78.8887"/>
</g>
<!-- Node9 -->
<g id="node3" class="node">
<title>Node9</title>
<g id="a_node3"><a xlink:href="classgame_1_1_abstract_player.html#a3c88c5ef8f89fd74b3e48ff636049c94" target="_top" xlink:title="game::AbstractPlayer\l::operator!=">
<polygon fill="none" stroke="#000000" points="177.5,-49.5 177.5,-79.5 299.5,-79.5 299.5,-49.5 177.5,-49.5"/>
<text text-anchor="start" x="185.5" y="-67.5" font-family="Helvetica,sans-Serif" font-size="10.00" fill="#000000">game::AbstractPlayer</text>
<text text-anchor="middle" x="238.5" y="-56.5" font-family="Helvetica,sans-Serif" font-size="10.00" fill="#000000">::operator!=</text>
</a>
</g>
</g>
<!-- Node7&#45;&gt;Node9 -->
<g id="edge2" class="edge">
<title>Node7&#45;&gt;Node9</title>
<path fill="none" stroke="#191970" d="M132.2793,-64.5C147.1935,-64.5 162.793,-64.5 177.302,-64.5"/>
<polygon fill="#191970" stroke="#191970" points="132.0855,-61.0001 122.0854,-64.5 132.0854,-68.0001 132.0855,-61.0001"/>
</g>
<!-- Node10 -->
<g id="node4" class="node">
<title>Node10</title>
<g id="a_node4"><a xlink:href="classgame_1_1penguin_1_1_human_player.html#ad0f5548eee1fb7b866c592da4b529b69" target="_top" xlink:title="game::penguin::HumanPlayer\l::equals_to">
<polygon fill="none" stroke="#000000" points="158,-.5 158,-30.5 319,-30.5 319,-.5 158,-.5"/>
<text text-anchor="start" x="166" y="-18.5" font-family="Helvetica,sans-Serif" font-size="10.00" fill="#000000">game::penguin::HumanPlayer</text>
<text text-anchor="middle" x="238.5" y="-7.5" font-family="Helvetica,sans-Serif" font-size="10.00" fill="#000000">::equals_to</text>
</a>
</g>
</g>
<!-- Node7&#45;&gt;Node10 -->
<g id="edge3" class="edge">
<title>Node7&#45;&gt;Node10</title>
<path fill="none" stroke="#191970" d="M125.5566,-46.6788C144.7212,-41.3882 165.5155,-35.6478 183.9764,-30.5516"/>
<polygon fill="#191970" stroke="#191970" points="124.4123,-43.3637 115.7042,-49.3986 126.275,-50.1113 124.4123,-43.3637"/>
</g>
</g>
</svg>
