<?xml version="1.0" encoding="UTF-8" standalone="no"?>
<!DOCTYPE svg PUBLIC "-//W3C//DTD SVG 1.1//EN"
 "http://www.w3.org/Graphics/SVG/1.1/DTD/svg11.dtd">
<!-- Generated by graphviz version 2.40.1 (20161225.0304)
 -->
<!-- Title: game::AbstractBoard::performMove Pages: 1 -->
<svg width="604pt" height="247pt"
 viewBox="0.00 0.00 604.00 246.50" xmlns="http://www.w3.org/2000/svg" xmlns:xlink="http://www.w3.org/1999/xlink">
<g id="graph0" class="graph" transform="scale(1 1) rotate(0) translate(4 242.5)">
<title>game::AbstractBoard::performMove</title>
<!-- Node43 -->
<g id="node1" class="node">
<title>Node43</title>
<polygon fill="#bfbfbf" stroke="#000000" points="0,-98.5 0,-128.5 119,-128.5 119,-98.5 0,-98.5"/>
<text text-anchor="start" x="8" y="-116.5" font-family="Helvetica,sans-Serif" font-size="10.00" fill="#000000">game::AbstractBoard</text>
<text text-anchor="middle" x="59.5" y="-105.5" font-family="Helvetica,sans-Serif" font-size="10.00" fill="#000000">::performMove</text>
</g>
<!-- Node44 -->
<g id="node2" class="node">
<title>Node44</title>
<g id="a_node2"><a xlink:href="classgame_1_1_abstract_board.html#a1331343872024287df1749cea4a96f5e" target="_top" xlink:title="game::AbstractBoard\l\&lt; BoardCell, Player,\l Player \&gt;::~AbstractBoard">
<polygon fill="none" stroke="#000000" points="164.5,-197 164.5,-238 309.5,-238 309.5,-197 164.5,-197"/>
<text text-anchor="start" x="172.5" y="-226" font-family="Helvetica,sans-Serif" font-size="10.00" fill="#000000">game::AbstractBoard</text>
<text text-anchor="start" x="172.5" y="-215" font-family="Helvetica,sans-Serif" font-size="10.00" fill="#000000">&lt; BoardCell, Player,</text>
<text text-anchor="middle" x="237" y="-204" font-family="Helvetica,sans-Serif" font-size="10.00" fill="#000000"> Player &gt;::~AbstractBoard</text>
</a>
</g>
</g>
<!-- Node43&#45;&gt;Node44 -->
<g id="edge1" class="edge">
<title>Node43&#45;&gt;Node44</title>
<path fill="none" stroke="#191970" d="M83.2686,-135.2984C101.7543,-151.381 128.6156,-172.9151 155,-187.5 161.1028,-190.8735 167.6599,-194.0033 174.3112,-196.868"/>
<polygon fill="#191970" stroke="#191970" points="85.4517,-132.5568 75.6409,-128.557 80.816,-137.8019 85.4517,-132.5568"/>
</g>
<!-- Node45 -->
<g id="node3" class="node">
<title>Node45</title>
<g id="a_node3"><a xlink:href="classgame_1_1penguin_1_1_board.html#af297dc572afb02dafc61e3b8e849338f" target="_top" xlink:title="Performs a particular move. ">
<polygon fill="none" stroke="#000000" points="175,-147.5 175,-177.5 299,-177.5 299,-147.5 175,-147.5"/>
<text text-anchor="start" x="183" y="-165.5" font-family="Helvetica,sans-Serif" font-size="10.00" fill="#000000">game::penguin::Board</text>
<text text-anchor="middle" x="237" y="-154.5" font-family="Helvetica,sans-Serif" font-size="10.00" fill="#000000">::performMove</text>
</a>
</g>
</g>
<!-- Node43&#45;&gt;Node45 -->
<g id="edge2" class="edge">
<title>Node43&#45;&gt;Node45</title>
<path fill="none" stroke="#191970" d="M124.0566,-131.3212C143.2212,-136.6118 164.0155,-142.3522 182.4764,-147.4484"/>
<polygon fill="#191970" stroke="#191970" points="124.775,-127.8887 114.2042,-128.6014 122.9123,-134.6363 124.775,-127.8887"/>
</g>
<!-- Node47 -->
<g id="node5" class="node">
<title>Node47</title>
<g id="a_node5"><a xlink:href="classgame_1_1tic__tac__toe_1_1_board.html#a08d914b0a618b2e35dcd5016ceba1b23" target="_top" xlink:title="Performs a particular move. ">
<polygon fill="none" stroke="#000000" points="179,-98.5 179,-128.5 295,-128.5 295,-98.5 179,-98.5"/>
<text text-anchor="start" x="187" y="-116.5" font-family="Helvetica,sans-Serif" font-size="10.00" fill="#000000">game::tic_tac_toe::</text>
<text text-anchor="middle" x="237" y="-105.5" font-family="Helvetica,sans-Serif" font-size="10.00" fill="#000000">Board::performMove</text>
</a>
</g>
</g>
<!-- Node43&#45;&gt;Node47 -->
<g id="edge4" class="edge">
<title>Node43&#45;&gt;Node47</title>
<path fill="none" stroke="#191970" d="M129.1783,-113.5C145.5905,-113.5 162.9161,-113.5 178.7637,-113.5"/>
<polygon fill="#191970" stroke="#191970" points="129.0987,-110.0001 119.0987,-113.5 129.0987,-117.0001 129.0987,-110.0001"/>
</g>
<!-- Node48 -->
<g id="node6" class="node">
<title>Node48</title>
<g id="a_node6"><a xlink:href="classgame_1_1penguin_1_1_penguin_game.html#aa7fe86e287d704d3bc597893134bd408" target="_top" xlink:title="game::penguin::PenguinGame\l::play">
<polygon fill="none" stroke="#000000" points="155,-49.5 155,-79.5 319,-79.5 319,-49.5 155,-49.5"/>
<text text-anchor="start" x="163" y="-67.5" font-family="Helvetica,sans-Serif" font-size="10.00" fill="#000000">game::penguin::PenguinGame</text>
<text text-anchor="middle" x="237" y="-56.5" font-family="Helvetica,sans-Serif" font-size="10.00" fill="#000000">::play</text>
</a>
</g>
</g>
<!-- Node43&#45;&gt;Node48 -->
<g id="edge5" class="edge">
<title>Node43&#45;&gt;Node48</title>
<path fill="none" stroke="#191970" d="M124.0566,-95.6788C143.2212,-90.3882 164.0155,-84.6478 182.4764,-79.5516"/>
<polygon fill="#191970" stroke="#191970" points="122.9123,-92.3637 114.2042,-98.3986 124.775,-99.1113 122.9123,-92.3637"/>
</g>
<!-- Node51 -->
<g id="node9" class="node">
<title>Node51</title>
<g id="a_node9"><a xlink:href="classgame_1_1tic__tac__toe_1_1_tic_tac_toe.html#a68edd6e6abdd924bc2eae503621492bb" target="_top" xlink:title="game::tic_tac_toe::\lTicTacToe::play">
<polygon fill="none" stroke="#000000" points="182,-.5 182,-30.5 292,-30.5 292,-.5 182,-.5"/>
<text text-anchor="start" x="190" y="-18.5" font-family="Helvetica,sans-Serif" font-size="10.00" fill="#000000">game::tic_tac_toe::</text>
<text text-anchor="middle" x="237" y="-7.5" font-family="Helvetica,sans-Serif" font-size="10.00" fill="#000000">TicTacToe::play</text>
</a>
</g>
</g>
<!-- Node43&#45;&gt;Node51 -->
<g id="edge8" class="edge">
<title>Node43&#45;&gt;Node51</title>
<path fill="none" stroke="#191970" d="M82.914,-91.2706C101.2618,-74.9156 128.1072,-53.2277 155,-39.5 163.3233,-35.2513 172.5161,-31.6403 181.6463,-28.6103"/>
<polygon fill="#191970" stroke="#191970" points="80.158,-89.0459 75.1123,-98.3621 84.8664,-94.2259 80.158,-89.0459"/>
</g>
<!-- Node46 -->
<g id="node4" class="node">
<title>Node46</title>
<g id="a_node4"><a xlink:href="classgame_1_1penguin_1_1_console_game.html#ac6ac2ce8f015a83682f7022c268c5efb" target="_top" xlink:title="game::penguin::ConsoleGame\l::ConsoleGame">
<polygon fill="none" stroke="#000000" points="355,-147.5 355,-177.5 519,-177.5 519,-147.5 355,-147.5"/>
<text text-anchor="start" x="363" y="-165.5" font-family="Helvetica,sans-Serif" font-size="10.00" fill="#000000">game::penguin::ConsoleGame</text>
<text text-anchor="middle" x="437" y="-154.5" font-family="Helvetica,sans-Serif" font-size="10.00" fill="#000000">::ConsoleGame</text>
</a>
</g>
</g>
<!-- Node45&#45;&gt;Node46 -->
<g id="edge3" class="edge">
<title>Node45&#45;&gt;Node46</title>
<path fill="none" stroke="#191970" d="M309.2949,-162.5C324.1276,-162.5 339.8433,-162.5 354.9896,-162.5"/>
<polygon fill="#191970" stroke="#191970" points="309.185,-159.0001 299.1849,-162.5 309.1849,-166.0001 309.185,-159.0001"/>
</g>
<!-- Node49 -->
<g id="node7" class="node">
<title>Node49</title>
<g id="a_node7"><a xlink:href="classgame_1_1penguin_1_1_console_game.html#a56af132d8e3d16902fb46b7979d37eae" target="_top" xlink:title="Loop while the game is not finished, told by the isFinished method. ">
<polygon fill="none" stroke="#000000" points="355,-49.5 355,-79.5 519,-79.5 519,-49.5 355,-49.5"/>
<text text-anchor="start" x="363" y="-67.5" font-family="Helvetica,sans-Serif" font-size="10.00" fill="#000000">game::penguin::ConsoleGame</text>
<text text-anchor="middle" x="437" y="-56.5" font-family="Helvetica,sans-Serif" font-size="10.00" fill="#000000">::loop</text>
</a>
</g>
</g>
<!-- Node48&#45;&gt;Node49 -->
<g id="edge6" class="edge">
<title>Node48&#45;&gt;Node49</title>
<path fill="none" stroke="#191970" d="M329.4658,-64.5C337.9136,-64.5 346.4335,-64.5 354.7826,-64.5"/>
<polygon fill="#191970" stroke="#191970" points="329.2135,-61.0001 319.2135,-64.5 329.2134,-68.0001 329.2135,-61.0001"/>
</g>
<!-- Node50 -->
<g id="node8" class="node">
<title>Node50</title>
<g id="a_node8"><a xlink:href="main_8cpp.html#a1dfeea39dabf076270426c94def1a2a2" target="_top" xlink:title="main">
<polygon fill="none" stroke="#000000" points="555,-55 555,-74 596,-74 596,-55 555,-55"/>
<text text-anchor="middle" x="575.5" y="-62" font-family="Helvetica,sans-Serif" font-size="10.00" fill="#000000">main</text>
</a>
</g>
</g>
<!-- Node49&#45;&gt;Node50 -->
<g id="edge7" class="edge">
<title>Node49&#45;&gt;Node50</title>
<path fill="none" stroke="#191970" d="M529.2725,-64.5C538.7768,-64.5 547.6282,-64.5 554.9893,-64.5"/>
<polygon fill="#191970" stroke="#191970" points="529.1668,-61.0001 519.1667,-64.5 529.1667,-68.0001 529.1668,-61.0001"/>
</g>
<!-- Node52 -->
<g id="node10" class="node">
<title>Node52</title>
<g id="a_node10"><a xlink:href="classgame_1_1tic__tac__toe_1_1_console_game.html#a06b07e4c713a60999258b0b573b02a33" target="_top" xlink:title="Loop while the game is not finished, told by the isFinished method. ">
<polygon fill="none" stroke="#000000" points="381,-.5 381,-30.5 493,-30.5 493,-.5 381,-.5"/>
<text text-anchor="start" x="389" y="-18.5" font-family="Helvetica,sans-Serif" font-size="10.00" fill="#000000">game::tic_tac_toe::</text>
<text text-anchor="middle" x="437" y="-7.5" font-family="Helvetica,sans-Serif" font-size="10.00" fill="#000000">ConsoleGame::loop</text>
</a>
</g>
</g>
<!-- Node51&#45;&gt;Node52 -->
<g id="edge9" class="edge">
<title>Node51&#45;&gt;Node52</title>
<path fill="none" stroke="#191970" d="M302.4522,-15.5C327.8184,-15.5 356.5659,-15.5 380.9574,-15.5"/>
<polygon fill="#191970" stroke="#191970" points="302.1803,-12.0001 292.1803,-15.5 302.1803,-19.0001 302.1803,-12.0001"/>
</g>
</g>
</svg>
