<?xml version="1.0" encoding="UTF-8" standalone="no"?>
<!DOCTYPE svg PUBLIC "-//W3C//DTD SVG 1.1//EN"
 "http://www.w3.org/Graphics/SVG/1.1/DTD/svg11.dtd">
<!-- Generated by graphviz version 2.40.1 (20161225.0304)
 -->
<!-- Title: mcts::MCTSPlayer::unleash_mcts Pages: 1 -->
<!--zoomable 303 -->
<svg id="main" version="1.1" xmlns="http://www.w3.org/2000/svg" xmlns:xlink="http://www.w3.org/1999/xlink" xml:space="preserve" onload="init(evt)">
<style type="text/css"><![CDATA[
.edge:hover path { stroke: red; }
.edge:hover polygon { stroke: red; fill: red; }
]]></style>
<script type="text/javascript"><![CDATA[
var edges = document.getElementsByTagName('g');
if (edges && edges.length) {
  for (var i=0;i<edges.length;i++) {
    if (edges[i].id.substr(0,4)=='edge') {
      edges[i].setAttribute('class','edge');
    }
  }
}
]]></script>
        <defs>
                <circle id="rim" cx="0" cy="0" r="7"/>
                <circle id="rim2" cx="0" cy="0" r="3.5"/>
                <g id="zoomPlus">
                        <use xlink:href="#rim" fill="#404040">
                                <set attributeName="fill" to="#808080" begin="zoomplus.mouseover" end="zoomplus.mouseout"/>
                        </use>
                        <path d="M-4,0h8M0,-4v8" fill="none" stroke="white" stroke-width="1.5" pointer-events="none"/>
                </g>
                <g id="zoomMin">
                        <use xlink:href="#rim" fill="#404040">
                                <set attributeName="fill" to="#808080" begin="zoomminus.mouseover" end="zoomminus.mouseout"/>
                        </use>
                        <path d="M-4,0h8" fill="none" stroke="white" stroke-width="1.5" pointer-events="none"/>
                </g>
                <g id="dirArrow">
                        <path fill="none" stroke="white" stroke-width="1.5" d="M0,-3.0v7 M-2.5,-0.5L0,-3.0L2.5,-0.5"/>
                </g>
               <g id="resetDef">
                       <use xlink:href="#rim2" fill="#404040">
                               <set attributeName="fill" to="#808080" begin="reset.mouseover" end="reset.mouseout"/>
                       </use>
               </g>
        </defs>

<script type="text/javascript">
var viewWidth = 752;
var viewHeight = 303;
var sectionId = 'dynsection-6';
</script>
<script xlink:href="svgpan.js"/>
<svg id="graph" class="graph">
<g id="viewport">
<title>mcts::MCTSPlayer::unleash_mcts</title>
<!-- Node41 -->
<g id="node1" class="node">
<title>Node41</title>
<polygon fill="#bfbfbf" stroke="#000000" points="0,-138 0,-157 178,-157 178,-138 0,-138"/>
<text text-anchor="middle" x="89" y="-145" font-family="Helvetica,sans-Serif" font-size="10.00" fill="#000000">mcts::MCTSPlayer::unleash_mcts</text>
</g>
<!-- Node42 -->
<g id="node2" class="node">
<title>Node42</title>
<g id="a_node2"><a xlink:href="classmcts_1_1_m_c_t_s.html#ae8b2818e7a34e858e9dd284d33bca874" target="_top" xlink:title="Start the mcts. ">
<polygon fill="none" stroke="#000000" points="214,-138 214,-157 321,-157 321,-138 214,-138"/>
<text text-anchor="middle" x="267.5" y="-145" font-family="Helvetica,sans-Serif" font-size="10.00" fill="#000000">mcts::MCTS::begin</text>
</a>
</g>
</g>
<!-- Node41&#45;&gt;Node42 -->
<g id="edge1" class="edge">
<title>Node41&#45;&gt;Node42</title>
<path fill="none" stroke="#191970" d="M178.25,-147.5C186.8296,-147.5 195.4093,-147.5 203.6718,-147.5"/>
<polygon fill="#191970" stroke="#191970" points="203.9441,-151.0001 213.9441,-147.5 203.9441,-144.0001 203.9441,-151.0001"/>
</g>
<!-- Node43 -->
<g id="node3" class="node">
<title>Node43</title>
<g id="a_node3"><a xlink:href="structmcts_1_1timer.html#af6b8b0201318b987bcab531de4b964f9" target="_top" xlink:title="mcts::timer::milliseconds\l_elapsed">
<polygon fill="none" stroke="#000000" points="372,-264.5 372,-294.5 512,-294.5 512,-264.5 372,-264.5"/>
<text text-anchor="start" x="380" y="-282.5" font-family="Helvetica,sans-Serif" font-size="10.00" fill="#000000">mcts::timer::milliseconds</text>
<text text-anchor="middle" x="442" y="-271.5" font-family="Helvetica,sans-Serif" font-size="10.00" fill="#000000">_elapsed</text>
</a>
</g>
</g>
<!-- Node42&#45;&gt;Node43 -->
<g id="edge2" class="edge">
<title>Node42&#45;&gt;Node43</title>
<path fill="none" stroke="#191970" d="M273.4456,-157.1113C286.2831,-177.1082 318.5632,-223.4887 357,-249.5 363.059,-253.6003 369.7396,-257.2034 376.6129,-260.3544"/>
<polygon fill="#191970" stroke="#191970" points="375.4925,-263.6812 386.0646,-264.3749 378.2326,-257.2398 375.4925,-263.6812"/>
</g>
<!-- Node44 -->
<g id="node4" class="node">
<title>Node44</title>
<g id="a_node4"><a xlink:href="classmcts_1_1_m_c_t_s.html#a5a3c4a056b0611c19839d6757871653b" target="_top" xlink:title="mcts::MCTS::selectBestChild\lAndDoAction">
<polygon fill="none" stroke="#000000" points="364.5,-176.5 364.5,-206.5 519.5,-206.5 519.5,-176.5 364.5,-176.5"/>
<text text-anchor="start" x="372.5" y="-194.5" font-family="Helvetica,sans-Serif" font-size="10.00" fill="#000000">mcts::MCTS::selectBestChild</text>
<text text-anchor="middle" x="442" y="-183.5" font-family="Helvetica,sans-Serif" font-size="10.00" fill="#000000">AndDoAction</text>
</a>
</g>
</g>
<!-- Node42&#45;&gt;Node44 -->
<g id="edge3" class="edge">
<title>Node42&#45;&gt;Node44</title>
<path fill="none" stroke="#191970" d="M305.3639,-157.0473C325.0105,-162.0012 349.6386,-168.2112 372.5551,-173.9895"/>
<polygon fill="#191970" stroke="#191970" points="371.6999,-177.3834 382.2521,-176.4346 373.4114,-170.5958 371.6999,-177.3834"/>
</g>
<!-- Node45 -->
<g id="node5" class="node">
<title>Node45</title>
<g id="a_node5"><a xlink:href="classmcts_1_1_m_c_t_s.html#a9b161c003bc21fe3910d7800c09fff1d" target="_top" xlink:title="mcts::MCTS::doActionOnBoard">
<polygon fill="none" stroke="#000000" points="571.5,-223 571.5,-242 735.5,-242 735.5,-223 571.5,-223"/>
<text text-anchor="middle" x="653.5" y="-230" font-family="Helvetica,sans-Serif" font-size="10.00" fill="#000000">mcts::MCTS::doActionOnBoard</text>
</a>
</g>
</g>
<!-- Node42&#45;&gt;Node45 -->
<g id="edge8" class="edge">
<title>Node42&#45;&gt;Node45</title>
<path fill="none" stroke="#191970" d="M276.0043,-157.0539C290.7021,-172.8018 322.6031,-203.7355 357,-216.5 422.2182,-240.7022 501.0654,-243.835 561.0519,-241.3861"/>
<polygon fill="#191970" stroke="#191970" points="561.4417,-244.8717 571.2671,-240.908 561.1144,-237.8794 561.4417,-244.8717"/>
</g>
<!-- Node47 -->
<g id="node7" class="node">
<title>Node47</title>
<g id="a_node7"><a xlink:href="classmcts_1_1_m_c_t_s.html#a8c65e74d070a037e5ad0331a39379c9c" target="_top" xlink:title="mcts::MCTS::expandNode">
<polygon fill="none" stroke="#000000" points="371.5,-138 371.5,-157 512.5,-157 512.5,-138 371.5,-138"/>
<text text-anchor="middle" x="442" y="-145" font-family="Helvetica,sans-Serif" font-size="10.00" fill="#000000">mcts::MCTS::expandNode</text>
</a>
</g>
</g>
<!-- Node42&#45;&gt;Node47 -->
<g id="edge6" class="edge">
<title>Node42&#45;&gt;Node47</title>
<path fill="none" stroke="#191970" d="M321.2796,-147.5C333.888,-147.5 347.5955,-147.5 361.0992,-147.5"/>
<polygon fill="#191970" stroke="#191970" points="361.3642,-151.0001 371.3641,-147.5 361.3641,-144.0001 361.3642,-151.0001"/>
</g>
<!-- Node48 -->
<g id="node8" class="node">
<title>Node48</title>
<g id="a_node8"><a xlink:href="classmcts_1_1_m_c_t_s.html#a6b5686f91610bb4f46c395634a17a5b8" target="_top" xlink:title="mcts::MCTS::randomChoose\lChildOrFallbackOnNode">
<polygon fill="none" stroke="#000000" points="365.5,-88.5 365.5,-118.5 518.5,-118.5 518.5,-88.5 365.5,-88.5"/>
<text text-anchor="start" x="373.5" y="-106.5" font-family="Helvetica,sans-Serif" font-size="10.00" fill="#000000">mcts::MCTS::randomChoose</text>
<text text-anchor="middle" x="442" y="-95.5" font-family="Helvetica,sans-Serif" font-size="10.00" fill="#000000">ChildOrFallbackOnNode</text>
</a>
</g>
</g>
<!-- Node42&#45;&gt;Node48 -->
<g id="edge7" class="edge">
<title>Node42&#45;&gt;Node48</title>
<path fill="none" stroke="#191970" d="M305.3639,-137.9527C325.0105,-132.9988 349.6386,-126.7888 372.5551,-121.0105"/>
<polygon fill="#191970" stroke="#191970" points="373.4114,-124.4042 382.2521,-118.5654 371.6999,-117.6166 373.4114,-124.4042"/>
</g>
<!-- Node49 -->
<g id="node9" class="node">
<title>Node49</title>
<g id="a_node9"><a xlink:href="classmcts_1_1_m_c_t_s.html#ad465558c1f4933cae2a32ff7394fc49b" target="_top" xlink:title="mcts::MCTS::randomSimulation">
<polygon fill="none" stroke="#000000" points="357,-50 357,-69 527,-69 527,-50 357,-50"/>
<text text-anchor="middle" x="442" y="-57" font-family="Helvetica,sans-Serif" font-size="10.00" fill="#000000">mcts::MCTS::randomSimulation</text>
</a>
</g>
</g>
<!-- Node42&#45;&gt;Node49 -->
<g id="edge9" class="edge">
<title>Node42&#45;&gt;Node49</title>
<path fill="none" stroke="#191970" d="M276.9996,-137.8322C292.3775,-122.7644 324.3127,-93.8225 357,-78.5 362.2627,-76.0331 367.8612,-73.8786 373.5762,-71.9984"/>
<polygon fill="#191970" stroke="#191970" points="374.6958,-75.3166 383.2652,-69.0863 372.6809,-68.6129 374.6958,-75.3166"/>
</g>
<!-- Node51 -->
<g id="node11" class="node">
<title>Node51</title>
<g id="a_node11"><a xlink:href="classmcts_1_1_m_c_t_s.html#a53275dba0c93543b2fa8c24ad928e4a8" target="_top" xlink:title="mcts::MCTS::backPropagate\lAndRevertAction">
<polygon fill="none" stroke="#000000" points="366,-.5 366,-30.5 518,-30.5 518,-.5 366,-.5"/>
<text text-anchor="start" x="374" y="-18.5" font-family="Helvetica,sans-Serif" font-size="10.00" fill="#000000">mcts::MCTS::backPropagate</text>
<text text-anchor="middle" x="442" y="-7.5" font-family="Helvetica,sans-Serif" font-size="10.00" fill="#000000">AndRevertAction</text>
</a>
</g>
</g>
<!-- Node42&#45;&gt;Node51 -->
<g id="edge11" class="edge">
<title>Node42&#45;&gt;Node51</title>
<path fill="none" stroke="#191970" d="M272.8402,-137.8773C284.9684,-116.92 316.6911,-66.917 357,-40.5 360.144,-38.4396 363.4622,-36.5447 366.8929,-34.8025"/>
<polygon fill="#191970" stroke="#191970" points="368.5621,-37.8877 376.194,-30.5389 365.6451,-31.5244 368.5621,-37.8877"/>
</g>
<!-- Node44&#45;&gt;Node45 -->
<g id="edge4" class="edge">
<title>Node44&#45;&gt;Node45</title>
<path fill="none" stroke="#191970" d="M519.5538,-206.5341C544.2012,-211.312 571.053,-216.5174 594.1996,-221.0044"/>
<polygon fill="#191970" stroke="#191970" points="593.7295,-224.4784 604.2129,-222.9455 595.0618,-217.6063 593.7295,-224.4784"/>
</g>
<!-- Node46 -->
<g id="node6" class="node">
<title>Node46</title>
<g id="a_node6"><a xlink:href="classmcts_1_1_m_c_t_s.html#ac75ac1b12fbb40dca468f1c31a9fc8cd" target="_top" xlink:title="mcts::MCTS::formula">
<polygon fill="none" stroke="#000000" points="594.5,-182 594.5,-201 712.5,-201 712.5,-182 594.5,-182"/>
<text text-anchor="middle" x="653.5" y="-189" font-family="Helvetica,sans-Serif" font-size="10.00" fill="#000000">mcts::MCTS::formula</text>
</a>
</g>
</g>
<!-- Node44&#45;&gt;Node46 -->
<g id="edge5" class="edge">
<title>Node44&#45;&gt;Node46</title>
<path fill="none" stroke="#191970" d="M519.5538,-191.5C540.6325,-191.5 563.3236,-191.5 583.9306,-191.5"/>
<polygon fill="#191970" stroke="#191970" points="584.1789,-195.0001 594.1789,-191.5 584.1788,-188.0001 584.1789,-195.0001"/>
</g>
<!-- Node50 -->
<g id="node10" class="node">
<title>Node50</title>
<g id="a_node10"><a xlink:href="classmcts_1_1_m_c_t_s.html#a3e918b416dfe1e5155b077788936f137" target="_top" xlink:title="mcts::MCTS::getRandomAvailable\lMoveFromBoard">
<polygon fill="none" stroke="#000000" points="563,-44.5 563,-74.5 744,-74.5 744,-44.5 563,-44.5"/>
<text text-anchor="start" x="571" y="-62.5" font-family="Helvetica,sans-Serif" font-size="10.00" fill="#000000">mcts::MCTS::getRandomAvailable</text>
<text text-anchor="middle" x="653.5" y="-51.5" font-family="Helvetica,sans-Serif" font-size="10.00" fill="#000000">MoveFromBoard</text>
</a>
</g>
</g>
<!-- Node49&#45;&gt;Node50 -->
<g id="edge10" class="edge">
<title>Node49&#45;&gt;Node50</title>
<path fill="none" stroke="#191970" d="M527.1109,-59.5C535.5261,-59.5 544.1228,-59.5 552.6764,-59.5"/>
<polygon fill="#191970" stroke="#191970" points="552.6843,-63.0001 562.6843,-59.5 552.6842,-56.0001 552.6843,-63.0001"/>
</g>
</g>
</svg>
        <g id="navigator" transform="translate(0 0)" fill="#404254">
                <rect fill="#f2f5e9" fill-opacity="0.5" stroke="#606060" stroke-width=".5" x="0" y="0" width="60" height="60"/>
                <use id="zoomplus" xlink:href="#zoomPlus" x="17" y="9" onmousedown="handleZoom(evt,'in')"/>
                <use id="zoomminus" xlink:href="#zoomMin" x="42" y="9" onmousedown="handleZoom(evt,'out')"/>
                <use id="reset" xlink:href="#resetDef" x="30" y="36" onmousedown="handleReset()"/>
                <g id="arrowUp" xlink:href="#dirArrow" transform="translate(30 24)" onmousedown="handlePan(0,-1)">
                  <use xlink:href="#rim" fill="#404040">
                        <set attributeName="fill" to="#808080" begin="arrowUp.mouseover" end="arrowUp.mouseout"/>
                  </use>
                  <path fill="none" stroke="white" stroke-width="1.5" d="M0,-3.0v7 M-2.5,-0.5L0,-3.0L2.5,-0.5"/>
                </g>
                <g id="arrowRight" xlink:href="#dirArrow" transform="rotate(90) translate(36 -43)" onmousedown="handlePan(1,0)">
                  <use xlink:href="#rim" fill="#404040">
                        <set attributeName="fill" to="#808080" begin="arrowRight.mouseover" end="arrowRight.mouseout"/>
                  </use>
                  <path fill="none" stroke="white" stroke-width="1.5" d="M0,-3.0v7 M-2.5,-0.5L0,-3.0L2.5,-0.5"/>
                </g>
                <g id="arrowDown" xlink:href="#dirArrow" transform="rotate(180) translate(-30 -48)" onmousedown="handlePan(0,1)">
                  <use xlink:href="#rim" fill="#404040">
                        <set attributeName="fill" to="#808080" begin="arrowDown.mouseover" end="arrowDown.mouseout"/>
                  </use>
                  <path fill="none" stroke="white" stroke-width="1.5" d="M0,-3.0v7 M-2.5,-0.5L0,-3.0L2.5,-0.5"/>
                </g>
                <g id="arrowLeft" xlink:href="#dirArrow" transform="rotate(270) translate(-36 17)" onmousedown="handlePan(-1,0)">
                  <use xlink:href="#rim" fill="#404040">
                        <set attributeName="fill" to="#808080" begin="arrowLeft.mouseover" end="arrowLeft.mouseout"/>
                  </use>
                  <path fill="none" stroke="white" stroke-width="1.5" d="M0,-3.0v7 M-2.5,-0.5L0,-3.0L2.5,-0.5"/>
                </g>
        </g>
        <svg viewBox="0 0 15 15" width="100%" height="30px" preserveAspectRatio="xMaxYMin meet">
         <g id="arrow_out" transform="scale(0.3 0.3)">
          <a xlink:href="classmcts_1_1_m_c_t_s_player_a53677f7c7f9cfe4b7999af8abcfb8641_cgraph_org.svg" target="_base">
           <rect id="button" ry="5" rx="5" y="6" x="6" height="38" width="38"
                fill="#f2f5e9" fill-opacity="0.5" stroke="#606060" stroke-width="1.0"/>
           <path id="arrow"
             d="M 11.500037,31.436501 C 11.940474,20.09759 22.043105,11.32322 32.158766,21.979434 L 37.068811,17.246167 C 37.068811,17.246167 37.088388,32 37.088388,32 L 22.160133,31.978069 C 22.160133,31.978069 26.997745,27.140456 26.997745,27.140456 C 18.528582,18.264221 13.291696,25.230495 11.500037,31.436501 z"
             style="fill:#404040;"/>
          </a>
         </g>
        </svg>
</svg>
