<?xml version="1.0" encoding="UTF-8" standalone="no"?>
<!DOCTYPE svg PUBLIC "-//W3C//DTD SVG 1.1//EN"
 "http://www.w3.org/Graphics/SVG/1.1/DTD/svg11.dtd">
<!-- Generated by graphviz version 2.40.1 (20161225.0304)
 -->
<!-- Title: mcts::MCTS::randomChooseChildOrFallbackOnNode Pages: 1 -->
<!--zoomable 88 -->
<svg id="main" version="1.1" xmlns="http://www.w3.org/2000/svg" xmlns:xlink="http://www.w3.org/1999/xlink" xml:space="preserve" onload="init(evt)">
<style type="text/css"><![CDATA[
.edge:hover path { stroke: red; }
.edge:hover polygon { stroke: red; fill: red; }
]]></style>
<script type="text/javascript"><![CDATA[
var edges = document.getElementsByTagName('g');
if (edges && edges.length) {
  for (var i=0;i<edges.length;i++) {
    if (edges[i].id.substr(0,4)=='edge') {
      edges[i].setAttribute('class','edge');
    }
  }
}
]]></script>
        <defs>
                <circle id="rim" cx="0" cy="0" r="7"/>
                <circle id="rim2" cx="0" cy="0" r="3.5"/>
                <g id="zoomPlus">
                        <use xlink:href="#rim" fill="#404040">
                                <set attributeName="fill" to="#808080" begin="zoomplus.mouseover" end="zoomplus.mouseout"/>
                        </use>
                        <path d="M-4,0h8M0,-4v8" fill="none" stroke="white" stroke-width="1.5" pointer-events="none"/>
                </g>
                <g id="zoomMin">
                        <use xlink:href="#rim" fill="#404040">
                                <set attributeName="fill" to="#808080" begin="zoomminus.mouseover" end="zoomminus.mouseout"/>
                        </use>
                        <path d="M-4,0h8" fill="none" stroke="white" stroke-width="1.5" pointer-events="none"/>
                </g>
                <g id="dirArrow">
                        <path fill="none" stroke="white" stroke-width="1.5" d="M0,-3.0v7 M-2.5,-0.5L0,-3.0L2.5,-0.5"/>
                </g>
               <g id="resetDef">
                       <use xlink:href="#rim2" fill="#404040">
                               <set attributeName="fill" to="#808080" begin="reset.mouseover" end="reset.mouseout"/>
                       </use>
               </g>
        </defs>

<script type="text/javascript">
var viewWidth = 989;
var viewHeight = 88;
var sectionId = 'dynsection-8';
</script>
<script xlink:href="svgpan.js"/>
<svg id="graph" class="graph">
<g id="viewport">
<title>mcts::MCTS::randomChooseChildOrFallbackOnNode</title>
<!-- Node68 -->
<g id="node1" class="node">
<title>Node68</title>
<polygon fill="#bfbfbf" stroke="#000000" points="0,-24.5 0,-54.5 153,-54.5 153,-24.5 0,-24.5"/>
<text text-anchor="start" x="8" y="-42.5" font-family="Helvetica,sans-Serif" font-size="10.00" fill="#000000">mcts::MCTS::randomChoose</text>
<text text-anchor="middle" x="76.5" y="-31.5" font-family="Helvetica,sans-Serif" font-size="10.00" fill="#000000">ChildOrFallbackOnNode</text>
</g>
<!-- Node69 -->
<g id="node2" class="node">
<title>Node69</title>
<g id="a_node2"><a xlink:href="classmcts_1_1_m_c_t_s.html#ae8b2818e7a34e858e9dd284d33bca874" target="_top" xlink:title="Start the mcts. ">
<polygon fill="none" stroke="#000000" points="189,-30 189,-49 296,-49 296,-30 189,-30"/>
<text text-anchor="middle" x="242.5" y="-37" font-family="Helvetica,sans-Serif" font-size="10.00" fill="#000000">mcts::MCTS::begin</text>
</a>
</g>
</g>
<!-- Node68&#45;&gt;Node69 -->
<g id="edge1" class="edge">
<title>Node68&#45;&gt;Node69</title>
<path fill="none" stroke="#191970" d="M163.381,-39.5C172.0653,-39.5 180.6928,-39.5 188.8821,-39.5"/>
<polygon fill="#191970" stroke="#191970" points="163.1832,-36.0001 153.1832,-39.5 163.1831,-43.0001 163.1832,-36.0001"/>
</g>
<!-- Node70 -->
<g id="node3" class="node">
<title>Node70</title>
<g id="a_node3"><a xlink:href="classmcts_1_1_m_c_t_s_player.html#a53677f7c7f9cfe4b7999af8abcfb8641" target="_top" xlink:title="Unleashe the power of the MCTS !!!! ">
<polygon fill="none" stroke="#000000" points="332,-30 332,-49 510,-49 510,-30 332,-30"/>
<text text-anchor="middle" x="421" y="-37" font-family="Helvetica,sans-Serif" font-size="10.00" fill="#000000">mcts::MCTSPlayer::unleash_mcts</text>
</a>
</g>
</g>
<!-- Node69&#45;&gt;Node70 -->
<g id="edge2" class="edge">
<title>Node69&#45;&gt;Node70</title>
<path fill="none" stroke="#191970" d="M306.0586,-39.5C314.4106,-39.5 323.0906,-39.5 331.7704,-39.5"/>
<polygon fill="#191970" stroke="#191970" points="306.0559,-36.0001 296.0559,-39.5 306.0559,-43.0001 306.0559,-36.0001"/>
</g>
<!-- Node71 -->
<g id="node4" class="node">
<title>Node71</title>
<g id="a_node4"><a xlink:href="classmcts_1_1_m_c_t_s_player.html#a48340fed9c5730f0d64ca177682f575e" target="_top" xlink:title="Returns the best move after running the ai. ">
<polygon fill="none" stroke="#000000" points="546,-30 546,-49 704,-49 704,-30 546,-30"/>
<text text-anchor="middle" x="625" y="-37" font-family="Helvetica,sans-Serif" font-size="10.00" fill="#000000">mcts::MCTSPlayer::bestMove</text>
</a>
</g>
</g>
<!-- Node70&#45;&gt;Node71 -->
<g id="edge3" class="edge">
<title>Node70&#45;&gt;Node71</title>
<path fill="none" stroke="#191970" d="M520.2632,-39.5C528.8748,-39.5 537.5125,-39.5 545.9304,-39.5"/>
<polygon fill="#191970" stroke="#191970" points="520.1806,-36.0001 510.1806,-39.5 520.1806,-43.0001 520.1806,-36.0001"/>
</g>
<!-- Node72 -->
<g id="node5" class="node">
<title>Node72</title>
<g id="a_node5"><a xlink:href="classgame_1_1penguin_1_1_console_game.html#a56af132d8e3d16902fb46b7979d37eae" target="_top" xlink:title="Loop while the game is not finished, told by the isFinished method. ">
<polygon fill="none" stroke="#000000" points="740,-49.5 740,-79.5 904,-79.5 904,-49.5 740,-49.5"/>
<text text-anchor="start" x="748" y="-67.5" font-family="Helvetica,sans-Serif" font-size="10.00" fill="#000000">game::penguin::ConsoleGame</text>
<text text-anchor="middle" x="822" y="-56.5" font-family="Helvetica,sans-Serif" font-size="10.00" fill="#000000">::loop</text>
</a>
</g>
</g>
<!-- Node71&#45;&gt;Node72 -->
<g id="edge4" class="edge">
<title>Node71&#45;&gt;Node72</title>
<path fill="none" stroke="#191970" d="M710.2305,-50.3161C720.089,-51.5671 730.1281,-52.8411 739.9431,-54.0867"/>
<polygon fill="#191970" stroke="#191970" points="710.4003,-46.8096 700.0392,-49.0227 709.519,-53.7539 710.4003,-46.8096"/>
</g>
<!-- Node74 -->
<g id="node7" class="node">
<title>Node74</title>
<g id="a_node7"><a xlink:href="classgame_1_1tic__tac__toe_1_1_console_game.html#a06b07e4c713a60999258b0b573b02a33" target="_top" xlink:title="Loop while the game is not finished, told by the isFinished method. ">
<polygon fill="none" stroke="#000000" points="766,-.5 766,-30.5 878,-30.5 878,-.5 766,-.5"/>
<text text-anchor="start" x="774" y="-18.5" font-family="Helvetica,sans-Serif" font-size="10.00" fill="#000000">game::tic_tac_toe::</text>
<text text-anchor="middle" x="822" y="-7.5" font-family="Helvetica,sans-Serif" font-size="10.00" fill="#000000">ConsoleGame::loop</text>
</a>
</g>
</g>
<!-- Node71&#45;&gt;Node74 -->
<g id="edge6" class="edge">
<title>Node71&#45;&gt;Node74</title>
<path fill="none" stroke="#191970" d="M713.5387,-28.7136C731.3117,-26.5483 749.5216,-24.3299 765.8222,-22.344"/>
<polygon fill="#191970" stroke="#191970" points="712.6459,-25.2964 703.1426,-29.9801 713.4925,-32.245 712.6459,-25.2964"/>
</g>
<!-- Node73 -->
<g id="node6" class="node">
<title>Node73</title>
<g id="a_node6"><a xlink:href="main_8cpp.html#a1dfeea39dabf076270426c94def1a2a2" target="_top" xlink:title="main">
<polygon fill="none" stroke="#000000" points="940,-55 940,-74 981,-74 981,-55 940,-55"/>
<text text-anchor="middle" x="960.5" y="-62" font-family="Helvetica,sans-Serif" font-size="10.00" fill="#000000">main</text>
</a>
</g>
</g>
<!-- Node72&#45;&gt;Node73 -->
<g id="edge5" class="edge">
<title>Node72&#45;&gt;Node73</title>
<path fill="none" stroke="#191970" d="M914.2725,-64.5C923.7768,-64.5 932.6282,-64.5 939.9893,-64.5"/>
<polygon fill="#191970" stroke="#191970" points="914.1668,-61.0001 904.1667,-64.5 914.1667,-68.0001 914.1668,-61.0001"/>
</g>
</g>
</svg>
        <g id="navigator" transform="translate(0 0)" fill="#404254">
                <rect fill="#f2f5e9" fill-opacity="0.5" stroke="#606060" stroke-width=".5" x="0" y="0" width="60" height="60"/>
                <use id="zoomplus" xlink:href="#zoomPlus" x="17" y="9" onmousedown="handleZoom(evt,'in')"/>
                <use id="zoomminus" xlink:href="#zoomMin" x="42" y="9" onmousedown="handleZoom(evt,'out')"/>
                <use id="reset" xlink:href="#resetDef" x="30" y="36" onmousedown="handleReset()"/>
                <g id="arrowUp" xlink:href="#dirArrow" transform="translate(30 24)" onmousedown="handlePan(0,-1)">
                  <use xlink:href="#rim" fill="#404040">
                        <set attributeName="fill" to="#808080" begin="arrowUp.mouseover" end="arrowUp.mouseout"/>
                  </use>
                  <path fill="none" stroke="white" stroke-width="1.5" d="M0,-3.0v7 M-2.5,-0.5L0,-3.0L2.5,-0.5"/>
                </g>
                <g id="arrowRight" xlink:href="#dirArrow" transform="rotate(90) translate(36 -43)" onmousedown="handlePan(1,0)">
                  <use xlink:href="#rim" fill="#404040">
                        <set attributeName="fill" to="#808080" begin="arrowRight.mouseover" end="arrowRight.mouseout"/>
                  </use>
                  <path fill="none" stroke="white" stroke-width="1.5" d="M0,-3.0v7 M-2.5,-0.5L0,-3.0L2.5,-0.5"/>
                </g>
                <g id="arrowDown" xlink:href="#dirArrow" transform="rotate(180) translate(-30 -48)" onmousedown="handlePan(0,1)">
                  <use xlink:href="#rim" fill="#404040">
                        <set attributeName="fill" to="#808080" begin="arrowDown.mouseover" end="arrowDown.mouseout"/>
                  </use>
                  <path fill="none" stroke="white" stroke-width="1.5" d="M0,-3.0v7 M-2.5,-0.5L0,-3.0L2.5,-0.5"/>
                </g>
                <g id="arrowLeft" xlink:href="#dirArrow" transform="rotate(270) translate(-36 17)" onmousedown="handlePan(-1,0)">
                  <use xlink:href="#rim" fill="#404040">
                        <set attributeName="fill" to="#808080" begin="arrowLeft.mouseover" end="arrowLeft.mouseout"/>
                  </use>
                  <path fill="none" stroke="white" stroke-width="1.5" d="M0,-3.0v7 M-2.5,-0.5L0,-3.0L2.5,-0.5"/>
                </g>
        </g>
        <svg viewBox="0 0 15 15" width="100%" height="30px" preserveAspectRatio="xMaxYMin meet">
         <g id="arrow_out" transform="scale(0.3 0.3)">
          <a xlink:href="classmcts_1_1_m_c_t_s_a6b5686f91610bb4f46c395634a17a5b8_icgraph_org.svg" target="_base">
           <rect id="button" ry="5" rx="5" y="6" x="6" height="38" width="38"
                fill="#f2f5e9" fill-opacity="0.5" stroke="#606060" stroke-width="1.0"/>
           <path id="arrow"
             d="M 11.500037,31.436501 C 11.940474,20.09759 22.043105,11.32322 32.158766,21.979434 L 37.068811,17.246167 C 37.068811,17.246167 37.088388,32 37.088388,32 L 22.160133,31.978069 C 22.160133,31.978069 26.997745,27.140456 26.997745,27.140456 C 18.528582,18.264221 13.291696,25.230495 11.500037,31.436501 z"
             style="fill:#404040;"/>
          </a>
         </g>
        </svg>
</svg>
