<?xml version="1.0" encoding="UTF-8" standalone="no"?>
<!DOCTYPE svg PUBLIC "-//W3C//DTD SVG 1.1//EN"
 "http://www.w3.org/Graphics/SVG/1.1/DTD/svg11.dtd">
<!-- Generated by graphviz version 2.40.1 (20161225.0304)
 -->
<!-- Title: game::penguin::Board::getPawnsOnBoard Pages: 1 -->
<svg width="465pt" height="39pt"
 viewBox="0.00 0.00 465.00 39.00" xmlns="http://www.w3.org/2000/svg" xmlns:xlink="http://www.w3.org/1999/xlink">
<g id="graph0" class="graph" transform="scale(1 1) rotate(0) translate(4 35)">
<title>game::penguin::Board::getPawnsOnBoard</title>
<!-- Node64 -->
<g id="node1" class="node">
<title>Node64</title>
<polygon fill="#bfbfbf" stroke="#000000" points="0,-.5 0,-30.5 124,-30.5 124,-.5 0,-.5"/>
<text text-anchor="start" x="8" y="-18.5" font-family="Helvetica,sans-Serif" font-size="10.00" fill="#000000">game::penguin::Board</text>
<text text-anchor="middle" x="62" y="-7.5" font-family="Helvetica,sans-Serif" font-size="10.00" fill="#000000">::getPawnsOnBoard</text>
</g>
<!-- Node65 -->
<g id="node2" class="node">
<title>Node65</title>
<g id="a_node2"><a xlink:href="classgame_1_1penguin_1_1_board.html#a7636e3bdb2da72d2a6395b1a2d846394" target="_top" xlink:title="game::penguin::Board\l::size">
<polygon fill="none" stroke="#000000" points="160,-.5 160,-30.5 284,-30.5 284,-.5 160,-.5"/>
<text text-anchor="start" x="168" y="-18.5" font-family="Helvetica,sans-Serif" font-size="10.00" fill="#000000">game::penguin::Board</text>
<text text-anchor="middle" x="222" y="-7.5" font-family="Helvetica,sans-Serif" font-size="10.00" fill="#000000">::size</text>
</a>
</g>
</g>
<!-- Node64&#45;&gt;Node65 -->
<g id="edge1" class="edge">
<title>Node64&#45;&gt;Node65</title>
<path fill="none" stroke="#191970" d="M134.5453,-15.5C142.996,-15.5 151.5587,-15.5 159.8518,-15.5"/>
<polygon fill="#191970" stroke="#191970" points="134.3184,-12.0001 124.3183,-15.5 134.3183,-19.0001 134.3184,-12.0001"/>
</g>
<!-- Node66 -->
<g id="node3" class="node">
<title>Node66</title>
<g id="a_node3"><a xlink:href="classgame_1_1penguin_1_1_print_hex.html#acdb07dd749d832db180a0f42040e33ed" target="_top" xlink:title="game::penguin::PrintHex\l::PrintHex">
<polygon fill="none" stroke="#000000" points="320,-.5 320,-30.5 457,-30.5 457,-.5 320,-.5"/>
<text text-anchor="start" x="328" y="-18.5" font-family="Helvetica,sans-Serif" font-size="10.00" fill="#000000">game::penguin::PrintHex</text>
<text text-anchor="middle" x="388.5" y="-7.5" font-family="Helvetica,sans-Serif" font-size="10.00" fill="#000000">::PrintHex</text>
</a>
</g>
</g>
<!-- Node65&#45;&gt;Node66 -->
<g id="edge2" class="edge">
<title>Node65&#45;&gt;Node66</title>
<path fill="none" stroke="#191970" d="M294.5939,-15.5C302.9705,-15.5 311.4934,-15.5 319.8159,-15.5"/>
<polygon fill="#191970" stroke="#191970" points="294.4722,-12.0001 284.4722,-15.5 294.4721,-19.0001 294.4722,-12.0001"/>
</g>
</g>
</svg>
