<?xml version="1.0" encoding="UTF-8" standalone="no"?>
<!DOCTYPE svg PUBLIC "-//W3C//DTD SVG 1.1//EN"
 "http://www.w3.org/Graphics/SVG/1.1/DTD/svg11.dtd">
<!-- Generated by graphviz version 2.40.1 (20161225.0304)
 -->
<!-- Title: game::AbstractBoard::checkStatus Pages: 1 -->
<svg width="604pt" height="324pt"
 viewBox="0.00 0.00 604.00 323.50" xmlns="http://www.w3.org/2000/svg" xmlns:xlink="http://www.w3.org/1999/xlink">
<g id="graph0" class="graph" transform="scale(1 1) rotate(0) translate(4 319.5)">
<title>game::AbstractBoard::checkStatus</title>
<!-- Node7 -->
<g id="node1" class="node">
<title>Node7</title>
<polygon fill="#bfbfbf" stroke="#000000" points="0,-142.5 0,-172.5 119,-172.5 119,-142.5 0,-142.5"/>
<text text-anchor="start" x="8" y="-160.5" font-family="Helvetica,sans-Serif" font-size="10.00" fill="#000000">game::AbstractBoard</text>
<text text-anchor="middle" x="59.5" y="-149.5" font-family="Helvetica,sans-Serif" font-size="10.00" fill="#000000">::checkStatus</text>
</g>
<!-- Node8 -->
<g id="node2" class="node">
<title>Node8</title>
<g id="a_node2"><a xlink:href="classgame_1_1_abstract_board.html#a1331343872024287df1749cea4a96f5e" target="_top" xlink:title="game::AbstractBoard\l\&lt; BoardCell, Player,\l Player \&gt;::~AbstractBoard">
<polygon fill="none" stroke="#000000" points="164.5,-274 164.5,-315 309.5,-315 309.5,-274 164.5,-274"/>
<text text-anchor="start" x="172.5" y="-303" font-family="Helvetica,sans-Serif" font-size="10.00" fill="#000000">game::AbstractBoard</text>
<text text-anchor="start" x="172.5" y="-292" font-family="Helvetica,sans-Serif" font-size="10.00" fill="#000000">&lt; BoardCell, Player,</text>
<text text-anchor="middle" x="237" y="-281" font-family="Helvetica,sans-Serif" font-size="10.00" fill="#000000"> Player &gt;::~AbstractBoard</text>
</a>
</g>
</g>
<!-- Node7&#45;&gt;Node8 -->
<g id="edge1" class="edge">
<title>Node7&#45;&gt;Node8</title>
<path fill="none" stroke="#191970" d="M76.4322,-180.5471C93.9928,-203.1268 123.2832,-237.292 155,-259.5 162.7345,-264.9157 171.4388,-269.7376 180.2116,-273.9414"/>
<polygon fill="#191970" stroke="#191970" points="79.146,-178.3338 70.2957,-172.5095 73.5822,-182.5817 79.146,-178.3338"/>
</g>
<!-- Node9 -->
<g id="node3" class="node">
<title>Node9</title>
<g id="a_node3"><a xlink:href="classgame_1_1penguin_1_1_console_game.html#a56af132d8e3d16902fb46b7979d37eae" target="_top" xlink:title="Loop while the game is not finished, told by the isFinished method. ">
<polygon fill="none" stroke="#000000" points="355,-208.5 355,-238.5 519,-238.5 519,-208.5 355,-208.5"/>
<text text-anchor="start" x="363" y="-226.5" font-family="Helvetica,sans-Serif" font-size="10.00" fill="#000000">game::penguin::ConsoleGame</text>
<text text-anchor="middle" x="437" y="-215.5" font-family="Helvetica,sans-Serif" font-size="10.00" fill="#000000">::loop</text>
</a>
</g>
</g>
<!-- Node7&#45;&gt;Node9 -->
<g id="edge2" class="edge">
<title>Node7&#45;&gt;Node9</title>
<path fill="none" stroke="#191970" d="M81.6214,-179.7857C99.6353,-196.2494 126.6465,-217.3288 155,-226.5 219.7528,-247.4449 297.3259,-244.7605 354.7072,-237.9319"/>
<polygon fill="#191970" stroke="#191970" points="83.6825,-176.9187 74.0054,-172.6055 78.8806,-182.012 83.6825,-176.9187"/>
</g>
<!-- Node11 -->
<g id="node5" class="node">
<title>Node11</title>
<g id="a_node5"><a xlink:href="classgame_1_1tic__tac__toe_1_1_console_game.html#a06b07e4c713a60999258b0b573b02a33" target="_top" xlink:title="Loop while the game is not finished, told by the isFinished method. ">
<polygon fill="none" stroke="#000000" points="381,-115.5 381,-145.5 493,-145.5 493,-115.5 381,-115.5"/>
<text text-anchor="start" x="389" y="-133.5" font-family="Helvetica,sans-Serif" font-size="10.00" fill="#000000">game::tic_tac_toe::</text>
<text text-anchor="middle" x="437" y="-122.5" font-family="Helvetica,sans-Serif" font-size="10.00" fill="#000000">ConsoleGame::loop</text>
</a>
</g>
</g>
<!-- Node7&#45;&gt;Node11 -->
<g id="edge4" class="edge">
<title>Node7&#45;&gt;Node11</title>
<path fill="none" stroke="#191970" d="M129.7216,-152.4775C202.2446,-147.2905 313.9828,-139.2986 380.8515,-134.5159"/>
<polygon fill="#191970" stroke="#191970" points="129.0408,-149.0172 119.316,-153.2218 129.5402,-155.9994 129.0408,-149.0172"/>
</g>
<!-- Node12 -->
<g id="node6" class="node">
<title>Node12</title>
<g id="a_node6"><a xlink:href="classgame_1_1penguin_1_1_penguin_game.html#ae5e55157da5e8a1ed2ccc2c9cbbad50d" target="_top" xlink:title="Tells if the game is finished yet. ">
<polygon fill="none" stroke="#000000" points="155,-186.5 155,-216.5 319,-216.5 319,-186.5 155,-186.5"/>
<text text-anchor="start" x="163" y="-204.5" font-family="Helvetica,sans-Serif" font-size="10.00" fill="#000000">game::penguin::PenguinGame</text>
<text text-anchor="middle" x="237" y="-193.5" font-family="Helvetica,sans-Serif" font-size="10.00" fill="#000000">::isFinished</text>
</a>
</g>
</g>
<!-- Node7&#45;&gt;Node12 -->
<g id="edge5" class="edge">
<title>Node7&#45;&gt;Node12</title>
<path fill="none" stroke="#191970" d="M129.1953,-174.7766C144.7724,-178.6379 161.1714,-182.703 176.348,-186.4651"/>
<polygon fill="#191970" stroke="#191970" points="129.6471,-171.2827 119.0987,-172.2738 127.9628,-178.0771 129.6471,-171.2827"/>
</g>
<!-- Node13 -->
<g id="node7" class="node">
<title>Node13</title>
<g id="a_node7"><a xlink:href="classgame_1_1penguin_1_1_penguin_game.html#af255dc5b05ef5244ac864d4aa2d3be2e" target="_top" xlink:title="Checks the status of the game, if won, draw. ">
<polygon fill="none" stroke="#000000" points="155,-98.5 155,-128.5 319,-128.5 319,-98.5 155,-98.5"/>
<text text-anchor="start" x="163" y="-116.5" font-family="Helvetica,sans-Serif" font-size="10.00" fill="#000000">game::penguin::PenguinGame</text>
<text text-anchor="middle" x="237" y="-105.5" font-family="Helvetica,sans-Serif" font-size="10.00" fill="#000000">::checkStatus</text>
</a>
</g>
</g>
<!-- Node7&#45;&gt;Node13 -->
<g id="edge7" class="edge">
<title>Node7&#45;&gt;Node13</title>
<path fill="none" stroke="#191970" d="M129.1953,-140.2234C144.7724,-136.3621 161.1714,-132.297 176.348,-128.5349"/>
<polygon fill="#191970" stroke="#191970" points="127.9628,-136.9229 119.0987,-142.7262 129.6471,-143.7173 127.9628,-136.9229"/>
</g>
<!-- Node14 -->
<g id="node8" class="node">
<title>Node14</title>
<g id="a_node8"><a xlink:href="classgame_1_1tic__tac__toe_1_1_tic_tac_toe.html#a06463011bee6de3d33946f9162970989" target="_top" xlink:title="Tells if the game is finished yet. ">
<polygon fill="none" stroke="#000000" points="178.5,-49.5 178.5,-79.5 295.5,-79.5 295.5,-49.5 178.5,-49.5"/>
<text text-anchor="start" x="186.5" y="-67.5" font-family="Helvetica,sans-Serif" font-size="10.00" fill="#000000">game::tic_tac_toe::</text>
<text text-anchor="middle" x="237" y="-56.5" font-family="Helvetica,sans-Serif" font-size="10.00" fill="#000000">TicTacToe::isFinished</text>
</a>
</g>
</g>
<!-- Node7&#45;&gt;Node14 -->
<g id="edge8" class="edge">
<title>Node7&#45;&gt;Node14</title>
<path fill="none" stroke="#191970" d="M84.521,-135.7483C102.9485,-120.6803 129.1905,-101.1334 155,-88.5 162.3276,-84.9132 170.2915,-81.7599 178.2802,-79.0192"/>
<polygon fill="#191970" stroke="#191970" points="82.0792,-133.227 76.6338,-142.3154 86.5583,-138.6064 82.0792,-133.227"/>
</g>
<!-- Node15 -->
<g id="node9" class="node">
<title>Node15</title>
<g id="a_node9"><a xlink:href="classgame_1_1tic__tac__toe_1_1_tic_tac_toe.html#a033d73237ae31a39c23a0e887adbce2f" target="_top" xlink:title="Checks the status of the game, if won, draw. ">
<polygon fill="none" stroke="#000000" points="173,-.5 173,-30.5 301,-30.5 301,-.5 173,-.5"/>
<text text-anchor="start" x="181" y="-18.5" font-family="Helvetica,sans-Serif" font-size="10.00" fill="#000000">game::tic_tac_toe::</text>
<text text-anchor="middle" x="237" y="-7.5" font-family="Helvetica,sans-Serif" font-size="10.00" fill="#000000">TicTacToe::checkStatus</text>
</a>
</g>
</g>
<!-- Node7&#45;&gt;Node15 -->
<g id="edge10" class="edge">
<title>Node7&#45;&gt;Node15</title>
<path fill="none" stroke="#191970" d="M72.7398,-133.6102C88.7917,-106.8213 118.3079,-63.9381 155,-39.5 160.4321,-35.882 166.4193,-32.7988 172.6103,-30.1733"/>
<polygon fill="#191970" stroke="#191970" points="69.6521,-131.9572 67.6339,-142.358 75.6977,-135.4859 69.6521,-131.9572"/>
</g>
<!-- Node10 -->
<g id="node4" class="node">
<title>Node10</title>
<g id="a_node4"><a xlink:href="main_8cpp.html#a1dfeea39dabf076270426c94def1a2a2" target="_top" xlink:title="main">
<polygon fill="none" stroke="#000000" points="555,-214 555,-233 596,-233 596,-214 555,-214"/>
<text text-anchor="middle" x="575.5" y="-221" font-family="Helvetica,sans-Serif" font-size="10.00" fill="#000000">main</text>
</a>
</g>
</g>
<!-- Node9&#45;&gt;Node10 -->
<g id="edge3" class="edge">
<title>Node9&#45;&gt;Node10</title>
<path fill="none" stroke="#191970" d="M529.2725,-223.5C538.7768,-223.5 547.6282,-223.5 554.9893,-223.5"/>
<polygon fill="#191970" stroke="#191970" points="529.1668,-220.0001 519.1667,-223.5 529.1667,-227.0001 529.1668,-220.0001"/>
</g>
<!-- Node12&#45;&gt;Node9 -->
<g id="edge6" class="edge">
<title>Node12&#45;&gt;Node9</title>
<path fill="none" stroke="#191970" d="M329.1874,-211.6406C337.7264,-212.5799 346.3418,-213.5276 354.7826,-214.4561"/>
<polygon fill="#191970" stroke="#191970" points="329.5362,-208.158 319.2135,-210.5435 328.7708,-215.116 329.5362,-208.158"/>
</g>
<!-- Node14&#45;&gt;Node11 -->
<g id="edge9" class="edge">
<title>Node14&#45;&gt;Node11</title>
<path fill="none" stroke="#191970" d="M300.0964,-82.5707C306.4971,-84.5224 312.8881,-86.5197 319,-88.5 344.9613,-96.9118 373.8273,-107.17 396.5107,-115.4426"/>
<polygon fill="#191970" stroke="#191970" points="300.6534,-79.0832 290.0689,-79.5501 298.6344,-85.7857 300.6534,-79.0832"/>
</g>
</g>
</svg>
