<?xml version="1.0" encoding="UTF-8" standalone="no"?>
<!DOCTYPE svg PUBLIC "-//W3C//DTD SVG 1.1//EN"
 "http://www.w3.org/Graphics/SVG/1.1/DTD/svg11.dtd">
<!-- Generated by graphviz version 2.40.1 (20161225.0304)
 -->
<!-- Title: game::penguin::PenguinGame::clone Pages: 1 -->
<svg width="372pt" height="88pt"
 viewBox="0.00 0.00 372.00 88.00" xmlns="http://www.w3.org/2000/svg" xmlns:xlink="http://www.w3.org/1999/xlink">
<g id="graph0" class="graph" transform="scale(1 1) rotate(0) translate(4 84)">
<title>game::penguin::PenguinGame::clone</title>
<!-- Node8 -->
<g id="node1" class="node">
<title>Node8</title>
<polygon fill="#bfbfbf" stroke="#000000" points="0,-24.5 0,-54.5 164,-54.5 164,-24.5 0,-24.5"/>
<text text-anchor="start" x="8" y="-42.5" font-family="Helvetica,sans-Serif" font-size="10.00" fill="#000000">game::penguin::PenguinGame</text>
<text text-anchor="middle" x="82" y="-31.5" font-family="Helvetica,sans-Serif" font-size="10.00" fill="#000000">::clone</text>
</g>
<!-- Node9 -->
<g id="node2" class="node">
<title>Node9</title>
<g id="a_node2"><a xlink:href="classgame_1_1penguin_1_1_penguin_game.html#ad5bc5305347a5c28df1f41407e53303c" target="_top" xlink:title="game::penguin::PenguinGame\l::PenguinGame">
<polygon fill="none" stroke="#000000" points="200,-49.5 200,-79.5 364,-79.5 364,-49.5 200,-49.5"/>
<text text-anchor="start" x="208" y="-67.5" font-family="Helvetica,sans-Serif" font-size="10.00" fill="#000000">game::penguin::PenguinGame</text>
<text text-anchor="middle" x="282" y="-56.5" font-family="Helvetica,sans-Serif" font-size="10.00" fill="#000000">::PenguinGame</text>
</a>
</g>
</g>
<!-- Node8&#45;&gt;Node9 -->
<g id="edge1" class="edge">
<title>Node8&#45;&gt;Node9</title>
<path fill="none" stroke="#191970" d="M164.2135,-49.7767C172.6542,-50.8318 181.2696,-51.9087 189.8087,-52.9761"/>
<polygon fill="#191970" stroke="#191970" points="189.4257,-56.4554 199.7826,-54.2228 190.294,-49.5094 189.4257,-56.4554"/>
</g>
<!-- Node10 -->
<g id="node3" class="node">
<title>Node10</title>
<g id="a_node3"><a xlink:href="classgame_1_1_abstract_board.html#abd467b64fd2c0dfbc0ce87200afb3e9e" target="_top" xlink:title="game::AbstractBoard\l::clone">
<polygon fill="none" stroke="#000000" points="222.5,-.5 222.5,-30.5 341.5,-30.5 341.5,-.5 222.5,-.5"/>
<text text-anchor="start" x="230.5" y="-18.5" font-family="Helvetica,sans-Serif" font-size="10.00" fill="#000000">game::AbstractBoard</text>
<text text-anchor="middle" x="282" y="-7.5" font-family="Helvetica,sans-Serif" font-size="10.00" fill="#000000">::clone</text>
</a>
</g>
</g>
<!-- Node8&#45;&gt;Node10 -->
<g id="edge2" class="edge">
<title>Node8&#45;&gt;Node10</title>
<path fill="none" stroke="#191970" d="M164.2135,-29.6344C180.2103,-27.7148 196.8346,-25.7199 212.3771,-23.8547"/>
<polygon fill="#191970" stroke="#191970" points="212.9054,-27.3166 222.4171,-22.6499 212.0713,-20.3664 212.9054,-27.3166"/>
</g>
</g>
</svg>
