<?xml version="1.0" encoding="UTF-8" standalone="no"?>
<!DOCTYPE svg PUBLIC "-//W3C//DTD SVG 1.1//EN"
 "http://www.w3.org/Graphics/SVG/1.1/DTD/svg11.dtd">
<!-- Generated by graphviz version 2.40.1 (20161225.0304)
 -->
<!-- Title: mcts::MCTS::formula Pages: 1 -->
<!--zoomable 88 -->
<svg id="main" version="1.1" xmlns="http://www.w3.org/2000/svg" xmlns:xlink="http://www.w3.org/1999/xlink" xml:space="preserve" onload="init(evt)">
<style type="text/css"><![CDATA[
.edge:hover path { stroke: red; }
.edge:hover polygon { stroke: red; fill: red; }
]]></style>
<script type="text/javascript"><![CDATA[
var edges = document.getElementsByTagName('g');
if (edges && edges.length) {
  for (var i=0;i<edges.length;i++) {
    if (edges[i].id.substr(0,4)=='edge') {
      edges[i].setAttribute('class','edge');
    }
  }
}
]]></script>
        <defs>
                <circle id="rim" cx="0" cy="0" r="7"/>
                <circle id="rim2" cx="0" cy="0" r="3.5"/>
                <g id="zoomPlus">
                        <use xlink:href="#rim" fill="#404040">
                                <set attributeName="fill" to="#808080" begin="zoomplus.mouseover" end="zoomplus.mouseout"/>
                        </use>
                        <path d="M-4,0h8M0,-4v8" fill="none" stroke="white" stroke-width="1.5" pointer-events="none"/>
                </g>
                <g id="zoomMin">
                        <use xlink:href="#rim" fill="#404040">
                                <set attributeName="fill" to="#808080" begin="zoomminus.mouseover" end="zoomminus.mouseout"/>
                        </use>
                        <path d="M-4,0h8" fill="none" stroke="white" stroke-width="1.5" pointer-events="none"/>
                </g>
                <g id="dirArrow">
                        <path fill="none" stroke="white" stroke-width="1.5" d="M0,-3.0v7 M-2.5,-0.5L0,-3.0L2.5,-0.5"/>
                </g>
               <g id="resetDef">
                       <use xlink:href="#rim2" fill="#404040">
                               <set attributeName="fill" to="#808080" begin="reset.mouseover" end="reset.mouseout"/>
                       </use>
               </g>
        </defs>

<script type="text/javascript">
var viewWidth = 1145;
var viewHeight = 88;
var sectionId = 'dynsection-6';
</script>
<script xlink:href="svgpan.js"/>
<svg id="graph" class="graph">
<g id="viewport">
<title>mcts::MCTS::formula</title>
<!-- Node50 -->
<g id="node1" class="node">
<title>Node50</title>
<polygon fill="#bfbfbf" stroke="#000000" points="0,-30 0,-49 118,-49 118,-30 0,-30"/>
<text text-anchor="middle" x="59" y="-37" font-family="Helvetica,sans-Serif" font-size="10.00" fill="#000000">mcts::MCTS::formula</text>
</g>
<!-- Node51 -->
<g id="node2" class="node">
<title>Node51</title>
<g id="a_node2"><a xlink:href="classmcts_1_1_m_c_t_s.html#a5a3c4a056b0611c19839d6757871653b" target="_top" xlink:title="mcts::MCTS::selectBestChild\lAndDoAction">
<polygon fill="none" stroke="#000000" points="154,-24.5 154,-54.5 309,-54.5 309,-24.5 154,-24.5"/>
<text text-anchor="start" x="162" y="-42.5" font-family="Helvetica,sans-Serif" font-size="10.00" fill="#000000">mcts::MCTS::selectBestChild</text>
<text text-anchor="middle" x="231.5" y="-31.5" font-family="Helvetica,sans-Serif" font-size="10.00" fill="#000000">AndDoAction</text>
</a>
</g>
</g>
<!-- Node50&#45;&gt;Node51 -->
<g id="edge1" class="edge">
<title>Node50&#45;&gt;Node51</title>
<path fill="none" stroke="#191970" d="M128.4054,-39.5C136.7438,-39.5 145.3009,-39.5 153.7481,-39.5"/>
<polygon fill="#191970" stroke="#191970" points="128.3647,-36.0001 118.3647,-39.5 128.3647,-43.0001 128.3647,-36.0001"/>
</g>
<!-- Node52 -->
<g id="node3" class="node">
<title>Node52</title>
<g id="a_node3"><a xlink:href="classmcts_1_1_m_c_t_s.html#ae8b2818e7a34e858e9dd284d33bca874" target="_top" xlink:title="Start the mcts. ">
<polygon fill="none" stroke="#000000" points="345,-30 345,-49 452,-49 452,-30 345,-30"/>
<text text-anchor="middle" x="398.5" y="-37" font-family="Helvetica,sans-Serif" font-size="10.00" fill="#000000">mcts::MCTS::begin</text>
</a>
</g>
</g>
<!-- Node51&#45;&gt;Node52 -->
<g id="edge2" class="edge">
<title>Node51&#45;&gt;Node52</title>
<path fill="none" stroke="#191970" d="M319.355,-39.5C328.057,-39.5 336.6958,-39.5 344.892,-39.5"/>
<polygon fill="#191970" stroke="#191970" points="319.1332,-36.0001 309.1332,-39.5 319.1332,-43.0001 319.1332,-36.0001"/>
</g>
<!-- Node53 -->
<g id="node4" class="node">
<title>Node53</title>
<g id="a_node4"><a xlink:href="classmcts_1_1_m_c_t_s_player.html#a53677f7c7f9cfe4b7999af8abcfb8641" target="_top" xlink:title="Unleashe the power of the MCTS !!!! ">
<polygon fill="none" stroke="#000000" points="488,-30 488,-49 666,-49 666,-30 488,-30"/>
<text text-anchor="middle" x="577" y="-37" font-family="Helvetica,sans-Serif" font-size="10.00" fill="#000000">mcts::MCTSPlayer::unleash_mcts</text>
</a>
</g>
</g>
<!-- Node52&#45;&gt;Node53 -->
<g id="edge3" class="edge">
<title>Node52&#45;&gt;Node53</title>
<path fill="none" stroke="#191970" d="M462.0586,-39.5C470.4106,-39.5 479.0906,-39.5 487.7704,-39.5"/>
<polygon fill="#191970" stroke="#191970" points="462.0559,-36.0001 452.0559,-39.5 462.0559,-43.0001 462.0559,-36.0001"/>
</g>
<!-- Node54 -->
<g id="node5" class="node">
<title>Node54</title>
<g id="a_node5"><a xlink:href="classmcts_1_1_m_c_t_s_player.html#a48340fed9c5730f0d64ca177682f575e" target="_top" xlink:title="Returns the best move after running the ai. ">
<polygon fill="none" stroke="#000000" points="702,-30 702,-49 860,-49 860,-30 702,-30"/>
<text text-anchor="middle" x="781" y="-37" font-family="Helvetica,sans-Serif" font-size="10.00" fill="#000000">mcts::MCTSPlayer::bestMove</text>
</a>
</g>
</g>
<!-- Node53&#45;&gt;Node54 -->
<g id="edge4" class="edge">
<title>Node53&#45;&gt;Node54</title>
<path fill="none" stroke="#191970" d="M676.2632,-39.5C684.8748,-39.5 693.5125,-39.5 701.9304,-39.5"/>
<polygon fill="#191970" stroke="#191970" points="676.1806,-36.0001 666.1806,-39.5 676.1806,-43.0001 676.1806,-36.0001"/>
</g>
<!-- Node55 -->
<g id="node6" class="node">
<title>Node55</title>
<g id="a_node6"><a xlink:href="classgame_1_1penguin_1_1_console_game.html#a56af132d8e3d16902fb46b7979d37eae" target="_top" xlink:title="Loop while the game is not finished, told by the isFinished method. ">
<polygon fill="none" stroke="#000000" points="896,-49.5 896,-79.5 1060,-79.5 1060,-49.5 896,-49.5"/>
<text text-anchor="start" x="904" y="-67.5" font-family="Helvetica,sans-Serif" font-size="10.00" fill="#000000">game::penguin::ConsoleGame</text>
<text text-anchor="middle" x="978" y="-56.5" font-family="Helvetica,sans-Serif" font-size="10.00" fill="#000000">::loop</text>
</a>
</g>
</g>
<!-- Node54&#45;&gt;Node55 -->
<g id="edge5" class="edge">
<title>Node54&#45;&gt;Node55</title>
<path fill="none" stroke="#191970" d="M866.2305,-50.3161C876.089,-51.5671 886.1281,-52.8411 895.9431,-54.0867"/>
<polygon fill="#191970" stroke="#191970" points="866.4003,-46.8096 856.0392,-49.0227 865.519,-53.7539 866.4003,-46.8096"/>
</g>
<!-- Node57 -->
<g id="node8" class="node">
<title>Node57</title>
<g id="a_node8"><a xlink:href="classgame_1_1tic__tac__toe_1_1_console_game.html#a06b07e4c713a60999258b0b573b02a33" target="_top" xlink:title="Loop while the game is not finished, told by the isFinished method. ">
<polygon fill="none" stroke="#000000" points="922,-.5 922,-30.5 1034,-30.5 1034,-.5 922,-.5"/>
<text text-anchor="start" x="930" y="-18.5" font-family="Helvetica,sans-Serif" font-size="10.00" fill="#000000">game::tic_tac_toe::</text>
<text text-anchor="middle" x="978" y="-7.5" font-family="Helvetica,sans-Serif" font-size="10.00" fill="#000000">ConsoleGame::loop</text>
</a>
</g>
</g>
<!-- Node54&#45;&gt;Node57 -->
<g id="edge7" class="edge">
<title>Node54&#45;&gt;Node57</title>
<path fill="none" stroke="#191970" d="M869.5387,-28.7136C887.3117,-26.5483 905.5216,-24.3299 921.8222,-22.344"/>
<polygon fill="#191970" stroke="#191970" points="868.6459,-25.2964 859.1426,-29.9801 869.4925,-32.245 868.6459,-25.2964"/>
</g>
<!-- Node56 -->
<g id="node7" class="node">
<title>Node56</title>
<g id="a_node7"><a xlink:href="main_8cpp.html#a1dfeea39dabf076270426c94def1a2a2" target="_top" xlink:title="main">
<polygon fill="none" stroke="#000000" points="1096,-55 1096,-74 1137,-74 1137,-55 1096,-55"/>
<text text-anchor="middle" x="1116.5" y="-62" font-family="Helvetica,sans-Serif" font-size="10.00" fill="#000000">main</text>
</a>
</g>
</g>
<!-- Node55&#45;&gt;Node56 -->
<g id="edge6" class="edge">
<title>Node55&#45;&gt;Node56</title>
<path fill="none" stroke="#191970" d="M1070.2725,-64.5C1079.7768,-64.5 1088.6282,-64.5 1095.9893,-64.5"/>
<polygon fill="#191970" stroke="#191970" points="1070.1668,-61.0001 1060.1667,-64.5 1070.1667,-68.0001 1070.1668,-61.0001"/>
</g>
</g>
</svg>
        <g id="navigator" transform="translate(0 0)" fill="#404254">
                <rect fill="#f2f5e9" fill-opacity="0.5" stroke="#606060" stroke-width=".5" x="0" y="0" width="60" height="60"/>
                <use id="zoomplus" xlink:href="#zoomPlus" x="17" y="9" onmousedown="handleZoom(evt,'in')"/>
                <use id="zoomminus" xlink:href="#zoomMin" x="42" y="9" onmousedown="handleZoom(evt,'out')"/>
                <use id="reset" xlink:href="#resetDef" x="30" y="36" onmousedown="handleReset()"/>
                <g id="arrowUp" xlink:href="#dirArrow" transform="translate(30 24)" onmousedown="handlePan(0,-1)">
                  <use xlink:href="#rim" fill="#404040">
                        <set attributeName="fill" to="#808080" begin="arrowUp.mouseover" end="arrowUp.mouseout"/>
                  </use>
                  <path fill="none" stroke="white" stroke-width="1.5" d="M0,-3.0v7 M-2.5,-0.5L0,-3.0L2.5,-0.5"/>
                </g>
                <g id="arrowRight" xlink:href="#dirArrow" transform="rotate(90) translate(36 -43)" onmousedown="handlePan(1,0)">
                  <use xlink:href="#rim" fill="#404040">
                        <set attributeName="fill" to="#808080" begin="arrowRight.mouseover" end="arrowRight.mouseout"/>
                  </use>
                  <path fill="none" stroke="white" stroke-width="1.5" d="M0,-3.0v7 M-2.5,-0.5L0,-3.0L2.5,-0.5"/>
                </g>
                <g id="arrowDown" xlink:href="#dirArrow" transform="rotate(180) translate(-30 -48)" onmousedown="handlePan(0,1)">
                  <use xlink:href="#rim" fill="#404040">
                        <set attributeName="fill" to="#808080" begin="arrowDown.mouseover" end="arrowDown.mouseout"/>
                  </use>
                  <path fill="none" stroke="white" stroke-width="1.5" d="M0,-3.0v7 M-2.5,-0.5L0,-3.0L2.5,-0.5"/>
                </g>
                <g id="arrowLeft" xlink:href="#dirArrow" transform="rotate(270) translate(-36 17)" onmousedown="handlePan(-1,0)">
                  <use xlink:href="#rim" fill="#404040">
                        <set attributeName="fill" to="#808080" begin="arrowLeft.mouseover" end="arrowLeft.mouseout"/>
                  </use>
                  <path fill="none" stroke="white" stroke-width="1.5" d="M0,-3.0v7 M-2.5,-0.5L0,-3.0L2.5,-0.5"/>
                </g>
        </g>
        <svg viewBox="0 0 15 15" width="100%" height="30px" preserveAspectRatio="xMaxYMin meet">
         <g id="arrow_out" transform="scale(0.3 0.3)">
          <a xlink:href="classmcts_1_1_m_c_t_s_ac75ac1b12fbb40dca468f1c31a9fc8cd_icgraph_org.svg" target="_base">
           <rect id="button" ry="5" rx="5" y="6" x="6" height="38" width="38"
                fill="#f2f5e9" fill-opacity="0.5" stroke="#606060" stroke-width="1.0"/>
           <path id="arrow"
             d="M 11.500037,31.436501 C 11.940474,20.09759 22.043105,11.32322 32.158766,21.979434 L 37.068811,17.246167 C 37.068811,17.246167 37.088388,32 37.088388,32 L 22.160133,31.978069 C 22.160133,31.978069 26.997745,27.140456 26.997745,27.140456 C 18.528582,18.264221 13.291696,25.230495 11.500037,31.436501 z"
             style="fill:#404040;"/>
          </a>
         </g>
        </svg>
</svg>
