<?xml version="1.0" encoding="UTF-8" standalone="no"?>
<!DOCTYPE svg PUBLIC "-//W3C//DTD SVG 1.1//EN"
 "http://www.w3.org/Graphics/SVG/1.1/DTD/svg11.dtd">
<!-- Generated by graphviz version 2.40.1 (20161225.0304)
 -->
<!-- Title: game::tic_tac_toe::Board::getPawnById Pages: 1 -->
<svg width="277pt" height="88pt"
 viewBox="0.00 0.00 277.00 88.00" xmlns="http://www.w3.org/2000/svg" xmlns:xlink="http://www.w3.org/1999/xlink">
<g id="graph0" class="graph" transform="scale(1 1) rotate(0) translate(4 84)">
<title>game::tic_tac_toe::Board::getPawnById</title>
<!-- Node38 -->
<g id="node1" class="node">
<title>Node38</title>
<polygon fill="#bfbfbf" stroke="#000000" points="0,-24.5 0,-54.5 114,-54.5 114,-24.5 0,-24.5"/>
<text text-anchor="start" x="8" y="-42.5" font-family="Helvetica,sans-Serif" font-size="10.00" fill="#000000">game::tic_tac_toe::</text>
<text text-anchor="middle" x="57" y="-31.5" font-family="Helvetica,sans-Serif" font-size="10.00" fill="#000000">Board::getPawnById</text>
</g>
<!-- Node39 -->
<g id="node2" class="node">
<title>Node39</title>
<g id="a_node2"><a xlink:href="classgame_1_1tic__tac__toe_1_1_board.html#ac9d2d5da2263bb6166f93eec382380db" target="_top" xlink:title="game::tic_tac_toe::\lBoard::size">
<polygon fill="none" stroke="#000000" points="154.5,-49.5 154.5,-79.5 264.5,-79.5 264.5,-49.5 154.5,-49.5"/>
<text text-anchor="start" x="162.5" y="-67.5" font-family="Helvetica,sans-Serif" font-size="10.00" fill="#000000">game::tic_tac_toe::</text>
<text text-anchor="middle" x="209.5" y="-56.5" font-family="Helvetica,sans-Serif" font-size="10.00" fill="#000000">Board::size</text>
</a>
</g>
</g>
<!-- Node38&#45;&gt;Node39 -->
<g id="edge1" class="edge">
<title>Node38&#45;&gt;Node39</title>
<path fill="none" stroke="#191970" d="M124.2329,-50.5218C134.3449,-52.1795 144.6715,-53.8724 154.4878,-55.4816"/>
<polygon fill="#191970" stroke="#191970" points="124.6538,-47.0441 114.2192,-48.8802 123.5213,-53.9519 124.6538,-47.0441"/>
</g>
<!-- Node40 -->
<g id="node3" class="node">
<title>Node40</title>
<g id="a_node3"><a xlink:href="classgame_1_1tic__tac__toe_1_1_board.html#a7907b8fc363b7e33d585edbc7ec102ae" target="_top" xlink:title="Gets the player corresponding to a certain id. ">
<polygon fill="none" stroke="#000000" points="150,-.5 150,-30.5 269,-30.5 269,-.5 150,-.5"/>
<text text-anchor="start" x="158" y="-18.5" font-family="Helvetica,sans-Serif" font-size="10.00" fill="#000000">game::tic_tac_toe::</text>
<text text-anchor="middle" x="209.5" y="-7.5" font-family="Helvetica,sans-Serif" font-size="10.00" fill="#000000">Board::getPlayerById</text>
</a>
</g>
</g>
<!-- Node38&#45;&gt;Node40 -->
<g id="edge2" class="edge">
<title>Node38&#45;&gt;Node40</title>
<path fill="none" stroke="#191970" d="M124.1843,-28.9267C132.7562,-27.5777 141.4832,-26.2043 149.9236,-24.876"/>
<polygon fill="#191970" stroke="#191970" points="123.5535,-25.4828 114.2192,-30.495 124.6418,-32.3977 123.5535,-25.4828"/>
</g>
</g>
</svg>
