<?xml version="1.0" encoding="UTF-8" standalone="no"?>
<!DOCTYPE svg PUBLIC "-//W3C//DTD SVG 1.1//EN"
 "http://www.w3.org/Graphics/SVG/1.1/DTD/svg11.dtd">
<!-- Generated by graphviz version 2.40.1 (20161225.0304)
 -->
<!-- Title: game::tic_tac_toe::Board::clone Pages: 1 -->
<svg width="434pt" height="235pt"
 viewBox="0.00 0.00 434.00 235.00" xmlns="http://www.w3.org/2000/svg" xmlns:xlink="http://www.w3.org/1999/xlink">
<g id="graph0" class="graph" transform="scale(1 1) rotate(0) translate(4 231)">
<title>game::tic_tac_toe::Board::clone</title>
<!-- Node17 -->
<g id="node1" class="node">
<title>Node17</title>
<polygon fill="#bfbfbf" stroke="#000000" points="0,-98.5 0,-128.5 110,-128.5 110,-98.5 0,-98.5"/>
<text text-anchor="start" x="8" y="-116.5" font-family="Helvetica,sans-Serif" font-size="10.00" fill="#000000">game::tic_tac_toe::</text>
<text text-anchor="middle" x="55" y="-105.5" font-family="Helvetica,sans-Serif" font-size="10.00" fill="#000000">Board::clone</text>
</g>
<!-- Node18 -->
<g id="node2" class="node">
<title>Node18</title>
<g id="a_node2"><a xlink:href="classgame_1_1tic__tac__toe_1_1_board.html#a90e2255675eacaefca2cd89aea681096" target="_top" xlink:title="Construct a new Board object. ">
<polygon fill="none" stroke="#000000" points="153.5,-196.5 153.5,-226.5 263.5,-226.5 263.5,-196.5 153.5,-196.5"/>
<text text-anchor="start" x="161.5" y="-214.5" font-family="Helvetica,sans-Serif" font-size="10.00" fill="#000000">game::tic_tac_toe::</text>
<text text-anchor="middle" x="208.5" y="-203.5" font-family="Helvetica,sans-Serif" font-size="10.00" fill="#000000">Board::Board</text>
</a>
</g>
</g>
<!-- Node17&#45;&gt;Node18 -->
<g id="edge1" class="edge">
<title>Node17&#45;&gt;Node18</title>
<path fill="none" stroke="#191970" d="M70.2978,-128.5237C87.5233,-144.7931 116.9209,-170.6691 146,-187.5 148.8167,-189.1303 151.7649,-190.6911 154.7822,-192.1781"/>
<polygon fill="#191970" stroke="#191970" points="153.4316,-195.4093 163.9788,-196.4132 156.3597,-189.0512 153.4316,-195.4093"/>
</g>
<!-- Node19 -->
<g id="node3" class="node">
<title>Node19</title>
<g id="a_node3"><a xlink:href="classgame_1_1_abstract_pawn.html#ae9ad3bf0ee738571d0dd5992feae6bb7" target="_top" xlink:title="game::AbstractPawn\l::getCurrentCell">
<polygon fill="none" stroke="#000000" points="150.5,-147.5 150.5,-177.5 266.5,-177.5 266.5,-147.5 150.5,-147.5"/>
<text text-anchor="start" x="158.5" y="-165.5" font-family="Helvetica,sans-Serif" font-size="10.00" fill="#000000">game::AbstractPawn</text>
<text text-anchor="middle" x="208.5" y="-154.5" font-family="Helvetica,sans-Serif" font-size="10.00" fill="#000000">::getCurrentCell</text>
</a>
</g>
</g>
<!-- Node17&#45;&gt;Node19 -->
<g id="edge2" class="edge">
<title>Node17&#45;&gt;Node19</title>
<path fill="none" stroke="#191970" d="M102.3076,-128.6014C117.8458,-133.5615 135.2816,-139.1274 151.4634,-144.2929"/>
<polygon fill="#191970" stroke="#191970" points="150.7579,-147.7416 161.3486,-147.4484 152.8866,-141.0731 150.7579,-147.7416"/>
</g>
<!-- Node20 -->
<g id="node4" class="node">
<title>Node20</title>
<g id="a_node4"><a xlink:href="classgame_1_1tic__tac__toe_1_1_board_cell.html#aa418994b5cdf5c74b105701193d72a1b" target="_top" xlink:title="Get the Position object. ">
<polygon fill="none" stroke="#000000" points="146,-98.5 146,-128.5 271,-128.5 271,-98.5 146,-98.5"/>
<text text-anchor="start" x="154" y="-116.5" font-family="Helvetica,sans-Serif" font-size="10.00" fill="#000000">game::tic_tac_toe::</text>
<text text-anchor="middle" x="208.5" y="-105.5" font-family="Helvetica,sans-Serif" font-size="10.00" fill="#000000">BoardCell::getPosition</text>
</a>
</g>
</g>
<!-- Node17&#45;&gt;Node20 -->
<g id="edge3" class="edge">
<title>Node17&#45;&gt;Node20</title>
<path fill="none" stroke="#191970" d="M110.417,-113.5C118.598,-113.5 127.1303,-113.5 135.5998,-113.5"/>
<polygon fill="#191970" stroke="#191970" points="135.872,-117.0001 145.872,-113.5 135.8719,-110.0001 135.872,-117.0001"/>
</g>
<!-- Node22 -->
<g id="node6" class="node">
<title>Node22</title>
<g id="a_node6"><a xlink:href="classgame_1_1_abstract_pawn.html#a678ab4c2f0191bafa3e1e16cf04fa9d0" target="_top" xlink:title="Queue the move done at the top of the stack. ">
<polygon fill="none" stroke="#000000" points="150.5,-49.5 150.5,-79.5 266.5,-79.5 266.5,-49.5 150.5,-49.5"/>
<text text-anchor="start" x="158.5" y="-67.5" font-family="Helvetica,sans-Serif" font-size="10.00" fill="#000000">game::AbstractPawn</text>
<text text-anchor="middle" x="208.5" y="-56.5" font-family="Helvetica,sans-Serif" font-size="10.00" fill="#000000">::setCurrentCell</text>
</a>
</g>
</g>
<!-- Node17&#45;&gt;Node22 -->
<g id="edge5" class="edge">
<title>Node17&#45;&gt;Node22</title>
<path fill="none" stroke="#191970" d="M102.3076,-98.3986C117.8458,-93.4385 135.2816,-87.8726 151.4634,-82.7071"/>
<polygon fill="#191970" stroke="#191970" points="152.8866,-85.9269 161.3486,-79.5516 150.7579,-79.2584 152.8866,-85.9269"/>
</g>
<!-- Node23 -->
<g id="node7" class="node">
<title>Node23</title>
<g id="a_node7"><a xlink:href="classgame_1_1tic__tac__toe_1_1_board.html#ab5c00479b4dabd60bef9ea00fce23779" target="_top" xlink:title="Get the Cell. ">
<polygon fill="none" stroke="#000000" points="153.5,-.5 153.5,-30.5 263.5,-30.5 263.5,-.5 153.5,-.5"/>
<text text-anchor="start" x="161.5" y="-18.5" font-family="Helvetica,sans-Serif" font-size="10.00" fill="#000000">game::tic_tac_toe::</text>
<text text-anchor="middle" x="208.5" y="-7.5" font-family="Helvetica,sans-Serif" font-size="10.00" fill="#000000">Board::getCell</text>
</a>
</g>
</g>
<!-- Node17&#45;&gt;Node23 -->
<g id="edge6" class="edge">
<title>Node17&#45;&gt;Node23</title>
<path fill="none" stroke="#191970" d="M70.6957,-98.4795C88.0342,-82.4932 117.3122,-57.243 146,-40.5 149.4223,-38.5027 153.0344,-36.5959 156.726,-34.7907"/>
<polygon fill="#191970" stroke="#191970" points="158.3839,-37.8806 166.0034,-30.5189 155.4561,-31.5222 158.3839,-37.8806"/>
</g>
<!-- Node21 -->
<g id="node5" class="node">
<title>Node21</title>
<g id="a_node5"><a xlink:href="classgame_1_1tic__tac__toe_1_1_board_cell.html#a800b9a8409ad28086ad1e7cb275fa25e" target="_top" xlink:title="tells if the cell is claimed or not ">
<polygon fill="none" stroke="#000000" points="307,-98.5 307,-128.5 426,-128.5 426,-98.5 307,-98.5"/>
<text text-anchor="start" x="315" y="-116.5" font-family="Helvetica,sans-Serif" font-size="10.00" fill="#000000">game::tic_tac_toe::</text>
<text text-anchor="middle" x="366.5" y="-105.5" font-family="Helvetica,sans-Serif" font-size="10.00" fill="#000000">BoardCell::isClaimed</text>
</a>
</g>
</g>
<!-- Node20&#45;&gt;Node21 -->
<g id="edge4" class="edge">
<title>Node20&#45;&gt;Node21</title>
<path fill="none" stroke="#191970" d="M271.3998,-113.5C279.7204,-113.5 288.2899,-113.5 296.7175,-113.5"/>
<polygon fill="#191970" stroke="#191970" points="296.9007,-117.0001 306.9007,-113.5 296.9006,-110.0001 296.9007,-117.0001"/>
</g>
</g>
</svg>
