<?xml version="1.0" encoding="UTF-8" standalone="no"?>
<!DOCTYPE svg PUBLIC "-//W3C//DTD SVG 1.1//EN"
 "http://www.w3.org/Graphics/SVG/1.1/DTD/svg11.dtd">
<!-- Generated by graphviz version 2.40.1 (20161225.0304)
 -->
<!-- Title: game::penguin::BoardCell::getOwner Pages: 1 -->
<!--zoomable 209 -->
<svg id="main" version="1.1" xmlns="http://www.w3.org/2000/svg" xmlns:xlink="http://www.w3.org/1999/xlink" xml:space="preserve" onload="init(evt)">
<style type="text/css"><![CDATA[
.edge:hover path { stroke: red; }
.edge:hover polygon { stroke: red; fill: red; }
]]></style>
<script type="text/javascript"><![CDATA[
var edges = document.getElementsByTagName('g');
if (edges && edges.length) {
  for (var i=0;i<edges.length;i++) {
    if (edges[i].id.substr(0,4)=='edge') {
      edges[i].setAttribute('class','edge');
    }
  }
}
]]></script>
        <defs>
                <circle id="rim" cx="0" cy="0" r="7"/>
                <circle id="rim2" cx="0" cy="0" r="3.5"/>
                <g id="zoomPlus">
                        <use xlink:href="#rim" fill="#404040">
                                <set attributeName="fill" to="#808080" begin="zoomplus.mouseover" end="zoomplus.mouseout"/>
                        </use>
                        <path d="M-4,0h8M0,-4v8" fill="none" stroke="white" stroke-width="1.5" pointer-events="none"/>
                </g>
                <g id="zoomMin">
                        <use xlink:href="#rim" fill="#404040">
                                <set attributeName="fill" to="#808080" begin="zoomminus.mouseover" end="zoomminus.mouseout"/>
                        </use>
                        <path d="M-4,0h8" fill="none" stroke="white" stroke-width="1.5" pointer-events="none"/>
                </g>
                <g id="dirArrow">
                        <path fill="none" stroke="white" stroke-width="1.5" d="M0,-3.0v7 M-2.5,-0.5L0,-3.0L2.5,-0.5"/>
                </g>
               <g id="resetDef">
                       <use xlink:href="#rim2" fill="#404040">
                               <set attributeName="fill" to="#808080" begin="reset.mouseover" end="reset.mouseout"/>
                       </use>
               </g>
        </defs>

<script type="text/javascript">
var viewWidth = 1159;
var viewHeight = 209;
var sectionId = 'dynsection-10';
</script>
<script xlink:href="svgpan.js"/>
<svg id="graph" class="graph">
<g id="viewport">
<title>game::penguin::BoardCell::getOwner</title>
<!-- Node60 -->
<g id="node1" class="node">
<title>Node60</title>
<polygon fill="#bfbfbf" stroke="#000000" points="0,-101.5 0,-131.5 143,-131.5 143,-101.5 0,-101.5"/>
<text text-anchor="start" x="8" y="-119.5" font-family="Helvetica,sans-Serif" font-size="10.00" fill="#000000">game::penguin::BoardCell</text>
<text text-anchor="middle" x="71.5" y="-108.5" font-family="Helvetica,sans-Serif" font-size="10.00" fill="#000000">::getOwner</text>
</g>
<!-- Node61 -->
<g id="node2" class="node">
<title>Node61</title>
<g id="a_node2"><a xlink:href="classgame_1_1penguin_1_1_board.html#a45ecb5bba50b4d03592ac4ddf9255b49" target="_top" xlink:title="Revert the last move made on the behalf of the human player. ">
<polygon fill="none" stroke="#000000" points="543.5,-170.5 543.5,-200.5 667.5,-200.5 667.5,-170.5 543.5,-170.5"/>
<text text-anchor="start" x="551.5" y="-188.5" font-family="Helvetica,sans-Serif" font-size="10.00" fill="#000000">game::penguin::Board</text>
<text text-anchor="middle" x="605.5" y="-177.5" font-family="Helvetica,sans-Serif" font-size="10.00" fill="#000000">::revertMove</text>
</a>
</g>
</g>
<!-- Node60&#45;&gt;Node61 -->
<g id="edge1" class="edge">
<title>Node60&#45;&gt;Node61</title>
<path fill="none" stroke="#191970" d="M107.3113,-136.0507C127.698,-146.1718 154.0729,-157.6148 179,-163.5 305.8207,-193.442 459.5262,-192.6412 543.43,-189.1967"/>
<polygon fill="#191970" stroke="#191970" points="108.8932,-132.9286 98.3926,-131.5182 105.7217,-139.169 108.8932,-132.9286"/>
</g>
<!-- Node62 -->
<g id="node3" class="node">
<title>Node62</title>
<g id="a_node3"><a xlink:href="classgame_1_1penguin_1_1_board.html#ae85ef3019829098c5ad5afb1c3ebceb5" target="_top" xlink:title="Is the player able to move. ">
<polygon fill="none" stroke="#000000" points="188.5,-35.5 188.5,-65.5 312.5,-65.5 312.5,-35.5 188.5,-35.5"/>
<text text-anchor="start" x="196.5" y="-53.5" font-family="Helvetica,sans-Serif" font-size="10.00" fill="#000000">game::penguin::Board</text>
<text text-anchor="middle" x="250.5" y="-42.5" font-family="Helvetica,sans-Serif" font-size="10.00" fill="#000000">::isAbleToMove</text>
</a>
</g>
</g>
<!-- Node60&#45;&gt;Node62 -->
<g id="edge2" class="edge">
<title>Node60&#45;&gt;Node62</title>
<path fill="none" stroke="#191970" d="M122.0793,-97.8507C149.7668,-87.6418 183.6261,-75.1574 209.6249,-65.5713"/>
<polygon fill="#191970" stroke="#191970" points="120.7379,-94.6148 112.5662,-101.3583 123.1596,-101.1826 120.7379,-94.6148"/>
</g>
<!-- Node67 -->
<g id="node8" class="node">
<title>Node67</title>
<g id="a_node8"><a xlink:href="classgame_1_1penguin_1_1_board_cell.html#a4d3577488552bf0ba4822ac265532825" target="_top" xlink:title="game::penguin::BoardCell\l::clone">
<polygon fill="none" stroke="#000000" points="179,-123.5 179,-153.5 322,-153.5 322,-123.5 179,-123.5"/>
<text text-anchor="start" x="187" y="-141.5" font-family="Helvetica,sans-Serif" font-size="10.00" fill="#000000">game::penguin::BoardCell</text>
<text text-anchor="middle" x="250.5" y="-130.5" font-family="Helvetica,sans-Serif" font-size="10.00" fill="#000000">::clone</text>
</a>
</g>
</g>
<!-- Node60&#45;&gt;Node67 -->
<g id="edge7" class="edge">
<title>Node60&#45;&gt;Node67</title>
<path fill="none" stroke="#191970" d="M153.0428,-126.522C161.6381,-127.5784 170.3321,-128.647 178.8042,-129.6882"/>
<polygon fill="#191970" stroke="#191970" points="153.3695,-123.0359 143.0172,-125.2898 152.5156,-129.9836 153.3695,-123.0359"/>
</g>
<!-- Node71 -->
<g id="node12" class="node">
<title>Node71</title>
<g id="a_node12"><a xlink:href="classgame_1_1penguin_1_1_print_hex.html#a87a58be4fea97f043e6dbe01a3045c1d" target="_top" xlink:title="game::penguin::PrintHex\l::print">
<polygon fill="none" stroke="#000000" points="537,-72.5 537,-102.5 674,-102.5 674,-72.5 537,-72.5"/>
<text text-anchor="start" x="545" y="-90.5" font-family="Helvetica,sans-Serif" font-size="10.00" fill="#000000">game::penguin::PrintHex</text>
<text text-anchor="middle" x="605.5" y="-79.5" font-family="Helvetica,sans-Serif" font-size="10.00" fill="#000000">::print</text>
</a>
</g>
</g>
<!-- Node60&#45;&gt;Node71 -->
<g id="edge15" class="edge">
<title>Node60&#45;&gt;Node71</title>
<path fill="none" stroke="#191970" d="M153.4703,-112.0484C258.4306,-106.3483 438.4449,-96.5723 536.6535,-91.2389"/>
<polygon fill="#191970" stroke="#191970" points="153.0358,-108.5668 143.2404,-112.604 153.4155,-115.5565 153.0358,-108.5668"/>
</g>
<!-- Node63 -->
<g id="node4" class="node">
<title>Node63</title>
<g id="a_node4"><a xlink:href="classgame_1_1penguin_1_1_board.html#a3d659743bc33b43168c82dc4e2d3b00e" target="_top" xlink:title="Chek wether or not the game is finished. ">
<polygon fill="none" stroke="#000000" points="367.5,-35.5 367.5,-65.5 491.5,-65.5 491.5,-35.5 367.5,-35.5"/>
<text text-anchor="start" x="375.5" y="-53.5" font-family="Helvetica,sans-Serif" font-size="10.00" fill="#000000">game::penguin::Board</text>
<text text-anchor="middle" x="429.5" y="-42.5" font-family="Helvetica,sans-Serif" font-size="10.00" fill="#000000">::checkStatus</text>
</a>
</g>
</g>
<!-- Node62&#45;&gt;Node63 -->
<g id="edge3" class="edge">
<title>Node62&#45;&gt;Node63</title>
<path fill="none" stroke="#191970" d="M322.6885,-50.5C337.4367,-50.5 352.8369,-50.5 367.2037,-50.5"/>
<polygon fill="#191970" stroke="#191970" points="322.6032,-47.0001 312.6032,-50.5 322.6031,-54.0001 322.6032,-47.0001"/>
</g>
<!-- Node64 -->
<g id="node5" class="node">
<title>Node64</title>
<g id="a_node5"><a xlink:href="classgame_1_1penguin_1_1_penguin_game.html#aac449b76f27098b1d2218cc51e7f70b4" target="_top" xlink:title="Get the Human player to play, not the penguin one. ">
<polygon fill="none" stroke="#000000" points="710,-.5 710,-30.5 874,-30.5 874,-.5 710,-.5"/>
<text text-anchor="start" x="718" y="-18.5" font-family="Helvetica,sans-Serif" font-size="10.00" fill="#000000">game::penguin::PenguinGame</text>
<text text-anchor="middle" x="792" y="-7.5" font-family="Helvetica,sans-Serif" font-size="10.00" fill="#000000">::getPlayerToPlay</text>
</a>
</g>
</g>
<!-- Node62&#45;&gt;Node64 -->
<g id="edge4" class="edge">
<title>Node62&#45;&gt;Node64</title>
<path fill="none" stroke="#191970" d="M315.3579,-33.1577C329.3274,-30.0586 344.0797,-27.26 358,-25.5 479.6914,-10.114 622.063,-10.2494 709.6365,-12.3895"/>
<polygon fill="#191970" stroke="#191970" points="314.3102,-29.8071 305.3475,-35.4568 315.8772,-36.6295 314.3102,-29.8071"/>
</g>
<!-- Node65 -->
<g id="node6" class="node">
<title>Node65</title>
<g id="a_node6"><a xlink:href="classgame_1_1penguin_1_1_console_game.html#a56af132d8e3d16902fb46b7979d37eae" target="_top" xlink:title="Loop while the game is not finished, told by the isFinished method. ">
<polygon fill="none" stroke="#000000" points="910,-24.5 910,-54.5 1074,-54.5 1074,-24.5 910,-24.5"/>
<text text-anchor="start" x="918" y="-42.5" font-family="Helvetica,sans-Serif" font-size="10.00" fill="#000000">game::penguin::ConsoleGame</text>
<text text-anchor="middle" x="992" y="-31.5" font-family="Helvetica,sans-Serif" font-size="10.00" fill="#000000">::loop</text>
</a>
</g>
</g>
<!-- Node64&#45;&gt;Node65 -->
<g id="edge5" class="edge">
<title>Node64&#45;&gt;Node65</title>
<path fill="none" stroke="#191970" d="M884.1874,-26.5625C892.7264,-27.5872 901.3418,-28.621 909.7826,-29.6339"/>
<polygon fill="#191970" stroke="#191970" points="884.5593,-23.0821 874.2135,-25.3656 883.7252,-30.0322 884.5593,-23.0821"/>
</g>
<!-- Node66 -->
<g id="node7" class="node">
<title>Node66</title>
<g id="a_node7"><a xlink:href="main_8cpp.html#a1dfeea39dabf076270426c94def1a2a2" target="_top" xlink:title="main">
<polygon fill="none" stroke="#000000" points="1110,-30 1110,-49 1151,-49 1151,-30 1110,-30"/>
<text text-anchor="middle" x="1130.5" y="-37" font-family="Helvetica,sans-Serif" font-size="10.00" fill="#000000">main</text>
</a>
</g>
</g>
<!-- Node65&#45;&gt;Node66 -->
<g id="edge6" class="edge">
<title>Node65&#45;&gt;Node66</title>
<path fill="none" stroke="#191970" d="M1084.2725,-39.5C1093.7768,-39.5 1102.6282,-39.5 1109.9893,-39.5"/>
<polygon fill="#191970" stroke="#191970" points="1084.1668,-36.0001 1074.1667,-39.5 1084.1667,-43.0001 1084.1668,-36.0001"/>
</g>
<!-- Node68 -->
<g id="node9" class="node">
<title>Node68</title>
<g id="a_node9"><a xlink:href="classgame_1_1penguin_1_1_board_cell.html#abe8f2dc0eef3aed1e8701dc0b021c5a6" target="_top" xlink:title="Get the number of fish contained inside the cell. ">
<polygon fill="none" stroke="#000000" points="358,-123.5 358,-153.5 501,-153.5 501,-123.5 358,-123.5"/>
<text text-anchor="start" x="366" y="-141.5" font-family="Helvetica,sans-Serif" font-size="10.00" fill="#000000">game::penguin::BoardCell</text>
<text text-anchor="middle" x="429.5" y="-130.5" font-family="Helvetica,sans-Serif" font-size="10.00" fill="#000000">::getFish</text>
</a>
</g>
</g>
<!-- Node67&#45;&gt;Node68 -->
<g id="edge8" class="edge">
<title>Node67&#45;&gt;Node68</title>
<path fill="none" stroke="#191970" d="M332.0428,-138.5C340.6381,-138.5 349.3321,-138.5 357.8042,-138.5"/>
<polygon fill="#191970" stroke="#191970" points="332.0173,-135.0001 322.0172,-138.5 332.0172,-142.0001 332.0173,-135.0001"/>
</g>
<!-- Node68&#45;&gt;Node61 -->
<g id="edge11" class="edge">
<title>Node68&#45;&gt;Node61</title>
<path fill="none" stroke="#191970" d="M495.3688,-156.09C513.0973,-160.8243 532.1074,-165.9008 549.2586,-170.481"/>
<polygon fill="#191970" stroke="#191970" points="496.2359,-152.6989 485.6714,-153.5003 494.4298,-159.4619 496.2359,-152.6989"/>
</g>
<!-- Node69 -->
<g id="node10" class="node">
<title>Node69</title>
<g id="a_node10"><a xlink:href="classgame_1_1penguin_1_1_board.html#af297dc572afb02dafc61e3b8e849338f" target="_top" xlink:title="Performs a particular move. ">
<polygon fill="none" stroke="#000000" points="543.5,-121.5 543.5,-151.5 667.5,-151.5 667.5,-121.5 543.5,-121.5"/>
<text text-anchor="start" x="551.5" y="-139.5" font-family="Helvetica,sans-Serif" font-size="10.00" fill="#000000">game::penguin::Board</text>
<text text-anchor="middle" x="605.5" y="-128.5" font-family="Helvetica,sans-Serif" font-size="10.00" fill="#000000">::performMove</text>
</a>
</g>
</g>
<!-- Node68&#45;&gt;Node69 -->
<g id="edge9" class="edge">
<title>Node68&#45;&gt;Node69</title>
<path fill="none" stroke="#191970" d="M511.3303,-137.5701C522.0768,-137.448 532.9465,-137.3245 543.2942,-137.2069"/>
<polygon fill="#191970" stroke="#191970" points="511.0455,-134.073 501.0859,-137.6865 511.1251,-141.0726 511.0455,-134.073"/>
</g>
<!-- Node68&#45;&gt;Node71 -->
<g id="edge12" class="edge">
<title>Node68&#45;&gt;Node71</title>
<path fill="none" stroke="#191970" d="M491.1897,-120.624C511.6106,-114.7066 534.1133,-108.1859 553.7129,-102.5065"/>
<polygon fill="#191970" stroke="#191970" points="489.9846,-117.3292 481.3539,-123.4742 491.9329,-124.0526 489.9846,-117.3292"/>
</g>
<!-- Node70 -->
<g id="node11" class="node">
<title>Node70</title>
<g id="a_node11"><a xlink:href="classgame_1_1penguin_1_1_console_game.html#ac6ac2ce8f015a83682f7022c268c5efb" target="_top" xlink:title="game::penguin::ConsoleGame\l::ConsoleGame">
<polygon fill="none" stroke="#000000" points="710,-121.5 710,-151.5 874,-151.5 874,-121.5 710,-121.5"/>
<text text-anchor="start" x="718" y="-139.5" font-family="Helvetica,sans-Serif" font-size="10.00" fill="#000000">game::penguin::ConsoleGame</text>
<text text-anchor="middle" x="792" y="-128.5" font-family="Helvetica,sans-Serif" font-size="10.00" fill="#000000">::ConsoleGame</text>
</a>
</g>
</g>
<!-- Node69&#45;&gt;Node70 -->
<g id="edge10" class="edge">
<title>Node69&#45;&gt;Node70</title>
<path fill="none" stroke="#191970" d="M677.612,-136.5C688.1953,-136.5 699.1619,-136.5 709.927,-136.5"/>
<polygon fill="#191970" stroke="#191970" points="677.6018,-133.0001 667.6018,-136.5 677.6018,-140.0001 677.6018,-133.0001"/>
</g>
<!-- Node72 -->
<g id="node13" class="node">
<title>Node72</title>
<g id="a_node13"><a xlink:href="classgame_1_1penguin_1_1_console_game.html#a71c697742201f71b29327bf8554c2ef0" target="_top" xlink:title="game::penguin::ConsoleGame\l::draw">
<polygon fill="none" stroke="#000000" points="710,-63.5 710,-93.5 874,-93.5 874,-63.5 710,-63.5"/>
<text text-anchor="start" x="718" y="-81.5" font-family="Helvetica,sans-Serif" font-size="10.00" fill="#000000">game::penguin::ConsoleGame</text>
<text text-anchor="middle" x="792" y="-70.5" font-family="Helvetica,sans-Serif" font-size="10.00" fill="#000000">::draw</text>
</a>
</g>
</g>
<!-- Node71&#45;&gt;Node72 -->
<g id="edge13" class="edge">
<title>Node71&#45;&gt;Node72</title>
<path fill="none" stroke="#191970" d="M684.3574,-83.6946C692.8061,-83.2868 701.4163,-82.8713 709.9015,-82.4619"/>
<polygon fill="#191970" stroke="#191970" points="683.9708,-80.209 674.1512,-84.1871 684.3083,-87.2009 683.9708,-80.209"/>
</g>
<!-- Node72&#45;&gt;Node65 -->
<g id="edge14" class="edge">
<title>Node72&#45;&gt;Node65</title>
<path fill="none" stroke="#191970" d="M879.0227,-61.5306C890.997,-59.1956 903.2237,-56.8114 915.0005,-54.5149"/>
<polygon fill="#191970" stroke="#191970" points="878.1844,-58.128 869.0391,-63.4774 879.5242,-64.9986 878.1844,-58.128"/>
</g>
</g>
</svg>
        <g id="navigator" transform="translate(0 0)" fill="#404254">
                <rect fill="#f2f5e9" fill-opacity="0.5" stroke="#606060" stroke-width=".5" x="0" y="0" width="60" height="60"/>
                <use id="zoomplus" xlink:href="#zoomPlus" x="17" y="9" onmousedown="handleZoom(evt,'in')"/>
                <use id="zoomminus" xlink:href="#zoomMin" x="42" y="9" onmousedown="handleZoom(evt,'out')"/>
                <use id="reset" xlink:href="#resetDef" x="30" y="36" onmousedown="handleReset()"/>
                <g id="arrowUp" xlink:href="#dirArrow" transform="translate(30 24)" onmousedown="handlePan(0,-1)">
                  <use xlink:href="#rim" fill="#404040">
                        <set attributeName="fill" to="#808080" begin="arrowUp.mouseover" end="arrowUp.mouseout"/>
                  </use>
                  <path fill="none" stroke="white" stroke-width="1.5" d="M0,-3.0v7 M-2.5,-0.5L0,-3.0L2.5,-0.5"/>
                </g>
                <g id="arrowRight" xlink:href="#dirArrow" transform="rotate(90) translate(36 -43)" onmousedown="handlePan(1,0)">
                  <use xlink:href="#rim" fill="#404040">
                        <set attributeName="fill" to="#808080" begin="arrowRight.mouseover" end="arrowRight.mouseout"/>
                  </use>
                  <path fill="none" stroke="white" stroke-width="1.5" d="M0,-3.0v7 M-2.5,-0.5L0,-3.0L2.5,-0.5"/>
                </g>
                <g id="arrowDown" xlink:href="#dirArrow" transform="rotate(180) translate(-30 -48)" onmousedown="handlePan(0,1)">
                  <use xlink:href="#rim" fill="#404040">
                        <set attributeName="fill" to="#808080" begin="arrowDown.mouseover" end="arrowDown.mouseout"/>
                  </use>
                  <path fill="none" stroke="white" stroke-width="1.5" d="M0,-3.0v7 M-2.5,-0.5L0,-3.0L2.5,-0.5"/>
                </g>
                <g id="arrowLeft" xlink:href="#dirArrow" transform="rotate(270) translate(-36 17)" onmousedown="handlePan(-1,0)">
                  <use xlink:href="#rim" fill="#404040">
                        <set attributeName="fill" to="#808080" begin="arrowLeft.mouseover" end="arrowLeft.mouseout"/>
                  </use>
                  <path fill="none" stroke="white" stroke-width="1.5" d="M0,-3.0v7 M-2.5,-0.5L0,-3.0L2.5,-0.5"/>
                </g>
        </g>
        <svg viewBox="0 0 15 15" width="100%" height="30px" preserveAspectRatio="xMaxYMin meet">
         <g id="arrow_out" transform="scale(0.3 0.3)">
          <a xlink:href="classgame_1_1penguin_1_1_board_cell_a011487b961b356a891144edcccc1473f_icgraph_org.svg" target="_base">
           <rect id="button" ry="5" rx="5" y="6" x="6" height="38" width="38"
                fill="#f2f5e9" fill-opacity="0.5" stroke="#606060" stroke-width="1.0"/>
           <path id="arrow"
             d="M 11.500037,31.436501 C 11.940474,20.09759 22.043105,11.32322 32.158766,21.979434 L 37.068811,17.246167 C 37.068811,17.246167 37.088388,32 37.088388,32 L 22.160133,31.978069 C 22.160133,31.978069 26.997745,27.140456 26.997745,27.140456 C 18.528582,18.264221 13.291696,25.230495 11.500037,31.436501 z"
             style="fill:#404040;"/>
          </a>
         </g>
        </svg>
</svg>
