<?xml version="1.0" encoding="UTF-8" standalone="no"?>
<!DOCTYPE svg PUBLIC "-//W3C//DTD SVG 1.1//EN"
 "http://www.w3.org/Graphics/SVG/1.1/DTD/svg11.dtd">
<!-- Generated by graphviz version 2.40.1 (20161225.0304)
 -->
<!-- Title: mcts::MCTS::selectBestChildAndDoAction Pages: 1 -->
<svg width="363pt" height="66pt"
 viewBox="0.00 0.00 363.00 66.00" xmlns="http://www.w3.org/2000/svg" xmlns:xlink="http://www.w3.org/1999/xlink">
<g id="graph0" class="graph" transform="scale(1 1) rotate(0) translate(4 62)">
<title>mcts::MCTS::selectBestChildAndDoAction</title>
<!-- Node84 -->
<g id="node1" class="node">
<title>Node84</title>
<polygon fill="#bfbfbf" stroke="#000000" points="0,-14 0,-44 155,-44 155,-14 0,-14"/>
<text text-anchor="start" x="8" y="-32" font-family="Helvetica,sans-Serif" font-size="10.00" fill="#000000">mcts::MCTS::selectBestChild</text>
<text text-anchor="middle" x="77.5" y="-21" font-family="Helvetica,sans-Serif" font-size="10.00" fill="#000000">AndDoAction</text>
</g>
<!-- Node85 -->
<g id="node2" class="node">
<title>Node85</title>
<g id="a_node2"><a xlink:href="classmcts_1_1_m_c_t_s.html#a9b161c003bc21fe3910d7800c09fff1d" target="_top" xlink:title="mcts::MCTS::doActionOnBoard">
<polygon fill="none" stroke="#000000" points="191,-38.5 191,-57.5 355,-57.5 355,-38.5 191,-38.5"/>
<text text-anchor="middle" x="273" y="-45.5" font-family="Helvetica,sans-Serif" font-size="10.00" fill="#000000">mcts::MCTS::doActionOnBoard</text>
</a>
</g>
</g>
<!-- Node84&#45;&gt;Node85 -->
<g id="edge1" class="edge">
<title>Node84&#45;&gt;Node85</title>
<path fill="none" stroke="#191970" d="M155.0476,-36.5366C163.4761,-37.3557 172.1142,-38.1952 180.6962,-39.0293"/>
<polygon fill="#191970" stroke="#191970" points="180.4372,-42.5205 190.7289,-40.0043 181.1144,-35.5534 180.4372,-42.5205"/>
</g>
<!-- Node86 -->
<g id="node3" class="node">
<title>Node86</title>
<g id="a_node3"><a xlink:href="classmcts_1_1_m_c_t_s.html#ac75ac1b12fbb40dca468f1c31a9fc8cd" target="_top" xlink:title="mcts::MCTS::formula">
<polygon fill="none" stroke="#000000" points="214,-.5 214,-19.5 332,-19.5 332,-.5 214,-.5"/>
<text text-anchor="middle" x="273" y="-7.5" font-family="Helvetica,sans-Serif" font-size="10.00" fill="#000000">mcts::MCTS::formula</text>
</a>
</g>
</g>
<!-- Node84&#45;&gt;Node86 -->
<g id="edge2" class="edge">
<title>Node84&#45;&gt;Node86</title>
<path fill="none" stroke="#191970" d="M155.0476,-21.4634C171.1384,-19.8996 187.993,-18.2615 203.7626,-16.729"/>
<polygon fill="#191970" stroke="#191970" points="204.3354,-20.1899 213.9499,-15.7389 203.6582,-13.2227 204.3354,-20.1899"/>
</g>
</g>
</svg>
