<?xml version="1.0" encoding="UTF-8" standalone="no"?>
<!DOCTYPE svg PUBLIC "-//W3C//DTD SVG 1.1//EN"
 "http://www.w3.org/Graphics/SVG/1.1/DTD/svg11.dtd">
<!-- Generated by graphviz version 2.40.1 (20161225.0304)
 -->
<!-- Title: game::tic_tac_toe::BoardCell::getPosition Pages: 1 -->
<svg width="440pt" height="88pt"
 viewBox="0.00 0.00 440.00 88.00" xmlns="http://www.w3.org/2000/svg" xmlns:xlink="http://www.w3.org/1999/xlink">
<g id="graph0" class="graph" transform="scale(1 1) rotate(0) translate(4 84)">
<title>game::tic_tac_toe::BoardCell::getPosition</title>
<!-- Node6 -->
<g id="node1" class="node">
<title>Node6</title>
<polygon fill="#bfbfbf" stroke="#000000" points="0,-24.5 0,-54.5 125,-54.5 125,-24.5 0,-24.5"/>
<text text-anchor="start" x="8" y="-42.5" font-family="Helvetica,sans-Serif" font-size="10.00" fill="#000000">game::tic_tac_toe::</text>
<text text-anchor="middle" x="62.5" y="-31.5" font-family="Helvetica,sans-Serif" font-size="10.00" fill="#000000">BoardCell::getPosition</text>
</g>
<!-- Node7 -->
<g id="node2" class="node">
<title>Node7</title>
<g id="a_node2"><a xlink:href="classgame_1_1tic__tac__toe_1_1_board.html#a08d914b0a618b2e35dcd5016ceba1b23" target="_top" xlink:title="Performs a particular move. ">
<polygon fill="none" stroke="#000000" points="161,-49.5 161,-79.5 277,-79.5 277,-49.5 161,-49.5"/>
<text text-anchor="start" x="169" y="-67.5" font-family="Helvetica,sans-Serif" font-size="10.00" fill="#000000">game::tic_tac_toe::</text>
<text text-anchor="middle" x="219" y="-56.5" font-family="Helvetica,sans-Serif" font-size="10.00" fill="#000000">Board::performMove</text>
</a>
</g>
</g>
<!-- Node6&#45;&gt;Node7 -->
<g id="edge1" class="edge">
<title>Node6&#45;&gt;Node7</title>
<path fill="none" stroke="#191970" d="M135.2446,-51.1205C143.8118,-52.4891 152.4675,-53.8718 160.7982,-55.2026"/>
<polygon fill="#191970" stroke="#191970" points="135.6797,-47.6458 125.2528,-49.5244 134.5755,-54.5581 135.6797,-47.6458"/>
</g>
<!-- Node8 -->
<g id="node3" class="node">
<title>Node8</title>
<g id="a_node3"><a xlink:href="classgame_1_1tic__tac__toe_1_1_board.html#a9d7a2c225f06a3410b11b688d9d6bcf8" target="_top" xlink:title="game::tic_tac_toe::\lBoard::clone">
<polygon fill="none" stroke="#000000" points="164,-.5 164,-30.5 274,-30.5 274,-.5 164,-.5"/>
<text text-anchor="start" x="172" y="-18.5" font-family="Helvetica,sans-Serif" font-size="10.00" fill="#000000">game::tic_tac_toe::</text>
<text text-anchor="middle" x="219" y="-7.5" font-family="Helvetica,sans-Serif" font-size="10.00" fill="#000000">Board::clone</text>
</a>
</g>
</g>
<!-- Node6&#45;&gt;Node8 -->
<g id="edge2" class="edge">
<title>Node6&#45;&gt;Node8</title>
<path fill="none" stroke="#191970" d="M135.2082,-28.3499C144.8238,-26.8753 154.5515,-25.3835 163.8068,-23.9641"/>
<polygon fill="#191970" stroke="#191970" points="134.6067,-24.9011 125.2528,-29.8766 135.6678,-31.8202 134.6067,-24.9011"/>
</g>
<!-- Node9 -->
<g id="node4" class="node">
<title>Node9</title>
<g id="a_node4"><a xlink:href="classgame_1_1tic__tac__toe_1_1_board.html#a7907b8fc363b7e33d585edbc7ec102ae" target="_top" xlink:title="Gets the player corresponding to a certain id. ">
<polygon fill="none" stroke="#000000" points="313,-.5 313,-30.5 432,-30.5 432,-.5 313,-.5"/>
<text text-anchor="start" x="321" y="-18.5" font-family="Helvetica,sans-Serif" font-size="10.00" fill="#000000">game::tic_tac_toe::</text>
<text text-anchor="middle" x="372.5" y="-7.5" font-family="Helvetica,sans-Serif" font-size="10.00" fill="#000000">Board::getPlayerById</text>
</a>
</g>
</g>
<!-- Node8&#45;&gt;Node9 -->
<g id="edge3" class="edge">
<title>Node8&#45;&gt;Node9</title>
<path fill="none" stroke="#191970" d="M284.4846,-15.5C293.8708,-15.5 303.4869,-15.5 312.7546,-15.5"/>
<polygon fill="#191970" stroke="#191970" points="284.4171,-12.0001 274.417,-15.5 284.417,-19.0001 284.4171,-12.0001"/>
</g>
</g>
</svg>
