<?xml version="1.0" encoding="UTF-8" standalone="no"?>
<!DOCTYPE svg PUBLIC "-//W3C//DTD SVG 1.1//EN"
 "http://www.w3.org/Graphics/SVG/1.1/DTD/svg11.dtd">
<!-- Generated by graphviz version 2.40.1 (20161225.0304)
 -->
<!-- Title: mcts::Tree::merge Pages: 1 -->
<svg width="773pt" height="88pt"
 viewBox="0.00 0.00 773.00 88.00" xmlns="http://www.w3.org/2000/svg" xmlns:xlink="http://www.w3.org/1999/xlink">
<g id="graph0" class="graph" transform="scale(1 1) rotate(0) translate(4 84)">
<title>mcts::Tree::merge</title>
<!-- Node20 -->
<g id="node1" class="node">
<title>Node20</title>
<polygon fill="#bfbfbf" stroke="#000000" points="0,-30 0,-49 104,-49 104,-30 0,-30"/>
<text text-anchor="middle" x="52" y="-37" font-family="Helvetica,sans-Serif" font-size="10.00" fill="#000000">mcts::Tree::merge</text>
</g>
<!-- Node21 -->
<g id="node2" class="node">
<title>Node21</title>
<g id="a_node2"><a xlink:href="classmcts_1_1_m_c_t_s_player.html#a9e8202cd2530b6ecc20f873d899823da" target="_top" xlink:title="Join the multiple trees into 1 so that we can get the best move. ">
<polygon fill="none" stroke="#000000" points="140,-30 140,-49 294,-49 294,-30 140,-30"/>
<text text-anchor="middle" x="217" y="-37" font-family="Helvetica,sans-Serif" font-size="10.00" fill="#000000">mcts::MCTSPlayer::joinTrees</text>
</a>
</g>
</g>
<!-- Node20&#45;&gt;Node21 -->
<g id="edge1" class="edge">
<title>Node20&#45;&gt;Node21</title>
<path fill="none" stroke="#191970" d="M114.2288,-39.5C122.5856,-39.5 131.2383,-39.5 139.8141,-39.5"/>
<polygon fill="#191970" stroke="#191970" points="114.2071,-36.0001 104.207,-39.5 114.207,-43.0001 114.2071,-36.0001"/>
</g>
<!-- Node22 -->
<g id="node3" class="node">
<title>Node22</title>
<g id="a_node3"><a xlink:href="classmcts_1_1_m_c_t_s_player.html#a48340fed9c5730f0d64ca177682f575e" target="_top" xlink:title="Returns the best move after running the ai. ">
<polygon fill="none" stroke="#000000" points="330,-30 330,-49 488,-49 488,-30 330,-30"/>
<text text-anchor="middle" x="409" y="-37" font-family="Helvetica,sans-Serif" font-size="10.00" fill="#000000">mcts::MCTSPlayer::bestMove</text>
</a>
</g>
</g>
<!-- Node21&#45;&gt;Node22 -->
<g id="edge2" class="edge">
<title>Node21&#45;&gt;Node22</title>
<path fill="none" stroke="#191970" d="M304.4633,-39.5C312.8752,-39.5 321.3753,-39.5 329.7024,-39.5"/>
<polygon fill="#191970" stroke="#191970" points="304.2638,-36.0001 294.2638,-39.5 304.2638,-43.0001 304.2638,-36.0001"/>
</g>
<!-- Node23 -->
<g id="node4" class="node">
<title>Node23</title>
<g id="a_node4"><a xlink:href="classgame_1_1penguin_1_1_console_game.html#a56af132d8e3d16902fb46b7979d37eae" target="_top" xlink:title="Loop while the game is not finished, told by the isFinished method. ">
<polygon fill="none" stroke="#000000" points="524,-49.5 524,-79.5 688,-79.5 688,-49.5 524,-49.5"/>
<text text-anchor="start" x="532" y="-67.5" font-family="Helvetica,sans-Serif" font-size="10.00" fill="#000000">game::penguin::ConsoleGame</text>
<text text-anchor="middle" x="606" y="-56.5" font-family="Helvetica,sans-Serif" font-size="10.00" fill="#000000">::loop</text>
</a>
</g>
</g>
<!-- Node22&#45;&gt;Node23 -->
<g id="edge3" class="edge">
<title>Node22&#45;&gt;Node23</title>
<path fill="none" stroke="#191970" d="M494.2305,-50.3161C504.089,-51.5671 514.1281,-52.8411 523.9431,-54.0867"/>
<polygon fill="#191970" stroke="#191970" points="494.4003,-46.8096 484.0392,-49.0227 493.519,-53.7539 494.4003,-46.8096"/>
</g>
<!-- Node25 -->
<g id="node6" class="node">
<title>Node25</title>
<g id="a_node6"><a xlink:href="classgame_1_1tic__tac__toe_1_1_console_game.html#a06b07e4c713a60999258b0b573b02a33" target="_top" xlink:title="Loop while the game is not finished, told by the isFinished method. ">
<polygon fill="none" stroke="#000000" points="550,-.5 550,-30.5 662,-30.5 662,-.5 550,-.5"/>
<text text-anchor="start" x="558" y="-18.5" font-family="Helvetica,sans-Serif" font-size="10.00" fill="#000000">game::tic_tac_toe::</text>
<text text-anchor="middle" x="606" y="-7.5" font-family="Helvetica,sans-Serif" font-size="10.00" fill="#000000">ConsoleGame::loop</text>
</a>
</g>
</g>
<!-- Node22&#45;&gt;Node25 -->
<g id="edge5" class="edge">
<title>Node22&#45;&gt;Node25</title>
<path fill="none" stroke="#191970" d="M497.5387,-28.7136C515.3117,-26.5483 533.5216,-24.3299 549.8222,-22.344"/>
<polygon fill="#191970" stroke="#191970" points="496.6459,-25.2964 487.1426,-29.9801 497.4925,-32.245 496.6459,-25.2964"/>
</g>
<!-- Node24 -->
<g id="node5" class="node">
<title>Node24</title>
<g id="a_node5"><a xlink:href="main_8cpp.html#a1dfeea39dabf076270426c94def1a2a2" target="_top" xlink:title="main">
<polygon fill="none" stroke="#000000" points="724,-55 724,-74 765,-74 765,-55 724,-55"/>
<text text-anchor="middle" x="744.5" y="-62" font-family="Helvetica,sans-Serif" font-size="10.00" fill="#000000">main</text>
</a>
</g>
</g>
<!-- Node23&#45;&gt;Node24 -->
<g id="edge4" class="edge">
<title>Node23&#45;&gt;Node24</title>
<path fill="none" stroke="#191970" d="M698.2725,-64.5C707.7768,-64.5 716.6282,-64.5 723.9893,-64.5"/>
<polygon fill="#191970" stroke="#191970" points="698.1668,-61.0001 688.1667,-64.5 698.1667,-68.0001 698.1668,-61.0001"/>
</g>
</g>
</svg>
