<?xml version="1.0" encoding="UTF-8" standalone="no"?>
<!DOCTYPE svg PUBLIC "-//W3C//DTD SVG 1.1//EN"
 "http://www.w3.org/Graphics/SVG/1.1/DTD/svg11.dtd">
<!-- Generated by graphviz version 2.40.1 (20161225.0304)
 -->
<!-- Title: game::penguin::PenguinGame::getAvailableMoves Pages: 1 -->
<!--zoomable 186 -->
<svg id="main" version="1.1" xmlns="http://www.w3.org/2000/svg" xmlns:xlink="http://www.w3.org/1999/xlink" xml:space="preserve" onload="init(evt)">
<style type="text/css"><![CDATA[
.edge:hover path { stroke: red; }
.edge:hover polygon { stroke: red; fill: red; }
]]></style>
<script type="text/javascript"><![CDATA[
var edges = document.getElementsByTagName('g');
if (edges && edges.length) {
  for (var i=0;i<edges.length;i++) {
    if (edges[i].id.substr(0,4)=='edge') {
      edges[i].setAttribute('class','edge');
    }
  }
}
]]></script>
        <defs>
                <circle id="rim" cx="0" cy="0" r="7"/>
                <circle id="rim2" cx="0" cy="0" r="3.5"/>
                <g id="zoomPlus">
                        <use xlink:href="#rim" fill="#404040">
                                <set attributeName="fill" to="#808080" begin="zoomplus.mouseover" end="zoomplus.mouseout"/>
                        </use>
                        <path d="M-4,0h8M0,-4v8" fill="none" stroke="white" stroke-width="1.5" pointer-events="none"/>
                </g>
                <g id="zoomMin">
                        <use xlink:href="#rim" fill="#404040">
                                <set attributeName="fill" to="#808080" begin="zoomminus.mouseover" end="zoomminus.mouseout"/>
                        </use>
                        <path d="M-4,0h8" fill="none" stroke="white" stroke-width="1.5" pointer-events="none"/>
                </g>
                <g id="dirArrow">
                        <path fill="none" stroke="white" stroke-width="1.5" d="M0,-3.0v7 M-2.5,-0.5L0,-3.0L2.5,-0.5"/>
                </g>
               <g id="resetDef">
                       <use xlink:href="#rim2" fill="#404040">
                               <set attributeName="fill" to="#808080" begin="reset.mouseover" end="reset.mouseout"/>
                       </use>
               </g>
        </defs>

<script type="text/javascript">
var viewWidth = 548;
var viewHeight = 186;
var sectionId = 'dynsection-5';
</script>
<script xlink:href="svgpan.js"/>
<svg id="graph" class="graph">
<g id="viewport">
<title>game::penguin::PenguinGame::getAvailableMoves</title>
<!-- Node12 -->
<g id="node1" class="node">
<title>Node12</title>
<polygon fill="#bfbfbf" stroke="#000000" points="0,-97.5 0,-127.5 164,-127.5 164,-97.5 0,-97.5"/>
<text text-anchor="start" x="8" y="-115.5" font-family="Helvetica,sans-Serif" font-size="10.00" fill="#000000">game::penguin::PenguinGame</text>
<text text-anchor="middle" x="82" y="-104.5" font-family="Helvetica,sans-Serif" font-size="10.00" fill="#000000">::getAvailableMoves</text>
</g>
<!-- Node13 -->
<g id="node2" class="node">
<title>Node13</title>
<g id="a_node2"><a xlink:href="classgame_1_1penguin_1_1_human_player.html#a28c5485b12e0c8fcd340458255c06587" target="_top" xlink:title="Get the penguins possessed by the player. ">
<polygon fill="none" stroke="#000000" points="200,-122.5 200,-152.5 361,-152.5 361,-122.5 200,-122.5"/>
<text text-anchor="start" x="208" y="-140.5" font-family="Helvetica,sans-Serif" font-size="10.00" fill="#000000">game::penguin::HumanPlayer</text>
<text text-anchor="middle" x="280.5" y="-129.5" font-family="Helvetica,sans-Serif" font-size="10.00" fill="#000000">::getPenguins</text>
</a>
</g>
</g>
<!-- Node12&#45;&gt;Node13 -->
<g id="edge1" class="edge">
<title>Node12&#45;&gt;Node13</title>
<path fill="none" stroke="#191970" d="M164.1704,-122.8489C172.6797,-123.9206 181.3616,-125.0141 189.9559,-126.0965"/>
<polygon fill="#191970" stroke="#191970" points="189.6298,-129.583 199.9888,-127.3601 190.5046,-122.6378 189.6298,-129.583"/>
</g>
<!-- Node14 -->
<g id="node3" class="node">
<title>Node14</title>
<g id="a_node3"><a xlink:href="classgame_1_1penguin_1_1_board.html#a26bc6f1c2da1197d9b68f9b4c4e3126b" target="_top" xlink:title="Get a list of available cells, ie player can move onto. ">
<polygon fill="none" stroke="#000000" points="218.5,-73.5 218.5,-103.5 342.5,-103.5 342.5,-73.5 218.5,-73.5"/>
<text text-anchor="start" x="226.5" y="-91.5" font-family="Helvetica,sans-Serif" font-size="10.00" fill="#000000">game::penguin::Board</text>
<text text-anchor="middle" x="280.5" y="-80.5" font-family="Helvetica,sans-Serif" font-size="10.00" fill="#000000">::getAvailableCells</text>
</a>
</g>
</g>
<!-- Node12&#45;&gt;Node14 -->
<g id="edge2" class="edge">
<title>Node12&#45;&gt;Node14</title>
<path fill="none" stroke="#191970" d="M164.1704,-102.565C178.7608,-100.801 193.8589,-98.9755 208.1519,-97.2474"/>
<polygon fill="#191970" stroke="#191970" points="208.8908,-100.6836 218.3984,-96.0085 208.0505,-93.7342 208.8908,-100.6836"/>
</g>
<!-- Node15 -->
<g id="node4" class="node">
<title>Node15</title>
<g id="a_node4"><a xlink:href="classgame_1_1_abstract_pawn.html#ae9ad3bf0ee738571d0dd5992feae6bb7" target="_top" xlink:title="game::AbstractPawn\l::getCurrentCell">
<polygon fill="none" stroke="#000000" points="410.5,-147.5 410.5,-177.5 526.5,-177.5 526.5,-147.5 410.5,-147.5"/>
<text text-anchor="start" x="418.5" y="-165.5" font-family="Helvetica,sans-Serif" font-size="10.00" fill="#000000">game::AbstractPawn</text>
<text text-anchor="middle" x="468.5" y="-154.5" font-family="Helvetica,sans-Serif" font-size="10.00" fill="#000000">::getCurrentCell</text>
</a>
</g>
</g>
<!-- Node14&#45;&gt;Node15 -->
<g id="edge3" class="edge">
<title>Node14&#45;&gt;Node15</title>
<path fill="none" stroke="#191970" d="M336.7871,-103.5506C345.0686,-106.458 353.3722,-109.7772 361,-113.5 378.5059,-122.044 379.5923,-129.7576 397,-138.5 400.5835,-140.2997 404.3328,-142.0122 408.157,-143.6327"/>
<polygon fill="#191970" stroke="#191970" points="407.1805,-147.0114 417.7655,-147.4685 409.7759,-140.5103 407.1805,-147.0114"/>
</g>
<!-- Node16 -->
<g id="node5" class="node">
<title>Node16</title>
<g id="a_node5"><a xlink:href="classgame_1_1penguin_1_1_board_cell.html#a802b2f75d1e3136146625266f6a2c03a" target="_top" xlink:title="Get the Position object. ">
<polygon fill="none" stroke="#000000" points="397,-98.5 397,-128.5 540,-128.5 540,-98.5 397,-98.5"/>
<text text-anchor="start" x="405" y="-116.5" font-family="Helvetica,sans-Serif" font-size="10.00" fill="#000000">game::penguin::BoardCell</text>
<text text-anchor="middle" x="468.5" y="-105.5" font-family="Helvetica,sans-Serif" font-size="10.00" fill="#000000">::getPosition</text>
</a>
</g>
</g>
<!-- Node14&#45;&gt;Node16 -->
<g id="edge4" class="edge">
<title>Node14&#45;&gt;Node16</title>
<path fill="none" stroke="#191970" d="M342.5793,-96.7552C356.657,-98.6273 371.8187,-100.6434 386.5765,-102.6059"/>
<polygon fill="#191970" stroke="#191970" points="386.3366,-106.1047 396.7107,-103.9536 387.2594,-99.1658 386.3366,-106.1047"/>
</g>
<!-- Node17 -->
<g id="node6" class="node">
<title>Node17</title>
<g id="a_node6"><a xlink:href="classgame_1_1penguin_1_1_board_cell.html#a6a978b7e72ef20475771eb6e453e0a39" target="_top" xlink:title="tells if the cell is gone or not ">
<polygon fill="none" stroke="#000000" points="397,-49.5 397,-79.5 540,-79.5 540,-49.5 397,-49.5"/>
<text text-anchor="start" x="405" y="-67.5" font-family="Helvetica,sans-Serif" font-size="10.00" fill="#000000">game::penguin::BoardCell</text>
<text text-anchor="middle" x="468.5" y="-56.5" font-family="Helvetica,sans-Serif" font-size="10.00" fill="#000000">::isGone</text>
</a>
</g>
</g>
<!-- Node14&#45;&gt;Node17 -->
<g id="edge5" class="edge">
<title>Node14&#45;&gt;Node17</title>
<path fill="none" stroke="#191970" d="M342.5793,-80.575C356.657,-78.7778 371.8187,-76.8423 386.5765,-74.9583"/>
<polygon fill="#191970" stroke="#191970" points="387.2345,-78.4028 396.7107,-73.6646 386.348,-71.4592 387.2345,-78.4028"/>
</g>
<!-- Node18 -->
<g id="node7" class="node">
<title>Node18</title>
<g id="a_node7"><a xlink:href="classgame_1_1penguin_1_1_board_cell.html#a12cd55e333821bcecaa201dde758c1a1" target="_top" xlink:title="Is a penguin on the cell. ">
<polygon fill="none" stroke="#000000" points="397,-.5 397,-30.5 540,-30.5 540,-.5 397,-.5"/>
<text text-anchor="start" x="405" y="-18.5" font-family="Helvetica,sans-Serif" font-size="10.00" fill="#000000">game::penguin::BoardCell</text>
<text text-anchor="middle" x="468.5" y="-7.5" font-family="Helvetica,sans-Serif" font-size="10.00" fill="#000000">::isOwned</text>
</a>
</g>
</g>
<!-- Node14&#45;&gt;Node18 -->
<g id="edge6" class="edge">
<title>Node14&#45;&gt;Node18</title>
<path fill="none" stroke="#191970" d="M315.7343,-73.3974C338.7397,-63.6819 369.5014,-50.9635 397,-40.5 402.5902,-38.3729 408.4511,-36.2124 414.3099,-34.0976"/>
<polygon fill="#191970" stroke="#191970" points="415.8787,-37.254 424.1199,-30.5956 413.5253,-30.6614 415.8787,-37.254"/>
</g>
</g>
</svg>
        <g id="navigator" transform="translate(0 0)" fill="#404254">
                <rect fill="#f2f5e9" fill-opacity="0.5" stroke="#606060" stroke-width=".5" x="0" y="0" width="60" height="60"/>
                <use id="zoomplus" xlink:href="#zoomPlus" x="17" y="9" onmousedown="handleZoom(evt,'in')"/>
                <use id="zoomminus" xlink:href="#zoomMin" x="42" y="9" onmousedown="handleZoom(evt,'out')"/>
                <use id="reset" xlink:href="#resetDef" x="30" y="36" onmousedown="handleReset()"/>
                <g id="arrowUp" xlink:href="#dirArrow" transform="translate(30 24)" onmousedown="handlePan(0,-1)">
                  <use xlink:href="#rim" fill="#404040">
                        <set attributeName="fill" to="#808080" begin="arrowUp.mouseover" end="arrowUp.mouseout"/>
                  </use>
                  <path fill="none" stroke="white" stroke-width="1.5" d="M0,-3.0v7 M-2.5,-0.5L0,-3.0L2.5,-0.5"/>
                </g>
                <g id="arrowRight" xlink:href="#dirArrow" transform="rotate(90) translate(36 -43)" onmousedown="handlePan(1,0)">
                  <use xlink:href="#rim" fill="#404040">
                        <set attributeName="fill" to="#808080" begin="arrowRight.mouseover" end="arrowRight.mouseout"/>
                  </use>
                  <path fill="none" stroke="white" stroke-width="1.5" d="M0,-3.0v7 M-2.5,-0.5L0,-3.0L2.5,-0.5"/>
                </g>
                <g id="arrowDown" xlink:href="#dirArrow" transform="rotate(180) translate(-30 -48)" onmousedown="handlePan(0,1)">
                  <use xlink:href="#rim" fill="#404040">
                        <set attributeName="fill" to="#808080" begin="arrowDown.mouseover" end="arrowDown.mouseout"/>
                  </use>
                  <path fill="none" stroke="white" stroke-width="1.5" d="M0,-3.0v7 M-2.5,-0.5L0,-3.0L2.5,-0.5"/>
                </g>
                <g id="arrowLeft" xlink:href="#dirArrow" transform="rotate(270) translate(-36 17)" onmousedown="handlePan(-1,0)">
                  <use xlink:href="#rim" fill="#404040">
                        <set attributeName="fill" to="#808080" begin="arrowLeft.mouseover" end="arrowLeft.mouseout"/>
                  </use>
                  <path fill="none" stroke="white" stroke-width="1.5" d="M0,-3.0v7 M-2.5,-0.5L0,-3.0L2.5,-0.5"/>
                </g>
        </g>
        <svg viewBox="0 0 15 15" width="100%" height="30px" preserveAspectRatio="xMaxYMin meet">
         <g id="arrow_out" transform="scale(0.3 0.3)">
          <a xlink:href="classgame_1_1penguin_1_1_penguin_game_ae92f96626c8d88f77279b6a76822fbe0_cgraph_org.svg" target="_base">
           <rect id="button" ry="5" rx="5" y="6" x="6" height="38" width="38"
                fill="#f2f5e9" fill-opacity="0.5" stroke="#606060" stroke-width="1.0"/>
           <path id="arrow"
             d="M 11.500037,31.436501 C 11.940474,20.09759 22.043105,11.32322 32.158766,21.979434 L 37.068811,17.246167 C 37.068811,17.246167 37.088388,32 37.088388,32 L 22.160133,31.978069 C 22.160133,31.978069 26.997745,27.140456 26.997745,27.140456 C 18.528582,18.264221 13.291696,25.230495 11.500037,31.436501 z"
             style="fill:#404040;"/>
          </a>
         </g>
        </svg>
</svg>
