<?xml version="1.0" encoding="UTF-8" standalone="no"?>
<!DOCTYPE svg PUBLIC "-//W3C//DTD SVG 1.1//EN"
 "http://www.w3.org/Graphics/SVG/1.1/DTD/svg11.dtd">
<!-- Generated by graphviz version 2.40.1 (20161225.0304)
 -->
<!-- Title: game::penguin::BoardCell::isGone Pages: 1 -->
<svg width="801pt" height="235pt"
 viewBox="0.00 0.00 801.00 235.00" xmlns="http://www.w3.org/2000/svg" xmlns:xlink="http://www.w3.org/1999/xlink">
<g id="graph0" class="graph" transform="scale(1 1) rotate(0) translate(4 231)">
<title>game::penguin::BoardCell::isGone</title>
<!-- Node85 -->
<g id="node1" class="node">
<title>Node85</title>
<polygon fill="#bfbfbf" stroke="#000000" points="0,-73.5 0,-103.5 143,-103.5 143,-73.5 0,-73.5"/>
<text text-anchor="start" x="8" y="-91.5" font-family="Helvetica,sans-Serif" font-size="10.00" fill="#000000">game::penguin::BoardCell</text>
<text text-anchor="middle" x="71.5" y="-80.5" font-family="Helvetica,sans-Serif" font-size="10.00" fill="#000000">::isGone</text>
</g>
<!-- Node86 -->
<g id="node2" class="node">
<title>Node86</title>
<g id="a_node2"><a xlink:href="classgame_1_1penguin_1_1_board.html#a2864b1af9dbdf19273185c504257435c" target="_top" xlink:title="Checks wether or not the move is allowed to be performed. ">
<polygon fill="none" stroke="#000000" points="185.5,-171.5 185.5,-201.5 309.5,-201.5 309.5,-171.5 185.5,-171.5"/>
<text text-anchor="start" x="193.5" y="-189.5" font-family="Helvetica,sans-Serif" font-size="10.00" fill="#000000">game::penguin::Board</text>
<text text-anchor="middle" x="247.5" y="-178.5" font-family="Helvetica,sans-Serif" font-size="10.00" fill="#000000">::checkForCorrectness</text>
</a>
</g>
</g>
<!-- Node85&#45;&gt;Node86 -->
<g id="edge1" class="edge">
<title>Node85&#45;&gt;Node86</title>
<path fill="none" stroke="#191970" d="M107.6112,-108.6074C141.0745,-127.2404 190.1107,-154.5446 220.3549,-171.3851"/>
<polygon fill="#191970" stroke="#191970" points="109.0539,-105.4047 98.6143,-103.5977 105.6485,-111.5206 109.0539,-105.4047"/>
</g>
<!-- Node89 -->
<g id="node5" class="node">
<title>Node89</title>
<g id="a_node5"><a xlink:href="classgame_1_1penguin_1_1_board.html#ae85ef3019829098c5ad5afb1c3ebceb5" target="_top" xlink:title="Is the player able to move. ">
<polygon fill="none" stroke="#000000" points="185.5,-98.5 185.5,-128.5 309.5,-128.5 309.5,-98.5 185.5,-98.5"/>
<text text-anchor="start" x="193.5" y="-116.5" font-family="Helvetica,sans-Serif" font-size="10.00" fill="#000000">game::penguin::Board</text>
<text text-anchor="middle" x="247.5" y="-105.5" font-family="Helvetica,sans-Serif" font-size="10.00" fill="#000000">::isAbleToMove</text>
</a>
</g>
</g>
<!-- Node85&#45;&gt;Node89 -->
<g id="edge4" class="edge">
<title>Node85&#45;&gt;Node89</title>
<path fill="none" stroke="#191970" d="M152.998,-100.0764C163.8526,-101.6183 174.8398,-103.1789 185.2942,-104.6639"/>
<polygon fill="#191970" stroke="#191970" points="153.4788,-96.6097 143.0859,-98.6685 152.4943,-103.5401 153.4788,-96.6097"/>
</g>
<!-- Node94 -->
<g id="node10" class="node">
<title>Node94</title>
<g id="a_node10"><a xlink:href="classgame_1_1penguin_1_1_board.html#a26bc6f1c2da1197d9b68f9b4c4e3126b" target="_top" xlink:title="Get a list of available cells, ie player can move onto. ">
<polygon fill="none" stroke="#000000" points="185.5,-49.5 185.5,-79.5 309.5,-79.5 309.5,-49.5 185.5,-49.5"/>
<text text-anchor="start" x="193.5" y="-67.5" font-family="Helvetica,sans-Serif" font-size="10.00" fill="#000000">game::penguin::Board</text>
<text text-anchor="middle" x="247.5" y="-56.5" font-family="Helvetica,sans-Serif" font-size="10.00" fill="#000000">::getAvailableCells</text>
</a>
</g>
</g>
<!-- Node85&#45;&gt;Node94 -->
<g id="edge9" class="edge">
<title>Node85&#45;&gt;Node94</title>
<path fill="none" stroke="#191970" d="M152.998,-77.3866C163.8526,-75.9065 174.8398,-74.4082 185.2942,-72.9826"/>
<polygon fill="#191970" stroke="#191970" points="152.5213,-73.9192 143.0859,-78.7383 153.4672,-80.855 152.5213,-73.9192"/>
</g>
<!-- Node96 -->
<g id="node12" class="node">
<title>Node96</title>
<g id="a_node12"><a xlink:href="classgame_1_1penguin_1_1_print_hex.html#a87a58be4fea97f043e6dbe01a3045c1d" target="_top" xlink:title="game::penguin::PrintHex\l::print">
<polygon fill="none" stroke="#000000" points="179,-.5 179,-30.5 316,-30.5 316,-.5 179,-.5"/>
<text text-anchor="start" x="187" y="-18.5" font-family="Helvetica,sans-Serif" font-size="10.00" fill="#000000">game::penguin::PrintHex</text>
<text text-anchor="middle" x="247.5" y="-7.5" font-family="Helvetica,sans-Serif" font-size="10.00" fill="#000000">::print</text>
</a>
</g>
</g>
<!-- Node85&#45;&gt;Node96 -->
<g id="edge11" class="edge">
<title>Node85&#45;&gt;Node96</title>
<path fill="none" stroke="#191970" d="M113.0627,-69.1266C132.8869,-60.0961 157.0227,-49.4043 179,-40.5 187.3306,-37.1248 196.3093,-33.6988 204.9358,-30.5098"/>
<polygon fill="#191970" stroke="#191970" points="111.3405,-66.0656 103.7055,-73.4111 114.2548,-72.4301 111.3405,-66.0656"/>
</g>
<!-- Node87 -->
<g id="node3" class="node">
<title>Node87</title>
<g id="a_node3"><a xlink:href="classgame_1_1penguin_1_1_board.html#af297dc572afb02dafc61e3b8e849338f" target="_top" xlink:title="Performs a particular move. ">
<polygon fill="none" stroke="#000000" points="372,-196.5 372,-226.5 496,-226.5 496,-196.5 372,-196.5"/>
<text text-anchor="start" x="380" y="-214.5" font-family="Helvetica,sans-Serif" font-size="10.00" fill="#000000">game::penguin::Board</text>
<text text-anchor="middle" x="434" y="-203.5" font-family="Helvetica,sans-Serif" font-size="10.00" fill="#000000">::performMove</text>
</a>
</g>
</g>
<!-- Node86&#45;&gt;Node87 -->
<g id="edge2" class="edge">
<title>Node86&#45;&gt;Node87</title>
<path fill="none" stroke="#191970" d="M319.6146,-196.1668C336.8525,-198.4775 355.1075,-200.9246 371.8516,-203.1691"/>
<polygon fill="#191970" stroke="#191970" points="319.9782,-192.6844 309.6018,-194.8246 319.0481,-199.6223 319.9782,-192.6844"/>
</g>
<!-- Node88 -->
<g id="node4" class="node">
<title>Node88</title>
<g id="a_node4"><a xlink:href="classgame_1_1penguin_1_1_console_game.html#ac6ac2ce8f015a83682f7022c268c5efb" target="_top" xlink:title="game::penguin::ConsoleGame\l::ConsoleGame">
<polygon fill="none" stroke="#000000" points="552,-196.5 552,-226.5 716,-226.5 716,-196.5 552,-196.5"/>
<text text-anchor="start" x="560" y="-214.5" font-family="Helvetica,sans-Serif" font-size="10.00" fill="#000000">game::penguin::ConsoleGame</text>
<text text-anchor="middle" x="634" y="-203.5" font-family="Helvetica,sans-Serif" font-size="10.00" fill="#000000">::ConsoleGame</text>
</a>
</g>
</g>
<!-- Node87&#45;&gt;Node88 -->
<g id="edge3" class="edge">
<title>Node87&#45;&gt;Node88</title>
<path fill="none" stroke="#191970" d="M506.2949,-211.5C521.1276,-211.5 536.8433,-211.5 551.9896,-211.5"/>
<polygon fill="#191970" stroke="#191970" points="506.185,-208.0001 496.1849,-211.5 506.1849,-215.0001 506.185,-208.0001"/>
</g>
<!-- Node90 -->
<g id="node6" class="node">
<title>Node90</title>
<g id="a_node6"><a xlink:href="classgame_1_1penguin_1_1_board.html#a3d659743bc33b43168c82dc4e2d3b00e" target="_top" xlink:title="Chek wether or not the game is finished. ">
<polygon fill="none" stroke="#000000" points="372,-147.5 372,-177.5 496,-177.5 496,-147.5 372,-147.5"/>
<text text-anchor="start" x="380" y="-165.5" font-family="Helvetica,sans-Serif" font-size="10.00" fill="#000000">game::penguin::Board</text>
<text text-anchor="middle" x="434" y="-154.5" font-family="Helvetica,sans-Serif" font-size="10.00" fill="#000000">::checkStatus</text>
</a>
</g>
</g>
<!-- Node89&#45;&gt;Node90 -->
<g id="edge5" class="edge">
<title>Node89&#45;&gt;Node90</title>
<path fill="none" stroke="#191970" d="M314.5748,-131.1229C334.9788,-136.4837 357.2021,-142.3225 376.8846,-147.4938"/>
<polygon fill="#191970" stroke="#191970" points="315.2848,-127.6907 304.7236,-128.5346 313.5059,-134.4609 315.2848,-127.6907"/>
</g>
<!-- Node91 -->
<g id="node7" class="node">
<title>Node91</title>
<g id="a_node7"><a xlink:href="classgame_1_1penguin_1_1_penguin_game.html#aac449b76f27098b1d2218cc51e7f70b4" target="_top" xlink:title="Get the Human player to play, not the penguin one. ">
<polygon fill="none" stroke="#000000" points="352,-98.5 352,-128.5 516,-128.5 516,-98.5 352,-98.5"/>
<text text-anchor="start" x="360" y="-116.5" font-family="Helvetica,sans-Serif" font-size="10.00" fill="#000000">game::penguin::PenguinGame</text>
<text text-anchor="middle" x="434" y="-105.5" font-family="Helvetica,sans-Serif" font-size="10.00" fill="#000000">::getPlayerToPlay</text>
</a>
</g>
</g>
<!-- Node89&#45;&gt;Node91 -->
<g id="edge6" class="edge">
<title>Node89&#45;&gt;Node91</title>
<path fill="none" stroke="#191970" d="M319.612,-113.5C330.1953,-113.5 341.1619,-113.5 351.927,-113.5"/>
<polygon fill="#191970" stroke="#191970" points="319.6018,-110.0001 309.6018,-113.5 319.6018,-117.0001 319.6018,-110.0001"/>
</g>
<!-- Node92 -->
<g id="node8" class="node">
<title>Node92</title>
<g id="a_node8"><a xlink:href="classgame_1_1penguin_1_1_console_game.html#a56af132d8e3d16902fb46b7979d37eae" target="_top" xlink:title="Loop while the game is not finished, told by the isFinished method. ">
<polygon fill="none" stroke="#000000" points="552,-49.5 552,-79.5 716,-79.5 716,-49.5 552,-49.5"/>
<text text-anchor="start" x="560" y="-67.5" font-family="Helvetica,sans-Serif" font-size="10.00" fill="#000000">game::penguin::ConsoleGame</text>
<text text-anchor="middle" x="634" y="-56.5" font-family="Helvetica,sans-Serif" font-size="10.00" fill="#000000">::loop</text>
</a>
</g>
</g>
<!-- Node91&#45;&gt;Node92 -->
<g id="edge7" class="edge">
<title>Node91&#45;&gt;Node92</title>
<path fill="none" stroke="#191970" d="M505.3338,-96.0232C527.3775,-90.6225 551.4511,-84.7245 572.7503,-79.5062"/>
<polygon fill="#191970" stroke="#191970" points="504.2456,-92.6862 495.3658,-98.4654 505.9114,-99.4851 504.2456,-92.6862"/>
</g>
<!-- Node93 -->
<g id="node9" class="node">
<title>Node93</title>
<g id="a_node9"><a xlink:href="main_8cpp.html#a1dfeea39dabf076270426c94def1a2a2" target="_top" xlink:title="main">
<polygon fill="none" stroke="#000000" points="752,-55 752,-74 793,-74 793,-55 752,-55"/>
<text text-anchor="middle" x="772.5" y="-62" font-family="Helvetica,sans-Serif" font-size="10.00" fill="#000000">main</text>
</a>
</g>
</g>
<!-- Node92&#45;&gt;Node93 -->
<g id="edge8" class="edge">
<title>Node92&#45;&gt;Node93</title>
<path fill="none" stroke="#191970" d="M726.2725,-64.5C735.7768,-64.5 744.6282,-64.5 751.9893,-64.5"/>
<polygon fill="#191970" stroke="#191970" points="726.1668,-61.0001 716.1667,-64.5 726.1667,-68.0001 726.1668,-61.0001"/>
</g>
<!-- Node95 -->
<g id="node11" class="node">
<title>Node95</title>
<g id="a_node11"><a xlink:href="classgame_1_1penguin_1_1_penguin_game.html#ae92f96626c8d88f77279b6a76822fbe0" target="_top" xlink:title="game::penguin::PenguinGame\l::getAvailableMoves">
<polygon fill="none" stroke="#000000" points="352,-49.5 352,-79.5 516,-79.5 516,-49.5 352,-49.5"/>
<text text-anchor="start" x="360" y="-67.5" font-family="Helvetica,sans-Serif" font-size="10.00" fill="#000000">game::penguin::PenguinGame</text>
<text text-anchor="middle" x="434" y="-56.5" font-family="Helvetica,sans-Serif" font-size="10.00" fill="#000000">::getAvailableMoves</text>
</a>
</g>
</g>
<!-- Node94&#45;&gt;Node95 -->
<g id="edge10" class="edge">
<title>Node94&#45;&gt;Node95</title>
<path fill="none" stroke="#191970" d="M319.612,-64.5C330.1953,-64.5 341.1619,-64.5 351.927,-64.5"/>
<polygon fill="#191970" stroke="#191970" points="319.6018,-61.0001 309.6018,-64.5 319.6018,-68.0001 319.6018,-61.0001"/>
</g>
<!-- Node97 -->
<g id="node13" class="node">
<title>Node97</title>
<g id="a_node13"><a xlink:href="classgame_1_1penguin_1_1_console_game.html#a71c697742201f71b29327bf8554c2ef0" target="_top" xlink:title="game::penguin::ConsoleGame\l::draw">
<polygon fill="none" stroke="#000000" points="352,-.5 352,-30.5 516,-30.5 516,-.5 352,-.5"/>
<text text-anchor="start" x="360" y="-18.5" font-family="Helvetica,sans-Serif" font-size="10.00" fill="#000000">game::penguin::ConsoleGame</text>
<text text-anchor="middle" x="434" y="-7.5" font-family="Helvetica,sans-Serif" font-size="10.00" fill="#000000">::draw</text>
</a>
</g>
</g>
<!-- Node96&#45;&gt;Node97 -->
<g id="edge12" class="edge">
<title>Node96&#45;&gt;Node97</title>
<path fill="none" stroke="#191970" d="M326.3574,-15.5C334.8061,-15.5 343.4163,-15.5 351.9015,-15.5"/>
<polygon fill="#191970" stroke="#191970" points="326.1512,-12.0001 316.1512,-15.5 326.1511,-19.0001 326.1512,-12.0001"/>
</g>
<!-- Node97&#45;&gt;Node92 -->
<g id="edge13" class="edge">
<title>Node97&#45;&gt;Node92</title>
<path fill="none" stroke="#191970" d="M505.3338,-32.9768C527.3775,-38.3775 551.4511,-44.2755 572.7503,-49.4938"/>
<polygon fill="#191970" stroke="#191970" points="505.9114,-29.5149 495.3658,-30.5346 504.2456,-36.3138 505.9114,-29.5149"/>
</g>
</g>
</svg>
