<?xml version="1.0" encoding="UTF-8" standalone="no"?>
<!DOCTYPE svg PUBLIC "-//W3C//DTD SVG 1.1//EN"
 "http://www.w3.org/Graphics/SVG/1.1/DTD/svg11.dtd">
<!-- Generated by graphviz version 2.40.1 (20161225.0304)
 -->
<!-- Title: game::tic_tac_toe::Board::Board Pages: 1 -->
<svg width="419pt" height="39pt"
 viewBox="0.00 0.00 419.00 39.00" xmlns="http://www.w3.org/2000/svg" xmlns:xlink="http://www.w3.org/1999/xlink">
<g id="graph0" class="graph" transform="scale(1 1) rotate(0) translate(4 35)">
<title>game::tic_tac_toe::Board::Board</title>
<!-- Node1 -->
<g id="node1" class="node">
<title>Node1</title>
<polygon fill="#bfbfbf" stroke="#000000" points="0,-.5 0,-30.5 110,-30.5 110,-.5 0,-.5"/>
<text text-anchor="start" x="8" y="-18.5" font-family="Helvetica,sans-Serif" font-size="10.00" fill="#000000">game::tic_tac_toe::</text>
<text text-anchor="middle" x="55" y="-7.5" font-family="Helvetica,sans-Serif" font-size="10.00" fill="#000000">Board::Board</text>
</g>
<!-- Node2 -->
<g id="node2" class="node">
<title>Node2</title>
<g id="a_node2"><a xlink:href="classgame_1_1tic__tac__toe_1_1_board.html#a9d7a2c225f06a3410b11b688d9d6bcf8" target="_top" xlink:title="game::tic_tac_toe::\lBoard::clone">
<polygon fill="none" stroke="#000000" points="146,-.5 146,-30.5 256,-30.5 256,-.5 146,-.5"/>
<text text-anchor="start" x="154" y="-18.5" font-family="Helvetica,sans-Serif" font-size="10.00" fill="#000000">game::tic_tac_toe::</text>
<text text-anchor="middle" x="201" y="-7.5" font-family="Helvetica,sans-Serif" font-size="10.00" fill="#000000">Board::clone</text>
</a>
</g>
</g>
<!-- Node1&#45;&gt;Node2 -->
<g id="edge1" class="edge">
<title>Node1&#45;&gt;Node2</title>
<path fill="none" stroke="#191970" d="M120.4101,-15.5C128.8647,-15.5 137.4567,-15.5 145.7256,-15.5"/>
<polygon fill="#191970" stroke="#191970" points="120.1964,-12.0001 110.1963,-15.5 120.1963,-19.0001 120.1964,-12.0001"/>
</g>
<!-- Node3 -->
<g id="node3" class="node">
<title>Node3</title>
<g id="a_node3"><a xlink:href="classgame_1_1tic__tac__toe_1_1_board.html#a7907b8fc363b7e33d585edbc7ec102ae" target="_top" xlink:title="Gets the player corresponding to a certain id. ">
<polygon fill="none" stroke="#000000" points="292,-.5 292,-30.5 411,-30.5 411,-.5 292,-.5"/>
<text text-anchor="start" x="300" y="-18.5" font-family="Helvetica,sans-Serif" font-size="10.00" fill="#000000">game::tic_tac_toe::</text>
<text text-anchor="middle" x="351.5" y="-7.5" font-family="Helvetica,sans-Serif" font-size="10.00" fill="#000000">Board::getPlayerById</text>
</a>
</g>
</g>
<!-- Node2&#45;&gt;Node3 -->
<g id="edge2" class="edge">
<title>Node2&#45;&gt;Node3</title>
<path fill="none" stroke="#191970" d="M266.3677,-15.5C274.8073,-15.5 283.4158,-15.5 291.7583,-15.5"/>
<polygon fill="#191970" stroke="#191970" points="266.1861,-12.0001 256.1861,-15.5 266.186,-19.0001 266.1861,-12.0001"/>
</g>
</g>
</svg>
