<?xml version="1.0" encoding="UTF-8" standalone="no"?>
<!DOCTYPE svg PUBLIC "-//W3C//DTD SVG 1.1//EN"
 "http://www.w3.org/Graphics/SVG/1.1/DTD/svg11.dtd">
<!-- Generated by graphviz version 2.40.1 (20161225.0304)
 -->
<!-- Title: mcts::MCTSPlayer::joinTrees Pages: 1 -->
<svg width="633pt" height="88pt"
 viewBox="0.00 0.00 633.00 88.00" xmlns="http://www.w3.org/2000/svg" xmlns:xlink="http://www.w3.org/1999/xlink">
<g id="graph0" class="graph" transform="scale(1 1) rotate(0) translate(4 84)">
<title>mcts::MCTSPlayer::joinTrees</title>
<!-- Node36 -->
<g id="node1" class="node">
<title>Node36</title>
<polygon fill="#bfbfbf" stroke="#000000" points="0,-30 0,-49 154,-49 154,-30 0,-30"/>
<text text-anchor="middle" x="77" y="-37" font-family="Helvetica,sans-Serif" font-size="10.00" fill="#000000">mcts::MCTSPlayer::joinTrees</text>
</g>
<!-- Node37 -->
<g id="node2" class="node">
<title>Node37</title>
<g id="a_node2"><a xlink:href="classmcts_1_1_m_c_t_s_player.html#a48340fed9c5730f0d64ca177682f575e" target="_top" xlink:title="Returns the best move after running the ai. ">
<polygon fill="none" stroke="#000000" points="190,-30 190,-49 348,-49 348,-30 190,-30"/>
<text text-anchor="middle" x="269" y="-37" font-family="Helvetica,sans-Serif" font-size="10.00" fill="#000000">mcts::MCTSPlayer::bestMove</text>
</a>
</g>
</g>
<!-- Node36&#45;&gt;Node37 -->
<g id="edge1" class="edge">
<title>Node36&#45;&gt;Node37</title>
<path fill="none" stroke="#191970" d="M164.4633,-39.5C172.8752,-39.5 181.3753,-39.5 189.7024,-39.5"/>
<polygon fill="#191970" stroke="#191970" points="164.2638,-36.0001 154.2638,-39.5 164.2638,-43.0001 164.2638,-36.0001"/>
</g>
<!-- Node38 -->
<g id="node3" class="node">
<title>Node38</title>
<g id="a_node3"><a xlink:href="classgame_1_1penguin_1_1_console_game.html#a56af132d8e3d16902fb46b7979d37eae" target="_top" xlink:title="Loop while the game is not finished, told by the isFinished method. ">
<polygon fill="none" stroke="#000000" points="384,-49.5 384,-79.5 548,-79.5 548,-49.5 384,-49.5"/>
<text text-anchor="start" x="392" y="-67.5" font-family="Helvetica,sans-Serif" font-size="10.00" fill="#000000">game::penguin::ConsoleGame</text>
<text text-anchor="middle" x="466" y="-56.5" font-family="Helvetica,sans-Serif" font-size="10.00" fill="#000000">::loop</text>
</a>
</g>
</g>
<!-- Node37&#45;&gt;Node38 -->
<g id="edge2" class="edge">
<title>Node37&#45;&gt;Node38</title>
<path fill="none" stroke="#191970" d="M354.2305,-50.3161C364.089,-51.5671 374.1281,-52.8411 383.9431,-54.0867"/>
<polygon fill="#191970" stroke="#191970" points="354.4003,-46.8096 344.0392,-49.0227 353.519,-53.7539 354.4003,-46.8096"/>
</g>
<!-- Node40 -->
<g id="node5" class="node">
<title>Node40</title>
<g id="a_node5"><a xlink:href="classgame_1_1tic__tac__toe_1_1_console_game.html#a06b07e4c713a60999258b0b573b02a33" target="_top" xlink:title="Loop while the game is not finished, told by the isFinished method. ">
<polygon fill="none" stroke="#000000" points="410,-.5 410,-30.5 522,-30.5 522,-.5 410,-.5"/>
<text text-anchor="start" x="418" y="-18.5" font-family="Helvetica,sans-Serif" font-size="10.00" fill="#000000">game::tic_tac_toe::</text>
<text text-anchor="middle" x="466" y="-7.5" font-family="Helvetica,sans-Serif" font-size="10.00" fill="#000000">ConsoleGame::loop</text>
</a>
</g>
</g>
<!-- Node37&#45;&gt;Node40 -->
<g id="edge4" class="edge">
<title>Node37&#45;&gt;Node40</title>
<path fill="none" stroke="#191970" d="M357.5387,-28.7136C375.3117,-26.5483 393.5216,-24.3299 409.8222,-22.344"/>
<polygon fill="#191970" stroke="#191970" points="356.6459,-25.2964 347.1426,-29.9801 357.4925,-32.245 356.6459,-25.2964"/>
</g>
<!-- Node39 -->
<g id="node4" class="node">
<title>Node39</title>
<g id="a_node4"><a xlink:href="main_8cpp.html#a1dfeea39dabf076270426c94def1a2a2" target="_top" xlink:title="main">
<polygon fill="none" stroke="#000000" points="584,-55 584,-74 625,-74 625,-55 584,-55"/>
<text text-anchor="middle" x="604.5" y="-62" font-family="Helvetica,sans-Serif" font-size="10.00" fill="#000000">main</text>
</a>
</g>
</g>
<!-- Node38&#45;&gt;Node39 -->
<g id="edge3" class="edge">
<title>Node38&#45;&gt;Node39</title>
<path fill="none" stroke="#191970" d="M558.2725,-64.5C567.7768,-64.5 576.6282,-64.5 583.9893,-64.5"/>
<polygon fill="#191970" stroke="#191970" points="558.1668,-61.0001 548.1667,-64.5 558.1667,-68.0001 558.1668,-61.0001"/>
</g>
</g>
</svg>
