<?xml version="1.0" encoding="UTF-8" standalone="no"?>
<!DOCTYPE svg PUBLIC "-//W3C//DTD SVG 1.1//EN"
 "http://www.w3.org/Graphics/SVG/1.1/DTD/svg11.dtd">
<!-- Generated by graphviz version 2.40.1 (20161225.0304)
 -->
<!-- Title: game::tic_tac_toe::TicTacToe::clone Pages: 1 -->
<svg width="273pt" height="88pt"
 viewBox="0.00 0.00 273.00 88.00" xmlns="http://www.w3.org/2000/svg" xmlns:xlink="http://www.w3.org/1999/xlink">
<g id="graph0" class="graph" transform="scale(1 1) rotate(0) translate(4 84)">
<title>game::tic_tac_toe::TicTacToe::clone</title>
<!-- Node8 -->
<g id="node1" class="node">
<title>Node8</title>
<polygon fill="#bfbfbf" stroke="#000000" points="0,-24.5 0,-54.5 110,-54.5 110,-24.5 0,-24.5"/>
<text text-anchor="start" x="8" y="-42.5" font-family="Helvetica,sans-Serif" font-size="10.00" fill="#000000">game::tic_tac_toe::</text>
<text text-anchor="middle" x="55" y="-31.5" font-family="Helvetica,sans-Serif" font-size="10.00" fill="#000000">TicTacToe::clone</text>
</g>
<!-- Node9 -->
<g id="node2" class="node">
<title>Node9</title>
<g id="a_node2"><a xlink:href="classgame_1_1tic__tac__toe_1_1_tic_tac_toe.html#a93cde8c52c356cd36a622d33964596d8" target="_top" xlink:title="game::tic_tac_toe::\lTicTacToe::TicTacToe">
<polygon fill="none" stroke="#000000" points="147.5,-49.5 147.5,-79.5 263.5,-79.5 263.5,-49.5 147.5,-49.5"/>
<text text-anchor="start" x="155.5" y="-67.5" font-family="Helvetica,sans-Serif" font-size="10.00" fill="#000000">game::tic_tac_toe::</text>
<text text-anchor="middle" x="205.5" y="-56.5" font-family="Helvetica,sans-Serif" font-size="10.00" fill="#000000">TicTacToe::TicTacToe</text>
</a>
</g>
</g>
<!-- Node8&#45;&gt;Node9 -->
<g id="edge1" class="edge">
<title>Node8&#45;&gt;Node9</title>
<path fill="none" stroke="#191970" d="M110.1861,-48.6671C118.9632,-50.1251 128.1333,-51.6484 137.1692,-53.1494"/>
<polygon fill="#191970" stroke="#191970" points="136.8475,-56.6438 147.2859,-54.8299 137.9946,-49.7384 136.8475,-56.6438"/>
</g>
<!-- Node10 -->
<g id="node3" class="node">
<title>Node10</title>
<g id="a_node3"><a xlink:href="classgame_1_1_abstract_board.html#abd467b64fd2c0dfbc0ce87200afb3e9e" target="_top" xlink:title="game::AbstractBoard\l::clone">
<polygon fill="none" stroke="#000000" points="146,-.5 146,-30.5 265,-30.5 265,-.5 146,-.5"/>
<text text-anchor="start" x="154" y="-18.5" font-family="Helvetica,sans-Serif" font-size="10.00" fill="#000000">game::AbstractBoard</text>
<text text-anchor="middle" x="205.5" y="-7.5" font-family="Helvetica,sans-Serif" font-size="10.00" fill="#000000">::clone</text>
</a>
</g>
</g>
<!-- Node8&#45;&gt;Node10 -->
<g id="edge2" class="edge">
<title>Node8&#45;&gt;Node10</title>
<path fill="none" stroke="#191970" d="M110.1861,-30.6996C118.5071,-29.3726 127.1812,-27.9894 135.7593,-26.6214"/>
<polygon fill="#191970" stroke="#191970" points="136.4343,-30.0581 145.7583,-25.0269 135.3319,-23.1455 136.4343,-30.0581"/>
</g>
</g>
</svg>
