<?xml version="1.0" encoding="UTF-8" standalone="no"?>
<!DOCTYPE svg PUBLIC "-//W3C//DTD SVG 1.1//EN"
 "http://www.w3.org/Graphics/SVG/1.1/DTD/svg11.dtd">
<!-- Generated by graphviz version 2.40.1 (20161225.0304)
 -->
<!-- Title: mcts::MCTS::randomSimulation Pages: 1 -->
<svg width="1006pt" height="88pt"
 viewBox="0.00 0.00 1006.00 88.00" xmlns="http://www.w3.org/2000/svg" xmlns:xlink="http://www.w3.org/1999/xlink">
<g id="graph0" class="graph" transform="scale(1 1) rotate(0) translate(4 84)">
<title>mcts::MCTS::randomSimulation</title>
<!-- Node77 -->
<g id="node1" class="node">
<title>Node77</title>
<polygon fill="#bfbfbf" stroke="#000000" points="0,-30 0,-49 170,-49 170,-30 0,-30"/>
<text text-anchor="middle" x="85" y="-37" font-family="Helvetica,sans-Serif" font-size="10.00" fill="#000000">mcts::MCTS::randomSimulation</text>
</g>
<!-- Node78 -->
<g id="node2" class="node">
<title>Node78</title>
<g id="a_node2"><a xlink:href="classmcts_1_1_m_c_t_s.html#ae8b2818e7a34e858e9dd284d33bca874" target="_top" xlink:title="Start the mcts. ">
<polygon fill="none" stroke="#000000" points="206,-30 206,-49 313,-49 313,-30 206,-30"/>
<text text-anchor="middle" x="259.5" y="-37" font-family="Helvetica,sans-Serif" font-size="10.00" fill="#000000">mcts::MCTS::begin</text>
</a>
</g>
</g>
<!-- Node77&#45;&gt;Node78 -->
<g id="edge1" class="edge">
<title>Node77&#45;&gt;Node78</title>
<path fill="none" stroke="#191970" d="M180.4166,-39.5C189.0903,-39.5 197.6554,-39.5 205.765,-39.5"/>
<polygon fill="#191970" stroke="#191970" points="180.2053,-36.0001 170.2052,-39.5 180.2052,-43.0001 180.2053,-36.0001"/>
</g>
<!-- Node79 -->
<g id="node3" class="node">
<title>Node79</title>
<g id="a_node3"><a xlink:href="classmcts_1_1_m_c_t_s_player.html#a53677f7c7f9cfe4b7999af8abcfb8641" target="_top" xlink:title="Unleashe the power of the MCTS !!!! ">
<polygon fill="none" stroke="#000000" points="349,-30 349,-49 527,-49 527,-30 349,-30"/>
<text text-anchor="middle" x="438" y="-37" font-family="Helvetica,sans-Serif" font-size="10.00" fill="#000000">mcts::MCTSPlayer::unleash_mcts</text>
</a>
</g>
</g>
<!-- Node78&#45;&gt;Node79 -->
<g id="edge2" class="edge">
<title>Node78&#45;&gt;Node79</title>
<path fill="none" stroke="#191970" d="M323.0586,-39.5C331.4106,-39.5 340.0906,-39.5 348.7704,-39.5"/>
<polygon fill="#191970" stroke="#191970" points="323.0559,-36.0001 313.0559,-39.5 323.0559,-43.0001 323.0559,-36.0001"/>
</g>
<!-- Node80 -->
<g id="node4" class="node">
<title>Node80</title>
<g id="a_node4"><a xlink:href="classmcts_1_1_m_c_t_s_player.html#a48340fed9c5730f0d64ca177682f575e" target="_top" xlink:title="Returns the best move after running the ai. ">
<polygon fill="none" stroke="#000000" points="563,-30 563,-49 721,-49 721,-30 563,-30"/>
<text text-anchor="middle" x="642" y="-37" font-family="Helvetica,sans-Serif" font-size="10.00" fill="#000000">mcts::MCTSPlayer::bestMove</text>
</a>
</g>
</g>
<!-- Node79&#45;&gt;Node80 -->
<g id="edge3" class="edge">
<title>Node79&#45;&gt;Node80</title>
<path fill="none" stroke="#191970" d="M537.2632,-39.5C545.8748,-39.5 554.5125,-39.5 562.9304,-39.5"/>
<polygon fill="#191970" stroke="#191970" points="537.1806,-36.0001 527.1806,-39.5 537.1806,-43.0001 537.1806,-36.0001"/>
</g>
<!-- Node81 -->
<g id="node5" class="node">
<title>Node81</title>
<g id="a_node5"><a xlink:href="classgame_1_1penguin_1_1_console_game.html#a56af132d8e3d16902fb46b7979d37eae" target="_top" xlink:title="Loop while the game is not finished, told by the isFinished method. ">
<polygon fill="none" stroke="#000000" points="757,-49.5 757,-79.5 921,-79.5 921,-49.5 757,-49.5"/>
<text text-anchor="start" x="765" y="-67.5" font-family="Helvetica,sans-Serif" font-size="10.00" fill="#000000">game::penguin::ConsoleGame</text>
<text text-anchor="middle" x="839" y="-56.5" font-family="Helvetica,sans-Serif" font-size="10.00" fill="#000000">::loop</text>
</a>
</g>
</g>
<!-- Node80&#45;&gt;Node81 -->
<g id="edge4" class="edge">
<title>Node80&#45;&gt;Node81</title>
<path fill="none" stroke="#191970" d="M727.2305,-50.3161C737.089,-51.5671 747.1281,-52.8411 756.9431,-54.0867"/>
<polygon fill="#191970" stroke="#191970" points="727.4003,-46.8096 717.0392,-49.0227 726.519,-53.7539 727.4003,-46.8096"/>
</g>
<!-- Node83 -->
<g id="node7" class="node">
<title>Node83</title>
<g id="a_node7"><a xlink:href="classgame_1_1tic__tac__toe_1_1_console_game.html#a06b07e4c713a60999258b0b573b02a33" target="_top" xlink:title="Loop while the game is not finished, told by the isFinished method. ">
<polygon fill="none" stroke="#000000" points="783,-.5 783,-30.5 895,-30.5 895,-.5 783,-.5"/>
<text text-anchor="start" x="791" y="-18.5" font-family="Helvetica,sans-Serif" font-size="10.00" fill="#000000">game::tic_tac_toe::</text>
<text text-anchor="middle" x="839" y="-7.5" font-family="Helvetica,sans-Serif" font-size="10.00" fill="#000000">ConsoleGame::loop</text>
</a>
</g>
</g>
<!-- Node80&#45;&gt;Node83 -->
<g id="edge6" class="edge">
<title>Node80&#45;&gt;Node83</title>
<path fill="none" stroke="#191970" d="M730.5387,-28.7136C748.3117,-26.5483 766.5216,-24.3299 782.8222,-22.344"/>
<polygon fill="#191970" stroke="#191970" points="729.6459,-25.2964 720.1426,-29.9801 730.4925,-32.245 729.6459,-25.2964"/>
</g>
<!-- Node82 -->
<g id="node6" class="node">
<title>Node82</title>
<g id="a_node6"><a xlink:href="main_8cpp.html#a1dfeea39dabf076270426c94def1a2a2" target="_top" xlink:title="main">
<polygon fill="none" stroke="#000000" points="957,-55 957,-74 998,-74 998,-55 957,-55"/>
<text text-anchor="middle" x="977.5" y="-62" font-family="Helvetica,sans-Serif" font-size="10.00" fill="#000000">main</text>
</a>
</g>
</g>
<!-- Node81&#45;&gt;Node82 -->
<g id="edge5" class="edge">
<title>Node81&#45;&gt;Node82</title>
<path fill="none" stroke="#191970" d="M931.2725,-64.5C940.7768,-64.5 949.6282,-64.5 956.9893,-64.5"/>
<polygon fill="#191970" stroke="#191970" points="931.1668,-61.0001 921.1667,-64.5 931.1667,-68.0001 931.1668,-61.0001"/>
</g>
</g>
</svg>
