<?xml version="1.0" encoding="UTF-8" standalone="no"?>
<!DOCTYPE svg PUBLIC "-//W3C//DTD SVG 1.1//EN"
 "http://www.w3.org/Graphics/SVG/1.1/DTD/svg11.dtd">
<!-- Generated by graphviz version 2.40.1 (20161225.0304)
 -->
<!-- Title: game::tic_tac_toe::Board::getPlayerById Pages: 1 -->
<!--zoomable 235 -->
<svg id="main" version="1.1" xmlns="http://www.w3.org/2000/svg" xmlns:xlink="http://www.w3.org/1999/xlink" xml:space="preserve" onload="init(evt)">
<style type="text/css"><![CDATA[
.edge:hover path { stroke: red; }
.edge:hover polygon { stroke: red; fill: red; }
]]></style>
<script type="text/javascript"><![CDATA[
var edges = document.getElementsByTagName('g');
if (edges && edges.length) {
  for (var i=0;i<edges.length;i++) {
    if (edges[i].id.substr(0,4)=='edge') {
      edges[i].setAttribute('class','edge');
    }
  }
}
]]></script>
        <defs>
                <circle id="rim" cx="0" cy="0" r="7"/>
                <circle id="rim2" cx="0" cy="0" r="3.5"/>
                <g id="zoomPlus">
                        <use xlink:href="#rim" fill="#404040">
                                <set attributeName="fill" to="#808080" begin="zoomplus.mouseover" end="zoomplus.mouseout"/>
                        </use>
                        <path d="M-4,0h8M0,-4v8" fill="none" stroke="white" stroke-width="1.5" pointer-events="none"/>
                </g>
                <g id="zoomMin">
                        <use xlink:href="#rim" fill="#404040">
                                <set attributeName="fill" to="#808080" begin="zoomminus.mouseover" end="zoomminus.mouseout"/>
                        </use>
                        <path d="M-4,0h8" fill="none" stroke="white" stroke-width="1.5" pointer-events="none"/>
                </g>
                <g id="dirArrow">
                        <path fill="none" stroke="white" stroke-width="1.5" d="M0,-3.0v7 M-2.5,-0.5L0,-3.0L2.5,-0.5"/>
                </g>
               <g id="resetDef">
                       <use xlink:href="#rim2" fill="#404040">
                               <set attributeName="fill" to="#808080" begin="reset.mouseover" end="reset.mouseout"/>
                       </use>
               </g>
        </defs>

<script type="text/javascript">
var viewWidth = 593;
var viewHeight = 235;
var sectionId = 'dynsection-13';
</script>
<script xlink:href="svgpan.js"/>
<svg id="graph" class="graph">
<g id="viewport">
<title>game::tic_tac_toe::Board::getPlayerById</title>
<!-- Node44 -->
<g id="node1" class="node">
<title>Node44</title>
<polygon fill="#bfbfbf" stroke="#000000" points="0,-122.5 0,-152.5 119,-152.5 119,-122.5 0,-122.5"/>
<text text-anchor="start" x="8" y="-140.5" font-family="Helvetica,sans-Serif" font-size="10.00" fill="#000000">game::tic_tac_toe::</text>
<text text-anchor="middle" x="59.5" y="-129.5" font-family="Helvetica,sans-Serif" font-size="10.00" fill="#000000">Board::getPlayerById</text>
</g>
<!-- Node45 -->
<g id="node2" class="node">
<title>Node45</title>
<g id="a_node2"><a xlink:href="classgame_1_1tic__tac__toe_1_1_board.html#a7f11ea8d48d9613057dd8164a7610f9a" target="_top" xlink:title="Get a player by it&#39;s id. ">
<polygon fill="none" stroke="#000000" points="155,-147.5 155,-177.5 269,-177.5 269,-147.5 155,-147.5"/>
<text text-anchor="start" x="163" y="-165.5" font-family="Helvetica,sans-Serif" font-size="10.00" fill="#000000">game::tic_tac_toe::</text>
<text text-anchor="middle" x="212" y="-154.5" font-family="Helvetica,sans-Serif" font-size="10.00" fill="#000000">Board::getPawnById</text>
</a>
</g>
</g>
<!-- Node44&#45;&gt;Node45 -->
<g id="edge1" class="edge">
<title>Node44&#45;&gt;Node45</title>
<path fill="none" stroke="#191970" d="M119.3343,-147.3089C127.731,-148.6854 136.4064,-150.1076 144.9267,-151.5044"/>
<polygon fill="#191970" stroke="#191970" points="144.3971,-154.9642 154.8316,-153.1281 145.5296,-148.0564 144.3971,-154.9642"/>
</g>
<!-- Node46 -->
<g id="node3" class="node">
<title>Node46</title>
<g id="a_node3"><a xlink:href="classgame_1_1tic__tac__toe_1_1_board.html#a9d7a2c225f06a3410b11b688d9d6bcf8" target="_top" xlink:title="game::tic_tac_toe::\lBoard::clone">
<polygon fill="none" stroke="#000000" points="157,-98.5 157,-128.5 267,-128.5 267,-98.5 157,-98.5"/>
<text text-anchor="start" x="165" y="-116.5" font-family="Helvetica,sans-Serif" font-size="10.00" fill="#000000">game::tic_tac_toe::</text>
<text text-anchor="middle" x="212" y="-105.5" font-family="Helvetica,sans-Serif" font-size="10.00" fill="#000000">Board::clone</text>
</a>
</g>
</g>
<!-- Node44&#45;&gt;Node46 -->
<g id="edge2" class="edge">
<title>Node44&#45;&gt;Node46</title>
<path fill="none" stroke="#191970" d="M119.3343,-128.0834C128.3073,-126.6713 137.5986,-125.2091 146.6788,-123.7801"/>
<polygon fill="#191970" stroke="#191970" points="147.4784,-127.1974 156.8126,-122.1852 146.3901,-120.2825 147.4784,-127.1974"/>
</g>
<!-- Node47 -->
<g id="node4" class="node">
<title>Node47</title>
<g id="a_node4"><a xlink:href="classgame_1_1tic__tac__toe_1_1_board.html#a90e2255675eacaefca2cd89aea681096" target="_top" xlink:title="Construct a new Board object. ">
<polygon fill="none" stroke="#000000" points="312.5,-196.5 312.5,-226.5 422.5,-226.5 422.5,-196.5 312.5,-196.5"/>
<text text-anchor="start" x="320.5" y="-214.5" font-family="Helvetica,sans-Serif" font-size="10.00" fill="#000000">game::tic_tac_toe::</text>
<text text-anchor="middle" x="367.5" y="-203.5" font-family="Helvetica,sans-Serif" font-size="10.00" fill="#000000">Board::Board</text>
</a>
</g>
</g>
<!-- Node46&#45;&gt;Node47 -->
<g id="edge3" class="edge">
<title>Node46&#45;&gt;Node47</title>
<path fill="none" stroke="#191970" d="M253.362,-128.5084C258.8923,-131.3934 264.2767,-134.7174 269,-138.5 290.0933,-155.3921 283.5181,-171.1049 305,-187.5 306.8017,-188.8751 308.6916,-190.18 310.6458,-191.4173"/>
<polygon fill="#191970" stroke="#191970" points="309.1183,-194.5736 319.5513,-196.4184 312.5459,-188.4702 309.1183,-194.5736"/>
</g>
<!-- Node48 -->
<g id="node5" class="node">
<title>Node48</title>
<g id="a_node5"><a xlink:href="classgame_1_1_abstract_pawn.html#ae9ad3bf0ee738571d0dd5992feae6bb7" target="_top" xlink:title="game::AbstractPawn\l::getCurrentCell">
<polygon fill="none" stroke="#000000" points="309.5,-147.5 309.5,-177.5 425.5,-177.5 425.5,-147.5 309.5,-147.5"/>
<text text-anchor="start" x="317.5" y="-165.5" font-family="Helvetica,sans-Serif" font-size="10.00" fill="#000000">game::AbstractPawn</text>
<text text-anchor="middle" x="367.5" y="-154.5" font-family="Helvetica,sans-Serif" font-size="10.00" fill="#000000">::getCurrentCell</text>
</a>
</g>
</g>
<!-- Node46&#45;&gt;Node48 -->
<g id="edge4" class="edge">
<title>Node46&#45;&gt;Node48</title>
<path fill="none" stroke="#191970" d="M259.924,-128.6014C275.8131,-133.6083 293.6611,-139.2324 310.1839,-144.439"/>
<polygon fill="#191970" stroke="#191970" points="309.1447,-147.7811 319.7343,-147.4484 311.2485,-141.1047 309.1447,-147.7811"/>
</g>
<!-- Node49 -->
<g id="node6" class="node">
<title>Node49</title>
<g id="a_node6"><a xlink:href="classgame_1_1tic__tac__toe_1_1_board_cell.html#aa418994b5cdf5c74b105701193d72a1b" target="_top" xlink:title="Get the Position object. ">
<polygon fill="none" stroke="#000000" points="305,-98.5 305,-128.5 430,-128.5 430,-98.5 305,-98.5"/>
<text text-anchor="start" x="313" y="-116.5" font-family="Helvetica,sans-Serif" font-size="10.00" fill="#000000">game::tic_tac_toe::</text>
<text text-anchor="middle" x="367.5" y="-105.5" font-family="Helvetica,sans-Serif" font-size="10.00" fill="#000000">BoardCell::getPosition</text>
</a>
</g>
</g>
<!-- Node46&#45;&gt;Node49 -->
<g id="edge5" class="edge">
<title>Node46&#45;&gt;Node49</title>
<path fill="none" stroke="#191970" d="M267.2613,-113.5C276.0775,-113.5 285.3157,-113.5 294.4665,-113.5"/>
<polygon fill="#191970" stroke="#191970" points="294.7337,-117.0001 304.7337,-113.5 294.7336,-110.0001 294.7337,-117.0001"/>
</g>
<!-- Node51 -->
<g id="node8" class="node">
<title>Node51</title>
<g id="a_node8"><a xlink:href="classgame_1_1_abstract_pawn.html#a678ab4c2f0191bafa3e1e16cf04fa9d0" target="_top" xlink:title="Queue the move done at the top of the stack. ">
<polygon fill="none" stroke="#000000" points="309.5,-49.5 309.5,-79.5 425.5,-79.5 425.5,-49.5 309.5,-49.5"/>
<text text-anchor="start" x="317.5" y="-67.5" font-family="Helvetica,sans-Serif" font-size="10.00" fill="#000000">game::AbstractPawn</text>
<text text-anchor="middle" x="367.5" y="-56.5" font-family="Helvetica,sans-Serif" font-size="10.00" fill="#000000">::setCurrentCell</text>
</a>
</g>
</g>
<!-- Node46&#45;&gt;Node51 -->
<g id="edge7" class="edge">
<title>Node46&#45;&gt;Node51</title>
<path fill="none" stroke="#191970" d="M259.924,-98.3986C275.8131,-93.3917 293.6611,-87.7676 310.1839,-82.561"/>
<polygon fill="#191970" stroke="#191970" points="311.2485,-85.8953 319.7343,-79.5516 309.1447,-79.2189 311.2485,-85.8953"/>
</g>
<!-- Node52 -->
<g id="node9" class="node">
<title>Node52</title>
<g id="a_node9"><a xlink:href="classgame_1_1tic__tac__toe_1_1_board.html#ab5c00479b4dabd60bef9ea00fce23779" target="_top" xlink:title="Get the Cell. ">
<polygon fill="none" stroke="#000000" points="312.5,-.5 312.5,-30.5 422.5,-30.5 422.5,-.5 312.5,-.5"/>
<text text-anchor="start" x="320.5" y="-18.5" font-family="Helvetica,sans-Serif" font-size="10.00" fill="#000000">game::tic_tac_toe::</text>
<text text-anchor="middle" x="367.5" y="-7.5" font-family="Helvetica,sans-Serif" font-size="10.00" fill="#000000">Board::getCell</text>
</a>
</g>
</g>
<!-- Node46&#45;&gt;Node52 -->
<g id="edge8" class="edge">
<title>Node46&#45;&gt;Node52</title>
<path fill="none" stroke="#191970" d="M228.4275,-98.2139C246.2376,-82.2367 276.0153,-57.2112 305,-40.5 308.4328,-38.5208 312.0526,-36.6274 315.7498,-34.8316"/>
<polygon fill="#191970" stroke="#191970" points="317.4036,-37.9238 325.0365,-30.5761 314.4875,-31.5601 317.4036,-37.9238"/>
</g>
<!-- Node50 -->
<g id="node7" class="node">
<title>Node50</title>
<g id="a_node7"><a xlink:href="classgame_1_1tic__tac__toe_1_1_board_cell.html#a800b9a8409ad28086ad1e7cb275fa25e" target="_top" xlink:title="tells if the cell is claimed or not ">
<polygon fill="none" stroke="#000000" points="466,-98.5 466,-128.5 585,-128.5 585,-98.5 466,-98.5"/>
<text text-anchor="start" x="474" y="-116.5" font-family="Helvetica,sans-Serif" font-size="10.00" fill="#000000">game::tic_tac_toe::</text>
<text text-anchor="middle" x="525.5" y="-105.5" font-family="Helvetica,sans-Serif" font-size="10.00" fill="#000000">BoardCell::isClaimed</text>
</a>
</g>
</g>
<!-- Node49&#45;&gt;Node50 -->
<g id="edge6" class="edge">
<title>Node49&#45;&gt;Node50</title>
<path fill="none" stroke="#191970" d="M430.3998,-113.5C438.7204,-113.5 447.2899,-113.5 455.7175,-113.5"/>
<polygon fill="#191970" stroke="#191970" points="455.9007,-117.0001 465.9007,-113.5 455.9006,-110.0001 455.9007,-117.0001"/>
</g>
</g>
</svg>
        <g id="navigator" transform="translate(0 0)" fill="#404254">
                <rect fill="#f2f5e9" fill-opacity="0.5" stroke="#606060" stroke-width=".5" x="0" y="0" width="60" height="60"/>
                <use id="zoomplus" xlink:href="#zoomPlus" x="17" y="9" onmousedown="handleZoom(evt,'in')"/>
                <use id="zoomminus" xlink:href="#zoomMin" x="42" y="9" onmousedown="handleZoom(evt,'out')"/>
                <use id="reset" xlink:href="#resetDef" x="30" y="36" onmousedown="handleReset()"/>
                <g id="arrowUp" xlink:href="#dirArrow" transform="translate(30 24)" onmousedown="handlePan(0,-1)">
                  <use xlink:href="#rim" fill="#404040">
                        <set attributeName="fill" to="#808080" begin="arrowUp.mouseover" end="arrowUp.mouseout"/>
                  </use>
                  <path fill="none" stroke="white" stroke-width="1.5" d="M0,-3.0v7 M-2.5,-0.5L0,-3.0L2.5,-0.5"/>
                </g>
                <g id="arrowRight" xlink:href="#dirArrow" transform="rotate(90) translate(36 -43)" onmousedown="handlePan(1,0)">
                  <use xlink:href="#rim" fill="#404040">
                        <set attributeName="fill" to="#808080" begin="arrowRight.mouseover" end="arrowRight.mouseout"/>
                  </use>
                  <path fill="none" stroke="white" stroke-width="1.5" d="M0,-3.0v7 M-2.5,-0.5L0,-3.0L2.5,-0.5"/>
                </g>
                <g id="arrowDown" xlink:href="#dirArrow" transform="rotate(180) translate(-30 -48)" onmousedown="handlePan(0,1)">
                  <use xlink:href="#rim" fill="#404040">
                        <set attributeName="fill" to="#808080" begin="arrowDown.mouseover" end="arrowDown.mouseout"/>
                  </use>
                  <path fill="none" stroke="white" stroke-width="1.5" d="M0,-3.0v7 M-2.5,-0.5L0,-3.0L2.5,-0.5"/>
                </g>
                <g id="arrowLeft" xlink:href="#dirArrow" transform="rotate(270) translate(-36 17)" onmousedown="handlePan(-1,0)">
                  <use xlink:href="#rim" fill="#404040">
                        <set attributeName="fill" to="#808080" begin="arrowLeft.mouseover" end="arrowLeft.mouseout"/>
                  </use>
                  <path fill="none" stroke="white" stroke-width="1.5" d="M0,-3.0v7 M-2.5,-0.5L0,-3.0L2.5,-0.5"/>
                </g>
        </g>
        <svg viewBox="0 0 15 15" width="100%" height="30px" preserveAspectRatio="xMaxYMin meet">
         <g id="arrow_out" transform="scale(0.3 0.3)">
          <a xlink:href="classgame_1_1tic__tac__toe_1_1_board_a7907b8fc363b7e33d585edbc7ec102ae_cgraph_org.svg" target="_base">
           <rect id="button" ry="5" rx="5" y="6" x="6" height="38" width="38"
                fill="#f2f5e9" fill-opacity="0.5" stroke="#606060" stroke-width="1.0"/>
           <path id="arrow"
             d="M 11.500037,31.436501 C 11.940474,20.09759 22.043105,11.32322 32.158766,21.979434 L 37.068811,17.246167 C 37.068811,17.246167 37.088388,32 37.088388,32 L 22.160133,31.978069 C 22.160133,31.978069 26.997745,27.140456 26.997745,27.140456 C 18.528582,18.264221 13.291696,25.230495 11.500037,31.436501 z"
             style="fill:#404040;"/>
          </a>
         </g>
        </svg>
</svg>
