<?xml version="1.0" encoding="UTF-8" standalone="no"?>
<!DOCTYPE svg PUBLIC "-//W3C//DTD SVG 1.1//EN"
 "http://www.w3.org/Graphics/SVG/1.1/DTD/svg11.dtd">
<!-- Generated by graphviz version 2.40.1 (20161225.0304)
 -->
<!-- Title: game::AbstractPawn::setCurrentCell Pages: 1 -->
<svg width="431pt" height="100pt"
 viewBox="0.00 0.00 431.00 99.50" xmlns="http://www.w3.org/2000/svg" xmlns:xlink="http://www.w3.org/1999/xlink">
<g id="graph0" class="graph" transform="scale(1 1) rotate(0) translate(4 95.5)">
<title>game::AbstractPawn::setCurrentCell</title>
<!-- Node40 -->
<g id="node1" class="node">
<title>Node40</title>
<polygon fill="#bfbfbf" stroke="#000000" points="0,-27.5 0,-57.5 116,-57.5 116,-27.5 0,-27.5"/>
<text text-anchor="start" x="8" y="-45.5" font-family="Helvetica,sans-Serif" font-size="10.00" fill="#000000">game::AbstractPawn</text>
<text text-anchor="middle" x="58" y="-34.5" font-family="Helvetica,sans-Serif" font-size="10.00" fill="#000000">::setCurrentCell</text>
</g>
<!-- Node41 -->
<g id="node2" class="node">
<title>Node41</title>
<g id="a_node2"><a xlink:href="classgame_1_1_abstract_pawn.html#a49354506912d0e1bf5272627aa2bc86e" target="_top" xlink:title="Get pawn&#39;s id. ">
<polygon fill="none" stroke="#000000" points="152,-50 152,-91 268,-91 268,-50 152,-50"/>
<text text-anchor="start" x="160" y="-79" font-family="Helvetica,sans-Serif" font-size="10.00" fill="#000000">game::AbstractPawn</text>
<text text-anchor="start" x="160" y="-68" font-family="Helvetica,sans-Serif" font-size="10.00" fill="#000000">&lt; Player, BoardCell</text>
<text text-anchor="middle" x="210" y="-57" font-family="Helvetica,sans-Serif" font-size="10.00" fill="#000000"> &gt;::getId</text>
</a>
</g>
</g>
<!-- Node40&#45;&gt;Node41 -->
<g id="edge1" class="edge">
<title>Node40&#45;&gt;Node41</title>
<path fill="none" stroke="#191970" d="M126.264,-55.0749C134.7979,-56.647 143.4632,-58.2432 151.8236,-59.7833"/>
<polygon fill="#191970" stroke="#191970" points="126.8011,-51.6151 116.3325,-53.2455 125.5329,-58.4992 126.8011,-51.6151"/>
</g>
<!-- Node42 -->
<g id="node3" class="node">
<title>Node42</title>
<g id="a_node3"><a xlink:href="classgame_1_1tic__tac__toe_1_1_board.html#a9d7a2c225f06a3410b11b688d9d6bcf8" target="_top" xlink:title="game::tic_tac_toe::\lBoard::clone">
<polygon fill="none" stroke="#000000" points="155,-.5 155,-30.5 265,-30.5 265,-.5 155,-.5"/>
<text text-anchor="start" x="163" y="-18.5" font-family="Helvetica,sans-Serif" font-size="10.00" fill="#000000">game::tic_tac_toe::</text>
<text text-anchor="middle" x="210" y="-7.5" font-family="Helvetica,sans-Serif" font-size="10.00" fill="#000000">Board::clone</text>
</a>
</g>
</g>
<!-- Node40&#45;&gt;Node42 -->
<g id="edge2" class="edge">
<title>Node40&#45;&gt;Node42</title>
<path fill="none" stroke="#191970" d="M126.4562,-30.34C135.8678,-28.6682 145.4352,-26.9687 154.5735,-25.3455"/>
<polygon fill="#191970" stroke="#191970" points="125.5662,-26.9432 116.3325,-32.1383 126.7905,-33.8354 125.5662,-26.9432"/>
</g>
<!-- Node43 -->
<g id="node4" class="node">
<title>Node43</title>
<g id="a_node4"><a xlink:href="classgame_1_1tic__tac__toe_1_1_board.html#a7907b8fc363b7e33d585edbc7ec102ae" target="_top" xlink:title="Gets the player corresponding to a certain id. ">
<polygon fill="none" stroke="#000000" points="304,-.5 304,-30.5 423,-30.5 423,-.5 304,-.5"/>
<text text-anchor="start" x="312" y="-18.5" font-family="Helvetica,sans-Serif" font-size="10.00" fill="#000000">game::tic_tac_toe::</text>
<text text-anchor="middle" x="363.5" y="-7.5" font-family="Helvetica,sans-Serif" font-size="10.00" fill="#000000">Board::getPlayerById</text>
</a>
</g>
</g>
<!-- Node42&#45;&gt;Node43 -->
<g id="edge3" class="edge">
<title>Node42&#45;&gt;Node43</title>
<path fill="none" stroke="#191970" d="M275.4846,-15.5C284.8708,-15.5 294.4869,-15.5 303.7546,-15.5"/>
<polygon fill="#191970" stroke="#191970" points="275.4171,-12.0001 265.417,-15.5 275.417,-19.0001 275.4171,-12.0001"/>
</g>
</g>
</svg>
