<?xml version="1.0" encoding="UTF-8" standalone="no"?>
<!DOCTYPE svg PUBLIC "-//W3C//DTD SVG 1.1//EN"
 "http://www.w3.org/Graphics/SVG/1.1/DTD/svg11.dtd">
<!-- Generated by graphviz version 2.40.1 (20161225.0304)
 -->
<!-- Title: game::AbstractInterface Pages: 1 -->
<svg width="302pt" height="215pt"
 viewBox="0.00 0.00 302.00 215.00" xmlns="http://www.w3.org/2000/svg" xmlns:xlink="http://www.w3.org/1999/xlink">
<g id="graph0" class="graph" transform="scale(1 1) rotate(0) translate(4 211)">
<title>game::AbstractInterface</title>
<!-- Node0 -->
<g id="node1" class="node">
<title>Node0</title>
<polygon fill="#bfbfbf" stroke="#000000" points="93,-138.5 93,-206.5 227,-206.5 227,-138.5 93,-138.5"/>
<text text-anchor="middle" x="160" y="-194.5" font-family="Helvetica,sans-Serif" font-size="10.00" fill="#000000">game::AbstractInterface</text>
<polyline fill="none" stroke="#000000" points="93,-187.5 227,-187.5 "/>
<text text-anchor="middle" x="160" y="-175.5" font-family="Helvetica,sans-Serif" font-size="10.00" fill="#000000"> </text>
<polyline fill="none" stroke="#000000" points="93,-168.5 227,-168.5 "/>
<text text-anchor="start" x="101" y="-156.5" font-family="Helvetica,sans-Serif" font-size="10.00" fill="#000000">+ ~AbstractInterface()</text>
<text text-anchor="start" x="101" y="-145.5" font-family="Helvetica,sans-Serif" font-size="10.00" fill="#000000">+ draw()</text>
</g>
<!-- Node1 -->
<g id="node2" class="node">
<title>Node1</title>
<g id="a_node2"><a xlink:href="classgame_1_1penguin_1_1_console_game.html" target="_top" xlink:title="{game::penguin::ConsoleGame\n||+ ConsoleGame()\l+ ~ConsoleGame()\l+ draw()\l+ loop()\l}">
<polygon fill="none" stroke="#000000" points="0,-6 0,-96 164,-96 164,-6 0,-6"/>
<text text-anchor="middle" x="82" y="-84" font-family="Helvetica,sans-Serif" font-size="10.00" fill="#000000">game::penguin::ConsoleGame</text>
<polyline fill="none" stroke="#000000" points="0,-77 164,-77 "/>
<text text-anchor="middle" x="82" y="-65" font-family="Helvetica,sans-Serif" font-size="10.00" fill="#000000"> </text>
<polyline fill="none" stroke="#000000" points="0,-58 164,-58 "/>
<text text-anchor="start" x="8" y="-46" font-family="Helvetica,sans-Serif" font-size="10.00" fill="#000000">+ ConsoleGame()</text>
<text text-anchor="start" x="8" y="-35" font-family="Helvetica,sans-Serif" font-size="10.00" fill="#000000">+ ~ConsoleGame()</text>
<text text-anchor="start" x="8" y="-24" font-family="Helvetica,sans-Serif" font-size="10.00" fill="#000000">+ draw()</text>
<text text-anchor="start" x="8" y="-13" font-family="Helvetica,sans-Serif" font-size="10.00" fill="#000000">+ loop()</text>
</a>
</g>
</g>
<!-- Node0&#45;&gt;Node1 -->
<g id="edge1" class="edge">
<title>Node0&#45;&gt;Node1</title>
<path fill="none" stroke="#191970" d="M132.6059,-129.8285C125.629,-118.9605 118.1068,-107.2434 111.0504,-96.2516"/>
<polygon fill="none" stroke="#191970" points="129.7174,-131.8078 138.0651,-138.3321 135.608,-128.0261 129.7174,-131.8078"/>
</g>
<!-- Node2 -->
<g id="node3" class="node">
<title>Node2</title>
<g id="a_node3"><a xlink:href="classgame_1_1tic__tac__toe_1_1_console_game.html" target="_top" xlink:title="{game::tic_tac_toe::\lConsoleGame\n||+ ConsoleGame()\l+ ~ConsoleGame()\l+ draw()\l+ loop()\l}">
<polygon fill="none" stroke="#000000" points="182,-.5 182,-101.5 294,-101.5 294,-.5 182,-.5"/>
<text text-anchor="start" x="190" y="-89.5" font-family="Helvetica,sans-Serif" font-size="10.00" fill="#000000">game::tic_tac_toe::</text>
<text text-anchor="middle" x="238" y="-78.5" font-family="Helvetica,sans-Serif" font-size="10.00" fill="#000000">ConsoleGame</text>
<polyline fill="none" stroke="#000000" points="182,-71.5 294,-71.5 "/>
<text text-anchor="middle" x="238" y="-59.5" font-family="Helvetica,sans-Serif" font-size="10.00" fill="#000000"> </text>
<polyline fill="none" stroke="#000000" points="182,-52.5 294,-52.5 "/>
<text text-anchor="start" x="190" y="-40.5" font-family="Helvetica,sans-Serif" font-size="10.00" fill="#000000">+ ConsoleGame()</text>
<text text-anchor="start" x="190" y="-29.5" font-family="Helvetica,sans-Serif" font-size="10.00" fill="#000000">+ ~ConsoleGame()</text>
<text text-anchor="start" x="190" y="-18.5" font-family="Helvetica,sans-Serif" font-size="10.00" fill="#000000">+ draw()</text>
<text text-anchor="start" x="190" y="-7.5" font-family="Helvetica,sans-Serif" font-size="10.00" fill="#000000">+ loop()</text>
</a>
</g>
</g>
<!-- Node0&#45;&gt;Node2 -->
<g id="edge2" class="edge">
<title>Node0&#45;&gt;Node2</title>
<path fill="none" stroke="#191970" d="M187.3941,-129.8285C193.2301,-120.7377 199.4476,-111.0528 205.4549,-101.6952"/>
<polygon fill="none" stroke="#191970" points="184.392,-128.0261 181.9349,-138.3321 190.2826,-131.8078 184.392,-128.0261"/>
</g>
</g>
</svg>
