<?xml version="1.0" encoding="UTF-8" standalone="no"?>
<!DOCTYPE svg PUBLIC "-//W3C//DTD SVG 1.1//EN"
 "http://www.w3.org/Graphics/SVG/1.1/DTD/svg11.dtd">
<!-- Generated by graphviz version 2.40.1 (20161225.0304)
 -->
<!-- Title: game::penguin::ConsoleGame::loop Pages: 1 -->
<!--zoomable 771 -->
<svg id="main" version="1.1" xmlns="http://www.w3.org/2000/svg" xmlns:xlink="http://www.w3.org/1999/xlink" xml:space="preserve" onload="init(evt)">
<style type="text/css"><![CDATA[
.edge:hover path { stroke: red; }
.edge:hover polygon { stroke: red; fill: red; }
]]></style>
<script type="text/javascript"><![CDATA[
var edges = document.getElementsByTagName('g');
if (edges && edges.length) {
  for (var i=0;i<edges.length;i++) {
    if (edges[i].id.substr(0,4)=='edge') {
      edges[i].setAttribute('class','edge');
    }
  }
}
]]></script>
        <defs>
                <circle id="rim" cx="0" cy="0" r="7"/>
                <circle id="rim2" cx="0" cy="0" r="3.5"/>
                <g id="zoomPlus">
                        <use xlink:href="#rim" fill="#404040">
                                <set attributeName="fill" to="#808080" begin="zoomplus.mouseover" end="zoomplus.mouseout"/>
                        </use>
                        <path d="M-4,0h8M0,-4v8" fill="none" stroke="white" stroke-width="1.5" pointer-events="none"/>
                </g>
                <g id="zoomMin">
                        <use xlink:href="#rim" fill="#404040">
                                <set attributeName="fill" to="#808080" begin="zoomminus.mouseover" end="zoomminus.mouseout"/>
                        </use>
                        <path d="M-4,0h8" fill="none" stroke="white" stroke-width="1.5" pointer-events="none"/>
                </g>
                <g id="dirArrow">
                        <path fill="none" stroke="white" stroke-width="1.5" d="M0,-3.0v7 M-2.5,-0.5L0,-3.0L2.5,-0.5"/>
                </g>
               <g id="resetDef">
                       <use xlink:href="#rim2" fill="#404040">
                               <set attributeName="fill" to="#808080" begin="reset.mouseover" end="reset.mouseout"/>
                       </use>
               </g>
        </defs>

<script type="text/javascript">
var viewWidth = 1257;
var viewHeight = 771;
var sectionId = 'dynsection-5';
</script>
<script xlink:href="svgpan.js"/>
<svg id="graph" class="graph">
<g id="viewport">
<title>game::penguin::ConsoleGame::loop</title>
<!-- Node42 -->
<g id="node1" class="node">
<title>Node42</title>
<polygon fill="#bfbfbf" stroke="#000000" points="0,-390 0,-420 164,-420 164,-390 0,-390"/>
<text text-anchor="start" x="8" y="-408" font-family="Helvetica,sans-Serif" font-size="10.00" fill="#000000">game::penguin::ConsoleGame</text>
<text text-anchor="middle" x="82" y="-397" font-family="Helvetica,sans-Serif" font-size="10.00" fill="#000000">::loop</text>
</g>
<!-- Node43 -->
<g id="node2" class="node">
<title>Node43</title>
<g id="a_node2"><a xlink:href="classgame_1_1penguin_1_1_console_game.html#a71c697742201f71b29327bf8554c2ef0" target="_top" xlink:title="game::penguin::ConsoleGame\l::draw">
<polygon fill="none" stroke="#000000" points="200,-575 200,-605 364,-605 364,-575 200,-575"/>
<text text-anchor="start" x="208" y="-593" font-family="Helvetica,sans-Serif" font-size="10.00" fill="#000000">game::penguin::ConsoleGame</text>
<text text-anchor="middle" x="282" y="-582" font-family="Helvetica,sans-Serif" font-size="10.00" fill="#000000">::draw</text>
</a>
</g>
</g>
<!-- Node42&#45;&gt;Node43 -->
<g id="edge1" class="edge">
<title>Node42&#45;&gt;Node43</title>
<path fill="none" stroke="#191970" d="M98.3711,-420.353C121.1128,-441.6594 163.5797,-481.3702 200,-515 219.3677,-532.8838 241.4214,-553.0434 257.7761,-567.9545"/>
<polygon fill="#191970" stroke="#191970" points="255.5613,-570.6714 265.3102,-574.8199 260.2761,-565.4974 255.5613,-570.6714"/>
</g>
<!-- Node57 -->
<g id="node16" class="node">
<title>Node57</title>
<g id="a_node16"><a xlink:href="classgame_1_1penguin_1_1_penguin_game.html#ae5e55157da5e8a1ed2ccc2c9cbbad50d" target="_top" xlink:title="Tells if the game is finished yet. ">
<polygon fill="none" stroke="#000000" points="200,-441 200,-471 364,-471 364,-441 200,-441"/>
<text text-anchor="start" x="208" y="-459" font-family="Helvetica,sans-Serif" font-size="10.00" fill="#000000">game::penguin::PenguinGame</text>
<text text-anchor="middle" x="282" y="-448" font-family="Helvetica,sans-Serif" font-size="10.00" fill="#000000">::isFinished</text>
</a>
</g>
</g>
<!-- Node42&#45;&gt;Node57 -->
<g id="edge17" class="edge">
<title>Node42&#45;&gt;Node57</title>
<path fill="none" stroke="#191970" d="M140.9249,-420.0258C163.6097,-425.8105 189.7079,-432.4655 213.2402,-438.4663"/>
<polygon fill="#191970" stroke="#191970" points="212.5962,-441.914 223.151,-440.9935 214.3259,-435.131 212.5962,-441.914"/>
</g>
<!-- Node58 -->
<g id="node17" class="node">
<title>Node58</title>
<g id="a_node17"><a xlink:href="classgame_1_1_abstract_board.html#a689982e6640633d78008157906c6d63a" target="_top" xlink:title="Status of the game. ">
<polygon fill="none" stroke="#000000" points="452,-488 452,-518 571,-518 571,-488 452,-488"/>
<text text-anchor="start" x="460" y="-506" font-family="Helvetica,sans-Serif" font-size="10.00" fill="#000000">game::AbstractBoard</text>
<text text-anchor="middle" x="511.5" y="-495" font-family="Helvetica,sans-Serif" font-size="10.00" fill="#000000">::checkStatus</text>
</a>
</g>
</g>
<!-- Node42&#45;&gt;Node58 -->
<g id="edge49" class="edge">
<title>Node42&#45;&gt;Node58</title>
<path fill="none" stroke="#191970" d="M99.3122,-420.2191C121.0965,-438.3505 160.4646,-467.8391 200,-481 279.8324,-507.5754 377.3541,-510.0143 441.7767,-507.8145"/>
<polygon fill="#191970" stroke="#191970" points="441.9674,-511.3098 451.8242,-507.4246 441.6959,-504.3151 441.9674,-511.3098"/>
</g>
<!-- Node59 -->
<g id="node18" class="node">
<title>Node59</title>
<g id="a_node18"><a xlink:href="classgame_1_1penguin_1_1_penguin_game.html#aac449b76f27098b1d2218cc51e7f70b4" target="_top" xlink:title="Get the Human player to play, not the penguin one. ">
<polygon fill="none" stroke="#000000" points="200,-390 200,-420 364,-420 364,-390 200,-390"/>
<text text-anchor="start" x="208" y="-408" font-family="Helvetica,sans-Serif" font-size="10.00" fill="#000000">game::penguin::PenguinGame</text>
<text text-anchor="middle" x="282" y="-397" font-family="Helvetica,sans-Serif" font-size="10.00" fill="#000000">::getPlayerToPlay</text>
</a>
</g>
</g>
<!-- Node42&#45;&gt;Node59 -->
<g id="edge19" class="edge">
<title>Node42&#45;&gt;Node59</title>
<path fill="none" stroke="#191970" d="M164.2135,-405C172.5625,-405 181.0824,-405 189.5302,-405"/>
<polygon fill="#191970" stroke="#191970" points="189.7826,-408.5001 199.7826,-405 189.7826,-401.5001 189.7826,-408.5001"/>
</g>
<!-- Node65 -->
<g id="node24" class="node">
<title>Node65</title>
<g id="a_node24"><a xlink:href="classmcts_1_1_m_c_t_s_player.html#a48340fed9c5730f0d64ca177682f575e" target="_top" xlink:title="Returns the best move after running the ai. ">
<polygon fill="none" stroke="#000000" points="203,-236.5 203,-255.5 361,-255.5 361,-236.5 203,-236.5"/>
<text text-anchor="middle" x="282" y="-243.5" font-family="Helvetica,sans-Serif" font-size="10.00" fill="#000000">mcts::MCTSPlayer::bestMove</text>
</a>
</g>
</g>
<!-- Node42&#45;&gt;Node65 -->
<g id="edge27" class="edge">
<title>Node42&#45;&gt;Node65</title>
<path fill="none" stroke="#191970" d="M101.1768,-389.7544C138.9895,-359.6933 222.8521,-293.0226 261.6196,-262.2024"/>
<polygon fill="#191970" stroke="#191970" points="263.9527,-264.8189 269.6024,-255.8561 259.5965,-259.3395 263.9527,-264.8189"/>
</g>
<!-- Node83 -->
<g id="node42" class="node">
<title>Node83</title>
<g id="a_node42"><a xlink:href="classmcts_1_1_m_c_t_s_player.html#a02d0a6f2219decabb51ff9d8c4c9b355" target="_top" xlink:title="Moves the root node to node with targeted cell. ">
<polygon fill="none" stroke="#000000" points="200,-198.5 200,-217.5 364,-217.5 364,-198.5 200,-198.5"/>
<text text-anchor="middle" x="282" y="-205.5" font-family="Helvetica,sans-Serif" font-size="10.00" fill="#000000">mcts::MCTSPlayer::updateTree</text>
</a>
</g>
</g>
<!-- Node42&#45;&gt;Node83 -->
<g id="edge46" class="edge">
<title>Node42&#45;&gt;Node83</title>
<path fill="none" stroke="#191970" d="M87.5207,-389.7645C100.9465,-354.9851 138.7695,-269.4806 200,-227 202.7615,-225.0841 205.6887,-223.3591 208.7296,-221.8062"/>
<polygon fill="#191970" stroke="#191970" points="210.4105,-224.8899 218.1409,-217.6447 207.5796,-218.4878 210.4105,-224.8899"/>
</g>
<!-- Node84 -->
<g id="node43" class="node">
<title>Node84</title>
<g id="a_node43"><a xlink:href="classgame_1_1penguin_1_1_penguin_game.html#aa7fe86e287d704d3bc597893134bd408" target="_top" xlink:title="game::penguin::PenguinGame\l::play">
<polygon fill="none" stroke="#000000" points="200,-111 200,-141 364,-141 364,-111 200,-111"/>
<text text-anchor="start" x="208" y="-129" font-family="Helvetica,sans-Serif" font-size="10.00" fill="#000000">game::penguin::PenguinGame</text>
<text text-anchor="middle" x="282" y="-118" font-family="Helvetica,sans-Serif" font-size="10.00" fill="#000000">::play</text>
</a>
</g>
</g>
<!-- Node42&#45;&gt;Node84 -->
<g id="edge47" class="edge">
<title>Node42&#45;&gt;Node84</title>
<path fill="none" stroke="#191970" d="M87.7191,-389.8088C102.2457,-352.5885 143.4606,-255.0673 200,-189 213.8869,-172.7729 232.5759,-158.0221 248.6047,-146.88"/>
<polygon fill="#191970" stroke="#191970" points="250.8658,-149.5761 257.1885,-141.0747 246.9442,-143.7777 250.8658,-149.5761"/>
</g>
<!-- Node44 -->
<g id="node3" class="node">
<title>Node44</title>
<g id="a_node3"><a xlink:href="classgame_1_1penguin_1_1_print_hex.html#a87a58be4fea97f043e6dbe01a3045c1d" target="_top" xlink:title="game::penguin::PrintHex\l::print">
<polygon fill="none" stroke="#000000" points="443,-590 443,-620 580,-620 580,-590 443,-590"/>
<text text-anchor="start" x="451" y="-608" font-family="Helvetica,sans-Serif" font-size="10.00" fill="#000000">game::penguin::PrintHex</text>
<text text-anchor="middle" x="511.5" y="-597" font-family="Helvetica,sans-Serif" font-size="10.00" fill="#000000">::print</text>
</a>
</g>
</g>
<!-- Node43&#45;&gt;Node44 -->
<g id="edge2" class="edge">
<title>Node43&#45;&gt;Node44</title>
<path fill="none" stroke="#191970" d="M364.2065,-595.373C386.5138,-596.831 410.6097,-598.4059 432.7229,-599.8512"/>
<polygon fill="#191970" stroke="#191970" points="432.5229,-603.3455 442.7299,-600.5052 432.9795,-596.3604 432.5229,-603.3455"/>
</g>
<!-- Node45 -->
<g id="node4" class="node">
<title>Node45</title>
<g id="a_node4"><a xlink:href="classgame_1_1penguin_1_1_board.html#ac9fbe04a302208fcb5f66e717182b6d4" target="_top" xlink:title="Get the Cell. ">
<polygon fill="none" stroke="#000000" points="680.5,-656 680.5,-686 804.5,-686 804.5,-656 680.5,-656"/>
<text text-anchor="start" x="688.5" y="-674" font-family="Helvetica,sans-Serif" font-size="10.00" fill="#000000">game::penguin::Board</text>
<text text-anchor="middle" x="742.5" y="-663" font-family="Helvetica,sans-Serif" font-size="10.00" fill="#000000">::getCell</text>
</a>
</g>
</g>
<!-- Node44&#45;&gt;Node45 -->
<g id="edge3" class="edge">
<title>Node44&#45;&gt;Node45</title>
<path fill="none" stroke="#191970" d="M564.2065,-620.059C598.5303,-629.8658 643.4839,-642.7097 679.6645,-653.047"/>
<polygon fill="#191970" stroke="#191970" points="679.0437,-656.5096 689.6205,-655.8916 680.9668,-649.779 679.0437,-656.5096"/>
</g>
<!-- Node46 -->
<g id="node5" class="node">
<title>Node46</title>
<g id="a_node5"><a xlink:href="classgame_1_1penguin_1_1_board_cell.html#a6a978b7e72ef20475771eb6e453e0a39" target="_top" xlink:title="tells if the cell is gone or not ">
<polygon fill="none" stroke="#000000" points="671,-446 671,-476 814,-476 814,-446 671,-446"/>
<text text-anchor="start" x="679" y="-464" font-family="Helvetica,sans-Serif" font-size="10.00" fill="#000000">game::penguin::BoardCell</text>
<text text-anchor="middle" x="742.5" y="-453" font-family="Helvetica,sans-Serif" font-size="10.00" fill="#000000">::isGone</text>
</a>
</g>
</g>
<!-- Node44&#45;&gt;Node46 -->
<g id="edge4" class="edge">
<title>Node44&#45;&gt;Node46</title>
<path fill="none" stroke="#191970" d="M536.4187,-589.7761C559.6991,-575.1015 594.9722,-551.6908 623,-528 640.5227,-513.1887 639.7085,-503.42 659,-491 665.4657,-486.8373 672.5851,-483.1573 679.8572,-479.93"/>
<polygon fill="#191970" stroke="#191970" points="681.2226,-483.1529 689.1126,-476.082 678.5352,-476.6893 681.2226,-483.1529"/>
</g>
<!-- Node47 -->
<g id="node6" class="node">
<title>Node47</title>
<g id="a_node6"><a xlink:href="classgame_1_1penguin_1_1_board_cell.html#a011487b961b356a891144edcccc1473f" target="_top" xlink:title="Get the penguin standing on the cell. ">
<polygon fill="none" stroke="#000000" points="1087,-418 1087,-448 1230,-448 1230,-418 1087,-418"/>
<text text-anchor="start" x="1095" y="-436" font-family="Helvetica,sans-Serif" font-size="10.00" fill="#000000">game::penguin::BoardCell</text>
<text text-anchor="middle" x="1158.5" y="-425" font-family="Helvetica,sans-Serif" font-size="10.00" fill="#000000">::getOwner</text>
</a>
</g>
</g>
<!-- Node44&#45;&gt;Node47 -->
<g id="edge5" class="edge">
<title>Node44&#45;&gt;Node47</title>
<path fill="none" stroke="#191970" d="M557.4778,-589.9437C586.4801,-580.6249 624.7907,-568.6411 659,-559 809.0108,-516.723 986.2503,-473.6175 1084.1354,-450.4019"/>
<polygon fill="#191970" stroke="#191970" points="1085.0111,-453.7914 1093.9355,-448.0812 1083.398,-446.9798 1085.0111,-453.7914"/>
</g>
<!-- Node48 -->
<g id="node7" class="node">
<title>Node48</title>
<g id="a_node7"><a xlink:href="classgame_1_1_abstract_pawn.html#a49354506912d0e1bf5272627aa2bc86e" target="_top" xlink:title="Get pawn&#39;s id. ">
<polygon fill="none" stroke="#000000" points="1100.5,-614 1100.5,-644 1216.5,-644 1216.5,-614 1100.5,-614"/>
<text text-anchor="start" x="1108.5" y="-632" font-family="Helvetica,sans-Serif" font-size="10.00" fill="#000000">game::AbstractPawn</text>
<text text-anchor="middle" x="1158.5" y="-621" font-family="Helvetica,sans-Serif" font-size="10.00" fill="#000000">::getId</text>
</a>
</g>
</g>
<!-- Node44&#45;&gt;Node48 -->
<g id="edge6" class="edge">
<title>Node44&#45;&gt;Node48</title>
<path fill="none" stroke="#191970" d="M580.1278,-607.5457C704.6031,-612.163 966.1812,-621.8661 1090.3239,-626.4711"/>
<polygon fill="#191970" stroke="#191970" points="1090.3389,-629.9739 1100.4618,-626.8471 1090.5985,-622.9787 1090.3389,-629.9739"/>
</g>
<!-- Node49 -->
<g id="node8" class="node">
<title>Node49</title>
<g id="a_node8"><a xlink:href="classgame_1_1penguin_1_1_board_cell.html#abe8f2dc0eef3aed1e8701dc0b021c5a6" target="_top" xlink:title="Get the number of fish contained inside the cell. ">
<polygon fill="none" stroke="#000000" points="671,-568 671,-598 814,-598 814,-568 671,-568"/>
<text text-anchor="start" x="679" y="-586" font-family="Helvetica,sans-Serif" font-size="10.00" fill="#000000">game::penguin::BoardCell</text>
<text text-anchor="middle" x="742.5" y="-575" font-family="Helvetica,sans-Serif" font-size="10.00" fill="#000000">::getFish</text>
</a>
</g>
</g>
<!-- Node44&#45;&gt;Node49 -->
<g id="edge7" class="edge">
<title>Node44&#45;&gt;Node49</title>
<path fill="none" stroke="#191970" d="M580.1822,-598.4588C605.5366,-596.0441 634.5142,-593.2844 660.9016,-590.7713"/>
<polygon fill="#191970" stroke="#191970" points="661.2519,-594.2538 670.875,-589.8214 660.5882,-587.2854 661.2519,-594.2538"/>
</g>
<!-- Node55 -->
<g id="node14" class="node">
<title>Node55</title>
<g id="a_node14"><a xlink:href="namespacegame.html#a0fb03836882da582210ce59b390ad61f" target="_top" xlink:title="Converts a cube position in an offset system. ">
<polygon fill="none" stroke="#000000" points="670,-743.5 670,-762.5 815,-762.5 815,-743.5 670,-743.5"/>
<text text-anchor="middle" x="742.5" y="-750.5" font-family="Helvetica,sans-Serif" font-size="10.00" fill="#000000">game::hex_cube_to_offset</text>
</a>
</g>
</g>
<!-- Node44&#45;&gt;Node55 -->
<g id="edge15" class="edge">
<title>Node44&#45;&gt;Node55</title>
<path fill="none" stroke="#191970" d="M524.0008,-620.0217C547.4923,-647.2137 601.1026,-704.5054 659,-734 663.6013,-736.3441 668.4912,-738.4018 673.5066,-740.2078"/>
<polygon fill="#191970" stroke="#191970" points="672.6713,-743.6165 683.2635,-743.3795 674.8355,-736.9594 672.6713,-743.6165"/>
</g>
<!-- Node56 -->
<g id="node15" class="node">
<title>Node56</title>
<g id="a_node15"><a xlink:href="namespacegame.html#a758b3d0eea6eae0e6ce5ea1b8dc90ed9" target="_top" xlink:title="Converts an axial position to a cube position in an hexagonal grid. ">
<polygon fill="none" stroke="#000000" points="672,-705.5 672,-724.5 813,-724.5 813,-705.5 672,-705.5"/>
<text text-anchor="middle" x="742.5" y="-712.5" font-family="Helvetica,sans-Serif" font-size="10.00" fill="#000000">game::hex_axial_to_cube</text>
</a>
</g>
</g>
<!-- Node44&#45;&gt;Node56 -->
<g id="edge16" class="edge">
<title>Node44&#45;&gt;Node56</title>
<path fill="none" stroke="#191970" d="M531.3503,-620.2324C558.6488,-640.4581 609.985,-675.9517 659,-696 665.1944,-698.5337 671.7921,-700.7638 678.4599,-702.7187"/>
<polygon fill="#191970" stroke="#191970" points="677.6714,-706.1315 688.2402,-705.3894 679.5154,-699.3787 677.6714,-706.1315"/>
</g>
<!-- Node50 -->
<g id="node9" class="node">
<title>Node50</title>
<g id="a_node9"><a xlink:href="classgame_1_1penguin_1_1_board_cell.html#a1ed5a3134f831bef111c6294c07388bf" target="_top" xlink:title="game::penguin::BoardCell\l::equals_to">
<polygon fill="none" stroke="#000000" points="875.5,-568 875.5,-598 1018.5,-598 1018.5,-568 875.5,-568"/>
<text text-anchor="start" x="883.5" y="-586" font-family="Helvetica,sans-Serif" font-size="10.00" fill="#000000">game::penguin::BoardCell</text>
<text text-anchor="middle" x="947" y="-575" font-family="Helvetica,sans-Serif" font-size="10.00" fill="#000000">::equals_to</text>
</a>
</g>
</g>
<!-- Node49&#45;&gt;Node50 -->
<g id="edge8" class="edge">
<title>Node49&#45;&gt;Node50</title>
<path fill="none" stroke="#191970" d="M814.0242,-583C830.4301,-583 847.9993,-583 864.815,-583"/>
<polygon fill="#191970" stroke="#191970" points="865.1706,-586.5001 875.1705,-583 865.1705,-579.5001 865.1706,-586.5001"/>
</g>
<!-- Node51 -->
<g id="node10" class="node">
<title>Node51</title>
<g id="a_node10"><a xlink:href="classgame_1_1penguin_1_1_board_cell.html#a4d3577488552bf0ba4822ac265532825" target="_top" xlink:title="game::penguin::BoardCell\l::clone">
<polygon fill="none" stroke="#000000" points="875.5,-519 875.5,-549 1018.5,-549 1018.5,-519 875.5,-519"/>
<text text-anchor="start" x="883.5" y="-537" font-family="Helvetica,sans-Serif" font-size="10.00" fill="#000000">game::penguin::BoardCell</text>
<text text-anchor="middle" x="947" y="-526" font-family="Helvetica,sans-Serif" font-size="10.00" fill="#000000">::clone</text>
</a>
</g>
</g>
<!-- Node49&#45;&gt;Node51 -->
<g id="edge10" class="edge">
<title>Node49&#45;&gt;Node51</title>
<path fill="none" stroke="#191970" d="M805.2465,-567.9654C827.1333,-562.7211 851.8736,-556.7931 874.4883,-551.3745"/>
<polygon fill="#191970" stroke="#191970" points="875.463,-554.7401 884.3721,-549.0062 873.8318,-547.9327 875.463,-554.7401"/>
</g>
<!-- Node50&#45;&gt;Node48 -->
<g id="edge9" class="edge">
<title>Node50&#45;&gt;Node48</title>
<path fill="none" stroke="#191970" d="M1016.253,-598.0621C1040.0766,-603.2436 1066.7169,-609.0377 1090.4444,-614.1983"/>
<polygon fill="#191970" stroke="#191970" points="1089.9028,-617.6623 1100.4182,-616.3676 1091.3905,-610.8222 1089.9028,-617.6623"/>
</g>
<!-- Node51&#45;&gt;Node47 -->
<g id="edge14" class="edge">
<title>Node51&#45;&gt;Node47</title>
<path fill="none" stroke="#191970" d="M1004.1028,-518.9129C1013.8995,-514.9397 1023.6121,-510.0265 1032,-504 1053.0835,-488.852 1046.401,-472.4035 1068,-458 1071.0979,-455.9341 1074.3636,-454.0378 1077.7424,-452.2974"/>
<polygon fill="#191970" stroke="#191970" points="1079.3135,-455.4269 1086.9131,-448.0447 1076.3686,-449.0765 1079.3135,-455.4269"/>
</g>
<!-- Node52 -->
<g id="node11" class="node">
<title>Node52</title>
<g id="a_node11"><a xlink:href="classgame_1_1penguin_1_1_board_cell.html#a2c76e638f5d0d4374b422756b08cb61f" target="_top" xlink:title="Construct a new Board Cell object. ">
<polygon fill="none" stroke="#000000" points="1087,-467 1087,-497 1230,-497 1230,-467 1087,-467"/>
<text text-anchor="start" x="1095" y="-485" font-family="Helvetica,sans-Serif" font-size="10.00" fill="#000000">game::penguin::BoardCell</text>
<text text-anchor="middle" x="1158.5" y="-474" font-family="Helvetica,sans-Serif" font-size="10.00" fill="#000000">::BoardCell</text>
</a>
</g>
</g>
<!-- Node51&#45;&gt;Node52 -->
<g id="edge11" class="edge">
<title>Node51&#45;&gt;Node52</title>
<path fill="none" stroke="#191970" d="M1008.1746,-518.9594C1033.0559,-512.8421 1061.967,-505.7339 1087.7496,-499.3949"/>
<polygon fill="#191970" stroke="#191970" points="1088.5878,-502.7931 1097.4629,-497.0068 1086.9165,-495.9956 1088.5878,-502.7931"/>
</g>
<!-- Node53 -->
<g id="node12" class="node">
<title>Node53</title>
<g id="a_node12"><a xlink:href="classgame_1_1penguin_1_1_board_cell.html#a12cd55e333821bcecaa201dde758c1a1" target="_top" xlink:title="Is a penguin on the cell. ">
<polygon fill="none" stroke="#000000" points="1087,-565 1087,-595 1230,-595 1230,-565 1087,-565"/>
<text text-anchor="start" x="1095" y="-583" font-family="Helvetica,sans-Serif" font-size="10.00" fill="#000000">game::penguin::BoardCell</text>
<text text-anchor="middle" x="1158.5" y="-572" font-family="Helvetica,sans-Serif" font-size="10.00" fill="#000000">::isOwned</text>
</a>
</g>
</g>
<!-- Node51&#45;&gt;Node53 -->
<g id="edge12" class="edge">
<title>Node51&#45;&gt;Node53</title>
<path fill="none" stroke="#191970" d="M1016.253,-549.0621C1036.4417,-553.453 1058.6532,-558.2839 1079.4006,-562.7963"/>
<polygon fill="#191970" stroke="#191970" points="1078.9374,-566.2774 1089.4528,-564.9826 1080.4251,-559.4373 1078.9374,-566.2774"/>
</g>
<!-- Node54 -->
<g id="node13" class="node">
<title>Node54</title>
<g id="a_node13"><a xlink:href="classgame_1_1penguin_1_1_board.html#acae84c13dacef3bd988d1ea9a41d055f" target="_top" xlink:title="Get a player by it&#39;s id. ">
<polygon fill="none" stroke="#000000" points="1096.5,-516 1096.5,-546 1220.5,-546 1220.5,-516 1096.5,-516"/>
<text text-anchor="start" x="1104.5" y="-534" font-family="Helvetica,sans-Serif" font-size="10.00" fill="#000000">game::penguin::Board</text>
<text text-anchor="middle" x="1158.5" y="-523" font-family="Helvetica,sans-Serif" font-size="10.00" fill="#000000">::getPawnById</text>
</a>
</g>
</g>
<!-- Node51&#45;&gt;Node54 -->
<g id="edge13" class="edge">
<title>Node51&#45;&gt;Node54</title>
<path fill="none" stroke="#191970" d="M1018.6043,-532.9843C1040.3298,-532.6762 1064.2093,-532.3375 1085.9936,-532.0285"/>
<polygon fill="#191970" stroke="#191970" points="1086.2198,-535.5257 1096.1691,-531.8841 1086.1205,-528.5264 1086.2198,-535.5257"/>
</g>
<!-- Node57&#45;&gt;Node58 -->
<g id="edge18" class="edge">
<title>Node57&#45;&gt;Node58</title>
<path fill="none" stroke="#191970" d="M355.2462,-471.0003C383.0525,-476.6949 414.6166,-483.159 442.0611,-488.7794"/>
<polygon fill="#191970" stroke="#191970" points="441.4723,-492.2314 451.9712,-490.8089 442.8768,-485.3737 441.4723,-492.2314"/>
</g>
<!-- Node60 -->
<g id="node19" class="node">
<title>Node60</title>
<g id="a_node19"><a xlink:href="classgame_1_1penguin_1_1_penguin_game.html#a7b65d0a9742a9cf07296839373a56143" target="_top" xlink:title="game::penguin::PenguinGame\l::getBoard">
<polygon fill="none" stroke="#000000" points="429.5,-390 429.5,-420 593.5,-420 593.5,-390 429.5,-390"/>
<text text-anchor="start" x="437.5" y="-408" font-family="Helvetica,sans-Serif" font-size="10.00" fill="#000000">game::penguin::PenguinGame</text>
<text text-anchor="middle" x="511.5" y="-397" font-family="Helvetica,sans-Serif" font-size="10.00" fill="#000000">::getBoard</text>
</a>
</g>
</g>
<!-- Node59&#45;&gt;Node60 -->
<g id="edge20" class="edge">
<title>Node59&#45;&gt;Node60</title>
<path fill="none" stroke="#191970" d="M364.2065,-405C382.1126,-405 401.1712,-405 419.4317,-405"/>
<polygon fill="#191970" stroke="#191970" points="419.482,-408.5001 429.4819,-405 419.4819,-401.5001 419.482,-408.5001"/>
</g>
<!-- Node61 -->
<g id="node20" class="node">
<title>Node61</title>
<g id="a_node20"><a xlink:href="classgame_1_1penguin_1_1_board.html#ae85ef3019829098c5ad5afb1c3ebceb5" target="_top" xlink:title="Is the player able to move. ">
<polygon fill="none" stroke="#000000" points="449.5,-341 449.5,-371 573.5,-371 573.5,-341 449.5,-341"/>
<text text-anchor="start" x="457.5" y="-359" font-family="Helvetica,sans-Serif" font-size="10.00" fill="#000000">game::penguin::Board</text>
<text text-anchor="middle" x="511.5" y="-348" font-family="Helvetica,sans-Serif" font-size="10.00" fill="#000000">::isAbleToMove</text>
</a>
</g>
</g>
<!-- Node59&#45;&gt;Node61 -->
<g id="edge21" class="edge">
<title>Node59&#45;&gt;Node61</title>
<path fill="none" stroke="#191970" d="M352.4172,-389.9654C379.9948,-384.0774 411.6091,-377.3275 439.3517,-371.4042"/>
<polygon fill="#191970" stroke="#191970" points="440.334,-374.7734 449.3828,-369.2625 438.8724,-367.9277 440.334,-374.7734"/>
</g>
<!-- Node64 -->
<g id="node23" class="node">
<title>Node64</title>
<g id="a_node23"><a xlink:href="classgame_1_1penguin_1_1_board.html#a8728b4381bc2e007710d275bb226cf95" target="_top" xlink:title="Gets the player corresponding to a certain id. ">
<polygon fill="none" stroke="#000000" points="449.5,-439 449.5,-469 573.5,-469 573.5,-439 449.5,-439"/>
<text text-anchor="start" x="457.5" y="-457" font-family="Helvetica,sans-Serif" font-size="10.00" fill="#000000">game::penguin::Board</text>
<text text-anchor="middle" x="511.5" y="-446" font-family="Helvetica,sans-Serif" font-size="10.00" fill="#000000">::getPlayerById</text>
</a>
</g>
</g>
<!-- Node59&#45;&gt;Node64 -->
<g id="edge26" class="edge">
<title>Node59&#45;&gt;Node64</title>
<path fill="none" stroke="#191970" d="M352.4172,-420.0346C379.9948,-425.9226 411.6091,-432.6725 439.3517,-438.5958"/>
<polygon fill="#191970" stroke="#191970" points="438.8724,-442.0723 449.3828,-440.7375 440.334,-435.2266 438.8724,-442.0723"/>
</g>
<!-- Node61&#45;&gt;Node46 -->
<g id="edge24" class="edge">
<title>Node61&#45;&gt;Node46</title>
<path fill="none" stroke="#191970" d="M573.7553,-361.1849C590.8435,-364.8505 608.6097,-370.9421 623,-381 647.2516,-397.9504 635.2617,-419.3379 659,-437 660.8681,-438.39 662.8146,-439.6996 664.8232,-440.9334"/>
<polygon fill="#191970" stroke="#191970" points="663.5145,-444.2043 673.9772,-445.8727 666.8386,-438.0438 663.5145,-444.2043"/>
</g>
<!-- Node61&#45;&gt;Node47 -->
<g id="edge25" class="edge">
<title>Node61&#45;&gt;Node47</title>
<path fill="none" stroke="#191970" d="M573.8029,-347.215C600.0451,-343.9322 630.9491,-340.6112 659,-339 733.1001,-334.7439 752.4809,-328.8076 826,-339 929.1463,-353.2998 1045.2911,-391.4275 1109.3802,-414.4935"/>
<polygon fill="#191970" stroke="#191970" points="1108.2357,-417.8014 1118.8298,-417.9214 1110.6228,-411.221 1108.2357,-417.8014"/>
</g>
<!-- Node62 -->
<g id="node21" class="node">
<title>Node62</title>
<g id="a_node21"><a xlink:href="classgame_1_1penguin_1_1_human_player.html#a28c5485b12e0c8fcd340458255c06587" target="_top" xlink:title="Get the penguins possessed by the player. ">
<polygon fill="none" stroke="#000000" points="662,-397 662,-427 823,-427 823,-397 662,-397"/>
<text text-anchor="start" x="670" y="-415" font-family="Helvetica,sans-Serif" font-size="10.00" fill="#000000">game::penguin::HumanPlayer</text>
<text text-anchor="middle" x="742.5" y="-404" font-family="Helvetica,sans-Serif" font-size="10.00" fill="#000000">::getPenguins</text>
</a>
</g>
</g>
<!-- Node61&#45;&gt;Node62 -->
<g id="edge22" class="edge">
<title>Node61&#45;&gt;Node62</title>
<path fill="none" stroke="#191970" d="M573.5111,-369.5195C589.648,-373.1428 606.9953,-377.131 623,-381 640.241,-385.1679 658.8234,-389.8808 676.0779,-394.3506"/>
<polygon fill="#191970" stroke="#191970" points="675.5045,-397.8179 686.0636,-396.9484 677.2669,-391.0434 675.5045,-397.8179"/>
</g>
<!-- Node63 -->
<g id="node22" class="node">
<title>Node63</title>
<g id="a_node22"><a xlink:href="classgame_1_1penguin_1_1_board_cell.html#a802b2f75d1e3136146625266f6a2c03a" target="_top" xlink:title="Get the Position object. ">
<polygon fill="none" stroke="#000000" points="671,-348 671,-378 814,-378 814,-348 671,-348"/>
<text text-anchor="start" x="679" y="-366" font-family="Helvetica,sans-Serif" font-size="10.00" fill="#000000">game::penguin::BoardCell</text>
<text text-anchor="middle" x="742.5" y="-355" font-family="Helvetica,sans-Serif" font-size="10.00" fill="#000000">::getPosition</text>
</a>
</g>
</g>
<!-- Node61&#45;&gt;Node63 -->
<g id="edge23" class="edge">
<title>Node61&#45;&gt;Node63</title>
<path fill="none" stroke="#191970" d="M573.7076,-357.8851C600.3669,-358.6929 631.8777,-359.6478 660.4118,-360.5125"/>
<polygon fill="#191970" stroke="#191970" points="660.6736,-364.0219 670.7751,-360.8265 660.8857,-357.0251 660.6736,-364.0219"/>
</g>
<!-- Node66 -->
<g id="node25" class="node">
<title>Node66</title>
<g id="a_node25"><a xlink:href="classmcts_1_1_m_c_t_s_player.html#a53677f7c7f9cfe4b7999af8abcfb8641" target="_top" xlink:title="Unleashe the power of the MCTS !!!! ">
<polygon fill="none" stroke="#000000" points="422.5,-198.5 422.5,-217.5 600.5,-217.5 600.5,-198.5 422.5,-198.5"/>
<text text-anchor="middle" x="511.5" y="-205.5" font-family="Helvetica,sans-Serif" font-size="10.00" fill="#000000">mcts::MCTSPlayer::unleash_mcts</text>
</a>
</g>
</g>
<!-- Node65&#45;&gt;Node66 -->
<g id="edge28" class="edge">
<title>Node65&#45;&gt;Node66</title>
<path fill="none" stroke="#191970" d="M339.6163,-236.46C371.2631,-231.2201 410.6937,-224.6912 443.8032,-219.2091"/>
<polygon fill="#191970" stroke="#191970" points="444.5661,-222.6305 453.86,-217.5439 443.4225,-215.7245 444.5661,-222.6305"/>
</g>
<!-- Node77 -->
<g id="node36" class="node">
<title>Node77</title>
<g id="a_node36"><a xlink:href="classmcts_1_1_m_c_t_s_player.html#a9e8202cd2530b6ecc20f873d899823da" target="_top" xlink:title="Join the multiple trees into 1 so that we can get the best move. ">
<polygon fill="none" stroke="#000000" points="434.5,-160.5 434.5,-179.5 588.5,-179.5 588.5,-160.5 434.5,-160.5"/>
<text text-anchor="middle" x="511.5" y="-167.5" font-family="Helvetica,sans-Serif" font-size="10.00" fill="#000000">mcts::MCTSPlayer::joinTrees</text>
</a>
</g>
</g>
<!-- Node65&#45;&gt;Node77 -->
<g id="edge40" class="edge">
<title>Node65&#45;&gt;Node77</title>
<path fill="none" stroke="#191970" d="M342.2326,-236.3661C349.8261,-233.9182 357.2789,-230.8487 364,-227 384.1887,-215.4393 379.4796,-199.9612 400,-189 407.6765,-184.8995 416.037,-181.6494 424.6145,-179.078"/>
<polygon fill="#191970" stroke="#191970" points="425.619,-182.4323 434.3661,-176.4541 423.8001,-175.6727 425.619,-182.4323"/>
</g>
<!-- Node79 -->
<g id="node38" class="node">
<title>Node79</title>
<g id="a_node38"><a xlink:href="classmcts_1_1_tree.html#a0431bd1074e29e682fe3c7bc6a3aee89" target="_top" xlink:title="mcts::Tree::bestMove">
<polygon fill="none" stroke="#000000" points="451.5,-122.5 451.5,-141.5 571.5,-141.5 571.5,-122.5 451.5,-122.5"/>
<text text-anchor="middle" x="511.5" y="-129.5" font-family="Helvetica,sans-Serif" font-size="10.00" fill="#000000">mcts::Tree::bestMove</text>
</a>
</g>
</g>
<!-- Node65&#45;&gt;Node79 -->
<g id="edge42" class="edge">
<title>Node65&#45;&gt;Node79</title>
<path fill="none" stroke="#191970" d="M348.0823,-236.4374C353.8014,-233.9481 359.2201,-230.85 364,-227 393.1079,-203.555 370.2143,-173.5776 400,-151 411.8884,-141.9886 426.5399,-136.6523 441.2677,-133.6036"/>
<polygon fill="#191970" stroke="#191970" points="442.187,-136.9965 451.443,-131.8413 440.9924,-130.0992 442.187,-136.9965"/>
</g>
<!-- Node81 -->
<g id="node40" class="node">
<title>Node81</title>
<g id="a_node40"><a xlink:href="classmcts_1_1_m_c_t_s_player.html#aa68be6bbbbd01044d42b9c2d0149b366" target="_top" xlink:title="Get the Corresponding Move object. ">
<polygon fill="none" stroke="#000000" points="400,-274.5 400,-293.5 623,-293.5 623,-274.5 400,-274.5"/>
<text text-anchor="middle" x="511.5" y="-281.5" font-family="Helvetica,sans-Serif" font-size="10.00" fill="#000000">mcts::MCTSPlayer::getCorrespondingMove</text>
</a>
</g>
</g>
<!-- Node65&#45;&gt;Node81 -->
<g id="edge44" class="edge">
<title>Node65&#45;&gt;Node81</title>
<path fill="none" stroke="#191970" d="M339.6163,-255.54C371.2631,-260.7799 410.6937,-267.3088 443.8032,-272.7909"/>
<polygon fill="#191970" stroke="#191970" points="443.4225,-276.2755 453.86,-274.4561 444.5661,-269.3695 443.4225,-276.2755"/>
</g>
<!-- Node82 -->
<g id="node41" class="node">
<title>Node82</title>
<g id="a_node41"><a xlink:href="classmcts_1_1_tree.html#a75496cb3742583b221c1b95d8fd85718" target="_top" xlink:title="mcts::Tree::getRootNode">
<polygon fill="none" stroke="#000000" points="443.5,-236.5 443.5,-255.5 579.5,-255.5 579.5,-236.5 443.5,-236.5"/>
<text text-anchor="middle" x="511.5" y="-243.5" font-family="Helvetica,sans-Serif" font-size="10.00" fill="#000000">mcts::Tree::getRootNode</text>
</a>
</g>
</g>
<!-- Node65&#45;&gt;Node82 -->
<g id="edge45" class="edge">
<title>Node65&#45;&gt;Node82</title>
<path fill="none" stroke="#191970" d="M361.3022,-246C384.5516,-246 409.9538,-246 433.1439,-246"/>
<polygon fill="#191970" stroke="#191970" points="433.2796,-249.5001 443.2796,-246 433.2795,-242.5001 433.2796,-249.5001"/>
</g>
<!-- Node67 -->
<g id="node26" class="node">
<title>Node67</title>
<g id="a_node26"><a xlink:href="classmcts_1_1_m_c_t_s.html#ae8b2818e7a34e858e9dd284d33bca874" target="_top" xlink:title="Start the mcts. ">
<polygon fill="none" stroke="#000000" points="689,-184.5 689,-203.5 796,-203.5 796,-184.5 689,-184.5"/>
<text text-anchor="middle" x="742.5" y="-191.5" font-family="Helvetica,sans-Serif" font-size="10.00" fill="#000000">mcts::MCTS::begin</text>
</a>
</g>
</g>
<!-- Node66&#45;&gt;Node67 -->
<g id="edge29" class="edge">
<title>Node66&#45;&gt;Node67</title>
<path fill="none" stroke="#191970" d="M600.8106,-202.5872C626.8056,-201.0118 654.6689,-199.3231 678.7491,-197.8637"/>
<polygon fill="#191970" stroke="#191970" points="679.0512,-201.3519 688.8211,-197.2533 678.6276,-194.3647 679.0512,-201.3519"/>
</g>
<!-- Node68 -->
<g id="node27" class="node">
<title>Node68</title>
<g id="a_node27"><a xlink:href="structmcts_1_1timer.html#af6b8b0201318b987bcab531de4b964f9" target="_top" xlink:title="mcts::timer::milliseconds\l_elapsed">
<polygon fill="none" stroke="#000000" points="877,-127 877,-157 1017,-157 1017,-127 877,-127"/>
<text text-anchor="start" x="885" y="-145" font-family="Helvetica,sans-Serif" font-size="10.00" fill="#000000">mcts::timer::milliseconds</text>
<text text-anchor="middle" x="947" y="-134" font-family="Helvetica,sans-Serif" font-size="10.00" fill="#000000">_elapsed</text>
</a>
</g>
</g>
<!-- Node67&#45;&gt;Node68 -->
<g id="edge30" class="edge">
<title>Node67&#45;&gt;Node68</title>
<path fill="none" stroke="#191970" d="M785.9214,-184.4876C798.8452,-181.5572 813.0192,-178.2454 826,-175 844.8907,-170.277 865.3489,-164.8268 883.9742,-159.7338"/>
<polygon fill="#191970" stroke="#191970" points="885.1038,-163.0532 893.8191,-157.0287 883.2491,-156.3034 885.1038,-163.0532"/>
</g>
<!-- Node69 -->
<g id="node28" class="node">
<title>Node69</title>
<g id="a_node28"><a xlink:href="classmcts_1_1_m_c_t_s.html#a5a3c4a056b0611c19839d6757871653b" target="_top" xlink:title="mcts::MCTS::selectBestChild\lAndDoAction">
<polygon fill="none" stroke="#000000" points="869.5,-39 869.5,-69 1024.5,-69 1024.5,-39 869.5,-39"/>
<text text-anchor="start" x="877.5" y="-57" font-family="Helvetica,sans-Serif" font-size="10.00" fill="#000000">mcts::MCTS::selectBestChild</text>
<text text-anchor="middle" x="947" y="-46" font-family="Helvetica,sans-Serif" font-size="10.00" fill="#000000">AndDoAction</text>
</a>
</g>
</g>
<!-- Node67&#45;&gt;Node69 -->
<g id="edge31" class="edge">
<title>Node67&#45;&gt;Node69</title>
<path fill="none" stroke="#191970" d="M796.0056,-189.8229C806.8647,-186.8954 817.5361,-182.2589 826,-175 859.0153,-146.6849 830.6749,-114.1743 862,-84 865.9447,-80.2002 870.3996,-76.8786 875.1515,-73.9756"/>
<polygon fill="#191970" stroke="#191970" points="876.8567,-77.0324 883.9795,-69.1891 873.5202,-70.8787 876.8567,-77.0324"/>
</g>
<!-- Node70 -->
<g id="node29" class="node">
<title>Node70</title>
<g id="a_node29"><a xlink:href="classmcts_1_1_m_c_t_s.html#a9b161c003bc21fe3910d7800c09fff1d" target="_top" xlink:title="mcts::MCTS::doActionOnBoard">
<polygon fill="none" stroke="#000000" points="1076.5,-85.5 1076.5,-104.5 1240.5,-104.5 1240.5,-85.5 1076.5,-85.5"/>
<text text-anchor="middle" x="1158.5" y="-92.5" font-family="Helvetica,sans-Serif" font-size="10.00" fill="#000000">mcts::MCTS::doActionOnBoard</text>
</a>
</g>
</g>
<!-- Node67&#45;&gt;Node70 -->
<g id="edge36" class="edge">
<title>Node67&#45;&gt;Node70</title>
<path fill="none" stroke="#191970" d="M796.3563,-188.2431C806.8324,-185.3885 817.2608,-181.1812 826,-175 850.4624,-157.6978 836.3383,-133.4679 862,-118 932.5793,-75.4574 1030.4097,-77.0238 1094.0722,-84.234"/>
<polygon fill="#191970" stroke="#191970" points="1094.0274,-87.7541 1104.3762,-85.484 1094.8705,-80.8051 1094.0274,-87.7541"/>
</g>
<!-- Node72 -->
<g id="node31" class="node">
<title>Node72</title>
<g id="a_node31"><a xlink:href="classmcts_1_1_m_c_t_s.html#a8c65e74d070a037e5ad0331a39379c9c" target="_top" xlink:title="mcts::MCTS::expandNode">
<polygon fill="none" stroke="#000000" points="876.5,-.5 876.5,-19.5 1017.5,-19.5 1017.5,-.5 876.5,-.5"/>
<text text-anchor="middle" x="947" y="-7.5" font-family="Helvetica,sans-Serif" font-size="10.00" fill="#000000">mcts::MCTS::expandNode</text>
</a>
</g>
</g>
<!-- Node67&#45;&gt;Node72 -->
<g id="edge34" class="edge">
<title>Node67&#45;&gt;Node72</title>
<path fill="none" stroke="#191970" d="M796.3357,-190.772C807.3046,-187.8082 817.9388,-182.9173 826,-175 873.6814,-128.17 814.2292,-75.7388 862,-29 863.7124,-27.3245 865.5385,-25.7837 867.4576,-24.3672"/>
<polygon fill="#191970" stroke="#191970" points="869.6815,-27.111 876.4034,-18.9215 866.0416,-21.1317 869.6815,-27.111"/>
</g>
<!-- Node73 -->
<g id="node32" class="node">
<title>Node73</title>
<g id="a_node32"><a xlink:href="classmcts_1_1_m_c_t_s.html#a6b5686f91610bb4f46c395634a17a5b8" target="_top" xlink:title="mcts::MCTS::randomChoose\lChildOrFallbackOnNode">
<polygon fill="none" stroke="#000000" points="870.5,-264 870.5,-294 1023.5,-294 1023.5,-264 870.5,-264"/>
<text text-anchor="start" x="878.5" y="-282" font-family="Helvetica,sans-Serif" font-size="10.00" fill="#000000">mcts::MCTS::randomChoose</text>
<text text-anchor="middle" x="947" y="-271" font-family="Helvetica,sans-Serif" font-size="10.00" fill="#000000">ChildOrFallbackOnNode</text>
</a>
</g>
</g>
<!-- Node67&#45;&gt;Node73 -->
<g id="edge35" class="edge">
<title>Node67&#45;&gt;Node73</title>
<path fill="none" stroke="#191970" d="M759.0808,-203.5241C781.7623,-216.2711 823.9916,-239.0088 862,-254 867.916,-256.3334 874.138,-258.5651 880.4131,-260.6672"/>
<polygon fill="#191970" stroke="#191970" points="879.6892,-264.1115 890.281,-263.8597 881.8439,-257.4514 879.6892,-264.1115"/>
</g>
<!-- Node74 -->
<g id="node33" class="node">
<title>Node74</title>
<g id="a_node33"><a xlink:href="classmcts_1_1_m_c_t_s.html#ad465558c1f4933cae2a32ff7394fc49b" target="_top" xlink:title="mcts::MCTS::randomSimulation">
<polygon fill="none" stroke="#000000" points="862,-225.5 862,-244.5 1032,-244.5 1032,-225.5 862,-225.5"/>
<text text-anchor="middle" x="947" y="-232.5" font-family="Helvetica,sans-Serif" font-size="10.00" fill="#000000">mcts::MCTS::randomSimulation</text>
</a>
</g>
</g>
<!-- Node67&#45;&gt;Node74 -->
<g id="edge37" class="edge">
<title>Node67&#45;&gt;Node74</title>
<path fill="none" stroke="#191970" d="M789.9304,-203.5093C819.6351,-209.4647 858.1034,-217.1772 889.5352,-223.4789"/>
<polygon fill="#191970" stroke="#191970" points="888.9801,-226.9372 899.473,-225.4714 890.3562,-220.0738 888.9801,-226.9372"/>
</g>
<!-- Node76 -->
<g id="node35" class="node">
<title>Node76</title>
<g id="a_node35"><a xlink:href="classmcts_1_1_m_c_t_s.html#a53275dba0c93543b2fa8c24ad928e4a8" target="_top" xlink:title="mcts::MCTS::backPropagate\lAndRevertAction">
<polygon fill="none" stroke="#000000" points="871,-176 871,-206 1023,-206 1023,-176 871,-176"/>
<text text-anchor="start" x="879" y="-194" font-family="Helvetica,sans-Serif" font-size="10.00" fill="#000000">mcts::MCTS::backPropagate</text>
<text text-anchor="middle" x="947" y="-183" font-family="Helvetica,sans-Serif" font-size="10.00" fill="#000000">AndRevertAction</text>
</a>
</g>
</g>
<!-- Node67&#45;&gt;Node76 -->
<g id="edge39" class="edge">
<title>Node67&#45;&gt;Node76</title>
<path fill="none" stroke="#191970" d="M796.23,-193.2118C815.9469,-192.9225 838.7973,-192.5873 860.6539,-192.2667"/>
<polygon fill="#191970" stroke="#191970" points="860.9996,-195.7621 870.9471,-192.1157 860.8968,-188.7628 860.9996,-195.7621"/>
</g>
<!-- Node69&#45;&gt;Node70 -->
<g id="edge32" class="edge">
<title>Node69&#45;&gt;Node70</title>
<path fill="none" stroke="#191970" d="M1024.5538,-69.0341C1049.2012,-73.812 1076.053,-79.0174 1099.1996,-83.5044"/>
<polygon fill="#191970" stroke="#191970" points="1098.7295,-86.9784 1109.2129,-85.4455 1100.0618,-80.1063 1098.7295,-86.9784"/>
</g>
<!-- Node71 -->
<g id="node30" class="node">
<title>Node71</title>
<g id="a_node30"><a xlink:href="classmcts_1_1_m_c_t_s.html#ac75ac1b12fbb40dca468f1c31a9fc8cd" target="_top" xlink:title="mcts::MCTS::formula">
<polygon fill="none" stroke="#000000" points="1099.5,-44.5 1099.5,-63.5 1217.5,-63.5 1217.5,-44.5 1099.5,-44.5"/>
<text text-anchor="middle" x="1158.5" y="-51.5" font-family="Helvetica,sans-Serif" font-size="10.00" fill="#000000">mcts::MCTS::formula</text>
</a>
</g>
</g>
<!-- Node69&#45;&gt;Node71 -->
<g id="edge33" class="edge">
<title>Node69&#45;&gt;Node71</title>
<path fill="none" stroke="#191970" d="M1024.5538,-54C1045.6325,-54 1068.3236,-54 1088.9306,-54"/>
<polygon fill="#191970" stroke="#191970" points="1089.1789,-57.5001 1099.1789,-54 1089.1788,-50.5001 1089.1789,-57.5001"/>
</g>
<!-- Node75 -->
<g id="node34" class="node">
<title>Node75</title>
<g id="a_node34"><a xlink:href="classmcts_1_1_m_c_t_s.html#a3e918b416dfe1e5155b077788936f137" target="_top" xlink:title="mcts::MCTS::getRandomAvailable\lMoveFromBoard">
<polygon fill="none" stroke="#000000" points="1068,-220 1068,-250 1249,-250 1249,-220 1068,-220"/>
<text text-anchor="start" x="1076" y="-238" font-family="Helvetica,sans-Serif" font-size="10.00" fill="#000000">mcts::MCTS::getRandomAvailable</text>
<text text-anchor="middle" x="1158.5" y="-227" font-family="Helvetica,sans-Serif" font-size="10.00" fill="#000000">MoveFromBoard</text>
</a>
</g>
</g>
<!-- Node74&#45;&gt;Node75 -->
<g id="edge38" class="edge">
<title>Node74&#45;&gt;Node75</title>
<path fill="none" stroke="#191970" d="M1032.1109,-235C1040.5261,-235 1049.1228,-235 1057.6764,-235"/>
<polygon fill="#191970" stroke="#191970" points="1057.6843,-238.5001 1067.6843,-235 1057.6842,-231.5001 1057.6843,-238.5001"/>
</g>
<!-- Node78 -->
<g id="node37" class="node">
<title>Node78</title>
<g id="a_node37"><a xlink:href="classmcts_1_1_tree.html#a06139b9922488bb26feb25745e54e508" target="_top" xlink:title="Merges tree into the current tree. ">
<polygon fill="none" stroke="#000000" points="690.5,-146.5 690.5,-165.5 794.5,-165.5 794.5,-146.5 690.5,-146.5"/>
<text text-anchor="middle" x="742.5" y="-153.5" font-family="Helvetica,sans-Serif" font-size="10.00" fill="#000000">mcts::Tree::merge</text>
</a>
</g>
</g>
<!-- Node77&#45;&gt;Node78 -->
<g id="edge41" class="edge">
<title>Node77&#45;&gt;Node78</title>
<path fill="none" stroke="#191970" d="M588.7408,-165.3187C618.5282,-163.5134 652.1431,-161.4762 680.3289,-159.7679"/>
<polygon fill="#191970" stroke="#191970" points="680.6805,-163.2532 690.4504,-159.1545 680.257,-156.266 680.6805,-163.2532"/>
</g>
<!-- Node80 -->
<g id="node39" class="node">
<title>Node80</title>
<g id="a_node39"><a xlink:href="classmcts_1_1_tree.html#a2cf4616df96cb68014ebd8fa6d0aebc4" target="_top" xlink:title="mcts::Tree::nodeWithMaxVisits">
<polygon fill="none" stroke="#000000" points="659,-108.5 659,-127.5 826,-127.5 826,-108.5 659,-108.5"/>
<text text-anchor="middle" x="742.5" y="-115.5" font-family="Helvetica,sans-Serif" font-size="10.00" fill="#000000">mcts::Tree::nodeWithMaxVisits</text>
</a>
</g>
</g>
<!-- Node79&#45;&gt;Node80 -->
<g id="edge43" class="edge">
<title>Node79&#45;&gt;Node80</title>
<path fill="none" stroke="#191970" d="M571.5895,-128.3582C595.0744,-126.9349 622.5648,-125.2688 648.5471,-123.6941"/>
<polygon fill="#191970" stroke="#191970" points="649.0314,-127.1713 658.8013,-123.0726 648.6079,-120.1841 649.0314,-127.1713"/>
</g>
<!-- Node85 -->
<g id="node44" class="node">
<title>Node85</title>
<g id="a_node44"><a xlink:href="classgame_1_1_abstract_board.html#ac2b6d96389ad0ac58d22323d75f91f97" target="_top" xlink:title="perform a movement on the board, sets the current cell on the pawn ">
<polygon fill="none" stroke="#000000" points="452,-73 452,-103 571,-103 571,-73 452,-73"/>
<text text-anchor="start" x="460" y="-91" font-family="Helvetica,sans-Serif" font-size="10.00" fill="#000000">game::AbstractBoard</text>
<text text-anchor="middle" x="511.5" y="-80" font-family="Helvetica,sans-Serif" font-size="10.00" fill="#000000">::performMove</text>
</a>
</g>
</g>
<!-- Node84&#45;&gt;Node85 -->
<g id="edge48" class="edge">
<title>Node84&#45;&gt;Node85</title>
<path fill="none" stroke="#191970" d="M364.2065,-112.3885C389.6413,-108.177 417.4016,-103.5806 441.8965,-99.5248"/>
<polygon fill="#191970" stroke="#191970" points="442.5266,-102.9682 451.8205,-97.8816 441.3831,-96.0622 442.5266,-102.9682"/>
</g>
</g>
</svg>
        <g id="navigator" transform="translate(0 0)" fill="#404254">
                <rect fill="#f2f5e9" fill-opacity="0.5" stroke="#606060" stroke-width=".5" x="0" y="0" width="60" height="60"/>
                <use id="zoomplus" xlink:href="#zoomPlus" x="17" y="9" onmousedown="handleZoom(evt,'in')"/>
                <use id="zoomminus" xlink:href="#zoomMin" x="42" y="9" onmousedown="handleZoom(evt,'out')"/>
                <use id="reset" xlink:href="#resetDef" x="30" y="36" onmousedown="handleReset()"/>
                <g id="arrowUp" xlink:href="#dirArrow" transform="translate(30 24)" onmousedown="handlePan(0,-1)">
                  <use xlink:href="#rim" fill="#404040">
                        <set attributeName="fill" to="#808080" begin="arrowUp.mouseover" end="arrowUp.mouseout"/>
                  </use>
                  <path fill="none" stroke="white" stroke-width="1.5" d="M0,-3.0v7 M-2.5,-0.5L0,-3.0L2.5,-0.5"/>
                </g>
                <g id="arrowRight" xlink:href="#dirArrow" transform="rotate(90) translate(36 -43)" onmousedown="handlePan(1,0)">
                  <use xlink:href="#rim" fill="#404040">
                        <set attributeName="fill" to="#808080" begin="arrowRight.mouseover" end="arrowRight.mouseout"/>
                  </use>
                  <path fill="none" stroke="white" stroke-width="1.5" d="M0,-3.0v7 M-2.5,-0.5L0,-3.0L2.5,-0.5"/>
                </g>
                <g id="arrowDown" xlink:href="#dirArrow" transform="rotate(180) translate(-30 -48)" onmousedown="handlePan(0,1)">
                  <use xlink:href="#rim" fill="#404040">
                        <set attributeName="fill" to="#808080" begin="arrowDown.mouseover" end="arrowDown.mouseout"/>
                  </use>
                  <path fill="none" stroke="white" stroke-width="1.5" d="M0,-3.0v7 M-2.5,-0.5L0,-3.0L2.5,-0.5"/>
                </g>
                <g id="arrowLeft" xlink:href="#dirArrow" transform="rotate(270) translate(-36 17)" onmousedown="handlePan(-1,0)">
                  <use xlink:href="#rim" fill="#404040">
                        <set attributeName="fill" to="#808080" begin="arrowLeft.mouseover" end="arrowLeft.mouseout"/>
                  </use>
                  <path fill="none" stroke="white" stroke-width="1.5" d="M0,-3.0v7 M-2.5,-0.5L0,-3.0L2.5,-0.5"/>
                </g>
        </g>
        <svg viewBox="0 0 15 15" width="100%" height="30px" preserveAspectRatio="xMaxYMin meet">
         <g id="arrow_out" transform="scale(0.3 0.3)">
          <a xlink:href="classgame_1_1penguin_1_1_console_game_a56af132d8e3d16902fb46b7979d37eae_cgraph_org.svg" target="_base">
           <rect id="button" ry="5" rx="5" y="6" x="6" height="38" width="38"
                fill="#f2f5e9" fill-opacity="0.5" stroke="#606060" stroke-width="1.0"/>
           <path id="arrow"
             d="M 11.500037,31.436501 C 11.940474,20.09759 22.043105,11.32322 32.158766,21.979434 L 37.068811,17.246167 C 37.068811,17.246167 37.088388,32 37.088388,32 L 22.160133,31.978069 C 22.160133,31.978069 26.997745,27.140456 26.997745,27.140456 C 18.528582,18.264221 13.291696,25.230495 11.500037,31.436501 z"
             style="fill:#404040;"/>
          </a>
         </g>
        </svg>
</svg>
