<?xml version="1.0" encoding="UTF-8" standalone="no"?>
<!DOCTYPE svg PUBLIC "-//W3C//DTD SVG 1.1//EN"
 "http://www.w3.org/Graphics/SVG/1.1/DTD/svg11.dtd">
<!-- Generated by graphviz version 2.40.1 (20161225.0304)
 -->
<!-- Title: mcts::MCTSPlayer&lt; CellT, PlayerT, PawnT &gt; Pages: 1 -->
<!--zoomable 375 -->
<svg id="main" version="1.1" xmlns="http://www.w3.org/2000/svg" xmlns:xlink="http://www.w3.org/1999/xlink" xml:space="preserve" onload="init(evt)">
<style type="text/css"><![CDATA[
.edge:hover path { stroke: red; }
.edge:hover polygon { stroke: red; fill: red; }
]]></style>
<script type="text/javascript"><![CDATA[
var edges = document.getElementsByTagName('g');
if (edges && edges.length) {
  for (var i=0;i<edges.length;i++) {
    if (edges[i].id.substr(0,4)=='edge') {
      edges[i].setAttribute('class','edge');
    }
  }
}
]]></script>
        <defs>
                <circle id="rim" cx="0" cy="0" r="7"/>
                <circle id="rim2" cx="0" cy="0" r="3.5"/>
                <g id="zoomPlus">
                        <use xlink:href="#rim" fill="#404040">
                                <set attributeName="fill" to="#808080" begin="zoomplus.mouseover" end="zoomplus.mouseout"/>
                        </use>
                        <path d="M-4,0h8M0,-4v8" fill="none" stroke="white" stroke-width="1.5" pointer-events="none"/>
                </g>
                <g id="zoomMin">
                        <use xlink:href="#rim" fill="#404040">
                                <set attributeName="fill" to="#808080" begin="zoomminus.mouseover" end="zoomminus.mouseout"/>
                        </use>
                        <path d="M-4,0h8" fill="none" stroke="white" stroke-width="1.5" pointer-events="none"/>
                </g>
                <g id="dirArrow">
                        <path fill="none" stroke="white" stroke-width="1.5" d="M0,-3.0v7 M-2.5,-0.5L0,-3.0L2.5,-0.5"/>
                </g>
               <g id="resetDef">
                       <use xlink:href="#rim2" fill="#404040">
                               <set attributeName="fill" to="#808080" begin="reset.mouseover" end="reset.mouseout"/>
                       </use>
               </g>
        </defs>

<script type="text/javascript">
var viewWidth = 628;
var viewHeight = 375;
var sectionId = 'dynsection-0';
</script>
<script xlink:href="svgpan.js"/>
<svg id="graph" class="graph">
<g id="viewport">
<title>mcts::MCTSPlayer&lt; CellT, PlayerT, PawnT &gt;</title>
<!-- Node1 -->
<g id="node1" class="node">
<title>Node1</title>
<polygon fill="#bfbfbf" stroke="#000000" points="281,-.5 281,-145.5 429,-145.5 429,-.5 281,-.5"/>
<text text-anchor="start" x="289" y="-133.5" font-family="Helvetica,sans-Serif" font-size="10.00" fill="#000000">mcts::MCTSPlayer&lt; CellT,</text>
<text text-anchor="middle" x="355" y="-122.5" font-family="Helvetica,sans-Serif" font-size="10.00" fill="#000000"> PlayerT, PawnT &gt;</text>
<polyline fill="none" stroke="#000000" points="281,-115.5 429,-115.5 "/>
<text text-anchor="middle" x="355" y="-103.5" font-family="Helvetica,sans-Serif" font-size="10.00" fill="#000000"> </text>
<polyline fill="none" stroke="#000000" points="281,-96.5 429,-96.5 "/>
<text text-anchor="start" x="289" y="-84.5" font-family="Helvetica,sans-Serif" font-size="10.00" fill="#000000">+ MCTSPlayer()</text>
<text text-anchor="start" x="289" y="-73.5" font-family="Helvetica,sans-Serif" font-size="10.00" fill="#000000">+ ~MCTSPlayer()</text>
<text text-anchor="start" x="289" y="-62.5" font-family="Helvetica,sans-Serif" font-size="10.00" fill="#000000">+ bestMove()</text>
<text text-anchor="start" x="289" y="-51.5" font-family="Helvetica,sans-Serif" font-size="10.00" fill="#000000">+ updateTree()</text>
<text text-anchor="start" x="289" y="-40.5" font-family="Helvetica,sans-Serif" font-size="10.00" fill="#000000">+ getResult()</text>
<text text-anchor="start" x="289" y="-29.5" font-family="Helvetica,sans-Serif" font-size="10.00" fill="#000000"># unleash_mcts()</text>
<text text-anchor="start" x="289" y="-18.5" font-family="Helvetica,sans-Serif" font-size="10.00" fill="#000000"># getCorrespondingMove()</text>
<text text-anchor="start" x="289" y="-7.5" font-family="Helvetica,sans-Serif" font-size="10.00" fill="#000000"># joinTrees()</text>
</g>
<!-- Node2 -->
<g id="node2" class="node">
<title>Node2</title>
<polygon fill="none" stroke="#bfbfbf" points="0,-193.5 0,-261.5 164,-261.5 164,-193.5 0,-193.5"/>
<text text-anchor="start" x="8" y="-249.5" font-family="Helvetica,sans-Serif" font-size="10.00" fill="#000000">vector&lt; mcts::Tree</text>
<text text-anchor="middle" x="82" y="-238.5" font-family="Helvetica,sans-Serif" font-size="10.00" fill="#000000">&lt; CellT, PlayerT, PawnT &gt; * &gt;</text>
<polyline fill="none" stroke="#bfbfbf" points="0,-231.5 164,-231.5 "/>
<text text-anchor="middle" x="82" y="-219.5" font-family="Helvetica,sans-Serif" font-size="10.00" fill="#000000"> </text>
<polyline fill="none" stroke="#bfbfbf" points="0,-212.5 164,-212.5 "/>
<text text-anchor="middle" x="82" y="-200.5" font-family="Helvetica,sans-Serif" font-size="10.00" fill="#000000"> </text>
</g>
<!-- Node2&#45;&gt;Node1 -->
<g id="edge1" class="edge">
<title>Node2&#45;&gt;Node1</title>
<path fill="none" stroke="#404040" d="M142.249,-193.4031C179.8056,-172.1485 228.7013,-144.4768 270.1461,-121.0217"/>
<polygon fill="none" stroke="#404040" points="270.3439,-120.9098 273.5956,-114.4734 280.7875,-114.9994 277.5358,-121.4358 270.3439,-120.9098"/>
<text text-anchor="middle" x="213.5" y="-167" font-family="Helvetica,sans-Serif" font-size="10.00" fill="#000000"> #trees</text>
</g>
<!-- Node3 -->
<g id="node3" class="node">
<title>Node3</title>
<g id="a_node3"><a xlink:href="structmcts_1_1_m_c_t_s_constraints.html" target="_top" xlink:title="{mcts::MCTSConstraints\n||}">
<polygon fill="none" stroke="#000000" points="182.5,-199 182.5,-256 311.5,-256 311.5,-199 182.5,-199"/>
<text text-anchor="middle" x="247" y="-244" font-family="Helvetica,sans-Serif" font-size="10.00" fill="#000000">mcts::MCTSConstraints</text>
<polyline fill="none" stroke="#000000" points="182.5,-237 311.5,-237 "/>
<text text-anchor="middle" x="247" y="-225" font-family="Helvetica,sans-Serif" font-size="10.00" fill="#000000"> </text>
<polyline fill="none" stroke="#000000" points="182.5,-218 311.5,-218 "/>
<text text-anchor="middle" x="247" y="-206" font-family="Helvetica,sans-Serif" font-size="10.00" fill="#000000"> </text>
</a>
</g>
</g>
<!-- Node3&#45;&gt;Node1 -->
<g id="edge2" class="edge">
<title>Node3&#45;&gt;Node1</title>
<path fill="none" stroke="#404040" d="M267.0609,-198.8018C275.7178,-186.4175 286.3319,-171.2336 297.153,-155.7534"/>
<polygon fill="none" stroke="#404040" points="297.4002,-155.3997 297.5593,-148.1903 304.2754,-145.5644 304.1162,-152.7738 297.4002,-155.3997"/>
<text text-anchor="middle" x="325" y="-167" font-family="Helvetica,sans-Serif" font-size="10.00" fill="#000000"> #constraints</text>
</g>
<!-- Node4 -->
<g id="node4" class="node">
<title>Node4</title>
<polygon fill="none" stroke="#bfbfbf" points="232.5,-309.5 232.5,-366.5 261.5,-366.5 261.5,-309.5 232.5,-309.5"/>
<text text-anchor="middle" x="247" y="-354.5" font-family="Helvetica,sans-Serif" font-size="10.00" fill="#000000">int</text>
<polyline fill="none" stroke="#bfbfbf" points="232.5,-347.5 261.5,-347.5 "/>
<text text-anchor="middle" x="247" y="-335.5" font-family="Helvetica,sans-Serif" font-size="10.00" fill="#000000"> </text>
<polyline fill="none" stroke="#bfbfbf" points="232.5,-328.5 261.5,-328.5 "/>
<text text-anchor="middle" x="247" y="-316.5" font-family="Helvetica,sans-Serif" font-size="10.00" fill="#000000"> </text>
</g>
<!-- Node4&#45;&gt;Node3 -->
<g id="edge3" class="edge">
<title>Node4&#45;&gt;Node3</title>
<path fill="none" stroke="#404040" d="M247,-309.2559C247,-296.7224 247,-281.8039 247,-268.1631"/>
<polygon fill="none" stroke="#404040" points="247.0001,-268.1002 243,-262.1002 247,-256.1002 251,-262.1002 247.0001,-268.1002"/>
<text text-anchor="middle" x="264" y="-283" font-family="Helvetica,sans-Serif" font-size="10.00" fill="#000000"> +time</text>
</g>
<!-- Node5 -->
<g id="node5" class="node">
<title>Node5</title>
<polygon fill="none" stroke="#bfbfbf" points="330,-193.5 330,-261.5 470,-261.5 470,-193.5 330,-193.5"/>
<text text-anchor="start" x="338" y="-249.5" font-family="Helvetica,sans-Serif" font-size="10.00" fill="#000000">AbstractGame&lt; CellT,</text>
<text text-anchor="middle" x="400" y="-238.5" font-family="Helvetica,sans-Serif" font-size="10.00" fill="#000000"> PlayerT, PawnT &gt; *const</text>
<polyline fill="none" stroke="#bfbfbf" points="330,-231.5 470,-231.5 "/>
<text text-anchor="middle" x="400" y="-219.5" font-family="Helvetica,sans-Serif" font-size="10.00" fill="#000000"> </text>
<polyline fill="none" stroke="#bfbfbf" points="330,-212.5 470,-212.5 "/>
<text text-anchor="middle" x="400" y="-200.5" font-family="Helvetica,sans-Serif" font-size="10.00" fill="#000000"> </text>
</g>
<!-- Node5&#45;&gt;Node1 -->
<g id="edge4" class="edge">
<title>Node5&#45;&gt;Node1</title>
<path fill="none" stroke="#404040" d="M390.013,-193.2114C386.8808,-182.4573 383.2741,-170.0744 379.592,-157.4327"/>
<polygon fill="none" stroke="#404040" points="379.5566,-157.3107 374.0383,-152.6687 376.2008,-145.7895 381.7191,-150.4315 379.5566,-157.3107"/>
<text text-anchor="middle" x="405" y="-167" font-family="Helvetica,sans-Serif" font-size="10.00" fill="#000000"> #game</text>
</g>
<!-- Node6 -->
<g id="node6" class="node">
<title>Node6</title>
<polygon fill="none" stroke="#bfbfbf" points="488.5,-199 488.5,-256 619.5,-256 619.5,-199 488.5,-199"/>
<text text-anchor="middle" x="554" y="-244" font-family="Helvetica,sans-Serif" font-size="10.00" fill="#000000">Result&lt; CellT, PawnT &gt;</text>
<polyline fill="none" stroke="#bfbfbf" points="488.5,-237 619.5,-237 "/>
<text text-anchor="middle" x="554" y="-225" font-family="Helvetica,sans-Serif" font-size="10.00" fill="#000000"> </text>
<polyline fill="none" stroke="#bfbfbf" points="488.5,-218 619.5,-218 "/>
<text text-anchor="middle" x="554" y="-206" font-family="Helvetica,sans-Serif" font-size="10.00" fill="#000000"> </text>
</g>
<!-- Node6&#45;&gt;Node1 -->
<g id="edge5" class="edge">
<title>Node6&#45;&gt;Node1</title>
<path fill="none" stroke="#404040" d="M517.036,-198.8018C495.0164,-181.7062 466.1252,-159.2756 438.8444,-138.0953"/>
<polygon fill="none" stroke="#404040" points="438.7547,-138.0256 431.5623,-137.5056 429.276,-130.6665 436.4683,-131.1865 438.7547,-138.0256"/>
<text text-anchor="middle" x="519.5" y="-167" font-family="Helvetica,sans-Serif" font-size="10.00" fill="#000000"> #latest_result</text>
</g>
</g>
</svg>
        <g id="navigator" transform="translate(0 0)" fill="#404254">
                <rect fill="#f2f5e9" fill-opacity="0.5" stroke="#606060" stroke-width=".5" x="0" y="0" width="60" height="60"/>
                <use id="zoomplus" xlink:href="#zoomPlus" x="17" y="9" onmousedown="handleZoom(evt,'in')"/>
                <use id="zoomminus" xlink:href="#zoomMin" x="42" y="9" onmousedown="handleZoom(evt,'out')"/>
                <use id="reset" xlink:href="#resetDef" x="30" y="36" onmousedown="handleReset()"/>
                <g id="arrowUp" xlink:href="#dirArrow" transform="translate(30 24)" onmousedown="handlePan(0,-1)">
                  <use xlink:href="#rim" fill="#404040">
                        <set attributeName="fill" to="#808080" begin="arrowUp.mouseover" end="arrowUp.mouseout"/>
                  </use>
                  <path fill="none" stroke="white" stroke-width="1.5" d="M0,-3.0v7 M-2.5,-0.5L0,-3.0L2.5,-0.5"/>
                </g>
                <g id="arrowRight" xlink:href="#dirArrow" transform="rotate(90) translate(36 -43)" onmousedown="handlePan(1,0)">
                  <use xlink:href="#rim" fill="#404040">
                        <set attributeName="fill" to="#808080" begin="arrowRight.mouseover" end="arrowRight.mouseout"/>
                  </use>
                  <path fill="none" stroke="white" stroke-width="1.5" d="M0,-3.0v7 M-2.5,-0.5L0,-3.0L2.5,-0.5"/>
                </g>
                <g id="arrowDown" xlink:href="#dirArrow" transform="rotate(180) translate(-30 -48)" onmousedown="handlePan(0,1)">
                  <use xlink:href="#rim" fill="#404040">
                        <set attributeName="fill" to="#808080" begin="arrowDown.mouseover" end="arrowDown.mouseout"/>
                  </use>
                  <path fill="none" stroke="white" stroke-width="1.5" d="M0,-3.0v7 M-2.5,-0.5L0,-3.0L2.5,-0.5"/>
                </g>
                <g id="arrowLeft" xlink:href="#dirArrow" transform="rotate(270) translate(-36 17)" onmousedown="handlePan(-1,0)">
                  <use xlink:href="#rim" fill="#404040">
                        <set attributeName="fill" to="#808080" begin="arrowLeft.mouseover" end="arrowLeft.mouseout"/>
                  </use>
                  <path fill="none" stroke="white" stroke-width="1.5" d="M0,-3.0v7 M-2.5,-0.5L0,-3.0L2.5,-0.5"/>
                </g>
        </g>
        <svg viewBox="0 0 15 15" width="100%" height="30px" preserveAspectRatio="xMaxYMin meet">
         <g id="arrow_out" transform="scale(0.3 0.3)">
          <a xlink:href="classmcts_1_1_m_c_t_s_player__coll__graph_org.svg" target="_base">
           <rect id="button" ry="5" rx="5" y="6" x="6" height="38" width="38"
                fill="#f2f5e9" fill-opacity="0.5" stroke="#606060" stroke-width="1.0"/>
           <path id="arrow"
             d="M 11.500037,31.436501 C 11.940474,20.09759 22.043105,11.32322 32.158766,21.979434 L 37.068811,17.246167 C 37.068811,17.246167 37.088388,32 37.088388,32 L 22.160133,31.978069 C 22.160133,31.978069 26.997745,27.140456 26.997745,27.140456 C 18.528582,18.264221 13.291696,25.230495 11.500037,31.436501 z"
             style="fill:#404040;"/>
          </a>
         </g>
        </svg>
</svg>
