<?xml version="1.0" encoding="UTF-8" standalone="no"?>
<!DOCTYPE svg PUBLIC "-//W3C//DTD SVG 1.1//EN"
 "http://www.w3.org/Graphics/SVG/1.1/DTD/svg11.dtd">
<!-- Generated by graphviz version 2.40.1 (20161225.0304)
 -->
<!-- Title: game::AbstractPawn::equals_to Pages: 1 -->
<svg width="276pt" height="110pt"
 viewBox="0.00 0.00 276.00 110.00" xmlns="http://www.w3.org/2000/svg" xmlns:xlink="http://www.w3.org/1999/xlink">
<g id="graph0" class="graph" transform="scale(1 1) rotate(0) translate(4 106)">
<title>game::AbstractPawn::equals_to</title>
<!-- Node7 -->
<g id="node1" class="node">
<title>Node7</title>
<polygon fill="#bfbfbf" stroke="#000000" points="0,-36 0,-66 116,-66 116,-36 0,-36"/>
<text text-anchor="start" x="8" y="-54" font-family="Helvetica,sans-Serif" font-size="10.00" fill="#000000">game::AbstractPawn</text>
<text text-anchor="middle" x="58" y="-43" font-family="Helvetica,sans-Serif" font-size="10.00" fill="#000000">::equals_to</text>
</g>
<!-- Node8 -->
<g id="node2" class="node">
<title>Node8</title>
<g id="a_node2"><a xlink:href="classgame_1_1_abstract_pawn.html#a65dada55fadc0df1169d8a6b0661c05a" target="_top" xlink:title="game::AbstractPawn\l\&lt; Player, BoardCell\l \&gt;::operator==">
<polygon fill="none" stroke="#000000" points="152,-60.5 152,-101.5 268,-101.5 268,-60.5 152,-60.5"/>
<text text-anchor="start" x="160" y="-89.5" font-family="Helvetica,sans-Serif" font-size="10.00" fill="#000000">game::AbstractPawn</text>
<text text-anchor="start" x="160" y="-78.5" font-family="Helvetica,sans-Serif" font-size="10.00" fill="#000000">&lt; Player, BoardCell</text>
<text text-anchor="middle" x="210" y="-67.5" font-family="Helvetica,sans-Serif" font-size="10.00" fill="#000000"> &gt;::operator==</text>
</a>
</g>
</g>
<!-- Node7&#45;&gt;Node8 -->
<g id="edge1" class="edge">
<title>Node7&#45;&gt;Node8</title>
<path fill="none" stroke="#191970" d="M126.264,-64.4732C134.7979,-66.1575 143.4632,-67.8677 151.8236,-69.5178"/>
<polygon fill="#191970" stroke="#191970" points="126.8209,-61.0156 116.3325,-62.513 125.4655,-67.8832 126.8209,-61.0156"/>
</g>
<!-- Node9 -->
<g id="node3" class="node">
<title>Node9</title>
<g id="a_node3"><a xlink:href="classgame_1_1_abstract_pawn.html#a8c5ef6187be3592d15ba9cf6a433c91c" target="_top" xlink:title="game::AbstractPawn\l\&lt; Player, BoardCell\l \&gt;::operator!=">
<polygon fill="none" stroke="#000000" points="152,-.5 152,-41.5 268,-41.5 268,-.5 152,-.5"/>
<text text-anchor="start" x="160" y="-29.5" font-family="Helvetica,sans-Serif" font-size="10.00" fill="#000000">game::AbstractPawn</text>
<text text-anchor="start" x="160" y="-18.5" font-family="Helvetica,sans-Serif" font-size="10.00" fill="#000000">&lt; Player, BoardCell</text>
<text text-anchor="middle" x="210" y="-7.5" font-family="Helvetica,sans-Serif" font-size="10.00" fill="#000000"> &gt;::operator!=</text>
</a>
</g>
</g>
<!-- Node7&#45;&gt;Node9 -->
<g id="edge2" class="edge">
<title>Node7&#45;&gt;Node9</title>
<path fill="none" stroke="#191970" d="M126.264,-37.5268C134.7979,-35.8425 143.4632,-34.1323 151.8236,-32.4822"/>
<polygon fill="#191970" stroke="#191970" points="125.4655,-34.1168 116.3325,-39.487 126.8209,-40.9844 125.4655,-34.1168"/>
</g>
</g>
</svg>
