<?xml version="1.0" encoding="UTF-8" standalone="no"?>
<!DOCTYPE svg PUBLIC "-//W3C//DTD SVG 1.1//EN"
 "http://www.w3.org/Graphics/SVG/1.1/DTD/svg11.dtd">
<!-- Generated by graphviz version 2.40.1 (20161225.0304)
 -->
<!-- Title: game::AbstractBoard::getAvailableCells Pages: 1 -->
<svg width="324pt" height="100pt"
 viewBox="0.00 0.00 324.00 99.50" xmlns="http://www.w3.org/2000/svg" xmlns:xlink="http://www.w3.org/1999/xlink">
<g id="graph0" class="graph" transform="scale(1 1) rotate(0) translate(4 95.5)">
<title>game::AbstractBoard::getAvailableCells</title>
<!-- Node22 -->
<g id="node1" class="node">
<title>Node22</title>
<polygon fill="#bfbfbf" stroke="#000000" points="0,-27.5 0,-57.5 119,-57.5 119,-27.5 0,-27.5"/>
<text text-anchor="start" x="8" y="-45.5" font-family="Helvetica,sans-Serif" font-size="10.00" fill="#000000">game::AbstractBoard</text>
<text text-anchor="middle" x="59.5" y="-34.5" font-family="Helvetica,sans-Serif" font-size="10.00" fill="#000000">::getAvailableCells</text>
</g>
<!-- Node23 -->
<g id="node2" class="node">
<title>Node23</title>
<g id="a_node2"><a xlink:href="classgame_1_1_abstract_board.html#a1331343872024287df1749cea4a96f5e" target="_top" xlink:title="game::AbstractBoard\l\&lt; BoardCell, Player,\l Player \&gt;::~AbstractBoard">
<polygon fill="none" stroke="#000000" points="163,-50 163,-91 308,-91 308,-50 163,-50"/>
<text text-anchor="start" x="171" y="-79" font-family="Helvetica,sans-Serif" font-size="10.00" fill="#000000">game::AbstractBoard</text>
<text text-anchor="start" x="171" y="-68" font-family="Helvetica,sans-Serif" font-size="10.00" fill="#000000">&lt; BoardCell, Player,</text>
<text text-anchor="middle" x="235.5" y="-57" font-family="Helvetica,sans-Serif" font-size="10.00" fill="#000000"> Player &gt;::~AbstractBoard</text>
</a>
</g>
</g>
<!-- Node22&#45;&gt;Node23 -->
<g id="edge1" class="edge">
<title>Node22&#45;&gt;Node23</title>
<path fill="none" stroke="#191970" d="M129.1296,-53.5774C140.2143,-55.3409 151.7061,-57.1691 162.8582,-58.9434"/>
<polygon fill="#191970" stroke="#191970" points="129.5113,-50.0942 119.0856,-51.9795 128.4114,-57.0073 129.5113,-50.0942"/>
</g>
<!-- Node24 -->
<g id="node3" class="node">
<title>Node24</title>
<g id="a_node3"><a xlink:href="classgame_1_1tic__tac__toe_1_1_tic_tac_toe.html#af5dd08e48f442a4f54402423e996887f" target="_top" xlink:title="game::tic_tac_toe::\lTicTacToe::getAvailableMoves">
<polygon fill="none" stroke="#000000" points="155,-.5 155,-30.5 316,-30.5 316,-.5 155,-.5"/>
<text text-anchor="start" x="163" y="-18.5" font-family="Helvetica,sans-Serif" font-size="10.00" fill="#000000">game::tic_tac_toe::</text>
<text text-anchor="middle" x="235.5" y="-7.5" font-family="Helvetica,sans-Serif" font-size="10.00" fill="#000000">TicTacToe::getAvailableMoves</text>
</a>
</g>
</g>
<!-- Node22&#45;&gt;Node24 -->
<g id="edge2" class="edge">
<title>Node22&#45;&gt;Node24</title>
<path fill="none" stroke="#191970" d="M129.1898,-31.809C137.5858,-30.5209 146.2146,-29.1972 154.7517,-27.8875"/>
<polygon fill="#191970" stroke="#191970" points="128.4392,-28.3831 119.0856,-33.359 129.5007,-35.3021 128.4392,-28.3831"/>
</g>
</g>
</svg>
