<?xml version="1.0" encoding="UTF-8" standalone="no"?>
<!DOCTYPE svg PUBLIC "-//W3C//DTD SVG 1.1//EN"
 "http://www.w3.org/Graphics/SVG/1.1/DTD/svg11.dtd">
<!-- Generated by graphviz version 2.40.1 (20161225.0304)
 -->
<!-- Title: game::penguin::HumanPlayer::getPenguins Pages: 1 -->
<svg width="846pt" height="161pt"
 viewBox="0.00 0.00 846.00 161.00" xmlns="http://www.w3.org/2000/svg" xmlns:xlink="http://www.w3.org/1999/xlink">
<g id="graph0" class="graph" transform="scale(1 1) rotate(0) translate(4 157)">
<title>game::penguin::HumanPlayer::getPenguins</title>
<!-- Node10 -->
<g id="node1" class="node">
<title>Node10</title>
<polygon fill="#bfbfbf" stroke="#000000" points="0,-49.5 0,-79.5 161,-79.5 161,-49.5 0,-49.5"/>
<text text-anchor="start" x="8" y="-67.5" font-family="Helvetica,sans-Serif" font-size="10.00" fill="#000000">game::penguin::HumanPlayer</text>
<text text-anchor="middle" x="80.5" y="-56.5" font-family="Helvetica,sans-Serif" font-size="10.00" fill="#000000">::getPenguins</text>
</g>
<!-- Node11 -->
<g id="node2" class="node">
<title>Node11</title>
<g id="a_node2"><a xlink:href="classgame_1_1penguin_1_1_board.html#ae85ef3019829098c5ad5afb1c3ebceb5" target="_top" xlink:title="Is the player able to move. ">
<polygon fill="none" stroke="#000000" points="217,-98.5 217,-128.5 341,-128.5 341,-98.5 217,-98.5"/>
<text text-anchor="start" x="225" y="-116.5" font-family="Helvetica,sans-Serif" font-size="10.00" fill="#000000">game::penguin::Board</text>
<text text-anchor="middle" x="279" y="-105.5" font-family="Helvetica,sans-Serif" font-size="10.00" fill="#000000">::isAbleToMove</text>
</a>
</g>
</g>
<!-- Node10&#45;&gt;Node11 -->
<g id="edge1" class="edge">
<title>Node10&#45;&gt;Node11</title>
<path fill="none" stroke="#191970" d="M151.2988,-81.9768C173.1772,-87.3775 197.0703,-93.2755 218.2096,-98.4938"/>
<polygon fill="#191970" stroke="#191970" points="151.9529,-78.5333 141.4055,-79.5346 150.2753,-85.3293 151.9529,-78.5333"/>
</g>
<!-- Node16 -->
<g id="node7" class="node">
<title>Node16</title>
<g id="a_node7"><a xlink:href="classgame_1_1penguin_1_1_human_player.html#afe805f2359ba2c909c078a7fc3833ede" target="_top" xlink:title="Returns the player&#39;s score. ">
<polygon fill="none" stroke="#000000" points="198.5,-49.5 198.5,-79.5 359.5,-79.5 359.5,-49.5 198.5,-49.5"/>
<text text-anchor="start" x="206.5" y="-67.5" font-family="Helvetica,sans-Serif" font-size="10.00" fill="#000000">game::penguin::HumanPlayer</text>
<text text-anchor="middle" x="279" y="-56.5" font-family="Helvetica,sans-Serif" font-size="10.00" fill="#000000">::getScore</text>
</a>
</g>
</g>
<!-- Node10&#45;&gt;Node16 -->
<g id="edge6" class="edge">
<title>Node10&#45;&gt;Node16</title>
<path fill="none" stroke="#191970" d="M171.3465,-64.5C180.3491,-64.5 189.4447,-64.5 198.334,-64.5"/>
<polygon fill="#191970" stroke="#191970" points="171.2376,-61.0001 161.2375,-64.5 171.2375,-68.0001 171.2376,-61.0001"/>
</g>
<!-- Node17 -->
<g id="node8" class="node">
<title>Node17</title>
<g id="a_node8"><a xlink:href="classgame_1_1penguin_1_1_penguin_game.html#ae92f96626c8d88f77279b6a76822fbe0" target="_top" xlink:title="game::penguin::PenguinGame\l::getAvailableMoves">
<polygon fill="none" stroke="#000000" points="197,-.5 197,-30.5 361,-30.5 361,-.5 197,-.5"/>
<text text-anchor="start" x="205" y="-18.5" font-family="Helvetica,sans-Serif" font-size="10.00" fill="#000000">game::penguin::PenguinGame</text>
<text text-anchor="middle" x="279" y="-7.5" font-family="Helvetica,sans-Serif" font-size="10.00" fill="#000000">::getAvailableMoves</text>
</a>
</g>
</g>
<!-- Node10&#45;&gt;Node17 -->
<g id="edge7" class="edge">
<title>Node10&#45;&gt;Node17</title>
<path fill="none" stroke="#191970" d="M151.2988,-47.0232C173.1772,-41.6225 197.0703,-35.7245 218.2096,-30.5062"/>
<polygon fill="#191970" stroke="#191970" points="150.2753,-43.6707 141.4055,-49.4654 151.9529,-50.4667 150.2753,-43.6707"/>
</g>
<!-- Node12 -->
<g id="node3" class="node">
<title>Node12</title>
<g id="a_node3"><a xlink:href="classgame_1_1penguin_1_1_board.html#a3d659743bc33b43168c82dc4e2d3b00e" target="_top" xlink:title="Chek wether or not the game is finished. ">
<polygon fill="none" stroke="#000000" points="417,-122.5 417,-152.5 541,-152.5 541,-122.5 417,-122.5"/>
<text text-anchor="start" x="425" y="-140.5" font-family="Helvetica,sans-Serif" font-size="10.00" fill="#000000">game::penguin::Board</text>
<text text-anchor="middle" x="479" y="-129.5" font-family="Helvetica,sans-Serif" font-size="10.00" fill="#000000">::checkStatus</text>
</a>
</g>
</g>
<!-- Node11&#45;&gt;Node12 -->
<g id="edge2" class="edge">
<title>Node11&#45;&gt;Node12</title>
<path fill="none" stroke="#191970" d="M351.2365,-122.1684C372.7238,-124.7469 396.0685,-127.5482 416.8535,-130.0424"/>
<polygon fill="#191970" stroke="#191970" points="351.5307,-118.6787 341.1849,-120.9622 350.6967,-125.6288 351.5307,-118.6787"/>
</g>
<!-- Node13 -->
<g id="node4" class="node">
<title>Node13</title>
<g id="a_node4"><a xlink:href="classgame_1_1penguin_1_1_penguin_game.html#aac449b76f27098b1d2218cc51e7f70b4" target="_top" xlink:title="Get the Human player to play, not the penguin one. ">
<polygon fill="none" stroke="#000000" points="397,-73.5 397,-103.5 561,-103.5 561,-73.5 397,-73.5"/>
<text text-anchor="start" x="405" y="-91.5" font-family="Helvetica,sans-Serif" font-size="10.00" fill="#000000">game::penguin::PenguinGame</text>
<text text-anchor="middle" x="479" y="-80.5" font-family="Helvetica,sans-Serif" font-size="10.00" fill="#000000">::getPlayerToPlay</text>
</a>
</g>
</g>
<!-- Node11&#45;&gt;Node13 -->
<g id="edge3" class="edge">
<title>Node11&#45;&gt;Node13</title>
<path fill="none" stroke="#191970" d="M351.2949,-104.4631C366.1276,-102.609 381.8433,-100.6446 396.9896,-98.7513"/>
<polygon fill="#191970" stroke="#191970" points="350.6736,-101.0135 341.1849,-105.7269 351.5419,-107.9594 350.6736,-101.0135"/>
</g>
<!-- Node14 -->
<g id="node5" class="node">
<title>Node14</title>
<g id="a_node5"><a xlink:href="classgame_1_1penguin_1_1_console_game.html#a56af132d8e3d16902fb46b7979d37eae" target="_top" xlink:title="Loop while the game is not finished, told by the isFinished method. ">
<polygon fill="none" stroke="#000000" points="597,-73.5 597,-103.5 761,-103.5 761,-73.5 597,-73.5"/>
<text text-anchor="start" x="605" y="-91.5" font-family="Helvetica,sans-Serif" font-size="10.00" fill="#000000">game::penguin::ConsoleGame</text>
<text text-anchor="middle" x="679" y="-80.5" font-family="Helvetica,sans-Serif" font-size="10.00" fill="#000000">::loop</text>
</a>
</g>
</g>
<!-- Node13&#45;&gt;Node14 -->
<g id="edge4" class="edge">
<title>Node13&#45;&gt;Node14</title>
<path fill="none" stroke="#191970" d="M571.4658,-88.5C579.9136,-88.5 588.4335,-88.5 596.7826,-88.5"/>
<polygon fill="#191970" stroke="#191970" points="571.2135,-85.0001 561.2135,-88.5 571.2134,-92.0001 571.2135,-85.0001"/>
</g>
<!-- Node15 -->
<g id="node6" class="node">
<title>Node15</title>
<g id="a_node6"><a xlink:href="main_8cpp.html#a1dfeea39dabf076270426c94def1a2a2" target="_top" xlink:title="main">
<polygon fill="none" stroke="#000000" points="797,-79 797,-98 838,-98 838,-79 797,-79"/>
<text text-anchor="middle" x="817.5" y="-86" font-family="Helvetica,sans-Serif" font-size="10.00" fill="#000000">main</text>
</a>
</g>
</g>
<!-- Node14&#45;&gt;Node15 -->
<g id="edge5" class="edge">
<title>Node14&#45;&gt;Node15</title>
<path fill="none" stroke="#191970" d="M771.2725,-88.5C780.7768,-88.5 789.6282,-88.5 796.9893,-88.5"/>
<polygon fill="#191970" stroke="#191970" points="771.1668,-85.0001 761.1667,-88.5 771.1667,-92.0001 771.1668,-85.0001"/>
</g>
</g>
</svg>
