<?xml version="1.0" encoding="UTF-8" standalone="no"?>
<!DOCTYPE svg PUBLIC "-//W3C//DTD SVG 1.1//EN"
 "http://www.w3.org/Graphics/SVG/1.1/DTD/svg11.dtd">
<!-- Generated by graphviz version 2.40.1 (20161225.0304)
 -->
<!-- Title: /workspace/src/game_logic/utils/conversions.hpp Pages: 1 -->
<svg width="260pt" height="151pt"
 viewBox="0.00 0.00 259.50 151.00" xmlns="http://www.w3.org/2000/svg" xmlns:xlink="http://www.w3.org/1999/xlink">
<g id="graph0" class="graph" transform="scale(1 1) rotate(0) translate(4 147)">
<title>/workspace/src/game_logic/utils/conversions.hpp</title>
<!-- Node0 -->
<g id="node1" class="node">
<title>Node0</title>
<polygon fill="#bfbfbf" stroke="#000000" points="46,-112.5 46,-142.5 198,-142.5 198,-112.5 46,-112.5"/>
<text text-anchor="start" x="54" y="-130.5" font-family="Helvetica,sans-Serif" font-size="10.00" fill="#000000">/workspace/src/game</text>
<text text-anchor="middle" x="122" y="-119.5" font-family="Helvetica,sans-Serif" font-size="10.00" fill="#000000">_logic/utils/conversions.hpp</text>
</g>
<!-- Node1 -->
<g id="node2" class="node">
<title>Node1</title>
<g id="a_node2"><a xlink:href="_position_8hpp.html" target="_top" xlink:title="../utils/Position.hpp">
<polygon fill="none" stroke="#000000" points="0,-56.5 0,-75.5 110,-75.5 110,-56.5 0,-56.5"/>
<text text-anchor="middle" x="55" y="-63.5" font-family="Helvetica,sans-Serif" font-size="10.00" fill="#000000">../utils/Position.hpp</text>
</a>
</g>
</g>
<!-- Node0&#45;&gt;Node1 -->
<g id="edge1" class="edge">
<title>Node0&#45;&gt;Node1</title>
<path fill="none" stroke="#191970" d="M105.4382,-112.2977C95.6535,-103.3163 83.2526,-91.9334 73.1957,-82.702"/>
<polygon fill="#191970" stroke="#191970" points="75.4613,-80.0307 65.7275,-75.8469 70.7278,-85.1876 75.4613,-80.0307"/>
</g>
<!-- Node4 -->
<g id="node5" class="node">
<title>Node4</title>
<g id="a_node5"><a xlink:href="_position3_d_8hpp.html" target="_top" xlink:title="../utils/Position3D.hpp">
<polygon fill="none" stroke="#000000" points="128.5,-56.5 128.5,-75.5 251.5,-75.5 251.5,-56.5 128.5,-56.5"/>
<text text-anchor="middle" x="190" y="-63.5" font-family="Helvetica,sans-Serif" font-size="10.00" fill="#000000">../utils/Position3D.hpp</text>
</a>
</g>
</g>
<!-- Node0&#45;&gt;Node4 -->
<g id="edge4" class="edge">
<title>Node0&#45;&gt;Node4</title>
<path fill="none" stroke="#191970" d="M138.809,-112.2977C148.7397,-103.3163 161.3257,-91.9334 171.5327,-82.702"/>
<polygon fill="#191970" stroke="#191970" points="174.0434,-85.1505 179.1123,-75.8469 169.348,-79.9588 174.0434,-85.1505"/>
</g>
<!-- Node2 -->
<g id="node3" class="node">
<title>Node2</title>
<polygon fill="none" stroke="#bfbfbf" points="50.5,-.5 50.5,-19.5 103.5,-19.5 103.5,-.5 50.5,-.5"/>
<text text-anchor="middle" x="77" y="-7.5" font-family="Helvetica,sans-Serif" font-size="10.00" fill="#000000">stdlib.h</text>
</g>
<!-- Node1&#45;&gt;Node2 -->
<g id="edge2" class="edge">
<title>Node1&#45;&gt;Node2</title>
<path fill="none" stroke="#191970" d="M58.8321,-56.2455C61.7659,-48.7776 65.9047,-38.2427 69.491,-29.1137"/>
<polygon fill="#191970" stroke="#191970" points="72.8129,-30.23 73.2118,-19.6427 66.2976,-27.6704 72.8129,-30.23"/>
</g>
<!-- Node3 -->
<g id="node4" class="node">
<title>Node3</title>
<polygon fill="none" stroke="#bfbfbf" points="132.5,-.5 132.5,-19.5 225.5,-19.5 225.5,-.5 132.5,-.5"/>
<text text-anchor="middle" x="179" y="-7.5" font-family="Helvetica,sans-Serif" font-size="10.00" fill="#000000">unordered_map</text>
</g>
<!-- Node1&#45;&gt;Node3 -->
<g id="edge3" class="edge">
<title>Node1&#45;&gt;Node3</title>
<path fill="none" stroke="#191970" d="M76.3164,-56.3733C96.2216,-47.3838 126.1436,-33.8706 148.56,-23.7471"/>
<polygon fill="#191970" stroke="#191970" points="150.2887,-26.8068 157.9618,-19.5011 147.4075,-20.4272 150.2887,-26.8068"/>
</g>
<!-- Node4&#45;&gt;Node2 -->
<g id="edge5" class="edge">
<title>Node4&#45;&gt;Node2</title>
<path fill="none" stroke="#191970" d="M170.5746,-56.3733C152.5979,-47.4644 125.6559,-34.1127 105.291,-24.0203"/>
<polygon fill="#191970" stroke="#191970" points="106.6861,-20.8055 96.1719,-19.5011 103.5778,-27.0776 106.6861,-20.8055"/>
</g>
<!-- Node4&#45;&gt;Node3 -->
<g id="edge6" class="edge">
<title>Node4&#45;&gt;Node3</title>
<path fill="none" stroke="#191970" d="M188.0839,-56.2455C186.6486,-48.9382 184.6364,-38.6944 182.8705,-29.7046"/>
<polygon fill="#191970" stroke="#191970" points="186.256,-28.7805 180.8941,-19.6427 179.3873,-30.1298 186.256,-28.7805"/>
</g>
</g>
</svg>
