<?xml version="1.0" encoding="UTF-8" standalone="no"?>
<!DOCTYPE svg PUBLIC "-//W3C//DTD SVG 1.1//EN"
 "http://www.w3.org/Graphics/SVG/1.1/DTD/svg11.dtd">
<!-- Generated by graphviz version 2.40.1 (20161225.0304)
 -->
<!-- Title: /workspace/src/dbg.h Pages: 1 -->
<svg width="828pt" height="84pt"
 viewBox="0.00 0.00 827.50 84.00" xmlns="http://www.w3.org/2000/svg" xmlns:xlink="http://www.w3.org/1999/xlink">
<g id="graph0" class="graph" transform="scale(1 1) rotate(0) translate(4 80)">
<title>/workspace/src/dbg.h</title>
<!-- Node0 -->
<g id="node1" class="node">
<title>Node0</title>
<polygon fill="#bfbfbf" stroke="#000000" points="344.5,-56.5 344.5,-75.5 463.5,-75.5 463.5,-56.5 344.5,-56.5"/>
<text text-anchor="middle" x="404" y="-63.5" font-family="Helvetica,sans-Serif" font-size="10.00" fill="#000000">/workspace/src/dbg.h</text>
</g>
<!-- Node1 -->
<g id="node2" class="node">
<title>Node1</title>
<polygon fill="none" stroke="#bfbfbf" points="0,-.5 0,-19.5 64,-19.5 64,-.5 0,-.5"/>
<text text-anchor="middle" x="32" y="-7.5" font-family="Helvetica,sans-Serif" font-size="10.00" fill="#000000">algorithm</text>
</g>
<!-- Node0&#45;&gt;Node1 -->
<g id="edge1" class="edge">
<title>Node0&#45;&gt;Node1</title>
<path fill="none" stroke="#191970" d="M344.2078,-59.5351C279.832,-52.1607 174.2502,-38.8721 74.1425,-20.067"/>
<polygon fill="#191970" stroke="#191970" points="74.6394,-16.5988 64.1617,-18.17 73.3323,-23.4757 74.6394,-16.5988"/>
</g>
<!-- Node2 -->
<g id="node3" class="node">
<title>Node2</title>
<polygon fill="none" stroke="#bfbfbf" points="82,-.5 82,-19.5 132,-19.5 132,-.5 82,-.5"/>
<text text-anchor="middle" x="107" y="-7.5" font-family="Helvetica,sans-Serif" font-size="10.00" fill="#000000">chrono</text>
</g>
<!-- Node0&#45;&gt;Node2 -->
<g id="edge2" class="edge">
<title>Node0&#45;&gt;Node2</title>
<path fill="none" stroke="#191970" d="M344.3356,-57.5307C293.0768,-49.8092 217.0485,-37.3 142.2341,-20.0922"/>
<polygon fill="#191970" stroke="#191970" points="142.7002,-16.6071 132.1668,-17.746 141.1114,-23.4244 142.7002,-16.6071"/>
</g>
<!-- Node3 -->
<g id="node4" class="node">
<title>Node3</title>
<polygon fill="none" stroke="#bfbfbf" points="150,-.5 150,-19.5 194,-19.5 194,-.5 150,-.5"/>
<text text-anchor="middle" x="172" y="-7.5" font-family="Helvetica,sans-Serif" font-size="10.00" fill="#000000">ctime</text>
</g>
<!-- Node0&#45;&gt;Node3 -->
<g id="edge3" class="edge">
<title>Node0&#45;&gt;Node3</title>
<path fill="none" stroke="#191970" d="M357.0053,-56.4553C318.2432,-48.3103 261.6473,-35.7951 203.9284,-20.0951"/>
<polygon fill="#191970" stroke="#191970" points="204.8513,-16.719 194.2812,-17.4436 202.9961,-23.4687 204.8513,-16.719"/>
</g>
<!-- Node4 -->
<g id="node5" class="node">
<title>Node4</title>
<polygon fill="none" stroke="#bfbfbf" points="212,-.5 212,-19.5 268,-19.5 268,-.5 212,-.5"/>
<text text-anchor="middle" x="240" y="-7.5" font-family="Helvetica,sans-Serif" font-size="10.00" fill="#000000">iomanip</text>
</g>
<!-- Node0&#45;&gt;Node4 -->
<g id="edge4" class="edge">
<title>Node0&#45;&gt;Node4</title>
<path fill="none" stroke="#191970" d="M375.8074,-56.3733C348.6547,-47.1016 307.4093,-33.0178 277.4975,-22.804"/>
<polygon fill="#191970" stroke="#191970" points="278.4192,-19.4204 267.8247,-19.5011 276.1572,-26.0449 278.4192,-19.4204"/>
</g>
<!-- Node5 -->
<g id="node6" class="node">
<title>Node5</title>
<polygon fill="none" stroke="#bfbfbf" points="286.5,-.5 286.5,-19.5 317.5,-19.5 317.5,-.5 286.5,-.5"/>
<text text-anchor="middle" x="302" y="-7.5" font-family="Helvetica,sans-Serif" font-size="10.00" fill="#000000">ios</text>
</g>
<!-- Node0&#45;&gt;Node5 -->
<g id="edge5" class="edge">
<title>Node0&#45;&gt;Node5</title>
<path fill="none" stroke="#191970" d="M386.233,-56.2455C369.7072,-47.1726 344.9358,-33.5726 326.529,-23.4669"/>
<polygon fill="#191970" stroke="#191970" points="328.0112,-20.2879 317.561,-18.5433 324.6423,-26.4239 328.0112,-20.2879"/>
</g>
<!-- Node6 -->
<g id="node7" class="node">
<title>Node6</title>
<polygon fill="none" stroke="#bfbfbf" points="336,-.5 336,-19.5 396,-19.5 396,-.5 336,-.5"/>
<text text-anchor="middle" x="366" y="-7.5" font-family="Helvetica,sans-Serif" font-size="10.00" fill="#000000">iostream</text>
</g>
<!-- Node0&#45;&gt;Node6 -->
<g id="edge6" class="edge">
<title>Node0&#45;&gt;Node6</title>
<path fill="none" stroke="#191970" d="M397.3809,-56.2455C392.0954,-48.4564 384.5459,-37.3308 378.1762,-27.9439"/>
<polygon fill="#191970" stroke="#191970" points="381.0545,-25.9522 372.5432,-19.6427 375.2621,-29.8827 381.0545,-25.9522"/>
</g>
<!-- Node7 -->
<g id="node8" class="node">
<title>Node7</title>
<polygon fill="none" stroke="#bfbfbf" points="414,-.5 414,-19.5 472,-19.5 472,-.5 414,-.5"/>
<text text-anchor="middle" x="443" y="-7.5" font-family="Helvetica,sans-Serif" font-size="10.00" fill="#000000">memory</text>
</g>
<!-- Node0&#45;&gt;Node7 -->
<g id="edge7" class="edge">
<title>Node0&#45;&gt;Node7</title>
<path fill="none" stroke="#191970" d="M410.7933,-56.2455C416.2178,-48.4564 423.9661,-37.3308 430.5033,-27.9439"/>
<polygon fill="#191970" stroke="#191970" points="433.4417,-29.849 436.2846,-19.6427 427.6975,-25.8485 433.4417,-29.849"/>
</g>
<!-- Node8 -->
<g id="node9" class="node">
<title>Node8</title>
<polygon fill="none" stroke="#bfbfbf" points="490,-.5 490,-19.5 546,-19.5 546,-.5 490,-.5"/>
<text text-anchor="middle" x="518" y="-7.5" font-family="Helvetica,sans-Serif" font-size="10.00" fill="#000000">sstream</text>
</g>
<!-- Node0&#45;&gt;Node8 -->
<g id="edge8" class="edge">
<title>Node0&#45;&gt;Node8</title>
<path fill="none" stroke="#191970" d="M423.5973,-56.3733C441.7331,-47.4644 468.9135,-34.1127 489.4587,-24.0203"/>
<polygon fill="#191970" stroke="#191970" points="491.2261,-27.0517 498.6584,-19.5011 488.1397,-20.7688 491.2261,-27.0517"/>
</g>
<!-- Node9 -->
<g id="node10" class="node">
<title>Node9</title>
<polygon fill="none" stroke="#bfbfbf" points="564,-.5 564,-19.5 608,-19.5 608,-.5 564,-.5"/>
<text text-anchor="middle" x="586" y="-7.5" font-family="Helvetica,sans-Serif" font-size="10.00" fill="#000000">string</text>
</g>
<!-- Node0&#45;&gt;Node9 -->
<g id="edge9" class="edge">
<title>Node0&#45;&gt;Node9</title>
<path fill="none" stroke="#191970" d="M435.8617,-56.4586C464.4822,-47.8514 507.894,-34.7067 554.3562,-20.1695"/>
<polygon fill="#191970" stroke="#191970" points="555.5039,-23.4778 563.9987,-17.1462 553.4096,-16.7984 555.5039,-23.4778"/>
</g>
<!-- Node10 -->
<g id="node11" class="node">
<title>Node10</title>
<polygon fill="none" stroke="#bfbfbf" points="626.5,-.5 626.5,-19.5 667.5,-19.5 667.5,-.5 626.5,-.5"/>
<text text-anchor="middle" x="647" y="-7.5" font-family="Helvetica,sans-Serif" font-size="10.00" fill="#000000">tuple</text>
</g>
<!-- Node0&#45;&gt;Node10 -->
<g id="edge10" class="edge">
<title>Node0&#45;&gt;Node10</title>
<path fill="none" stroke="#191970" d="M455.5961,-56.4945C496.7682,-48.5393 556.0538,-36.2606 616.6925,-19.8526"/>
<polygon fill="#191970" stroke="#191970" points="617.7139,-23.2018 626.4336,-17.1837 615.8642,-16.4506 617.7139,-23.2018"/>
</g>
<!-- Node11 -->
<g id="node12" class="node">
<title>Node11</title>
<polygon fill="none" stroke="#bfbfbf" points="685.5,-.5 685.5,-19.5 754.5,-19.5 754.5,-.5 685.5,-.5"/>
<text text-anchor="middle" x="720" y="-7.5" font-family="Helvetica,sans-Serif" font-size="10.00" fill="#000000">type_traits</text>
</g>
<!-- Node0&#45;&gt;Node11 -->
<g id="edge11" class="edge">
<title>Node0&#45;&gt;Node11</title>
<path fill="none" stroke="#191970" d="M463.5724,-57.0444C516.7341,-48.8069 596.9254,-35.7803 675.2665,-20.2657"/>
<polygon fill="#191970" stroke="#191970" points="676.1847,-23.6515 685.306,-18.2615 674.8143,-16.787 676.1847,-23.6515"/>
</g>
<!-- Node12 -->
<g id="node13" class="node">
<title>Node12</title>
<polygon fill="none" stroke="#bfbfbf" points="772.5,-.5 772.5,-19.5 819.5,-19.5 819.5,-.5 772.5,-.5"/>
<text text-anchor="middle" x="796" y="-7.5" font-family="Helvetica,sans-Serif" font-size="10.00" fill="#000000">vector</text>
</g>
<!-- Node0&#45;&gt;Node12 -->
<g id="edge12" class="edge">
<title>Node0&#45;&gt;Node12</title>
<path fill="none" stroke="#191970" d="M463.7906,-61.5973C533.563,-55.7396 652.4394,-43.5269 762.4262,-20.053"/>
<polygon fill="#191970" stroke="#191970" points="763.329,-23.4387 772.3589,-17.8967 761.8439,-16.598 763.329,-23.4387"/>
</g>
</g>
</svg>
