<?xml version="1.0" encoding="UTF-8" standalone="no"?>
<!DOCTYPE svg PUBLIC "-//W3C//DTD SVG 1.1//EN"
 "http://www.w3.org/Graphics/SVG/1.1/DTD/svg11.dtd">
<!-- Generated by graphviz version 2.40.1 (20161225.0304)
 -->
<!-- Title: /workspace/src/game_logic Pages: 1 -->
<svg width="206pt" height="327pt"
 viewBox="0.00 0.00 206.00 327.00" xmlns="http://www.w3.org/2000/svg" xmlns:xlink="http://www.w3.org/1999/xlink">
<g id="graph0" class="graph" transform="scale(1 1) rotate(0) translate(4 323)">
<title>/workspace/src/game_logic</title>
<g id="clust1" class="cluster">
<title>clusterdir_68267d1309a1af8e8297ef4c3efbcdba</title>
<g id="a_clust1"><a xlink:href="dir_68267d1309a1af8e8297ef4c3efbcdba.html" target="_top" xlink:title="src">
<polygon fill="#ddddee" stroke="#000000" points="8,-8 8,-311 136,-311 136,-8 8,-8"/>
<text text-anchor="middle" x="72" y="-299" font-family="Helvetica,sans-Serif" font-size="10.00" fill="#000000">src</text>
</a>
</g>
</g>
<g id="clust2" class="cluster">
<title>clusterdir_67c31d1dabedcd2de121732d2ab29758</title>
<g id="a_clust2"><a xlink:href="dir_67c31d1dabedcd2de121732d2ab29758.html" target="_top">
<polygon fill="#eeeeff" stroke="#000000" points="16,-16 16,-284 128,-284 128,-16 16,-16"/>
</a>
</g>
</g>
<!-- dir_67c31d1dabedcd2de121732d2ab29758 -->
<g id="node1" class="node">
<title>dir_67c31d1dabedcd2de121732d2ab29758</title>
<text text-anchor="middle" x="77" y="-255.5" font-family="Helvetica,sans-Serif" font-size="10.00" fill="#000000">game_logic</text>
</g>
<!-- dir_3d571726d2a03b99b8b056d1165a6136 -->
<g id="node2" class="node">
<title>dir_3d571726d2a03b99b8b056d1165a6136</title>
<g id="a_node2"><a xlink:href="dir_3d571726d2a03b99b8b056d1165a6136.html" target="_top" xlink:title="penguin">
<polygon fill="#ffffff" stroke="#000000" points="100,-204 44,-204 44,-168 100,-168 100,-204"/>
<text text-anchor="middle" x="72" y="-183.5" font-family="Helvetica,sans-Serif" font-size="10.00" fill="#000000">penguin</text>
</a>
</g>
</g>
<!-- dir_67c31d1dabedcd2de121732d2ab29758&#45;&gt;dir_3d571726d2a03b99b8b056d1165a6136 -->
<g id="edge5" class="edge">
<title>dir_67c31d1dabedcd2de121732d2ab29758&#45;&gt;dir_3d571726d2a03b99b8b056d1165a6136</title>
<path fill="none" stroke="#000000" d="M75.7383,-239.8314C75.2035,-232.131 74.5677,-222.9743 73.9734,-214.4166"/>
<polygon fill="#000000" stroke="#000000" points="77.4632,-214.1467 73.2787,-204.4133 70.48,-214.6317 77.4632,-214.1467"/>
<g id="a_edge5&#45;headlabel"><a xlink:href="dir_000001_000002.html" target="_top" xlink:title="14">
<text text-anchor="middle" x="80.5445" y="-215.0361" font-family="Helvetica,sans-Serif" font-size="10.00" fill="#000000">14</text>
</a>
</g>
</g>
<!-- dir_ac716f7ff6933da9c35333b48a4e4758 -->
<g id="node3" class="node">
<title>dir_ac716f7ff6933da9c35333b48a4e4758</title>
<g id="a_node3"><a xlink:href="dir_ac716f7ff6933da9c35333b48a4e4758.html" target="_top" xlink:title="tic_tac_toe">
<polygon fill="#ffffff" stroke="#000000" points="113,-60 43,-60 43,-24 113,-24 113,-60"/>
<text text-anchor="middle" x="78" y="-39.5" font-family="Helvetica,sans-Serif" font-size="10.00" fill="#000000">tic_tac_toe</text>
</a>
</g>
</g>
<!-- dir_67c31d1dabedcd2de121732d2ab29758&#45;&gt;dir_ac716f7ff6933da9c35333b48a4e4758 -->
<g id="edge3" class="edge">
<title>dir_67c31d1dabedcd2de121732d2ab29758&#45;&gt;dir_ac716f7ff6933da9c35333b48a4e4758</title>
<path fill="none" stroke="#000000" d="M57.95,-239.8859C49.143,-230.1885 39.6254,-217.4808 35,-204 28.0692,-183.8 38.9547,-104.5421 42,-96 45.426,-86.3902 50.9321,-76.8228 56.6183,-68.47"/>
<polygon fill="#000000" stroke="#000000" points="59.5301,-70.4158 62.5295,-60.2543 53.848,-66.3275 59.5301,-70.4158"/>
<g id="a_edge3&#45;headlabel"><a xlink:href="dir_000001_000003.html" target="_top" xlink:title="10">
<text text-anchor="middle" x="59.7355" y="-72.4918" font-family="Helvetica,sans-Serif" font-size="10.00" fill="#000000">10</text>
</a>
</g>
</g>
<!-- dir_40ef77c4b8501182ec5a1210fe11d29f -->
<g id="node4" class="node">
<title>dir_40ef77c4b8501182ec5a1210fe11d29f</title>
<g id="a_node4"><a xlink:href="dir_40ef77c4b8501182ec5a1210fe11d29f.html" target="_top" xlink:title="utils">
<polygon fill="#ffffff" stroke="#000000" points="105,-132 51,-132 51,-96 105,-96 105,-132"/>
<text text-anchor="middle" x="78" y="-111.5" font-family="Helvetica,sans-Serif" font-size="10.00" fill="#000000">utils</text>
</a>
</g>
</g>
<!-- dir_67c31d1dabedcd2de121732d2ab29758&#45;&gt;dir_40ef77c4b8501182ec5a1210fe11d29f -->
<g id="edge4" class="edge">
<title>dir_67c31d1dabedcd2de121732d2ab29758&#45;&gt;dir_40ef77c4b8501182ec5a1210fe11d29f</title>
<path fill="none" stroke="#000000" d="M91.2359,-239.6423C98.0539,-229.6872 105.4862,-216.8222 109,-204 113.2288,-188.5689 113.1221,-183.4599 109,-168 106.5048,-158.6419 101.9592,-149.2199 97.1039,-140.925"/>
<polygon fill="#000000" stroke="#000000" points="100.0608,-139.0521 91.7963,-132.4228 94.1229,-142.759 100.0608,-139.0521"/>
<g id="a_edge4&#45;headlabel"><a xlink:href="dir_000001_000004.html" target="_top" xlink:title="12">
<text text-anchor="middle" x="104.3728" y="-138.0978" font-family="Helvetica,sans-Serif" font-size="10.00" fill="#000000">12</text>
</a>
</g>
</g>
<!-- dir_3d571726d2a03b99b8b056d1165a6136&#45;&gt;dir_40ef77c4b8501182ec5a1210fe11d29f -->
<g id="edge8" class="edge">
<title>dir_3d571726d2a03b99b8b056d1165a6136&#45;&gt;dir_40ef77c4b8501182ec5a1210fe11d29f</title>
<path fill="none" stroke="#000000" d="M67.5617,-167.8314C67.4529,-160.131 67.9951,-150.9743 69.0169,-142.4166"/>
<polygon fill="#000000" stroke="#000000" points="72.4956,-142.8164 70.4896,-132.4133 65.5703,-141.7968 72.4956,-142.8164"/>
<g id="a_edge8&#45;headlabel"><a xlink:href="dir_000002_000004.html" target="_top" xlink:title="7">
<text text-anchor="middle" x="74.7812" y="-144.2862" font-family="Helvetica,sans-Serif" font-size="10.00" fill="#000000">7</text>
</a>
</g>
</g>
<!-- dir_a8e9c5c3b84d532c328524d59d900346 -->
<g id="node5" class="node">
<title>dir_a8e9c5c3b84d532c328524d59d900346</title>
<g id="a_node5"><a xlink:href="dir_a8e9c5c3b84d532c328524d59d900346.html" target="_top" xlink:title="mcts">
<polygon fill="none" stroke="#000000" points="198,-204 144,-204 144,-168 198,-168 198,-204"/>
<text text-anchor="middle" x="171" y="-183.5" font-family="Helvetica,sans-Serif" font-size="10.00" fill="#000000">mcts</text>
</a>
</g>
</g>
<!-- dir_3d571726d2a03b99b8b056d1165a6136&#45;&gt;dir_a8e9c5c3b84d532c328524d59d900346 -->
<g id="edge9" class="edge">
<title>dir_3d571726d2a03b99b8b056d1165a6136&#45;&gt;dir_a8e9c5c3b84d532c328524d59d900346</title>
<path fill="none" stroke="#000000" d="M100.2305,-186C111.3775,-186 122.5245,-186 133.6715,-186"/>
<polygon fill="#000000" stroke="#000000" points="133.9086,-189.5001 143.9085,-186 133.9085,-182.5001 133.9086,-189.5001"/>
<g id="a_edge9&#45;headlabel"><a xlink:href="dir_000002_000005.html" target="_top" xlink:title="1">
<text text-anchor="middle" x="130.3139" y="-189.8393" font-family="Helvetica,sans-Serif" font-size="10.00" fill="#000000">1</text>
</a>
</g>
</g>
<!-- dir_ac716f7ff6933da9c35333b48a4e4758&#45;&gt;dir_40ef77c4b8501182ec5a1210fe11d29f -->
<g id="edge1" class="edge">
<title>dir_ac716f7ff6933da9c35333b48a4e4758&#45;&gt;dir_40ef77c4b8501182ec5a1210fe11d29f</title>
<path fill="none" stroke="#000000" d="M83.976,-60.4133C84.7071,-68.0593 84.9203,-77.1084 84.6155,-85.5726"/>
<polygon fill="#000000" stroke="#000000" points="81.1048,-85.6264 83.9524,-95.8314 88.0902,-86.078 81.1048,-85.6264"/>
<g id="a_edge1&#45;headlabel"><a xlink:href="dir_000003_000004.html" target="_top" xlink:title="3">
<text text-anchor="middle" x="78.5032" y="-79.3562" font-family="Helvetica,sans-Serif" font-size="10.00" fill="#000000">3</text>
</a>
</g>
</g>
<!-- dir_ac716f7ff6933da9c35333b48a4e4758&#45;&gt;dir_a8e9c5c3b84d532c328524d59d900346 -->
<g id="edge2" class="edge">
<title>dir_ac716f7ff6933da9c35333b48a4e4758&#45;&gt;dir_a8e9c5c3b84d532c328524d59d900346</title>
<path fill="none" stroke="#000000" d="M90.4371,-60.4236C97.4221,-70.8286 106.2639,-84.096 114,-96 127.7316,-117.1296 142.9926,-141.2616 154.2655,-159.2148"/>
<polygon fill="#000000" stroke="#000000" points="151.4905,-161.3778 159.7676,-167.9913 157.4213,-157.6595 151.4905,-161.3778"/>
<g id="a_edge2&#45;headlabel"><a xlink:href="dir_000003_000005.html" target="_top" xlink:title="2">
<text text-anchor="middle" x="147.1756" y="-157.3403" font-family="Helvetica,sans-Serif" font-size="10.00" fill="#000000">2</text>
</a>
</g>
</g>
<!-- dir_40ef77c4b8501182ec5a1210fe11d29f&#45;&gt;dir_3d571726d2a03b99b8b056d1165a6136 -->
<g id="edge7" class="edge">
<title>dir_40ef77c4b8501182ec5a1210fe11d29f&#45;&gt;dir_3d571726d2a03b99b8b056d1165a6136</title>
<path fill="none" stroke="#000000" d="M82.4416,-132.4133C82.5366,-140.1442 81.9825,-149.3097 80.9506,-157.8545"/>
<polygon fill="#000000" stroke="#000000" points="77.476,-157.4252 79.4664,-167.8314 84.3998,-158.4552 77.476,-157.4252"/>
<g id="a_edge7&#45;headlabel"><a xlink:href="dir_000004_000002.html" target="_top" xlink:title="2">
<text text-anchor="middle" x="75.1965" y="-150.952" font-family="Helvetica,sans-Serif" font-size="10.00" fill="#000000">2</text>
</a>
</g>
</g>
<!-- dir_40ef77c4b8501182ec5a1210fe11d29f&#45;&gt;dir_ac716f7ff6933da9c35333b48a4e4758 -->
<g id="edge6" class="edge">
<title>dir_40ef77c4b8501182ec5a1210fe11d29f&#45;&gt;dir_ac716f7ff6933da9c35333b48a4e4758</title>
<path fill="none" stroke="#000000" d="M72.0476,-95.8314C71.2972,-88.131 71.0763,-78.9743 71.3849,-70.4166"/>
<polygon fill="#000000" stroke="#000000" points="74.8792,-70.6161 72.024,-60.4133 67.8935,-70.1697 74.8792,-70.6161"/>
<g id="a_edge6&#45;headlabel"><a xlink:href="dir_000004_000003.html" target="_top" xlink:title="2">
<text text-anchor="middle" x="77.4836" y="-71.8844" font-family="Helvetica,sans-Serif" font-size="10.00" fill="#000000">2</text>
</a>
</g>
</g>
<!-- dir_a8e9c5c3b84d532c328524d59d900346&#45;&gt;dir_67c31d1dabedcd2de121732d2ab29758 -->
<g id="edge11" class="edge">
<title>dir_a8e9c5c3b84d532c328524d59d900346&#45;&gt;dir_67c31d1dabedcd2de121732d2ab29758</title>
<path fill="none" stroke="#000000" d="M147.2874,-204.1628C135.5993,-213.1154 121.3401,-224.0374 108.7273,-233.6982"/>
<polygon fill="#000000" stroke="#000000" points="106.5307,-230.972 100.7202,-239.8314 110.7873,-236.5291 106.5307,-230.972"/>
<g id="a_edge11&#45;headlabel"><a xlink:href="dir_000005_000001.html" target="_top" xlink:title="27">
<text text-anchor="middle" x="107.6579" y="-224.0322" font-family="Helvetica,sans-Serif" font-size="10.00" fill="#000000">27</text>
</a>
</g>
</g>
<!-- dir_a8e9c5c3b84d532c328524d59d900346&#45;&gt;dir_3d571726d2a03b99b8b056d1165a6136 -->
<g id="edge13" class="edge">
<title>dir_a8e9c5c3b84d532c328524d59d900346&#45;&gt;dir_3d571726d2a03b99b8b056d1165a6136</title>
<path fill="none" stroke="#000000" d="M143.9085,-186C132.7615,-186 121.6145,-186 110.4675,-186"/>
<polygon fill="#000000" stroke="#000000" points="110.2305,-182.5001 100.2305,-186 110.2304,-189.5001 110.2305,-182.5001"/>
<g id="a_edge13&#45;headlabel"><a xlink:href="dir_000005_000002.html" target="_top" xlink:title="9">
<text text-anchor="middle" x="113.8251" y="-177.1607" font-family="Helvetica,sans-Serif" font-size="10.00" fill="#000000">9</text>
</a>
</g>
</g>
<!-- dir_a8e9c5c3b84d532c328524d59d900346&#45;&gt;dir_ac716f7ff6933da9c35333b48a4e4758 -->
<g id="edge10" class="edge">
<title>dir_a8e9c5c3b84d532c328524d59d900346&#45;&gt;dir_ac716f7ff6933da9c35333b48a4e4758</title>
<path fill="none" stroke="#000000" d="M167.3878,-167.8664C162.9634,-148.7635 154.1264,-118.402 139,-96 131.6305,-85.0859 121.5524,-74.9676 111.7109,-66.51"/>
<polygon fill="#000000" stroke="#000000" points="113.8698,-63.7538 103.9251,-60.0996 109.4205,-69.1579 113.8698,-63.7538"/>
<g id="a_edge10&#45;headlabel"><a xlink:href="dir_000005_000003.html" target="_top" xlink:title="6">
<text text-anchor="middle" x="118.4495" y="-61.3467" font-family="Helvetica,sans-Serif" font-size="10.00" fill="#000000">6</text>
</a>
</g>
</g>
<!-- dir_a8e9c5c3b84d532c328524d59d900346&#45;&gt;dir_40ef77c4b8501182ec5a1210fe11d29f -->
<g id="edge12" class="edge">
<title>dir_a8e9c5c3b84d532c328524d59d900346&#45;&gt;dir_40ef77c4b8501182ec5a1210fe11d29f</title>
<path fill="none" stroke="#000000" d="M147.5322,-167.8314C135.9673,-158.8779 121.8596,-147.9558 109.3817,-138.2955"/>
<polygon fill="#000000" stroke="#000000" points="111.5102,-135.5171 101.4603,-132.1628 107.225,-141.0521 111.5102,-135.5171"/>
<g id="a_edge12&#45;headlabel"><a xlink:href="dir_000005_000004.html" target="_top" xlink:title="1">
<text text-anchor="middle" x="116.0906" y="-132.9725" font-family="Helvetica,sans-Serif" font-size="10.00" fill="#000000">1</text>
</a>
</g>
</g>
</g>
</svg>
