<?xml version="1.0" encoding="UTF-8" standalone="no"?>
<!DOCTYPE svg PUBLIC "-//W3C//DTD SVG 1.1//EN"
 "http://www.w3.org/Graphics/SVG/1.1/DTD/svg11.dtd">
<!-- Generated by graphviz version 2.40.1 (20161225.0304)
 -->
<!-- Title: main Pages: 1 -->
<!--zoomable 771 -->
<svg id="main" version="1.1" xmlns="http://www.w3.org/2000/svg" xmlns:xlink="http://www.w3.org/1999/xlink" xml:space="preserve" onload="init(evt)">
<style type="text/css"><![CDATA[
.edge:hover path { stroke: red; }
.edge:hover polygon { stroke: red; fill: red; }
]]></style>
<script type="text/javascript"><![CDATA[
var edges = document.getElementsByTagName('g');
if (edges && edges.length) {
  for (var i=0;i<edges.length;i++) {
    if (edges[i].id.substr(0,4)=='edge') {
      edges[i].setAttribute('class','edge');
    }
  }
}
]]></script>
        <defs>
                <circle id="rim" cx="0" cy="0" r="7"/>
                <circle id="rim2" cx="0" cy="0" r="3.5"/>
                <g id="zoomPlus">
                        <use xlink:href="#rim" fill="#404040">
                                <set attributeName="fill" to="#808080" begin="zoomplus.mouseover" end="zoomplus.mouseout"/>
                        </use>
                        <path d="M-4,0h8M0,-4v8" fill="none" stroke="white" stroke-width="1.5" pointer-events="none"/>
                </g>
                <g id="zoomMin">
                        <use xlink:href="#rim" fill="#404040">
                                <set attributeName="fill" to="#808080" begin="zoomminus.mouseover" end="zoomminus.mouseout"/>
                        </use>
                        <path d="M-4,0h8" fill="none" stroke="white" stroke-width="1.5" pointer-events="none"/>
                </g>
                <g id="dirArrow">
                        <path fill="none" stroke="white" stroke-width="1.5" d="M0,-3.0v7 M-2.5,-0.5L0,-3.0L2.5,-0.5"/>
                </g>
               <g id="resetDef">
                       <use xlink:href="#rim2" fill="#404040">
                               <set attributeName="fill" to="#808080" begin="reset.mouseover" end="reset.mouseout"/>
                       </use>
               </g>
        </defs>

<script type="text/javascript">
var viewWidth = 1334;
var viewHeight = 771;
var sectionId = 'dynsection-1';
</script>
<script xlink:href="svgpan.js"/>
<svg id="graph" class="graph">
<g id="viewport">
<title>main</title>
<!-- Node0 -->
<g id="node1" class="node">
<title>Node0</title>
<polygon fill="#bfbfbf" stroke="#000000" points="0,-395.5 0,-414.5 41,-414.5 41,-395.5 0,-395.5"/>
<text text-anchor="middle" x="20.5" y="-402.5" font-family="Helvetica,sans-Serif" font-size="10.00" fill="#000000">main</text>
</g>
<!-- Node1 -->
<g id="node2" class="node">
<title>Node1</title>
<g id="a_node2"><a xlink:href="classgame_1_1penguin_1_1_console_game.html#a56af132d8e3d16902fb46b7979d37eae" target="_top" xlink:title="Loop while the game is not finished, told by the isFinished method. ">
<polygon fill="none" stroke="#000000" points="77,-390 77,-420 241,-420 241,-390 77,-390"/>
<text text-anchor="start" x="85" y="-408" font-family="Helvetica,sans-Serif" font-size="10.00" fill="#000000">game::penguin::ConsoleGame</text>
<text text-anchor="middle" x="159" y="-397" font-family="Helvetica,sans-Serif" font-size="10.00" fill="#000000">::loop</text>
</a>
</g>
</g>
<!-- Node0&#45;&gt;Node1 -->
<g id="edge1" class="edge">
<title>Node0&#45;&gt;Node1</title>
<path fill="none" stroke="#191970" d="M41.2348,-405C48.5718,-405 57.3689,-405 66.807,-405"/>
<polygon fill="#191970" stroke="#191970" points="66.8403,-408.5001 76.8403,-405 66.8402,-401.5001 66.8403,-408.5001"/>
</g>
<!-- Node2 -->
<g id="node3" class="node">
<title>Node2</title>
<g id="a_node3"><a xlink:href="classgame_1_1penguin_1_1_console_game.html#a71c697742201f71b29327bf8554c2ef0" target="_top" xlink:title="game::penguin::ConsoleGame\l::draw">
<polygon fill="none" stroke="#000000" points="277,-575 277,-605 441,-605 441,-575 277,-575"/>
<text text-anchor="start" x="285" y="-593" font-family="Helvetica,sans-Serif" font-size="10.00" fill="#000000">game::penguin::ConsoleGame</text>
<text text-anchor="middle" x="359" y="-582" font-family="Helvetica,sans-Serif" font-size="10.00" fill="#000000">::draw</text>
</a>
</g>
</g>
<!-- Node1&#45;&gt;Node2 -->
<g id="edge2" class="edge">
<title>Node1&#45;&gt;Node2</title>
<path fill="none" stroke="#191970" d="M175.3711,-420.353C198.1128,-441.6594 240.5797,-481.3702 277,-515 296.3677,-532.8838 318.4214,-553.0434 334.7761,-567.9545"/>
<polygon fill="#191970" stroke="#191970" points="332.5613,-570.6714 342.3102,-574.8199 337.2761,-565.4974 332.5613,-570.6714"/>
</g>
<!-- Node16 -->
<g id="node17" class="node">
<title>Node16</title>
<g id="a_node17"><a xlink:href="classgame_1_1penguin_1_1_penguin_game.html#ae5e55157da5e8a1ed2ccc2c9cbbad50d" target="_top" xlink:title="Tells if the game is finished yet. ">
<polygon fill="none" stroke="#000000" points="277,-441 277,-471 441,-471 441,-441 277,-441"/>
<text text-anchor="start" x="285" y="-459" font-family="Helvetica,sans-Serif" font-size="10.00" fill="#000000">game::penguin::PenguinGame</text>
<text text-anchor="middle" x="359" y="-448" font-family="Helvetica,sans-Serif" font-size="10.00" fill="#000000">::isFinished</text>
</a>
</g>
</g>
<!-- Node1&#45;&gt;Node16 -->
<g id="edge18" class="edge">
<title>Node1&#45;&gt;Node16</title>
<path fill="none" stroke="#191970" d="M217.9249,-420.0258C240.6097,-425.8105 266.7079,-432.4655 290.2402,-438.4663"/>
<polygon fill="#191970" stroke="#191970" points="289.5962,-441.914 300.151,-440.9935 291.3259,-435.131 289.5962,-441.914"/>
</g>
<!-- Node17 -->
<g id="node18" class="node">
<title>Node17</title>
<g id="a_node18"><a xlink:href="classgame_1_1_abstract_board.html#a689982e6640633d78008157906c6d63a" target="_top" xlink:title="Status of the game. ">
<polygon fill="none" stroke="#000000" points="529,-488 529,-518 648,-518 648,-488 529,-488"/>
<text text-anchor="start" x="537" y="-506" font-family="Helvetica,sans-Serif" font-size="10.00" fill="#000000">game::AbstractBoard</text>
<text text-anchor="middle" x="588.5" y="-495" font-family="Helvetica,sans-Serif" font-size="10.00" fill="#000000">::checkStatus</text>
</a>
</g>
</g>
<!-- Node1&#45;&gt;Node17 -->
<g id="edge50" class="edge">
<title>Node1&#45;&gt;Node17</title>
<path fill="none" stroke="#191970" d="M176.3122,-420.2191C198.0965,-438.3505 237.4646,-467.8391 277,-481 356.8324,-507.5754 454.3541,-510.0143 518.7767,-507.8145"/>
<polygon fill="#191970" stroke="#191970" points="518.9674,-511.3098 528.8242,-507.4246 518.6959,-504.3151 518.9674,-511.3098"/>
</g>
<!-- Node18 -->
<g id="node19" class="node">
<title>Node18</title>
<g id="a_node19"><a xlink:href="classgame_1_1penguin_1_1_penguin_game.html#aac449b76f27098b1d2218cc51e7f70b4" target="_top" xlink:title="Get the Human player to play, not the penguin one. ">
<polygon fill="none" stroke="#000000" points="277,-390 277,-420 441,-420 441,-390 277,-390"/>
<text text-anchor="start" x="285" y="-408" font-family="Helvetica,sans-Serif" font-size="10.00" fill="#000000">game::penguin::PenguinGame</text>
<text text-anchor="middle" x="359" y="-397" font-family="Helvetica,sans-Serif" font-size="10.00" fill="#000000">::getPlayerToPlay</text>
</a>
</g>
</g>
<!-- Node1&#45;&gt;Node18 -->
<g id="edge20" class="edge">
<title>Node1&#45;&gt;Node18</title>
<path fill="none" stroke="#191970" d="M241.2135,-405C249.5625,-405 258.0824,-405 266.5302,-405"/>
<polygon fill="#191970" stroke="#191970" points="266.7826,-408.5001 276.7826,-405 266.7826,-401.5001 266.7826,-408.5001"/>
</g>
<!-- Node24 -->
<g id="node25" class="node">
<title>Node24</title>
<g id="a_node25"><a xlink:href="classmcts_1_1_m_c_t_s_player.html#a48340fed9c5730f0d64ca177682f575e" target="_top" xlink:title="Returns the best move after running the ai. ">
<polygon fill="none" stroke="#000000" points="280,-236.5 280,-255.5 438,-255.5 438,-236.5 280,-236.5"/>
<text text-anchor="middle" x="359" y="-243.5" font-family="Helvetica,sans-Serif" font-size="10.00" fill="#000000">mcts::MCTSPlayer::bestMove</text>
</a>
</g>
</g>
<!-- Node1&#45;&gt;Node24 -->
<g id="edge28" class="edge">
<title>Node1&#45;&gt;Node24</title>
<path fill="none" stroke="#191970" d="M178.1768,-389.7544C215.9895,-359.6933 299.8521,-293.0226 338.6196,-262.2024"/>
<polygon fill="#191970" stroke="#191970" points="340.9527,-264.8189 346.6024,-255.8561 336.5965,-259.3395 340.9527,-264.8189"/>
</g>
<!-- Node42 -->
<g id="node43" class="node">
<title>Node42</title>
<g id="a_node43"><a xlink:href="classmcts_1_1_m_c_t_s_player.html#a02d0a6f2219decabb51ff9d8c4c9b355" target="_top" xlink:title="Moves the root node to node with targeted cell. ">
<polygon fill="none" stroke="#000000" points="277,-198.5 277,-217.5 441,-217.5 441,-198.5 277,-198.5"/>
<text text-anchor="middle" x="359" y="-205.5" font-family="Helvetica,sans-Serif" font-size="10.00" fill="#000000">mcts::MCTSPlayer::updateTree</text>
</a>
</g>
</g>
<!-- Node1&#45;&gt;Node42 -->
<g id="edge47" class="edge">
<title>Node1&#45;&gt;Node42</title>
<path fill="none" stroke="#191970" d="M164.5207,-389.7645C177.9465,-354.9851 215.7695,-269.4806 277,-227 279.7615,-225.0841 282.6887,-223.3591 285.7296,-221.8062"/>
<polygon fill="#191970" stroke="#191970" points="287.4105,-224.8899 295.1409,-217.6447 284.5796,-218.4878 287.4105,-224.8899"/>
</g>
<!-- Node43 -->
<g id="node44" class="node">
<title>Node43</title>
<g id="a_node44"><a xlink:href="classgame_1_1penguin_1_1_penguin_game.html#aa7fe86e287d704d3bc597893134bd408" target="_top" xlink:title="game::penguin::PenguinGame\l::play">
<polygon fill="none" stroke="#000000" points="277,-111 277,-141 441,-141 441,-111 277,-111"/>
<text text-anchor="start" x="285" y="-129" font-family="Helvetica,sans-Serif" font-size="10.00" fill="#000000">game::penguin::PenguinGame</text>
<text text-anchor="middle" x="359" y="-118" font-family="Helvetica,sans-Serif" font-size="10.00" fill="#000000">::play</text>
</a>
</g>
</g>
<!-- Node1&#45;&gt;Node43 -->
<g id="edge48" class="edge">
<title>Node1&#45;&gt;Node43</title>
<path fill="none" stroke="#191970" d="M164.7191,-389.8088C179.2457,-352.5885 220.4606,-255.0673 277,-189 290.8869,-172.7729 309.5759,-158.0221 325.6047,-146.88"/>
<polygon fill="#191970" stroke="#191970" points="327.8658,-149.5761 334.1885,-141.0747 323.9442,-143.7777 327.8658,-149.5761"/>
</g>
<!-- Node3 -->
<g id="node4" class="node">
<title>Node3</title>
<g id="a_node4"><a xlink:href="classgame_1_1penguin_1_1_print_hex.html#a87a58be4fea97f043e6dbe01a3045c1d" target="_top" xlink:title="game::penguin::PrintHex\l::print">
<polygon fill="none" stroke="#000000" points="520,-590 520,-620 657,-620 657,-590 520,-590"/>
<text text-anchor="start" x="528" y="-608" font-family="Helvetica,sans-Serif" font-size="10.00" fill="#000000">game::penguin::PrintHex</text>
<text text-anchor="middle" x="588.5" y="-597" font-family="Helvetica,sans-Serif" font-size="10.00" fill="#000000">::print</text>
</a>
</g>
</g>
<!-- Node2&#45;&gt;Node3 -->
<g id="edge3" class="edge">
<title>Node2&#45;&gt;Node3</title>
<path fill="none" stroke="#191970" d="M441.2065,-595.373C463.5138,-596.831 487.6097,-598.4059 509.7229,-599.8512"/>
<polygon fill="#191970" stroke="#191970" points="509.5229,-603.3455 519.7299,-600.5052 509.9795,-596.3604 509.5229,-603.3455"/>
</g>
<!-- Node4 -->
<g id="node5" class="node">
<title>Node4</title>
<g id="a_node5"><a xlink:href="classgame_1_1penguin_1_1_board.html#ac9fbe04a302208fcb5f66e717182b6d4" target="_top" xlink:title="Get the Cell. ">
<polygon fill="none" stroke="#000000" points="757.5,-656 757.5,-686 881.5,-686 881.5,-656 757.5,-656"/>
<text text-anchor="start" x="765.5" y="-674" font-family="Helvetica,sans-Serif" font-size="10.00" fill="#000000">game::penguin::Board</text>
<text text-anchor="middle" x="819.5" y="-663" font-family="Helvetica,sans-Serif" font-size="10.00" fill="#000000">::getCell</text>
</a>
</g>
</g>
<!-- Node3&#45;&gt;Node4 -->
<g id="edge4" class="edge">
<title>Node3&#45;&gt;Node4</title>
<path fill="none" stroke="#191970" d="M641.2065,-620.059C675.5303,-629.8658 720.4839,-642.7097 756.6645,-653.047"/>
<polygon fill="#191970" stroke="#191970" points="756.0437,-656.5096 766.6205,-655.8916 757.9668,-649.779 756.0437,-656.5096"/>
</g>
<!-- Node5 -->
<g id="node6" class="node">
<title>Node5</title>
<g id="a_node6"><a xlink:href="classgame_1_1penguin_1_1_board_cell.html#a6a978b7e72ef20475771eb6e453e0a39" target="_top" xlink:title="tells if the cell is gone or not ">
<polygon fill="none" stroke="#000000" points="748,-446 748,-476 891,-476 891,-446 748,-446"/>
<text text-anchor="start" x="756" y="-464" font-family="Helvetica,sans-Serif" font-size="10.00" fill="#000000">game::penguin::BoardCell</text>
<text text-anchor="middle" x="819.5" y="-453" font-family="Helvetica,sans-Serif" font-size="10.00" fill="#000000">::isGone</text>
</a>
</g>
</g>
<!-- Node3&#45;&gt;Node5 -->
<g id="edge5" class="edge">
<title>Node3&#45;&gt;Node5</title>
<path fill="none" stroke="#191970" d="M613.4187,-589.7761C636.6991,-575.1015 671.9722,-551.6908 700,-528 717.5227,-513.1887 716.7085,-503.42 736,-491 742.4657,-486.8373 749.5851,-483.1573 756.8572,-479.93"/>
<polygon fill="#191970" stroke="#191970" points="758.2226,-483.1529 766.1126,-476.082 755.5352,-476.6893 758.2226,-483.1529"/>
</g>
<!-- Node6 -->
<g id="node7" class="node">
<title>Node6</title>
<g id="a_node7"><a xlink:href="classgame_1_1penguin_1_1_board_cell.html#a011487b961b356a891144edcccc1473f" target="_top" xlink:title="Get the penguin standing on the cell. ">
<polygon fill="none" stroke="#000000" points="1164,-418 1164,-448 1307,-448 1307,-418 1164,-418"/>
<text text-anchor="start" x="1172" y="-436" font-family="Helvetica,sans-Serif" font-size="10.00" fill="#000000">game::penguin::BoardCell</text>
<text text-anchor="middle" x="1235.5" y="-425" font-family="Helvetica,sans-Serif" font-size="10.00" fill="#000000">::getOwner</text>
</a>
</g>
</g>
<!-- Node3&#45;&gt;Node6 -->
<g id="edge6" class="edge">
<title>Node3&#45;&gt;Node6</title>
<path fill="none" stroke="#191970" d="M634.4778,-589.9437C663.4801,-580.6249 701.7907,-568.6411 736,-559 886.0108,-516.723 1063.2503,-473.6175 1161.1354,-450.4019"/>
<polygon fill="#191970" stroke="#191970" points="1162.0111,-453.7914 1170.9355,-448.0812 1160.398,-446.9798 1162.0111,-453.7914"/>
</g>
<!-- Node7 -->
<g id="node8" class="node">
<title>Node7</title>
<g id="a_node8"><a xlink:href="classgame_1_1_abstract_pawn.html#a49354506912d0e1bf5272627aa2bc86e" target="_top" xlink:title="Get pawn&#39;s id. ">
<polygon fill="none" stroke="#000000" points="1177.5,-614 1177.5,-644 1293.5,-644 1293.5,-614 1177.5,-614"/>
<text text-anchor="start" x="1185.5" y="-632" font-family="Helvetica,sans-Serif" font-size="10.00" fill="#000000">game::AbstractPawn</text>
<text text-anchor="middle" x="1235.5" y="-621" font-family="Helvetica,sans-Serif" font-size="10.00" fill="#000000">::getId</text>
</a>
</g>
</g>
<!-- Node3&#45;&gt;Node7 -->
<g id="edge7" class="edge">
<title>Node3&#45;&gt;Node7</title>
<path fill="none" stroke="#191970" d="M657.1278,-607.5457C781.6031,-612.163 1043.1812,-621.8661 1167.3239,-626.4711"/>
<polygon fill="#191970" stroke="#191970" points="1167.3389,-629.9739 1177.4618,-626.8471 1167.5985,-622.9787 1167.3389,-629.9739"/>
</g>
<!-- Node8 -->
<g id="node9" class="node">
<title>Node8</title>
<g id="a_node9"><a xlink:href="classgame_1_1penguin_1_1_board_cell.html#abe8f2dc0eef3aed1e8701dc0b021c5a6" target="_top" xlink:title="Get the number of fish contained inside the cell. ">
<polygon fill="none" stroke="#000000" points="748,-568 748,-598 891,-598 891,-568 748,-568"/>
<text text-anchor="start" x="756" y="-586" font-family="Helvetica,sans-Serif" font-size="10.00" fill="#000000">game::penguin::BoardCell</text>
<text text-anchor="middle" x="819.5" y="-575" font-family="Helvetica,sans-Serif" font-size="10.00" fill="#000000">::getFish</text>
</a>
</g>
</g>
<!-- Node3&#45;&gt;Node8 -->
<g id="edge8" class="edge">
<title>Node3&#45;&gt;Node8</title>
<path fill="none" stroke="#191970" d="M657.1822,-598.4588C682.5366,-596.0441 711.5142,-593.2844 737.9016,-590.7713"/>
<polygon fill="#191970" stroke="#191970" points="738.2519,-594.2538 747.875,-589.8214 737.5882,-587.2854 738.2519,-594.2538"/>
</g>
<!-- Node14 -->
<g id="node15" class="node">
<title>Node14</title>
<g id="a_node15"><a xlink:href="namespacegame.html#a0fb03836882da582210ce59b390ad61f" target="_top" xlink:title="Converts a cube position in an offset system. ">
<polygon fill="none" stroke="#000000" points="747,-743.5 747,-762.5 892,-762.5 892,-743.5 747,-743.5"/>
<text text-anchor="middle" x="819.5" y="-750.5" font-family="Helvetica,sans-Serif" font-size="10.00" fill="#000000">game::hex_cube_to_offset</text>
</a>
</g>
</g>
<!-- Node3&#45;&gt;Node14 -->
<g id="edge16" class="edge">
<title>Node3&#45;&gt;Node14</title>
<path fill="none" stroke="#191970" d="M601.0008,-620.0217C624.4923,-647.2137 678.1026,-704.5054 736,-734 740.6013,-736.3441 745.4912,-738.4018 750.5066,-740.2078"/>
<polygon fill="#191970" stroke="#191970" points="749.6713,-743.6165 760.2635,-743.3795 751.8355,-736.9594 749.6713,-743.6165"/>
</g>
<!-- Node15 -->
<g id="node16" class="node">
<title>Node15</title>
<g id="a_node16"><a xlink:href="namespacegame.html#a758b3d0eea6eae0e6ce5ea1b8dc90ed9" target="_top" xlink:title="Converts an axial position to a cube position in an hexagonal grid. ">
<polygon fill="none" stroke="#000000" points="749,-705.5 749,-724.5 890,-724.5 890,-705.5 749,-705.5"/>
<text text-anchor="middle" x="819.5" y="-712.5" font-family="Helvetica,sans-Serif" font-size="10.00" fill="#000000">game::hex_axial_to_cube</text>
</a>
</g>
</g>
<!-- Node3&#45;&gt;Node15 -->
<g id="edge17" class="edge">
<title>Node3&#45;&gt;Node15</title>
<path fill="none" stroke="#191970" d="M608.3503,-620.2324C635.6488,-640.4581 686.985,-675.9517 736,-696 742.1944,-698.5337 748.7921,-700.7638 755.4599,-702.7187"/>
<polygon fill="#191970" stroke="#191970" points="754.6714,-706.1315 765.2402,-705.3894 756.5154,-699.3787 754.6714,-706.1315"/>
</g>
<!-- Node9 -->
<g id="node10" class="node">
<title>Node9</title>
<g id="a_node10"><a xlink:href="classgame_1_1penguin_1_1_board_cell.html#a1ed5a3134f831bef111c6294c07388bf" target="_top" xlink:title="game::penguin::BoardCell\l::equals_to">
<polygon fill="none" stroke="#000000" points="952.5,-568 952.5,-598 1095.5,-598 1095.5,-568 952.5,-568"/>
<text text-anchor="start" x="960.5" y="-586" font-family="Helvetica,sans-Serif" font-size="10.00" fill="#000000">game::penguin::BoardCell</text>
<text text-anchor="middle" x="1024" y="-575" font-family="Helvetica,sans-Serif" font-size="10.00" fill="#000000">::equals_to</text>
</a>
</g>
</g>
<!-- Node8&#45;&gt;Node9 -->
<g id="edge9" class="edge">
<title>Node8&#45;&gt;Node9</title>
<path fill="none" stroke="#191970" d="M891.0242,-583C907.4301,-583 924.9993,-583 941.815,-583"/>
<polygon fill="#191970" stroke="#191970" points="942.1706,-586.5001 952.1705,-583 942.1705,-579.5001 942.1706,-586.5001"/>
</g>
<!-- Node10 -->
<g id="node11" class="node">
<title>Node10</title>
<g id="a_node11"><a xlink:href="classgame_1_1penguin_1_1_board_cell.html#a4d3577488552bf0ba4822ac265532825" target="_top" xlink:title="game::penguin::BoardCell\l::clone">
<polygon fill="none" stroke="#000000" points="952.5,-519 952.5,-549 1095.5,-549 1095.5,-519 952.5,-519"/>
<text text-anchor="start" x="960.5" y="-537" font-family="Helvetica,sans-Serif" font-size="10.00" fill="#000000">game::penguin::BoardCell</text>
<text text-anchor="middle" x="1024" y="-526" font-family="Helvetica,sans-Serif" font-size="10.00" fill="#000000">::clone</text>
</a>
</g>
</g>
<!-- Node8&#45;&gt;Node10 -->
<g id="edge11" class="edge">
<title>Node8&#45;&gt;Node10</title>
<path fill="none" stroke="#191970" d="M882.2465,-567.9654C904.1333,-562.7211 928.8736,-556.7931 951.4883,-551.3745"/>
<polygon fill="#191970" stroke="#191970" points="952.463,-554.7401 961.3721,-549.0062 950.8318,-547.9327 952.463,-554.7401"/>
</g>
<!-- Node9&#45;&gt;Node7 -->
<g id="edge10" class="edge">
<title>Node9&#45;&gt;Node7</title>
<path fill="none" stroke="#191970" d="M1093.253,-598.0621C1117.0766,-603.2436 1143.7169,-609.0377 1167.4444,-614.1983"/>
<polygon fill="#191970" stroke="#191970" points="1166.9028,-617.6623 1177.4182,-616.3676 1168.3905,-610.8222 1166.9028,-617.6623"/>
</g>
<!-- Node10&#45;&gt;Node6 -->
<g id="edge15" class="edge">
<title>Node10&#45;&gt;Node6</title>
<path fill="none" stroke="#191970" d="M1081.1028,-518.9129C1090.8995,-514.9397 1100.6121,-510.0265 1109,-504 1130.0835,-488.852 1123.401,-472.4035 1145,-458 1148.0979,-455.9341 1151.3636,-454.0378 1154.7424,-452.2974"/>
<polygon fill="#191970" stroke="#191970" points="1156.3135,-455.4269 1163.9131,-448.0447 1153.3686,-449.0765 1156.3135,-455.4269"/>
</g>
<!-- Node11 -->
<g id="node12" class="node">
<title>Node11</title>
<g id="a_node12"><a xlink:href="classgame_1_1penguin_1_1_board_cell.html#a2c76e638f5d0d4374b422756b08cb61f" target="_top" xlink:title="Construct a new Board Cell object. ">
<polygon fill="none" stroke="#000000" points="1164,-467 1164,-497 1307,-497 1307,-467 1164,-467"/>
<text text-anchor="start" x="1172" y="-485" font-family="Helvetica,sans-Serif" font-size="10.00" fill="#000000">game::penguin::BoardCell</text>
<text text-anchor="middle" x="1235.5" y="-474" font-family="Helvetica,sans-Serif" font-size="10.00" fill="#000000">::BoardCell</text>
</a>
</g>
</g>
<!-- Node10&#45;&gt;Node11 -->
<g id="edge12" class="edge">
<title>Node10&#45;&gt;Node11</title>
<path fill="none" stroke="#191970" d="M1085.1746,-518.9594C1110.0559,-512.8421 1138.967,-505.7339 1164.7496,-499.3949"/>
<polygon fill="#191970" stroke="#191970" points="1165.5878,-502.7931 1174.4629,-497.0068 1163.9165,-495.9956 1165.5878,-502.7931"/>
</g>
<!-- Node12 -->
<g id="node13" class="node">
<title>Node12</title>
<g id="a_node13"><a xlink:href="classgame_1_1penguin_1_1_board_cell.html#a12cd55e333821bcecaa201dde758c1a1" target="_top" xlink:title="Is a penguin on the cell. ">
<polygon fill="none" stroke="#000000" points="1164,-565 1164,-595 1307,-595 1307,-565 1164,-565"/>
<text text-anchor="start" x="1172" y="-583" font-family="Helvetica,sans-Serif" font-size="10.00" fill="#000000">game::penguin::BoardCell</text>
<text text-anchor="middle" x="1235.5" y="-572" font-family="Helvetica,sans-Serif" font-size="10.00" fill="#000000">::isOwned</text>
</a>
</g>
</g>
<!-- Node10&#45;&gt;Node12 -->
<g id="edge13" class="edge">
<title>Node10&#45;&gt;Node12</title>
<path fill="none" stroke="#191970" d="M1093.253,-549.0621C1113.4417,-553.453 1135.6532,-558.2839 1156.4006,-562.7963"/>
<polygon fill="#191970" stroke="#191970" points="1155.9374,-566.2774 1166.4528,-564.9826 1157.4251,-559.4373 1155.9374,-566.2774"/>
</g>
<!-- Node13 -->
<g id="node14" class="node">
<title>Node13</title>
<g id="a_node14"><a xlink:href="classgame_1_1penguin_1_1_board.html#acae84c13dacef3bd988d1ea9a41d055f" target="_top" xlink:title="Get a player by it&#39;s id. ">
<polygon fill="none" stroke="#000000" points="1173.5,-516 1173.5,-546 1297.5,-546 1297.5,-516 1173.5,-516"/>
<text text-anchor="start" x="1181.5" y="-534" font-family="Helvetica,sans-Serif" font-size="10.00" fill="#000000">game::penguin::Board</text>
<text text-anchor="middle" x="1235.5" y="-523" font-family="Helvetica,sans-Serif" font-size="10.00" fill="#000000">::getPawnById</text>
</a>
</g>
</g>
<!-- Node10&#45;&gt;Node13 -->
<g id="edge14" class="edge">
<title>Node10&#45;&gt;Node13</title>
<path fill="none" stroke="#191970" d="M1095.6043,-532.9843C1117.3298,-532.6762 1141.2093,-532.3375 1162.9936,-532.0285"/>
<polygon fill="#191970" stroke="#191970" points="1163.2198,-535.5257 1173.1691,-531.8841 1163.1205,-528.5264 1163.2198,-535.5257"/>
</g>
<!-- Node16&#45;&gt;Node17 -->
<g id="edge19" class="edge">
<title>Node16&#45;&gt;Node17</title>
<path fill="none" stroke="#191970" d="M432.2462,-471.0003C460.0525,-476.6949 491.6166,-483.159 519.0611,-488.7794"/>
<polygon fill="#191970" stroke="#191970" points="518.4723,-492.2314 528.9712,-490.8089 519.8768,-485.3737 518.4723,-492.2314"/>
</g>
<!-- Node19 -->
<g id="node20" class="node">
<title>Node19</title>
<g id="a_node20"><a xlink:href="classgame_1_1penguin_1_1_penguin_game.html#a7b65d0a9742a9cf07296839373a56143" target="_top" xlink:title="game::penguin::PenguinGame\l::getBoard">
<polygon fill="none" stroke="#000000" points="506.5,-390 506.5,-420 670.5,-420 670.5,-390 506.5,-390"/>
<text text-anchor="start" x="514.5" y="-408" font-family="Helvetica,sans-Serif" font-size="10.00" fill="#000000">game::penguin::PenguinGame</text>
<text text-anchor="middle" x="588.5" y="-397" font-family="Helvetica,sans-Serif" font-size="10.00" fill="#000000">::getBoard</text>
</a>
</g>
</g>
<!-- Node18&#45;&gt;Node19 -->
<g id="edge21" class="edge">
<title>Node18&#45;&gt;Node19</title>
<path fill="none" stroke="#191970" d="M441.2065,-405C459.1126,-405 478.1712,-405 496.4317,-405"/>
<polygon fill="#191970" stroke="#191970" points="496.482,-408.5001 506.4819,-405 496.4819,-401.5001 496.482,-408.5001"/>
</g>
<!-- Node20 -->
<g id="node21" class="node">
<title>Node20</title>
<g id="a_node21"><a xlink:href="classgame_1_1penguin_1_1_board.html#ae85ef3019829098c5ad5afb1c3ebceb5" target="_top" xlink:title="Is the player able to move. ">
<polygon fill="none" stroke="#000000" points="526.5,-341 526.5,-371 650.5,-371 650.5,-341 526.5,-341"/>
<text text-anchor="start" x="534.5" y="-359" font-family="Helvetica,sans-Serif" font-size="10.00" fill="#000000">game::penguin::Board</text>
<text text-anchor="middle" x="588.5" y="-348" font-family="Helvetica,sans-Serif" font-size="10.00" fill="#000000">::isAbleToMove</text>
</a>
</g>
</g>
<!-- Node18&#45;&gt;Node20 -->
<g id="edge22" class="edge">
<title>Node18&#45;&gt;Node20</title>
<path fill="none" stroke="#191970" d="M429.4172,-389.9654C456.9948,-384.0774 488.6091,-377.3275 516.3517,-371.4042"/>
<polygon fill="#191970" stroke="#191970" points="517.334,-374.7734 526.3828,-369.2625 515.8724,-367.9277 517.334,-374.7734"/>
</g>
<!-- Node23 -->
<g id="node24" class="node">
<title>Node23</title>
<g id="a_node24"><a xlink:href="classgame_1_1penguin_1_1_board.html#a8728b4381bc2e007710d275bb226cf95" target="_top" xlink:title="Gets the player corresponding to a certain id. ">
<polygon fill="none" stroke="#000000" points="526.5,-439 526.5,-469 650.5,-469 650.5,-439 526.5,-439"/>
<text text-anchor="start" x="534.5" y="-457" font-family="Helvetica,sans-Serif" font-size="10.00" fill="#000000">game::penguin::Board</text>
<text text-anchor="middle" x="588.5" y="-446" font-family="Helvetica,sans-Serif" font-size="10.00" fill="#000000">::getPlayerById</text>
</a>
</g>
</g>
<!-- Node18&#45;&gt;Node23 -->
<g id="edge27" class="edge">
<title>Node18&#45;&gt;Node23</title>
<path fill="none" stroke="#191970" d="M429.4172,-420.0346C456.9948,-425.9226 488.6091,-432.6725 516.3517,-438.5958"/>
<polygon fill="#191970" stroke="#191970" points="515.8724,-442.0723 526.3828,-440.7375 517.334,-435.2266 515.8724,-442.0723"/>
</g>
<!-- Node20&#45;&gt;Node5 -->
<g id="edge25" class="edge">
<title>Node20&#45;&gt;Node5</title>
<path fill="none" stroke="#191970" d="M650.7553,-361.1849C667.8435,-364.8505 685.6097,-370.9421 700,-381 724.2516,-397.9504 712.2617,-419.3379 736,-437 737.8681,-438.39 739.8146,-439.6996 741.8232,-440.9334"/>
<polygon fill="#191970" stroke="#191970" points="740.5145,-444.2043 750.9772,-445.8727 743.8386,-438.0438 740.5145,-444.2043"/>
</g>
<!-- Node20&#45;&gt;Node6 -->
<g id="edge26" class="edge">
<title>Node20&#45;&gt;Node6</title>
<path fill="none" stroke="#191970" d="M650.8029,-347.215C677.0451,-343.9322 707.9491,-340.6112 736,-339 810.1001,-334.7439 829.4809,-328.8076 903,-339 1006.1463,-353.2998 1122.2911,-391.4275 1186.3802,-414.4935"/>
<polygon fill="#191970" stroke="#191970" points="1185.2357,-417.8014 1195.8298,-417.9214 1187.6228,-411.221 1185.2357,-417.8014"/>
</g>
<!-- Node21 -->
<g id="node22" class="node">
<title>Node21</title>
<g id="a_node22"><a xlink:href="classgame_1_1penguin_1_1_human_player.html#a28c5485b12e0c8fcd340458255c06587" target="_top" xlink:title="Get the penguins possessed by the player. ">
<polygon fill="none" stroke="#000000" points="739,-397 739,-427 900,-427 900,-397 739,-397"/>
<text text-anchor="start" x="747" y="-415" font-family="Helvetica,sans-Serif" font-size="10.00" fill="#000000">game::penguin::HumanPlayer</text>
<text text-anchor="middle" x="819.5" y="-404" font-family="Helvetica,sans-Serif" font-size="10.00" fill="#000000">::getPenguins</text>
</a>
</g>
</g>
<!-- Node20&#45;&gt;Node21 -->
<g id="edge23" class="edge">
<title>Node20&#45;&gt;Node21</title>
<path fill="none" stroke="#191970" d="M650.5111,-369.5195C666.648,-373.1428 683.9953,-377.131 700,-381 717.241,-385.1679 735.8234,-389.8808 753.0779,-394.3506"/>
<polygon fill="#191970" stroke="#191970" points="752.5045,-397.8179 763.0636,-396.9484 754.2669,-391.0434 752.5045,-397.8179"/>
</g>
<!-- Node22 -->
<g id="node23" class="node">
<title>Node22</title>
<g id="a_node23"><a xlink:href="classgame_1_1penguin_1_1_board_cell.html#a802b2f75d1e3136146625266f6a2c03a" target="_top" xlink:title="Get the Position object. ">
<polygon fill="none" stroke="#000000" points="748,-348 748,-378 891,-378 891,-348 748,-348"/>
<text text-anchor="start" x="756" y="-366" font-family="Helvetica,sans-Serif" font-size="10.00" fill="#000000">game::penguin::BoardCell</text>
<text text-anchor="middle" x="819.5" y="-355" font-family="Helvetica,sans-Serif" font-size="10.00" fill="#000000">::getPosition</text>
</a>
</g>
</g>
<!-- Node20&#45;&gt;Node22 -->
<g id="edge24" class="edge">
<title>Node20&#45;&gt;Node22</title>
<path fill="none" stroke="#191970" d="M650.7076,-357.8851C677.3669,-358.6929 708.8777,-359.6478 737.4118,-360.5125"/>
<polygon fill="#191970" stroke="#191970" points="737.6736,-364.0219 747.7751,-360.8265 737.8857,-357.0251 737.6736,-364.0219"/>
</g>
<!-- Node25 -->
<g id="node26" class="node">
<title>Node25</title>
<g id="a_node26"><a xlink:href="classmcts_1_1_m_c_t_s_player.html#a53677f7c7f9cfe4b7999af8abcfb8641" target="_top" xlink:title="Unleashe the power of the MCTS !!!! ">
<polygon fill="none" stroke="#000000" points="499.5,-198.5 499.5,-217.5 677.5,-217.5 677.5,-198.5 499.5,-198.5"/>
<text text-anchor="middle" x="588.5" y="-205.5" font-family="Helvetica,sans-Serif" font-size="10.00" fill="#000000">mcts::MCTSPlayer::unleash_mcts</text>
</a>
</g>
</g>
<!-- Node24&#45;&gt;Node25 -->
<g id="edge29" class="edge">
<title>Node24&#45;&gt;Node25</title>
<path fill="none" stroke="#191970" d="M416.6163,-236.46C448.2631,-231.2201 487.6937,-224.6912 520.8032,-219.2091"/>
<polygon fill="#191970" stroke="#191970" points="521.5661,-222.6305 530.86,-217.5439 520.4225,-215.7245 521.5661,-222.6305"/>
</g>
<!-- Node36 -->
<g id="node37" class="node">
<title>Node36</title>
<g id="a_node37"><a xlink:href="classmcts_1_1_m_c_t_s_player.html#a9e8202cd2530b6ecc20f873d899823da" target="_top" xlink:title="Join the multiple trees into 1 so that we can get the best move. ">
<polygon fill="none" stroke="#000000" points="511.5,-160.5 511.5,-179.5 665.5,-179.5 665.5,-160.5 511.5,-160.5"/>
<text text-anchor="middle" x="588.5" y="-167.5" font-family="Helvetica,sans-Serif" font-size="10.00" fill="#000000">mcts::MCTSPlayer::joinTrees</text>
</a>
</g>
</g>
<!-- Node24&#45;&gt;Node36 -->
<g id="edge41" class="edge">
<title>Node24&#45;&gt;Node36</title>
<path fill="none" stroke="#191970" d="M419.2326,-236.3661C426.8261,-233.9182 434.2789,-230.8487 441,-227 461.1887,-215.4393 456.4796,-199.9612 477,-189 484.6765,-184.8995 493.037,-181.6494 501.6145,-179.078"/>
<polygon fill="#191970" stroke="#191970" points="502.619,-182.4323 511.3661,-176.4541 500.8001,-175.6727 502.619,-182.4323"/>
</g>
<!-- Node38 -->
<g id="node39" class="node">
<title>Node38</title>
<g id="a_node39"><a xlink:href="classmcts_1_1_tree.html#a0431bd1074e29e682fe3c7bc6a3aee89" target="_top" xlink:title="mcts::Tree::bestMove">
<polygon fill="none" stroke="#000000" points="528.5,-122.5 528.5,-141.5 648.5,-141.5 648.5,-122.5 528.5,-122.5"/>
<text text-anchor="middle" x="588.5" y="-129.5" font-family="Helvetica,sans-Serif" font-size="10.00" fill="#000000">mcts::Tree::bestMove</text>
</a>
</g>
</g>
<!-- Node24&#45;&gt;Node38 -->
<g id="edge43" class="edge">
<title>Node24&#45;&gt;Node38</title>
<path fill="none" stroke="#191970" d="M425.0823,-236.4374C430.8014,-233.9481 436.2201,-230.85 441,-227 470.1079,-203.555 447.2143,-173.5776 477,-151 488.8884,-141.9886 503.5399,-136.6523 518.2677,-133.6036"/>
<polygon fill="#191970" stroke="#191970" points="519.187,-136.9965 528.443,-131.8413 517.9924,-130.0992 519.187,-136.9965"/>
</g>
<!-- Node40 -->
<g id="node41" class="node">
<title>Node40</title>
<g id="a_node41"><a xlink:href="classmcts_1_1_m_c_t_s_player.html#aa68be6bbbbd01044d42b9c2d0149b366" target="_top" xlink:title="Get the Corresponding Move object. ">
<polygon fill="none" stroke="#000000" points="477,-274.5 477,-293.5 700,-293.5 700,-274.5 477,-274.5"/>
<text text-anchor="middle" x="588.5" y="-281.5" font-family="Helvetica,sans-Serif" font-size="10.00" fill="#000000">mcts::MCTSPlayer::getCorrespondingMove</text>
</a>
</g>
</g>
<!-- Node24&#45;&gt;Node40 -->
<g id="edge45" class="edge">
<title>Node24&#45;&gt;Node40</title>
<path fill="none" stroke="#191970" d="M416.6163,-255.54C448.2631,-260.7799 487.6937,-267.3088 520.8032,-272.7909"/>
<polygon fill="#191970" stroke="#191970" points="520.4225,-276.2755 530.86,-274.4561 521.5661,-269.3695 520.4225,-276.2755"/>
</g>
<!-- Node41 -->
<g id="node42" class="node">
<title>Node41</title>
<g id="a_node42"><a xlink:href="classmcts_1_1_tree.html#a75496cb3742583b221c1b95d8fd85718" target="_top" xlink:title="mcts::Tree::getRootNode">
<polygon fill="none" stroke="#000000" points="520.5,-236.5 520.5,-255.5 656.5,-255.5 656.5,-236.5 520.5,-236.5"/>
<text text-anchor="middle" x="588.5" y="-243.5" font-family="Helvetica,sans-Serif" font-size="10.00" fill="#000000">mcts::Tree::getRootNode</text>
</a>
</g>
</g>
<!-- Node24&#45;&gt;Node41 -->
<g id="edge46" class="edge">
<title>Node24&#45;&gt;Node41</title>
<path fill="none" stroke="#191970" d="M438.3022,-246C461.5516,-246 486.9538,-246 510.1439,-246"/>
<polygon fill="#191970" stroke="#191970" points="510.2796,-249.5001 520.2796,-246 510.2795,-242.5001 510.2796,-249.5001"/>
</g>
<!-- Node26 -->
<g id="node27" class="node">
<title>Node26</title>
<g id="a_node27"><a xlink:href="classmcts_1_1_m_c_t_s.html#ae8b2818e7a34e858e9dd284d33bca874" target="_top" xlink:title="Start the mcts. ">
<polygon fill="none" stroke="#000000" points="766,-184.5 766,-203.5 873,-203.5 873,-184.5 766,-184.5"/>
<text text-anchor="middle" x="819.5" y="-191.5" font-family="Helvetica,sans-Serif" font-size="10.00" fill="#000000">mcts::MCTS::begin</text>
</a>
</g>
</g>
<!-- Node25&#45;&gt;Node26 -->
<g id="edge30" class="edge">
<title>Node25&#45;&gt;Node26</title>
<path fill="none" stroke="#191970" d="M677.8106,-202.5872C703.8056,-201.0118 731.6689,-199.3231 755.7491,-197.8637"/>
<polygon fill="#191970" stroke="#191970" points="756.0512,-201.3519 765.8211,-197.2533 755.6276,-194.3647 756.0512,-201.3519"/>
</g>
<!-- Node27 -->
<g id="node28" class="node">
<title>Node27</title>
<g id="a_node28"><a xlink:href="structmcts_1_1timer.html#af6b8b0201318b987bcab531de4b964f9" target="_top" xlink:title="mcts::timer::milliseconds\l_elapsed">
<polygon fill="none" stroke="#000000" points="954,-127 954,-157 1094,-157 1094,-127 954,-127"/>
<text text-anchor="start" x="962" y="-145" font-family="Helvetica,sans-Serif" font-size="10.00" fill="#000000">mcts::timer::milliseconds</text>
<text text-anchor="middle" x="1024" y="-134" font-family="Helvetica,sans-Serif" font-size="10.00" fill="#000000">_elapsed</text>
</a>
</g>
</g>
<!-- Node26&#45;&gt;Node27 -->
<g id="edge31" class="edge">
<title>Node26&#45;&gt;Node27</title>
<path fill="none" stroke="#191970" d="M862.9214,-184.4876C875.8452,-181.5572 890.0192,-178.2454 903,-175 921.8907,-170.277 942.3489,-164.8268 960.9742,-159.7338"/>
<polygon fill="#191970" stroke="#191970" points="962.1038,-163.0532 970.8191,-157.0287 960.2491,-156.3034 962.1038,-163.0532"/>
</g>
<!-- Node28 -->
<g id="node29" class="node">
<title>Node28</title>
<g id="a_node29"><a xlink:href="classmcts_1_1_m_c_t_s.html#a5a3c4a056b0611c19839d6757871653b" target="_top" xlink:title="mcts::MCTS::selectBestChild\lAndDoAction">
<polygon fill="none" stroke="#000000" points="946.5,-39 946.5,-69 1101.5,-69 1101.5,-39 946.5,-39"/>
<text text-anchor="start" x="954.5" y="-57" font-family="Helvetica,sans-Serif" font-size="10.00" fill="#000000">mcts::MCTS::selectBestChild</text>
<text text-anchor="middle" x="1024" y="-46" font-family="Helvetica,sans-Serif" font-size="10.00" fill="#000000">AndDoAction</text>
</a>
</g>
</g>
<!-- Node26&#45;&gt;Node28 -->
<g id="edge32" class="edge">
<title>Node26&#45;&gt;Node28</title>
<path fill="none" stroke="#191970" d="M873.0056,-189.8229C883.8647,-186.8954 894.5361,-182.2589 903,-175 936.0153,-146.6849 907.6749,-114.1743 939,-84 942.9447,-80.2002 947.3996,-76.8786 952.1515,-73.9756"/>
<polygon fill="#191970" stroke="#191970" points="953.8567,-77.0324 960.9795,-69.1891 950.5202,-70.8787 953.8567,-77.0324"/>
</g>
<!-- Node29 -->
<g id="node30" class="node">
<title>Node29</title>
<g id="a_node30"><a xlink:href="classmcts_1_1_m_c_t_s.html#a9b161c003bc21fe3910d7800c09fff1d" target="_top" xlink:title="mcts::MCTS::doActionOnBoard">
<polygon fill="none" stroke="#000000" points="1153.5,-85.5 1153.5,-104.5 1317.5,-104.5 1317.5,-85.5 1153.5,-85.5"/>
<text text-anchor="middle" x="1235.5" y="-92.5" font-family="Helvetica,sans-Serif" font-size="10.00" fill="#000000">mcts::MCTS::doActionOnBoard</text>
</a>
</g>
</g>
<!-- Node26&#45;&gt;Node29 -->
<g id="edge37" class="edge">
<title>Node26&#45;&gt;Node29</title>
<path fill="none" stroke="#191970" d="M873.3563,-188.2431C883.8324,-185.3885 894.2608,-181.1812 903,-175 927.4624,-157.6978 913.3383,-133.4679 939,-118 1009.5793,-75.4574 1107.4097,-77.0238 1171.0722,-84.234"/>
<polygon fill="#191970" stroke="#191970" points="1171.0274,-87.7541 1181.3762,-85.484 1171.8705,-80.8051 1171.0274,-87.7541"/>
</g>
<!-- Node31 -->
<g id="node32" class="node">
<title>Node31</title>
<g id="a_node32"><a xlink:href="classmcts_1_1_m_c_t_s.html#a8c65e74d070a037e5ad0331a39379c9c" target="_top" xlink:title="mcts::MCTS::expandNode">
<polygon fill="none" stroke="#000000" points="953.5,-.5 953.5,-19.5 1094.5,-19.5 1094.5,-.5 953.5,-.5"/>
<text text-anchor="middle" x="1024" y="-7.5" font-family="Helvetica,sans-Serif" font-size="10.00" fill="#000000">mcts::MCTS::expandNode</text>
</a>
</g>
</g>
<!-- Node26&#45;&gt;Node31 -->
<g id="edge35" class="edge">
<title>Node26&#45;&gt;Node31</title>
<path fill="none" stroke="#191970" d="M873.3357,-190.772C884.3046,-187.8082 894.9388,-182.9173 903,-175 950.6814,-128.17 891.2292,-75.7388 939,-29 940.7124,-27.3245 942.5385,-25.7837 944.4576,-24.3672"/>
<polygon fill="#191970" stroke="#191970" points="946.6815,-27.111 953.4034,-18.9215 943.0416,-21.1317 946.6815,-27.111"/>
</g>
<!-- Node32 -->
<g id="node33" class="node">
<title>Node32</title>
<g id="a_node33"><a xlink:href="classmcts_1_1_m_c_t_s.html#a6b5686f91610bb4f46c395634a17a5b8" target="_top" xlink:title="mcts::MCTS::randomChoose\lChildOrFallbackOnNode">
<polygon fill="none" stroke="#000000" points="947.5,-264 947.5,-294 1100.5,-294 1100.5,-264 947.5,-264"/>
<text text-anchor="start" x="955.5" y="-282" font-family="Helvetica,sans-Serif" font-size="10.00" fill="#000000">mcts::MCTS::randomChoose</text>
<text text-anchor="middle" x="1024" y="-271" font-family="Helvetica,sans-Serif" font-size="10.00" fill="#000000">ChildOrFallbackOnNode</text>
</a>
</g>
</g>
<!-- Node26&#45;&gt;Node32 -->
<g id="edge36" class="edge">
<title>Node26&#45;&gt;Node32</title>
<path fill="none" stroke="#191970" d="M836.0808,-203.5241C858.7623,-216.2711 900.9916,-239.0088 939,-254 944.916,-256.3334 951.138,-258.5651 957.4131,-260.6672"/>
<polygon fill="#191970" stroke="#191970" points="956.6892,-264.1115 967.281,-263.8597 958.8439,-257.4514 956.6892,-264.1115"/>
</g>
<!-- Node33 -->
<g id="node34" class="node">
<title>Node33</title>
<g id="a_node34"><a xlink:href="classmcts_1_1_m_c_t_s.html#ad465558c1f4933cae2a32ff7394fc49b" target="_top" xlink:title="mcts::MCTS::randomSimulation">
<polygon fill="none" stroke="#000000" points="939,-225.5 939,-244.5 1109,-244.5 1109,-225.5 939,-225.5"/>
<text text-anchor="middle" x="1024" y="-232.5" font-family="Helvetica,sans-Serif" font-size="10.00" fill="#000000">mcts::MCTS::randomSimulation</text>
</a>
</g>
</g>
<!-- Node26&#45;&gt;Node33 -->
<g id="edge38" class="edge">
<title>Node26&#45;&gt;Node33</title>
<path fill="none" stroke="#191970" d="M866.9304,-203.5093C896.6351,-209.4647 935.1034,-217.1772 966.5352,-223.4789"/>
<polygon fill="#191970" stroke="#191970" points="965.9801,-226.9372 976.473,-225.4714 967.3562,-220.0738 965.9801,-226.9372"/>
</g>
<!-- Node35 -->
<g id="node36" class="node">
<title>Node35</title>
<g id="a_node36"><a xlink:href="classmcts_1_1_m_c_t_s.html#a53275dba0c93543b2fa8c24ad928e4a8" target="_top" xlink:title="mcts::MCTS::backPropagate\lAndRevertAction">
<polygon fill="none" stroke="#000000" points="948,-176 948,-206 1100,-206 1100,-176 948,-176"/>
<text text-anchor="start" x="956" y="-194" font-family="Helvetica,sans-Serif" font-size="10.00" fill="#000000">mcts::MCTS::backPropagate</text>
<text text-anchor="middle" x="1024" y="-183" font-family="Helvetica,sans-Serif" font-size="10.00" fill="#000000">AndRevertAction</text>
</a>
</g>
</g>
<!-- Node26&#45;&gt;Node35 -->
<g id="edge40" class="edge">
<title>Node26&#45;&gt;Node35</title>
<path fill="none" stroke="#191970" d="M873.23,-193.2118C892.9469,-192.9225 915.7973,-192.5873 937.6539,-192.2667"/>
<polygon fill="#191970" stroke="#191970" points="937.9996,-195.7621 947.9471,-192.1157 937.8968,-188.7628 937.9996,-195.7621"/>
</g>
<!-- Node28&#45;&gt;Node29 -->
<g id="edge33" class="edge">
<title>Node28&#45;&gt;Node29</title>
<path fill="none" stroke="#191970" d="M1101.5538,-69.0341C1126.2012,-73.812 1153.053,-79.0174 1176.1996,-83.5044"/>
<polygon fill="#191970" stroke="#191970" points="1175.7295,-86.9784 1186.2129,-85.4455 1177.0618,-80.1063 1175.7295,-86.9784"/>
</g>
<!-- Node30 -->
<g id="node31" class="node">
<title>Node30</title>
<g id="a_node31"><a xlink:href="classmcts_1_1_m_c_t_s.html#ac75ac1b12fbb40dca468f1c31a9fc8cd" target="_top" xlink:title="mcts::MCTS::formula">
<polygon fill="none" stroke="#000000" points="1176.5,-44.5 1176.5,-63.5 1294.5,-63.5 1294.5,-44.5 1176.5,-44.5"/>
<text text-anchor="middle" x="1235.5" y="-51.5" font-family="Helvetica,sans-Serif" font-size="10.00" fill="#000000">mcts::MCTS::formula</text>
</a>
</g>
</g>
<!-- Node28&#45;&gt;Node30 -->
<g id="edge34" class="edge">
<title>Node28&#45;&gt;Node30</title>
<path fill="none" stroke="#191970" d="M1101.5538,-54C1122.6325,-54 1145.3236,-54 1165.9306,-54"/>
<polygon fill="#191970" stroke="#191970" points="1166.1789,-57.5001 1176.1789,-54 1166.1788,-50.5001 1166.1789,-57.5001"/>
</g>
<!-- Node34 -->
<g id="node35" class="node">
<title>Node34</title>
<g id="a_node35"><a xlink:href="classmcts_1_1_m_c_t_s.html#a3e918b416dfe1e5155b077788936f137" target="_top" xlink:title="mcts::MCTS::getRandomAvailable\lMoveFromBoard">
<polygon fill="none" stroke="#000000" points="1145,-220 1145,-250 1326,-250 1326,-220 1145,-220"/>
<text text-anchor="start" x="1153" y="-238" font-family="Helvetica,sans-Serif" font-size="10.00" fill="#000000">mcts::MCTS::getRandomAvailable</text>
<text text-anchor="middle" x="1235.5" y="-227" font-family="Helvetica,sans-Serif" font-size="10.00" fill="#000000">MoveFromBoard</text>
</a>
</g>
</g>
<!-- Node33&#45;&gt;Node34 -->
<g id="edge39" class="edge">
<title>Node33&#45;&gt;Node34</title>
<path fill="none" stroke="#191970" d="M1109.1109,-235C1117.5261,-235 1126.1228,-235 1134.6764,-235"/>
<polygon fill="#191970" stroke="#191970" points="1134.6843,-238.5001 1144.6843,-235 1134.6842,-231.5001 1134.6843,-238.5001"/>
</g>
<!-- Node37 -->
<g id="node38" class="node">
<title>Node37</title>
<g id="a_node38"><a xlink:href="classmcts_1_1_tree.html#a06139b9922488bb26feb25745e54e508" target="_top" xlink:title="Merges tree into the current tree. ">
<polygon fill="none" stroke="#000000" points="767.5,-146.5 767.5,-165.5 871.5,-165.5 871.5,-146.5 767.5,-146.5"/>
<text text-anchor="middle" x="819.5" y="-153.5" font-family="Helvetica,sans-Serif" font-size="10.00" fill="#000000">mcts::Tree::merge</text>
</a>
</g>
</g>
<!-- Node36&#45;&gt;Node37 -->
<g id="edge42" class="edge">
<title>Node36&#45;&gt;Node37</title>
<path fill="none" stroke="#191970" d="M665.7408,-165.3187C695.5282,-163.5134 729.1431,-161.4762 757.3289,-159.7679"/>
<polygon fill="#191970" stroke="#191970" points="757.6805,-163.2532 767.4504,-159.1545 757.257,-156.266 757.6805,-163.2532"/>
</g>
<!-- Node39 -->
<g id="node40" class="node">
<title>Node39</title>
<g id="a_node40"><a xlink:href="classmcts_1_1_tree.html#a2cf4616df96cb68014ebd8fa6d0aebc4" target="_top" xlink:title="mcts::Tree::nodeWithMaxVisits">
<polygon fill="none" stroke="#000000" points="736,-108.5 736,-127.5 903,-127.5 903,-108.5 736,-108.5"/>
<text text-anchor="middle" x="819.5" y="-115.5" font-family="Helvetica,sans-Serif" font-size="10.00" fill="#000000">mcts::Tree::nodeWithMaxVisits</text>
</a>
</g>
</g>
<!-- Node38&#45;&gt;Node39 -->
<g id="edge44" class="edge">
<title>Node38&#45;&gt;Node39</title>
<path fill="none" stroke="#191970" d="M648.5895,-128.3582C672.0744,-126.9349 699.5648,-125.2688 725.5471,-123.6941"/>
<polygon fill="#191970" stroke="#191970" points="726.0314,-127.1713 735.8013,-123.0726 725.6079,-120.1841 726.0314,-127.1713"/>
</g>
<!-- Node44 -->
<g id="node45" class="node">
<title>Node44</title>
<g id="a_node45"><a xlink:href="classgame_1_1_abstract_board.html#ac2b6d96389ad0ac58d22323d75f91f97" target="_top" xlink:title="perform a movement on the board, sets the current cell on the pawn ">
<polygon fill="none" stroke="#000000" points="529,-73 529,-103 648,-103 648,-73 529,-73"/>
<text text-anchor="start" x="537" y="-91" font-family="Helvetica,sans-Serif" font-size="10.00" fill="#000000">game::AbstractBoard</text>
<text text-anchor="middle" x="588.5" y="-80" font-family="Helvetica,sans-Serif" font-size="10.00" fill="#000000">::performMove</text>
</a>
</g>
</g>
<!-- Node43&#45;&gt;Node44 -->
<g id="edge49" class="edge">
<title>Node43&#45;&gt;Node44</title>
<path fill="none" stroke="#191970" d="M441.2065,-112.3885C466.6413,-108.177 494.4016,-103.5806 518.8965,-99.5248"/>
<polygon fill="#191970" stroke="#191970" points="519.5266,-102.9682 528.8205,-97.8816 518.3831,-96.0622 519.5266,-102.9682"/>
</g>
</g>
</svg>
        <g id="navigator" transform="translate(0 0)" fill="#404254">
                <rect fill="#f2f5e9" fill-opacity="0.5" stroke="#606060" stroke-width=".5" x="0" y="0" width="60" height="60"/>
                <use id="zoomplus" xlink:href="#zoomPlus" x="17" y="9" onmousedown="handleZoom(evt,'in')"/>
                <use id="zoomminus" xlink:href="#zoomMin" x="42" y="9" onmousedown="handleZoom(evt,'out')"/>
                <use id="reset" xlink:href="#resetDef" x="30" y="36" onmousedown="handleReset()"/>
                <g id="arrowUp" xlink:href="#dirArrow" transform="translate(30 24)" onmousedown="handlePan(0,-1)">
                  <use xlink:href="#rim" fill="#404040">
                        <set attributeName="fill" to="#808080" begin="arrowUp.mouseover" end="arrowUp.mouseout"/>
                  </use>
                  <path fill="none" stroke="white" stroke-width="1.5" d="M0,-3.0v7 M-2.5,-0.5L0,-3.0L2.5,-0.5"/>
                </g>
                <g id="arrowRight" xlink:href="#dirArrow" transform="rotate(90) translate(36 -43)" onmousedown="handlePan(1,0)">
                  <use xlink:href="#rim" fill="#404040">
                        <set attributeName="fill" to="#808080" begin="arrowRight.mouseover" end="arrowRight.mouseout"/>
                  </use>
                  <path fill="none" stroke="white" stroke-width="1.5" d="M0,-3.0v7 M-2.5,-0.5L0,-3.0L2.5,-0.5"/>
                </g>
                <g id="arrowDown" xlink:href="#dirArrow" transform="rotate(180) translate(-30 -48)" onmousedown="handlePan(0,1)">
                  <use xlink:href="#rim" fill="#404040">
                        <set attributeName="fill" to="#808080" begin="arrowDown.mouseover" end="arrowDown.mouseout"/>
                  </use>
                  <path fill="none" stroke="white" stroke-width="1.5" d="M0,-3.0v7 M-2.5,-0.5L0,-3.0L2.5,-0.5"/>
                </g>
                <g id="arrowLeft" xlink:href="#dirArrow" transform="rotate(270) translate(-36 17)" onmousedown="handlePan(-1,0)">
                  <use xlink:href="#rim" fill="#404040">
                        <set attributeName="fill" to="#808080" begin="arrowLeft.mouseover" end="arrowLeft.mouseout"/>
                  </use>
                  <path fill="none" stroke="white" stroke-width="1.5" d="M0,-3.0v7 M-2.5,-0.5L0,-3.0L2.5,-0.5"/>
                </g>
        </g>
        <svg viewBox="0 0 15 15" width="100%" height="30px" preserveAspectRatio="xMaxYMin meet">
         <g id="arrow_out" transform="scale(0.3 0.3)">
          <a xlink:href="main_8cpp_a1dfeea39dabf076270426c94def1a2a2_cgraph_org.svg" target="_base">
           <rect id="button" ry="5" rx="5" y="6" x="6" height="38" width="38"
                fill="#f2f5e9" fill-opacity="0.5" stroke="#606060" stroke-width="1.0"/>
           <path id="arrow"
             d="M 11.500037,31.436501 C 11.940474,20.09759 22.043105,11.32322 32.158766,21.979434 L 37.068811,17.246167 C 37.068811,17.246167 37.088388,32 37.088388,32 L 22.160133,31.978069 C 22.160133,31.978069 26.997745,27.140456 26.997745,27.140456 C 18.528582,18.264221 13.291696,25.230495 11.500037,31.436501 z"
             style="fill:#404040;"/>
          </a>
         </g>
        </svg>
</svg>
