<?xml version="1.0" encoding="UTF-8" standalone="no"?>
<!DOCTYPE svg PUBLIC "-//W3C//DTD SVG 1.1//EN"
 "http://www.w3.org/Graphics/SVG/1.1/DTD/svg11.dtd">
<!-- Generated by graphviz version 2.40.1 (20161225.0304)
 -->
<!-- Title: dbg::pretty_print Pages: 1 -->
<svg width="264pt" height="116pt"
 viewBox="0.00 0.00 264.00 115.50" xmlns="http://www.w3.org/2000/svg" xmlns:xlink="http://www.w3.org/1999/xlink">
<g id="graph0" class="graph" transform="scale(1 1) rotate(0) translate(4 111.5)">
<title>dbg::pretty_print</title>
<!-- Node72 -->
<g id="node1" class="node">
<title>Node72</title>
<polygon fill="#bfbfbf" stroke="#000000" points="0,-38.5 0,-57.5 98,-57.5 98,-38.5 0,-38.5"/>
<text text-anchor="middle" x="49" y="-45.5" font-family="Helvetica,sans-Serif" font-size="10.00" fill="#000000">dbg::pretty_print</text>
</g>
<!-- Node73 -->
<g id="node2" class="node">
<title>Node73</title>
<g id="a_node2"><a xlink:href="structdbg_1_1print__formatted.html#ab490d37d984d053177b6af3f94d0136e" target="_top" xlink:title="dbg::print_formatted\l::prefix">
<polygon fill="none" stroke="#000000" points="136.5,-77 136.5,-107 253.5,-107 253.5,-77 136.5,-77"/>
<text text-anchor="start" x="144.5" y="-95" font-family="Helvetica,sans-Serif" font-size="10.00" fill="#000000">dbg::print_formatted</text>
<text text-anchor="middle" x="195" y="-84" font-family="Helvetica,sans-Serif" font-size="10.00" fill="#000000">::prefix</text>
</a>
</g>
</g>
<!-- Node72&#45;&gt;Node73 -->
<g id="edge1" class="edge">
<title>Node72&#45;&gt;Node73</title>
<path fill="none" stroke="#191970" d="M80.6798,-57.5473C96.6774,-62.3685 116.6225,-68.3794 135.3534,-74.0243"/>
<polygon fill="#191970" stroke="#191970" points="134.4258,-77.4002 145.0104,-76.9346 136.4457,-70.6979 134.4258,-77.4002"/>
</g>
<!-- Node74 -->
<g id="node3" class="node">
<title>Node74</title>
<g id="a_node3"><a xlink:href="namespacedbg.html#a2365d80e3a3525e6025040383ff8661b" target="_top" xlink:title="dbg::type">
<polygon fill="none" stroke="#000000" points="164,-38.5 164,-57.5 226,-57.5 226,-38.5 164,-38.5"/>
<text text-anchor="middle" x="195" y="-45.5" font-family="Helvetica,sans-Serif" font-size="10.00" fill="#000000">dbg::type</text>
</a>
</g>
</g>
<!-- Node72&#45;&gt;Node74 -->
<g id="edge2" class="edge">
<title>Node72&#45;&gt;Node74</title>
<path fill="none" stroke="#191970" d="M98.022,-48C115.9959,-48 136.1515,-48 153.412,-48"/>
<polygon fill="#191970" stroke="#191970" points="153.7396,-51.5001 163.7395,-48 153.7395,-44.5001 153.7396,-51.5001"/>
</g>
<!-- Node75 -->
<g id="node4" class="node">
<title>Node75</title>
<g id="a_node4"><a xlink:href="namespacedbg.html#acbbd001b36aaa78716ea7d9d2aeb3e46" target="_top" xlink:title="dbg::decimalToBinary">
<polygon fill="none" stroke="#000000" points="134,-.5 134,-19.5 256,-19.5 256,-.5 134,-.5"/>
<text text-anchor="middle" x="195" y="-7.5" font-family="Helvetica,sans-Serif" font-size="10.00" fill="#000000">dbg::decimalToBinary</text>
</a>
</g>
</g>
<!-- Node72&#45;&gt;Node75 -->
<g id="edge3" class="edge">
<title>Node72&#45;&gt;Node75</title>
<path fill="none" stroke="#191970" d="M85.842,-38.411C104.8479,-33.4642 128.2286,-27.3789 148.4692,-22.1108"/>
<polygon fill="#191970" stroke="#191970" points="149.627,-25.4261 158.423,-19.5201 147.8638,-18.6518 149.627,-25.4261"/>
</g>
</g>
</svg>
