<?xml version="1.0" encoding="UTF-8" standalone="no"?>
<!DOCTYPE svg PUBLIC "-//W3C//DTD SVG 1.1//EN"
 "http://www.w3.org/Graphics/SVG/1.1/DTD/svg11.dtd">
<!-- Generated by graphviz version 2.40.1 (20161225.0304)
 -->
<!-- Title: dbg::type Pages: 1 -->
<svg width="353pt" height="104pt"
 viewBox="0.00 0.00 353.00 104.00" xmlns="http://www.w3.org/2000/svg" xmlns:xlink="http://www.w3.org/1999/xlink">
<g id="graph0" class="graph" transform="scale(1 1) rotate(0) translate(4 100)">
<title>dbg::type</title>
<!-- Node93 -->
<g id="node1" class="node">
<title>Node93</title>
<polygon fill="#bfbfbf" stroke="#000000" points="0,-38.5 0,-57.5 62,-57.5 62,-38.5 0,-38.5"/>
<text text-anchor="middle" x="31" y="-45.5" font-family="Helvetica,sans-Serif" font-size="10.00" fill="#000000">dbg::type</text>
</g>
<!-- Node94 -->
<g id="node2" class="node">
<title>Node94</title>
<g id="a_node2"><a xlink:href="namespacedbg.html#a20edc7ca4e92e4b3bddc6b983384aa00" target="_top" xlink:title="dbg::get_type_name">
<polygon fill="none" stroke="#000000" points="98,-76.5 98,-95.5 214,-95.5 214,-76.5 98,-76.5"/>
<text text-anchor="middle" x="156" y="-83.5" font-family="Helvetica,sans-Serif" font-size="10.00" fill="#000000">dbg::get_type_name</text>
</a>
</g>
</g>
<!-- Node93&#45;&gt;Node94 -->
<g id="edge1" class="edge">
<title>Node93&#45;&gt;Node94</title>
<path fill="none" stroke="#191970" d="M71.9938,-60.4621C89.1553,-65.6792 108.7805,-71.6453 124.7444,-76.4983"/>
<polygon fill="#191970" stroke="#191970" points="72.806,-57.0509 62.2203,-57.491 70.77,-63.7483 72.806,-57.0509"/>
</g>
<!-- Node95 -->
<g id="node3" class="node">
<title>Node95</title>
<g id="a_node3"><a xlink:href="namespacedbg.html#aab63fa619583229308f148088ffac7a0" target="_top" xlink:title="dbg::type_name">
<polygon fill="none" stroke="#000000" points="250,-57.5 250,-76.5 345,-76.5 345,-57.5 250,-57.5"/>
<text text-anchor="middle" x="297.5" y="-64.5" font-family="Helvetica,sans-Serif" font-size="10.00" fill="#000000">dbg::type_name</text>
</a>
</g>
</g>
<!-- Node93&#45;&gt;Node95 -->
<g id="edge3" class="edge">
<title>Node93&#45;&gt;Node95</title>
<path fill="none" stroke="#191970" d="M72.1026,-50.9304C119.964,-54.3426 198.9058,-59.9708 249.5281,-63.5799"/>
<polygon fill="#191970" stroke="#191970" points="72.3161,-47.4368 62.0925,-50.2167 71.8183,-54.4191 72.3161,-47.4368"/>
</g>
<!-- Node96 -->
<g id="node4" class="node">
<title>Node96</title>
<g id="a_node4"><a xlink:href="namespacedbg.html#ab875770941388a1d8279e9b5257e5a93" target="_top" xlink:title="dbg::pretty_print">
<polygon fill="none" stroke="#000000" points="107,-.5 107,-19.5 205,-19.5 205,-.5 107,-.5"/>
<text text-anchor="middle" x="156" y="-7.5" font-family="Helvetica,sans-Serif" font-size="10.00" fill="#000000">dbg::pretty_print</text>
</a>
</g>
</g>
<!-- Node93&#45;&gt;Node96 -->
<g id="edge4" class="edge">
<title>Node93&#45;&gt;Node96</title>
<path fill="none" stroke="#191970" d="M71.9938,-35.5379C89.1553,-30.3208 108.7805,-24.3547 124.7444,-19.5017"/>
<polygon fill="#191970" stroke="#191970" points="70.77,-32.2517 62.2203,-38.509 72.806,-38.9491 70.77,-32.2517"/>
</g>
<!-- Node94&#45;&gt;Node95 -->
<g id="edge2" class="edge">
<title>Node94&#45;&gt;Node95</title>
<path fill="none" stroke="#191970" d="M224.3436,-76.8231C232.883,-75.6765 241.4692,-74.5236 249.6038,-73.4313"/>
<polygon fill="#191970" stroke="#191970" points="223.8156,-73.3625 214.3704,-78.1623 224.7473,-80.3002 223.8156,-73.3625"/>
</g>
</g>
</svg>
