<?xml version="1.0" encoding="UTF-8" standalone="no"?>
<!DOCTYPE svg PUBLIC "-//W3C//DTD SVG 1.1//EN"
 "http://www.w3.org/Graphics/SVG/1.1/DTD/svg11.dtd">
<!-- Generated by graphviz version 2.40.1 (20161225.0304)
 -->
<!-- Title: dbg::pretty_print Pages: 1 -->
<svg width="276pt" height="165pt"
 viewBox="0.00 0.00 276.00 165.00" xmlns="http://www.w3.org/2000/svg" xmlns:xlink="http://www.w3.org/1999/xlink">
<g id="graph0" class="graph" transform="scale(1 1) rotate(0) translate(4 161)">
<title>dbg::pretty_print</title>
<!-- Node38 -->
<g id="node1" class="node">
<title>Node38</title>
<polygon fill="#bfbfbf" stroke="#000000" points="0,-68.5 0,-87.5 98,-87.5 98,-68.5 0,-68.5"/>
<text text-anchor="middle" x="49" y="-75.5" font-family="Helvetica,sans-Serif" font-size="10.00" fill="#000000">dbg::pretty_print</text>
</g>
<!-- Node39 -->
<g id="node2" class="node">
<title>Node39</title>
<g id="a_node2"><a xlink:href="namespacedbg.html#a4920208faa7096e0333f9d14119a9c2f" target="_top" xlink:title="dbg::pretty_print">
<polygon fill="none" stroke="#000000" points="152,-137.5 152,-156.5 250,-156.5 250,-137.5 152,-137.5"/>
<text text-anchor="middle" x="201" y="-144.5" font-family="Helvetica,sans-Serif" font-size="10.00" fill="#000000">dbg::pretty_print</text>
</a>
</g>
</g>
<!-- Node38&#45;&gt;Node39 -->
<g id="edge1" class="edge">
<title>Node38&#45;&gt;Node39</title>
<path fill="none" stroke="#191970" d="M71.3447,-93.2865C88.0218,-104.1545 111.6853,-118.4594 134,-128 142.5602,-131.6599 152.0324,-134.837 161.0934,-137.4907"/>
<polygon fill="#191970" stroke="#191970" points="73.1198,-90.264 62.8514,-87.6544 69.2512,-96.0979 73.1198,-90.264"/>
</g>
<!-- Node40 -->
<g id="node3" class="node">
<title>Node40</title>
<g id="a_node3"><a xlink:href="structdbg_1_1pretty__print__tuple.html#a17c2bca6c330e88da2082efa4c3a9be5" target="_top" xlink:title="dbg::pretty_print_tuple\l::print">
<polygon fill="none" stroke="#000000" points="137,-88 137,-118 265,-118 265,-88 137,-88"/>
<text text-anchor="start" x="145" y="-106" font-family="Helvetica,sans-Serif" font-size="10.00" fill="#000000">dbg::pretty_print_tuple</text>
<text text-anchor="middle" x="201" y="-95" font-family="Helvetica,sans-Serif" font-size="10.00" fill="#000000">::print</text>
</a>
</g>
</g>
<!-- Node38&#45;&gt;Node40 -->
<g id="edge2" class="edge">
<title>Node38&#45;&gt;Node40</title>
<path fill="none" stroke="#191970" d="M108.3563,-87.7625C117.7328,-89.3047 127.4649,-90.9054 136.9427,-92.4643"/>
<polygon fill="#191970" stroke="#191970" points="108.7855,-84.2862 98.35,-86.1168 107.6494,-91.1934 108.7855,-84.2862"/>
</g>
<!-- Node41 -->
<g id="node4" class="node">
<title>Node41</title>
<g id="a_node4"><a xlink:href="structdbg_1_1pretty__print__tuple_3_010_01_4.html#a9961147d35a3bcc6b89af9610c68ad39" target="_top" xlink:title="dbg::pretty_print_tuple\l\&lt; 0 \&gt;::print">
<polygon fill="none" stroke="#000000" points="137,-39 137,-69 265,-69 265,-39 137,-39"/>
<text text-anchor="start" x="145" y="-57" font-family="Helvetica,sans-Serif" font-size="10.00" fill="#000000">dbg::pretty_print_tuple</text>
<text text-anchor="middle" x="201" y="-46" font-family="Helvetica,sans-Serif" font-size="10.00" fill="#000000">&lt; 0 &gt;::print</text>
</a>
</g>
</g>
<!-- Node38&#45;&gt;Node41 -->
<g id="edge3" class="edge">
<title>Node38&#45;&gt;Node41</title>
<path fill="none" stroke="#191970" d="M108.3563,-68.628C117.7328,-67.1474 127.4649,-65.6108 136.9427,-64.1143"/>
<polygon fill="#191970" stroke="#191970" points="107.6818,-65.191 98.35,-70.2079 108.7736,-72.1053 107.6818,-65.191"/>
</g>
<!-- Node42 -->
<g id="node5" class="node">
<title>Node42</title>
<g id="a_node5"><a xlink:href="classdbg_1_1_debug_output.html#a1cb30d4b0445e697de3a653c5cb10b7c" target="_top" xlink:title="dbg::DebugOutput::print">
<polygon fill="none" stroke="#000000" points="134,-.5 134,-19.5 268,-19.5 268,-.5 134,-.5"/>
<text text-anchor="middle" x="201" y="-7.5" font-family="Helvetica,sans-Serif" font-size="10.00" fill="#000000">dbg::DebugOutput::print</text>
</a>
</g>
</g>
<!-- Node38&#45;&gt;Node42 -->
<g id="edge4" class="edge">
<title>Node38&#45;&gt;Node42</title>
<path fill="none" stroke="#191970" d="M72.0695,-63.098C88.7708,-52.7818 112.1561,-39.2889 134,-30 143.3837,-26.0097 153.8229,-22.4847 163.6148,-19.5493"/>
<polygon fill="#191970" stroke="#191970" points="70.1413,-60.1759 63.5309,-68.4556 73.8618,-66.1054 70.1413,-60.1759"/>
</g>
</g>
</svg>
