<?xml version="1.0" encoding="UTF-8" standalone="no"?>
<!DOCTYPE svg PUBLIC "-//W3C//DTD SVG 1.1//EN"
 "http://www.w3.org/Graphics/SVG/1.1/DTD/svg11.dtd">
<!-- Generated by graphviz version 2.40.1 (20161225.0304)
 -->
<!-- Title: /workspace/src/game_logic/penguin/BoardCell.hpp Pages: 1 -->
<!--zoomable 106 -->
<svg id="main" version="1.1" xmlns="http://www.w3.org/2000/svg" xmlns:xlink="http://www.w3.org/1999/xlink" xml:space="preserve" onload="init(evt)">
<style type="text/css"><![CDATA[
.edge:hover path { stroke: red; }
.edge:hover polygon { stroke: red; fill: red; }
]]></style>
<script type="text/javascript"><![CDATA[
var edges = document.getElementsByTagName('g');
if (edges && edges.length) {
  for (var i=0;i<edges.length;i++) {
    if (edges[i].id.substr(0,4)=='edge') {
      edges[i].setAttribute('class','edge');
    }
  }
}
]]></script>
        <defs>
                <circle id="rim" cx="0" cy="0" r="7"/>
                <circle id="rim2" cx="0" cy="0" r="3.5"/>
                <g id="zoomPlus">
                        <use xlink:href="#rim" fill="#404040">
                                <set attributeName="fill" to="#808080" begin="zoomplus.mouseover" end="zoomplus.mouseout"/>
                        </use>
                        <path d="M-4,0h8M0,-4v8" fill="none" stroke="white" stroke-width="1.5" pointer-events="none"/>
                </g>
                <g id="zoomMin">
                        <use xlink:href="#rim" fill="#404040">
                                <set attributeName="fill" to="#808080" begin="zoomminus.mouseover" end="zoomminus.mouseout"/>
                        </use>
                        <path d="M-4,0h8" fill="none" stroke="white" stroke-width="1.5" pointer-events="none"/>
                </g>
                <g id="dirArrow">
                        <path fill="none" stroke="white" stroke-width="1.5" d="M0,-3.0v7 M-2.5,-0.5L0,-3.0L2.5,-0.5"/>
                </g>
               <g id="resetDef">
                       <use xlink:href="#rim2" fill="#404040">
                               <set attributeName="fill" to="#808080" begin="reset.mouseover" end="reset.mouseout"/>
                       </use>
               </g>
        </defs>

<script type="text/javascript">
var viewWidth = 1636;
var viewHeight = 106;
var sectionId = 'dynsection-1';
</script>
<script xlink:href="svgpan.js"/>
<svg id="graph" class="graph">
<g id="viewport">
<title>/workspace/src/game_logic/penguin/BoardCell.hpp</title>
<!-- Node5 -->
<g id="node1" class="node">
<title>Node5</title>
<polygon fill="#bfbfbf" stroke="#000000" points="759.5,-67.5 759.5,-97.5 917.5,-97.5 917.5,-67.5 759.5,-67.5"/>
<text text-anchor="start" x="767.5" y="-85.5" font-family="Helvetica,sans-Serif" font-size="10.00" fill="#000000">/workspace/src/game</text>
<text text-anchor="middle" x="838.5" y="-74.5" font-family="Helvetica,sans-Serif" font-size="10.00" fill="#000000">_logic/penguin/BoardCell.hpp</text>
</g>
<!-- Node6 -->
<g id="node2" class="node">
<title>Node6</title>
<g id="a_node2"><a xlink:href="_abstract_board_8cpp.html" target="_top" xlink:title="/workspace/src/game\l_logic/AbstractBoard.cpp">
<polygon fill="none" stroke="#000000" points="0,-.5 0,-30.5 137,-30.5 137,-.5 0,-.5"/>
<text text-anchor="start" x="8" y="-18.5" font-family="Helvetica,sans-Serif" font-size="10.00" fill="#000000">/workspace/src/game</text>
<text text-anchor="middle" x="68.5" y="-7.5" font-family="Helvetica,sans-Serif" font-size="10.00" fill="#000000">_logic/AbstractBoard.cpp</text>
</a>
</g>
</g>
<!-- Node5&#45;&gt;Node6 -->
<g id="edge1" class="edge">
<title>Node5&#45;&gt;Node6</title>
<path fill="none" stroke="#191970" d="M749.2236,-79.3353C617.0497,-73.864 361.7299,-60.2829 146.5,-31 143.4903,-30.5905 140.4219,-30.1369 137.327,-29.6499"/>
<polygon fill="#191970" stroke="#191970" points="749.1657,-82.8358 759.3002,-79.7466 749.4512,-75.8416 749.1657,-82.8358"/>
</g>
<!-- Node7 -->
<g id="node3" class="node">
<title>Node7</title>
<g id="a_node3"><a xlink:href="_abstract_game_8cpp.html" target="_top" xlink:title="/workspace/src/game\l_logic/AbstractGame.cpp">
<polygon fill="none" stroke="#000000" points="155.5,-.5 155.5,-30.5 293.5,-30.5 293.5,-.5 155.5,-.5"/>
<text text-anchor="start" x="163.5" y="-18.5" font-family="Helvetica,sans-Serif" font-size="10.00" fill="#000000">/workspace/src/game</text>
<text text-anchor="middle" x="224.5" y="-7.5" font-family="Helvetica,sans-Serif" font-size="10.00" fill="#000000">_logic/AbstractGame.cpp</text>
</a>
</g>
</g>
<!-- Node5&#45;&gt;Node7 -->
<g id="edge2" class="edge">
<title>Node5&#45;&gt;Node7</title>
<path fill="none" stroke="#191970" d="M749.1083,-76.6676C642.4345,-69.072 458.8512,-53.9869 302.5,-31 299.6315,-30.5783 296.7087,-30.1214 293.7599,-29.6381"/>
<polygon fill="#191970" stroke="#191970" points="748.9663,-80.1662 759.188,-77.3793 749.4594,-73.1836 748.9663,-80.1662"/>
</g>
<!-- Node8 -->
<g id="node4" class="node">
<title>Node8</title>
<g id="a_node4"><a xlink:href="_abstract_pawn_8cpp.html" target="_top" xlink:title="/workspace/src/game\l_logic/AbstractPawn.cpp">
<polygon fill="none" stroke="#000000" points="311.5,-.5 311.5,-30.5 445.5,-30.5 445.5,-.5 311.5,-.5"/>
<text text-anchor="start" x="319.5" y="-18.5" font-family="Helvetica,sans-Serif" font-size="10.00" fill="#000000">/workspace/src/game</text>
<text text-anchor="middle" x="378.5" y="-7.5" font-family="Helvetica,sans-Serif" font-size="10.00" fill="#000000">_logic/AbstractPawn.cpp</text>
</a>
</g>
</g>
<!-- Node5&#45;&gt;Node8 -->
<g id="edge3" class="edge">
<title>Node5&#45;&gt;Node8</title>
<path fill="none" stroke="#191970" d="M748.934,-72.2328C670.9439,-62.8766 554.9492,-47.9589 454.5,-31 451.5788,-30.5068 448.5984,-29.9839 445.5906,-29.4401"/>
<polygon fill="#191970" stroke="#191970" points="748.8597,-75.7487 759.2041,-73.459 749.6896,-68.7981 748.8597,-75.7487"/>
</g>
<!-- Node9 -->
<g id="node5" class="node">
<title>Node9</title>
<g id="a_node5"><a xlink:href="_history_8cpp.html" target="_top" xlink:title="/workspace/src/game\l_logic/History.cpp">
<polygon fill="none" stroke="#000000" points="463.5,-.5 463.5,-30.5 583.5,-30.5 583.5,-.5 463.5,-.5"/>
<text text-anchor="start" x="471.5" y="-18.5" font-family="Helvetica,sans-Serif" font-size="10.00" fill="#000000">/workspace/src/game</text>
<text text-anchor="middle" x="523.5" y="-7.5" font-family="Helvetica,sans-Serif" font-size="10.00" fill="#000000">_logic/History.cpp</text>
</a>
</g>
</g>
<!-- Node5&#45;&gt;Node9 -->
<g id="edge4" class="edge">
<title>Node5&#45;&gt;Node9</title>
<path fill="none" stroke="#191970" d="M755.277,-65.3922C707.5911,-55.5108 646.6419,-42.7478 592.5,-31 589.6204,-30.3752 586.6742,-29.7313 583.6993,-29.0774"/>
<polygon fill="#191970" stroke="#191970" points="754.7421,-68.8556 765.2441,-67.4556 756.1613,-62.001 754.7421,-68.8556"/>
</g>
<!-- Node10 -->
<g id="node6" class="node">
<title>Node10</title>
<g id="a_node6"><a xlink:href="penguin_2_board_8cpp.html" target="_top" xlink:title="/workspace/src/game\l_logic/penguin/Board.cpp">
<polygon fill="none" stroke="#000000" points="602,-.5 602,-30.5 741,-30.5 741,-.5 602,-.5"/>
<text text-anchor="start" x="610" y="-18.5" font-family="Helvetica,sans-Serif" font-size="10.00" fill="#000000">/workspace/src/game</text>
<text text-anchor="middle" x="671.5" y="-7.5" font-family="Helvetica,sans-Serif" font-size="10.00" fill="#000000">_logic/penguin/Board.cpp</text>
</a>
</g>
</g>
<!-- Node5&#45;&gt;Node10 -->
<g id="edge5" class="edge">
<title>Node5&#45;&gt;Node10</title>
<path fill="none" stroke="#191970" d="M791.7088,-63.7275C765.6294,-53.2645 733.5852,-40.4084 709.1415,-30.6017"/>
<polygon fill="#191970" stroke="#191970" points="790.4378,-66.9887 801.0219,-67.4639 793.0442,-60.492 790.4378,-66.9887"/>
</g>
<!-- Node11 -->
<g id="node7" class="node">
<title>Node11</title>
<g id="a_node7"><a xlink:href="penguin_2_board_cell_8cpp.html" target="_top" xlink:title="/workspace/src/game\l_logic/penguin/BoardCell.cpp">
<polygon fill="none" stroke="#000000" points="759.5,-.5 759.5,-30.5 917.5,-30.5 917.5,-.5 759.5,-.5"/>
<text text-anchor="start" x="767.5" y="-18.5" font-family="Helvetica,sans-Serif" font-size="10.00" fill="#000000">/workspace/src/game</text>
<text text-anchor="middle" x="838.5" y="-7.5" font-family="Helvetica,sans-Serif" font-size="10.00" fill="#000000">_logic/penguin/BoardCell.cpp</text>
</a>
</g>
</g>
<!-- Node5&#45;&gt;Node11 -->
<g id="edge6" class="edge">
<title>Node5&#45;&gt;Node11</title>
<path fill="none" stroke="#191970" d="M838.5,-57.0249C838.5,-48.128 838.5,-38.4287 838.5,-30.6432"/>
<polygon fill="#191970" stroke="#191970" points="835.0001,-57.2966 838.5,-67.2967 842.0001,-57.2967 835.0001,-57.2966"/>
</g>
<!-- Node12 -->
<g id="node8" class="node">
<title>Node12</title>
<g id="a_node8"><a xlink:href="_print_hex_8cpp.html" target="_top" xlink:title="/workspace/src/game\l_logic/penguin/PrintHex.cpp">
<polygon fill="none" stroke="#000000" points="935.5,-.5 935.5,-30.5 1087.5,-30.5 1087.5,-.5 935.5,-.5"/>
<text text-anchor="start" x="943.5" y="-18.5" font-family="Helvetica,sans-Serif" font-size="10.00" fill="#000000">/workspace/src/game</text>
<text text-anchor="middle" x="1011.5" y="-7.5" font-family="Helvetica,sans-Serif" font-size="10.00" fill="#000000">_logic/penguin/PrintHex.cpp</text>
</a>
</g>
</g>
<!-- Node5&#45;&gt;Node12 -->
<g id="edge7" class="edge">
<title>Node5&#45;&gt;Node12</title>
<path fill="none" stroke="#191970" d="M886.9724,-63.7275C913.9887,-53.2645 947.1842,-40.4084 972.5061,-30.6017"/>
<polygon fill="#191970" stroke="#191970" points="885.3856,-60.5886 877.3246,-67.4639 887.9137,-67.1162 885.3856,-60.5886"/>
</g>
<!-- Node13 -->
<g id="node9" class="node">
<title>Node13</title>
<g id="a_node9"><a xlink:href="_move_8cpp.html" target="_top" xlink:title="/workspace/src/game\l_logic/utils/Move.cpp">
<polygon fill="none" stroke="#000000" points="1105.5,-.5 1105.5,-30.5 1225.5,-30.5 1225.5,-.5 1105.5,-.5"/>
<text text-anchor="start" x="1113.5" y="-18.5" font-family="Helvetica,sans-Serif" font-size="10.00" fill="#000000">/workspace/src/game</text>
<text text-anchor="middle" x="1165.5" y="-7.5" font-family="Helvetica,sans-Serif" font-size="10.00" fill="#000000">_logic/utils/Move.cpp</text>
</a>
</g>
</g>
<!-- Node5&#45;&gt;Node13 -->
<g id="edge8" class="edge">
<title>Node5&#45;&gt;Node13</title>
<path fill="none" stroke="#191970" d="M926.3379,-65.5079C976.2856,-55.71 1039.9634,-42.991 1096.5,-31 1099.3825,-30.3886 1102.331,-29.7557 1105.3078,-29.1105"/>
<polygon fill="#191970" stroke="#191970" points="925.3578,-62.1333 916.217,-67.4901 926.7033,-69.0028 925.3578,-62.1333"/>
</g>
<!-- Node14 -->
<g id="node10" class="node">
<title>Node14</title>
<g id="a_node10"><a xlink:href="_m_c_t_s_8cpp.html" target="_top" xlink:title="/workspace/src/mcts\l/MCTS.cpp">
<polygon fill="none" stroke="#000000" points="1243.5,-.5 1243.5,-30.5 1359.5,-30.5 1359.5,-.5 1243.5,-.5"/>
<text text-anchor="start" x="1251.5" y="-18.5" font-family="Helvetica,sans-Serif" font-size="10.00" fill="#000000">/workspace/src/mcts</text>
<text text-anchor="middle" x="1301.5" y="-7.5" font-family="Helvetica,sans-Serif" font-size="10.00" fill="#000000">/MCTS.cpp</text>
</a>
</g>
</g>
<!-- Node5&#45;&gt;Node14 -->
<g id="edge9" class="edge">
<title>Node5&#45;&gt;Node14</title>
<path fill="none" stroke="#191970" d="M927.8435,-73.4114C1008.3569,-64.6209 1129.8105,-49.8702 1234.5,-31 1237.4375,-30.4705 1240.4401,-29.8966 1243.4673,-29.2921"/>
<polygon fill="#191970" stroke="#191970" points="927.3065,-69.949 917.742,-74.5064 928.061,-76.9082 927.3065,-69.949"/>
</g>
<!-- Node15 -->
<g id="node11" class="node">
<title>Node15</title>
<g id="a_node11"><a xlink:href="_m_c_t_s_player_8cpp.html" target="_top" xlink:title="/workspace/src/mcts\l/MCTSPlayer.cpp">
<polygon fill="none" stroke="#000000" points="1377.5,-.5 1377.5,-30.5 1493.5,-30.5 1493.5,-.5 1377.5,-.5"/>
<text text-anchor="start" x="1385.5" y="-18.5" font-family="Helvetica,sans-Serif" font-size="10.00" fill="#000000">/workspace/src/mcts</text>
<text text-anchor="middle" x="1435.5" y="-7.5" font-family="Helvetica,sans-Serif" font-size="10.00" fill="#000000">/MCTSPlayer.cpp</text>
</a>
</g>
</g>
<!-- Node5&#45;&gt;Node15 -->
<g id="edge10" class="edge">
<title>Node5&#45;&gt;Node15</title>
<path fill="none" stroke="#191970" d="M927.9289,-77.3824C1033.6633,-70.5084 1214.7116,-56.1505 1368.5,-31 1371.4457,-30.5183 1374.455,-29.9828 1377.4874,-29.4087"/>
<polygon fill="#191970" stroke="#191970" points="927.6902,-73.8904 917.9351,-78.0243 928.1389,-80.876 927.6902,-73.8904"/>
</g>
<!-- Node16 -->
<g id="node12" class="node">
<title>Node16</title>
<g id="a_node12"><a xlink:href="_tree_8cpp.html" target="_top" xlink:title="/workspace/src/mcts\l/Tree.cpp">
<polygon fill="none" stroke="#000000" points="1511.5,-.5 1511.5,-30.5 1627.5,-30.5 1627.5,-.5 1511.5,-.5"/>
<text text-anchor="start" x="1519.5" y="-18.5" font-family="Helvetica,sans-Serif" font-size="10.00" fill="#000000">/workspace/src/mcts</text>
<text text-anchor="middle" x="1569.5" y="-7.5" font-family="Helvetica,sans-Serif" font-size="10.00" fill="#000000">/Tree.cpp</text>
</a>
</g>
</g>
<!-- Node5&#45;&gt;Node16 -->
<g id="edge11" class="edge">
<title>Node5&#45;&gt;Node16</title>
<path fill="none" stroke="#191970" d="M927.7822,-79.8243C1055.7239,-75.0286 1298.3178,-62.3552 1502.5,-31 1505.4502,-30.547 1508.4632,-30.0346 1511.4985,-29.4788"/>
<polygon fill="#191970" stroke="#191970" points="927.5077,-76.3319 917.643,-80.1968 927.7648,-83.3272 927.5077,-76.3319"/>
</g>
</g>
</svg>
        <g id="navigator" transform="translate(0 0)" fill="#404254">
                <rect fill="#f2f5e9" fill-opacity="0.5" stroke="#606060" stroke-width=".5" x="0" y="0" width="60" height="60"/>
                <use id="zoomplus" xlink:href="#zoomPlus" x="17" y="9" onmousedown="handleZoom(evt,'in')"/>
                <use id="zoomminus" xlink:href="#zoomMin" x="42" y="9" onmousedown="handleZoom(evt,'out')"/>
                <use id="reset" xlink:href="#resetDef" x="30" y="36" onmousedown="handleReset()"/>
                <g id="arrowUp" xlink:href="#dirArrow" transform="translate(30 24)" onmousedown="handlePan(0,-1)">
                  <use xlink:href="#rim" fill="#404040">
                        <set attributeName="fill" to="#808080" begin="arrowUp.mouseover" end="arrowUp.mouseout"/>
                  </use>
                  <path fill="none" stroke="white" stroke-width="1.5" d="M0,-3.0v7 M-2.5,-0.5L0,-3.0L2.5,-0.5"/>
                </g>
                <g id="arrowRight" xlink:href="#dirArrow" transform="rotate(90) translate(36 -43)" onmousedown="handlePan(1,0)">
                  <use xlink:href="#rim" fill="#404040">
                        <set attributeName="fill" to="#808080" begin="arrowRight.mouseover" end="arrowRight.mouseout"/>
                  </use>
                  <path fill="none" stroke="white" stroke-width="1.5" d="M0,-3.0v7 M-2.5,-0.5L0,-3.0L2.5,-0.5"/>
                </g>
                <g id="arrowDown" xlink:href="#dirArrow" transform="rotate(180) translate(-30 -48)" onmousedown="handlePan(0,1)">
                  <use xlink:href="#rim" fill="#404040">
                        <set attributeName="fill" to="#808080" begin="arrowDown.mouseover" end="arrowDown.mouseout"/>
                  </use>
                  <path fill="none" stroke="white" stroke-width="1.5" d="M0,-3.0v7 M-2.5,-0.5L0,-3.0L2.5,-0.5"/>
                </g>
                <g id="arrowLeft" xlink:href="#dirArrow" transform="rotate(270) translate(-36 17)" onmousedown="handlePan(-1,0)">
                  <use xlink:href="#rim" fill="#404040">
                        <set attributeName="fill" to="#808080" begin="arrowLeft.mouseover" end="arrowLeft.mouseout"/>
                  </use>
                  <path fill="none" stroke="white" stroke-width="1.5" d="M0,-3.0v7 M-2.5,-0.5L0,-3.0L2.5,-0.5"/>
                </g>
        </g>
        <svg viewBox="0 0 15 15" width="100%" height="30px" preserveAspectRatio="xMaxYMin meet">
         <g id="arrow_out" transform="scale(0.3 0.3)">
          <a xlink:href="penguin_2_board_cell_8hpp__dep__incl_org.svg" target="_base">
           <rect id="button" ry="5" rx="5" y="6" x="6" height="38" width="38"
                fill="#f2f5e9" fill-opacity="0.5" stroke="#606060" stroke-width="1.0"/>
           <path id="arrow"
             d="M 11.500037,31.436501 C 11.940474,20.09759 22.043105,11.32322 32.158766,21.979434 L 37.068811,17.246167 C 37.068811,17.246167 37.088388,32 37.088388,32 L 22.160133,31.978069 C 22.160133,31.978069 26.997745,27.140456 26.997745,27.140456 C 18.528582,18.264221 13.291696,25.230495 11.500037,31.436501 z"
             style="fill:#404040;"/>
          </a>
         </g>
        </svg>
</svg>
