<?xml version="1.0" encoding="UTF-8" standalone="no"?>
<!DOCTYPE svg PUBLIC "-//W3C//DTD SVG 1.1//EN"
 "http://www.w3.org/Graphics/SVG/1.1/DTD/svg11.dtd">
<!-- Generated by graphviz version 2.40.1 (20161225.0304)
 -->
<!-- Title: /workspace/src/game_logic/penguin/BoardCell.hpp Pages: 1 -->
<svg width="307pt" height="151pt"
 viewBox="0.00 0.00 306.50 151.00" xmlns="http://www.w3.org/2000/svg" xmlns:xlink="http://www.w3.org/1999/xlink">
<g id="graph0" class="graph" transform="scale(1 1) rotate(0) translate(4 147)">
<title>/workspace/src/game_logic/penguin/BoardCell.hpp</title>
<!-- Node0 -->
<g id="node1" class="node">
<title>Node0</title>
<polygon fill="#bfbfbf" stroke="#000000" points="58,-112.5 58,-142.5 216,-142.5 216,-112.5 58,-112.5"/>
<text text-anchor="start" x="66" y="-130.5" font-family="Helvetica,sans-Serif" font-size="10.00" fill="#000000">/workspace/src/game</text>
<text text-anchor="middle" x="137" y="-119.5" font-family="Helvetica,sans-Serif" font-size="10.00" fill="#000000">_logic/penguin/BoardCell.hpp</text>
</g>
<!-- Node1 -->
<g id="node2" class="node">
<title>Node1</title>
<g id="a_node2"><a xlink:href="_abstract_board_cell_8hpp.html" target="_top" xlink:title="../AbstractBoardCell.hpp">
<polygon fill="none" stroke="#000000" points="0,-56.5 0,-75.5 134,-75.5 134,-56.5 0,-56.5"/>
<text text-anchor="middle" x="67" y="-63.5" font-family="Helvetica,sans-Serif" font-size="10.00" fill="#000000">../AbstractBoardCell.hpp</text>
</a>
</g>
</g>
<!-- Node0&#45;&gt;Node1 -->
<g id="edge1" class="edge">
<title>Node0&#45;&gt;Node1</title>
<path fill="none" stroke="#191970" d="M119.6966,-112.2977C109.4738,-103.3163 96.5177,-91.9334 86.0104,-82.702"/>
<polygon fill="#191970" stroke="#191970" points="88.0305,-79.8178 78.2079,-75.8469 83.4103,-85.0766 88.0305,-79.8178"/>
</g>
<!-- Node2 -->
<g id="node3" class="node">
<title>Node2</title>
<g id="a_node3"><a xlink:href="_position_8hpp.html" target="_top" xlink:title="../utils/Position.hpp">
<polygon fill="none" stroke="#000000" points="152,-56.5 152,-75.5 262,-75.5 262,-56.5 152,-56.5"/>
<text text-anchor="middle" x="207" y="-63.5" font-family="Helvetica,sans-Serif" font-size="10.00" fill="#000000">../utils/Position.hpp</text>
</a>
</g>
</g>
<!-- Node0&#45;&gt;Node2 -->
<g id="edge2" class="edge">
<title>Node0&#45;&gt;Node2</title>
<path fill="none" stroke="#191970" d="M154.3034,-112.2977C164.5262,-103.3163 177.4823,-91.9334 187.9896,-82.702"/>
<polygon fill="#191970" stroke="#191970" points="190.5897,-85.0766 195.7921,-75.8469 185.9695,-79.8178 190.5897,-85.0766"/>
</g>
<!-- Node3 -->
<g id="node4" class="node">
<title>Node3</title>
<polygon fill="none" stroke="#bfbfbf" points="134.5,-.5 134.5,-19.5 187.5,-19.5 187.5,-.5 134.5,-.5"/>
<text text-anchor="middle" x="161" y="-7.5" font-family="Helvetica,sans-Serif" font-size="10.00" fill="#000000">stdlib.h</text>
</g>
<!-- Node2&#45;&gt;Node3 -->
<g id="edge3" class="edge">
<title>Node2&#45;&gt;Node3</title>
<path fill="none" stroke="#191970" d="M198.9874,-56.2455C192.5232,-48.3761 183.2615,-37.101 175.5017,-27.6542"/>
<polygon fill="#191970" stroke="#191970" points="177.9727,-25.1484 168.9208,-19.6427 172.5636,-29.5916 177.9727,-25.1484"/>
</g>
<!-- Node4 -->
<g id="node5" class="node">
<title>Node4</title>
<polygon fill="none" stroke="#bfbfbf" points="205.5,-.5 205.5,-19.5 298.5,-19.5 298.5,-.5 205.5,-.5"/>
<text text-anchor="middle" x="252" y="-7.5" font-family="Helvetica,sans-Serif" font-size="10.00" fill="#000000">unordered_map</text>
</g>
<!-- Node2&#45;&gt;Node4 -->
<g id="edge4" class="edge">
<title>Node2&#45;&gt;Node4</title>
<path fill="none" stroke="#191970" d="M214.8384,-56.2455C221.162,-48.3761 230.2224,-37.101 237.8136,-27.6542"/>
<polygon fill="#191970" stroke="#191970" points="240.7158,-29.6302 244.2514,-19.6427 235.2592,-25.2454 240.7158,-29.6302"/>
</g>
</g>
</svg>
