<?xml version="1.0" encoding="UTF-8" standalone="no"?>
<!DOCTYPE svg PUBLIC "-//W3C//DTD SVG 1.1//EN"
 "http://www.w3.org/Graphics/SVG/1.1/DTD/svg11.dtd">
<!-- Generated by graphviz version 2.40.1 (20161225.0304)
 -->
<!-- Title: /workspace/src/game_logic/penguin/BoardCell.cpp Pages: 1 -->
<!--zoomable 263 -->
<svg id="main" version="1.1" xmlns="http://www.w3.org/2000/svg" xmlns:xlink="http://www.w3.org/1999/xlink" xml:space="preserve" onload="init(evt)">
<style type="text/css"><![CDATA[
.edge:hover path { stroke: red; }
.edge:hover polygon { stroke: red; fill: red; }
]]></style>
<script type="text/javascript"><![CDATA[
var edges = document.getElementsByTagName('g');
if (edges && edges.length) {
  for (var i=0;i<edges.length;i++) {
    if (edges[i].id.substr(0,4)=='edge') {
      edges[i].setAttribute('class','edge');
    }
  }
}
]]></script>
        <defs>
                <circle id="rim" cx="0" cy="0" r="7"/>
                <circle id="rim2" cx="0" cy="0" r="3.5"/>
                <g id="zoomPlus">
                        <use xlink:href="#rim" fill="#404040">
                                <set attributeName="fill" to="#808080" begin="zoomplus.mouseover" end="zoomplus.mouseout"/>
                        </use>
                        <path d="M-4,0h8M0,-4v8" fill="none" stroke="white" stroke-width="1.5" pointer-events="none"/>
                </g>
                <g id="zoomMin">
                        <use xlink:href="#rim" fill="#404040">
                                <set attributeName="fill" to="#808080" begin="zoomminus.mouseover" end="zoomminus.mouseout"/>
                        </use>
                        <path d="M-4,0h8" fill="none" stroke="white" stroke-width="1.5" pointer-events="none"/>
                </g>
                <g id="dirArrow">
                        <path fill="none" stroke="white" stroke-width="1.5" d="M0,-3.0v7 M-2.5,-0.5L0,-3.0L2.5,-0.5"/>
                </g>
               <g id="resetDef">
                       <use xlink:href="#rim2" fill="#404040">
                               <set attributeName="fill" to="#808080" begin="reset.mouseover" end="reset.mouseout"/>
                       </use>
               </g>
        </defs>

<script type="text/javascript">
var viewWidth = 612;
var viewHeight = 263;
var sectionId = 'dynsection-0';
</script>
<script xlink:href="svgpan.js"/>
<svg id="graph" class="graph">
<g id="viewport">
<title>/workspace/src/game_logic/penguin/BoardCell.cpp</title>
<!-- Node0 -->
<g id="node1" class="node">
<title>Node0</title>
<polygon fill="#bfbfbf" stroke="#000000" points="169,-224.5 169,-254.5 327,-254.5 327,-224.5 169,-224.5"/>
<text text-anchor="start" x="177" y="-242.5" font-family="Helvetica,sans-Serif" font-size="10.00" fill="#000000">/workspace/src/game</text>
<text text-anchor="middle" x="248" y="-231.5" font-family="Helvetica,sans-Serif" font-size="10.00" fill="#000000">_logic/penguin/BoardCell.cpp</text>
</g>
<!-- Node1 -->
<g id="node2" class="node">
<title>Node1</title>
<g id="a_node2"><a xlink:href="_abstract_board_cell_8hpp.html" target="_top" xlink:title="../AbstractBoardCell.hpp">
<polygon fill="none" stroke="#000000" points="0,-112.5 0,-131.5 134,-131.5 134,-112.5 0,-112.5"/>
<text text-anchor="middle" x="67" y="-119.5" font-family="Helvetica,sans-Serif" font-size="10.00" fill="#000000">../AbstractBoardCell.hpp</text>
</a>
</g>
</g>
<!-- Node0&#45;&gt;Node1 -->
<g id="edge1" class="edge">
<title>Node0&#45;&gt;Node1</title>
<path fill="none" stroke="#191970" d="M214.9837,-224.3645C195.2853,-214.8403 170.0853,-201.7751 149,-188 125.8099,-172.8499 101.3337,-152.502 85.2244,-138.423"/>
<polygon fill="#191970" stroke="#191970" points="87.4237,-135.6956 77.6142,-131.6927 82.7864,-140.9392 87.4237,-135.6956"/>
</g>
<!-- Node2 -->
<g id="node3" class="node">
<title>Node2</title>
<g id="a_node3"><a xlink:href="_penguin_pawn_8hpp.html" target="_top" xlink:title="PenguinPawn.hpp">
<polygon fill="none" stroke="#000000" points="423,-168.5 423,-187.5 525,-187.5 525,-168.5 423,-168.5"/>
<text text-anchor="middle" x="474" y="-175.5" font-family="Helvetica,sans-Serif" font-size="10.00" fill="#000000">PenguinPawn.hpp</text>
</a>
</g>
</g>
<!-- Node0&#45;&gt;Node2 -->
<g id="edge2" class="edge">
<title>Node0&#45;&gt;Node2</title>
<path fill="none" stroke="#191970" d="M303.2858,-224.4554C341.9868,-213.9239 393.034,-200.0328 429.1959,-190.1923"/>
<polygon fill="#191970" stroke="#191970" points="430.2479,-193.5333 438.978,-187.5303 428.4099,-186.779 430.2479,-193.5333"/>
</g>
<!-- Node4 -->
<g id="node5" class="node">
<title>Node4</title>
<g id="a_node5"><a xlink:href="penguin_2_board_8hpp.html" target="_top" xlink:title="Board.hpp">
<polygon fill="none" stroke="#000000" points="262,-168.5 262,-187.5 328,-187.5 328,-168.5 262,-168.5"/>
<text text-anchor="middle" x="295" y="-175.5" font-family="Helvetica,sans-Serif" font-size="10.00" fill="#000000">Board.hpp</text>
</a>
</g>
</g>
<!-- Node0&#45;&gt;Node4 -->
<g id="edge4" class="edge">
<title>Node0&#45;&gt;Node4</title>
<path fill="none" stroke="#191970" d="M259.618,-224.2977C266.21,-215.672 274.4948,-204.8312 281.3901,-195.8087"/>
<polygon fill="#191970" stroke="#191970" points="284.1835,-197.9176 287.4747,-187.8469 278.6217,-193.6671 284.1835,-197.9176"/>
</g>
<!-- Node13 -->
<g id="node14" class="node">
<title>Node13</title>
<g id="a_node14"><a xlink:href="penguin_2_board_cell_8hpp.html" target="_top" xlink:title="BoardCell.hpp">
<polygon fill="none" stroke="#000000" points="158.5,-168.5 158.5,-187.5 243.5,-187.5 243.5,-168.5 158.5,-168.5"/>
<text text-anchor="middle" x="201" y="-175.5" font-family="Helvetica,sans-Serif" font-size="10.00" fill="#000000">BoardCell.hpp</text>
</a>
</g>
</g>
<!-- Node0&#45;&gt;Node13 -->
<g id="edge15" class="edge">
<title>Node0&#45;&gt;Node13</title>
<path fill="none" stroke="#191970" d="M236.382,-224.2977C229.79,-215.672 221.5052,-204.8312 214.6099,-195.8087"/>
<polygon fill="#191970" stroke="#191970" points="217.3783,-193.6671 208.5253,-187.8469 211.8165,-197.9176 217.3783,-193.6671"/>
</g>
<!-- Node3 -->
<g id="node4" class="node">
<title>Node3</title>
<g id="a_node4"><a xlink:href="_abstract_pawn_8hpp.html" target="_top" xlink:title="../AbstractPawn.hpp">
<polygon fill="none" stroke="#000000" points="490.5,-112.5 490.5,-131.5 603.5,-131.5 603.5,-112.5 490.5,-112.5"/>
<text text-anchor="middle" x="547" y="-119.5" font-family="Helvetica,sans-Serif" font-size="10.00" fill="#000000">../AbstractPawn.hpp</text>
</a>
</g>
</g>
<!-- Node2&#45;&gt;Node3 -->
<g id="edge3" class="edge">
<title>Node2&#45;&gt;Node3</title>
<path fill="none" stroke="#191970" d="M486.7156,-168.2455C497.602,-159.8943 513.4883,-147.7076 526.22,-137.9408"/>
<polygon fill="#191970" stroke="#191970" points="528.6261,-140.5063 534.4301,-131.6427 524.3654,-134.9523 528.6261,-140.5063"/>
</g>
<!-- Node5 -->
<g id="node6" class="node">
<title>Node5</title>
<polygon fill="none" stroke="#bfbfbf" points="223.5,-56.5 223.5,-75.5 316.5,-75.5 316.5,-56.5 223.5,-56.5"/>
<text text-anchor="middle" x="270" y="-63.5" font-family="Helvetica,sans-Serif" font-size="10.00" fill="#000000">unordered_map</text>
</g>
<!-- Node4&#45;&gt;Node5 -->
<g id="edge5" class="edge">
<title>Node4&#45;&gt;Node5</title>
<path fill="none" stroke="#191970" d="M292.8685,-168.4509C288.7726,-150.1013 279.7301,-109.5908 274.3235,-85.3693"/>
<polygon fill="#191970" stroke="#191970" points="277.7206,-84.5222 272.1261,-75.5249 270.8888,-86.0472 277.7206,-84.5222"/>
</g>
<!-- Node6 -->
<g id="node7" class="node">
<title>Node6</title>
<polygon fill="none" stroke="#bfbfbf" points="334.5,-56.5 334.5,-75.5 381.5,-75.5 381.5,-56.5 334.5,-56.5"/>
<text text-anchor="middle" x="358" y="-63.5" font-family="Helvetica,sans-Serif" font-size="10.00" fill="#000000">vector</text>
</g>
<!-- Node4&#45;&gt;Node6 -->
<g id="edge6" class="edge">
<title>Node4&#45;&gt;Node6</title>
<path fill="none" stroke="#191970" d="M300.3713,-168.4509C310.8325,-149.8533 334.0983,-108.4919 347.652,-84.3964"/>
<polygon fill="#191970" stroke="#191970" points="350.7901,-85.9566 352.6423,-75.5249 344.6891,-82.5247 350.7901,-85.9566"/>
</g>
<!-- Node7 -->
<g id="node8" class="node">
<title>Node7</title>
<g id="a_node8"><a xlink:href="_position_8hpp.html" target="_top" xlink:title="../utils/Position.hpp">
<polygon fill="none" stroke="#000000" points="152,-112.5 152,-131.5 262,-131.5 262,-112.5 152,-112.5"/>
<text text-anchor="middle" x="207" y="-119.5" font-family="Helvetica,sans-Serif" font-size="10.00" fill="#000000">../utils/Position.hpp</text>
</a>
</g>
</g>
<!-- Node4&#45;&gt;Node7 -->
<g id="edge7" class="edge">
<title>Node4&#45;&gt;Node7</title>
<path fill="none" stroke="#191970" d="M279.6716,-168.2455C266.1697,-159.6534 246.2878,-147.0014 230.7314,-137.1018"/>
<polygon fill="#191970" stroke="#191970" points="232.4685,-134.0587 222.1528,-131.6427 228.7103,-139.9643 232.4685,-134.0587"/>
</g>
<!-- Node9 -->
<g id="node10" class="node">
<title>Node9</title>
<g id="a_node10"><a xlink:href="_abstract_board_8hpp.html" target="_top" xlink:title="../AbstractBoard.hpp">
<polygon fill="none" stroke="#000000" points="356,-112.5 356,-131.5 472,-131.5 472,-112.5 356,-112.5"/>
<text text-anchor="middle" x="414" y="-119.5" font-family="Helvetica,sans-Serif" font-size="10.00" fill="#000000">../AbstractBoard.hpp</text>
</a>
</g>
</g>
<!-- Node4&#45;&gt;Node9 -->
<g id="edge10" class="edge">
<title>Node4&#45;&gt;Node9</title>
<path fill="none" stroke="#191970" d="M315.4568,-168.3733C334.4738,-159.4241 363.0175,-145.9917 384.4976,-135.8835"/>
<polygon fill="#191970" stroke="#191970" points="386.2522,-138.926 393.8101,-131.5011 383.2716,-132.5923 386.2522,-138.926"/>
</g>
<!-- Node7&#45;&gt;Node5 -->
<g id="edge9" class="edge">
<title>Node7&#45;&gt;Node5</title>
<path fill="none" stroke="#191970" d="M217.9738,-112.2455C227.1882,-104.0549 240.5532,-92.1749 251.4297,-82.5069"/>
<polygon fill="#191970" stroke="#191970" points="254.0032,-84.9023 259.152,-75.6427 249.3526,-79.6704 254.0032,-84.9023"/>
</g>
<!-- Node8 -->
<g id="node9" class="node">
<title>Node8</title>
<polygon fill="none" stroke="#bfbfbf" points="152.5,-56.5 152.5,-75.5 205.5,-75.5 205.5,-56.5 152.5,-56.5"/>
<text text-anchor="middle" x="179" y="-63.5" font-family="Helvetica,sans-Serif" font-size="10.00" fill="#000000">stdlib.h</text>
</g>
<!-- Node7&#45;&gt;Node8 -->
<g id="edge8" class="edge">
<title>Node7&#45;&gt;Node8</title>
<path fill="none" stroke="#191970" d="M202.1228,-112.2455C198.3487,-104.6973 193.0079,-94.0158 188.4099,-84.8197"/>
<polygon fill="#191970" stroke="#191970" points="191.424,-83.0217 183.8213,-75.6427 185.163,-86.1522 191.424,-83.0217"/>
</g>
<!-- Node9&#45;&gt;Node6 -->
<g id="edge11" class="edge">
<title>Node9&#45;&gt;Node6</title>
<path fill="none" stroke="#191970" d="M404.2455,-112.2455C396.1352,-104.1352 384.4075,-92.4075 374.7919,-82.7919"/>
<polygon fill="#191970" stroke="#191970" points="377.1887,-80.2389 367.6427,-75.6427 372.2389,-85.1887 377.1887,-80.2389"/>
</g>
<!-- Node10 -->
<g id="node11" class="node">
<title>Node10</title>
<g id="a_node11"><a xlink:href="_history_8hpp.html" target="_top" xlink:title="History.hpp">
<polygon fill="none" stroke="#000000" points="399.5,-56.5 399.5,-75.5 470.5,-75.5 470.5,-56.5 399.5,-56.5"/>
<text text-anchor="middle" x="435" y="-63.5" font-family="Helvetica,sans-Serif" font-size="10.00" fill="#000000">History.hpp</text>
</a>
</g>
</g>
<!-- Node9&#45;&gt;Node10 -->
<g id="edge12" class="edge">
<title>Node9&#45;&gt;Node10</title>
<path fill="none" stroke="#191970" d="M417.6579,-112.2455C420.4584,-104.7776 424.409,-94.2427 427.8324,-85.1137"/>
<polygon fill="#191970" stroke="#191970" points="431.1499,-86.2349 431.384,-75.6427 424.5955,-83.777 431.1499,-86.2349"/>
</g>
<!-- Node11 -->
<g id="node12" class="node">
<title>Node11</title>
<polygon fill="none" stroke="#bfbfbf" points="371.5,-.5 371.5,-19.5 414.5,-19.5 414.5,-.5 371.5,-.5"/>
<text text-anchor="middle" x="393" y="-7.5" font-family="Helvetica,sans-Serif" font-size="10.00" fill="#000000">stack</text>
</g>
<!-- Node10&#45;&gt;Node11 -->
<g id="edge13" class="edge">
<title>Node10&#45;&gt;Node11</title>
<path fill="none" stroke="#191970" d="M427.6842,-56.2455C421.7821,-48.3761 413.3258,-37.101 406.2406,-27.6542"/>
<polygon fill="#191970" stroke="#191970" points="409.0321,-25.5427 400.232,-19.6427 403.432,-29.7427 409.0321,-25.5427"/>
</g>
<!-- Node12 -->
<g id="node13" class="node">
<title>Node12</title>
<g id="a_node13"><a xlink:href="_move_8hpp.html" target="_top" xlink:title="utils/Move.hpp">
<polygon fill="none" stroke="#000000" points="433,-.5 433,-19.5 521,-19.5 521,-.5 433,-.5"/>
<text text-anchor="middle" x="477" y="-7.5" font-family="Helvetica,sans-Serif" font-size="10.00" fill="#000000">utils/Move.hpp</text>
</a>
</g>
</g>
<!-- Node10&#45;&gt;Node12 -->
<g id="edge14" class="edge">
<title>Node10&#45;&gt;Node12</title>
<path fill="none" stroke="#191970" d="M442.3158,-56.2455C448.2179,-48.3761 456.6742,-37.101 463.7594,-27.6542"/>
<polygon fill="#191970" stroke="#191970" points="466.568,-29.7427 469.768,-19.6427 460.9679,-25.5427 466.568,-29.7427"/>
</g>
<!-- Node13&#45;&gt;Node1 -->
<g id="edge16" class="edge">
<title>Node13&#45;&gt;Node1</title>
<path fill="none" stroke="#191970" d="M177.9646,-168.3733C156.2612,-159.3032 123.5382,-145.6279 99.245,-135.4755"/>
<polygon fill="#191970" stroke="#191970" points="100.3111,-132.1278 89.7348,-131.5011 97.6119,-138.5865 100.3111,-132.1278"/>
</g>
<!-- Node13&#45;&gt;Node7 -->
<g id="edge17" class="edge">
<title>Node13&#45;&gt;Node7</title>
<path fill="none" stroke="#191970" d="M202.0451,-168.2455C202.828,-160.9382 203.9256,-150.6944 204.8888,-141.7046"/>
<polygon fill="#191970" stroke="#191970" points="208.3815,-141.9587 205.9669,-131.6427 201.4214,-141.2129 208.3815,-141.9587"/>
</g>
</g>
</svg>
        <g id="navigator" transform="translate(0 0)" fill="#404254">
                <rect fill="#f2f5e9" fill-opacity="0.5" stroke="#606060" stroke-width=".5" x="0" y="0" width="60" height="60"/>
                <use id="zoomplus" xlink:href="#zoomPlus" x="17" y="9" onmousedown="handleZoom(evt,'in')"/>
                <use id="zoomminus" xlink:href="#zoomMin" x="42" y="9" onmousedown="handleZoom(evt,'out')"/>
                <use id="reset" xlink:href="#resetDef" x="30" y="36" onmousedown="handleReset()"/>
                <g id="arrowUp" xlink:href="#dirArrow" transform="translate(30 24)" onmousedown="handlePan(0,-1)">
                  <use xlink:href="#rim" fill="#404040">
                        <set attributeName="fill" to="#808080" begin="arrowUp.mouseover" end="arrowUp.mouseout"/>
                  </use>
                  <path fill="none" stroke="white" stroke-width="1.5" d="M0,-3.0v7 M-2.5,-0.5L0,-3.0L2.5,-0.5"/>
                </g>
                <g id="arrowRight" xlink:href="#dirArrow" transform="rotate(90) translate(36 -43)" onmousedown="handlePan(1,0)">
                  <use xlink:href="#rim" fill="#404040">
                        <set attributeName="fill" to="#808080" begin="arrowRight.mouseover" end="arrowRight.mouseout"/>
                  </use>
                  <path fill="none" stroke="white" stroke-width="1.5" d="M0,-3.0v7 M-2.5,-0.5L0,-3.0L2.5,-0.5"/>
                </g>
                <g id="arrowDown" xlink:href="#dirArrow" transform="rotate(180) translate(-30 -48)" onmousedown="handlePan(0,1)">
                  <use xlink:href="#rim" fill="#404040">
                        <set attributeName="fill" to="#808080" begin="arrowDown.mouseover" end="arrowDown.mouseout"/>
                  </use>
                  <path fill="none" stroke="white" stroke-width="1.5" d="M0,-3.0v7 M-2.5,-0.5L0,-3.0L2.5,-0.5"/>
                </g>
                <g id="arrowLeft" xlink:href="#dirArrow" transform="rotate(270) translate(-36 17)" onmousedown="handlePan(-1,0)">
                  <use xlink:href="#rim" fill="#404040">
                        <set attributeName="fill" to="#808080" begin="arrowLeft.mouseover" end="arrowLeft.mouseout"/>
                  </use>
                  <path fill="none" stroke="white" stroke-width="1.5" d="M0,-3.0v7 M-2.5,-0.5L0,-3.0L2.5,-0.5"/>
                </g>
        </g>
        <svg viewBox="0 0 15 15" width="100%" height="30px" preserveAspectRatio="xMaxYMin meet">
         <g id="arrow_out" transform="scale(0.3 0.3)">
          <a xlink:href="penguin_2_board_cell_8cpp__incl_org.svg" target="_base">
           <rect id="button" ry="5" rx="5" y="6" x="6" height="38" width="38"
                fill="#f2f5e9" fill-opacity="0.5" stroke="#606060" stroke-width="1.0"/>
           <path id="arrow"
             d="M 11.500037,31.436501 C 11.940474,20.09759 22.043105,11.32322 32.158766,21.979434 L 37.068811,17.246167 C 37.068811,17.246167 37.088388,32 37.088388,32 L 22.160133,31.978069 C 22.160133,31.978069 26.997745,27.140456 26.997745,27.140456 C 18.528582,18.264221 13.291696,25.230495 11.500037,31.436501 z"
             style="fill:#404040;"/>
          </a>
         </g>
        </svg>
</svg>
