<?xml version="1.0" encoding="UTF-8" standalone="no"?>
<!DOCTYPE svg PUBLIC "-//W3C//DTD SVG 1.1//EN"
 "http://www.w3.org/Graphics/SVG/1.1/DTD/svg11.dtd">
<!-- Generated by graphviz version 2.40.1 (20161225.0304)
 -->
<!-- Title: /workspace/src/game_logic/penguin/Board.hpp Pages: 1 -->
<svg width="393pt" height="207pt"
 viewBox="0.00 0.00 392.50 207.00" xmlns="http://www.w3.org/2000/svg" xmlns:xlink="http://www.w3.org/1999/xlink">
<g id="graph0" class="graph" transform="scale(1 1) rotate(0) translate(4 203)">
<title>/workspace/src/game_logic/penguin/Board.hpp</title>
<!-- Node0 -->
<g id="node1" class="node">
<title>Node0</title>
<polygon fill="#bfbfbf" stroke="#000000" points="100.5,-168.5 100.5,-198.5 240.5,-198.5 240.5,-168.5 100.5,-168.5"/>
<text text-anchor="start" x="108.5" y="-186.5" font-family="Helvetica,sans-Serif" font-size="10.00" fill="#000000">/workspace/src/game</text>
<text text-anchor="middle" x="170.5" y="-175.5" font-family="Helvetica,sans-Serif" font-size="10.00" fill="#000000">_logic/penguin/Board.hpp</text>
</g>
<!-- Node1 -->
<g id="node2" class="node">
<title>Node1</title>
<polygon fill="none" stroke="#bfbfbf" points="0,-56.5 0,-75.5 93,-75.5 93,-56.5 0,-56.5"/>
<text text-anchor="middle" x="46.5" y="-63.5" font-family="Helvetica,sans-Serif" font-size="10.00" fill="#000000">unordered_map</text>
</g>
<!-- Node0&#45;&gt;Node1 -->
<g id="edge1" class="edge">
<title>Node0&#45;&gt;Node1</title>
<path fill="none" stroke="#191970" d="M119.3781,-168.3915C100.0876,-160.3792 79.4549,-148.6505 65.5,-132 54.6217,-119.0204 49.9657,-100.1275 47.9761,-85.8781"/>
<polygon fill="#191970" stroke="#191970" points="51.4258,-85.2197 46.8842,-75.6476 44.4654,-85.9626 51.4258,-85.2197"/>
</g>
<!-- Node2 -->
<g id="node3" class="node">
<title>Node2</title>
<polygon fill="none" stroke="#bfbfbf" points="193,-56.5 193,-75.5 240,-75.5 240,-56.5 193,-56.5"/>
<text text-anchor="middle" x="216.5" y="-63.5" font-family="Helvetica,sans-Serif" font-size="10.00" fill="#000000">vector</text>
</g>
<!-- Node0&#45;&gt;Node2 -->
<g id="edge2" class="edge">
<title>Node0&#45;&gt;Node2</title>
<path fill="none" stroke="#191970" d="M177.6861,-168.3207C182.4048,-158.1397 188.5891,-144.3787 193.5,-132 199.5826,-116.6676 205.6907,-99.0086 210.0821,-85.817"/>
<polygon fill="#191970" stroke="#191970" points="213.5322,-86.5289 213.3288,-75.936 206.882,-84.3437 213.5322,-86.5289"/>
</g>
<!-- Node3 -->
<g id="node4" class="node">
<title>Node3</title>
<g id="a_node4"><a xlink:href="_position_8hpp.html" target="_top" xlink:title="../utils/Position.hpp">
<polygon fill="none" stroke="#000000" points="74.5,-112.5 74.5,-131.5 184.5,-131.5 184.5,-112.5 74.5,-112.5"/>
<text text-anchor="middle" x="129.5" y="-119.5" font-family="Helvetica,sans-Serif" font-size="10.00" fill="#000000">../utils/Position.hpp</text>
</a>
</g>
</g>
<!-- Node0&#45;&gt;Node3 -->
<g id="edge3" class="edge">
<title>Node0&#45;&gt;Node3</title>
<path fill="none" stroke="#191970" d="M160.3652,-168.2977C154.7332,-159.8498 147.6849,-149.2773 141.746,-140.369"/>
<polygon fill="#191970" stroke="#191970" points="144.5238,-138.226 136.0646,-131.8469 138.6995,-142.1089 144.5238,-138.226"/>
</g>
<!-- Node5 -->
<g id="node6" class="node">
<title>Node5</title>
<g id="a_node6"><a xlink:href="_abstract_board_8hpp.html" target="_top" xlink:title="../AbstractBoard.hpp">
<polygon fill="none" stroke="#000000" points="240.5,-112.5 240.5,-131.5 356.5,-131.5 356.5,-112.5 240.5,-112.5"/>
<text text-anchor="middle" x="298.5" y="-119.5" font-family="Helvetica,sans-Serif" font-size="10.00" fill="#000000">../AbstractBoard.hpp</text>
</a>
</g>
</g>
<!-- Node0&#45;&gt;Node5 -->
<g id="edge6" class="edge">
<title>Node0&#45;&gt;Node5</title>
<path fill="none" stroke="#191970" d="M201.8123,-168.4554C222.5138,-158.509 249.4523,-145.5659 269.6353,-135.8686"/>
<polygon fill="#191970" stroke="#191970" points="271.1667,-139.0159 278.6645,-131.5303 268.1352,-132.7064 271.1667,-139.0159"/>
</g>
<!-- Node3&#45;&gt;Node1 -->
<g id="edge5" class="edge">
<title>Node3&#45;&gt;Node1</title>
<path fill="none" stroke="#191970" d="M115.0425,-112.2455C102.4268,-103.7337 83.9056,-91.2375 69.2955,-81.3801"/>
<polygon fill="#191970" stroke="#191970" points="71.0391,-78.3343 60.7918,-75.6427 67.1239,-84.1371 71.0391,-78.3343"/>
</g>
<!-- Node4 -->
<g id="node5" class="node">
<title>Node4</title>
<polygon fill="none" stroke="#bfbfbf" points="111,-56.5 111,-75.5 164,-75.5 164,-56.5 111,-56.5"/>
<text text-anchor="middle" x="137.5" y="-63.5" font-family="Helvetica,sans-Serif" font-size="10.00" fill="#000000">stdlib.h</text>
</g>
<!-- Node3&#45;&gt;Node4 -->
<g id="edge4" class="edge">
<title>Node3&#45;&gt;Node4</title>
<path fill="none" stroke="#191970" d="M130.8935,-112.2455C131.9374,-104.9382 133.4008,-94.6944 134.6851,-85.7046"/>
<polygon fill="#191970" stroke="#191970" points="138.173,-86.0372 136.1225,-75.6427 131.2434,-85.0472 138.173,-86.0372"/>
</g>
<!-- Node5&#45;&gt;Node2 -->
<g id="edge7" class="edge">
<title>Node5&#45;&gt;Node2</title>
<path fill="none" stroke="#191970" d="M284.2167,-112.2455C271.753,-103.7337 253.4549,-91.2375 239.0208,-81.3801"/>
<polygon fill="#191970" stroke="#191970" points="240.8515,-78.392 230.6196,-75.6427 236.9038,-84.1726 240.8515,-78.392"/>
</g>
<!-- Node6 -->
<g id="node7" class="node">
<title>Node6</title>
<g id="a_node7"><a xlink:href="_history_8hpp.html" target="_top" xlink:title="History.hpp">
<polygon fill="none" stroke="#000000" points="263,-56.5 263,-75.5 334,-75.5 334,-56.5 263,-56.5"/>
<text text-anchor="middle" x="298.5" y="-63.5" font-family="Helvetica,sans-Serif" font-size="10.00" fill="#000000">History.hpp</text>
</a>
</g>
</g>
<!-- Node5&#45;&gt;Node6 -->
<g id="edge8" class="edge">
<title>Node5&#45;&gt;Node6</title>
<path fill="none" stroke="#191970" d="M298.5,-112.2455C298.5,-104.9382 298.5,-94.6944 298.5,-85.7046"/>
<polygon fill="#191970" stroke="#191970" points="302.0001,-85.6426 298.5,-75.6427 295.0001,-85.6427 302.0001,-85.6426"/>
</g>
<!-- Node7 -->
<g id="node8" class="node">
<title>Node7</title>
<polygon fill="none" stroke="#bfbfbf" points="235,-.5 235,-19.5 278,-19.5 278,-.5 235,-.5"/>
<text text-anchor="middle" x="256.5" y="-7.5" font-family="Helvetica,sans-Serif" font-size="10.00" fill="#000000">stack</text>
</g>
<!-- Node6&#45;&gt;Node7 -->
<g id="edge9" class="edge">
<title>Node6&#45;&gt;Node7</title>
<path fill="none" stroke="#191970" d="M291.1842,-56.2455C285.2821,-48.3761 276.8258,-37.101 269.7406,-27.6542"/>
<polygon fill="#191970" stroke="#191970" points="272.5321,-25.5427 263.732,-19.6427 266.932,-29.7427 272.5321,-25.5427"/>
</g>
<!-- Node8 -->
<g id="node9" class="node">
<title>Node8</title>
<g id="a_node9"><a xlink:href="_move_8hpp.html" target="_top" xlink:title="utils/Move.hpp">
<polygon fill="none" stroke="#000000" points="296.5,-.5 296.5,-19.5 384.5,-19.5 384.5,-.5 296.5,-.5"/>
<text text-anchor="middle" x="340.5" y="-7.5" font-family="Helvetica,sans-Serif" font-size="10.00" fill="#000000">utils/Move.hpp</text>
</a>
</g>
</g>
<!-- Node6&#45;&gt;Node8 -->
<g id="edge10" class="edge">
<title>Node6&#45;&gt;Node8</title>
<path fill="none" stroke="#191970" d="M305.8158,-56.2455C311.7179,-48.3761 320.1742,-37.101 327.2594,-27.6542"/>
<polygon fill="#191970" stroke="#191970" points="330.068,-29.7427 333.268,-19.6427 324.4679,-25.5427 330.068,-29.7427"/>
</g>
</g>
</svg>
