<?xml version="1.0" encoding="UTF-8" standalone="no"?>
<!DOCTYPE svg PUBLIC "-//W3C//DTD SVG 1.1//EN"
 "http://www.w3.org/Graphics/SVG/1.1/DTD/svg11.dtd">
<!-- Generated by graphviz version 2.40.1 (20161225.0304)
 -->
<!-- Title: /workspace/src/game_logic/penguin/ConsoleGame.cpp Pages: 1 -->
<!--zoomable 330 -->
<svg id="main" version="1.1" xmlns="http://www.w3.org/2000/svg" xmlns:xlink="http://www.w3.org/1999/xlink" xml:space="preserve" onload="init(evt)">
<style type="text/css"><![CDATA[
.edge:hover path { stroke: red; }
.edge:hover polygon { stroke: red; fill: red; }
]]></style>
<script type="text/javascript"><![CDATA[
var edges = document.getElementsByTagName('g');
if (edges && edges.length) {
  for (var i=0;i<edges.length;i++) {
    if (edges[i].id.substr(0,4)=='edge') {
      edges[i].setAttribute('class','edge');
    }
  }
}
]]></script>
        <defs>
                <circle id="rim" cx="0" cy="0" r="7"/>
                <circle id="rim2" cx="0" cy="0" r="3.5"/>
                <g id="zoomPlus">
                        <use xlink:href="#rim" fill="#404040">
                                <set attributeName="fill" to="#808080" begin="zoomplus.mouseover" end="zoomplus.mouseout"/>
                        </use>
                        <path d="M-4,0h8M0,-4v8" fill="none" stroke="white" stroke-width="1.5" pointer-events="none"/>
                </g>
                <g id="zoomMin">
                        <use xlink:href="#rim" fill="#404040">
                                <set attributeName="fill" to="#808080" begin="zoomminus.mouseover" end="zoomminus.mouseout"/>
                        </use>
                        <path d="M-4,0h8" fill="none" stroke="white" stroke-width="1.5" pointer-events="none"/>
                </g>
                <g id="dirArrow">
                        <path fill="none" stroke="white" stroke-width="1.5" d="M0,-3.0v7 M-2.5,-0.5L0,-3.0L2.5,-0.5"/>
                </g>
               <g id="resetDef">
                       <use xlink:href="#rim2" fill="#404040">
                               <set attributeName="fill" to="#808080" begin="reset.mouseover" end="reset.mouseout"/>
                       </use>
               </g>
        </defs>

<script type="text/javascript">
var viewWidth = 1368;
var viewHeight = 330;
var sectionId = 'dynsection-0';
</script>
<script xlink:href="svgpan.js"/>
<svg id="graph" class="graph">
<g id="viewport">
<title>/workspace/src/game_logic/penguin/ConsoleGame.cpp</title>
<!-- Node0 -->
<g id="node1" class="node">
<title>Node0</title>
<polygon fill="#bfbfbf" stroke="#000000" points="753.5,-291.5 753.5,-321.5 932.5,-321.5 932.5,-291.5 753.5,-291.5"/>
<text text-anchor="start" x="761.5" y="-309.5" font-family="Helvetica,sans-Serif" font-size="10.00" fill="#000000">/workspace/src/game</text>
<text text-anchor="middle" x="843" y="-298.5" font-family="Helvetica,sans-Serif" font-size="10.00" fill="#000000">_logic/penguin/ConsoleGame.cpp</text>
</g>
<!-- Node1 -->
<g id="node2" class="node">
<title>Node1</title>
<polygon fill="none" stroke="#bfbfbf" points="380,-235.5 380,-254.5 440,-254.5 440,-235.5 380,-235.5"/>
<text text-anchor="middle" x="410" y="-242.5" font-family="Helvetica,sans-Serif" font-size="10.00" fill="#000000">iostream</text>
</g>
<!-- Node0&#45;&gt;Node1 -->
<g id="edge1" class="edge">
<title>Node0&#45;&gt;Node1</title>
<path fill="none" stroke="#191970" d="M753.3116,-297.9031C675.4788,-289.7232 559.6629,-275.828 450.0579,-255.0186"/>
<polygon fill="#191970" stroke="#191970" points="450.6329,-251.5652 440.1521,-253.1156 449.3122,-258.4394 450.6329,-251.5652"/>
</g>
<!-- Node2 -->
<g id="node3" class="node">
<title>Node2</title>
<g id="a_node3"><a xlink:href="_m_c_t_s_player_8hpp.html" target="_top" xlink:title="../../mcts/MCTSPlayer.hpp">
<polygon fill="none" stroke="#000000" points="458,-235.5 458,-254.5 598,-254.5 598,-235.5 458,-235.5"/>
<text text-anchor="middle" x="528" y="-242.5" font-family="Helvetica,sans-Serif" font-size="10.00" fill="#000000">../../mcts/MCTSPlayer.hpp</text>
</a>
</g>
</g>
<!-- Node0&#45;&gt;Node2 -->
<g id="edge2" class="edge">
<title>Node0&#45;&gt;Node2</title>
<path fill="none" stroke="#191970" d="M765.9423,-291.4554C710.7328,-280.6764 637.4967,-266.3779 586.9291,-256.5052"/>
<polygon fill="#191970" stroke="#191970" points="587.2992,-253.0115 576.8138,-254.5303 585.9578,-259.8817 587.2992,-253.0115"/>
</g>
<!-- Node4 -->
<g id="node5" class="node">
<title>Node4</title>
<g id="a_node5"><a xlink:href="_abstract_game_8hpp.html" target="_top" xlink:title="../game_logic/AbstractGame.hpp">
<polygon fill="none" stroke="#000000" points="607,-118 607,-137 783,-137 783,-118 607,-118"/>
<text text-anchor="middle" x="695" y="-125" font-family="Helvetica,sans-Serif" font-size="10.00" fill="#000000">../game_logic/AbstractGame.hpp</text>
</a>
</g>
</g>
<!-- Node0&#45;&gt;Node4 -->
<g id="edge16" class="edge">
<title>Node0&#45;&gt;Node4</title>
<path fill="none" stroke="#191970" d="M789.1292,-291.3813C745.4371,-275.9568 686.7158,-247.292 659,-199 648.6102,-180.8968 662.8017,-159.4258 676.3083,-144.7694"/>
<polygon fill="#191970" stroke="#191970" points="679.0526,-146.9711 683.581,-137.3927 674.0679,-142.0565 679.0526,-146.9711"/>
</g>
<!-- Node12 -->
<g id="node13" class="node">
<title>Node12</title>
<g id="a_node13"><a xlink:href="penguin_2_board_8hpp.html" target="_top" xlink:title="Board.hpp">
<polygon fill="none" stroke="#000000" points="914,-179.5 914,-198.5 980,-198.5 980,-179.5 914,-179.5"/>
<text text-anchor="middle" x="947" y="-186.5" font-family="Helvetica,sans-Serif" font-size="10.00" fill="#000000">Board.hpp</text>
</a>
</g>
</g>
<!-- Node0&#45;&gt;Node12 -->
<g id="edge17" class="edge">
<title>Node0&#45;&gt;Node12</title>
<path fill="none" stroke="#191970" d="M856.5962,-291.1389C876.015,-269.1994 911.5778,-229.0203 931.8289,-206.1404"/>
<polygon fill="#191970" stroke="#191970" points="934.5319,-208.3674 938.5388,-198.5595 929.2902,-203.7279 934.5319,-208.3674"/>
</g>
<!-- Node19 -->
<g id="node20" class="node">
<title>Node19</title>
<g id="a_node20"><a xlink:href="_penguin_game_8hpp.html" target="_top" xlink:title="PenguinGame.hpp">
<polygon fill="none" stroke="#000000" points="790,-179.5 790,-198.5 896,-198.5 896,-179.5 790,-179.5"/>
<text text-anchor="middle" x="843" y="-186.5" font-family="Helvetica,sans-Serif" font-size="10.00" fill="#000000">PenguinGame.hpp</text>
</a>
</g>
</g>
<!-- Node0&#45;&gt;Node19 -->
<g id="edge28" class="edge">
<title>Node0&#45;&gt;Node19</title>
<path fill="none" stroke="#191970" d="M843,-291.1389C843,-269.9692 843,-231.8174 843,-208.6112"/>
<polygon fill="#191970" stroke="#191970" points="846.5001,-208.5594 843,-198.5595 839.5001,-208.5595 846.5001,-208.5594"/>
</g>
<!-- Node21 -->
<g id="node22" class="node">
<title>Node21</title>
<g id="a_node22"><a xlink:href="_human_player_8hpp.html" target="_top" xlink:title="HumanPlayer.hpp">
<polygon fill="none" stroke="#000000" points="668.5,-179.5 668.5,-198.5 771.5,-198.5 771.5,-179.5 668.5,-179.5"/>
<text text-anchor="middle" x="720" y="-186.5" font-family="Helvetica,sans-Serif" font-size="10.00" fill="#000000">HumanPlayer.hpp</text>
</a>
</g>
</g>
<!-- Node0&#45;&gt;Node21 -->
<g id="edge31" class="edge">
<title>Node0&#45;&gt;Node21</title>
<path fill="none" stroke="#191970" d="M827.1717,-291.3795C804.0874,-269.3274 761.3354,-228.4871 737.396,-205.6181"/>
<polygon fill="#191970" stroke="#191970" points="739.7028,-202.9814 730.0542,-198.6046 734.8674,-208.043 739.7028,-202.9814"/>
</g>
<!-- Node22 -->
<g id="node23" class="node">
<title>Node22</title>
<g id="a_node23"><a xlink:href="_penguin_pawn_8hpp.html" target="_top" xlink:title="PenguinPawn.hpp">
<polygon fill="none" stroke="#000000" points="1214,-235.5 1214,-254.5 1316,-254.5 1316,-235.5 1214,-235.5"/>
<text text-anchor="middle" x="1265" y="-242.5" font-family="Helvetica,sans-Serif" font-size="10.00" fill="#000000">PenguinPawn.hpp</text>
</a>
</g>
</g>
<!-- Node0&#45;&gt;Node22 -->
<g id="edge34" class="edge">
<title>Node0&#45;&gt;Node22</title>
<path fill="none" stroke="#191970" d="M932.7535,-293.4198C1014.2917,-281.5369 1132.3944,-264.3252 1203.6278,-253.9441"/>
<polygon fill="#191970" stroke="#191970" points="1204.3969,-257.369 1213.7876,-252.4634 1203.3874,-250.4422 1204.3969,-257.369"/>
</g>
<!-- Node24 -->
<g id="node25" class="node">
<title>Node24</title>
<g id="a_node25"><a xlink:href="_print_hex_8hpp.html" target="_top" xlink:title="PrintHex.hpp">
<polygon fill="none" stroke="#000000" points="1148,-179.5 1148,-198.5 1228,-198.5 1228,-179.5 1148,-179.5"/>
<text text-anchor="middle" x="1188" y="-186.5" font-family="Helvetica,sans-Serif" font-size="10.00" fill="#000000">PrintHex.hpp</text>
</a>
</g>
</g>
<!-- Node0&#45;&gt;Node24 -->
<g id="edge36" class="edge">
<title>Node0&#45;&gt;Node24</title>
<path fill="none" stroke="#191970" d="M932.7707,-296.5241C981.0457,-289.0378 1040.8,-276.2896 1091,-255 1120.5962,-242.4484 1150.5682,-220.2872 1169.2034,-205.1362"/>
<polygon fill="#191970" stroke="#191970" points="1171.4654,-207.8073 1176.9257,-198.7279 1166.9952,-202.4205 1171.4654,-207.8073"/>
</g>
<!-- Node25 -->
<g id="node26" class="node">
<title>Node25</title>
<g id="a_node26"><a xlink:href="penguin_2_console_game_8hpp.html" target="_top" xlink:title="ConsoleGame.hpp">
<polygon fill="none" stroke="#000000" points="976,-235.5 976,-254.5 1082,-254.5 1082,-235.5 976,-235.5"/>
<text text-anchor="middle" x="1029" y="-242.5" font-family="Helvetica,sans-Serif" font-size="10.00" fill="#000000">ConsoleGame.hpp</text>
</a>
</g>
</g>
<!-- Node0&#45;&gt;Node25 -->
<g id="edge38" class="edge">
<title>Node0&#45;&gt;Node25</title>
<path fill="none" stroke="#191970" d="M888.5007,-291.4554C919.8075,-281.104 960.9309,-267.5067 990.5889,-257.7004"/>
<polygon fill="#191970" stroke="#191970" points="991.7809,-260.9927 1000.1766,-254.5303 989.5834,-254.3466 991.7809,-260.9927"/>
</g>
<!-- Node3 -->
<g id="node4" class="node">
<title>Node3</title>
<g id="a_node4"><a xlink:href="_abstract_board_cell_8hpp.html" target="_top" xlink:title="../game_logic/AbstractBoard\lCell.hpp">
<polygon fill="none" stroke="#000000" points="0,-112.5 0,-142.5 154,-142.5 154,-112.5 0,-112.5"/>
<text text-anchor="start" x="8" y="-130.5" font-family="Helvetica,sans-Serif" font-size="10.00" fill="#000000">../game_logic/AbstractBoard</text>
<text text-anchor="middle" x="77" y="-119.5" font-family="Helvetica,sans-Serif" font-size="10.00" fill="#000000">Cell.hpp</text>
</a>
</g>
</g>
<!-- Node2&#45;&gt;Node3 -->
<g id="edge3" class="edge">
<title>Node2&#45;&gt;Node3</title>
<path fill="none" stroke="#191970" d="M474.0308,-235.4404C428.6493,-227.0269 362.2069,-213.8302 305,-199 244.3933,-183.2884 176.0016,-161.251 130.0696,-145.8075"/>
<polygon fill="#191970" stroke="#191970" points="130.9276,-142.4031 120.3334,-142.5195 128.6879,-149.0351 130.9276,-142.4031"/>
</g>
<!-- Node2&#45;&gt;Node4 -->
<g id="edge4" class="edge">
<title>Node2&#45;&gt;Node4</title>
<path fill="none" stroke="#191970" d="M541.6663,-235.3845C570.413,-215.1585 637.375,-168.0445 672.5318,-143.3085"/>
<polygon fill="#191970" stroke="#191970" points="674.9804,-145.8652 681.1449,-137.2484 670.9523,-140.1403 674.9804,-145.8652"/>
</g>
<!-- Node7 -->
<g id="node8" class="node">
<title>Node7</title>
<g id="a_node8"><a xlink:href="_abstract_player_8hpp.html" target="_top" xlink:title="../game_logic/AbstractPlayer.hpp">
<polygon fill="none" stroke="#000000" points="413,-118 413,-137 589,-137 589,-118 413,-118"/>
<text text-anchor="middle" x="501" y="-125" font-family="Helvetica,sans-Serif" font-size="10.00" fill="#000000">../game_logic/AbstractPlayer.hpp</text>
</a>
</g>
</g>
<!-- Node2&#45;&gt;Node7 -->
<g id="edge7" class="edge">
<title>Node2&#45;&gt;Node7</title>
<path fill="none" stroke="#191970" d="M525.7905,-235.3845C521.3801,-216.1913 511.4062,-172.786 505.542,-147.2663"/>
<polygon fill="#191970" stroke="#191970" points="508.8907,-146.2105 503.2401,-137.2484 502.0685,-147.7782 508.8907,-146.2105"/>
</g>
<!-- Node8 -->
<g id="node9" class="node">
<title>Node8</title>
<g id="a_node9"><a xlink:href="_tree_8hpp.html" target="_top" xlink:title="Tree.hpp">
<polygon fill="none" stroke="#000000" points="314,-179.5 314,-198.5 372,-198.5 372,-179.5 314,-179.5"/>
<text text-anchor="middle" x="343" y="-186.5" font-family="Helvetica,sans-Serif" font-size="10.00" fill="#000000">Tree.hpp</text>
</a>
</g>
</g>
<!-- Node2&#45;&gt;Node8 -->
<g id="edge8" class="edge">
<title>Node2&#45;&gt;Node8</title>
<path fill="none" stroke="#191970" d="M496.1974,-235.3733C464.5101,-225.7814 415.8087,-211.0394 381.8504,-200.7601"/>
<polygon fill="#191970" stroke="#191970" points="382.8407,-197.4031 372.2556,-197.8557 380.8126,-204.1029 382.8407,-197.4031"/>
</g>
<!-- Node5 -->
<g id="node6" class="node">
<title>Node5</title>
<polygon fill="none" stroke="#bfbfbf" points="811.5,-56.5 811.5,-75.5 858.5,-75.5 858.5,-56.5 811.5,-56.5"/>
<text text-anchor="middle" x="835" y="-63.5" font-family="Helvetica,sans-Serif" font-size="10.00" fill="#000000">vector</text>
</g>
<!-- Node4&#45;&gt;Node5 -->
<g id="edge5" class="edge">
<title>Node4&#45;&gt;Node5</title>
<path fill="none" stroke="#191970" d="M716.875,-117.8906C740.2996,-107.6005 777.6596,-91.1888 804.0841,-79.5809"/>
<polygon fill="#191970" stroke="#191970" points="805.5307,-82.7683 813.2786,-75.5419 802.7154,-76.3594 805.5307,-82.7683"/>
</g>
<!-- Node6 -->
<g id="node7" class="node">
<title>Node6</title>
<g id="a_node7"><a xlink:href="_move_8hpp.html" target="_top" xlink:title="utils/Move.hpp">
<polygon fill="none" stroke="#000000" points="651,-.5 651,-19.5 739,-19.5 739,-.5 651,-.5"/>
<text text-anchor="middle" x="695" y="-7.5" font-family="Helvetica,sans-Serif" font-size="10.00" fill="#000000">utils/Move.hpp</text>
</a>
</g>
</g>
<!-- Node4&#45;&gt;Node6 -->
<g id="edge6" class="edge">
<title>Node4&#45;&gt;Node6</title>
<path fill="none" stroke="#191970" d="M695,-117.8845C695,-98.6913 695,-55.286 695,-29.7663"/>
<polygon fill="#191970" stroke="#191970" points="698.5001,-29.7483 695,-19.7484 691.5001,-29.7484 698.5001,-29.7483"/>
</g>
<!-- Node8&#45;&gt;Node3 -->
<g id="edge14" class="edge">
<title>Node8&#45;&gt;Node3</title>
<path fill="none" stroke="#191970" d="M313.7724,-182.2425C275.085,-173.2979 205.4983,-157.2092 151.7393,-144.7799"/>
<polygon fill="#191970" stroke="#191970" points="152.4279,-141.3469 141.8965,-142.5043 150.851,-148.167 152.4279,-141.3469"/>
</g>
<!-- Node8&#45;&gt;Node4 -->
<g id="edge13" class="edge">
<title>Node8&#45;&gt;Node4</title>
<path fill="none" stroke="#191970" d="M372.1051,-183.9149C428.4609,-174.0686 553.6852,-152.1899 630.5713,-138.7567"/>
<polygon fill="#191970" stroke="#191970" points="631.3761,-142.1692 640.6245,-137.0003 630.1713,-135.2737 631.3761,-142.1692"/>
</g>
<!-- Node8&#45;&gt;Node6 -->
<g id="edge15" class="edge">
<title>Node8&#45;&gt;Node6</title>
<path fill="none" stroke="#191970" d="M338.3404,-179.3455C331.4649,-163.5423 320.9502,-131.9214 336,-112 372.7608,-63.3397 549.575,-31.0896 640.594,-17.4271"/>
<polygon fill="#191970" stroke="#191970" points="641.3413,-20.8547 650.7222,-15.9304 640.318,-13.9299 641.3413,-20.8547"/>
</g>
<!-- Node8&#45;&gt;Node7 -->
<g id="edge12" class="edge">
<title>Node8&#45;&gt;Node7</title>
<path fill="none" stroke="#191970" d="M367.6875,-179.3906C394.3557,-169.0103 437.0282,-152.4004 466.8911,-140.7766"/>
<polygon fill="#191970" stroke="#191970" points="468.4365,-143.9309 476.4859,-137.0419 465.8973,-137.4076 468.4365,-143.9309"/>
</g>
<!-- Node9 -->
<g id="node10" class="node">
<title>Node9</title>
<polygon fill="none" stroke="#bfbfbf" points="345,-118 345,-137 395,-137 395,-118 345,-118"/>
<text text-anchor="middle" x="370" y="-125" font-family="Helvetica,sans-Serif" font-size="10.00" fill="#000000">chrono</text>
</g>
<!-- Node8&#45;&gt;Node9 -->
<g id="edge9" class="edge">
<title>Node8&#45;&gt;Node9</title>
<path fill="none" stroke="#191970" d="M347.2188,-179.3906C351.0796,-170.5965 356.9034,-157.3312 361.6961,-146.4145"/>
<polygon fill="#191970" stroke="#191970" points="364.9066,-147.8083 365.7218,-137.2449 358.4971,-144.9943 364.9066,-147.8083"/>
</g>
<!-- Node10 -->
<g id="node11" class="node">
<title>Node10</title>
<polygon fill="none" stroke="#bfbfbf" points="172.5,-118 172.5,-137 223.5,-137 223.5,-118 172.5,-118"/>
<text text-anchor="middle" x="198" y="-125" font-family="Helvetica,sans-Serif" font-size="10.00" fill="#000000">math.h</text>
</g>
<!-- Node8&#45;&gt;Node10 -->
<g id="edge10" class="edge">
<title>Node8&#45;&gt;Node10</title>
<path fill="none" stroke="#191970" d="M319.0805,-179.3685C296.5316,-170.2225 261.8408,-155.9805 232,-143 230.7954,-142.476 229.5686,-141.9379 228.3307,-141.3912"/>
<polygon fill="#191970" stroke="#191970" points="229.3634,-138.0188 218.8064,-137.124 226.5012,-144.4069 229.3634,-138.0188"/>
</g>
<!-- Node11 -->
<g id="node12" class="node">
<title>Node11</title>
<polygon fill="none" stroke="#bfbfbf" points="241.5,-118 241.5,-137 288.5,-137 288.5,-118 241.5,-118"/>
<text text-anchor="middle" x="265" y="-125" font-family="Helvetica,sans-Serif" font-size="10.00" fill="#000000">queue</text>
</g>
<!-- Node8&#45;&gt;Node11 -->
<g id="edge11" class="edge">
<title>Node8&#45;&gt;Node11</title>
<path fill="none" stroke="#191970" d="M330.8125,-179.3906C318.563,-169.7324 299.4737,-154.6812 285.0023,-143.271"/>
<polygon fill="#191970" stroke="#191970" points="287.1217,-140.485 277.1019,-137.0419 282.7876,-145.9819 287.1217,-140.485"/>
</g>
<!-- Node12&#45;&gt;Node5 -->
<g id="edge19" class="edge">
<title>Node12&#45;&gt;Node5</title>
<path fill="none" stroke="#191970" d="M941.3165,-179.3726C932.0777,-164.1493 912.7371,-133.9928 892,-112 881.5369,-100.9033 868.3665,-90.1075 857.3221,-81.7662"/>
<polygon fill="#191970" stroke="#191970" points="859.1399,-78.7581 849.013,-75.6442 854.9876,-84.3937 859.1399,-78.7581"/>
</g>
<!-- Node13 -->
<g id="node14" class="node">
<title>Node13</title>
<polygon fill="none" stroke="#bfbfbf" points="1036.5,-56.5 1036.5,-75.5 1129.5,-75.5 1129.5,-56.5 1036.5,-56.5"/>
<text text-anchor="middle" x="1083" y="-63.5" font-family="Helvetica,sans-Serif" font-size="10.00" fill="#000000">unordered_map</text>
</g>
<!-- Node12&#45;&gt;Node13 -->
<g id="edge18" class="edge">
<title>Node12&#45;&gt;Node13</title>
<path fill="none" stroke="#191970" d="M980.0287,-179.7287C1010.4714,-170.547 1052.6068,-156.0148 1064,-143 1077.7797,-127.259 1081.8955,-103.0796 1082.9646,-86.023"/>
<polygon fill="#191970" stroke="#191970" points="1086.4782,-85.6505 1083.2994,-75.5438 1079.4818,-85.4269 1086.4782,-85.6505"/>
</g>
<!-- Node14 -->
<g id="node15" class="node">
<title>Node14</title>
<g id="a_node15"><a xlink:href="_position_8hpp.html" target="_top" xlink:title="../utils/Position.hpp">
<polygon fill="none" stroke="#000000" points="1115,-118 1115,-137 1225,-137 1225,-118 1115,-118"/>
<text text-anchor="middle" x="1170" y="-125" font-family="Helvetica,sans-Serif" font-size="10.00" fill="#000000">../utils/Position.hpp</text>
</a>
</g>
</g>
<!-- Node12&#45;&gt;Node14 -->
<g id="edge20" class="edge">
<title>Node12&#45;&gt;Node14</title>
<path fill="none" stroke="#191970" d="M980.3854,-179.7928C1018.9678,-169.1524 1082.6276,-151.596 1125.4181,-139.795"/>
<polygon fill="#191970" stroke="#191970" points="1126.5739,-143.107 1135.2834,-137.0743 1124.7128,-136.3589 1126.5739,-143.107"/>
</g>
<!-- Node16 -->
<g id="node17" class="node">
<title>Node16</title>
<g id="a_node17"><a xlink:href="_abstract_board_8hpp.html" target="_top" xlink:title="../AbstractBoard.hpp">
<polygon fill="none" stroke="#000000" points="939,-118 939,-137 1055,-137 1055,-118 939,-118"/>
<text text-anchor="middle" x="997" y="-125" font-family="Helvetica,sans-Serif" font-size="10.00" fill="#000000">../AbstractBoard.hpp</text>
</a>
</g>
</g>
<!-- Node12&#45;&gt;Node16 -->
<g id="edge23" class="edge">
<title>Node12&#45;&gt;Node16</title>
<path fill="none" stroke="#191970" d="M954.8125,-179.3906C962.254,-170.2376 973.6334,-156.2409 982.6992,-145.09"/>
<polygon fill="#191970" stroke="#191970" points="985.4847,-147.212 989.0774,-137.2449 980.0533,-142.7962 985.4847,-147.212"/>
</g>
<!-- Node14&#45;&gt;Node13 -->
<g id="edge22" class="edge">
<title>Node14&#45;&gt;Node13</title>
<path fill="none" stroke="#191970" d="M1156.4063,-117.8906C1142.6157,-108.1421 1121.0528,-92.8994 1104.859,-81.4521"/>
<polygon fill="#191970" stroke="#191970" points="1106.6844,-78.4563 1096.4983,-75.5419 1102.6437,-84.1723 1106.6844,-78.4563"/>
</g>
<!-- Node15 -->
<g id="node16" class="node">
<title>Node15</title>
<polygon fill="none" stroke="#bfbfbf" points="1147.5,-56.5 1147.5,-75.5 1200.5,-75.5 1200.5,-56.5 1147.5,-56.5"/>
<text text-anchor="middle" x="1174" y="-63.5" font-family="Helvetica,sans-Serif" font-size="10.00" fill="#000000">stdlib.h</text>
</g>
<!-- Node14&#45;&gt;Node15 -->
<g id="edge21" class="edge">
<title>Node14&#45;&gt;Node15</title>
<path fill="none" stroke="#191970" d="M1170.625,-117.8906C1171.1795,-109.3657 1172.0072,-96.6392 1172.7042,-85.9235"/>
<polygon fill="#191970" stroke="#191970" points="1176.2097,-85.951 1173.3662,-75.7449 1169.2244,-85.4966 1176.2097,-85.951"/>
</g>
<!-- Node16&#45;&gt;Node5 -->
<g id="edge24" class="edge">
<title>Node16&#45;&gt;Node5</title>
<path fill="none" stroke="#191970" d="M971.6875,-117.8906C943.7435,-107.2822 898.6611,-90.1676 867.9738,-78.5178"/>
<polygon fill="#191970" stroke="#191970" points="869.1474,-75.2197 858.5562,-74.9426 866.663,-81.764 869.1474,-75.2197"/>
</g>
<!-- Node17 -->
<g id="node18" class="node">
<title>Node17</title>
<g id="a_node18"><a xlink:href="_history_8hpp.html" target="_top" xlink:title="History.hpp">
<polygon fill="none" stroke="#000000" points="923.5,-56.5 923.5,-75.5 994.5,-75.5 994.5,-56.5 923.5,-56.5"/>
<text text-anchor="middle" x="959" y="-63.5" font-family="Helvetica,sans-Serif" font-size="10.00" fill="#000000">History.hpp</text>
</a>
</g>
</g>
<!-- Node16&#45;&gt;Node17 -->
<g id="edge25" class="edge">
<title>Node16&#45;&gt;Node17</title>
<path fill="none" stroke="#191970" d="M991.0625,-117.8906C985.5733,-109.0068 977.2647,-95.5601 970.481,-84.5811"/>
<polygon fill="#191970" stroke="#191970" points="973.2551,-82.4122 965.0212,-75.7449 967.3002,-86.0917 973.2551,-82.4122"/>
</g>
<!-- Node17&#45;&gt;Node6 -->
<g id="edge27" class="edge">
<title>Node17&#45;&gt;Node6</title>
<path fill="none" stroke="#191970" d="M923.3958,-58.4476C878.6657,-48.9594 801.4645,-32.5834 749.3382,-21.5263"/>
<polygon fill="#191970" stroke="#191970" points="749.773,-18.0407 739.2644,-19.3894 748.3204,-24.8884 749.773,-18.0407"/>
</g>
<!-- Node18 -->
<g id="node19" class="node">
<title>Node18</title>
<polygon fill="none" stroke="#bfbfbf" points="937.5,-.5 937.5,-19.5 980.5,-19.5 980.5,-.5 937.5,-.5"/>
<text text-anchor="middle" x="959" y="-7.5" font-family="Helvetica,sans-Serif" font-size="10.00" fill="#000000">stack</text>
</g>
<!-- Node17&#45;&gt;Node18 -->
<g id="edge26" class="edge">
<title>Node17&#45;&gt;Node18</title>
<path fill="none" stroke="#191970" d="M959,-56.2455C959,-48.9382 959,-38.6944 959,-29.7046"/>
<polygon fill="#191970" stroke="#191970" points="962.5001,-29.6426 959,-19.6427 955.5001,-29.6427 962.5001,-29.6426"/>
</g>
<!-- Node19&#45;&gt;Node4 -->
<g id="edge30" class="edge">
<title>Node19&#45;&gt;Node4</title>
<path fill="none" stroke="#191970" d="M819.875,-179.3906C795.0033,-169.0554 755.2702,-152.5447 727.3156,-140.9284"/>
<polygon fill="#191970" stroke="#191970" points="728.5402,-137.6472 717.9626,-137.0419 725.854,-144.1113 728.5402,-137.6472"/>
</g>
<!-- Node20 -->
<g id="node21" class="node">
<title>Node20</title>
<polygon fill="none" stroke="#bfbfbf" points="839,-118 839,-137 883,-137 883,-118 839,-118"/>
<text text-anchor="middle" x="861" y="-125" font-family="Helvetica,sans-Serif" font-size="10.00" fill="#000000">limits</text>
</g>
<!-- Node19&#45;&gt;Node20 -->
<g id="edge29" class="edge">
<title>Node19&#45;&gt;Node20</title>
<path fill="none" stroke="#191970" d="M845.8125,-179.3906C848.3339,-170.776 852.111,-157.8708 855.2676,-147.0858"/>
<polygon fill="#191970" stroke="#191970" points="858.6979,-147.8254 858.1478,-137.2449 851.9797,-145.8591 858.6979,-147.8254"/>
</g>
<!-- Node21&#45;&gt;Node5 -->
<g id="edge32" class="edge">
<title>Node21&#45;&gt;Node5</title>
<path fill="none" stroke="#191970" d="M740.5502,-179.3832C756.1087,-171.331 777.2483,-158.6523 792,-143 808.0015,-126.0216 820.1884,-101.9752 827.4327,-85.2898"/>
<polygon fill="#191970" stroke="#191970" points="830.6954,-86.559 831.2945,-75.9811 824.2297,-83.8766 830.6954,-86.559"/>
</g>
<!-- Node21&#45;&gt;Node7 -->
<g id="edge33" class="edge">
<title>Node21&#45;&gt;Node7</title>
<path fill="none" stroke="#191970" d="M685.7813,-179.3906C647.7725,-168.7169 586.3089,-151.4566 544.8116,-139.8033"/>
<polygon fill="#191970" stroke="#191970" points="545.5523,-136.3759 534.9785,-137.0419 543.6598,-143.1153 545.5523,-136.3759"/>
</g>
<!-- Node23 -->
<g id="node24" class="node">
<title>Node23</title>
<g id="a_node24"><a xlink:href="_abstract_pawn_8hpp.html" target="_top" xlink:title="../AbstractPawn.hpp">
<polygon fill="none" stroke="#000000" points="1246.5,-179.5 1246.5,-198.5 1359.5,-198.5 1359.5,-179.5 1246.5,-179.5"/>
<text text-anchor="middle" x="1303" y="-186.5" font-family="Helvetica,sans-Serif" font-size="10.00" fill="#000000">../AbstractPawn.hpp</text>
</a>
</g>
</g>
<!-- Node22&#45;&gt;Node23 -->
<g id="edge35" class="edge">
<title>Node22&#45;&gt;Node23</title>
<path fill="none" stroke="#191970" d="M1271.6191,-235.2455C1276.9046,-227.4564 1284.4541,-216.3308 1290.8238,-206.9439"/>
<polygon fill="#191970" stroke="#191970" points="1293.7379,-208.8827 1296.4568,-198.6427 1287.9455,-204.9522 1293.7379,-208.8827"/>
</g>
<!-- Node24&#45;&gt;Node14 -->
<g id="edge37" class="edge">
<title>Node24&#45;&gt;Node14</title>
<path fill="none" stroke="#191970" d="M1185.1875,-179.3906C1182.6661,-170.776 1178.889,-157.8708 1175.7324,-147.0858"/>
<polygon fill="#191970" stroke="#191970" points="1179.0203,-145.8591 1172.8522,-137.2449 1172.3021,-147.8254 1179.0203,-145.8591"/>
</g>
<!-- Node25&#45;&gt;Node19 -->
<g id="edge40" class="edge">
<title>Node25&#45;&gt;Node19</title>
<path fill="none" stroke="#191970" d="M997.0255,-235.3733C965.8287,-225.9807 918.229,-211.6496 884.2068,-201.4064"/>
<polygon fill="#191970" stroke="#191970" points="885.1418,-198.0327 874.5573,-198.5011 883.1237,-204.7355 885.1418,-198.0327"/>
</g>
<!-- Node25&#45;&gt;Node24 -->
<g id="edge41" class="edge">
<title>Node25&#45;&gt;Node24</title>
<path fill="none" stroke="#191970" d="M1056.3331,-235.3733C1082.5434,-226.1419 1122.2984,-212.1402 1151.2668,-201.9375"/>
<polygon fill="#191970" stroke="#191970" points="1152.7542,-205.1244 1161.0236,-198.5011 1150.4288,-198.5219 1152.7542,-205.1244"/>
</g>
<!-- Node26 -->
<g id="node27" class="node">
<title>Node26</title>
<g id="a_node27"><a xlink:href="_abstract_interface_8hpp.html" target="_top" xlink:title="../AbstractInterface.hpp">
<polygon fill="none" stroke="#000000" points="998.5,-179.5 998.5,-198.5 1129.5,-198.5 1129.5,-179.5 998.5,-179.5"/>
<text text-anchor="middle" x="1064" y="-186.5" font-family="Helvetica,sans-Serif" font-size="10.00" fill="#000000">../AbstractInterface.hpp</text>
</a>
</g>
</g>
<!-- Node25&#45;&gt;Node26 -->
<g id="edge39" class="edge">
<title>Node25&#45;&gt;Node26</title>
<path fill="none" stroke="#191970" d="M1035.0965,-235.2455C1039.9145,-227.5367 1046.7751,-216.5598 1052.6032,-207.2348"/>
<polygon fill="#191970" stroke="#191970" points="1055.6413,-208.9777 1057.9733,-198.6427 1049.7053,-205.2677 1055.6413,-208.9777"/>
</g>
</g>
</svg>
        <g id="navigator" transform="translate(0 0)" fill="#404254">
                <rect fill="#f2f5e9" fill-opacity="0.5" stroke="#606060" stroke-width=".5" x="0" y="0" width="60" height="60"/>
                <use id="zoomplus" xlink:href="#zoomPlus" x="17" y="9" onmousedown="handleZoom(evt,'in')"/>
                <use id="zoomminus" xlink:href="#zoomMin" x="42" y="9" onmousedown="handleZoom(evt,'out')"/>
                <use id="reset" xlink:href="#resetDef" x="30" y="36" onmousedown="handleReset()"/>
                <g id="arrowUp" xlink:href="#dirArrow" transform="translate(30 24)" onmousedown="handlePan(0,-1)">
                  <use xlink:href="#rim" fill="#404040">
                        <set attributeName="fill" to="#808080" begin="arrowUp.mouseover" end="arrowUp.mouseout"/>
                  </use>
                  <path fill="none" stroke="white" stroke-width="1.5" d="M0,-3.0v7 M-2.5,-0.5L0,-3.0L2.5,-0.5"/>
                </g>
                <g id="arrowRight" xlink:href="#dirArrow" transform="rotate(90) translate(36 -43)" onmousedown="handlePan(1,0)">
                  <use xlink:href="#rim" fill="#404040">
                        <set attributeName="fill" to="#808080" begin="arrowRight.mouseover" end="arrowRight.mouseout"/>
                  </use>
                  <path fill="none" stroke="white" stroke-width="1.5" d="M0,-3.0v7 M-2.5,-0.5L0,-3.0L2.5,-0.5"/>
                </g>
                <g id="arrowDown" xlink:href="#dirArrow" transform="rotate(180) translate(-30 -48)" onmousedown="handlePan(0,1)">
                  <use xlink:href="#rim" fill="#404040">
                        <set attributeName="fill" to="#808080" begin="arrowDown.mouseover" end="arrowDown.mouseout"/>
                  </use>
                  <path fill="none" stroke="white" stroke-width="1.5" d="M0,-3.0v7 M-2.5,-0.5L0,-3.0L2.5,-0.5"/>
                </g>
                <g id="arrowLeft" xlink:href="#dirArrow" transform="rotate(270) translate(-36 17)" onmousedown="handlePan(-1,0)">
                  <use xlink:href="#rim" fill="#404040">
                        <set attributeName="fill" to="#808080" begin="arrowLeft.mouseover" end="arrowLeft.mouseout"/>
                  </use>
                  <path fill="none" stroke="white" stroke-width="1.5" d="M0,-3.0v7 M-2.5,-0.5L0,-3.0L2.5,-0.5"/>
                </g>
        </g>
        <svg viewBox="0 0 15 15" width="100%" height="30px" preserveAspectRatio="xMaxYMin meet">
         <g id="arrow_out" transform="scale(0.3 0.3)">
          <a xlink:href="penguin_2_console_game_8cpp__incl_org.svg" target="_base">
           <rect id="button" ry="5" rx="5" y="6" x="6" height="38" width="38"
                fill="#f2f5e9" fill-opacity="0.5" stroke="#606060" stroke-width="1.0"/>
           <path id="arrow"
             d="M 11.500037,31.436501 C 11.940474,20.09759 22.043105,11.32322 32.158766,21.979434 L 37.068811,17.246167 C 37.068811,17.246167 37.088388,32 37.088388,32 L 22.160133,31.978069 C 22.160133,31.978069 26.997745,27.140456 26.997745,27.140456 C 18.528582,18.264221 13.291696,25.230495 11.500037,31.436501 z"
             style="fill:#404040;"/>
          </a>
         </g>
        </svg>
</svg>
