<?xml version="1.0" encoding="UTF-8" standalone="no"?>
<!DOCTYPE svg PUBLIC "-//W3C//DTD SVG 1.1//EN"
 "http://www.w3.org/Graphics/SVG/1.1/DTD/svg11.dtd">
<!-- Generated by graphviz version 2.40.1 (20161225.0304)
 -->
<!-- Title: dbg::print_formatted&lt; T &gt; Pages: 1 -->
<svg width="154pt" height="193pt"
 viewBox="0.00 0.00 154.00 193.00" xmlns="http://www.w3.org/2000/svg" xmlns:xlink="http://www.w3.org/1999/xlink">
<g id="graph0" class="graph" transform="scale(1 1) rotate(0) translate(4 189)">
<title>dbg::print_formatted&lt; T &gt;</title>
<!-- Node1 -->
<g id="node1" class="node">
<title>Node1</title>
<polygon fill="#bfbfbf" stroke="#000000" points="0,-.5 0,-79.5 146,-79.5 146,-.5 0,-.5"/>
<text text-anchor="middle" x="73" y="-67.5" font-family="Helvetica,sans-Serif" font-size="10.00" fill="#000000">dbg::print_formatted&lt; T &gt;</text>
<polyline fill="none" stroke="#000000" points="0,-60.5 146,-60.5 "/>
<text text-anchor="middle" x="73" y="-48.5" font-family="Helvetica,sans-Serif" font-size="10.00" fill="#000000"> </text>
<polyline fill="none" stroke="#000000" points="0,-41.5 146,-41.5 "/>
<text text-anchor="start" x="8" y="-29.5" font-family="Helvetica,sans-Serif" font-size="10.00" fill="#000000">+ print_formatted()</text>
<text text-anchor="start" x="8" y="-18.5" font-family="Helvetica,sans-Serif" font-size="10.00" fill="#000000">+ operator T()</text>
<text text-anchor="start" x="8" y="-7.5" font-family="Helvetica,sans-Serif" font-size="10.00" fill="#000000">+ prefix()</text>
</g>
<!-- Node2 -->
<g id="node2" class="node">
<title>Node2</title>
<polygon fill="none" stroke="#bfbfbf" points="29.5,-127.5 29.5,-184.5 58.5,-184.5 58.5,-127.5 29.5,-127.5"/>
<text text-anchor="middle" x="44" y="-172.5" font-family="Helvetica,sans-Serif" font-size="10.00" fill="#000000">int</text>
<polyline fill="none" stroke="#bfbfbf" points="29.5,-165.5 58.5,-165.5 "/>
<text text-anchor="middle" x="44" y="-153.5" font-family="Helvetica,sans-Serif" font-size="10.00" fill="#000000"> </text>
<polyline fill="none" stroke="#bfbfbf" points="29.5,-146.5 58.5,-146.5 "/>
<text text-anchor="middle" x="44" y="-134.5" font-family="Helvetica,sans-Serif" font-size="10.00" fill="#000000"> </text>
</g>
<!-- Node2&#45;&gt;Node1 -->
<g id="edge1" class="edge">
<title>Node2&#45;&gt;Node1</title>
<path fill="none" stroke="#404040" d="M42.0621,-127.3739C42.0631,-117.9134 42.763,-107.4057 45,-98 45.5433,-95.7156 46.1859,-93.4157 46.9078,-91.1183"/>
<polygon fill="none" stroke="#404040" points="46.9515,-90.9991 45.2638,-83.9882 51.0862,-79.7339 52.7739,-86.7447 46.9515,-90.9991"/>
<text text-anchor="middle" x="62.5" y="-101" font-family="Helvetica,sans-Serif" font-size="10.00" fill="#000000"> +base</text>
</g>
<!-- Node3 -->
<g id="node3" class="node">
<title>Node3</title>
<polygon fill="none" stroke="#bfbfbf" points="87.5,-127.5 87.5,-184.5 116.5,-184.5 116.5,-127.5 87.5,-127.5"/>
<text text-anchor="middle" x="102" y="-172.5" font-family="Helvetica,sans-Serif" font-size="10.00" fill="#000000">T</text>
<polyline fill="none" stroke="#bfbfbf" points="87.5,-165.5 116.5,-165.5 "/>
<text text-anchor="middle" x="102" y="-153.5" font-family="Helvetica,sans-Serif" font-size="10.00" fill="#000000"> </text>
<polyline fill="none" stroke="#bfbfbf" points="87.5,-146.5 116.5,-146.5 "/>
<text text-anchor="middle" x="102" y="-134.5" font-family="Helvetica,sans-Serif" font-size="10.00" fill="#000000"> </text>
</g>
<!-- Node3&#45;&gt;Node1 -->
<g id="edge2" class="edge">
<title>Node3&#45;&gt;Node1</title>
<path fill="none" stroke="#404040" d="M94.8315,-127.3258C92.1394,-116.5576 88.9898,-103.9593 85.9341,-91.7364"/>
<polygon fill="none" stroke="#404040" points="85.8406,-91.362 80.5048,-86.5113 82.9301,-79.7203 88.2659,-84.571 85.8406,-91.362"/>
<text text-anchor="middle" x="108.5" y="-101" font-family="Helvetica,sans-Serif" font-size="10.00" fill="#000000"> +inner</text>
</g>
</g>
</svg>
