<?xml version="1.0" encoding="UTF-8" standalone="no"?>
<!DOCTYPE svg PUBLIC "-//W3C//DTD SVG 1.1//EN"
 "http://www.w3.org/Graphics/SVG/1.1/DTD/svg11.dtd">
<!-- Generated by graphviz version 2.40.1 (20161225.0304)
 -->
<!-- Title: mcts::Node&lt; CellT, PawnT &gt; Pages: 1 -->
<svg width="464pt" height="182pt"
 viewBox="0.00 0.00 464.00 182.00" xmlns="http://www.w3.org/2000/svg" xmlns:xlink="http://www.w3.org/1999/xlink">
<g id="graph0" class="graph" transform="scale(1 1) rotate(0) translate(4 178)">
<title>mcts::Node&lt; CellT, PawnT &gt;</title>
<!-- Node1 -->
<g id="node1" class="node">
<title>Node1</title>
<polygon fill="#bfbfbf" stroke="#000000" points="228.5,-.5 228.5,-68.5 339.5,-68.5 339.5,-.5 228.5,-.5"/>
<text text-anchor="start" x="236.5" y="-56.5" font-family="Helvetica,sans-Serif" font-size="10.00" fill="#000000">mcts::Node&lt; CellT,</text>
<text text-anchor="middle" x="284" y="-45.5" font-family="Helvetica,sans-Serif" font-size="10.00" fill="#000000"> PawnT &gt;</text>
<polyline fill="none" stroke="#000000" points="228.5,-38.5 339.5,-38.5 "/>
<text text-anchor="middle" x="284" y="-26.5" font-family="Helvetica,sans-Serif" font-size="10.00" fill="#000000"> </text>
<polyline fill="none" stroke="#000000" points="228.5,-19.5 339.5,-19.5 "/>
<text text-anchor="start" x="236.5" y="-7.5" font-family="Helvetica,sans-Serif" font-size="10.00" fill="#000000">+ ~Node()</text>
</g>
<!-- Node1&#45;&gt;Node1 -->
<g id="edge6" class="edge">
<title>Node1&#45;&gt;Node1</title>
<path fill="none" stroke="#404040" d="M339.7668,-44.8168C350.172,-43.5463 357.5,-40.1074 357.5,-34.5 357.5,-31.4334 355.3084,-29.0154 351.6204,-27.2459"/>
<polygon fill="none" stroke="#404040" points="351.3852,-27.1852 344.5753,-29.557 339.7668,-24.1832 346.5767,-21.8114 351.3852,-27.1852"/>
<text text-anchor="middle" x="379" y="-32" font-family="Helvetica,sans-Serif" font-size="10.00" fill="#000000"> +parent</text>
</g>
<!-- Node2 -->
<g id="node2" class="node">
<title>Node2</title>
<polygon fill="none" stroke="#bfbfbf" points="0,-116.5 0,-173.5 134,-173.5 134,-116.5 0,-116.5"/>
<text text-anchor="middle" x="67" y="-161.5" font-family="Helvetica,sans-Serif" font-size="10.00" fill="#000000">vector&lt; mcts::Node * &gt;</text>
<polyline fill="none" stroke="#bfbfbf" points="0,-154.5 134,-154.5 "/>
<text text-anchor="middle" x="67" y="-142.5" font-family="Helvetica,sans-Serif" font-size="10.00" fill="#000000"> </text>
<polyline fill="none" stroke="#bfbfbf" points="0,-135.5 134,-135.5 "/>
<text text-anchor="middle" x="67" y="-123.5" font-family="Helvetica,sans-Serif" font-size="10.00" fill="#000000"> </text>
</g>
<!-- Node2&#45;&gt;Node1 -->
<g id="edge1" class="edge">
<title>Node2&#45;&gt;Node1</title>
<path fill="none" stroke="#404040" d="M106.2297,-116.3771C120.826,-106.3966 137.7877,-95.5624 154,-87 173.976,-76.4497 196.5549,-66.6487 217.2236,-58.4405"/>
<polygon fill="none" stroke="#404040" points="217.3014,-58.4102 221.4377,-52.5033 228.4811,-54.0496 224.3448,-59.9565 217.3014,-58.4102"/>
<text text-anchor="middle" x="187" y="-90" font-family="Helvetica,sans-Serif" font-size="10.00" fill="#000000"> +childNodes</text>
</g>
<!-- Node3 -->
<g id="node3" class="node">
<title>Node3</title>
<polygon fill="none" stroke="#bfbfbf" points="152,-116.5 152,-173.5 202,-173.5 202,-116.5 152,-116.5"/>
<text text-anchor="middle" x="177" y="-161.5" font-family="Helvetica,sans-Serif" font-size="10.00" fill="#000000">double</text>
<polyline fill="none" stroke="#bfbfbf" points="152,-154.5 202,-154.5 "/>
<text text-anchor="middle" x="177" y="-142.5" font-family="Helvetica,sans-Serif" font-size="10.00" fill="#000000"> </text>
<polyline fill="none" stroke="#bfbfbf" points="152,-135.5 202,-135.5 "/>
<text text-anchor="middle" x="177" y="-123.5" font-family="Helvetica,sans-Serif" font-size="10.00" fill="#000000"> </text>
</g>
<!-- Node3&#45;&gt;Node1 -->
<g id="edge2" class="edge">
<title>Node3&#45;&gt;Node1</title>
<path fill="none" stroke="#404040" d="M202.0867,-119.0927C214.0449,-106.7433 228.6711,-91.6387 242.238,-77.628"/>
<polygon fill="none" stroke="#404040" points="242.6141,-77.2396 243.9144,-70.1467 250.9618,-68.6189 249.6615,-75.7118 242.6141,-77.2396"/>
<text text-anchor="middle" x="249" y="-90" font-family="Helvetica,sans-Serif" font-size="10.00" fill="#000000"> +score</text>
</g>
<!-- Node4 -->
<g id="node4" class="node">
<title>Node4</title>
<polygon fill="none" stroke="#bfbfbf" points="220,-116.5 220,-173.5 348,-173.5 348,-116.5 220,-116.5"/>
<text text-anchor="middle" x="284" y="-161.5" font-family="Helvetica,sans-Serif" font-size="10.00" fill="#000000">Move&lt; CellT, PawnT &gt;</text>
<polyline fill="none" stroke="#bfbfbf" points="220,-154.5 348,-154.5 "/>
<text text-anchor="middle" x="284" y="-142.5" font-family="Helvetica,sans-Serif" font-size="10.00" fill="#000000"> </text>
<polyline fill="none" stroke="#bfbfbf" points="220,-135.5 348,-135.5 "/>
<text text-anchor="middle" x="284" y="-123.5" font-family="Helvetica,sans-Serif" font-size="10.00" fill="#000000"> </text>
</g>
<!-- Node4&#45;&gt;Node1 -->
<g id="edge3" class="edge">
<title>Node4&#45;&gt;Node1</title>
<path fill="none" stroke="#404040" d="M284,-116.2559C284,-105.4349 284,-92.8362 284,-80.8169"/>
<polygon fill="none" stroke="#404040" points="284.0001,-80.6001 280,-74.6001 284,-68.6001 288,-74.6 284.0001,-80.6001"/>
<text text-anchor="middle" x="304" y="-90" font-family="Helvetica,sans-Serif" font-size="10.00" fill="#000000"> +move</text>
</g>
<!-- Node5 -->
<g id="node5" class="node">
<title>Node5</title>
<polygon fill="none" stroke="#bfbfbf" points="366.5,-116.5 366.5,-173.5 395.5,-173.5 395.5,-116.5 366.5,-116.5"/>
<text text-anchor="middle" x="381" y="-161.5" font-family="Helvetica,sans-Serif" font-size="10.00" fill="#000000">int</text>
<polyline fill="none" stroke="#bfbfbf" points="366.5,-154.5 395.5,-154.5 "/>
<text text-anchor="middle" x="381" y="-142.5" font-family="Helvetica,sans-Serif" font-size="10.00" fill="#000000"> </text>
<polyline fill="none" stroke="#bfbfbf" points="366.5,-135.5 395.5,-135.5 "/>
<text text-anchor="middle" x="381" y="-123.5" font-family="Helvetica,sans-Serif" font-size="10.00" fill="#000000"> </text>
</g>
<!-- Node5&#45;&gt;Node1 -->
<g id="edge4" class="edge">
<title>Node5&#45;&gt;Node1</title>
<path fill="none" stroke="#404040" d="M366.3858,-127.1176C363.312,-123.4196 360.0703,-119.5657 357,-116 346.2341,-103.4972 334.3701,-90.0963 323.3924,-77.8461"/>
<polygon fill="none" stroke="#404040" points="323.2258,-77.6607 316.2398,-75.8727 315.2033,-68.7365 322.1893,-70.5245 323.2258,-77.6607"/>
<text text-anchor="middle" x="360" y="-90" font-family="Helvetica,sans-Serif" font-size="10.00" fill="#000000"> +visits</text>
</g>
<!-- Node6 -->
<g id="node6" class="node">
<title>Node6</title>
<polygon fill="none" stroke="#bfbfbf" points="418,-116.5 418,-173.5 456,-173.5 456,-116.5 418,-116.5"/>
<text text-anchor="middle" x="437" y="-161.5" font-family="Helvetica,sans-Serif" font-size="10.00" fill="#000000">bool</text>
<polyline fill="none" stroke="#bfbfbf" points="418,-154.5 456,-154.5 "/>
<text text-anchor="middle" x="437" y="-142.5" font-family="Helvetica,sans-Serif" font-size="10.00" fill="#000000"> </text>
<polyline fill="none" stroke="#bfbfbf" points="418,-135.5 456,-135.5 "/>
<text text-anchor="middle" x="437" y="-123.5" font-family="Helvetica,sans-Serif" font-size="10.00" fill="#000000"> </text>
</g>
<!-- Node6&#45;&gt;Node1 -->
<g id="edge5" class="edge">
<title>Node6&#45;&gt;Node1</title>
<path fill="none" stroke="#404040" d="M417.8243,-120.9361C408.149,-109.7541 395.772,-96.7972 383,-87 372.9984,-79.3279 361.7178,-72.1763 350.4462,-65.7732"/>
<polygon fill="none" stroke="#404040" points="350.2059,-65.6415 343.0216,-66.2634 339.6844,-59.871 346.8686,-59.2491 350.2059,-65.6415"/>
<text text-anchor="middle" x="415" y="-90" font-family="Helvetica,sans-Serif" font-size="10.00" fill="#000000"> +isRoot</text>
</g>
</g>
</svg>
