<?xml version="1.0" encoding="UTF-8" standalone="no"?>
<!DOCTYPE svg PUBLIC "-//W3C//DTD SVG 1.1//EN"
 "http://www.w3.org/Graphics/SVG/1.1/DTD/svg11.dtd">
<!-- Generated by graphviz version 2.40.1 (20161225.0304)
 -->
<!-- Title: mcts::timer::milliseconds_elapsed Pages: 1 -->
<svg width="976pt" height="88pt"
 viewBox="0.00 0.00 976.00 88.00" xmlns="http://www.w3.org/2000/svg" xmlns:xlink="http://www.w3.org/1999/xlink">
<g id="graph0" class="graph" transform="scale(1 1) rotate(0) translate(4 84)">
<title>mcts::timer::milliseconds_elapsed</title>
<!-- Node1 -->
<g id="node1" class="node">
<title>Node1</title>
<polygon fill="#bfbfbf" stroke="#000000" points="0,-24.5 0,-54.5 140,-54.5 140,-24.5 0,-24.5"/>
<text text-anchor="start" x="8" y="-42.5" font-family="Helvetica,sans-Serif" font-size="10.00" fill="#000000">mcts::timer::milliseconds</text>
<text text-anchor="middle" x="70" y="-31.5" font-family="Helvetica,sans-Serif" font-size="10.00" fill="#000000">_elapsed</text>
</g>
<!-- Node2 -->
<g id="node2" class="node">
<title>Node2</title>
<g id="a_node2"><a xlink:href="classmcts_1_1_m_c_t_s.html#ae8b2818e7a34e858e9dd284d33bca874" target="_top" xlink:title="Start the mcts. ">
<polygon fill="none" stroke="#000000" points="176,-30 176,-49 283,-49 283,-30 176,-30"/>
<text text-anchor="middle" x="229.5" y="-37" font-family="Helvetica,sans-Serif" font-size="10.00" fill="#000000">mcts::MCTS::begin</text>
</a>
</g>
</g>
<!-- Node1&#45;&gt;Node2 -->
<g id="edge1" class="edge">
<title>Node1&#45;&gt;Node2</title>
<path fill="none" stroke="#191970" d="M150.4644,-39.5C159.0338,-39.5 167.5922,-39.5 175.7438,-39.5"/>
<polygon fill="#191970" stroke="#191970" points="150.4233,-36.0001 140.4233,-39.5 150.4233,-43.0001 150.4233,-36.0001"/>
</g>
<!-- Node3 -->
<g id="node3" class="node">
<title>Node3</title>
<g id="a_node3"><a xlink:href="classmcts_1_1_m_c_t_s_player.html#a53677f7c7f9cfe4b7999af8abcfb8641" target="_top" xlink:title="Unleashe the power of the MCTS !!!! ">
<polygon fill="none" stroke="#000000" points="319,-30 319,-49 497,-49 497,-30 319,-30"/>
<text text-anchor="middle" x="408" y="-37" font-family="Helvetica,sans-Serif" font-size="10.00" fill="#000000">mcts::MCTSPlayer::unleash_mcts</text>
</a>
</g>
</g>
<!-- Node2&#45;&gt;Node3 -->
<g id="edge2" class="edge">
<title>Node2&#45;&gt;Node3</title>
<path fill="none" stroke="#191970" d="M293.0586,-39.5C301.4106,-39.5 310.0906,-39.5 318.7704,-39.5"/>
<polygon fill="#191970" stroke="#191970" points="293.0559,-36.0001 283.0559,-39.5 293.0559,-43.0001 293.0559,-36.0001"/>
</g>
<!-- Node4 -->
<g id="node4" class="node">
<title>Node4</title>
<g id="a_node4"><a xlink:href="classmcts_1_1_m_c_t_s_player.html#a48340fed9c5730f0d64ca177682f575e" target="_top" xlink:title="Returns the best move after running the ai. ">
<polygon fill="none" stroke="#000000" points="533,-30 533,-49 691,-49 691,-30 533,-30"/>
<text text-anchor="middle" x="612" y="-37" font-family="Helvetica,sans-Serif" font-size="10.00" fill="#000000">mcts::MCTSPlayer::bestMove</text>
</a>
</g>
</g>
<!-- Node3&#45;&gt;Node4 -->
<g id="edge3" class="edge">
<title>Node3&#45;&gt;Node4</title>
<path fill="none" stroke="#191970" d="M507.2632,-39.5C515.8748,-39.5 524.5125,-39.5 532.9304,-39.5"/>
<polygon fill="#191970" stroke="#191970" points="507.1806,-36.0001 497.1806,-39.5 507.1806,-43.0001 507.1806,-36.0001"/>
</g>
<!-- Node5 -->
<g id="node5" class="node">
<title>Node5</title>
<g id="a_node5"><a xlink:href="classgame_1_1penguin_1_1_console_game.html#a56af132d8e3d16902fb46b7979d37eae" target="_top" xlink:title="Loop while the game is not finished, told by the isFinished method. ">
<polygon fill="none" stroke="#000000" points="727,-49.5 727,-79.5 891,-79.5 891,-49.5 727,-49.5"/>
<text text-anchor="start" x="735" y="-67.5" font-family="Helvetica,sans-Serif" font-size="10.00" fill="#000000">game::penguin::ConsoleGame</text>
<text text-anchor="middle" x="809" y="-56.5" font-family="Helvetica,sans-Serif" font-size="10.00" fill="#000000">::loop</text>
</a>
</g>
</g>
<!-- Node4&#45;&gt;Node5 -->
<g id="edge4" class="edge">
<title>Node4&#45;&gt;Node5</title>
<path fill="none" stroke="#191970" d="M697.2305,-50.3161C707.089,-51.5671 717.1281,-52.8411 726.9431,-54.0867"/>
<polygon fill="#191970" stroke="#191970" points="697.4003,-46.8096 687.0392,-49.0227 696.519,-53.7539 697.4003,-46.8096"/>
</g>
<!-- Node7 -->
<g id="node7" class="node">
<title>Node7</title>
<g id="a_node7"><a xlink:href="classgame_1_1tic__tac__toe_1_1_console_game.html#a06b07e4c713a60999258b0b573b02a33" target="_top" xlink:title="Loop while the game is not finished, told by the isFinished method. ">
<polygon fill="none" stroke="#000000" points="753,-.5 753,-30.5 865,-30.5 865,-.5 753,-.5"/>
<text text-anchor="start" x="761" y="-18.5" font-family="Helvetica,sans-Serif" font-size="10.00" fill="#000000">game::tic_tac_toe::</text>
<text text-anchor="middle" x="809" y="-7.5" font-family="Helvetica,sans-Serif" font-size="10.00" fill="#000000">ConsoleGame::loop</text>
</a>
</g>
</g>
<!-- Node4&#45;&gt;Node7 -->
<g id="edge6" class="edge">
<title>Node4&#45;&gt;Node7</title>
<path fill="none" stroke="#191970" d="M700.5387,-28.7136C718.3117,-26.5483 736.5216,-24.3299 752.8222,-22.344"/>
<polygon fill="#191970" stroke="#191970" points="699.6459,-25.2964 690.1426,-29.9801 700.4925,-32.245 699.6459,-25.2964"/>
</g>
<!-- Node6 -->
<g id="node6" class="node">
<title>Node6</title>
<g id="a_node6"><a xlink:href="main_8cpp.html#a1dfeea39dabf076270426c94def1a2a2" target="_top" xlink:title="main">
<polygon fill="none" stroke="#000000" points="927,-55 927,-74 968,-74 968,-55 927,-55"/>
<text text-anchor="middle" x="947.5" y="-62" font-family="Helvetica,sans-Serif" font-size="10.00" fill="#000000">main</text>
</a>
</g>
</g>
<!-- Node5&#45;&gt;Node6 -->
<g id="edge5" class="edge">
<title>Node5&#45;&gt;Node6</title>
<path fill="none" stroke="#191970" d="M901.2725,-64.5C910.7768,-64.5 919.6282,-64.5 926.9893,-64.5"/>
<polygon fill="#191970" stroke="#191970" points="901.1668,-61.0001 891.1667,-64.5 901.1667,-68.0001 901.1668,-61.0001"/>
</g>
</g>
</svg>
