<?xml version="1.0" encoding="UTF-8" standalone="no"?>
<!DOCTYPE svg PUBLIC "-//W3C//DTD SVG 1.1//EN"
 "http://www.w3.org/Graphics/SVG/1.1/DTD/svg11.dtd">
<!-- Generated by graphviz version 2.40.1 (20161225.0304)
 -->
<!-- Title: game::Move&lt; CellT, PawnT &gt; Pages: 1 -->
<svg width="132pt" height="204pt"
 viewBox="0.00 0.00 132.00 204.00" xmlns="http://www.w3.org/2000/svg" xmlns:xlink="http://www.w3.org/1999/xlink">
<g id="graph0" class="graph" transform="scale(1 1) rotate(0) translate(4 200)">
<title>game::Move&lt; CellT, PawnT &gt;</title>
<!-- Node1 -->
<g id="node1" class="node">
<title>Node1</title>
<polygon fill="#bfbfbf" stroke="#000000" points="5,-.5 5,-79.5 121,-79.5 121,-.5 5,-.5"/>
<text text-anchor="start" x="13" y="-67.5" font-family="Helvetica,sans-Serif" font-size="10.00" fill="#000000">game::Move&lt; CellT,</text>
<text text-anchor="middle" x="63" y="-56.5" font-family="Helvetica,sans-Serif" font-size="10.00" fill="#000000"> PawnT &gt;</text>
<polyline fill="none" stroke="#000000" points="5,-49.5 121,-49.5 "/>
<text text-anchor="middle" x="63" y="-37.5" font-family="Helvetica,sans-Serif" font-size="10.00" fill="#000000"> </text>
<polyline fill="none" stroke="#000000" points="5,-30.5 121,-30.5 "/>
<text text-anchor="start" x="13" y="-18.5" font-family="Helvetica,sans-Serif" font-size="10.00" fill="#000000">+ operator==()</text>
<text text-anchor="start" x="13" y="-7.5" font-family="Helvetica,sans-Serif" font-size="10.00" fill="#000000">+ operator!=()</text>
</g>
<!-- Node2 -->
<g id="node2" class="node">
<title>Node2</title>
<polygon fill="none" stroke="#bfbfbf" points="0,-138.5 0,-195.5 56,-195.5 56,-138.5 0,-138.5"/>
<text text-anchor="middle" x="28" y="-183.5" font-family="Helvetica,sans-Serif" font-size="10.00" fill="#000000">PawnT *</text>
<polyline fill="none" stroke="#bfbfbf" points="0,-176.5 56,-176.5 "/>
<text text-anchor="middle" x="28" y="-164.5" font-family="Helvetica,sans-Serif" font-size="10.00" fill="#000000"> </text>
<polyline fill="none" stroke="#bfbfbf" points="0,-157.5 56,-157.5 "/>
<text text-anchor="middle" x="28" y="-145.5" font-family="Helvetica,sans-Serif" font-size="10.00" fill="#000000"> </text>
</g>
<!-- Node2&#45;&gt;Node1 -->
<g id="edge1" class="edge">
<title>Node2&#45;&gt;Node1</title>
<path fill="none" stroke="#404040" d="M31.0213,-138.4758C32.7409,-125.9162 35.3079,-111.0748 39,-98 39.6441,-95.719 40.352,-93.4069 41.1082,-91.0855"/>
<polygon fill="none" stroke="#404040" points="41.2059,-90.8102 39.4434,-83.8178 45.2201,-79.5015 46.9826,-86.4939 41.2059,-90.8102"/>
<text text-anchor="middle" x="58" y="-106.5" font-family="Helvetica,sans-Serif" font-size="10.00" fill="#000000"> +pawn</text>
</g>
<!-- Node3 -->
<g id="node3" class="node">
<title>Node3</title>
<polygon fill="none" stroke="#bfbfbf" points="74,-138.5 74,-195.5 124,-195.5 124,-138.5 74,-138.5"/>
<text text-anchor="middle" x="99" y="-183.5" font-family="Helvetica,sans-Serif" font-size="10.00" fill="#000000">CellT *</text>
<polyline fill="none" stroke="#bfbfbf" points="74,-176.5 124,-176.5 "/>
<text text-anchor="middle" x="99" y="-164.5" font-family="Helvetica,sans-Serif" font-size="10.00" fill="#000000"> </text>
<polyline fill="none" stroke="#bfbfbf" points="74,-157.5 124,-157.5 "/>
<text text-anchor="middle" x="99" y="-145.5" font-family="Helvetica,sans-Serif" font-size="10.00" fill="#000000"> </text>
</g>
<!-- Node3&#45;&gt;Node1 -->
<g id="edge2" class="edge">
<title>Node3&#45;&gt;Node1</title>
<path fill="none" stroke="#404040" d="M90.9209,-138.4987C87.0223,-124.7452 82.2207,-107.8063 77.7054,-91.8775"/>
<polygon fill="none" stroke="#404040" points="77.6008,-91.5081 72.1161,-86.8265 74.3281,-79.963 79.8128,-84.6447 77.6008,-91.5081"/>
<text text-anchor="middle" x="104" y="-112" font-family="Helvetica,sans-Serif" font-size="10.00" fill="#000000"> +from</text>
<text text-anchor="middle" x="104" y="-101" font-family="Helvetica,sans-Serif" font-size="10.00" fill="#000000">+target</text>
</g>
</g>
</svg>
