<?xml version="1.0" encoding="UTF-8" standalone="no"?>
<!DOCTYPE svg PUBLIC "-//W3C//DTD SVG 1.1//EN"
 "http://www.w3.org/Graphics/SVG/1.1/DTD/svg11.dtd">
<!-- Generated by graphviz version 2.40.1 (20161225.0304)
 -->
<!-- Title: mcts::Result&lt; CellT, PawnT &gt; Pages: 1 -->
<svg width="255pt" height="182pt"
 viewBox="0.00 0.00 255.00 182.00" xmlns="http://www.w3.org/2000/svg" xmlns:xlink="http://www.w3.org/1999/xlink">
<g id="graph0" class="graph" transform="scale(1 1) rotate(0) translate(4 178)">
<title>mcts::Result&lt; CellT, PawnT &gt;</title>
<!-- Node1 -->
<g id="node1" class="node">
<title>Node1</title>
<polygon fill="#bfbfbf" stroke="#000000" points="74,-.5 74,-68.5 190,-68.5 190,-.5 74,-.5"/>
<text text-anchor="start" x="82" y="-56.5" font-family="Helvetica,sans-Serif" font-size="10.00" fill="#000000">mcts::Result&lt; CellT,</text>
<text text-anchor="middle" x="132" y="-45.5" font-family="Helvetica,sans-Serif" font-size="10.00" fill="#000000"> PawnT &gt;</text>
<polyline fill="none" stroke="#000000" points="74,-38.5 190,-38.5 "/>
<text text-anchor="middle" x="132" y="-26.5" font-family="Helvetica,sans-Serif" font-size="10.00" fill="#000000"> </text>
<polyline fill="none" stroke="#000000" points="74,-19.5 190,-19.5 "/>
<text text-anchor="middle" x="132" y="-7.5" font-family="Helvetica,sans-Serif" font-size="10.00" fill="#000000"> </text>
</g>
<!-- Node2 -->
<g id="node2" class="node">
<title>Node2</title>
<polygon fill="none" stroke="#bfbfbf" points="0,-116.5 0,-173.5 50,-173.5 50,-116.5 0,-116.5"/>
<text text-anchor="middle" x="25" y="-161.5" font-family="Helvetica,sans-Serif" font-size="10.00" fill="#000000">double</text>
<polyline fill="none" stroke="#bfbfbf" points="0,-154.5 50,-154.5 "/>
<text text-anchor="middle" x="25" y="-142.5" font-family="Helvetica,sans-Serif" font-size="10.00" fill="#000000"> </text>
<polyline fill="none" stroke="#bfbfbf" points="0,-135.5 50,-135.5 "/>
<text text-anchor="middle" x="25" y="-123.5" font-family="Helvetica,sans-Serif" font-size="10.00" fill="#000000"> </text>
</g>
<!-- Node2&#45;&gt;Node1 -->
<g id="edge1" class="edge">
<title>Node2&#45;&gt;Node1</title>
<path fill="none" stroke="#404040" d="M50.0867,-119.0927C62.0449,-106.7433 76.6711,-91.6387 90.238,-77.628"/>
<polygon fill="none" stroke="#404040" points="90.6141,-77.2396 91.9144,-70.1467 98.9618,-68.6189 97.6615,-75.7118 90.6141,-77.2396"/>
<text text-anchor="middle" x="97" y="-90" font-family="Helvetica,sans-Serif" font-size="10.00" fill="#000000"> +score</text>
</g>
<!-- Node3 -->
<g id="node3" class="node">
<title>Node3</title>
<polygon fill="none" stroke="#bfbfbf" points="68,-116.5 68,-173.5 196,-173.5 196,-116.5 68,-116.5"/>
<text text-anchor="middle" x="132" y="-161.5" font-family="Helvetica,sans-Serif" font-size="10.00" fill="#000000">Move&lt; CellT, PawnT &gt;</text>
<polyline fill="none" stroke="#bfbfbf" points="68,-154.5 196,-154.5 "/>
<text text-anchor="middle" x="132" y="-142.5" font-family="Helvetica,sans-Serif" font-size="10.00" fill="#000000"> </text>
<polyline fill="none" stroke="#bfbfbf" points="68,-135.5 196,-135.5 "/>
<text text-anchor="middle" x="132" y="-123.5" font-family="Helvetica,sans-Serif" font-size="10.00" fill="#000000"> </text>
</g>
<!-- Node3&#45;&gt;Node1 -->
<g id="edge2" class="edge">
<title>Node3&#45;&gt;Node1</title>
<path fill="none" stroke="#404040" d="M132,-116.2559C132,-105.4349 132,-92.8362 132,-80.8169"/>
<polygon fill="none" stroke="#404040" points="132.0001,-80.6001 128,-74.6001 132,-68.6001 136,-74.6 132.0001,-80.6001"/>
<text text-anchor="middle" x="165" y="-90" font-family="Helvetica,sans-Serif" font-size="10.00" fill="#000000"> +best_move</text>
</g>
<!-- Node4 -->
<g id="node4" class="node">
<title>Node4</title>
<polygon fill="none" stroke="#bfbfbf" points="214.5,-116.5 214.5,-173.5 243.5,-173.5 243.5,-116.5 214.5,-116.5"/>
<text text-anchor="middle" x="229" y="-161.5" font-family="Helvetica,sans-Serif" font-size="10.00" fill="#000000">int</text>
<polyline fill="none" stroke="#bfbfbf" points="214.5,-154.5 243.5,-154.5 "/>
<text text-anchor="middle" x="229" y="-142.5" font-family="Helvetica,sans-Serif" font-size="10.00" fill="#000000"> </text>
<polyline fill="none" stroke="#bfbfbf" points="214.5,-135.5 243.5,-135.5 "/>
<text text-anchor="middle" x="229" y="-123.5" font-family="Helvetica,sans-Serif" font-size="10.00" fill="#000000"> </text>
</g>
<!-- Node4&#45;&gt;Node1 -->
<g id="edge3" class="edge">
<title>Node4&#45;&gt;Node1</title>
<path fill="none" stroke="#404040" d="M218.9356,-116.2458C214.6473,-106.3632 208.9969,-95.6261 202,-87 199.2039,-83.5528 196.1342,-80.2086 192.8897,-76.9888"/>
<polygon fill="none" stroke="#404040" points="192.7906,-76.8976 185.6671,-75.7774 183.9613,-68.7709 191.0849,-69.8911 192.7906,-76.8976"/>
<text text-anchor="middle" x="228" y="-90" font-family="Helvetica,sans-Serif" font-size="10.00" fill="#000000"> +visits</text>
</g>
</g>
</svg>
