<?xml version="1.0" encoding="UTF-8" standalone="no"?>
<!DOCTYPE svg PUBLIC "-//W3C//DTD SVG 1.1//EN"
 "http://www.w3.org/Graphics/SVG/1.1/DTD/svg11.dtd">
<!-- Generated by graphviz version 2.40.1 (20161225.0304)
 -->
<!-- Title: game::Position Pages: 1 -->
<svg width="101pt" height="182pt"
 viewBox="0.00 0.00 101.00 182.00" xmlns="http://www.w3.org/2000/svg" xmlns:xlink="http://www.w3.org/1999/xlink">
<g id="graph0" class="graph" transform="scale(1 1) rotate(0) translate(4 178)">
<title>game::Position</title>
<!-- Node1 -->
<g id="node1" class="node">
<title>Node1</title>
<polygon fill="#bfbfbf" stroke="#000000" points="0,-.5 0,-57.5 93,-57.5 93,-.5 0,-.5"/>
<text text-anchor="middle" x="46.5" y="-45.5" font-family="Helvetica,sans-Serif" font-size="10.00" fill="#000000">game::Position</text>
<polyline fill="none" stroke="#000000" points="0,-38.5 93,-38.5 "/>
<text text-anchor="middle" x="46.5" y="-26.5" font-family="Helvetica,sans-Serif" font-size="10.00" fill="#000000"> </text>
<polyline fill="none" stroke="#000000" points="0,-19.5 93,-19.5 "/>
<text text-anchor="start" x="8" y="-7.5" font-family="Helvetica,sans-Serif" font-size="10.00" fill="#000000">+ operator==()</text>
</g>
<!-- Node2 -->
<g id="node2" class="node">
<title>Node2</title>
<polygon fill="none" stroke="#bfbfbf" points="32,-116.5 32,-173.5 61,-173.5 61,-116.5 32,-116.5"/>
<text text-anchor="middle" x="46.5" y="-161.5" font-family="Helvetica,sans-Serif" font-size="10.00" fill="#000000">int</text>
<polyline fill="none" stroke="#bfbfbf" points="32,-154.5 61,-154.5 "/>
<text text-anchor="middle" x="46.5" y="-142.5" font-family="Helvetica,sans-Serif" font-size="10.00" fill="#000000"> </text>
<polyline fill="none" stroke="#bfbfbf" points="32,-135.5 61,-135.5 "/>
<text text-anchor="middle" x="46.5" y="-123.5" font-family="Helvetica,sans-Serif" font-size="10.00" fill="#000000"> </text>
</g>
<!-- Node2&#45;&gt;Node1 -->
<g id="edge1" class="edge">
<title>Node2&#45;&gt;Node1</title>
<path fill="none" stroke="#404040" d="M46.5,-116.3258C46.5,-102.3834 46.5,-85.3727 46.5,-70.0815"/>
<polygon fill="none" stroke="#404040" points="46.5001,-69.7463 42.5,-63.7464 46.5,-57.7463 50.5,-63.7463 46.5001,-69.7463"/>
<text text-anchor="middle" x="55.5" y="-90" font-family="Helvetica,sans-Serif" font-size="10.00" fill="#000000"> +x</text>
<text text-anchor="middle" x="55.5" y="-79" font-family="Helvetica,sans-Serif" font-size="10.00" fill="#000000">+y</text>
</g>
</g>
</svg>
