<?xml version="1.0" encoding="UTF-8" standalone="no"?>
<!DOCTYPE svg PUBLIC "-//W3C//DTD SVG 1.1//EN"
 "http://www.w3.org/Graphics/SVG/1.1/DTD/svg11.dtd">
<!-- Generated by graphviz version 2.40.1 (20161225.0304)
 -->
<!-- Title: /workspace/src/game_logic/tic_tac_toe/BoardCell.cpp Pages: 1 -->
<svg width="287pt" height="207pt"
 viewBox="0.00 0.00 286.50 207.00" xmlns="http://www.w3.org/2000/svg" xmlns:xlink="http://www.w3.org/1999/xlink">
<g id="graph0" class="graph" transform="scale(1 1) rotate(0) translate(4 203)">
<title>/workspace/src/game_logic/tic_tac_toe/BoardCell.cpp</title>
<!-- Node0 -->
<g id="node1" class="node">
<title>Node0</title>
<polygon fill="#bfbfbf" stroke="#000000" points="55.5,-168.5 55.5,-198.5 227.5,-198.5 227.5,-168.5 55.5,-168.5"/>
<text text-anchor="start" x="63.5" y="-186.5" font-family="Helvetica,sans-Serif" font-size="10.00" fill="#000000">/workspace/src/game</text>
<text text-anchor="middle" x="141.5" y="-175.5" font-family="Helvetica,sans-Serif" font-size="10.00" fill="#000000">_logic/tic_tac_toe/BoardCell.cpp</text>
</g>
<!-- Node1 -->
<g id="node2" class="node">
<title>Node1</title>
<g id="a_node2"><a xlink:href="tic__tac__toe_2_board_cell_8hpp.html" target="_top" xlink:title="BoardCell.hpp">
<polygon fill="none" stroke="#000000" points="99,-112.5 99,-131.5 184,-131.5 184,-112.5 99,-112.5"/>
<text text-anchor="middle" x="141.5" y="-119.5" font-family="Helvetica,sans-Serif" font-size="10.00" fill="#000000">BoardCell.hpp</text>
</a>
</g>
</g>
<!-- Node0&#45;&gt;Node1 -->
<g id="edge1" class="edge">
<title>Node0&#45;&gt;Node1</title>
<path fill="none" stroke="#191970" d="M141.5,-168.2977C141.5,-160.3834 141.5,-150.6043 141.5,-142.0759"/>
<polygon fill="#191970" stroke="#191970" points="145.0001,-141.8469 141.5,-131.8469 138.0001,-141.847 145.0001,-141.8469"/>
</g>
<!-- Node2 -->
<g id="node3" class="node">
<title>Node2</title>
<g id="a_node3"><a xlink:href="_position_8hpp.html" target="_top" xlink:title="../utils/Position.hpp">
<polygon fill="none" stroke="#000000" points="16.5,-56.5 16.5,-75.5 126.5,-75.5 126.5,-56.5 16.5,-56.5"/>
<text text-anchor="middle" x="71.5" y="-63.5" font-family="Helvetica,sans-Serif" font-size="10.00" fill="#000000">../utils/Position.hpp</text>
</a>
</g>
</g>
<!-- Node1&#45;&gt;Node2 -->
<g id="edge2" class="edge">
<title>Node1&#45;&gt;Node2</title>
<path fill="none" stroke="#191970" d="M129.3069,-112.2455C118.8679,-103.8943 103.6345,-91.7076 91.426,-81.9408"/>
<polygon fill="#191970" stroke="#191970" points="93.5485,-79.1566 83.5533,-75.6427 89.1756,-84.6227 93.5485,-79.1566"/>
</g>
<!-- Node5 -->
<g id="node6" class="node">
<title>Node5</title>
<g id="a_node6"><a xlink:href="_abstract_board_cell_8hpp.html" target="_top" xlink:title="../AbstractBoardCell.hpp">
<polygon fill="none" stroke="#000000" points="144.5,-56.5 144.5,-75.5 278.5,-75.5 278.5,-56.5 144.5,-56.5"/>
<text text-anchor="middle" x="211.5" y="-63.5" font-family="Helvetica,sans-Serif" font-size="10.00" fill="#000000">../AbstractBoardCell.hpp</text>
</a>
</g>
</g>
<!-- Node1&#45;&gt;Node5 -->
<g id="edge5" class="edge">
<title>Node1&#45;&gt;Node5</title>
<path fill="none" stroke="#191970" d="M153.6931,-112.2455C164.1321,-103.8943 179.3655,-91.7076 191.574,-81.9408"/>
<polygon fill="#191970" stroke="#191970" points="193.8244,-84.6227 199.4467,-75.6427 189.4515,-79.1566 193.8244,-84.6227"/>
</g>
<!-- Node3 -->
<g id="node4" class="node">
<title>Node3</title>
<polygon fill="none" stroke="#bfbfbf" points="0,-.5 0,-19.5 53,-19.5 53,-.5 0,-.5"/>
<text text-anchor="middle" x="26.5" y="-7.5" font-family="Helvetica,sans-Serif" font-size="10.00" fill="#000000">stdlib.h</text>
</g>
<!-- Node2&#45;&gt;Node3 -->
<g id="edge3" class="edge">
<title>Node2&#45;&gt;Node3</title>
<path fill="none" stroke="#191970" d="M63.6616,-56.2455C57.338,-48.3761 48.2776,-37.101 40.6864,-27.6542"/>
<polygon fill="#191970" stroke="#191970" points="43.2408,-25.2454 34.2486,-19.6427 37.7842,-29.6302 43.2408,-25.2454"/>
</g>
<!-- Node4 -->
<g id="node5" class="node">
<title>Node4</title>
<polygon fill="none" stroke="#bfbfbf" points="71,-.5 71,-19.5 164,-19.5 164,-.5 71,-.5"/>
<text text-anchor="middle" x="117.5" y="-7.5" font-family="Helvetica,sans-Serif" font-size="10.00" fill="#000000">unordered_map</text>
</g>
<!-- Node2&#45;&gt;Node4 -->
<g id="edge4" class="edge">
<title>Node2&#45;&gt;Node4</title>
<path fill="none" stroke="#191970" d="M79.5126,-56.2455C85.9768,-48.3761 95.2385,-37.101 102.9983,-27.6542"/>
<polygon fill="#191970" stroke="#191970" points="105.9364,-29.5916 109.5792,-19.6427 100.5273,-25.1484 105.9364,-29.5916"/>
</g>
</g>
</svg>
