<?xml version="1.0" encoding="UTF-8" standalone="no"?>
<!DOCTYPE svg PUBLIC "-//W3C//DTD SVG 1.1//EN"
 "http://www.w3.org/Graphics/SVG/1.1/DTD/svg11.dtd">
<!-- Generated by graphviz version 2.40.1 (20161225.0304)
 -->
<!-- Title: /workspace/src/game_logic/tic_tac_toe/BoardCell.hpp Pages: 1 -->
<svg width="287pt" height="151pt"
 viewBox="0.00 0.00 286.50 151.00" xmlns="http://www.w3.org/2000/svg" xmlns:xlink="http://www.w3.org/1999/xlink">
<g id="graph0" class="graph" transform="scale(1 1) rotate(0) translate(4 147)">
<title>/workspace/src/game_logic/tic_tac_toe/BoardCell.hpp</title>
<!-- Node0 -->
<g id="node1" class="node">
<title>Node0</title>
<polygon fill="#bfbfbf" stroke="#000000" points="55,-112.5 55,-142.5 228,-142.5 228,-112.5 55,-112.5"/>
<text text-anchor="start" x="63" y="-130.5" font-family="Helvetica,sans-Serif" font-size="10.00" fill="#000000">/workspace/src/game</text>
<text text-anchor="middle" x="141.5" y="-119.5" font-family="Helvetica,sans-Serif" font-size="10.00" fill="#000000">_logic/tic_tac_toe/BoardCell.hpp</text>
</g>
<!-- Node1 -->
<g id="node2" class="node">
<title>Node1</title>
<g id="a_node2"><a xlink:href="_position_8hpp.html" target="_top" xlink:title="../utils/Position.hpp">
<polygon fill="none" stroke="#000000" points="16.5,-56.5 16.5,-75.5 126.5,-75.5 126.5,-56.5 16.5,-56.5"/>
<text text-anchor="middle" x="71.5" y="-63.5" font-family="Helvetica,sans-Serif" font-size="10.00" fill="#000000">../utils/Position.hpp</text>
</a>
</g>
</g>
<!-- Node0&#45;&gt;Node1 -->
<g id="edge1" class="edge">
<title>Node0&#45;&gt;Node1</title>
<path fill="none" stroke="#191970" d="M124.1966,-112.2977C113.9738,-103.3163 101.0177,-91.9334 90.5104,-82.702"/>
<polygon fill="#191970" stroke="#191970" points="92.5305,-79.8178 82.7079,-75.8469 87.9103,-85.0766 92.5305,-79.8178"/>
</g>
<!-- Node4 -->
<g id="node5" class="node">
<title>Node4</title>
<g id="a_node5"><a xlink:href="_abstract_board_cell_8hpp.html" target="_top" xlink:title="../AbstractBoardCell.hpp">
<polygon fill="none" stroke="#000000" points="144.5,-56.5 144.5,-75.5 278.5,-75.5 278.5,-56.5 144.5,-56.5"/>
<text text-anchor="middle" x="211.5" y="-63.5" font-family="Helvetica,sans-Serif" font-size="10.00" fill="#000000">../AbstractBoardCell.hpp</text>
</a>
</g>
</g>
<!-- Node0&#45;&gt;Node4 -->
<g id="edge4" class="edge">
<title>Node0&#45;&gt;Node4</title>
<path fill="none" stroke="#191970" d="M158.8034,-112.2977C169.0262,-103.3163 181.9823,-91.9334 192.4896,-82.702"/>
<polygon fill="#191970" stroke="#191970" points="195.0897,-85.0766 200.2921,-75.8469 190.4695,-79.8178 195.0897,-85.0766"/>
</g>
<!-- Node2 -->
<g id="node3" class="node">
<title>Node2</title>
<polygon fill="none" stroke="#bfbfbf" points="0,-.5 0,-19.5 53,-19.5 53,-.5 0,-.5"/>
<text text-anchor="middle" x="26.5" y="-7.5" font-family="Helvetica,sans-Serif" font-size="10.00" fill="#000000">stdlib.h</text>
</g>
<!-- Node1&#45;&gt;Node2 -->
<g id="edge2" class="edge">
<title>Node1&#45;&gt;Node2</title>
<path fill="none" stroke="#191970" d="M63.6616,-56.2455C57.338,-48.3761 48.2776,-37.101 40.6864,-27.6542"/>
<polygon fill="#191970" stroke="#191970" points="43.2408,-25.2454 34.2486,-19.6427 37.7842,-29.6302 43.2408,-25.2454"/>
</g>
<!-- Node3 -->
<g id="node4" class="node">
<title>Node3</title>
<polygon fill="none" stroke="#bfbfbf" points="71,-.5 71,-19.5 164,-19.5 164,-.5 71,-.5"/>
<text text-anchor="middle" x="117.5" y="-7.5" font-family="Helvetica,sans-Serif" font-size="10.00" fill="#000000">unordered_map</text>
</g>
<!-- Node1&#45;&gt;Node3 -->
<g id="edge3" class="edge">
<title>Node1&#45;&gt;Node3</title>
<path fill="none" stroke="#191970" d="M79.5126,-56.2455C85.9768,-48.3761 95.2385,-37.101 102.9983,-27.6542"/>
<polygon fill="#191970" stroke="#191970" points="105.9364,-29.5916 109.5792,-19.6427 100.5273,-25.1484 105.9364,-29.5916"/>
</g>
</g>
</svg>
