<?xml version="1.0" encoding="UTF-8" standalone="no"?>
<!DOCTYPE svg PUBLIC "-//W3C//DTD SVG 1.1//EN"
 "http://www.w3.org/Graphics/SVG/1.1/DTD/svg11.dtd">
<!-- Generated by graphviz version 2.40.1 (20161225.0304)
 -->
<!-- Title: /workspace/src/game_logic/tic_tac_toe/ConsoleGame.cpp Pages: 1 -->
<svg width="1361pt" height="341pt"
 viewBox="0.00 0.00 1361.00 341.00" xmlns="http://www.w3.org/2000/svg" xmlns:xlink="http://www.w3.org/1999/xlink">
<g id="graph0" class="graph" transform="scale(1 1) rotate(0) translate(4 337)">
<title>/workspace/src/game_logic/tic_tac_toe/ConsoleGame.cpp</title>
<!-- Node0 -->
<g id="node1" class="node">
<title>Node0</title>
<polygon fill="#bfbfbf" stroke="#000000" points="656,-291.5 656,-332.5 799,-332.5 799,-291.5 656,-291.5"/>
<text text-anchor="start" x="664" y="-320.5" font-family="Helvetica,sans-Serif" font-size="10.00" fill="#000000">/workspace/src/game</text>
<text text-anchor="start" x="664" y="-309.5" font-family="Helvetica,sans-Serif" font-size="10.00" fill="#000000">_logic/tic_tac_toe/Console</text>
<text text-anchor="middle" x="727.5" y="-298.5" font-family="Helvetica,sans-Serif" font-size="10.00" fill="#000000">Game.cpp</text>
</g>
<!-- Node1 -->
<g id="node2" class="node">
<title>Node1</title>
<g id="a_node2"><a xlink:href="_m_c_t_s_player_8hpp.html" target="_top" xlink:title="../../mcts/MCTSPlayer.hpp">
<polygon fill="none" stroke="#000000" points="474.5,-179.5 474.5,-198.5 614.5,-198.5 614.5,-179.5 474.5,-179.5"/>
<text text-anchor="middle" x="544.5" y="-186.5" font-family="Helvetica,sans-Serif" font-size="10.00" fill="#000000">../../mcts/MCTSPlayer.hpp</text>
</a>
</g>
</g>
<!-- Node0&#45;&gt;Node1 -->
<g id="edge1" class="edge">
<title>Node0&#45;&gt;Node1</title>
<path fill="none" stroke="#191970" d="M696.8699,-291.4126C660.2259,-266.783 599.7444,-226.1315 567.0904,-204.1837"/>
<polygon fill="#191970" stroke="#191970" points="568.9131,-201.1917 558.6612,-198.5182 565.0083,-207.0014 568.9131,-201.1917"/>
</g>
<!-- Node11 -->
<g id="node12" class="node">
<title>Node11</title>
<g id="a_node12"><a xlink:href="tic__tac__toe_2_board_8hpp.html" target="_top" xlink:title="Board.hpp">
<polygon fill="none" stroke="#000000" points="985.5,-179.5 985.5,-198.5 1051.5,-198.5 1051.5,-179.5 985.5,-179.5"/>
<text text-anchor="middle" x="1018.5" y="-186.5" font-family="Helvetica,sans-Serif" font-size="10.00" fill="#000000">Board.hpp</text>
</a>
</g>
</g>
<!-- Node0&#45;&gt;Node11 -->
<g id="edge15" class="edge">
<title>Node0&#45;&gt;Node11</title>
<path fill="none" stroke="#191970" d="M776.2069,-291.4126C835.971,-266.1514 935.6093,-224.0363 986.4831,-202.5329"/>
<polygon fill="#191970" stroke="#191970" points="988.1331,-205.6354 995.9814,-198.5182 985.4078,-199.1877 988.1331,-205.6354"/>
</g>
<!-- Node22 -->
<g id="node23" class="node">
<title>Node22</title>
<g id="a_node23"><a xlink:href="tic__tac__toe_2_board_cell_8hpp.html" target="_top" xlink:title="BoardCell.hpp">
<polygon fill="none" stroke="#000000" points="645,-179.5 645,-198.5 730,-198.5 730,-179.5 645,-179.5"/>
<text text-anchor="middle" x="687.5" y="-186.5" font-family="Helvetica,sans-Serif" font-size="10.00" fill="#000000">BoardCell.hpp</text>
</a>
</g>
</g>
<!-- Node0&#45;&gt;Node22 -->
<g id="edge29" class="edge">
<title>Node0&#45;&gt;Node22</title>
<path fill="none" stroke="#191970" d="M719.4545,-291.2811C715.3822,-280.5235 710.4734,-267.1264 706.5,-255 701.4529,-239.5971 696.4085,-221.9424 692.7871,-208.7705"/>
<polygon fill="#191970" stroke="#191970" points="696.1077,-207.6426 690.1109,-198.9082 689.352,-209.4759 696.1077,-207.6426"/>
</g>
<!-- Node23 -->
<g id="node24" class="node">
<title>Node23</title>
<g id="a_node24"><a xlink:href="tic__tac__toe_2_console_game_8hpp.html" target="_top" xlink:title="ConsoleGame.hpp">
<polygon fill="none" stroke="#000000" points="715.5,-235.5 715.5,-254.5 821.5,-254.5 821.5,-235.5 715.5,-235.5"/>
<text text-anchor="middle" x="768.5" y="-242.5" font-family="Helvetica,sans-Serif" font-size="10.00" fill="#000000">ConsoleGame.hpp</text>
</a>
</g>
</g>
<!-- Node0&#45;&gt;Node23 -->
<g id="edge32" class="edge">
<title>Node0&#45;&gt;Node23</title>
<path fill="none" stroke="#191970" d="M740.2479,-291.168C745.703,-282.2536 752.017,-271.9356 757.2907,-263.3177"/>
<polygon fill="#191970" stroke="#191970" points="760.2806,-265.137 762.5149,-254.7805 754.3099,-261.4833 760.2806,-265.137"/>
</g>
<!-- Node2 -->
<g id="node3" class="node">
<title>Node2</title>
<g id="a_node3"><a xlink:href="_abstract_board_cell_8hpp.html" target="_top" xlink:title="../game_logic/AbstractBoard\lCell.hpp">
<polygon fill="none" stroke="#000000" points="240.5,-56.5 240.5,-86.5 394.5,-86.5 394.5,-56.5 240.5,-56.5"/>
<text text-anchor="start" x="248.5" y="-74.5" font-family="Helvetica,sans-Serif" font-size="10.00" fill="#000000">../game_logic/AbstractBoard</text>
<text text-anchor="middle" x="317.5" y="-63.5" font-family="Helvetica,sans-Serif" font-size="10.00" fill="#000000">Cell.hpp</text>
</a>
</g>
</g>
<!-- Node1&#45;&gt;Node2 -->
<g id="edge2" class="edge">
<title>Node1&#45;&gt;Node2</title>
<path fill="none" stroke="#191970" d="M497.4218,-179.4683C467.7672,-172.2094 429.3905,-160.4497 398.5,-143 375.4824,-129.9976 353.2585,-109.6408 337.9308,-93.9682"/>
<polygon fill="#191970" stroke="#191970" points="340.4268,-91.5141 330.987,-86.7035 335.3665,-96.3508 340.4268,-91.5141"/>
</g>
<!-- Node3 -->
<g id="node4" class="node">
<title>Node3</title>
<g id="a_node4"><a xlink:href="_abstract_game_8hpp.html" target="_top" xlink:title="../game_logic/AbstractGame.hpp">
<polygon fill="none" stroke="#000000" points="412.5,-62 412.5,-81 588.5,-81 588.5,-62 412.5,-62"/>
<text text-anchor="middle" x="500.5" y="-69" font-family="Helvetica,sans-Serif" font-size="10.00" fill="#000000">../game_logic/AbstractGame.hpp</text>
</a>
</g>
</g>
<!-- Node1&#45;&gt;Node3 -->
<g id="edge3" class="edge">
<title>Node1&#45;&gt;Node3</title>
<path fill="none" stroke="#191970" d="M540.8993,-179.3845C533.6798,-160.1053 517.3122,-116.3963 507.7737,-90.9241"/>
<polygon fill="#191970" stroke="#191970" points="510.9351,-89.3859 504.1505,-81.2484 504.3797,-91.8407 510.9351,-89.3859"/>
</g>
<!-- Node6 -->
<g id="node7" class="node">
<title>Node6</title>
<g id="a_node7"><a xlink:href="_abstract_player_8hpp.html" target="_top" xlink:title="../game_logic/AbstractPlayer.hpp">
<polygon fill="none" stroke="#000000" points="606.5,-62 606.5,-81 782.5,-81 782.5,-62 606.5,-62"/>
<text text-anchor="middle" x="694.5" y="-69" font-family="Helvetica,sans-Serif" font-size="10.00" fill="#000000">../game_logic/AbstractPlayer.hpp</text>
</a>
</g>
</g>
<!-- Node1&#45;&gt;Node6 -->
<g id="edge6" class="edge">
<title>Node1&#45;&gt;Node6</title>
<path fill="none" stroke="#191970" d="M556.7751,-179.3845C582.4856,-159.2446 642.2298,-112.445 673.9143,-87.6255"/>
<polygon fill="#191970" stroke="#191970" points="676.3413,-90.1703 682.0553,-81.2484 672.0246,-84.6597 676.3413,-90.1703"/>
</g>
<!-- Node7 -->
<g id="node8" class="node">
<title>Node7</title>
<g id="a_node8"><a xlink:href="_tree_8hpp.html" target="_top" xlink:title="Tree.hpp">
<polygon fill="none" stroke="#000000" points="235.5,-123.5 235.5,-142.5 293.5,-142.5 293.5,-123.5 235.5,-123.5"/>
<text text-anchor="middle" x="264.5" y="-130.5" font-family="Helvetica,sans-Serif" font-size="10.00" fill="#000000">Tree.hpp</text>
</a>
</g>
</g>
<!-- Node1&#45;&gt;Node7 -->
<g id="edge7" class="edge">
<title>Node1&#45;&gt;Node7</title>
<path fill="none" stroke="#191970" d="M496.6844,-179.4369C442.1791,-168.5358 354.1157,-150.9231 303.5571,-140.8114"/>
<polygon fill="#191970" stroke="#191970" points="304.1571,-137.3622 293.6648,-138.833 302.7842,-144.2262 304.1571,-137.3622"/>
</g>
<!-- Node4 -->
<g id="node5" class="node">
<title>Node4</title>
<polygon fill="none" stroke="#bfbfbf" points="1306,-.5 1306,-19.5 1353,-19.5 1353,-.5 1306,-.5"/>
<text text-anchor="middle" x="1329.5" y="-7.5" font-family="Helvetica,sans-Serif" font-size="10.00" fill="#000000">vector</text>
</g>
<!-- Node3&#45;&gt;Node4 -->
<g id="edge4" class="edge">
<title>Node3&#45;&gt;Node4</title>
<path fill="none" stroke="#191970" d="M553.4763,-61.9833C567.73,-59.7108 583.1687,-57.5092 597.5,-56 903.9812,-23.7259 989.0312,-73.796 1295.8263,-19.8951"/>
<polygon fill="#191970" stroke="#191970" points="1296.6677,-23.3004 1305.8997,-18.1022 1295.441,-16.4087 1296.6677,-23.3004"/>
</g>
<!-- Node5 -->
<g id="node6" class="node">
<title>Node5</title>
<g id="a_node6"><a xlink:href="_move_8hpp.html" target="_top" xlink:title="utils/Move.hpp">
<polygon fill="none" stroke="#000000" points="611.5,-.5 611.5,-19.5 699.5,-19.5 699.5,-.5 611.5,-.5"/>
<text text-anchor="middle" x="655.5" y="-7.5" font-family="Helvetica,sans-Serif" font-size="10.00" fill="#000000">utils/Move.hpp</text>
</a>
</g>
</g>
<!-- Node3&#45;&gt;Node5 -->
<g id="edge5" class="edge">
<title>Node3&#45;&gt;Node5</title>
<path fill="none" stroke="#191970" d="M524.7188,-61.8906C550.8806,-51.5103 592.7429,-34.9004 622.0388,-23.2766"/>
<polygon fill="#191970" stroke="#191970" points="623.4471,-26.4833 631.4513,-19.5419 620.8654,-19.9767 623.4471,-26.4833"/>
</g>
<!-- Node7&#45;&gt;Node2 -->
<g id="edge13" class="edge">
<title>Node7&#45;&gt;Node2</title>
<path fill="none" stroke="#191970" d="M272.7813,-123.3906C279.4892,-115.6068 289.2159,-104.3202 297.8859,-94.2597"/>
<polygon fill="#191970" stroke="#191970" points="300.6578,-96.4046 304.5347,-86.5446 295.3552,-91.8349 300.6578,-96.4046"/>
</g>
<!-- Node7&#45;&gt;Node3 -->
<g id="edge12" class="edge">
<title>Node7&#45;&gt;Node3</title>
<path fill="none" stroke="#191970" d="M293.9124,-125.3353C334.0567,-114.874 406.4375,-96.0121 453.979,-83.6231"/>
<polygon fill="#191970" stroke="#191970" points="454.932,-86.9917 463.7262,-81.083 453.1668,-80.2179 454.932,-86.9917"/>
</g>
<!-- Node7&#45;&gt;Node5 -->
<g id="edge14" class="edge">
<title>Node7&#45;&gt;Node5</title>
<path fill="none" stroke="#191970" d="M254.3947,-123.3931C239.0398,-107.6584 213.4325,-76.1337 231.5,-56 255.7828,-28.9402 492.3963,-16.3249 601.2279,-11.9182"/>
<polygon fill="#191970" stroke="#191970" points="601.4961,-15.4104 611.3496,-11.5172 601.2189,-8.4159 601.4961,-15.4104"/>
</g>
<!-- Node7&#45;&gt;Node6 -->
<g id="edge11" class="edge">
<title>Node7&#45;&gt;Node6</title>
<path fill="none" stroke="#191970" d="M293.9298,-129.1477C352.0217,-121.4963 485.5141,-103.6802 597.5,-87 606.8267,-85.6108 616.6497,-84.0986 626.3194,-82.5814"/>
<polygon fill="#191970" stroke="#191970" points="626.9818,-86.0202 636.3135,-81.0034 625.89,-79.1059 626.9818,-86.0202"/>
</g>
<!-- Node8 -->
<g id="node9" class="node">
<title>Node8</title>
<polygon fill="none" stroke="#bfbfbf" points="134.5,-62 134.5,-81 184.5,-81 184.5,-62 134.5,-62"/>
<text text-anchor="middle" x="159.5" y="-69" font-family="Helvetica,sans-Serif" font-size="10.00" fill="#000000">chrono</text>
</g>
<!-- Node7&#45;&gt;Node8 -->
<g id="edge8" class="edge">
<title>Node7&#45;&gt;Node8</title>
<path fill="none" stroke="#191970" d="M248.0938,-123.3906C231.0647,-113.4165 204.2159,-97.6908 184.5349,-86.1633"/>
<polygon fill="#191970" stroke="#191970" points="186.1888,-83.0759 175.791,-81.0419 182.651,-89.1161 186.1888,-83.0759"/>
</g>
<!-- Node9 -->
<g id="node10" class="node">
<title>Node9</title>
<polygon fill="none" stroke="#bfbfbf" points="0,-62 0,-81 51,-81 51,-62 0,-62"/>
<text text-anchor="middle" x="25.5" y="-69" font-family="Helvetica,sans-Serif" font-size="10.00" fill="#000000">math.h</text>
</g>
<!-- Node7&#45;&gt;Node9 -->
<g id="edge9" class="edge">
<title>Node7&#45;&gt;Node9</title>
<path fill="none" stroke="#191970" d="M235.4658,-128.438C195.2689,-121.6844 120.6973,-107.5681 59.5,-87 57.6552,-86.38 55.7759,-85.6924 53.8955,-84.9617"/>
<polygon fill="#191970" stroke="#191970" points="55.2131,-81.7189 44.6387,-81.0606 52.4946,-88.1695 55.2131,-81.7189"/>
</g>
<!-- Node10 -->
<g id="node11" class="node">
<title>Node10</title>
<polygon fill="none" stroke="#bfbfbf" points="69,-62 69,-81 116,-81 116,-62 69,-62"/>
<text text-anchor="middle" x="92.5" y="-69" font-family="Helvetica,sans-Serif" font-size="10.00" fill="#000000">queue</text>
</g>
<!-- Node7&#45;&gt;Node10 -->
<g id="edge10" class="edge">
<title>Node7&#45;&gt;Node10</title>
<path fill="none" stroke="#191970" d="M235.3876,-124.4765C207.0109,-115.9093 162.8068,-101.8728 125.5,-87 124.1036,-86.4433 122.6822,-85.8565 121.2526,-85.2499"/>
<polygon fill="#191970" stroke="#191970" points="122.4328,-81.9441 111.874,-81.0707 119.5835,-88.338 122.4328,-81.9441"/>
</g>
<!-- Node12 -->
<g id="node13" class="node">
<title>Node12</title>
<polygon fill="none" stroke="#bfbfbf" points="1289.5,-123.5 1289.5,-142.5 1331.5,-142.5 1331.5,-123.5 1289.5,-123.5"/>
<text text-anchor="middle" x="1310.5" y="-130.5" font-family="Helvetica,sans-Serif" font-size="10.00" fill="#000000">array</text>
</g>
<!-- Node11&#45;&gt;Node12 -->
<g id="edge16" class="edge">
<title>Node11&#45;&gt;Node12</title>
<path fill="none" stroke="#191970" d="M1051.506,-184.8031C1099.7007,-178.3296 1192.2394,-164.5966 1279.5189,-142.9613"/>
<polygon fill="#191970" stroke="#191970" points="1280.4678,-146.3317 1289.3098,-140.4948 1278.7577,-139.5438 1280.4678,-146.3317"/>
</g>
<!-- Node13 -->
<g id="node14" class="node">
<title>Node13</title>
<g id="a_node14"><a xlink:href="_position_8hpp.html" target="_top" xlink:title="../utils/Position.hpp">
<polygon fill="none" stroke="#000000" points="843.5,-123.5 843.5,-142.5 953.5,-142.5 953.5,-123.5 843.5,-123.5"/>
<text text-anchor="middle" x="898.5" y="-130.5" font-family="Helvetica,sans-Serif" font-size="10.00" fill="#000000">../utils/Position.hpp</text>
</a>
</g>
</g>
<!-- Node11&#45;&gt;Node13 -->
<g id="edge17" class="edge">
<title>Node11&#45;&gt;Node13</title>
<path fill="none" stroke="#191970" d="M997.8713,-179.3733C978.6081,-170.3838 949.6514,-156.8706 927.9581,-146.7471"/>
<polygon fill="#191970" stroke="#191970" points="929.4015,-143.5584 918.8595,-142.5011 926.4413,-149.9017 929.4015,-143.5584"/>
</g>
<!-- Node16 -->
<g id="node17" class="node">
<title>Node16</title>
<g id="a_node17"><a xlink:href="_abstract_board_8hpp.html" target="_top" xlink:title="../AbstractBoard.hpp">
<polygon fill="none" stroke="#000000" points="1155.5,-123.5 1155.5,-142.5 1271.5,-142.5 1271.5,-123.5 1155.5,-123.5"/>
<text text-anchor="middle" x="1213.5" y="-130.5" font-family="Helvetica,sans-Serif" font-size="10.00" fill="#000000">../AbstractBoard.hpp</text>
</a>
</g>
</g>
<!-- Node11&#45;&gt;Node16 -->
<g id="edge20" class="edge">
<title>Node11&#45;&gt;Node16</title>
<path fill="none" stroke="#191970" d="M1051.5791,-179.5004C1084.3556,-170.0876 1134.7129,-155.626 1170.5595,-145.3316"/>
<polygon fill="#191970" stroke="#191970" points="1171.6132,-148.6706 1180.2586,-142.5462 1169.681,-141.9425 1171.6132,-148.6706"/>
</g>
<!-- Node19 -->
<g id="node20" class="node">
<title>Node19</title>
<g id="a_node20"><a xlink:href="_player_8hpp.html" target="_top" xlink:title="Player.hpp">
<polygon fill="none" stroke="#000000" points="984.5,-123.5 984.5,-142.5 1052.5,-142.5 1052.5,-123.5 984.5,-123.5"/>
<text text-anchor="middle" x="1018.5" y="-130.5" font-family="Helvetica,sans-Serif" font-size="10.00" fill="#000000">Player.hpp</text>
</a>
</g>
</g>
<!-- Node11&#45;&gt;Node19 -->
<g id="edge25" class="edge">
<title>Node11&#45;&gt;Node19</title>
<path fill="none" stroke="#191970" d="M1018.5,-179.2455C1018.5,-171.9382 1018.5,-161.6944 1018.5,-152.7046"/>
<polygon fill="#191970" stroke="#191970" points="1022.0001,-152.6426 1018.5,-142.6427 1015.0001,-152.6427 1022.0001,-152.6426"/>
</g>
<!-- Node14 -->
<g id="node15" class="node">
<title>Node14</title>
<polygon fill="none" stroke="#bfbfbf" points="839,-62 839,-81 892,-81 892,-62 839,-62"/>
<text text-anchor="middle" x="865.5" y="-69" font-family="Helvetica,sans-Serif" font-size="10.00" fill="#000000">stdlib.h</text>
</g>
<!-- Node13&#45;&gt;Node14 -->
<g id="edge18" class="edge">
<title>Node13&#45;&gt;Node14</title>
<path fill="none" stroke="#191970" d="M893.3438,-123.3906C888.5768,-114.5068 881.3615,-101.0601 875.4703,-90.0811"/>
<polygon fill="#191970" stroke="#191970" points="878.5412,-88.4016 870.7289,-81.2449 872.3731,-91.7114 878.5412,-88.4016"/>
</g>
<!-- Node15 -->
<g id="node16" class="node">
<title>Node15</title>
<polygon fill="none" stroke="#bfbfbf" points="910,-62 910,-81 1003,-81 1003,-62 910,-62"/>
<text text-anchor="middle" x="956.5" y="-69" font-family="Helvetica,sans-Serif" font-size="10.00" fill="#000000">unordered_map</text>
</g>
<!-- Node13&#45;&gt;Node15 -->
<g id="edge19" class="edge">
<title>Node13&#45;&gt;Node15</title>
<path fill="none" stroke="#191970" d="M907.5625,-123.3906C916.2793,-114.1478 929.654,-99.966 940.2196,-88.7628"/>
<polygon fill="#191970" stroke="#191970" points="942.995,-90.9213 947.3097,-81.2449 937.9024,-86.1186 942.995,-90.9213"/>
</g>
<!-- Node16&#45;&gt;Node4 -->
<g id="edge21" class="edge">
<title>Node16&#45;&gt;Node4</title>
<path fill="none" stroke="#191970" d="M1253.0962,-123.3672C1273.3801,-116.4688 1296.8312,-105.1103 1311.5,-87 1324.5584,-70.8779 1328.4721,-46.9567 1329.4871,-30.063"/>
<polygon fill="#191970" stroke="#191970" points="1332.9974,-29.7741 1329.8035,-19.6722 1326.0007,-29.561 1332.9974,-29.7741"/>
</g>
<!-- Node17 -->
<g id="node18" class="node">
<title>Node17</title>
<g id="a_node18"><a xlink:href="_history_8hpp.html" target="_top" xlink:title="History.hpp">
<polygon fill="none" stroke="#000000" points="1231,-62 1231,-81 1302,-81 1302,-62 1231,-62"/>
<text text-anchor="middle" x="1266.5" y="-69" font-family="Helvetica,sans-Serif" font-size="10.00" fill="#000000">History.hpp</text>
</a>
</g>
</g>
<!-- Node16&#45;&gt;Node17 -->
<g id="edge22" class="edge">
<title>Node16&#45;&gt;Node17</title>
<path fill="none" stroke="#191970" d="M1221.7813,-123.3906C1229.6693,-114.2376 1241.7314,-100.2409 1251.3412,-89.09"/>
<polygon fill="#191970" stroke="#191970" points="1254.2251,-91.1049 1258.102,-81.2449 1248.9225,-86.5352 1254.2251,-91.1049"/>
</g>
<!-- Node17&#45;&gt;Node5 -->
<g id="edge24" class="edge">
<title>Node17&#45;&gt;Node5</title>
<path fill="none" stroke="#191970" d="M1243.0728,-61.9917C1236.5133,-59.676 1229.3124,-57.4508 1222.5,-56 1125.5903,-35.3622 832.2667,-18.8166 709.9613,-12.6268"/>
<polygon fill="#191970" stroke="#191970" points="709.8752,-9.1182 699.7122,-12.1122 709.524,-16.1094 709.8752,-9.1182"/>
</g>
<!-- Node18 -->
<g id="node19" class="node">
<title>Node18</title>
<polygon fill="none" stroke="#bfbfbf" points="1245,-.5 1245,-19.5 1288,-19.5 1288,-.5 1245,-.5"/>
<text text-anchor="middle" x="1266.5" y="-7.5" font-family="Helvetica,sans-Serif" font-size="10.00" fill="#000000">stack</text>
</g>
<!-- Node17&#45;&gt;Node18 -->
<g id="edge23" class="edge">
<title>Node17&#45;&gt;Node18</title>
<path fill="none" stroke="#191970" d="M1266.5,-61.8906C1266.5,-53.3657 1266.5,-40.6392 1266.5,-29.9235"/>
<polygon fill="#191970" stroke="#191970" points="1270.0001,-29.7448 1266.5,-19.7449 1263.0001,-29.7449 1270.0001,-29.7448"/>
</g>
<!-- Node19&#45;&gt;Node6 -->
<g id="edge27" class="edge">
<title>Node19&#45;&gt;Node6</title>
<path fill="none" stroke="#191970" d="M984.4387,-126.5347C929.9637,-116.1945 822.498,-95.7959 754.8057,-82.9469"/>
<polygon fill="#191970" stroke="#191970" points="755.1851,-79.4565 744.7078,-81.0302 753.8797,-86.3337 755.1851,-79.4565"/>
</g>
<!-- Node20 -->
<g id="node21" class="node">
<title>Node20</title>
<polygon fill="none" stroke="#bfbfbf" points="1021.5,-62 1021.5,-81 1081.5,-81 1081.5,-62 1021.5,-62"/>
<text text-anchor="middle" x="1051.5" y="-69" font-family="Helvetica,sans-Serif" font-size="10.00" fill="#000000">iostream</text>
</g>
<!-- Node19&#45;&gt;Node20 -->
<g id="edge26" class="edge">
<title>Node19&#45;&gt;Node20</title>
<path fill="none" stroke="#191970" d="M1023.6563,-123.3906C1028.4232,-114.5068 1035.6385,-101.0601 1041.5297,-90.0811"/>
<polygon fill="#191970" stroke="#191970" points="1044.6269,-91.7114 1046.2711,-81.2449 1038.4588,-88.4016 1044.6269,-91.7114"/>
</g>
<!-- Node21 -->
<g id="node22" class="node">
<title>Node21</title>
<g id="a_node22"><a xlink:href="_abstract_pawn_8hpp.html" target="_top" xlink:title="../AbstractPawn.hpp">
<polygon fill="none" stroke="#000000" points="1100,-62 1100,-81 1213,-81 1213,-62 1100,-62"/>
<text text-anchor="middle" x="1156.5" y="-69" font-family="Helvetica,sans-Serif" font-size="10.00" fill="#000000">../AbstractPawn.hpp</text>
</a>
</g>
</g>
<!-- Node19&#45;&gt;Node21 -->
<g id="edge28" class="edge">
<title>Node19&#45;&gt;Node21</title>
<path fill="none" stroke="#191970" d="M1040.0625,-123.3906C1063.0512,-113.1457 1099.656,-96.8326 1125.6824,-85.2339"/>
<polygon fill="#191970" stroke="#191970" points="1127.3796,-88.3095 1135.0889,-81.0419 1124.5302,-81.9156 1127.3796,-88.3095"/>
</g>
<!-- Node22&#45;&gt;Node2 -->
<g id="edge31" class="edge">
<title>Node22&#45;&gt;Node2</title>
<path fill="none" stroke="#191970" d="M657.5348,-179.484C595.996,-159.9413 454.4756,-114.999 374.7661,-89.6858"/>
<polygon fill="#191970" stroke="#191970" points="375.4792,-86.2401 364.8889,-86.5492 373.3604,-92.9118 375.4792,-86.2401"/>
</g>
<!-- Node22&#45;&gt;Node13 -->
<g id="edge30" class="edge">
<title>Node22&#45;&gt;Node13</title>
<path fill="none" stroke="#191970" d="M723.7722,-179.3733C759.4658,-169.9001 814.0879,-155.4032 852.7451,-145.1435"/>
<polygon fill="#191970" stroke="#191970" points="853.9336,-148.4493 862.7011,-142.5011 852.1379,-141.6835 853.9336,-148.4493"/>
</g>
<!-- Node23&#45;&gt;Node1 -->
<g id="edge38" class="edge">
<title>Node23&#45;&gt;Node1</title>
<path fill="none" stroke="#191970" d="M730.2475,-235.4369C692.1533,-225.9133 633.5687,-211.2672 592.4013,-200.9753"/>
<polygon fill="#191970" stroke="#191970" points="593.145,-197.5536 582.5947,-198.5237 591.4472,-204.3446 593.145,-197.5536"/>
</g>
<!-- Node23&#45;&gt;Node19 -->
<g id="edge37" class="edge">
<title>Node23&#45;&gt;Node19</title>
<path fill="none" stroke="#191970" d="M773.5514,-235.2154C781.6263,-220.5956 798.865,-193.2478 821.5,-179 834.3797,-170.8927 920.1272,-152.6765 974.1655,-141.7567"/>
<polygon fill="#191970" stroke="#191970" points="975.0767,-145.1436 984.1905,-139.741 973.6967,-138.281 975.0767,-145.1436"/>
</g>
<!-- Node24 -->
<g id="node25" class="node">
<title>Node24</title>
<g id="a_node25"><a xlink:href="_abstract_interface_8hpp.html" target="_top" xlink:title="../AbstractInterface.hpp">
<polygon fill="none" stroke="#000000" points="830,-179.5 830,-198.5 961,-198.5 961,-179.5 830,-179.5"/>
<text text-anchor="middle" x="895.5" y="-186.5" font-family="Helvetica,sans-Serif" font-size="10.00" fill="#000000">../AbstractInterface.hpp</text>
</a>
</g>
</g>
<!-- Node23&#45;&gt;Node24 -->
<g id="edge33" class="edge">
<title>Node23&#45;&gt;Node24</title>
<path fill="none" stroke="#191970" d="M790.3321,-235.3733C810.8103,-226.3435 841.6399,-212.7494 864.6319,-202.6111"/>
<polygon fill="#191970" stroke="#191970" points="866.215,-205.7383 873.9528,-198.5011 863.3907,-199.3333 866.215,-205.7383"/>
</g>
<!-- Node25 -->
<g id="node26" class="node">
<title>Node25</title>
<g id="a_node26"><a xlink:href="_tic_tac_toe_8hpp.html" target="_top" xlink:title="TicTacToe.hpp">
<polygon fill="none" stroke="#000000" points="721.5,-123.5 721.5,-142.5 805.5,-142.5 805.5,-123.5 721.5,-123.5"/>
<text text-anchor="middle" x="763.5" y="-130.5" font-family="Helvetica,sans-Serif" font-size="10.00" fill="#000000">TicTacToe.hpp</text>
</a>
</g>
</g>
<!-- Node23&#45;&gt;Node25 -->
<g id="edge34" class="edge">
<title>Node23&#45;&gt;Node25</title>
<path fill="none" stroke="#191970" d="M768.0737,-235.4509C767.2582,-217.184 765.4623,-176.9553 764.3794,-152.6976"/>
<polygon fill="#191970" stroke="#191970" points="767.8678,-152.3588 763.9252,-142.5249 760.8748,-152.6711 767.8678,-152.3588"/>
</g>
<!-- Node25&#45;&gt;Node3 -->
<g id="edge36" class="edge">
<title>Node25&#45;&gt;Node3</title>
<path fill="none" stroke="#191970" d="M722.6948,-123.4581C676.5311,-112.6632 601.2928,-95.0694 551.346,-83.3899"/>
<polygon fill="#191970" stroke="#191970" points="551.9352,-79.9333 541.4009,-81.0643 550.3413,-86.7494 551.9352,-79.9333"/>
</g>
<!-- Node25&#45;&gt;Node5 -->
<g id="edge35" class="edge">
<title>Node25&#45;&gt;Node5</title>
<path fill="none" stroke="#191970" d="M772.5192,-123.2002C785.6171,-107.7406 806.7568,-77.2663 791.5,-56 781.5159,-42.0832 743.0554,-29.8513 709.5712,-21.5062"/>
<polygon fill="#191970" stroke="#191970" points="710.3755,-18.0999 699.8329,-19.1506 708.7297,-24.9036 710.3755,-18.0999"/>
</g>
</g>
</svg>
