<?xml version="1.0" encoding="UTF-8" standalone="no"?>
<!DOCTYPE svg PUBLIC "-//W3C//DTD SVG 1.1//EN"
 "http://www.w3.org/Graphics/SVG/1.1/DTD/svg11.dtd">
<!-- Generated by graphviz version 2.40.1 (20161225.0304)
 -->
<!-- Title: dependencies Pages: 1 -->
<svg width="556pt" height="211pt"
 viewBox="0.00 0.00 556.00 211.00" xmlns="http://www.w3.org/2000/svg" xmlns:xlink="http://www.w3.org/1999/xlink">
<g id="graph0" class="graph" transform="scale(1 1) rotate(0) translate(4 207)">
<title>dependencies</title>
<polygon fill="#ffffff" stroke="transparent" points="-4,4 -4,-207 552,-207 552,4 -4,4"/>
<text text-anchor="start" x="253.0091" y="-42.4" font-family="sans-serif" font-weight="bold" font-size="14.00" fill="#000000">Legend</text>
<polygon fill="#ffffb3" stroke="transparent" points="40,-10 40,-30 60,-30 60,-10 40,-10"/>
<text text-anchor="start" x="63.629" y="-15.4" font-family="sans-serif" font-size="14.00" fill="#000000"> &#160;Declarations</text>
<polygon fill="#8dd3c7" stroke="transparent" points="153,-10 153,-30 173,-30 173,-10 153,-10"/>
<text text-anchor="start" x="176.7251" y="-15.4" font-family="sans-serif" font-size="14.00" fill="#000000"> &#160;Module</text>
<polygon fill="#80b1d3" stroke="transparent" points="239,-10 239,-30 259,-30 259,-10 239,-10"/>
<text text-anchor="start" x="262.7812" y="-15.4" font-family="sans-serif" font-size="14.00" fill="#000000"> &#160;Bootstrap</text>
<polygon fill="#fdb462" stroke="transparent" points="336,-10 336,-30 356,-30 356,-10 336,-10"/>
<text text-anchor="start" x="359.6732" y="-15.4" font-family="sans-serif" font-size="14.00" fill="#000000"> &#160;Providers</text>
<polygon fill="#fb8072" stroke="transparent" points="432,-10 432,-30 452,-30 452,-10 432,-10"/>
<text text-anchor="start" x="455.7258" y="-15.4" font-family="sans-serif" font-size="14.00" fill="#000000"> &#160;Exports</text>
<g id="clust1" class="cluster">
<title>cluster_HomeModule</title>
<polygon fill="none" stroke="#000000" stroke-dasharray="1,5" points="8,-70 8,-195 540,-195 540,-70 8,-70"/>
</g>
<g id="clust2" class="cluster">
<title>cluster_HomeModule_declarations</title>
<polygon fill="none" stroke="#000000" points="400,-78 400,-130 532,-130 532,-78 400,-78"/>
</g>
<g id="clust4" class="cluster">
<title>cluster_HomeModule_imports</title>
<polygon fill="none" stroke="#000000" points="16,-78 16,-130 392,-130 392,-78 16,-78"/>
</g>
<!-- HomeComponent -->
<g id="node1" class="node">
<title>HomeComponent</title>
<polygon fill="#ffffb3" stroke="#000000" points="523.5451,-122 408.4549,-122 408.4549,-86 523.5451,-86 523.5451,-122"/>
<text text-anchor="middle" x="466" y="-99.8" font-family="Times,serif" font-size="14.00" fill="#000000">HomeComponent</text>
</g>
<!-- HomeModule -->
<g id="node2" class="node">
<title>HomeModule</title>
<polygon fill="#8dd3c7" stroke="#000000" points="321.7619,-187 318.7619,-191 297.7619,-191 294.7619,-187 228.2381,-187 228.2381,-151 321.7619,-151 321.7619,-187"/>
<text text-anchor="middle" x="275" y="-164.8" font-family="Times,serif" font-size="14.00" fill="#000000">HomeModule</text>
</g>
<!-- HomeComponent&#45;&gt;HomeModule -->
<g id="edge1" class="edge">
<title>HomeComponent&#45;&gt;HomeModule</title>
<path fill="none" stroke="#000000" d="M466,-122.1061C466,-141.3391 466,-169 466,-169 466,-169 332.2135,-169 332.2135,-169"/>
<polygon fill="#000000" stroke="#000000" points="332.2135,-165.5001 322.2135,-169 332.2135,-172.5001 332.2135,-165.5001"/>
</g>
<!-- CoreModule -->
<g id="node3" class="node">
<title>CoreModule</title>
<polygon fill="#8dd3c7" stroke="#000000" points="384.2619,-122 381.2619,-126 360.2619,-126 357.2619,-122 297.7381,-122 297.7381,-86 384.2619,-86 384.2619,-122"/>
<text text-anchor="middle" x="341" y="-99.8" font-family="Times,serif" font-size="14.00" fill="#000000">CoreModule</text>
</g>
<!-- CoreModule&#45;&gt;HomeModule -->
<g id="edge2" class="edge">
<title>CoreModule&#45;&gt;HomeModule</title>
<path fill="none" stroke="#000000" d="M309.75,-122.1061C309.75,-122.1061 309.75,-140.991 309.75,-140.991"/>
<polygon fill="#000000" stroke="#000000" points="306.2501,-140.9909 309.75,-150.991 313.2501,-140.991 306.2501,-140.9909"/>
</g>
<!-- HomeRoutingModule -->
<g id="node4" class="node">
<title>HomeRoutingModule</title>
<polygon fill="#8dd3c7" stroke="#000000" points="279.3795,-122 276.3795,-126 255.3795,-126 252.3795,-122 140.6205,-122 140.6205,-86 279.3795,-86 279.3795,-122"/>
<text text-anchor="middle" x="210" y="-99.8" font-family="Times,serif" font-size="14.00" fill="#000000">HomeRoutingModule</text>
</g>
<!-- HomeRoutingModule&#45;&gt;HomeModule -->
<g id="edge3" class="edge">
<title>HomeRoutingModule&#45;&gt;HomeModule</title>
<path fill="none" stroke="#000000" d="M253.7795,-122.1061C253.7795,-122.1061 253.7795,-140.991 253.7795,-140.991"/>
<polygon fill="#000000" stroke="#000000" points="250.2795,-140.9909 253.7795,-150.991 257.2795,-140.991 250.2795,-140.9909"/>
</g>
<!-- SharedModule -->
<g id="node5" class="node">
<title>SharedModule</title>
<polygon fill="#8dd3c7" stroke="#000000" points="122.4231,-122 119.4231,-126 98.4231,-126 95.4231,-122 23.5769,-122 23.5769,-86 122.4231,-86 122.4231,-122"/>
<text text-anchor="middle" x="73" y="-99.8" font-family="Times,serif" font-size="14.00" fill="#000000">SharedModule</text>
</g>
<!-- SharedModule&#45;&gt;HomeModule -->
<g id="edge4" class="edge">
<title>SharedModule&#45;&gt;HomeModule</title>
<path fill="none" stroke="#000000" d="M73,-122.1061C73,-141.3391 73,-169 73,-169 73,-169 218.1494,-169 218.1494,-169"/>
<polygon fill="#000000" stroke="#000000" points="218.1494,-172.5001 228.1494,-169 218.1494,-165.5001 218.1494,-172.5001"/>
</g>
</g>
</svg>
