<?xml version="1.0" encoding="UTF-8" standalone="no"?>
<!DOCTYPE svg PUBLIC "-//W3C//DTD SVG 1.1//EN"
 "http://www.w3.org/Graphics/SVG/1.1/DTD/svg11.dtd">
<!-- Generated by graphviz version 2.40.1 (20161225.0304)
 -->
<!-- Title: dependencies Pages: 1 -->
<svg width="777pt" height="211pt"
 viewBox="0.00 0.00 777.00 211.00" xmlns="http://www.w3.org/2000/svg" xmlns:xlink="http://www.w3.org/1999/xlink">
<g id="graph0" class="graph" transform="scale(1 1) rotate(0) translate(4 207)">
<title>dependencies</title>
<polygon fill="#ffffff" stroke="transparent" points="-4,4 -4,-207 773,-207 773,4 -4,4"/>
<text text-anchor="start" x="363.5091" y="-42.4" font-family="sans-serif" font-weight="bold" font-size="14.00" fill="#000000">Legend</text>
<polygon fill="#ffffb3" stroke="transparent" points="150.5,-10 150.5,-30 170.5,-30 170.5,-10 150.5,-10"/>
<text text-anchor="start" x="174.129" y="-15.4" font-family="sans-serif" font-size="14.00" fill="#000000"> &#160;Declarations</text>
<polygon fill="#8dd3c7" stroke="transparent" points="263.5,-10 263.5,-30 283.5,-30 283.5,-10 263.5,-10"/>
<text text-anchor="start" x="287.2251" y="-15.4" font-family="sans-serif" font-size="14.00" fill="#000000"> &#160;Module</text>
<polygon fill="#80b1d3" stroke="transparent" points="349.5,-10 349.5,-30 369.5,-30 369.5,-10 349.5,-10"/>
<text text-anchor="start" x="373.2812" y="-15.4" font-family="sans-serif" font-size="14.00" fill="#000000"> &#160;Bootstrap</text>
<polygon fill="#fdb462" stroke="transparent" points="446.5,-10 446.5,-30 466.5,-30 466.5,-10 446.5,-10"/>
<text text-anchor="start" x="470.1732" y="-15.4" font-family="sans-serif" font-size="14.00" fill="#000000"> &#160;Providers</text>
<polygon fill="#fb8072" stroke="transparent" points="542.5,-10 542.5,-30 562.5,-30 562.5,-10 542.5,-10"/>
<text text-anchor="start" x="566.2258" y="-15.4" font-family="sans-serif" font-size="14.00" fill="#000000"> &#160;Exports</text>
<g id="clust1" class="cluster">
<title>cluster_DocumentationPageModule</title>
<polygon fill="none" stroke="#000000" stroke-dasharray="1,5" points="8,-70 8,-195 761,-195 761,-70 8,-70"/>
</g>
<g id="clust2" class="cluster">
<title>cluster_DocumentationPageModule_declarations</title>
<polygon fill="none" stroke="#000000" points="607,-78 607,-130 753,-130 753,-78 607,-78"/>
</g>
<g id="clust4" class="cluster">
<title>cluster_DocumentationPageModule_imports</title>
<polygon fill="none" stroke="#000000" points="16,-78 16,-130 599,-130 599,-78 16,-78"/>
</g>
<!-- DocumentationPage -->
<g id="node1" class="node">
<title>DocumentationPage</title>
<polygon fill="#ffffb3" stroke="#000000" points="744.5255,-122 615.4745,-122 615.4745,-86 744.5255,-86 744.5255,-122"/>
<text text-anchor="middle" x="680" y="-99.8" font-family="Times,serif" font-size="14.00" fill="#000000">DocumentationPage</text>
</g>
<!-- DocumentationPageModule -->
<g id="node2" class="node">
<title>DocumentationPageModule</title>
<polygon fill="#8dd3c7" stroke="#000000" points="500.5744,-187 497.5744,-191 476.5744,-191 473.5744,-187 327.4256,-187 327.4256,-151 500.5744,-151 500.5744,-187"/>
<text text-anchor="middle" x="414" y="-164.8" font-family="Times,serif" font-size="14.00" fill="#000000">DocumentationPageModule</text>
</g>
<!-- DocumentationPage&#45;&gt;DocumentationPageModule -->
<g id="edge1" class="edge">
<title>DocumentationPage&#45;&gt;DocumentationPageModule</title>
<path fill="none" stroke="#000000" d="M680,-122.1061C680,-141.3391 680,-169 680,-169 680,-169 510.7303,-169 510.7303,-169"/>
<polygon fill="#000000" stroke="#000000" points="510.7303,-165.5001 500.7303,-169 510.7302,-172.5001 510.7303,-165.5001"/>
</g>
<!-- CommonModule -->
<g id="node3" class="node">
<title>CommonModule</title>
<polygon fill="#8dd3c7" stroke="#000000" points="590.6681,-122 587.6681,-126 566.6681,-126 563.6681,-122 479.3319,-122 479.3319,-86 590.6681,-86 590.6681,-122"/>
<text text-anchor="middle" x="535" y="-99.8" font-family="Times,serif" font-size="14.00" fill="#000000">CommonModule</text>
</g>
<!-- CommonModule&#45;&gt;DocumentationPageModule -->
<g id="edge2" class="edge">
<title>CommonModule&#45;&gt;DocumentationPageModule</title>
<path fill="none" stroke="#000000" d="M489.8517,-122.1061C489.8517,-122.1061 489.8517,-140.991 489.8517,-140.991"/>
<polygon fill="#000000" stroke="#000000" points="486.3518,-140.9909 489.8517,-150.991 493.3518,-140.991 486.3518,-140.9909"/>
</g>
<!-- FormsModule -->
<g id="node4" class="node">
<title>FormsModule</title>
<polygon fill="#8dd3c7" stroke="#000000" points="461.8288,-122 458.8288,-126 437.8288,-126 434.8288,-122 366.1712,-122 366.1712,-86 461.8288,-86 461.8288,-122"/>
<text text-anchor="middle" x="414" y="-99.8" font-family="Times,serif" font-size="14.00" fill="#000000">FormsModule</text>
</g>
<!-- FormsModule&#45;&gt;DocumentationPageModule -->
<g id="edge3" class="edge">
<title>FormsModule&#45;&gt;DocumentationPageModule</title>
<path fill="none" stroke="#000000" d="M414,-122.1061C414,-122.1061 414,-140.991 414,-140.991"/>
<polygon fill="#000000" stroke="#000000" points="410.5001,-140.9909 414,-150.991 417.5001,-140.991 410.5001,-140.9909"/>
</g>
<!-- IonicModule -->
<g id="node5" class="node">
<title>IonicModule</title>
<polygon fill="#8dd3c7" stroke="#000000" points="348.3162,-122 345.3162,-126 324.3162,-126 321.3162,-122 259.6838,-122 259.6838,-86 348.3162,-86 348.3162,-122"/>
<text text-anchor="middle" x="304" y="-99.8" font-family="Times,serif" font-size="14.00" fill="#000000">IonicModule</text>
</g>
<!-- IonicModule&#45;&gt;DocumentationPageModule -->
<g id="edge4" class="edge">
<title>IonicModule&#45;&gt;DocumentationPageModule</title>
<path fill="none" stroke="#000000" d="M337.8103,-122.1061C337.8103,-122.1061 337.8103,-140.991 337.8103,-140.991"/>
<polygon fill="#000000" stroke="#000000" points="334.3104,-140.9909 337.8103,-150.991 341.3104,-140.991 334.3104,-140.9909"/>
</g>
<!-- DocumentationPageRoutingModule -->
<g id="node6" class="node">
<title>DocumentationPageRoutingModule</title>
<polygon fill="#8dd3c7" stroke="#000000" points="242.1923,-122 239.1923,-126 218.1923,-126 215.1923,-122 23.8077,-122 23.8077,-86 242.1923,-86 242.1923,-122"/>
<text text-anchor="middle" x="133" y="-99.8" font-family="Times,serif" font-size="14.00" fill="#000000">DocumentationPageRoutingModule</text>
</g>
<!-- DocumentationPageRoutingModule&#45;&gt;DocumentationPageModule -->
<g id="edge5" class="edge">
<title>DocumentationPageRoutingModule&#45;&gt;DocumentationPageModule</title>
<path fill="none" stroke="#000000" d="M133,-122.1061C133,-141.3391 133,-169 133,-169 133,-169 317.3979,-169 317.3979,-169"/>
<polygon fill="#000000" stroke="#000000" points="317.3979,-172.5001 327.3979,-169 317.3978,-165.5001 317.3979,-172.5001"/>
</g>
</g>
</svg>
