<?xml version="1.0" encoding="UTF-8" standalone="no"?>
<!DOCTYPE svg PUBLIC "-//W3C//DTD SVG 1.1//EN"
 "http://www.w3.org/Graphics/SVG/1.1/DTD/svg11.dtd">
<!-- Generated by graphviz version 2.40.1 (20161225.0304)
 -->
<!-- Title: dependencies Pages: 1 -->
<svg width="1843pt" height="284pt"
 viewBox="0.00 0.00 1843.00 284.00" xmlns="http://www.w3.org/2000/svg" xmlns:xlink="http://www.w3.org/1999/xlink">
<g id="graph0" class="graph" transform="scale(1 1) rotate(0) translate(4 280)">
<title>dependencies</title>
<polygon fill="#ffffff" stroke="transparent" points="-4,4 -4,-280 1839,-280 1839,4 -4,4"/>
<text text-anchor="start" x="896.5091" y="-42.4" font-family="sans-serif" font-weight="bold" font-size="14.00" fill="#000000">Legend</text>
<polygon fill="#ffffb3" stroke="transparent" points="683.5,-10 683.5,-30 703.5,-30 703.5,-10 683.5,-10"/>
<text text-anchor="start" x="707.129" y="-15.4" font-family="sans-serif" font-size="14.00" fill="#000000"> &#160;Declarations</text>
<polygon fill="#8dd3c7" stroke="transparent" points="796.5,-10 796.5,-30 816.5,-30 816.5,-10 796.5,-10"/>
<text text-anchor="start" x="820.2251" y="-15.4" font-family="sans-serif" font-size="14.00" fill="#000000"> &#160;Module</text>
<polygon fill="#80b1d3" stroke="transparent" points="882.5,-10 882.5,-30 902.5,-30 902.5,-10 882.5,-10"/>
<text text-anchor="start" x="906.2812" y="-15.4" font-family="sans-serif" font-size="14.00" fill="#000000"> &#160;Bootstrap</text>
<polygon fill="#fdb462" stroke="transparent" points="979.5,-10 979.5,-30 999.5,-30 999.5,-10 979.5,-10"/>
<text text-anchor="start" x="1003.1732" y="-15.4" font-family="sans-serif" font-size="14.00" fill="#000000"> &#160;Providers</text>
<polygon fill="#fb8072" stroke="transparent" points="1075.5,-10 1075.5,-30 1095.5,-30 1095.5,-10 1075.5,-10"/>
<text text-anchor="start" x="1099.2258" y="-15.4" font-family="sans-serif" font-size="14.00" fill="#000000"> &#160;Exports</text>
<g id="clust1" class="cluster">
<title>cluster_AppModule</title>
<polygon fill="none" stroke="#000000" stroke-dasharray="1,5" points="8,-70 8,-268 1827,-268 1827,-70 8,-70"/>
</g>
<g id="clust2" class="cluster">
<title>cluster_AppModule_declarations</title>
<polygon fill="none" stroke="#000000" points="1697,-78 1697,-130 1819,-130 1819,-78 1697,-78"/>
</g>
<g id="clust4" class="cluster">
<title>cluster_AppModule_imports</title>
<polygon fill="none" stroke="#000000" points="814,-78 814,-130 1689,-130 1689,-78 814,-78"/>
</g>
<g id="clust6" class="cluster">
<title>cluster_AppModule_bootstrap</title>
<polygon fill="none" stroke="#000000" points="1065,-208 1065,-260 1189,-260 1189,-208 1065,-208"/>
</g>
<g id="clust7" class="cluster">
<title>cluster_AppModule_providers</title>
<polygon fill="none" stroke="#000000" points="16,-78 16,-130 806,-130 806,-78 16,-78"/>
</g>
<!-- AppComponent -->
<g id="node1" class="node">
<title>AppComponent</title>
<polygon fill="#ffffb3" stroke="#000000" points="1810.9399,-122 1705.0601,-122 1705.0601,-86 1810.9399,-86 1810.9399,-122"/>
<text text-anchor="middle" x="1758" y="-99.8" font-family="Times,serif" font-size="14.00" fill="#000000">AppComponent</text>
</g>
<!-- AppModule -->
<g id="node2" class="node">
<title>AppModule</title>
<polygon fill="#8dd3c7" stroke="#000000" points="1168.6571,-187 1165.6571,-191 1144.6571,-191 1141.6571,-187 1085.3429,-187 1085.3429,-151 1168.6571,-151 1168.6571,-187"/>
<text text-anchor="middle" x="1127" y="-164.8" font-family="Times,serif" font-size="14.00" fill="#000000">AppModule</text>
</g>
<!-- AppComponent&#45;&gt;AppModule -->
<g id="edge1" class="edge">
<title>AppComponent&#45;&gt;AppModule</title>
<path fill="none" stroke="#000000" d="M1758,-122.0109C1758,-144.4852 1758,-180 1758,-180 1758,-180 1178.8903,-180 1178.8903,-180"/>
<polygon fill="#000000" stroke="#000000" points="1178.8904,-176.5001 1168.8903,-180 1178.8903,-183.5001 1178.8904,-176.5001"/>
</g>
<!-- AppComponent  -->
<g id="node9" class="node">
<title>AppComponent </title>
<polygon fill="#80b1d3" stroke="#000000" points="1181.439,-252 1072.561,-252 1072.561,-216 1181.439,-216 1181.439,-252"/>
<text text-anchor="middle" x="1127" y="-229.8" font-family="Times,serif" font-size="14.00" fill="#000000">AppComponent </text>
</g>
<!-- AppModule&#45;&gt;AppComponent  -->
<g id="edge8" class="edge">
<title>AppModule&#45;&gt;AppComponent </title>
<path fill="none" stroke="#000000" stroke-dasharray="1,5" d="M1127,-187.1061C1127,-187.1061 1127,-205.991 1127,-205.991"/>
<polygon fill="#000000" stroke="#000000" points="1123.5001,-205.9909 1127,-215.991 1130.5001,-205.991 1123.5001,-205.9909"/>
</g>
<!-- RouterModule -->
<g id="node3" class="node">
<title>RouterModule</title>
<polygon fill="#8dd3c7" stroke="#000000" points="1680.6528,-122 1677.6528,-126 1656.6528,-126 1653.6528,-122 1583.3472,-122 1583.3472,-86 1680.6528,-86 1680.6528,-122"/>
<text text-anchor="middle" x="1632" y="-99.8" font-family="Times,serif" font-size="14.00" fill="#000000">RouterModule</text>
</g>
<!-- RouterModule&#45;&gt;AppModule -->
<g id="edge2" class="edge">
<title>RouterModule&#45;&gt;AppModule</title>
<path fill="none" stroke="#000000" d="M1632,-122.1289C1632,-142.5724 1632,-173 1632,-173 1632,-173 1178.7559,-173 1178.7559,-173"/>
<polygon fill="#000000" stroke="#000000" points="1178.7559,-169.5001 1168.7559,-173 1178.7559,-176.5001 1178.7559,-169.5001"/>
</g>
<!-- BrowserModule -->
<g id="node4" class="node">
<title>BrowserModule</title>
<polygon fill="#8dd3c7" stroke="#000000" points="1565.4734,-122 1562.4734,-126 1541.4734,-126 1538.4734,-122 1458.5266,-122 1458.5266,-86 1565.4734,-86 1565.4734,-122"/>
<text text-anchor="middle" x="1512" y="-99.8" font-family="Times,serif" font-size="14.00" fill="#000000">BrowserModule</text>
</g>
<!-- BrowserModule&#45;&gt;AppModule -->
<g id="edge3" class="edge">
<title>BrowserModule&#45;&gt;AppModule</title>
<path fill="none" stroke="#000000" d="M1512,-122.2667C1512,-140.5552 1512,-166 1512,-166 1512,-166 1178.9346,-166 1178.9346,-166"/>
<polygon fill="#000000" stroke="#000000" points="1178.9347,-162.5001 1168.9346,-166 1178.9346,-169.5001 1178.9347,-162.5001"/>
</g>
<!-- BrowserAnimationsModule -->
<g id="node5" class="node">
<title>BrowserAnimationsModule</title>
<polygon fill="#8dd3c7" stroke="#000000" points="1440.3019,-122 1437.3019,-126 1416.3019,-126 1413.3019,-122 1267.6981,-122 1267.6981,-86 1440.3019,-86 1440.3019,-122"/>
<text text-anchor="middle" x="1354" y="-99.8" font-family="Times,serif" font-size="14.00" fill="#000000">BrowserAnimationsModule</text>
</g>
<!-- BrowserAnimationsModule&#45;&gt;AppModule -->
<g id="edge4" class="edge">
<title>BrowserAnimationsModule&#45;&gt;AppModule</title>
<path fill="none" stroke="#000000" d="M1354,-122.0091C1354,-138.0494 1354,-159 1354,-159 1354,-159 1178.8998,-159 1178.8998,-159"/>
<polygon fill="#000000" stroke="#000000" points="1178.8999,-155.5001 1168.8998,-159 1178.8998,-162.5001 1178.8999,-155.5001"/>
</g>
<!-- FormsModule -->
<g id="node6" class="node">
<title>FormsModule</title>
<polygon fill="#8dd3c7" stroke="#000000" points="1249.8288,-122 1246.8288,-126 1225.8288,-126 1222.8288,-122 1154.1712,-122 1154.1712,-86 1249.8288,-86 1249.8288,-122"/>
<text text-anchor="middle" x="1202" y="-99.8" font-family="Times,serif" font-size="14.00" fill="#000000">FormsModule</text>
</g>
<!-- FormsModule&#45;&gt;AppModule -->
<g id="edge5" class="edge">
<title>FormsModule&#45;&gt;AppModule</title>
<path fill="none" stroke="#000000" d="M1161.5821,-122.1061C1161.5821,-122.1061 1161.5821,-140.991 1161.5821,-140.991"/>
<polygon fill="#000000" stroke="#000000" points="1158.0821,-140.9909 1161.5821,-150.991 1165.0821,-140.991 1158.0821,-140.9909"/>
</g>
<!-- IonicModule.forRoot(args) -->
<g id="node7" class="node">
<title>IonicModule.forRoot(args)</title>
<polygon fill="#8dd3c7" stroke="#000000" points="1136.005,-122 1133.005,-126 1112.005,-126 1109.005,-122 967.995,-122 967.995,-86 1136.005,-86 1136.005,-122"/>
<text text-anchor="middle" x="1052" y="-99.8" font-family="Times,serif" font-size="14.00" fill="#000000">IonicModule.forRoot(args)</text>
</g>
<!-- IonicModule.forRoot(args)&#45;&gt;AppModule -->
<g id="edge6" class="edge">
<title>IonicModule.forRoot(args)&#45;&gt;AppModule</title>
<path fill="none" stroke="#000000" d="M1110.5872,-122.1061C1110.5872,-122.1061 1110.5872,-140.991 1110.5872,-140.991"/>
<polygon fill="#000000" stroke="#000000" points="1107.0872,-140.9909 1110.5872,-150.991 1114.0872,-140.991 1107.0872,-140.9909"/>
</g>
<!-- AppRoutingModule -->
<g id="node8" class="node">
<title>AppRoutingModule</title>
<polygon fill="#8dd3c7" stroke="#000000" points="950.2744,-122 947.2744,-126 926.2744,-126 923.2744,-122 821.7256,-122 821.7256,-86 950.2744,-86 950.2744,-122"/>
<text text-anchor="middle" x="886" y="-99.8" font-family="Times,serif" font-size="14.00" fill="#000000">AppRoutingModule</text>
</g>
<!-- AppRoutingModule&#45;&gt;AppModule -->
<g id="edge7" class="edge">
<title>AppRoutingModule&#45;&gt;AppModule</title>
<path fill="none" stroke="#000000" d="M886,-122.0091C886,-138.0494 886,-159 886,-159 886,-159 1075.2961,-159 1075.2961,-159"/>
<polygon fill="#000000" stroke="#000000" points="1075.2962,-162.5001 1085.2961,-159 1075.2961,-155.5001 1075.2962,-162.5001"/>
</g>
<!-- StatusBar -->
<g id="node10" class="node">
<title>StatusBar</title>
<ellipse fill="#fdb462" stroke="#000000" cx="749" cy="-104" rx="48.6694" ry="18"/>
<text text-anchor="middle" x="749" y="-99.8" font-family="Times,serif" font-size="14.00" fill="#000000">StatusBar</text>
</g>
<!-- StatusBar&#45;&gt;AppModule -->
<g id="edge9" class="edge">
<title>StatusBar&#45;&gt;AppModule</title>
<path fill="none" stroke="#000000" d="M749,-122.2667C749,-140.5552 749,-166 749,-166 749,-166 1075.1031,-166 1075.1031,-166"/>
<polygon fill="#000000" stroke="#000000" points="1075.1032,-169.5001 1085.1031,-166 1075.1031,-162.5001 1075.1032,-169.5001"/>
</g>
<!-- SplashScreen -->
<g id="node11" class="node">
<title>SplashScreen</title>
<ellipse fill="#fdb462" stroke="#000000" cx="619" cy="-104" rx="63.1189" ry="18"/>
<text text-anchor="middle" x="619" y="-99.8" font-family="Times,serif" font-size="14.00" fill="#000000">SplashScreen</text>
</g>
<!-- SplashScreen&#45;&gt;AppModule -->
<g id="edge10" class="edge">
<title>SplashScreen&#45;&gt;AppModule</title>
<path fill="none" stroke="#000000" d="M619,-122.1289C619,-142.5724 619,-173 619,-173 619,-173 1074.996,-173 1074.996,-173"/>
<polygon fill="#000000" stroke="#000000" points="1074.9961,-176.5001 1084.996,-173 1074.996,-169.5001 1074.9961,-176.5001"/>
</g>
<!-- { provide: RouteReuseStrategy, useClass: IonicRouteStrategy } -->
<g id="node12" class="node">
<title>{ provide: RouteReuseStrategy, useClass: IonicRouteStrategy }</title>
<ellipse fill="#fdb462" stroke="#000000" cx="281" cy="-104" rx="257.2723" ry="18"/>
<text text-anchor="middle" x="281" y="-99.8" font-family="Times,serif" font-size="14.00" fill="#000000">{ provide: RouteReuseStrategy, useClass: IonicRouteStrategy }</text>
</g>
<!-- { provide: RouteReuseStrategy, useClass: IonicRouteStrategy }&#45;&gt;AppModule -->
<g id="edge11" class="edge">
<title>{ provide: RouteReuseStrategy, useClass: IonicRouteStrategy }&#45;&gt;AppModule</title>
<path fill="none" stroke="#000000" d="M281,-122.0109C281,-144.4852 281,-180 281,-180 281,-180 1075.3353,-180 1075.3353,-180"/>
<polygon fill="#000000" stroke="#000000" points="1075.3353,-183.5001 1085.3353,-180 1075.3353,-176.5001 1075.3353,-183.5001"/>
</g>
</g>
</svg>
