<?xml version="1.0" encoding="UTF-8" standalone="no"?>
<!DOCTYPE svg PUBLIC "-//W3C//DTD SVG 1.1//EN"
 "http://www.w3.org/Graphics/SVG/1.1/DTD/svg11.dtd">
<!-- Generated by graphviz version 2.40.1 (20161225.0304)
 -->
<!-- Title: dependencies Pages: 1 -->
<svg width="673pt" height="211pt"
 viewBox="0.00 0.00 673.00 211.00" xmlns="http://www.w3.org/2000/svg" xmlns:xlink="http://www.w3.org/1999/xlink">
<g id="graph0" class="graph" transform="scale(1 1) rotate(0) translate(4 207)">
<title>dependencies</title>
<polygon fill="#ffffff" stroke="transparent" points="-4,4 -4,-207 669,-207 669,4 -4,4"/>
<text text-anchor="start" x="311.5091" y="-42.4" font-family="sans-serif" font-weight="bold" font-size="14.00" fill="#000000">Legend</text>
<polygon fill="#ffffb3" stroke="transparent" points="98.5,-10 98.5,-30 118.5,-30 118.5,-10 98.5,-10"/>
<text text-anchor="start" x="122.129" y="-15.4" font-family="sans-serif" font-size="14.00" fill="#000000"> &#160;Declarations</text>
<polygon fill="#8dd3c7" stroke="transparent" points="211.5,-10 211.5,-30 231.5,-30 231.5,-10 211.5,-10"/>
<text text-anchor="start" x="235.2251" y="-15.4" font-family="sans-serif" font-size="14.00" fill="#000000"> &#160;Module</text>
<polygon fill="#80b1d3" stroke="transparent" points="297.5,-10 297.5,-30 317.5,-30 317.5,-10 297.5,-10"/>
<text text-anchor="start" x="321.2812" y="-15.4" font-family="sans-serif" font-size="14.00" fill="#000000"> &#160;Bootstrap</text>
<polygon fill="#fdb462" stroke="transparent" points="394.5,-10 394.5,-30 414.5,-30 414.5,-10 394.5,-10"/>
<text text-anchor="start" x="418.1732" y="-15.4" font-family="sans-serif" font-size="14.00" fill="#000000"> &#160;Providers</text>
<polygon fill="#fb8072" stroke="transparent" points="490.5,-10 490.5,-30 510.5,-30 510.5,-10 490.5,-10"/>
<text text-anchor="start" x="514.2258" y="-15.4" font-family="sans-serif" font-size="14.00" fill="#000000"> &#160;Exports</text>
<g id="clust1" class="cluster">
<title>cluster_HomePageModule</title>
<polygon fill="none" stroke="#000000" stroke-dasharray="1,5" points="8,-70 8,-195 657,-195 657,-70 8,-70"/>
</g>
<g id="clust2" class="cluster">
<title>cluster_HomePageModule_declarations</title>
<polygon fill="none" stroke="#000000" points="555,-78 555,-130 649,-130 649,-78 555,-78"/>
</g>
<g id="clust4" class="cluster">
<title>cluster_HomePageModule_imports</title>
<polygon fill="none" stroke="#000000" points="16,-78 16,-130 547,-130 547,-78 16,-78"/>
</g>
<!-- HomePage -->
<g id="node1" class="node">
<title>HomePage</title>
<polygon fill="#ffffb3" stroke="#000000" points="640.9248,-122 563.0752,-122 563.0752,-86 640.9248,-86 640.9248,-122"/>
<text text-anchor="middle" x="602" y="-99.8" font-family="Times,serif" font-size="14.00" fill="#000000">HomePage</text>
</g>
<!-- HomePageModule -->
<g id="node2" class="node">
<title>HomePageModule</title>
<polygon fill="#8dd3c7" stroke="#000000" points="422.4734,-187 419.4734,-191 398.4734,-191 395.4734,-187 301.5266,-187 301.5266,-151 422.4734,-151 422.4734,-187"/>
<text text-anchor="middle" x="362" y="-164.8" font-family="Times,serif" font-size="14.00" fill="#000000">HomePageModule</text>
</g>
<!-- HomePage&#45;&gt;HomePageModule -->
<g id="edge1" class="edge">
<title>HomePage&#45;&gt;HomePageModule</title>
<path fill="none" stroke="#000000" d="M602,-122.1061C602,-141.3391 602,-169 602,-169 602,-169 432.5621,-169 432.5621,-169"/>
<polygon fill="#000000" stroke="#000000" points="432.5622,-165.5001 422.5621,-169 432.5621,-172.5001 432.5622,-165.5001"/>
</g>
<!-- CommonModule -->
<g id="node3" class="node">
<title>CommonModule</title>
<polygon fill="#8dd3c7" stroke="#000000" points="538.6681,-122 535.6681,-126 514.6681,-126 511.6681,-122 427.3319,-122 427.3319,-86 538.6681,-86 538.6681,-122"/>
<text text-anchor="middle" x="483" y="-99.8" font-family="Times,serif" font-size="14.00" fill="#000000">CommonModule</text>
</g>
<!-- CommonModule&#45;&gt;HomePageModule -->
<g id="edge2" class="edge">
<title>CommonModule&#45;&gt;HomePageModule</title>
<path fill="none" stroke="#000000" d="M427.1266,-104C420.5237,-104 416.0754,-104 416.0754,-104 416.0754,-104 416.0754,-140.8939 416.0754,-140.8939"/>
<polygon fill="#000000" stroke="#000000" points="412.5755,-140.8938 416.0754,-150.8939 419.5755,-140.8939 412.5755,-140.8938"/>
</g>
<!-- FormsModule -->
<g id="node4" class="node">
<title>FormsModule</title>
<polygon fill="#8dd3c7" stroke="#000000" points="409.8288,-122 406.8288,-126 385.8288,-126 382.8288,-122 314.1712,-122 314.1712,-86 409.8288,-86 409.8288,-122"/>
<text text-anchor="middle" x="362" y="-99.8" font-family="Times,serif" font-size="14.00" fill="#000000">FormsModule</text>
</g>
<!-- FormsModule&#45;&gt;HomePageModule -->
<g id="edge3" class="edge">
<title>FormsModule&#45;&gt;HomePageModule</title>
<path fill="none" stroke="#000000" d="M362,-122.1061C362,-122.1061 362,-140.991 362,-140.991"/>
<polygon fill="#000000" stroke="#000000" points="358.5001,-140.9909 362,-150.991 365.5001,-140.991 358.5001,-140.9909"/>
</g>
<!-- IonicModule -->
<g id="node5" class="node">
<title>IonicModule</title>
<polygon fill="#8dd3c7" stroke="#000000" points="296.3162,-122 293.3162,-126 272.3162,-126 269.3162,-122 207.6838,-122 207.6838,-86 296.3162,-86 296.3162,-122"/>
<text text-anchor="middle" x="252" y="-99.8" font-family="Times,serif" font-size="14.00" fill="#000000">IonicModule</text>
</g>
<!-- IonicModule&#45;&gt;HomePageModule -->
<g id="edge4" class="edge">
<title>IonicModule&#45;&gt;HomePageModule</title>
<path fill="none" stroke="#000000" d="M296.337,-104C303.1246,-104 307.9246,-104 307.9246,-104 307.9246,-104 307.9246,-140.8939 307.9246,-140.8939"/>
<polygon fill="#000000" stroke="#000000" points="304.4247,-140.8938 307.9246,-150.8939 311.4247,-140.8939 304.4247,-140.8938"/>
</g>
<!-- HomePageRoutingModule -->
<g id="node6" class="node">
<title>HomePageRoutingModule</title>
<polygon fill="#8dd3c7" stroke="#000000" points="190.0912,-122 187.0912,-126 166.0912,-126 163.0912,-122 23.9088,-122 23.9088,-86 190.0912,-86 190.0912,-122"/>
<text text-anchor="middle" x="107" y="-99.8" font-family="Times,serif" font-size="14.00" fill="#000000">HomePageRoutingModule</text>
</g>
<!-- HomePageRoutingModule&#45;&gt;HomePageModule -->
<g id="edge5" class="edge">
<title>HomePageRoutingModule&#45;&gt;HomePageModule</title>
<path fill="none" stroke="#000000" d="M107,-122.1061C107,-141.3391 107,-169 107,-169 107,-169 291.2451,-169 291.2451,-169"/>
<polygon fill="#000000" stroke="#000000" points="291.2452,-172.5001 301.2451,-169 291.2451,-165.5001 291.2452,-172.5001"/>
</g>
</g>
</svg>
