<?xml version="1.0" encoding="UTF-8" standalone="no"?>
<!DOCTYPE svg PUBLIC "-//W3C//DTD SVG 1.1//EN"
 "http://www.w3.org/Graphics/SVG/1.1/DTD/svg11.dtd">
<!-- Generated by graphviz version 2.40.1 (20161225.0304)
 -->
<!-- Title: dependencies Pages: 1 -->
<svg width="504pt" height="211pt"
 viewBox="0.00 0.00 504.00 211.00" xmlns="http://www.w3.org/2000/svg" xmlns:xlink="http://www.w3.org/1999/xlink">
<g id="graph0" class="graph" transform="scale(1 1) rotate(0) translate(4 207)">
<title>dependencies</title>
<polygon fill="#ffffff" stroke="transparent" points="-4,4 -4,-207 500,-207 500,4 -4,4"/>
<text text-anchor="start" x="227.0091" y="-42.4" font-family="sans-serif" font-weight="bold" font-size="14.00" fill="#000000">Legend</text>
<polygon fill="#ffffb3" stroke="transparent" points="14,-10 14,-30 34,-30 34,-10 14,-10"/>
<text text-anchor="start" x="37.629" y="-15.4" font-family="sans-serif" font-size="14.00" fill="#000000"> &#160;Declarations</text>
<polygon fill="#8dd3c7" stroke="transparent" points="127,-10 127,-30 147,-30 147,-10 127,-10"/>
<text text-anchor="start" x="150.7251" y="-15.4" font-family="sans-serif" font-size="14.00" fill="#000000"> &#160;Module</text>
<polygon fill="#80b1d3" stroke="transparent" points="213,-10 213,-30 233,-30 233,-10 213,-10"/>
<text text-anchor="start" x="236.7812" y="-15.4" font-family="sans-serif" font-size="14.00" fill="#000000"> &#160;Bootstrap</text>
<polygon fill="#fdb462" stroke="transparent" points="310,-10 310,-30 330,-30 330,-10 310,-10"/>
<text text-anchor="start" x="333.6732" y="-15.4" font-family="sans-serif" font-size="14.00" fill="#000000"> &#160;Providers</text>
<polygon fill="#fb8072" stroke="transparent" points="406,-10 406,-30 426,-30 426,-10 406,-10"/>
<text text-anchor="start" x="429.7258" y="-15.4" font-family="sans-serif" font-size="14.00" fill="#000000"> &#160;Exports</text>
<g id="clust1" class="cluster">
<title>cluster_TeamModule</title>
<polygon fill="none" stroke="#000000" stroke-dasharray="1,5" points="95,-70 95,-195 401,-195 401,-70 95,-70"/>
</g>
<g id="clust2" class="cluster">
<title>cluster_TeamModule_declarations</title>
<polygon fill="none" stroke="#000000" points="263,-78 263,-130 393,-130 393,-78 263,-78"/>
</g>
<g id="clust4" class="cluster">
<title>cluster_TeamModule_imports</title>
<polygon fill="none" stroke="#000000" points="103,-78 103,-130 255,-130 255,-78 103,-78"/>
</g>
<!-- TeamComponent -->
<g id="node1" class="node">
<title>TeamComponent</title>
<polygon fill="#ffffb3" stroke="#000000" points="384.705,-122 271.295,-122 271.295,-86 384.705,-86 384.705,-122"/>
<text text-anchor="middle" x="328" y="-99.8" font-family="Times,serif" font-size="14.00" fill="#000000">TeamComponent</text>
</g>
<!-- TeamModule -->
<g id="node2" class="node">
<title>TeamModule</title>
<polygon fill="#8dd3c7" stroke="#000000" points="298.9232,-187 295.9232,-191 274.9232,-191 271.9232,-187 207.0768,-187 207.0768,-151 298.9232,-151 298.9232,-187"/>
<text text-anchor="middle" x="253" y="-164.8" font-family="Times,serif" font-size="14.00" fill="#000000">TeamModule</text>
</g>
<!-- TeamComponent&#45;&gt;TeamModule -->
<g id="edge1" class="edge">
<title>TeamComponent&#45;&gt;TeamModule</title>
<path fill="none" stroke="#000000" d="M285.0544,-122.1061C285.0544,-122.1061 285.0544,-140.991 285.0544,-140.991"/>
<polygon fill="#000000" stroke="#000000" points="281.5544,-140.9909 285.0544,-150.991 288.5544,-140.991 281.5544,-140.9909"/>
</g>
<!-- TeamRoutingModule -->
<g id="node3" class="node">
<title>TeamRoutingModule</title>
<polygon fill="#8dd3c7" stroke="#000000" points="247.0408,-122 244.0408,-126 223.0408,-126 220.0408,-122 110.9592,-122 110.9592,-86 247.0408,-86 247.0408,-122"/>
<text text-anchor="middle" x="179" y="-99.8" font-family="Times,serif" font-size="14.00" fill="#000000">TeamRoutingModule</text>
</g>
<!-- TeamRoutingModule&#45;&gt;TeamModule -->
<g id="edge2" class="edge">
<title>TeamRoutingModule&#45;&gt;TeamModule</title>
<path fill="none" stroke="#000000" d="M227.2795,-122.1061C227.2795,-122.1061 227.2795,-140.991 227.2795,-140.991"/>
<polygon fill="#000000" stroke="#000000" points="223.7795,-140.9909 227.2795,-150.991 230.7795,-140.991 223.7795,-140.9909"/>
</g>
</g>
</svg>
