<?xml version="1.0" encoding="UTF-8" standalone="no"?>
<!DOCTYPE svg PUBLIC "-//W3C//DTD SVG 1.1//EN"
 "http://www.w3.org/Graphics/SVG/1.1/DTD/svg11.dtd">
<!-- Generated by graphviz version 2.40.1 (20161225.0304)
 -->
<!-- Title: dependencies Pages: 1 -->
<svg width="1483pt" height="211pt"
 viewBox="0.00 0.00 1483.00 211.00" xmlns="http://www.w3.org/2000/svg" xmlns:xlink="http://www.w3.org/1999/xlink">
<g id="graph0" class="graph" transform="scale(1 1) rotate(0) translate(4 207)">
<title>dependencies</title>
<polygon fill="#ffffff" stroke="transparent" points="-4,4 -4,-207 1479,-207 1479,4 -4,4"/>
<text text-anchor="start" x="716.5091" y="-42.4" font-family="sans-serif" font-weight="bold" font-size="14.00" fill="#000000">Legend</text>
<polygon fill="#ffffb3" stroke="transparent" points="503.5,-10 503.5,-30 523.5,-30 523.5,-10 503.5,-10"/>
<text text-anchor="start" x="527.129" y="-15.4" font-family="sans-serif" font-size="14.00" fill="#000000"> &#160;Declarations</text>
<polygon fill="#8dd3c7" stroke="transparent" points="616.5,-10 616.5,-30 636.5,-30 636.5,-10 616.5,-10"/>
<text text-anchor="start" x="640.2251" y="-15.4" font-family="sans-serif" font-size="14.00" fill="#000000"> &#160;Module</text>
<polygon fill="#80b1d3" stroke="transparent" points="702.5,-10 702.5,-30 722.5,-30 722.5,-10 702.5,-10"/>
<text text-anchor="start" x="726.2812" y="-15.4" font-family="sans-serif" font-size="14.00" fill="#000000"> &#160;Bootstrap</text>
<polygon fill="#fdb462" stroke="transparent" points="799.5,-10 799.5,-30 819.5,-30 819.5,-10 799.5,-10"/>
<text text-anchor="start" x="823.1732" y="-15.4" font-family="sans-serif" font-size="14.00" fill="#000000"> &#160;Providers</text>
<polygon fill="#fb8072" stroke="transparent" points="895.5,-10 895.5,-30 915.5,-30 915.5,-10 895.5,-10"/>
<text text-anchor="start" x="919.2258" y="-15.4" font-family="sans-serif" font-size="14.00" fill="#000000"> &#160;Exports</text>
<g id="clust1" class="cluster">
<title>cluster_GamePageModule</title>
<polygon fill="none" stroke="#000000" stroke-dasharray="1,5" points="8,-70 8,-195 1467,-195 1467,-70 8,-70"/>
</g>
<g id="clust2" class="cluster">
<title>cluster_GamePageModule_declarations</title>
<polygon fill="none" stroke="#000000" points="555,-78 555,-130 1459,-130 1459,-78 555,-78"/>
</g>
<g id="clust10" class="cluster">
<title>cluster_GamePageModule_imports</title>
<polygon fill="none" stroke="#000000" points="16,-78 16,-130 547,-130 547,-78 16,-78"/>
</g>
<!-- GamePage -->
<g id="node1" class="node">
<title>GamePage</title>
<polygon fill="#ffffb3" stroke="#000000" points="1451.139,-122 1374.861,-122 1374.861,-86 1451.139,-86 1451.139,-122"/>
<text text-anchor="middle" x="1413" y="-99.8" font-family="Times,serif" font-size="14.00" fill="#000000">GamePage</text>
</g>
<!-- GamePageModule -->
<g id="node8" class="node">
<title>GamePageModule</title>
<polygon fill="#8dd3c7" stroke="#000000" points="821.1881,-187 818.1881,-191 797.1881,-191 794.1881,-187 700.8119,-187 700.8119,-151 821.1881,-151 821.1881,-187"/>
<text text-anchor="middle" x="761" y="-164.8" font-family="Times,serif" font-size="14.00" fill="#000000">GamePageModule</text>
</g>
<!-- GamePage&#45;&gt;GamePageModule -->
<g id="edge1" class="edge">
<title>GamePage&#45;&gt;GamePageModule</title>
<path fill="none" stroke="#000000" d="M1413,-122.0109C1413,-144.4852 1413,-180 1413,-180 1413,-180 831.1699,-180 831.1699,-180"/>
<polygon fill="#000000" stroke="#000000" points="831.17,-176.5001 821.1699,-180 831.1699,-183.5001 831.17,-176.5001"/>
</g>
<!-- BoardComponent -->
<g id="node2" class="node">
<title>BoardComponent</title>
<polygon fill="#ffffb3" stroke="#000000" points="1356.5451,-122 1241.4549,-122 1241.4549,-86 1356.5451,-86 1356.5451,-122"/>
<text text-anchor="middle" x="1299" y="-99.8" font-family="Times,serif" font-size="14.00" fill="#000000">BoardComponent</text>
</g>
<!-- BoardComponent&#45;&gt;GamePageModule -->
<g id="edge2" class="edge">
<title>BoardComponent&#45;&gt;GamePageModule</title>
<path fill="none" stroke="#000000" d="M1299,-122.1289C1299,-142.5724 1299,-173 1299,-173 1299,-173 831.1494,-173 831.1494,-173"/>
<polygon fill="#000000" stroke="#000000" points="831.1495,-169.5001 821.1494,-173 831.1494,-176.5001 831.1495,-169.5001"/>
</g>
<!-- InfoComponent -->
<g id="node3" class="node">
<title>InfoComponent</title>
<polygon fill="#ffffb3" stroke="#000000" points="1223.1542,-122 1118.8458,-122 1118.8458,-86 1223.1542,-86 1223.1542,-122"/>
<text text-anchor="middle" x="1171" y="-99.8" font-family="Times,serif" font-size="14.00" fill="#000000">InfoComponent</text>
</g>
<!-- InfoComponent&#45;&gt;GamePageModule -->
<g id="edge3" class="edge">
<title>InfoComponent&#45;&gt;GamePageModule</title>
<path fill="none" stroke="#000000" d="M1171,-122.2667C1171,-140.5552 1171,-166 1171,-166 1171,-166 831.4969,-166 831.4969,-166"/>
<polygon fill="#000000" stroke="#000000" points="831.4969,-162.5001 821.4969,-166 831.4969,-169.5001 831.4969,-162.5001"/>
</g>
<!-- ControlComponent -->
<g id="node4" class="node">
<title>ControlComponent</title>
<polygon fill="#ffffb3" stroke="#000000" points="1101.1108,-122 976.8892,-122 976.8892,-86 1101.1108,-86 1101.1108,-122"/>
<text text-anchor="middle" x="1039" y="-99.8" font-family="Times,serif" font-size="14.00" fill="#000000">ControlComponent</text>
</g>
<!-- ControlComponent&#45;&gt;GamePageModule -->
<g id="edge4" class="edge">
<title>ControlComponent&#45;&gt;GamePageModule</title>
<path fill="none" stroke="#000000" d="M1039,-122.0091C1039,-138.0494 1039,-159 1039,-159 1039,-159 831.3219,-159 831.3219,-159"/>
<polygon fill="#000000" stroke="#000000" points="831.3219,-155.5001 821.3219,-159 831.3218,-162.5001 831.3219,-155.5001"/>
</g>
<!-- ConsoleComponent -->
<g id="node5" class="node">
<title>ConsoleComponent</title>
<polygon fill="#ffffb3" stroke="#000000" points="958.719,-122 831.281,-122 831.281,-86 958.719,-86 958.719,-122"/>
<text text-anchor="middle" x="895" y="-99.8" font-family="Times,serif" font-size="14.00" fill="#000000">ConsoleComponent</text>
</g>
<!-- ConsoleComponent&#45;&gt;GamePageModule -->
<g id="edge5" class="edge">
<title>ConsoleComponent&#45;&gt;GamePageModule</title>
<path fill="none" stroke="#000000" d="M831.1176,-104C822.8616,-104 817.2104,-104 817.2104,-104 817.2104,-104 817.2104,-140.8939 817.2104,-140.8939"/>
<polygon fill="#000000" stroke="#000000" points="813.7105,-140.8938 817.2104,-150.8939 820.7105,-140.8939 813.7105,-140.8938"/>
</g>
<!-- HexComponent -->
<g id="node6" class="node">
<title>HexComponent</title>
<polygon fill="#ffffb3" stroke="#000000" points="813.1542,-122 708.8458,-122 708.8458,-86 813.1542,-86 813.1542,-122"/>
<text text-anchor="middle" x="761" y="-99.8" font-family="Times,serif" font-size="14.00" fill="#000000">HexComponent</text>
</g>
<!-- HexComponent&#45;&gt;GamePageModule -->
<g id="edge6" class="edge">
<title>HexComponent&#45;&gt;GamePageModule</title>
<path fill="none" stroke="#000000" d="M761,-122.1061C761,-122.1061 761,-140.991 761,-140.991"/>
<polygon fill="#000000" stroke="#000000" points="757.5001,-140.9909 761,-150.991 764.5001,-140.991 757.5001,-140.9909"/>
</g>
<!-- PenguinComponent -->
<g id="node7" class="node">
<title>PenguinComponent</title>
<polygon fill="#ffffb3" stroke="#000000" points="690.7204,-122 563.2796,-122 563.2796,-86 690.7204,-86 690.7204,-122"/>
<text text-anchor="middle" x="627" y="-99.8" font-family="Times,serif" font-size="14.00" fill="#000000">PenguinComponent</text>
</g>
<!-- PenguinComponent&#45;&gt;GamePageModule -->
<g id="edge7" class="edge">
<title>PenguinComponent&#45;&gt;GamePageModule</title>
<path fill="none" stroke="#000000" d="M690.8824,-104C699.1384,-104 704.7896,-104 704.7896,-104 704.7896,-104 704.7896,-140.8939 704.7896,-140.8939"/>
<polygon fill="#000000" stroke="#000000" points="701.2897,-140.8938 704.7896,-150.8939 708.2897,-140.8939 701.2897,-140.8938"/>
</g>
<!-- CommonModule -->
<g id="node9" class="node">
<title>CommonModule</title>
<polygon fill="#8dd3c7" stroke="#000000" points="538.6681,-122 535.6681,-126 514.6681,-126 511.6681,-122 427.3319,-122 427.3319,-86 538.6681,-86 538.6681,-122"/>
<text text-anchor="middle" x="483" y="-99.8" font-family="Times,serif" font-size="14.00" fill="#000000">CommonModule</text>
</g>
<!-- CommonModule&#45;&gt;GamePageModule -->
<g id="edge8" class="edge">
<title>CommonModule&#45;&gt;GamePageModule</title>
<path fill="none" stroke="#000000" d="M483,-122.0091C483,-138.0494 483,-159 483,-159 483,-159 690.6781,-159 690.6781,-159"/>
<polygon fill="#000000" stroke="#000000" points="690.6782,-162.5001 700.6781,-159 690.6781,-155.5001 690.6782,-162.5001"/>
</g>
<!-- FormsModule -->
<g id="node10" class="node">
<title>FormsModule</title>
<polygon fill="#8dd3c7" stroke="#000000" points="409.8288,-122 406.8288,-126 385.8288,-126 382.8288,-122 314.1712,-122 314.1712,-86 409.8288,-86 409.8288,-122"/>
<text text-anchor="middle" x="362" y="-99.8" font-family="Times,serif" font-size="14.00" fill="#000000">FormsModule</text>
</g>
<!-- FormsModule&#45;&gt;GamePageModule -->
<g id="edge9" class="edge">
<title>FormsModule&#45;&gt;GamePageModule</title>
<path fill="none" stroke="#000000" d="M362,-122.2667C362,-140.5552 362,-166 362,-166 362,-166 690.8337,-166 690.8337,-166"/>
<polygon fill="#000000" stroke="#000000" points="690.8337,-169.5001 700.8337,-166 690.8336,-162.5001 690.8337,-169.5001"/>
</g>
<!-- IonicModule -->
<g id="node11" class="node">
<title>IonicModule</title>
<polygon fill="#8dd3c7" stroke="#000000" points="296.3162,-122 293.3162,-126 272.3162,-126 269.3162,-122 207.6838,-122 207.6838,-86 296.3162,-86 296.3162,-122"/>
<text text-anchor="middle" x="252" y="-99.8" font-family="Times,serif" font-size="14.00" fill="#000000">IonicModule</text>
</g>
<!-- IonicModule&#45;&gt;GamePageModule -->
<g id="edge10" class="edge">
<title>IonicModule&#45;&gt;GamePageModule</title>
<path fill="none" stroke="#000000" d="M252,-122.1289C252,-142.5724 252,-173 252,-173 252,-173 690.8635,-173 690.8635,-173"/>
<polygon fill="#000000" stroke="#000000" points="690.8636,-176.5001 700.8635,-173 690.8635,-169.5001 690.8636,-176.5001"/>
</g>
<!-- GamePageRoutingModule -->
<g id="node12" class="node">
<title>GamePageRoutingModule</title>
<polygon fill="#8dd3c7" stroke="#000000" points="189.8061,-122 186.8061,-126 165.8061,-126 162.8061,-122 24.1939,-122 24.1939,-86 189.8061,-86 189.8061,-122"/>
<text text-anchor="middle" x="107" y="-99.8" font-family="Times,serif" font-size="14.00" fill="#000000">GamePageRoutingModule</text>
</g>
<!-- GamePageRoutingModule&#45;&gt;GamePageModule -->
<g id="edge11" class="edge">
<title>GamePageRoutingModule&#45;&gt;GamePageModule</title>
<path fill="none" stroke="#000000" d="M107,-122.0109C107,-144.4852 107,-180 107,-180 107,-180 690.6455,-180 690.6455,-180"/>
<polygon fill="#000000" stroke="#000000" points="690.6455,-183.5001 700.6455,-180 690.6455,-176.5001 690.6455,-183.5001"/>
</g>
</g>
</svg>
