<?xml version="1.0" encoding="UTF-8" standalone="no"?>
<!DOCTYPE svg PUBLIC "-//W3C//DTD SVG 1.1//EN"
 "http://www.w3.org/Graphics/SVG/1.1/DTD/svg11.dtd">
<!-- Generated by graphviz version 2.40.1 (20161225.0304)
 -->
<!-- Title: dependencies Pages: 1 -->
<svg width="1135pt" height="211pt"
 viewBox="0.00 0.00 1135.00 211.00" xmlns="http://www.w3.org/2000/svg" xmlns:xlink="http://www.w3.org/1999/xlink">
<g id="graph0" class="graph" transform="scale(1 1) rotate(0) translate(4 207)">
<title>dependencies</title>
<polygon fill="#ffffff" stroke="transparent" points="-4,4 -4,-207 1131,-207 1131,4 -4,4"/>
<text text-anchor="start" x="542.5091" y="-42.4" font-family="sans-serif" font-weight="bold" font-size="14.00" fill="#000000">Legend</text>
<polygon fill="#ffffb3" stroke="transparent" points="329.5,-10 329.5,-30 349.5,-30 349.5,-10 329.5,-10"/>
<text text-anchor="start" x="353.129" y="-15.4" font-family="sans-serif" font-size="14.00" fill="#000000"> &#160;Declarations</text>
<polygon fill="#8dd3c7" stroke="transparent" points="442.5,-10 442.5,-30 462.5,-30 462.5,-10 442.5,-10"/>
<text text-anchor="start" x="466.2251" y="-15.4" font-family="sans-serif" font-size="14.00" fill="#000000"> &#160;Module</text>
<polygon fill="#80b1d3" stroke="transparent" points="528.5,-10 528.5,-30 548.5,-30 548.5,-10 528.5,-10"/>
<text text-anchor="start" x="552.2812" y="-15.4" font-family="sans-serif" font-size="14.00" fill="#000000"> &#160;Bootstrap</text>
<polygon fill="#fdb462" stroke="transparent" points="625.5,-10 625.5,-30 645.5,-30 645.5,-10 625.5,-10"/>
<text text-anchor="start" x="649.1732" y="-15.4" font-family="sans-serif" font-size="14.00" fill="#000000"> &#160;Providers</text>
<polygon fill="#fb8072" stroke="transparent" points="721.5,-10 721.5,-30 741.5,-30 741.5,-10 721.5,-10"/>
<text text-anchor="start" x="745.2258" y="-15.4" font-family="sans-serif" font-size="14.00" fill="#000000"> &#160;Exports</text>
<g id="clust1" class="cluster">
<title>cluster_GamePageModule</title>
<polygon fill="none" stroke="#000000" stroke-dasharray="1,5" points="8,-70 8,-195 1119,-195 1119,-70 8,-70"/>
</g>
<g id="clust2" class="cluster">
<title>cluster_GamePageModule_declarations</title>
<polygon fill="none" stroke="#000000" points="206,-78 206,-130 1111,-130 1111,-78 206,-78"/>
</g>
<g id="clust10" class="cluster">
<title>cluster_GamePageModule_imports</title>
<polygon fill="none" stroke="#000000" points="16,-78 16,-130 198,-130 198,-78 16,-78"/>
</g>
<!-- BoardComponent -->
<g id="node1" class="node">
<title>BoardComponent</title>
<polygon fill="#ffffb3" stroke="#000000" points="1102.5451,-122 987.4549,-122 987.4549,-86 1102.5451,-86 1102.5451,-122"/>
<text text-anchor="middle" x="1045" y="-99.8" font-family="Times,serif" font-size="14.00" fill="#000000">BoardComponent</text>
</g>
<!-- GamePageModule -->
<g id="node8" class="node">
<title>GamePageModule</title>
<polygon fill="#8dd3c7" stroke="#000000" points="649.1881,-187 646.1881,-191 625.1881,-191 622.1881,-187 528.8119,-187 528.8119,-151 649.1881,-151 649.1881,-187"/>
<text text-anchor="middle" x="589" y="-164.8" font-family="Times,serif" font-size="14.00" fill="#000000">GamePageModule</text>
</g>
<!-- BoardComponent&#45;&gt;GamePageModule -->
<g id="edge1" class="edge">
<title>BoardComponent&#45;&gt;GamePageModule</title>
<path fill="none" stroke="#000000" d="M1045,-122.2921C1045,-144.2057 1045,-178 1045,-178 1045,-178 659.5533,-178 659.5533,-178"/>
<polygon fill="#000000" stroke="#000000" points="659.5533,-174.5001 649.5533,-178 659.5532,-181.5001 659.5533,-174.5001"/>
</g>
<!-- ConsoleComponent -->
<g id="node2" class="node">
<title>ConsoleComponent</title>
<polygon fill="#ffffb3" stroke="#000000" points="969.719,-122 842.281,-122 842.281,-86 969.719,-86 969.719,-122"/>
<text text-anchor="middle" x="906" y="-99.8" font-family="Times,serif" font-size="14.00" fill="#000000">ConsoleComponent</text>
</g>
<!-- ConsoleComponent&#45;&gt;GamePageModule -->
<g id="edge2" class="edge">
<title>ConsoleComponent&#45;&gt;GamePageModule</title>
<path fill="none" stroke="#000000" d="M906,-122.1061C906,-141.3391 906,-169 906,-169 906,-169 659.3714,-169 659.3714,-169"/>
<polygon fill="#000000" stroke="#000000" points="659.3715,-165.5001 649.3714,-169 659.3714,-172.5001 659.3715,-165.5001"/>
</g>
<!-- ControlComponent -->
<g id="node3" class="node">
<title>ControlComponent</title>
<polygon fill="#ffffb3" stroke="#000000" points="824.1108,-122 699.8892,-122 699.8892,-86 824.1108,-86 824.1108,-122"/>
<text text-anchor="middle" x="762" y="-99.8" font-family="Times,serif" font-size="14.00" fill="#000000">ControlComponent</text>
</g>
<!-- ControlComponent&#45;&gt;GamePageModule -->
<g id="edge3" class="edge">
<title>ControlComponent&#45;&gt;GamePageModule</title>
<path fill="none" stroke="#000000" d="M762,-122.027C762,-138.3976 762,-160 762,-160 762,-160 659.507,-160 659.507,-160"/>
<polygon fill="#000000" stroke="#000000" points="659.507,-156.5001 649.507,-160 659.507,-163.5001 659.507,-156.5001"/>
</g>
<!-- GamePage -->
<g id="node4" class="node">
<title>GamePage</title>
<polygon fill="#ffffb3" stroke="#000000" points="682.139,-122 605.861,-122 605.861,-86 682.139,-86 682.139,-122"/>
<text text-anchor="middle" x="644" y="-99.8" font-family="Times,serif" font-size="14.00" fill="#000000">GamePage</text>
</g>
<!-- GamePage&#45;&gt;GamePageModule -->
<g id="edge4" class="edge">
<title>GamePage&#45;&gt;GamePageModule</title>
<path fill="none" stroke="#000000" d="M627.3874,-122.1061C627.3874,-122.1061 627.3874,-140.991 627.3874,-140.991"/>
<polygon fill="#000000" stroke="#000000" points="623.8875,-140.9909 627.3874,-150.991 630.8875,-140.991 623.8875,-140.9909"/>
</g>
<!-- HexComponent -->
<g id="node5" class="node">
<title>HexComponent</title>
<polygon fill="#ffffb3" stroke="#000000" points="587.1542,-122 482.8458,-122 482.8458,-86 587.1542,-86 587.1542,-122"/>
<text text-anchor="middle" x="535" y="-99.8" font-family="Times,serif" font-size="14.00" fill="#000000">HexComponent</text>
</g>
<!-- HexComponent&#45;&gt;GamePageModule -->
<g id="edge5" class="edge">
<title>HexComponent&#45;&gt;GamePageModule</title>
<path fill="none" stroke="#000000" d="M558.1164,-122.1061C558.1164,-122.1061 558.1164,-140.991 558.1164,-140.991"/>
<polygon fill="#000000" stroke="#000000" points="554.6165,-140.9909 558.1164,-150.991 561.6165,-140.991 554.6165,-140.9909"/>
</g>
<!-- InfoComponent -->
<g id="node6" class="node">
<title>InfoComponent</title>
<polygon fill="#ffffb3" stroke="#000000" points="464.1542,-122 359.8458,-122 359.8458,-86 464.1542,-86 464.1542,-122"/>
<text text-anchor="middle" x="412" y="-99.8" font-family="Times,serif" font-size="14.00" fill="#000000">InfoComponent</text>
</g>
<!-- InfoComponent&#45;&gt;GamePageModule -->
<g id="edge6" class="edge">
<title>InfoComponent&#45;&gt;GamePageModule</title>
<path fill="none" stroke="#000000" d="M412,-122.027C412,-138.3976 412,-160 412,-160 412,-160 518.5817,-160 518.5817,-160"/>
<polygon fill="#000000" stroke="#000000" points="518.5817,-163.5001 528.5817,-160 518.5817,-156.5001 518.5817,-163.5001"/>
</g>
<!-- PenguinComponent -->
<g id="node7" class="node">
<title>PenguinComponent</title>
<polygon fill="#ffffb3" stroke="#000000" points="341.7204,-122 214.2796,-122 214.2796,-86 341.7204,-86 341.7204,-122"/>
<text text-anchor="middle" x="278" y="-99.8" font-family="Times,serif" font-size="14.00" fill="#000000">PenguinComponent</text>
</g>
<!-- PenguinComponent&#45;&gt;GamePageModule -->
<g id="edge7" class="edge">
<title>PenguinComponent&#45;&gt;GamePageModule</title>
<path fill="none" stroke="#000000" d="M278,-122.1061C278,-141.3391 278,-169 278,-169 278,-169 518.6673,-169 518.6673,-169"/>
<polygon fill="#000000" stroke="#000000" points="518.6673,-172.5001 528.6673,-169 518.6673,-165.5001 518.6673,-172.5001"/>
</g>
<!-- GamePageRoutingModule -->
<g id="node9" class="node">
<title>GamePageRoutingModule</title>
<polygon fill="#8dd3c7" stroke="#000000" points="189.8061,-122 186.8061,-126 165.8061,-126 162.8061,-122 24.1939,-122 24.1939,-86 189.8061,-86 189.8061,-122"/>
<text text-anchor="middle" x="107" y="-99.8" font-family="Times,serif" font-size="14.00" fill="#000000">GamePageRoutingModule</text>
</g>
<!-- GamePageRoutingModule&#45;&gt;GamePageModule -->
<g id="edge8" class="edge">
<title>GamePageRoutingModule&#45;&gt;GamePageModule</title>
<path fill="none" stroke="#000000" d="M107,-122.2921C107,-144.2057 107,-178 107,-178 107,-178 518.4424,-178 518.4424,-178"/>
<polygon fill="#000000" stroke="#000000" points="518.4425,-181.5001 528.4424,-178 518.4424,-174.5001 518.4425,-181.5001"/>
</g>
</g>
</svg>
