<?xml version="1.0" encoding="UTF-8" standalone="no"?>
<!DOCTYPE svg PUBLIC "-//W3C//DTD SVG 1.1//EN"
 "http://www.w3.org/Graphics/SVG/1.1/DTD/svg11.dtd">
<!-- Generated by graphviz version 2.40.1 (20161225.0304)
 -->
<!-- Title: dependencies Pages: 1 -->
<svg width="1737pt" height="211pt"
 viewBox="0.00 0.00 1737.00 211.00" xmlns="http://www.w3.org/2000/svg" xmlns:xlink="http://www.w3.org/1999/xlink">
<g id="graph0" class="graph" transform="scale(1 1) rotate(0) translate(4 207)">
<title>dependencies</title>
<polygon fill="#ffffff" stroke="transparent" points="-4,4 -4,-207 1733,-207 1733,4 -4,4"/>
<text text-anchor="start" x="843.5091" y="-42.4" font-family="sans-serif" font-weight="bold" font-size="14.00" fill="#000000">Legend</text>
<polygon fill="#ffffb3" stroke="transparent" points="630.5,-10 630.5,-30 650.5,-30 650.5,-10 630.5,-10"/>
<text text-anchor="start" x="654.129" y="-15.4" font-family="sans-serif" font-size="14.00" fill="#000000"> &#160;Declarations</text>
<polygon fill="#8dd3c7" stroke="transparent" points="743.5,-10 743.5,-30 763.5,-30 763.5,-10 743.5,-10"/>
<text text-anchor="start" x="767.2251" y="-15.4" font-family="sans-serif" font-size="14.00" fill="#000000"> &#160;Module</text>
<polygon fill="#80b1d3" stroke="transparent" points="829.5,-10 829.5,-30 849.5,-30 849.5,-10 829.5,-10"/>
<text text-anchor="start" x="853.2812" y="-15.4" font-family="sans-serif" font-size="14.00" fill="#000000"> &#160;Bootstrap</text>
<polygon fill="#fdb462" stroke="transparent" points="926.5,-10 926.5,-30 946.5,-30 946.5,-10 926.5,-10"/>
<text text-anchor="start" x="950.1732" y="-15.4" font-family="sans-serif" font-size="14.00" fill="#000000"> &#160;Providers</text>
<polygon fill="#fb8072" stroke="transparent" points="1022.5,-10 1022.5,-30 1042.5,-30 1042.5,-10 1022.5,-10"/>
<text text-anchor="start" x="1046.2258" y="-15.4" font-family="sans-serif" font-size="14.00" fill="#000000"> &#160;Exports</text>
<g id="clust1" class="cluster">
<title>cluster_GamePageModule</title>
<polygon fill="none" stroke="#000000" stroke-dasharray="1,5" points="8,-70 8,-195 1721,-195 1721,-70 8,-70"/>
</g>
<g id="clust2" class="cluster">
<title>cluster_GamePageModule_declarations</title>
<polygon fill="none" stroke="#000000" points="669,-78 669,-130 1713,-130 1713,-78 669,-78"/>
</g>
<g id="clust11" class="cluster">
<title>cluster_GamePageModule_imports</title>
<polygon fill="none" stroke="#000000" points="16,-78 16,-130 661,-130 661,-78 16,-78"/>
</g>
<!-- GamePage -->
<g id="node1" class="node">
<title>GamePage</title>
<polygon fill="#ffffb3" stroke="#000000" points="1705.139,-122 1628.861,-122 1628.861,-86 1705.139,-86 1705.139,-122"/>
<text text-anchor="middle" x="1667" y="-99.8" font-family="Times,serif" font-size="14.00" fill="#000000">GamePage</text>
</g>
<!-- GamePageModule -->
<g id="node9" class="node">
<title>GamePageModule</title>
<polygon fill="#8dd3c7" stroke="#000000" points="941.1881,-187 938.1881,-191 917.1881,-191 914.1881,-187 820.8119,-187 820.8119,-151 941.1881,-151 941.1881,-187"/>
<text text-anchor="middle" x="881" y="-164.8" font-family="Times,serif" font-size="14.00" fill="#000000">GamePageModule</text>
</g>
<!-- GamePage&#45;&gt;GamePageModule -->
<g id="edge1" class="edge">
<title>GamePage&#45;&gt;GamePageModule</title>
<path fill="none" stroke="#000000" d="M1667,-122.0908C1667,-145.1328 1667,-182 1667,-182 1667,-182 951.371,-182 951.371,-182"/>
<polygon fill="#000000" stroke="#000000" points="951.371,-178.5001 941.371,-182 951.371,-185.5001 951.371,-178.5001"/>
</g>
<!-- BoardComponent -->
<g id="node2" class="node">
<title>BoardComponent</title>
<polygon fill="#ffffb3" stroke="#000000" points="1610.5451,-122 1495.4549,-122 1495.4549,-86 1610.5451,-86 1610.5451,-122"/>
<text text-anchor="middle" x="1553" y="-99.8" font-family="Times,serif" font-size="14.00" fill="#000000">BoardComponent</text>
</g>
<!-- BoardComponent&#45;&gt;GamePageModule -->
<g id="edge2" class="edge">
<title>BoardComponent&#45;&gt;GamePageModule</title>
<path fill="none" stroke="#000000" d="M1553,-122.0449C1553,-143.6623 1553,-177 1553,-177 1553,-177 951.2269,-177 951.2269,-177"/>
<polygon fill="#000000" stroke="#000000" points="951.2269,-173.5001 941.2269,-177 951.2269,-180.5001 951.2269,-173.5001"/>
</g>
<!-- InfoComponent -->
<g id="node3" class="node">
<title>InfoComponent</title>
<polygon fill="#ffffb3" stroke="#000000" points="1477.1542,-122 1372.8458,-122 1372.8458,-86 1477.1542,-86 1477.1542,-122"/>
<text text-anchor="middle" x="1425" y="-99.8" font-family="Times,serif" font-size="14.00" fill="#000000">InfoComponent</text>
</g>
<!-- InfoComponent&#45;&gt;GamePageModule -->
<g id="edge3" class="edge">
<title>InfoComponent&#45;&gt;GamePageModule</title>
<path fill="none" stroke="#000000" d="M1425,-122.2228C1425,-142.3652 1425,-172 1425,-172 1425,-172 951.296,-172 951.296,-172"/>
<polygon fill="#000000" stroke="#000000" points="951.2961,-168.5001 941.296,-172 951.296,-175.5001 951.2961,-168.5001"/>
</g>
<!-- ControlComponent -->
<g id="node4" class="node">
<title>ControlComponent</title>
<polygon fill="#ffffb3" stroke="#000000" points="1355.1108,-122 1230.8892,-122 1230.8892,-86 1355.1108,-86 1355.1108,-122"/>
<text text-anchor="middle" x="1293" y="-99.8" font-family="Times,serif" font-size="14.00" fill="#000000">ControlComponent</text>
</g>
<!-- ControlComponent&#45;&gt;GamePageModule -->
<g id="edge4" class="edge">
<title>ControlComponent&#45;&gt;GamePageModule</title>
<path fill="none" stroke="#000000" d="M1293,-122.2222C1293,-140.8285 1293,-167 1293,-167 1293,-167 951.3496,-167 951.3496,-167"/>
<polygon fill="#000000" stroke="#000000" points="951.3496,-163.5001 941.3496,-167 951.3495,-170.5001 951.3496,-163.5001"/>
</g>
<!-- ConsoleComponent -->
<g id="node5" class="node">
<title>ConsoleComponent</title>
<polygon fill="#ffffb3" stroke="#000000" points="1212.719,-122 1085.281,-122 1085.281,-86 1212.719,-86 1212.719,-122"/>
<text text-anchor="middle" x="1149" y="-99.8" font-family="Times,serif" font-size="14.00" fill="#000000">ConsoleComponent</text>
</g>
<!-- ConsoleComponent&#45;&gt;GamePageModule -->
<g id="edge5" class="edge">
<title>ConsoleComponent&#45;&gt;GamePageModule</title>
<path fill="none" stroke="#000000" d="M1149,-122.0336C1149,-139.0597 1149,-162 1149,-162 1149,-162 951.1444,-162 951.1444,-162"/>
<polygon fill="#000000" stroke="#000000" points="951.1445,-158.5001 941.1444,-162 951.1444,-165.5001 951.1445,-158.5001"/>
</g>
<!-- HexComponent -->
<g id="node6" class="node">
<title>HexComponent</title>
<polygon fill="#ffffb3" stroke="#000000" points="1067.1542,-122 962.8458,-122 962.8458,-86 1067.1542,-86 1067.1542,-122"/>
<text text-anchor="middle" x="1015" y="-99.8" font-family="Times,serif" font-size="14.00" fill="#000000">HexComponent</text>
</g>
<!-- HexComponent&#45;&gt;GamePageModule -->
<g id="edge6" class="edge">
<title>HexComponent&#45;&gt;GamePageModule</title>
<path fill="none" stroke="#000000" d="M1015,-122.2396C1015,-137.5706 1015,-157 1015,-157 1015,-157 951.336,-157 951.336,-157"/>
<polygon fill="#000000" stroke="#000000" points="951.336,-153.5001 941.336,-157 951.3359,-160.5001 951.336,-153.5001"/>
</g>
<!-- PenguinComponent -->
<g id="node7" class="node">
<title>PenguinComponent</title>
<polygon fill="#ffffb3" stroke="#000000" points="944.7204,-122 817.2796,-122 817.2796,-86 944.7204,-86 944.7204,-122"/>
<text text-anchor="middle" x="881" y="-99.8" font-family="Times,serif" font-size="14.00" fill="#000000">PenguinComponent</text>
</g>
<!-- PenguinComponent&#45;&gt;GamePageModule -->
<g id="edge7" class="edge">
<title>PenguinComponent&#45;&gt;GamePageModule</title>
<path fill="none" stroke="#000000" d="M881,-122.1061C881,-122.1061 881,-140.991 881,-140.991"/>
<polygon fill="#000000" stroke="#000000" points="877.5001,-140.9909 881,-150.991 884.5001,-140.991 877.5001,-140.9909"/>
</g>
<!-- ResultsComponent -->
<g id="node8" class="node">
<title>ResultsComponent</title>
<polygon fill="#ffffb3" stroke="#000000" points="799.0548,-122 676.9452,-122 676.9452,-86 799.0548,-86 799.0548,-122"/>
<text text-anchor="middle" x="738" y="-99.8" font-family="Times,serif" font-size="14.00" fill="#000000">ResultsComponent</text>
</g>
<!-- ResultsComponent&#45;&gt;GamePageModule -->
<g id="edge8" class="edge">
<title>ResultsComponent&#45;&gt;GamePageModule</title>
<path fill="none" stroke="#000000" d="M738,-122.2396C738,-137.5706 738,-157 738,-157 738,-157 810.7696,-157 810.7696,-157"/>
<polygon fill="#000000" stroke="#000000" points="810.7696,-160.5001 820.7696,-157 810.7695,-153.5001 810.7696,-160.5001"/>
</g>
<!-- CommonModule -->
<g id="node10" class="node">
<title>CommonModule</title>
<polygon fill="#8dd3c7" stroke="#000000" points="652.6681,-122 649.6681,-126 628.6681,-126 625.6681,-122 541.3319,-122 541.3319,-86 652.6681,-86 652.6681,-122"/>
<text text-anchor="middle" x="597" y="-99.8" font-family="Times,serif" font-size="14.00" fill="#000000">CommonModule</text>
</g>
<!-- CommonModule&#45;&gt;GamePageModule -->
<g id="edge9" class="edge">
<title>CommonModule&#45;&gt;GamePageModule</title>
<path fill="none" stroke="#000000" d="M597,-122.0336C597,-139.0597 597,-162 597,-162 597,-162 810.7709,-162 810.7709,-162"/>
<polygon fill="#000000" stroke="#000000" points="810.7709,-165.5001 820.7709,-162 810.7709,-158.5001 810.7709,-165.5001"/>
</g>
<!-- FormsModule -->
<g id="node11" class="node">
<title>FormsModule</title>
<polygon fill="#8dd3c7" stroke="#000000" points="523.8288,-122 520.8288,-126 499.8288,-126 496.8288,-122 428.1712,-122 428.1712,-86 523.8288,-86 523.8288,-122"/>
<text text-anchor="middle" x="476" y="-99.8" font-family="Times,serif" font-size="14.00" fill="#000000">FormsModule</text>
</g>
<!-- FormsModule&#45;&gt;GamePageModule -->
<g id="edge10" class="edge">
<title>FormsModule&#45;&gt;GamePageModule</title>
<path fill="none" stroke="#000000" d="M476,-122.2222C476,-140.8285 476,-167 476,-167 476,-167 810.8047,-167 810.8047,-167"/>
<polygon fill="#000000" stroke="#000000" points="810.8048,-170.5001 820.8047,-167 810.8047,-163.5001 810.8048,-170.5001"/>
</g>
<!-- IonicModule -->
<g id="node12" class="node">
<title>IonicModule</title>
<polygon fill="#8dd3c7" stroke="#000000" points="410.3162,-122 407.3162,-126 386.3162,-126 383.3162,-122 321.6838,-122 321.6838,-86 410.3162,-86 410.3162,-122"/>
<text text-anchor="middle" x="366" y="-99.8" font-family="Times,serif" font-size="14.00" fill="#000000">IonicModule</text>
</g>
<!-- IonicModule&#45;&gt;GamePageModule -->
<g id="edge11" class="edge">
<title>IonicModule&#45;&gt;GamePageModule</title>
<path fill="none" stroke="#000000" d="M366,-122.2228C366,-142.3652 366,-172 366,-172 366,-172 810.662,-172 810.662,-172"/>
<polygon fill="#000000" stroke="#000000" points="810.662,-175.5001 820.662,-172 810.662,-168.5001 810.662,-175.5001"/>
</g>
<!-- GamePageRoutingModule -->
<g id="node13" class="node">
<title>GamePageRoutingModule</title>
<polygon fill="#8dd3c7" stroke="#000000" points="303.8061,-122 300.8061,-126 279.8061,-126 276.8061,-122 138.1939,-122 138.1939,-86 303.8061,-86 303.8061,-122"/>
<text text-anchor="middle" x="221" y="-99.8" font-family="Times,serif" font-size="14.00" fill="#000000">GamePageRoutingModule</text>
</g>
<!-- GamePageRoutingModule&#45;&gt;GamePageModule -->
<g id="edge12" class="edge">
<title>GamePageRoutingModule&#45;&gt;GamePageModule</title>
<path fill="none" stroke="#000000" d="M221,-122.0449C221,-143.6623 221,-177 221,-177 221,-177 810.6798,-177 810.6798,-177"/>
<polygon fill="#000000" stroke="#000000" points="810.6798,-180.5001 820.6798,-177 810.6797,-173.5001 810.6798,-180.5001"/>
</g>
<!-- ChartsModule -->
<g id="node14" class="node">
<title>ChartsModule</title>
<polygon fill="#8dd3c7" stroke="#000000" points="120.0968,-122 117.0968,-126 96.0968,-126 93.0968,-122 23.9032,-122 23.9032,-86 120.0968,-86 120.0968,-122"/>
<text text-anchor="middle" x="72" y="-99.8" font-family="Times,serif" font-size="14.00" fill="#000000">ChartsModule</text>
</g>
<!-- ChartsModule&#45;&gt;GamePageModule -->
<g id="edge13" class="edge">
<title>ChartsModule&#45;&gt;GamePageModule</title>
<path fill="none" stroke="#000000" d="M72,-122.0908C72,-145.1328 72,-182 72,-182 72,-182 810.8544,-182 810.8544,-182"/>
<polygon fill="#000000" stroke="#000000" points="810.8545,-185.5001 820.8544,-182 810.8544,-178.5001 810.8545,-185.5001"/>
</g>
</g>
</svg>
