<?xml version="1.0" encoding="UTF-8" standalone="no"?>
<!DOCTYPE svg PUBLIC "-//W3C//DTD SVG 1.1//EN"
 "http://www.w3.org/Graphics/SVG/1.1/DTD/svg11.dtd">
<!-- Generated by graphviz version 2.40.1 (20161225.0304)
 -->
<!-- Title: dependencies Pages: 1 -->
<svg width="863pt" height="284pt"
 viewBox="0.00 0.00 863.00 284.00" xmlns="http://www.w3.org/2000/svg" xmlns:xlink="http://www.w3.org/1999/xlink">
<g id="graph0" class="graph" transform="scale(1 1) rotate(0) translate(4 280)">
<title>dependencies</title>
<polygon fill="#ffffff" stroke="transparent" points="-4,4 -4,-280 859,-280 859,4 -4,4"/>
<text text-anchor="start" x="406.5091" y="-42.4" font-family="sans-serif" font-weight="bold" font-size="14.00" fill="#000000">Legend</text>
<polygon fill="#ffffb3" stroke="transparent" points="193.5,-10 193.5,-30 213.5,-30 213.5,-10 193.5,-10"/>
<text text-anchor="start" x="217.129" y="-15.4" font-family="sans-serif" font-size="14.00" fill="#000000"> &#160;Declarations</text>
<polygon fill="#8dd3c7" stroke="transparent" points="306.5,-10 306.5,-30 326.5,-30 326.5,-10 306.5,-10"/>
<text text-anchor="start" x="330.2251" y="-15.4" font-family="sans-serif" font-size="14.00" fill="#000000"> &#160;Module</text>
<polygon fill="#80b1d3" stroke="transparent" points="392.5,-10 392.5,-30 412.5,-30 412.5,-10 392.5,-10"/>
<text text-anchor="start" x="416.2812" y="-15.4" font-family="sans-serif" font-size="14.00" fill="#000000"> &#160;Bootstrap</text>
<polygon fill="#fdb462" stroke="transparent" points="489.5,-10 489.5,-30 509.5,-30 509.5,-10 489.5,-10"/>
<text text-anchor="start" x="513.1732" y="-15.4" font-family="sans-serif" font-size="14.00" fill="#000000"> &#160;Providers</text>
<polygon fill="#fb8072" stroke="transparent" points="585.5,-10 585.5,-30 605.5,-30 605.5,-10 585.5,-10"/>
<text text-anchor="start" x="609.2258" y="-15.4" font-family="sans-serif" font-size="14.00" fill="#000000"> &#160;Exports</text>
<g id="clust1" class="cluster">
<title>cluster_AppModule</title>
<polygon fill="none" stroke="#000000" stroke-dasharray="1,5" points="8,-70 8,-268 847,-268 847,-70 8,-70"/>
</g>
<g id="clust2" class="cluster">
<title>cluster_AppModule_declarations</title>
<polygon fill="none" stroke="#000000" points="717,-78 717,-130 839,-130 839,-78 717,-78"/>
</g>
<g id="clust4" class="cluster">
<title>cluster_AppModule_imports</title>
<polygon fill="none" stroke="#000000" points="16,-78 16,-130 709,-130 709,-78 16,-78"/>
</g>
<g id="clust6" class="cluster">
<title>cluster_AppModule_bootstrap</title>
<polygon fill="none" stroke="#000000" points="341,-208 341,-260 465,-260 465,-208 341,-208"/>
</g>
<!-- AppComponent -->
<g id="node1" class="node">
<title>AppComponent</title>
<polygon fill="#ffffb3" stroke="#000000" points="830.9399,-122 725.0601,-122 725.0601,-86 830.9399,-86 830.9399,-122"/>
<text text-anchor="middle" x="778" y="-99.8" font-family="Times,serif" font-size="14.00" fill="#000000">AppComponent</text>
</g>
<!-- AppModule -->
<g id="node2" class="node">
<title>AppModule</title>
<polygon fill="#8dd3c7" stroke="#000000" points="444.6571,-187 441.6571,-191 420.6571,-191 417.6571,-187 361.3429,-187 361.3429,-151 444.6571,-151 444.6571,-187"/>
<text text-anchor="middle" x="403" y="-164.8" font-family="Times,serif" font-size="14.00" fill="#000000">AppModule</text>
</g>
<!-- AppComponent&#45;&gt;AppModule -->
<g id="edge1" class="edge">
<title>AppComponent&#45;&gt;AppModule</title>
<path fill="none" stroke="#000000" d="M778,-122.2921C778,-144.2057 778,-178 778,-178 778,-178 454.9257,-178 454.9257,-178"/>
<polygon fill="#000000" stroke="#000000" points="454.9257,-174.5001 444.9257,-178 454.9257,-181.5001 454.9257,-174.5001"/>
</g>
<!-- AppComponent  -->
<g id="node9" class="node">
<title>AppComponent </title>
<polygon fill="#80b1d3" stroke="#000000" points="457.439,-252 348.561,-252 348.561,-216 457.439,-216 457.439,-252"/>
<text text-anchor="middle" x="403" y="-229.8" font-family="Times,serif" font-size="14.00" fill="#000000">AppComponent </text>
</g>
<!-- AppModule&#45;&gt;AppComponent  -->
<g id="edge8" class="edge">
<title>AppModule&#45;&gt;AppComponent </title>
<path fill="none" stroke="#000000" stroke-dasharray="1,5" d="M403,-187.1061C403,-187.1061 403,-205.991 403,-205.991"/>
<polygon fill="#000000" stroke="#000000" points="399.5001,-205.9909 403,-215.991 406.5001,-205.991 399.5001,-205.9909"/>
</g>
<!-- AppRoutingModule -->
<g id="node3" class="node">
<title>AppRoutingModule</title>
<polygon fill="#8dd3c7" stroke="#000000" points="701.2744,-122 698.2744,-126 677.2744,-126 674.2744,-122 572.7256,-122 572.7256,-86 701.2744,-86 701.2744,-122"/>
<text text-anchor="middle" x="637" y="-99.8" font-family="Times,serif" font-size="14.00" fill="#000000">AppRoutingModule</text>
</g>
<!-- AppRoutingModule&#45;&gt;AppModule -->
<g id="edge2" class="edge">
<title>AppRoutingModule&#45;&gt;AppModule</title>
<path fill="none" stroke="#000000" d="M637,-122.1061C637,-141.3391 637,-169 637,-169 637,-169 454.8345,-169 454.8345,-169"/>
<polygon fill="#000000" stroke="#000000" points="454.8345,-165.5001 444.8345,-169 454.8345,-172.5001 454.8345,-165.5001"/>
</g>
<!-- CoreModule -->
<g id="node4" class="node">
<title>CoreModule</title>
<polygon fill="#8dd3c7" stroke="#000000" points="554.2619,-122 551.2619,-126 530.2619,-126 527.2619,-122 467.7381,-122 467.7381,-86 554.2619,-86 554.2619,-122"/>
<text text-anchor="middle" x="511" y="-99.8" font-family="Times,serif" font-size="14.00" fill="#000000">CoreModule</text>
</g>
<!-- CoreModule&#45;&gt;AppModule -->
<g id="edge3" class="edge">
<title>CoreModule&#45;&gt;AppModule</title>
<path fill="none" stroke="#000000" d="M511,-122.027C511,-138.3976 511,-160 511,-160 511,-160 454.7556,-160 454.7556,-160"/>
<polygon fill="#000000" stroke="#000000" points="454.7557,-156.5001 444.7556,-160 454.7556,-163.5001 454.7557,-156.5001"/>
</g>
<!-- HomeModule -->
<g id="node5" class="node">
<title>HomeModule</title>
<polygon fill="#8dd3c7" stroke="#000000" points="449.7619,-122 446.7619,-126 425.7619,-126 422.7619,-122 356.2381,-122 356.2381,-86 449.7619,-86 449.7619,-122"/>
<text text-anchor="middle" x="403" y="-99.8" font-family="Times,serif" font-size="14.00" fill="#000000">HomeModule</text>
</g>
<!-- HomeModule&#45;&gt;AppModule -->
<g id="edge4" class="edge">
<title>HomeModule&#45;&gt;AppModule</title>
<path fill="none" stroke="#000000" d="M403,-122.1061C403,-122.1061 403,-140.991 403,-140.991"/>
<polygon fill="#000000" stroke="#000000" points="399.5001,-140.9909 403,-150.991 406.5001,-140.991 399.5001,-140.9909"/>
</g>
<!-- SharedModule -->
<g id="node6" class="node">
<title>SharedModule</title>
<polygon fill="#8dd3c7" stroke="#000000" points="338.4231,-122 335.4231,-126 314.4231,-126 311.4231,-122 239.5769,-122 239.5769,-86 338.4231,-86 338.4231,-122"/>
<text text-anchor="middle" x="289" y="-99.8" font-family="Times,serif" font-size="14.00" fill="#000000">SharedModule</text>
</g>
<!-- SharedModule&#45;&gt;AppModule -->
<g id="edge5" class="edge">
<title>SharedModule&#45;&gt;AppModule</title>
<path fill="none" stroke="#000000" d="M289,-122.027C289,-138.3976 289,-160 289,-160 289,-160 351.1979,-160 351.1979,-160"/>
<polygon fill="#000000" stroke="#000000" points="351.198,-163.5001 361.1979,-160 351.1979,-156.5001 351.198,-163.5001"/>
</g>
<!-- ShellModule -->
<g id="node7" class="node">
<title>ShellModule</title>
<polygon fill="#8dd3c7" stroke="#000000" points="222.3288,-122 219.3288,-126 198.3288,-126 195.3288,-122 133.6712,-122 133.6712,-86 222.3288,-86 222.3288,-122"/>
<text text-anchor="middle" x="178" y="-99.8" font-family="Times,serif" font-size="14.00" fill="#000000">ShellModule</text>
</g>
<!-- ShellModule&#45;&gt;AppModule -->
<g id="edge6" class="edge">
<title>ShellModule&#45;&gt;AppModule</title>
<path fill="none" stroke="#000000" d="M178,-122.1061C178,-141.3391 178,-169 178,-169 178,-169 351.2065,-169 351.2065,-169"/>
<polygon fill="#000000" stroke="#000000" points="351.2066,-172.5001 361.2065,-169 351.2065,-165.5001 351.2066,-172.5001"/>
</g>
<!-- TeamModule -->
<g id="node8" class="node">
<title>TeamModule</title>
<polygon fill="#8dd3c7" stroke="#000000" points="115.9232,-122 112.9232,-126 91.9232,-126 88.9232,-122 24.0768,-122 24.0768,-86 115.9232,-86 115.9232,-122"/>
<text text-anchor="middle" x="70" y="-99.8" font-family="Times,serif" font-size="14.00" fill="#000000">TeamModule</text>
</g>
<!-- TeamModule&#45;&gt;AppModule -->
<g id="edge7" class="edge">
<title>TeamModule&#45;&gt;AppModule</title>
<path fill="none" stroke="#000000" d="M70,-122.2921C70,-144.2057 70,-178 70,-178 70,-178 351.1625,-178 351.1625,-178"/>
<polygon fill="#000000" stroke="#000000" points="351.1625,-181.5001 361.1625,-178 351.1625,-174.5001 351.1625,-181.5001"/>
</g>
</g>
</svg>
