<?xml version="1.0" encoding="UTF-8" standalone="no"?>
<!DOCTYPE svg PUBLIC "-//W3C//DTD SVG 1.1//EN"
 "http://www.w3.org/Graphics/SVG/1.1/DTD/svg11.dtd">
<!-- Generated by graphviz version 2.40.1 (20161225.0304)
 -->
<!-- Title: /workspace/src/game_logic/AbstractBoardCell.hpp Pages: 1 -->
<svg width="2586pt" height="329pt"
 viewBox="0.00 0.00 2586.20 329.00" xmlns="http://www.w3.org/2000/svg" xmlns:xlink="http://www.w3.org/1999/xlink">
<g id="graph0" class="graph" transform="scale(1 1) rotate(0) translate(4 325)">
<title>/workspace/src/game_logic/AbstractBoardCell.hpp</title>
<!-- Node1 -->
<g id="node1" class="node">
<title>Node1</title>
<polygon fill="#bfbfbf" stroke="#000000" points="1773.2039,-290.5 1773.2039,-320.5 1930.2039,-320.5 1930.2039,-290.5 1773.2039,-290.5"/>
<text text-anchor="start" x="1781.2039" y="-308.5" font-family="Helvetica,sans-Serif" font-size="10.00" fill="#000000">/workspace/src/game</text>
<text text-anchor="middle" x="1851.7039" y="-297.5" font-family="Helvetica,sans-Serif" font-size="10.00" fill="#000000">_logic/AbstractBoardCell.hpp</text>
</g>
<!-- Node2 -->
<g id="node2" class="node">
<title>Node2</title>
<g id="a_node2"><a xlink:href="tic__tac__toe_2_board_cell_8hpp.html" target="_top" xlink:title="/workspace/src/game\l_logic/tic_tac_toe/BoardCell.hpp">
<polygon fill="none" stroke="#000000" points="817.2039,-156.5 817.2039,-186.5 990.2039,-186.5 990.2039,-156.5 817.2039,-156.5"/>
<text text-anchor="start" x="825.2039" y="-174.5" font-family="Helvetica,sans-Serif" font-size="10.00" fill="#000000">/workspace/src/game</text>
<text text-anchor="middle" x="903.7039" y="-163.5" font-family="Helvetica,sans-Serif" font-size="10.00" fill="#000000">_logic/tic_tac_toe/BoardCell.hpp</text>
</a>
</g>
</g>
<!-- Node1&#45;&gt;Node2 -->
<g id="edge1" class="edge">
<title>Node1&#45;&gt;Node2</title>
<path fill="none" stroke="#191970" d="M1762.8672,-292.9429C1581.3256,-267.282 1169.8268,-209.1165 990.2436,-183.7324"/>
<polygon fill="#191970" stroke="#191970" points="1762.5225,-296.4289 1772.9139,-294.363 1763.5022,-289.4978 1762.5225,-296.4289"/>
</g>
<!-- Node15 -->
<g id="node15" class="node">
<title>Node15</title>
<g id="a_node15"><a xlink:href="penguin_2_board_cell_8hpp.html" target="_top" xlink:title="/workspace/src/game\l_logic/penguin/BoardCell.hpp">
<polygon fill="none" stroke="#000000" points="1372.7039,-156.5 1372.7039,-186.5 1530.7039,-186.5 1530.7039,-156.5 1372.7039,-156.5"/>
<text text-anchor="start" x="1380.7039" y="-174.5" font-family="Helvetica,sans-Serif" font-size="10.00" fill="#000000">/workspace/src/game</text>
<text text-anchor="middle" x="1451.7039" y="-163.5" font-family="Helvetica,sans-Serif" font-size="10.00" fill="#000000">_logic/penguin/BoardCell.hpp</text>
</a>
</g>
</g>
<!-- Node1&#45;&gt;Node15 -->
<g id="edge14" class="edge">
<title>Node1&#45;&gt;Node15</title>
<path fill="none" stroke="#191970" d="M1796.7306,-287.084C1716.9044,-260.3422 1570.4064,-211.2654 1496.6465,-186.5558"/>
<polygon fill="#191970" stroke="#191970" points="1796.0024,-290.5311 1806.5963,-290.389 1798.226,-283.8937 1796.0024,-290.5311"/>
</g>
<!-- Node17 -->
<g id="node17" class="node">
<title>Node17</title>
<g id="a_node17"><a xlink:href="penguin_2_board_cell_8cpp.html" target="_top" xlink:title="/workspace/src/game\l_logic/penguin/BoardCell.cpp">
<polygon fill="none" stroke="#000000" points="1889.7039,-84 1889.7039,-114 2047.7039,-114 2047.7039,-84 1889.7039,-84"/>
<text text-anchor="start" x="1897.7039" y="-102" font-family="Helvetica,sans-Serif" font-size="10.00" fill="#000000">/workspace/src/game</text>
<text text-anchor="middle" x="1968.7039" y="-91" font-family="Helvetica,sans-Serif" font-size="10.00" fill="#000000">_logic/penguin/BoardCell.cpp</text>
</a>
</g>
</g>
<!-- Node1&#45;&gt;Node17 -->
<g id="edge27" class="edge">
<title>Node1&#45;&gt;Node17</title>
<path fill="none" stroke="#191970" d="M1831.5071,-282.2924C1819.5518,-265.6083 1808.4003,-242.6784 1817.7039,-223 1842.2792,-171.0192 1900.5081,-133.5121 1937.0524,-114.1002"/>
<polygon fill="#191970" stroke="#191970" points="1828.863,-284.5958 1837.7282,-290.3975 1834.4159,-280.3337 1828.863,-284.5958"/>
</g>
<!-- Node19 -->
<g id="node19" class="node">
<title>Node19</title>
<g id="a_node19"><a xlink:href="_abstract_board_cell_8cpp.html" target="_top" xlink:title="/workspace/src/game\l_logic/AbstractBoardCell.cpp">
<polygon fill="none" stroke="#000000" points="1826.7039,-223.5 1826.7039,-253.5 1982.7039,-253.5 1982.7039,-223.5 1826.7039,-223.5"/>
<text text-anchor="start" x="1834.7039" y="-241.5" font-family="Helvetica,sans-Serif" font-size="10.00" fill="#000000">/workspace/src/game</text>
<text text-anchor="middle" x="1904.7039" y="-230.5" font-family="Helvetica,sans-Serif" font-size="10.00" fill="#000000">_logic/AbstractBoardCell.cpp</text>
</a>
</g>
</g>
<!-- Node1&#45;&gt;Node19 -->
<g id="edge26" class="edge">
<title>Node1&#45;&gt;Node19</title>
<path fill="none" stroke="#191970" d="M1870.0158,-282.3509C1877.5329,-272.8482 1886.0248,-262.1132 1892.7249,-253.6432"/>
<polygon fill="#191970" stroke="#191970" points="1867.1894,-280.2824 1863.7304,-290.2967 1872.6794,-284.6252 1867.1894,-280.2824"/>
</g>
<!-- Node20 -->
<g id="node20" class="node">
<title>Node20</title>
<g id="a_node20"><a xlink:href="_m_c_t_s_player_8hpp.html" target="_top" xlink:title="/workspace/src/mcts\l/MCTSPlayer.hpp">
<polygon fill="none" stroke="#000000" points="2151.7039,-156.5 2151.7039,-186.5 2267.7039,-186.5 2267.7039,-156.5 2151.7039,-156.5"/>
<text text-anchor="start" x="2159.7039" y="-174.5" font-family="Helvetica,sans-Serif" font-size="10.00" fill="#000000">/workspace/src/mcts</text>
<text text-anchor="middle" x="2209.7039" y="-163.5" font-family="Helvetica,sans-Serif" font-size="10.00" fill="#000000">/MCTSPlayer.hpp</text>
</a>
</g>
</g>
<!-- Node1&#45;&gt;Node20 -->
<g id="edge28" class="edge">
<title>Node1&#45;&gt;Node20</title>
<path fill="none" stroke="#191970" d="M1940.6799,-294.4774C2007.9988,-285.0852 2094.0736,-270.5108 2125.7039,-254 2157.0522,-237.6363 2184.3925,-205.713 2198.8256,-186.7329"/>
<polygon fill="#191970" stroke="#191970" points="1939.9001,-291.0516 1930.4707,-295.8824 1940.8545,-297.9862 1939.9001,-291.0516"/>
</g>
<!-- Node24 -->
<g id="node24" class="node">
<title>Node24</title>
<g id="a_node24"><a xlink:href="_tree_8hpp.html" target="_top" xlink:title="/workspace/src/mcts\l/Tree.hpp">
<polygon fill="none" stroke="#000000" points="2000.7039,-223.5 2000.7039,-253.5 2116.7039,-253.5 2116.7039,-223.5 2000.7039,-223.5"/>
<text text-anchor="start" x="2008.7039" y="-241.5" font-family="Helvetica,sans-Serif" font-size="10.00" fill="#000000">/workspace/src/mcts</text>
<text text-anchor="middle" x="2058.7039" y="-230.5" font-family="Helvetica,sans-Serif" font-size="10.00" fill="#000000">/Tree.hpp</text>
</a>
</g>
</g>
<!-- Node1&#45;&gt;Node24 -->
<g id="edge35" class="edge">
<title>Node1&#45;&gt;Node24</title>
<path fill="none" stroke="#191970" d="M1908.0081,-287.2759C1940.6319,-276.7165 1981.2164,-263.5805 2012.0464,-253.6017"/>
<polygon fill="#191970" stroke="#191970" points="1906.5949,-284.0545 1898.1587,-290.4639 1908.7506,-290.7143 1906.5949,-284.0545"/>
</g>
<!-- Node3 -->
<g id="node3" class="node">
<title>Node3</title>
<g id="a_node3"><a xlink:href="_abstract_board_8cpp.html" target="_top" xlink:title="/workspace/src/game\l_logic/AbstractBoard.cpp">
<polygon fill="none" stroke="#000000" points="982.2039,-84 982.2039,-114 1119.2039,-114 1119.2039,-84 982.2039,-84"/>
<text text-anchor="start" x="990.2039" y="-102" font-family="Helvetica,sans-Serif" font-size="10.00" fill="#000000">/workspace/src/game</text>
<text text-anchor="middle" x="1050.7039" y="-91" font-family="Helvetica,sans-Serif" font-size="10.00" fill="#000000">_logic/AbstractBoard.cpp</text>
</a>
</g>
</g>
<!-- Node2&#45;&gt;Node3 -->
<g id="edge2" class="edge">
<title>Node2&#45;&gt;Node3</title>
<path fill="none" stroke="#191970" d="M943.4286,-151.9079C967.6089,-139.9822 998.0216,-124.9828 1020.2844,-114.0028"/>
<polygon fill="#191970" stroke="#191970" points="941.5827,-148.9156 934.1623,-156.478 944.6791,-155.1936 941.5827,-148.9156"/>
</g>
<!-- Node4 -->
<g id="node4" class="node">
<title>Node4</title>
<g id="a_node4"><a xlink:href="_abstract_game_8cpp.html" target="_top" xlink:title="/workspace/src/game\l_logic/AbstractGame.cpp">
<polygon fill="none" stroke="#000000" points="1137.7039,-84 1137.7039,-114 1275.7039,-114 1275.7039,-84 1137.7039,-84"/>
<text text-anchor="start" x="1145.7039" y="-102" font-family="Helvetica,sans-Serif" font-size="10.00" fill="#000000">/workspace/src/game</text>
<text text-anchor="middle" x="1206.7039" y="-91" font-family="Helvetica,sans-Serif" font-size="10.00" fill="#000000">_logic/AbstractGame.cpp</text>
</a>
</g>
</g>
<!-- Node2&#45;&gt;Node4 -->
<g id="edge3" class="edge">
<title>Node2&#45;&gt;Node4</title>
<path fill="none" stroke="#191970" d="M981.8349,-154.218C1024.94,-144.5124 1079.3738,-131.9758 1127.7039,-120 1135.2801,-118.1227 1143.2474,-116.0827 1151.088,-114.0366"/>
<polygon fill="#191970" stroke="#191970" points="980.9659,-150.8259 971.9763,-156.4329 982.5004,-157.6557 980.9659,-150.8259"/>
</g>
<!-- Node5 -->
<g id="node5" class="node">
<title>Node5</title>
<g id="a_node5"><a xlink:href="_abstract_pawn_8cpp.html" target="_top" xlink:title="/workspace/src/game\l_logic/AbstractPawn.cpp">
<polygon fill="none" stroke="#000000" points="553.7039,-84 553.7039,-114 687.7039,-114 687.7039,-84 553.7039,-84"/>
<text text-anchor="start" x="561.7039" y="-102" font-family="Helvetica,sans-Serif" font-size="10.00" fill="#000000">/workspace/src/game</text>
<text text-anchor="middle" x="620.7039" y="-91" font-family="Helvetica,sans-Serif" font-size="10.00" fill="#000000">_logic/AbstractPawn.cpp</text>
</a>
</g>
</g>
<!-- Node2&#45;&gt;Node5 -->
<g id="edge4" class="edge">
<title>Node2&#45;&gt;Node5</title>
<path fill="none" stroke="#191970" d="M831.6569,-154.058C791.8109,-144.2904 741.4473,-131.7455 696.7039,-120 689.5541,-118.1231 682.0391,-116.1037 674.631,-114.0853"/>
<polygon fill="#191970" stroke="#191970" points="831.0054,-157.5018 841.5508,-156.4793 832.6694,-150.7024 831.0054,-157.5018"/>
</g>
<!-- Node6 -->
<g id="node6" class="node">
<title>Node6</title>
<g id="a_node6"><a xlink:href="_history_8cpp.html" target="_top" xlink:title="/workspace/src/game\l_logic/History.cpp">
<polygon fill="none" stroke="#000000" points="705.7039,-84 705.7039,-114 825.7039,-114 825.7039,-84 705.7039,-84"/>
<text text-anchor="start" x="713.7039" y="-102" font-family="Helvetica,sans-Serif" font-size="10.00" fill="#000000">/workspace/src/game</text>
<text text-anchor="middle" x="765.7039" y="-91" font-family="Helvetica,sans-Serif" font-size="10.00" fill="#000000">_logic/History.cpp</text>
</a>
</g>
</g>
<!-- Node2&#45;&gt;Node6 -->
<g id="edge5" class="edge">
<title>Node2&#45;&gt;Node6</title>
<path fill="none" stroke="#191970" d="M866.1096,-151.7494C843.4588,-139.8495 815.0682,-124.9342 794.2609,-114.0028"/>
<polygon fill="#191970" stroke="#191970" points="864.6297,-154.9255 875.1102,-156.478 867.8853,-148.7286 864.6297,-154.9255"/>
</g>
<!-- Node7 -->
<g id="node7" class="node">
<title>Node7</title>
<g id="a_node7"><a xlink:href="tic__tac__toe_2_board_8cpp.html" target="_top" xlink:title="/workspace/src/game\l_logic/tic_tac_toe/Board.cpp">
<polygon fill="none" stroke="#000000" points="192.2039,-84 192.2039,-114 345.2039,-114 345.2039,-84 192.2039,-84"/>
<text text-anchor="start" x="200.2039" y="-102" font-family="Helvetica,sans-Serif" font-size="10.00" fill="#000000">/workspace/src/game</text>
<text text-anchor="middle" x="268.7039" y="-91" font-family="Helvetica,sans-Serif" font-size="10.00" fill="#000000">_logic/tic_tac_toe/Board.cpp</text>
</a>
</g>
</g>
<!-- Node2&#45;&gt;Node7 -->
<g id="edge6" class="edge">
<title>Node2&#45;&gt;Node7</title>
<path fill="none" stroke="#191970" d="M807.0535,-166.7105C696.9558,-160.2659 511.9389,-146.4269 354.7039,-120 345.1552,-118.3951 335.0979,-116.3083 325.3606,-114.074"/>
<polygon fill="#191970" stroke="#191970" points="806.9575,-170.2107 817.1426,-167.2926 807.3608,-163.2223 806.9575,-170.2107"/>
</g>
<!-- Node8 -->
<g id="node8" class="node">
<title>Node8</title>
<g id="a_node8"><a xlink:href="tic__tac__toe_2_board_cell_8cpp.html" target="_top" xlink:title="/workspace/src/game\l_logic/tic_tac_toe/BoardCell.cpp">
<polygon fill="none" stroke="#000000" points="363.7039,-84 363.7039,-114 535.7039,-114 535.7039,-84 363.7039,-84"/>
<text text-anchor="start" x="371.7039" y="-102" font-family="Helvetica,sans-Serif" font-size="10.00" fill="#000000">/workspace/src/game</text>
<text text-anchor="middle" x="449.7039" y="-91" font-family="Helvetica,sans-Serif" font-size="10.00" fill="#000000">_logic/tic_tac_toe/BoardCell.cpp</text>
</a>
</g>
</g>
<!-- Node2&#45;&gt;Node8 -->
<g id="edge7" class="edge">
<title>Node2&#45;&gt;Node8</title>
<path fill="none" stroke="#191970" d="M807.0629,-159.6363C734.618,-150.2586 633.1543,-136.0969 544.7039,-120 534.9822,-118.2308 524.7428,-116.1735 514.7299,-114.0523"/>
<polygon fill="#191970" stroke="#191970" points="806.723,-163.1214 817.0882,-160.9275 807.6173,-156.1787 806.723,-163.1214"/>
</g>
<!-- Node9 -->
<g id="node9" class="node">
<title>Node9</title>
<g id="a_node9"><a xlink:href="tic__tac__toe_2_console_game_8cpp.html" target="_top" xlink:title="/workspace/src/game\l_logic/tic_tac_toe/Console\lGame.cpp">
<polygon fill="none" stroke="#000000" points="2138.2039,-.5 2138.2039,-41.5 2281.2039,-41.5 2281.2039,-.5 2138.2039,-.5"/>
<text text-anchor="start" x="2146.2039" y="-29.5" font-family="Helvetica,sans-Serif" font-size="10.00" fill="#000000">/workspace/src/game</text>
<text text-anchor="start" x="2146.2039" y="-18.5" font-family="Helvetica,sans-Serif" font-size="10.00" fill="#000000">_logic/tic_tac_toe/Console</text>
<text text-anchor="middle" x="2209.7039" y="-7.5" font-family="Helvetica,sans-Serif" font-size="10.00" fill="#000000">Game.cpp</text>
</a>
</g>
</g>
<!-- Node2&#45;&gt;Node9 -->
<g id="edge8" class="edge">
<title>Node2&#45;&gt;Node9</title>
<path fill="none" stroke="#191970" d="M806.8818,-169.4522C581.1043,-164.205 36.7362,-148.6344 9.7039,-120 -3.1103,-106.4264 -3.3234,-91.3692 9.7039,-78 47.7111,-38.9953 1764.0246,-24.2488 2138.1775,-21.4948"/>
<polygon fill="#191970" stroke="#191970" points="806.9851,-172.9554 817.0631,-169.6869 807.1464,-165.9573 806.9851,-172.9554"/>
</g>
<!-- Node10 -->
<g id="node10" class="node">
<title>Node10</title>
<g id="a_node10"><a xlink:href="_player_8cpp.html" target="_top" xlink:title="/workspace/src/game\l_logic/tic_tac_toe/Player.cpp">
<polygon fill="none" stroke="#000000" points="19.2039,-84 19.2039,-114 174.2039,-114 174.2039,-84 19.2039,-84"/>
<text text-anchor="start" x="27.2039" y="-102" font-family="Helvetica,sans-Serif" font-size="10.00" fill="#000000">/workspace/src/game</text>
<text text-anchor="middle" x="96.7039" y="-91" font-family="Helvetica,sans-Serif" font-size="10.00" fill="#000000">_logic/tic_tac_toe/Player.cpp</text>
</a>
</g>
</g>
<!-- Node2&#45;&gt;Node10 -->
<g id="edge9" class="edge">
<title>Node2&#45;&gt;Node10</title>
<path fill="none" stroke="#191970" d="M806.9684,-169.7478C668.0467,-166.0656 404.3509,-154.7247 182.7039,-120 172.8342,-118.4538 162.4323,-116.3389 152.4045,-114.0438"/>
<polygon fill="#191970" stroke="#191970" points="807.0742,-173.2516 817.1609,-170.0101 807.2543,-166.2539 807.0742,-173.2516"/>
</g>
<!-- Node11 -->
<g id="node11" class="node">
<title>Node11</title>
<g id="a_node11"><a xlink:href="_move_8cpp.html" target="_top" xlink:title="/workspace/src/game\l_logic/utils/Move.cpp">
<polygon fill="none" stroke="#000000" points="843.7039,-84 843.7039,-114 963.7039,-114 963.7039,-84 843.7039,-84"/>
<text text-anchor="start" x="851.7039" y="-102" font-family="Helvetica,sans-Serif" font-size="10.00" fill="#000000">/workspace/src/game</text>
<text text-anchor="middle" x="903.7039" y="-91" font-family="Helvetica,sans-Serif" font-size="10.00" fill="#000000">_logic/utils/Move.cpp</text>
</a>
</g>
</g>
<!-- Node2&#45;&gt;Node11 -->
<g id="edge10" class="edge">
<title>Node2&#45;&gt;Node11</title>
<path fill="none" stroke="#191970" d="M903.7039,-146.3409C903.7039,-135.5601 903.7039,-123.3309 903.7039,-114.0028"/>
<polygon fill="#191970" stroke="#191970" points="900.204,-146.4779 903.7039,-156.478 907.204,-146.478 900.204,-146.4779"/>
</g>
<!-- Node12 -->
<g id="node12" class="node">
<title>Node12</title>
<g id="a_node12"><a xlink:href="_m_c_t_s_8cpp.html" target="_top" xlink:title="/workspace/src/mcts\l/MCTS.cpp">
<polygon fill="none" stroke="#000000" points="1755.7039,-84 1755.7039,-114 1871.7039,-114 1871.7039,-84 1755.7039,-84"/>
<text text-anchor="start" x="1763.7039" y="-102" font-family="Helvetica,sans-Serif" font-size="10.00" fill="#000000">/workspace/src/mcts</text>
<text text-anchor="middle" x="1813.7039" y="-91" font-family="Helvetica,sans-Serif" font-size="10.00" fill="#000000">/MCTS.cpp</text>
</a>
</g>
</g>
<!-- Node2&#45;&gt;Node12 -->
<g id="edge11" class="edge">
<title>Node2&#45;&gt;Node12</title>
<path fill="none" stroke="#191970" d="M1000.79,-168.5294C1190.9493,-162.2231 1606.1756,-145.9168 1746.7039,-120 1754.7357,-118.5187 1763.1526,-116.3744 1771.2029,-114.0155"/>
<polygon fill="#191970" stroke="#191970" points="1000.4049,-165.0401 990.5256,-168.8673 1000.6353,-172.0363 1000.4049,-165.0401"/>
</g>
<!-- Node13 -->
<g id="node13" class="node">
<title>Node13</title>
<g id="a_node13"><a xlink:href="_m_c_t_s_player_8cpp.html" target="_top" xlink:title="/workspace/src/mcts\l/MCTSPlayer.cpp">
<polygon fill="none" stroke="#000000" points="2065.7039,-84 2065.7039,-114 2181.7039,-114 2181.7039,-84 2065.7039,-84"/>
<text text-anchor="start" x="2073.7039" y="-102" font-family="Helvetica,sans-Serif" font-size="10.00" fill="#000000">/workspace/src/mcts</text>
<text text-anchor="middle" x="2123.7039" y="-91" font-family="Helvetica,sans-Serif" font-size="10.00" fill="#000000">/MCTSPlayer.cpp</text>
</a>
</g>
</g>
<!-- Node2&#45;&gt;Node13 -->
<g id="edge12" class="edge">
<title>Node2&#45;&gt;Node13</title>
<path fill="none" stroke="#191970" d="M1000.5737,-167.8561C1268.8418,-157.6738 2005.1332,-129.0748 2056.7039,-120 2064.8676,-118.5634 2073.4216,-116.4084 2081.5826,-114.0178"/>
<polygon fill="#191970" stroke="#191970" points="1000.3199,-164.3631 990.4597,-168.2397 1000.5852,-171.3581 1000.3199,-164.3631"/>
</g>
<!-- Node14 -->
<g id="node14" class="node">
<title>Node14</title>
<g id="a_node14"><a xlink:href="_tree_8cpp.html" target="_top" xlink:title="/workspace/src/mcts\l/Tree.cpp">
<polygon fill="none" stroke="#000000" points="1621.7039,-84 1621.7039,-114 1737.7039,-114 1737.7039,-84 1621.7039,-84"/>
<text text-anchor="start" x="1629.7039" y="-102" font-family="Helvetica,sans-Serif" font-size="10.00" fill="#000000">/workspace/src/mcts</text>
<text text-anchor="middle" x="1679.7039" y="-91" font-family="Helvetica,sans-Serif" font-size="10.00" fill="#000000">/Tree.cpp</text>
</a>
</g>
</g>
<!-- Node2&#45;&gt;Node14 -->
<g id="edge13" class="edge">
<title>Node2&#45;&gt;Node14</title>
<path fill="none" stroke="#191970" d="M1000.6451,-167.2357C1166.5695,-159.4722 1498.1835,-141.8016 1612.7039,-120 1620.6073,-118.4954 1628.8888,-116.3708 1636.8281,-114.0459"/>
<polygon fill="#191970" stroke="#191970" points="1000.271,-163.7493 990.4445,-167.7103 1000.5964,-170.7417 1000.271,-163.7493"/>
</g>
<!-- Node15&#45;&gt;Node3 -->
<g id="edge15" class="edge">
<title>Node15&#45;&gt;Node3</title>
<path fill="none" stroke="#191970" d="M1362.3956,-159.8281C1297.2859,-150.6962 1207.1111,-136.7573 1128.7039,-120 1120.6125,-118.2707 1112.1077,-116.2231 1103.8099,-114.0957"/>
<polygon fill="#191970" stroke="#191970" points="1362.2373,-163.3397 1372.6245,-161.2521 1363.2026,-156.4066 1362.2373,-163.3397"/>
</g>
<!-- Node15&#45;&gt;Node4 -->
<g id="edge16" class="edge">
<title>Node15&#45;&gt;Node4</title>
<path fill="none" stroke="#191970" d="M1391.304,-153.6266C1350.1618,-141.4518 1296.3136,-125.5172 1257.403,-114.0028"/>
<polygon fill="#191970" stroke="#191970" points="1390.3576,-156.9965 1400.9397,-156.478 1392.3439,-150.2842 1390.3576,-156.9965"/>
</g>
<!-- Node15&#45;&gt;Node5 -->
<g id="edge17" class="edge">
<title>Node15&#45;&gt;Node5</title>
<path fill="none" stroke="#191970" d="M1362.4341,-167.6706C1191.1748,-159.9506 822.3377,-141.4169 696.7039,-120 687.7977,-118.4818 678.4322,-116.3505 669.4363,-114.0233"/>
<polygon fill="#191970" stroke="#191970" points="1362.2832,-171.1673 1372.43,-168.1191 1362.5969,-164.1743 1362.2832,-171.1673"/>
</g>
<!-- Node15&#45;&gt;Node6 -->
<g id="edge18" class="edge">
<title>Node15&#45;&gt;Node6</title>
<path fill="none" stroke="#191970" d="M1362.3648,-166.3831C1216.4299,-157.6308 933.2884,-138.8941 834.7039,-120 826.7102,-118.468 818.3276,-116.3601 810.2687,-114.0676"/>
<polygon fill="#191970" stroke="#191970" points="1362.4398,-169.8938 1372.6306,-166.9959 1362.8569,-162.9062 1362.4398,-169.8938"/>
</g>
<!-- Node15&#45;&gt;Node11 -->
<g id="edge22" class="edge">
<title>Node15&#45;&gt;Node11</title>
<path fill="none" stroke="#191970" d="M1362.5598,-166.9458C1265.7842,-160.8367 1107.0602,-147.4134 972.7039,-120 964.8518,-118.3979 956.6132,-116.2843 948.6722,-114.0152"/>
<polygon fill="#191970" stroke="#191970" points="1362.4004,-170.4425 1372.5976,-167.5672 1362.833,-163.4559 1362.4004,-170.4425"/>
</g>
<!-- Node15&#45;&gt;Node12 -->
<g id="edge23" class="edge">
<title>Node15&#45;&gt;Node12</title>
<path fill="none" stroke="#191970" d="M1540.8628,-159.0462C1599.7109,-150.0649 1678.2905,-136.6175 1746.7039,-120 1753.8111,-118.2736 1761.2673,-116.203 1768.5184,-114.0442"/>
<polygon fill="#191970" stroke="#191970" points="1540.2177,-155.6038 1530.8534,-160.5598 1541.2644,-162.5252 1540.2177,-155.6038"/>
</g>
<!-- Node15&#45;&gt;Node13 -->
<g id="edge24" class="edge">
<title>Node15&#45;&gt;Node13</title>
<path fill="none" stroke="#191970" d="M1541.0129,-166.3054C1684.6202,-157.5466 1960.4954,-138.9348 2056.7039,-120 2064.4782,-118.4699 2072.624,-116.363 2080.4514,-114.0708"/>
<polygon fill="#191970" stroke="#191970" points="1540.6755,-162.8194 1530.906,-166.9189 1541.0997,-169.8065 1540.6755,-162.8194"/>
</g>
<!-- Node15&#45;&gt;Node14 -->
<g id="edge25" class="edge">
<title>Node15&#45;&gt;Node14</title>
<path fill="none" stroke="#191970" d="M1508.8845,-153.3175C1547.0449,-141.1832 1596.6175,-125.42 1632.5226,-114.0028"/>
<polygon fill="#191970" stroke="#191970" points="1507.4148,-150.1121 1498.9456,-156.478 1509.536,-156.783 1507.4148,-150.1121"/>
</g>
<!-- Node16 -->
<g id="node16" class="node">
<title>Node16</title>
<g id="a_node16"><a xlink:href="penguin_2_board_8cpp.html" target="_top" xlink:title="/workspace/src/game\l_logic/penguin/Board.cpp">
<polygon fill="none" stroke="#000000" points="1464.2039,-84 1464.2039,-114 1603.2039,-114 1603.2039,-84 1464.2039,-84"/>
<text text-anchor="start" x="1472.2039" y="-102" font-family="Helvetica,sans-Serif" font-size="10.00" fill="#000000">/workspace/src/game</text>
<text text-anchor="middle" x="1533.7039" y="-91" font-family="Helvetica,sans-Serif" font-size="10.00" fill="#000000">_logic/penguin/Board.cpp</text>
</a>
</g>
</g>
<!-- Node15&#45;&gt;Node16 -->
<g id="edge19" class="edge">
<title>Node15&#45;&gt;Node16</title>
<path fill="none" stroke="#191970" d="M1476.408,-149.6579C1489.436,-138.1393 1505.0858,-124.3026 1516.7352,-114.0028"/>
<polygon fill="#191970" stroke="#191970" points="1473.8677,-147.232 1468.6943,-156.478 1478.5044,-152.4763 1473.8677,-147.232"/>
</g>
<!-- Node15&#45;&gt;Node17 -->
<g id="edge20" class="edge">
<title>Node15&#45;&gt;Node17</title>
<path fill="none" stroke="#191970" d="M1540.8901,-163.804C1627.9709,-155.5821 1764.0349,-140.8525 1880.7039,-120 1890.1355,-118.3143 1900.0689,-116.2395 1909.7293,-114.0569"/>
<polygon fill="#191970" stroke="#191970" points="1540.4115,-160.3334 1530.7811,-164.7499 1541.0637,-167.3029 1540.4115,-160.3334"/>
</g>
<!-- Node18 -->
<g id="node18" class="node">
<title>Node18</title>
<g id="a_node18"><a xlink:href="_print_hex_8cpp.html" target="_top" xlink:title="/workspace/src/game\l_logic/penguin/PrintHex.cpp">
<polygon fill="none" stroke="#000000" points="1293.7039,-84 1293.7039,-114 1445.7039,-114 1445.7039,-84 1293.7039,-84"/>
<text text-anchor="start" x="1301.7039" y="-102" font-family="Helvetica,sans-Serif" font-size="10.00" fill="#000000">/workspace/src/game</text>
<text text-anchor="middle" x="1369.7039" y="-91" font-family="Helvetica,sans-Serif" font-size="10.00" fill="#000000">_logic/penguin/PrintHex.cpp</text>
</a>
</g>
</g>
<!-- Node15&#45;&gt;Node18 -->
<g id="edge21" class="edge">
<title>Node15&#45;&gt;Node18</title>
<path fill="none" stroke="#191970" d="M1426.9997,-149.6579C1413.9717,-138.1393 1398.322,-124.3026 1386.6725,-114.0028"/>
<polygon fill="#191970" stroke="#191970" points="1424.9033,-152.4763 1434.7134,-156.478 1429.54,-147.232 1424.9033,-152.4763"/>
</g>
<!-- Node20&#45;&gt;Node9 -->
<g id="edge30" class="edge">
<title>Node20&#45;&gt;Node9</title>
<path fill="none" stroke="#191970" d="M2209.7039,-145.9356C2209.7039,-116.4899 2209.7039,-68.6924 2209.7039,-41.5494"/>
<polygon fill="#191970" stroke="#191970" points="2206.204,-146.241 2209.7039,-156.241 2213.204,-146.2411 2206.204,-146.241"/>
</g>
<!-- Node20&#45;&gt;Node13 -->
<g id="edge34" class="edge">
<title>Node20&#45;&gt;Node13</title>
<path fill="none" stroke="#191970" d="M2184.1806,-149.9833C2170.4412,-138.4007 2153.8332,-124.3998 2141.5003,-114.0028"/>
<polygon fill="#191970" stroke="#191970" points="2181.983,-152.7084 2191.8846,-156.478 2186.4948,-147.3565 2181.983,-152.7084"/>
</g>
<!-- Node21 -->
<g id="node21" class="node">
<title>Node21</title>
<g id="a_node21"><a xlink:href="penguin_2_console_game_8cpp.html" target="_top" xlink:title="/workspace/src/game\l_logic/penguin/ConsoleGame.cpp">
<polygon fill="none" stroke="#000000" points="2238.2039,-84 2238.2039,-114 2417.2039,-114 2417.2039,-84 2238.2039,-84"/>
<text text-anchor="start" x="2246.2039" y="-102" font-family="Helvetica,sans-Serif" font-size="10.00" fill="#000000">/workspace/src/game</text>
<text text-anchor="middle" x="2327.7039" y="-91" font-family="Helvetica,sans-Serif" font-size="10.00" fill="#000000">_logic/penguin/ConsoleGame.cpp</text>
</a>
</g>
</g>
<!-- Node20&#45;&gt;Node21 -->
<g id="edge29" class="edge">
<title>Node20&#45;&gt;Node21</title>
<path fill="none" stroke="#191970" d="M2242.8872,-151.1119C2262.0788,-139.3205 2285.81,-124.7398 2303.2855,-114.0028"/>
<polygon fill="#191970" stroke="#191970" points="2240.8416,-148.2609 2234.1535,-156.478 2244.5061,-154.2251 2240.8416,-148.2609"/>
</g>
<!-- Node22 -->
<g id="node22" class="node">
<title>Node22</title>
<g id="a_node22"><a xlink:href="tic__tac__toe_2_console_game_8hpp.html" target="_top" xlink:title="/workspace/src/game\l_logic/tic_tac_toe/Console\lGame.hpp">
<polygon fill="none" stroke="#000000" points="2435.2039,-78.5 2435.2039,-119.5 2578.2039,-119.5 2578.2039,-78.5 2435.2039,-78.5"/>
<text text-anchor="start" x="2443.2039" y="-107.5" font-family="Helvetica,sans-Serif" font-size="10.00" fill="#000000">/workspace/src/game</text>
<text text-anchor="start" x="2443.2039" y="-96.5" font-family="Helvetica,sans-Serif" font-size="10.00" fill="#000000">_logic/tic_tac_toe/Console</text>
<text text-anchor="middle" x="2506.7039" y="-85.5" font-family="Helvetica,sans-Serif" font-size="10.00" fill="#000000">Game.hpp</text>
</a>
</g>
</g>
<!-- Node20&#45;&gt;Node22 -->
<g id="edge31" class="edge">
<title>Node20&#45;&gt;Node22</title>
<path fill="none" stroke="#191970" d="M2277.572,-155.8285C2320.4072,-145.8297 2376.8678,-132.4529 2426.7039,-120 2429.4901,-119.3038 2432.3292,-118.5882 2435.196,-117.8605"/>
<polygon fill="#191970" stroke="#191970" points="2276.7642,-152.4229 2267.8197,-158.1016 2278.3532,-159.2402 2276.7642,-152.4229"/>
</g>
<!-- Node22&#45;&gt;Node9 -->
<g id="edge32" class="edge">
<title>Node22&#45;&gt;Node9</title>
<path fill="none" stroke="#191970" d="M2425.443,-77.6588C2380.368,-65.8209 2324.8158,-51.2314 2281.3718,-39.8219"/>
<polygon fill="#191970" stroke="#191970" points="2424.6259,-81.0628 2435.187,-80.2178 2426.4041,-74.2924 2424.6259,-81.0628"/>
</g>
<!-- Node23 -->
<g id="node23" class="node">
<title>Node23</title>
<g id="a_node23"><a xlink:href="main_8cpp.html" target="_top" xlink:title="/workspace/src/main.cpp">
<polygon fill="none" stroke="#000000" points="2438.2039,-11.5 2438.2039,-30.5 2575.2039,-30.5 2575.2039,-11.5 2438.2039,-11.5"/>
<text text-anchor="middle" x="2506.7039" y="-18.5" font-family="Helvetica,sans-Serif" font-size="10.00" fill="#000000">/workspace/src/main.cpp</text>
</a>
</g>
</g>
<!-- Node22&#45;&gt;Node23 -->
<g id="edge33" class="edge">
<title>Node22&#45;&gt;Node23</title>
<path fill="none" stroke="#191970" d="M2506.7039,-67.8707C2506.7039,-54.6273 2506.7039,-40.1205 2506.7039,-30.8072"/>
<polygon fill="#191970" stroke="#191970" points="2503.204,-68.0974 2506.7039,-78.0974 2510.204,-68.0975 2503.204,-68.0974"/>
</g>
<!-- Node24&#45;&gt;Node13 -->
<g id="edge40" class="edge">
<title>Node24&#45;&gt;Node13</title>
<path fill="none" stroke="#191970" d="M2083.1842,-216.2184C2091.1337,-207.7835 2099.291,-197.6337 2104.7039,-187 2116.7574,-163.3206 2121.1809,-132.2843 2122.7927,-114.104"/>
<polygon fill="#191970" stroke="#191970" points="2080.5756,-213.8785 2076.0268,-223.4472 2085.5499,-218.8036 2080.5756,-213.8785"/>
</g>
<!-- Node24&#45;&gt;Node14 -->
<g id="edge41" class="edge">
<title>Node24&#45;&gt;Node14</title>
<path fill="none" stroke="#191970" d="M2007.9736,-219.8275C1932.0957,-191.8988 1790.5206,-139.7888 1720.7396,-114.1042"/>
<polygon fill="#191970" stroke="#191970" points="2007.1906,-223.2688 2017.7841,-223.4385 2009.6086,-216.6997 2007.1906,-223.2688"/>
</g>
<!-- Node24&#45;&gt;Node20 -->
<g id="edge36" class="edge">
<title>Node24&#45;&gt;Node20</title>
<path fill="none" stroke="#191970" d="M2101.9457,-219.3132C2125.3541,-208.9267 2153.8577,-196.2794 2175.6687,-186.6017"/>
<polygon fill="#191970" stroke="#191970" points="2100.3123,-216.2089 2092.5912,-223.4639 2103.1514,-222.6073 2100.3123,-216.2089"/>
</g>
<!-- Node25 -->
<g id="node25" class="node">
<title>Node25</title>
<g id="a_node25"><a xlink:href="_m_c_t_s_8hpp.html" target="_top" xlink:title="/workspace/src/mcts\l/MCTS.hpp">
<polygon fill="none" stroke="#000000" points="1979.7039,-156.5 1979.7039,-186.5 2095.7039,-186.5 2095.7039,-156.5 1979.7039,-156.5"/>
<text text-anchor="start" x="1987.7039" y="-174.5" font-family="Helvetica,sans-Serif" font-size="10.00" fill="#000000">/workspace/src/mcts</text>
<text text-anchor="middle" x="2037.7039" y="-163.5" font-family="Helvetica,sans-Serif" font-size="10.00" fill="#000000">/MCTS.hpp</text>
</a>
</g>
</g>
<!-- Node24&#45;&gt;Node25 -->
<g id="edge37" class="edge">
<title>Node24&#45;&gt;Node25</title>
<path fill="none" stroke="#191970" d="M2050.9026,-213.6103C2048.0645,-204.5553 2044.9441,-194.5998 2042.4502,-186.6432"/>
<polygon fill="#191970" stroke="#191970" points="2047.6079,-214.8012 2053.9386,-223.2967 2054.2875,-212.7076 2047.6079,-214.8012"/>
</g>
<!-- Node25&#45;&gt;Node12 -->
<g id="edge38" class="edge">
<title>Node25&#45;&gt;Node12</title>
<path fill="none" stroke="#191970" d="M1981.5263,-153.3175C1944.0354,-141.1832 1895.3326,-125.42 1860.0573,-114.0028"/>
<polygon fill="#191970" stroke="#191970" points="1980.699,-156.7285 1991.2909,-156.478 1982.8546,-150.0686 1980.699,-156.7285"/>
</g>
<!-- Node25&#45;&gt;Node13 -->
<g id="edge39" class="edge">
<title>Node25&#45;&gt;Node13</title>
<path fill="none" stroke="#191970" d="M2063.2272,-149.9833C2076.9665,-138.4007 2093.5745,-124.3998 2105.9074,-114.0028"/>
<polygon fill="#191970" stroke="#191970" points="2060.9129,-147.3565 2055.5231,-156.478 2065.4247,-152.7084 2060.9129,-147.3565"/>
</g>
</g>
</svg>
