<?xml version="1.0" encoding="UTF-8" standalone="no"?>
<!DOCTYPE svg PUBLIC "-//W3C//DTD SVG 1.1//EN"
 "http://www.w3.org/Graphics/SVG/1.1/DTD/svg11.dtd">
<!-- Generated by graphviz version 2.40.1 (20161225.0304)
 -->
<!-- Title: /workspace/src/game_logic/AbstractPlayer.hpp Pages: 1 -->
<!--zoomable 329 -->
<svg id="main" version="1.1" xmlns="http://www.w3.org/2000/svg" xmlns:xlink="http://www.w3.org/1999/xlink" xml:space="preserve" onload="init(evt)">
<style type="text/css"><![CDATA[
.edge:hover path { stroke: red; }
.edge:hover polygon { stroke: red; fill: red; }
]]></style>
<script type="text/javascript"><![CDATA[
var edges = document.getElementsByTagName('g');
if (edges && edges.length) {
  for (var i=0;i<edges.length;i++) {
    if (edges[i].id.substr(0,4)=='edge') {
      edges[i].setAttribute('class','edge');
    }
  }
}
]]></script>
        <defs>
                <circle id="rim" cx="0" cy="0" r="7"/>
                <circle id="rim2" cx="0" cy="0" r="3.5"/>
                <g id="zoomPlus">
                        <use xlink:href="#rim" fill="#404040">
                                <set attributeName="fill" to="#808080" begin="zoomplus.mouseover" end="zoomplus.mouseout"/>
                        </use>
                        <path d="M-4,0h8M0,-4v8" fill="none" stroke="white" stroke-width="1.5" pointer-events="none"/>
                </g>
                <g id="zoomMin">
                        <use xlink:href="#rim" fill="#404040">
                                <set attributeName="fill" to="#808080" begin="zoomminus.mouseover" end="zoomminus.mouseout"/>
                        </use>
                        <path d="M-4,0h8" fill="none" stroke="white" stroke-width="1.5" pointer-events="none"/>
                </g>
                <g id="dirArrow">
                        <path fill="none" stroke="white" stroke-width="1.5" d="M0,-3.0v7 M-2.5,-0.5L0,-3.0L2.5,-0.5"/>
                </g>
               <g id="resetDef">
                       <use xlink:href="#rim2" fill="#404040">
                               <set attributeName="fill" to="#808080" begin="reset.mouseover" end="reset.mouseout"/>
                       </use>
               </g>
        </defs>

<script type="text/javascript">
var viewWidth = 2462;
var viewHeight = 329;
var sectionId = 'dynsection-0';
</script>
<script xlink:href="svgpan.js"/>
<svg id="graph" class="graph">
<g id="viewport">
<title>/workspace/src/game_logic/AbstractPlayer.hpp</title>
<!-- Node1 -->
<g id="node1" class="node">
<title>Node1</title>
<polygon fill="#bfbfbf" stroke="#000000" points="1852.5,-290.5 1852.5,-320.5 1992.5,-320.5 1992.5,-290.5 1852.5,-290.5"/>
<text text-anchor="start" x="1860.5" y="-308.5" font-family="Helvetica,sans-Serif" font-size="10.00" fill="#000000">/workspace/src/game</text>
<text text-anchor="middle" x="1922.5" y="-297.5" font-family="Helvetica,sans-Serif" font-size="10.00" fill="#000000">_logic/AbstractPlayer.hpp</text>
</g>
<!-- Node2 -->
<g id="node2" class="node">
<title>Node2</title>
<g id="a_node2"><a xlink:href="_player_8hpp.html" target="_top" xlink:title="/workspace/src/game\l_logic/tic_tac_toe/Player.hpp">
<polygon fill="none" stroke="#000000" points="801,-156.5 801,-186.5 956,-186.5 956,-156.5 801,-156.5"/>
<text text-anchor="start" x="809" y="-174.5" font-family="Helvetica,sans-Serif" font-size="10.00" fill="#000000">/workspace/src/game</text>
<text text-anchor="middle" x="878.5" y="-163.5" font-family="Helvetica,sans-Serif" font-size="10.00" fill="#000000">_logic/tic_tac_toe/Player.hpp</text>
</a>
</g>
</g>
<!-- Node1&#45;&gt;Node2 -->
<g id="edge1" class="edge">
<title>Node1&#45;&gt;Node2</title>
<path fill="none" stroke="#191970" d="M1842.1844,-295.1913C1646.7766,-270.1102 1148.5007,-206.1553 956.0187,-181.4497"/>
<polygon fill="#191970" stroke="#191970" points="1842.0149,-298.6982 1852.3791,-296.4998 1842.9061,-291.7551 1842.0149,-298.6982"/>
</g>
<!-- Node18 -->
<g id="node18" class="node">
<title>Node18</title>
<g id="a_node18"><a xlink:href="_human_player_8hpp.html" target="_top" xlink:title="/workspace/src/game\l_logic/penguin/HumanPlayer.hpp">
<polygon fill="none" stroke="#000000" points="1300.5,-156.5 1300.5,-186.5 1476.5,-186.5 1476.5,-156.5 1300.5,-156.5"/>
<text text-anchor="start" x="1308.5" y="-174.5" font-family="Helvetica,sans-Serif" font-size="10.00" fill="#000000">/workspace/src/game</text>
<text text-anchor="middle" x="1388.5" y="-163.5" font-family="Helvetica,sans-Serif" font-size="10.00" fill="#000000">_logic/penguin/HumanPlayer.hpp</text>
</a>
</g>
</g>
<!-- Node1&#45;&gt;Node18 -->
<g id="edge19" class="edge">
<title>Node1&#45;&gt;Node18</title>
<path fill="none" stroke="#191970" d="M1852.6067,-287.9612C1746.896,-261.4346 1548.1454,-211.5608 1448.5666,-186.5729"/>
<polygon fill="#191970" stroke="#191970" points="1851.9887,-291.4146 1862.5398,-290.4538 1853.6924,-284.6251 1851.9887,-291.4146"/>
</g>
<!-- Node21 -->
<g id="node21" class="node">
<title>Node21</title>
<g id="a_node21"><a xlink:href="_human_player_8cpp.html" target="_top" xlink:title="/workspace/src/game\l_logic/penguin/HumanPlayer.cpp">
<polygon fill="none" stroke="#000000" points="2277.5,-84 2277.5,-114 2453.5,-114 2453.5,-84 2277.5,-84"/>
<text text-anchor="start" x="2285.5" y="-102" font-family="Helvetica,sans-Serif" font-size="10.00" fill="#000000">/workspace/src/game</text>
<text text-anchor="middle" x="2365.5" y="-91" font-family="Helvetica,sans-Serif" font-size="10.00" fill="#000000">_logic/penguin/HumanPlayer.cpp</text>
</a>
</g>
</g>
<!-- Node1&#45;&gt;Node21 -->
<g id="edge44" class="edge">
<title>Node1&#45;&gt;Node21</title>
<path fill="none" stroke="#191970" d="M1956.6658,-285.2171C1986.5161,-267.8279 2031.2516,-242.5615 2071.5,-223 2160.6832,-179.6551 2268.8879,-136.3009 2325.9114,-114.142"/>
<polygon fill="#191970" stroke="#191970" points="1954.7645,-282.2744 1947.9013,-290.3458 1958.2999,-288.3161 1954.7645,-282.2744"/>
</g>
<!-- Node23 -->
<g id="node23" class="node">
<title>Node23</title>
<g id="a_node23"><a xlink:href="_abstract_player_8cpp.html" target="_top" xlink:title="/workspace/src/game\l_logic/AbstractPlayer.cpp">
<polygon fill="none" stroke="#000000" points="2080,-223.5 2080,-253.5 2219,-253.5 2219,-223.5 2080,-223.5"/>
<text text-anchor="start" x="2088" y="-241.5" font-family="Helvetica,sans-Serif" font-size="10.00" fill="#000000">/workspace/src/game</text>
<text text-anchor="middle" x="2149.5" y="-230.5" font-family="Helvetica,sans-Serif" font-size="10.00" fill="#000000">_logic/AbstractPlayer.cpp</text>
</a>
</g>
</g>
<!-- Node1&#45;&gt;Node23 -->
<g id="edge31" class="edge">
<title>Node1&#45;&gt;Node23</title>
<path fill="none" stroke="#191970" d="M1983.321,-287.5484C2019.252,-276.9432 2064.2344,-263.6665 2098.3346,-253.6017"/>
<polygon fill="#191970" stroke="#191970" points="1982.0434,-284.2762 1973.4432,-290.4639 1984.025,-290.9898 1982.0434,-284.2762"/>
</g>
<!-- Node24 -->
<g id="node24" class="node">
<title>Node24</title>
<g id="a_node24"><a xlink:href="_m_c_t_s_player_8hpp.html" target="_top" xlink:title="/workspace/src/mcts\l/MCTSPlayer.hpp">
<polygon fill="none" stroke="#000000" points="1907.5,-156.5 1907.5,-186.5 2023.5,-186.5 2023.5,-156.5 1907.5,-156.5"/>
<text text-anchor="start" x="1915.5" y="-174.5" font-family="Helvetica,sans-Serif" font-size="10.00" fill="#000000">/workspace/src/mcts</text>
<text text-anchor="middle" x="1965.5" y="-163.5" font-family="Helvetica,sans-Serif" font-size="10.00" fill="#000000">/MCTSPlayer.hpp</text>
</a>
</g>
</g>
<!-- Node1&#45;&gt;Node24 -->
<g id="edge32" class="edge">
<title>Node1&#45;&gt;Node24</title>
<path fill="none" stroke="#191970" d="M1935.2586,-280.8705C1939.2486,-272.4975 1943.4104,-262.984 1946.5,-254 1954.3866,-231.0668 1959.9999,-203.4237 1962.994,-186.669"/>
<polygon fill="#191970" stroke="#191970" points="1932.0037,-279.5578 1930.7281,-290.0756 1938.2843,-282.6489 1932.0037,-279.5578"/>
</g>
<!-- Node25 -->
<g id="node25" class="node">
<title>Node25</title>
<g id="a_node25"><a xlink:href="_tree_8hpp.html" target="_top" xlink:title="/workspace/src/mcts\l/Tree.hpp">
<polygon fill="none" stroke="#000000" points="1821.5,-223.5 1821.5,-253.5 1937.5,-253.5 1937.5,-223.5 1821.5,-223.5"/>
<text text-anchor="start" x="1829.5" y="-241.5" font-family="Helvetica,sans-Serif" font-size="10.00" fill="#000000">/workspace/src/mcts</text>
<text text-anchor="middle" x="1879.5" y="-230.5" font-family="Helvetica,sans-Serif" font-size="10.00" fill="#000000">/Tree.hpp</text>
</a>
</g>
</g>
<!-- Node1&#45;&gt;Node25 -->
<g id="edge37" class="edge">
<title>Node1&#45;&gt;Node25</title>
<path fill="none" stroke="#191970" d="M1907.2725,-281.7735C1901.2666,-272.4154 1894.5449,-261.9421 1889.2188,-253.6432"/>
<polygon fill="#191970" stroke="#191970" points="1904.3958,-283.7712 1912.7426,-290.2967 1910.2869,-279.9903 1904.3958,-283.7712"/>
</g>
<!-- Node3 -->
<g id="node3" class="node">
<title>Node3</title>
<g id="a_node3"><a xlink:href="_abstract_board_8cpp.html" target="_top" xlink:title="/workspace/src/game\l_logic/AbstractBoard.cpp">
<polygon fill="none" stroke="#000000" points="1102,-84 1102,-114 1239,-114 1239,-84 1102,-84"/>
<text text-anchor="start" x="1110" y="-102" font-family="Helvetica,sans-Serif" font-size="10.00" fill="#000000">/workspace/src/game</text>
<text text-anchor="middle" x="1170.5" y="-91" font-family="Helvetica,sans-Serif" font-size="10.00" fill="#000000">_logic/AbstractBoard.cpp</text>
</a>
</g>
</g>
<!-- Node2&#45;&gt;Node3 -->
<g id="edge2" class="edge">
<title>Node2&#45;&gt;Node3</title>
<path fill="none" stroke="#191970" d="M953.1798,-154.0468C994.3428,-144.2964 1046.318,-131.7715 1092.5,-120 1099.8383,-118.1295 1107.5513,-116.1138 1115.1544,-114.0973"/>
<polygon fill="#191970" stroke="#191970" points="952.1539,-150.6928 943.2276,-156.4001 953.7647,-157.505 952.1539,-150.6928"/>
</g>
<!-- Node4 -->
<g id="node4" class="node">
<title>Node4</title>
<g id="a_node4"><a xlink:href="_abstract_game_8cpp.html" target="_top" xlink:title="/workspace/src/game\l_logic/AbstractGame.cpp">
<polygon fill="none" stroke="#000000" points="655.5,-84 655.5,-114 793.5,-114 793.5,-84 655.5,-84"/>
<text text-anchor="start" x="663.5" y="-102" font-family="Helvetica,sans-Serif" font-size="10.00" fill="#000000">/workspace/src/game</text>
<text text-anchor="middle" x="724.5" y="-91" font-family="Helvetica,sans-Serif" font-size="10.00" fill="#000000">_logic/AbstractGame.cpp</text>
</a>
</g>
</g>
<!-- Node2&#45;&gt;Node4 -->
<g id="edge3" class="edge">
<title>Node2&#45;&gt;Node4</title>
<path fill="none" stroke="#191970" d="M837.2195,-152.066C811.8339,-140.115 779.7942,-125.0313 756.368,-114.0028"/>
<polygon fill="#191970" stroke="#191970" points="836.0528,-155.3851 846.5911,-156.478 839.0344,-149.0519 836.0528,-155.3851"/>
</g>
<!-- Node5 -->
<g id="node5" class="node">
<title>Node5</title>
<g id="a_node5"><a xlink:href="_abstract_pawn_8cpp.html" target="_top" xlink:title="/workspace/src/game\l_logic/AbstractPawn.cpp">
<polygon fill="none" stroke="#000000" points="811.5,-84 811.5,-114 945.5,-114 945.5,-84 811.5,-84"/>
<text text-anchor="start" x="819.5" y="-102" font-family="Helvetica,sans-Serif" font-size="10.00" fill="#000000">/workspace/src/game</text>
<text text-anchor="middle" x="878.5" y="-91" font-family="Helvetica,sans-Serif" font-size="10.00" fill="#000000">_logic/AbstractPawn.cpp</text>
</a>
</g>
</g>
<!-- Node2&#45;&gt;Node5 -->
<g id="edge4" class="edge">
<title>Node2&#45;&gt;Node5</title>
<path fill="none" stroke="#191970" d="M878.5,-146.3409C878.5,-135.5601 878.5,-123.3309 878.5,-114.0028"/>
<polygon fill="#191970" stroke="#191970" points="875.0001,-146.4779 878.5,-156.478 882.0001,-146.478 875.0001,-146.4779"/>
</g>
<!-- Node6 -->
<g id="node6" class="node">
<title>Node6</title>
<g id="a_node6"><a xlink:href="_history_8cpp.html" target="_top" xlink:title="/workspace/src/game\l_logic/History.cpp">
<polygon fill="none" stroke="#000000" points="963.5,-84 963.5,-114 1083.5,-114 1083.5,-84 963.5,-84"/>
<text text-anchor="start" x="971.5" y="-102" font-family="Helvetica,sans-Serif" font-size="10.00" fill="#000000">/workspace/src/game</text>
<text text-anchor="middle" x="1023.5" y="-91" font-family="Helvetica,sans-Serif" font-size="10.00" fill="#000000">_logic/History.cpp</text>
</a>
</g>
</g>
<!-- Node2&#45;&gt;Node6 -->
<g id="edge5" class="edge">
<title>Node2&#45;&gt;Node6</title>
<path fill="none" stroke="#191970" d="M917.6843,-151.9079C941.5356,-139.9822 971.5345,-124.9828 993.4944,-114.0028"/>
<polygon fill="#191970" stroke="#191970" points="915.9231,-148.8753 908.5441,-156.478 919.0536,-155.1363 915.9231,-148.8753"/>
</g>
<!-- Node7 -->
<g id="node7" class="node">
<title>Node7</title>
<g id="a_node7"><a xlink:href="tic__tac__toe_2_board_8cpp.html" target="_top" xlink:title="/workspace/src/game\l_logic/tic_tac_toe/Board.cpp">
<polygon fill="none" stroke="#000000" points="379,-6 379,-36 532,-36 532,-6 379,-6"/>
<text text-anchor="start" x="387" y="-24" font-family="Helvetica,sans-Serif" font-size="10.00" fill="#000000">/workspace/src/game</text>
<text text-anchor="middle" x="455.5" y="-13" font-family="Helvetica,sans-Serif" font-size="10.00" fill="#000000">_logic/tic_tac_toe/Board.cpp</text>
</a>
</g>
</g>
<!-- Node2&#45;&gt;Node7 -->
<g id="edge6" class="edge">
<title>Node2&#45;&gt;Node7</title>
<path fill="none" stroke="#191970" d="M790.5275,-165.728C678.6344,-157.5632 497.1169,-141.2389 474.5,-120 451.5361,-98.4352 451.4718,-58.2518 453.4576,-36.2935"/>
<polygon fill="#191970" stroke="#191970" points="790.5705,-169.2401 800.7964,-166.4688 791.0742,-162.2583 790.5705,-169.2401"/>
</g>
<!-- Node8 -->
<g id="node8" class="node">
<title>Node8</title>
<g id="a_node8"><a xlink:href="tic__tac__toe_2_board_8hpp.html" target="_top" xlink:title="/workspace/src/game\l_logic/tic_tac_toe/Board.hpp">
<polygon fill="none" stroke="#000000" points="483.5,-84 483.5,-114 637.5,-114 637.5,-84 483.5,-84"/>
<text text-anchor="start" x="491.5" y="-102" font-family="Helvetica,sans-Serif" font-size="10.00" fill="#000000">/workspace/src/game</text>
<text text-anchor="middle" x="560.5" y="-91" font-family="Helvetica,sans-Serif" font-size="10.00" fill="#000000">_logic/tic_tac_toe/Board.hpp</text>
</a>
</g>
</g>
<!-- Node2&#45;&gt;Node8 -->
<g id="edge7" class="edge">
<title>Node2&#45;&gt;Node8</title>
<path fill="none" stroke="#191970" d="M798.9196,-154.2684C754.0966,-144.454 697.1176,-131.7968 646.5,-120 638.4172,-118.1162 629.9178,-116.0928 621.5372,-114.0725"/>
<polygon fill="#191970" stroke="#191970" points="798.3561,-157.7278 808.8729,-156.4448 799.8514,-150.8893 798.3561,-157.7278"/>
</g>
<!-- Node11 -->
<g id="node11" class="node">
<title>Node11</title>
<g id="a_node11"><a xlink:href="tic__tac__toe_2_console_game_8hpp.html" target="_top" xlink:title="/workspace/src/game\l_logic/tic_tac_toe/Console\lGame.hpp">
<polygon fill="none" stroke="#000000" points="1746,-78.5 1746,-119.5 1889,-119.5 1889,-78.5 1746,-78.5"/>
<text text-anchor="start" x="1754" y="-107.5" font-family="Helvetica,sans-Serif" font-size="10.00" fill="#000000">/workspace/src/game</text>
<text text-anchor="start" x="1754" y="-96.5" font-family="Helvetica,sans-Serif" font-size="10.00" fill="#000000">_logic/tic_tac_toe/Console</text>
<text text-anchor="middle" x="1817.5" y="-85.5" font-family="Helvetica,sans-Serif" font-size="10.00" fill="#000000">Game.hpp</text>
</a>
</g>
</g>
<!-- Node2&#45;&gt;Node11 -->
<g id="edge11" class="edge">
<title>Node2&#45;&gt;Node11</title>
<path fill="none" stroke="#191970" d="M966.2574,-168.4332C1154.3047,-161.5033 1590.9132,-143.3997 1737.5,-120 1740.1942,-119.5699 1742.9291,-119.088 1745.6839,-118.5643"/>
<polygon fill="#191970" stroke="#191970" points="965.9987,-164.9403 956.1336,-168.8044 966.2552,-171.9356 965.9987,-164.9403"/>
</g>
<!-- Node13 -->
<g id="node13" class="node">
<title>Node13</title>
<g id="a_node13"><a xlink:href="_player_8cpp.html" target="_top" xlink:title="/workspace/src/game\l_logic/tic_tac_toe/Player.cpp">
<polygon fill="none" stroke="#000000" points="0,-84 0,-114 155,-114 155,-84 0,-84"/>
<text text-anchor="start" x="8" y="-102" font-family="Helvetica,sans-Serif" font-size="10.00" fill="#000000">/workspace/src/game</text>
<text text-anchor="middle" x="77.5" y="-91" font-family="Helvetica,sans-Serif" font-size="10.00" fill="#000000">_logic/tic_tac_toe/Player.cpp</text>
</a>
</g>
</g>
<!-- Node2&#45;&gt;Node13 -->
<g id="edge14" class="edge">
<title>Node2&#45;&gt;Node13</title>
<path fill="none" stroke="#191970" d="M790.5979,-169.8145C655.3269,-166.1747 388.308,-154.8393 164.5,-120 154.5205,-118.4465 144,-116.3281 133.8565,-114.0318"/>
<polygon fill="#191970" stroke="#191970" points="790.8108,-173.3211 800.8989,-170.0836 790.9937,-166.3235 790.8108,-173.3211"/>
</g>
<!-- Node14 -->
<g id="node14" class="node">
<title>Node14</title>
<g id="a_node14"><a xlink:href="_move_8cpp.html" target="_top" xlink:title="/workspace/src/game\l_logic/utils/Move.cpp">
<polygon fill="none" stroke="#000000" points="173.5,-84 173.5,-114 293.5,-114 293.5,-84 173.5,-84"/>
<text text-anchor="start" x="181.5" y="-102" font-family="Helvetica,sans-Serif" font-size="10.00" fill="#000000">/workspace/src/game</text>
<text text-anchor="middle" x="233.5" y="-91" font-family="Helvetica,sans-Serif" font-size="10.00" fill="#000000">_logic/utils/Move.cpp</text>
</a>
</g>
</g>
<!-- Node2&#45;&gt;Node14 -->
<g id="edge15" class="edge">
<title>Node2&#45;&gt;Node14</title>
<path fill="none" stroke="#191970" d="M790.8922,-169.2753C677.3042,-165.1149 473.494,-153.2948 302.5,-120 294.5109,-118.4444 286.1305,-116.325 278.0725,-114.0282"/>
<polygon fill="#191970" stroke="#191970" points="790.809,-172.7745 800.9269,-169.6315 791.0574,-165.7789 790.809,-172.7745"/>
</g>
<!-- Node15 -->
<g id="node15" class="node">
<title>Node15</title>
<g id="a_node15"><a xlink:href="_m_c_t_s_8cpp.html" target="_top" xlink:title="/workspace/src/mcts\l/MCTS.cpp">
<polygon fill="none" stroke="#000000" points="1257.5,-84 1257.5,-114 1373.5,-114 1373.5,-84 1257.5,-84"/>
<text text-anchor="start" x="1265.5" y="-102" font-family="Helvetica,sans-Serif" font-size="10.00" fill="#000000">/workspace/src/mcts</text>
<text text-anchor="middle" x="1315.5" y="-91" font-family="Helvetica,sans-Serif" font-size="10.00" fill="#000000">/MCTS.cpp</text>
</a>
</g>
</g>
<!-- Node2&#45;&gt;Node15 -->
<g id="edge16" class="edge">
<title>Node2&#45;&gt;Node15</title>
<path fill="none" stroke="#191970" d="M966.5528,-163.2381C1041.7604,-155.2247 1152.5262,-141.1484 1247.5,-120 1254.9774,-118.335 1262.8214,-116.2447 1270.416,-114.0328"/>
<polygon fill="#191970" stroke="#191970" points="965.7611,-159.802 956.182,-164.3287 966.4933,-166.7636 965.7611,-159.802"/>
</g>
<!-- Node16 -->
<g id="node16" class="node">
<title>Node16</title>
<g id="a_node16"><a xlink:href="_m_c_t_s_player_8cpp.html" target="_top" xlink:title="/workspace/src/mcts\l/MCTSPlayer.cpp">
<polygon fill="none" stroke="#000000" points="1907.5,-84 1907.5,-114 2023.5,-114 2023.5,-84 1907.5,-84"/>
<text text-anchor="start" x="1915.5" y="-102" font-family="Helvetica,sans-Serif" font-size="10.00" fill="#000000">/workspace/src/mcts</text>
<text text-anchor="middle" x="1965.5" y="-91" font-family="Helvetica,sans-Serif" font-size="10.00" fill="#000000">/MCTSPlayer.cpp</text>
</a>
</g>
</g>
<!-- Node2&#45;&gt;Node16 -->
<g id="edge17" class="edge">
<title>Node2&#45;&gt;Node16</title>
<path fill="none" stroke="#191970" d="M966.2176,-168.3444C1196.7456,-159.8707 1808.1572,-136.1683 1898.5,-120 1906.5395,-118.5612 1914.9601,-116.4371 1923.0117,-114.0849"/>
<polygon fill="#191970" stroke="#191970" points="966.0568,-164.8478 956.1919,-168.7121 966.3135,-171.8431 966.0568,-164.8478"/>
</g>
<!-- Node17 -->
<g id="node17" class="node">
<title>Node17</title>
<g id="a_node17"><a xlink:href="_tree_8cpp.html" target="_top" xlink:title="/workspace/src/mcts\l/Tree.cpp">
<polygon fill="none" stroke="#000000" points="311.5,-84 311.5,-114 427.5,-114 427.5,-84 311.5,-84"/>
<text text-anchor="start" x="319.5" y="-102" font-family="Helvetica,sans-Serif" font-size="10.00" fill="#000000">/workspace/src/mcts</text>
<text text-anchor="middle" x="369.5" y="-91" font-family="Helvetica,sans-Serif" font-size="10.00" fill="#000000">/Tree.cpp</text>
</a>
</g>
</g>
<!-- Node2&#45;&gt;Node17 -->
<g id="edge18" class="edge">
<title>Node2&#45;&gt;Node17</title>
<path fill="none" stroke="#191970" d="M790.8963,-165.4881C702.1792,-158.3932 561.3394,-144.3614 441.5,-120 433.4613,-118.3659 425.0187,-116.2642 416.8578,-114.0241"/>
<polygon fill="#191970" stroke="#191970" points="790.6731,-168.9813 800.9172,-166.2777 791.223,-162.0029 790.6731,-168.9813"/>
</g>
<!-- Node8&#45;&gt;Node7 -->
<g id="edge8" class="edge">
<title>Node8&#45;&gt;Node7</title>
<path fill="none" stroke="#191970" d="M531.9933,-77.8236C514.3086,-64.6864 491.9965,-48.1117 476.0412,-36.2592"/>
<polygon fill="#191970" stroke="#191970" points="530.1403,-80.8071 540.2549,-83.9608 534.3146,-75.1879 530.1403,-80.8071"/>
</g>
<!-- Node9 -->
<g id="node9" class="node">
<title>Node9</title>
<g id="a_node9"><a xlink:href="tic__tac__toe_2_console_game_8cpp.html" target="_top" xlink:title="/workspace/src/game\l_logic/tic_tac_toe/Console\lGame.cpp">
<polygon fill="none" stroke="#000000" points="1667,-.5 1667,-41.5 1810,-41.5 1810,-.5 1667,-.5"/>
<text text-anchor="start" x="1675" y="-29.5" font-family="Helvetica,sans-Serif" font-size="10.00" fill="#000000">/workspace/src/game</text>
<text text-anchor="start" x="1675" y="-18.5" font-family="Helvetica,sans-Serif" font-size="10.00" fill="#000000">_logic/tic_tac_toe/Console</text>
<text text-anchor="middle" x="1738.5" y="-7.5" font-family="Helvetica,sans-Serif" font-size="10.00" fill="#000000">Game.cpp</text>
</a>
</g>
</g>
<!-- Node8&#45;&gt;Node9 -->
<g id="edge9" class="edge">
<title>Node8&#45;&gt;Node9</title>
<path fill="none" stroke="#191970" d="M625.825,-81.7028C632.7697,-80.2677 639.757,-78.9903 646.5,-78 844.4222,-48.9317 1456.5472,-29.0934 1666.7593,-22.9885"/>
<polygon fill="#191970" stroke="#191970" points="624.7409,-78.3568 615.714,-83.9035 626.2296,-85.1966 624.7409,-78.3568"/>
</g>
<!-- Node10 -->
<g id="node10" class="node">
<title>Node10</title>
<g id="a_node10"><a xlink:href="_tic_tac_toe_8cpp.html" target="_top" xlink:title="/workspace/src/game\l_logic/tic_tac_toe/TicTacToe.cpp">
<polygon fill="none" stroke="#000000" points="550,-6 550,-36 721,-36 721,-6 550,-6"/>
<text text-anchor="start" x="558" y="-24" font-family="Helvetica,sans-Serif" font-size="10.00" fill="#000000">/workspace/src/game</text>
<text text-anchor="middle" x="635.5" y="-13" font-family="Helvetica,sans-Serif" font-size="10.00" fill="#000000">_logic/tic_tac_toe/TicTacToe.cpp</text>
</a>
</g>
</g>
<!-- Node8&#45;&gt;Node10 -->
<g id="edge10" class="edge">
<title>Node8&#45;&gt;Node10</title>
<path fill="none" stroke="#191970" d="M581.9027,-76.7412C594.3598,-63.7859 609.7419,-47.7884 620.8277,-36.2592"/>
<polygon fill="#191970" stroke="#191970" points="579.3689,-74.3266 574.9608,-83.9608 584.4148,-79.1783 579.3689,-74.3266"/>
</g>
<!-- Node11&#45;&gt;Node9 -->
<g id="edge12" class="edge">
<title>Node11&#45;&gt;Node9</title>
<path fill="none" stroke="#191970" d="M1789.0855,-70.9452C1779.3031,-61.2866 1768.5337,-50.6535 1759.4551,-41.6898"/>
<polygon fill="#191970" stroke="#191970" points="1786.7544,-73.5621 1796.3294,-78.0974 1791.6725,-68.5809 1786.7544,-73.5621"/>
</g>
<!-- Node12 -->
<g id="node12" class="node">
<title>Node12</title>
<g id="a_node12"><a xlink:href="main_8cpp.html" target="_top" xlink:title="/workspace/src/main.cpp">
<polygon fill="none" stroke="#000000" points="1828,-11.5 1828,-30.5 1965,-30.5 1965,-11.5 1828,-11.5"/>
<text text-anchor="middle" x="1896.5" y="-18.5" font-family="Helvetica,sans-Serif" font-size="10.00" fill="#000000">/workspace/src/main.cpp</text>
</a>
</g>
</g>
<!-- Node11&#45;&gt;Node12 -->
<g id="edge13" class="edge">
<title>Node11&#45;&gt;Node12</title>
<path fill="none" stroke="#191970" d="M1845.8684,-70.9907C1860.081,-56.958 1876.3872,-40.8582 1886.5671,-30.8072"/>
<polygon fill="#191970" stroke="#191970" points="1843.3275,-68.5809 1838.6706,-78.0974 1848.2456,-73.5621 1843.3275,-68.5809"/>
</g>
<!-- Node18&#45;&gt;Node3 -->
<g id="edge20" class="edge">
<title>Node18&#45;&gt;Node3</title>
<path fill="none" stroke="#191970" d="M1333.8272,-153.3175C1297.3405,-141.1832 1249.9423,-125.42 1215.6119,-114.0028"/>
<polygon fill="#191970" stroke="#191970" points="1332.7367,-156.6433 1343.3303,-156.478 1334.9458,-150.001 1332.7367,-156.6433"/>
</g>
<!-- Node18&#45;&gt;Node4 -->
<g id="edge21" class="edge">
<title>Node18&#45;&gt;Node4</title>
<path fill="none" stroke="#191970" d="M1289.993,-168.1143C1172.9901,-162.8808 972.2791,-150.0756 802.5,-120 793.6623,-118.4344 784.3685,-116.3392 775.3989,-114.0769"/>
<polygon fill="#191970" stroke="#191970" points="1289.8636,-171.6119 1300.0072,-168.5528 1290.1699,-164.6186 1289.8636,-171.6119"/>
</g>
<!-- Node18&#45;&gt;Node5 -->
<g id="edge22" class="edge">
<title>Node18&#45;&gt;Node5</title>
<path fill="none" stroke="#191970" d="M1290.1773,-164.1097C1201.779,-156.4534 1068.6691,-142.4131 954.5,-120 946.1719,-118.3651 937.4199,-116.2903 928.9379,-114.0846"/>
<polygon fill="#191970" stroke="#191970" points="1289.9329,-167.6015 1300.1949,-164.9666 1290.5296,-160.6269 1289.9329,-167.6015"/>
</g>
<!-- Node18&#45;&gt;Node6 -->
<g id="edge23" class="edge">
<title>Node18&#45;&gt;Node6</title>
<path fill="none" stroke="#191970" d="M1290.6097,-157.5713C1232.6461,-148.5545 1157.9739,-135.5965 1092.5,-120 1085.1915,-118.259 1077.5186,-116.1806 1070.0535,-114.0185"/>
<polygon fill="#191970" stroke="#191970" points="1290.08,-161.0309 1300.4967,-159.0964 1291.1472,-154.1127 1290.08,-161.0309"/>
</g>
<!-- Node18&#45;&gt;Node15 -->
<g id="edge28" class="edge">
<title>Node18&#45;&gt;Node15</title>
<path fill="none" stroke="#191970" d="M1366.1784,-149.3313C1354.6466,-137.8785 1340.8792,-124.2054 1330.6063,-114.0028"/>
<polygon fill="#191970" stroke="#191970" points="1363.8126,-151.9146 1373.3744,-156.478 1368.7454,-146.9478 1363.8126,-151.9146"/>
</g>
<!-- Node18&#45;&gt;Node16 -->
<g id="edge29" class="edge">
<title>Node18&#45;&gt;Node16</title>
<path fill="none" stroke="#191970" d="M1486.9679,-167.4889C1590.3436,-161.9001 1757.1808,-148.9687 1898.5,-120 1906.1426,-118.4334 1914.1514,-116.3375 1921.8657,-114.075"/>
<polygon fill="#191970" stroke="#191970" points="1486.6565,-164.0004 1476.8551,-168.0231 1487.0259,-170.9906 1486.6565,-164.0004"/>
</g>
<!-- Node18&#45;&gt;Node17 -->
<g id="edge30" class="edge">
<title>Node18&#45;&gt;Node17</title>
<path fill="none" stroke="#191970" d="M1290.1286,-167.7161C1087.5554,-159.6351 629.8288,-139.8084 474.5,-120 459.1941,-118.0481 442.7758,-115.1544 427.5752,-112.1348"/>
<polygon fill="#191970" stroke="#191970" points="1290.036,-171.2151 1300.1672,-168.1153 1290.3142,-164.2206 1290.036,-171.2151"/>
</g>
<!-- Node19 -->
<g id="node19" class="node">
<title>Node19</title>
<g id="a_node19"><a xlink:href="penguin_2_board_8cpp.html" target="_top" xlink:title="/workspace/src/game\l_logic/penguin/Board.cpp">
<polygon fill="none" stroke="#000000" points="1392,-84 1392,-114 1531,-114 1531,-84 1392,-84"/>
<text text-anchor="start" x="1400" y="-102" font-family="Helvetica,sans-Serif" font-size="10.00" fill="#000000">/workspace/src/game</text>
<text text-anchor="middle" x="1461.5" y="-91" font-family="Helvetica,sans-Serif" font-size="10.00" fill="#000000">_logic/penguin/Board.cpp</text>
</a>
</g>
</g>
<!-- Node18&#45;&gt;Node19 -->
<g id="edge24" class="edge">
<title>Node18&#45;&gt;Node19</title>
<path fill="none" stroke="#191970" d="M1410.8216,-149.3313C1422.3534,-137.8785 1436.1208,-124.2054 1446.3937,-114.0028"/>
<polygon fill="#191970" stroke="#191970" points="1408.2546,-146.9478 1403.6256,-156.478 1413.1874,-151.9146 1408.2546,-146.9478"/>
</g>
<!-- Node20 -->
<g id="node20" class="node">
<title>Node20</title>
<g id="a_node20"><a xlink:href="penguin_2_console_game_8cpp.html" target="_top" xlink:title="/workspace/src/game\l_logic/penguin/ConsoleGame.cpp">
<polygon fill="none" stroke="#000000" points="2042,-84 2042,-114 2221,-114 2221,-84 2042,-84"/>
<text text-anchor="start" x="2050" y="-102" font-family="Helvetica,sans-Serif" font-size="10.00" fill="#000000">/workspace/src/game</text>
<text text-anchor="middle" x="2131.5" y="-91" font-family="Helvetica,sans-Serif" font-size="10.00" fill="#000000">_logic/penguin/ConsoleGame.cpp</text>
</a>
</g>
</g>
<!-- Node18&#45;&gt;Node20 -->
<g id="edge25" class="edge">
<title>Node18&#45;&gt;Node20</title>
<path fill="none" stroke="#191970" d="M1486.7303,-167.5948C1613.3996,-161.6555 1840.2734,-147.9542 2032.5,-120 2043.5408,-118.3944 2055.1955,-116.2933 2066.4802,-114.0412"/>
<polygon fill="#191970" stroke="#191970" points="1486.49,-164.102 1476.6624,-168.0603 1486.8134,-171.0946 1486.49,-164.102"/>
</g>
<!-- Node18&#45;&gt;Node21 -->
<g id="edge26" class="edge">
<title>Node18&#45;&gt;Node21</title>
<path fill="none" stroke="#191970" d="M1486.7204,-166.647C1676.8638,-157.061 2088.9742,-135.302 2230.5,-120 2245.7103,-118.3554 2261.826,-116.2065 2277.4251,-113.9117"/>
<polygon fill="#191970" stroke="#191970" points="1486.5413,-163.1514 1476.7299,-167.1497 1486.8932,-170.1426 1486.5413,-163.1514"/>
</g>
<!-- Node22 -->
<g id="node22" class="node">
<title>Node22</title>
<g id="a_node22"><a xlink:href="_penguin_game_8cpp.html" target="_top" xlink:title="/workspace/src/game\l_logic/penguin/PenguinGame.cpp">
<polygon fill="none" stroke="#000000" points="1549,-84 1549,-114 1728,-114 1728,-84 1549,-84"/>
<text text-anchor="start" x="1557" y="-102" font-family="Helvetica,sans-Serif" font-size="10.00" fill="#000000">/workspace/src/game</text>
<text text-anchor="middle" x="1638.5" y="-91" font-family="Helvetica,sans-Serif" font-size="10.00" fill="#000000">_logic/penguin/PenguinGame.cpp</text>
</a>
</g>
</g>
<!-- Node18&#45;&gt;Node22 -->
<g id="edge27" class="edge">
<title>Node18&#45;&gt;Node22</title>
<path fill="none" stroke="#191970" d="M1450.1325,-153.6266C1492.1144,-141.4518 1547.0614,-125.5172 1586.7662,-114.0028"/>
<polygon fill="#191970" stroke="#191970" points="1448.9296,-150.3311 1440.3002,-156.478 1450.8793,-157.0541 1448.9296,-150.3311"/>
</g>
<!-- Node24&#45;&gt;Node9 -->
<g id="edge34" class="edge">
<title>Node24&#45;&gt;Node9</title>
<path fill="none" stroke="#191970" d="M2033.6585,-156.7764C2034.9492,-156.514 2036.2307,-156.2549 2037.5,-156 2128.2064,-137.7804 2293.0009,-146.2147 2230.5,-78 2199.5316,-44.2005 1864.6767,-49.7791 1819.5,-42 1816.4935,-41.4823 1813.4352,-40.9082 1810.3538,-40.2905"/>
<polygon fill="#191970" stroke="#191970" points="2032.7186,-153.3964 2023.6302,-158.8417 2034.1307,-160.2525 2032.7186,-153.3964"/>
</g>
<!-- Node24&#45;&gt;Node11 -->
<g id="edge35" class="edge">
<title>Node24&#45;&gt;Node11</title>
<path fill="none" stroke="#191970" d="M1925.7504,-152.0281C1905.2202,-141.971 1880.1773,-129.7034 1859.3514,-119.5015"/>
<polygon fill="#191970" stroke="#191970" points="1924.3142,-155.2219 1934.8343,-156.478 1927.3936,-148.9356 1924.3142,-155.2219"/>
</g>
<!-- Node24&#45;&gt;Node16 -->
<g id="edge36" class="edge">
<title>Node24&#45;&gt;Node16</title>
<path fill="none" stroke="#191970" d="M1965.5,-146.3409C1965.5,-135.5601 1965.5,-123.3309 1965.5,-114.0028"/>
<polygon fill="#191970" stroke="#191970" points="1962.0001,-146.4779 1965.5,-156.478 1969.0001,-146.478 1962.0001,-146.4779"/>
</g>
<!-- Node24&#45;&gt;Node20 -->
<g id="edge33" class="edge">
<title>Node24&#45;&gt;Node20</title>
<path fill="none" stroke="#191970" d="M2009.2756,-152.3811C2036.7515,-140.3811 2071.6747,-125.1285 2097.1488,-114.0028"/>
<polygon fill="#191970" stroke="#191970" points="2007.6586,-149.2681 1999.8953,-156.478 2010.4603,-155.6829 2007.6586,-149.2681"/>
</g>
<!-- Node25&#45;&gt;Node16 -->
<g id="edge42" class="edge">
<title>Node25&#45;&gt;Node16</title>
<path fill="none" stroke="#191970" d="M1881.183,-213.0519C1883.2802,-195.8908 1887.9799,-173.3093 1898.5,-156 1908.9699,-138.7733 1926.4559,-124.157 1940.9391,-114.0393"/>
<polygon fill="#191970" stroke="#191970" points="1877.6571,-213.1382 1880.1457,-223.4366 1884.6224,-213.8341 1877.6571,-213.1382"/>
</g>
<!-- Node25&#45;&gt;Node17 -->
<g id="edge43" class="edge">
<title>Node25&#45;&gt;Node17</title>
<path fill="none" stroke="#191970" d="M1811.1759,-236.5849C1604.8765,-230.5938 990.2942,-211.1586 791.5,-187 659.2579,-170.9292 506.8951,-134.6624 426.3256,-114.0543"/>
<polygon fill="#191970" stroke="#191970" points="1811.174,-240.0862 1821.271,-236.8768 1811.3764,-233.0892 1811.174,-240.0862"/>
</g>
<!-- Node25&#45;&gt;Node24 -->
<g id="edge38" class="edge">
<title>Node25&#45;&gt;Node24</title>
<path fill="none" stroke="#191970" d="M1907.0145,-217.0643C1919.7304,-207.1577 1934.5316,-195.6265 1946.0625,-186.6432"/>
<polygon fill="#191970" stroke="#191970" points="1904.7523,-214.3899 1899.0147,-223.2967 1909.0544,-219.9119 1904.7523,-214.3899"/>
</g>
<!-- Node26 -->
<g id="node26" class="node">
<title>Node26</title>
<g id="a_node26"><a xlink:href="_m_c_t_s_8hpp.html" target="_top" xlink:title="/workspace/src/mcts\l/MCTS.hpp">
<polygon fill="none" stroke="#000000" points="1735.5,-156.5 1735.5,-186.5 1851.5,-186.5 1851.5,-156.5 1735.5,-156.5"/>
<text text-anchor="start" x="1743.5" y="-174.5" font-family="Helvetica,sans-Serif" font-size="10.00" fill="#000000">/workspace/src/mcts</text>
<text text-anchor="middle" x="1793.5" y="-163.5" font-family="Helvetica,sans-Serif" font-size="10.00" fill="#000000">/MCTS.hpp</text>
</a>
</g>
</g>
<!-- Node25&#45;&gt;Node26 -->
<g id="edge39" class="edge">
<title>Node25&#45;&gt;Node26</title>
<path fill="none" stroke="#191970" d="M1851.9855,-217.0643C1839.2696,-207.1577 1824.4684,-195.6265 1812.9375,-186.6432"/>
<polygon fill="#191970" stroke="#191970" points="1849.9456,-219.9119 1859.9853,-223.2967 1854.2477,-214.3899 1849.9456,-219.9119"/>
</g>
<!-- Node26&#45;&gt;Node15 -->
<g id="edge40" class="edge">
<title>Node26&#45;&gt;Node15</title>
<path fill="none" stroke="#191970" d="M1725.2342,-166.7084C1643.168,-160.0861 1501.606,-145.9093 1382.5,-120 1374.9958,-118.3676 1367.1275,-116.2669 1359.5286,-114.0271"/>
<polygon fill="#191970" stroke="#191970" points="1725.1858,-170.2154 1735.4312,-167.517 1725.7392,-163.2373 1725.1858,-170.2154"/>
</g>
<!-- Node26&#45;&gt;Node16 -->
<g id="edge41" class="edge">
<title>Node26&#45;&gt;Node16</title>
<path fill="none" stroke="#191970" d="M1838.4853,-152.5382C1867.0107,-140.5144 1903.3971,-125.1771 1929.9071,-114.0028"/>
<polygon fill="#191970" stroke="#191970" points="1836.9939,-149.3685 1829.1385,-156.478 1839.7128,-155.8189 1836.9939,-149.3685"/>
</g>
</g>
</svg>
        <g id="navigator" transform="translate(0 0)" fill="#404254">
                <rect fill="#f2f5e9" fill-opacity="0.5" stroke="#606060" stroke-width=".5" x="0" y="0" width="60" height="60"/>
                <use id="zoomplus" xlink:href="#zoomPlus" x="17" y="9" onmousedown="handleZoom(evt,'in')"/>
                <use id="zoomminus" xlink:href="#zoomMin" x="42" y="9" onmousedown="handleZoom(evt,'out')"/>
                <use id="reset" xlink:href="#resetDef" x="30" y="36" onmousedown="handleReset()"/>
                <g id="arrowUp" xlink:href="#dirArrow" transform="translate(30 24)" onmousedown="handlePan(0,-1)">
                  <use xlink:href="#rim" fill="#404040">
                        <set attributeName="fill" to="#808080" begin="arrowUp.mouseover" end="arrowUp.mouseout"/>
                  </use>
                  <path fill="none" stroke="white" stroke-width="1.5" d="M0,-3.0v7 M-2.5,-0.5L0,-3.0L2.5,-0.5"/>
                </g>
                <g id="arrowRight" xlink:href="#dirArrow" transform="rotate(90) translate(36 -43)" onmousedown="handlePan(1,0)">
                  <use xlink:href="#rim" fill="#404040">
                        <set attributeName="fill" to="#808080" begin="arrowRight.mouseover" end="arrowRight.mouseout"/>
                  </use>
                  <path fill="none" stroke="white" stroke-width="1.5" d="M0,-3.0v7 M-2.5,-0.5L0,-3.0L2.5,-0.5"/>
                </g>
                <g id="arrowDown" xlink:href="#dirArrow" transform="rotate(180) translate(-30 -48)" onmousedown="handlePan(0,1)">
                  <use xlink:href="#rim" fill="#404040">
                        <set attributeName="fill" to="#808080" begin="arrowDown.mouseover" end="arrowDown.mouseout"/>
                  </use>
                  <path fill="none" stroke="white" stroke-width="1.5" d="M0,-3.0v7 M-2.5,-0.5L0,-3.0L2.5,-0.5"/>
                </g>
                <g id="arrowLeft" xlink:href="#dirArrow" transform="rotate(270) translate(-36 17)" onmousedown="handlePan(-1,0)">
                  <use xlink:href="#rim" fill="#404040">
                        <set attributeName="fill" to="#808080" begin="arrowLeft.mouseover" end="arrowLeft.mouseout"/>
                  </use>
                  <path fill="none" stroke="white" stroke-width="1.5" d="M0,-3.0v7 M-2.5,-0.5L0,-3.0L2.5,-0.5"/>
                </g>
        </g>
        <svg viewBox="0 0 15 15" width="100%" height="30px" preserveAspectRatio="xMaxYMin meet">
         <g id="arrow_out" transform="scale(0.3 0.3)">
          <a xlink:href="_abstract_player_8hpp__dep__incl_org.svg" target="_base">
           <rect id="button" ry="5" rx="5" y="6" x="6" height="38" width="38"
                fill="#f2f5e9" fill-opacity="0.5" stroke="#606060" stroke-width="1.0"/>
           <path id="arrow"
             d="M 11.500037,31.436501 C 11.940474,20.09759 22.043105,11.32322 32.158766,21.979434 L 37.068811,17.246167 C 37.068811,17.246167 37.088388,32 37.088388,32 L 22.160133,31.978069 C 22.160133,31.978069 26.997745,27.140456 26.997745,27.140456 C 18.528582,18.264221 13.291696,25.230495 11.500037,31.436501 z"
             style="fill:#404040;"/>
          </a>
         </g>
        </svg>
</svg>
