<?xml version="1.0" encoding="UTF-8" standalone="no"?>
<!DOCTYPE svg PUBLIC "-//W3C//DTD SVG 1.1//EN"
 "http://www.w3.org/Graphics/SVG/1.1/DTD/svg11.dtd">
<!-- Generated by graphviz version 2.40.1 (20161225.0304)
 -->
<!-- Title: /workspace/src/game_logic/History.cpp Pages: 1 -->
<!--zoomable 207 -->
<svg id="main" version="1.1" xmlns="http://www.w3.org/2000/svg" xmlns:xlink="http://www.w3.org/1999/xlink" xml:space="preserve" onload="init(evt)">
<style type="text/css"><![CDATA[
.edge:hover path { stroke: red; }
.edge:hover polygon { stroke: red; fill: red; }
]]></style>
<script type="text/javascript"><![CDATA[
var edges = document.getElementsByTagName('g');
if (edges && edges.length) {
  for (var i=0;i<edges.length;i++) {
    if (edges[i].id.substr(0,4)=='edge') {
      edges[i].setAttribute('class','edge');
    }
  }
}
]]></script>
        <defs>
                <circle id="rim" cx="0" cy="0" r="7"/>
                <circle id="rim2" cx="0" cy="0" r="3.5"/>
                <g id="zoomPlus">
                        <use xlink:href="#rim" fill="#404040">
                                <set attributeName="fill" to="#808080" begin="zoomplus.mouseover" end="zoomplus.mouseout"/>
                        </use>
                        <path d="M-4,0h8M0,-4v8" fill="none" stroke="white" stroke-width="1.5" pointer-events="none"/>
                </g>
                <g id="zoomMin">
                        <use xlink:href="#rim" fill="#404040">
                                <set attributeName="fill" to="#808080" begin="zoomminus.mouseover" end="zoomminus.mouseout"/>
                        </use>
                        <path d="M-4,0h8" fill="none" stroke="white" stroke-width="1.5" pointer-events="none"/>
                </g>
                <g id="dirArrow">
                        <path fill="none" stroke="white" stroke-width="1.5" d="M0,-3.0v7 M-2.5,-0.5L0,-3.0L2.5,-0.5"/>
                </g>
               <g id="resetDef">
                       <use xlink:href="#rim2" fill="#404040">
                               <set attributeName="fill" to="#808080" begin="reset.mouseover" end="reset.mouseout"/>
                       </use>
               </g>
        </defs>

<script type="text/javascript">
var viewWidth = 1009;
var viewHeight = 207;
var sectionId = 'dynsection-0';
</script>
<script xlink:href="svgpan.js"/>
<svg id="graph" class="graph">
<g id="viewport">
<title>/workspace/src/game_logic/History.cpp</title>
<!-- Node0 -->
<g id="node1" class="node">
<title>Node0</title>
<polygon fill="#bfbfbf" stroke="#000000" points="391,-168.5 391,-198.5 511,-198.5 511,-168.5 391,-168.5"/>
<text text-anchor="start" x="399" y="-186.5" font-family="Helvetica,sans-Serif" font-size="10.00" fill="#000000">/workspace/src/game</text>
<text text-anchor="middle" x="451" y="-175.5" font-family="Helvetica,sans-Serif" font-size="10.00" fill="#000000">_logic/History.cpp</text>
</g>
<!-- Node1 -->
<g id="node2" class="node">
<title>Node1</title>
<polygon fill="none" stroke="#bfbfbf" points="0,-112.5 0,-131.5 56,-131.5 56,-112.5 0,-112.5"/>
<text text-anchor="middle" x="28" y="-119.5" font-family="Helvetica,sans-Serif" font-size="10.00" fill="#000000">assert.h</text>
</g>
<!-- Node0&#45;&gt;Node1 -->
<g id="edge1" class="edge">
<title>Node0&#45;&gt;Node1</title>
<path fill="none" stroke="#191970" d="M390.7523,-177.937C316.5422,-170.5344 186.5263,-155.7774 66.3056,-132.051"/>
<polygon fill="#191970" stroke="#191970" points="66.6833,-128.5573 56.1911,-130.0287 65.3108,-135.4214 66.6833,-128.5573"/>
</g>
<!-- Node2 -->
<g id="node3" class="node">
<title>Node2</title>
<g id="a_node3"><a xlink:href="tic__tac__toe_2_board_cell_8hpp.html" target="_top" xlink:title="tic_tac_toe/BoardCell.hpp">
<polygon fill="none" stroke="#000000" points="219.5,-112.5 219.5,-131.5 360.5,-131.5 360.5,-112.5 219.5,-112.5"/>
<text text-anchor="middle" x="290" y="-119.5" font-family="Helvetica,sans-Serif" font-size="10.00" fill="#000000">tic_tac_toe/BoardCell.hpp</text>
</a>
</g>
</g>
<!-- Node0&#45;&gt;Node2 -->
<g id="edge2" class="edge">
<title>Node0&#45;&gt;Node2</title>
<path fill="none" stroke="#191970" d="M411.615,-168.4554C384.9873,-158.284 350.1556,-144.9787 324.5966,-135.2155"/>
<polygon fill="#191970" stroke="#191970" points="325.5399,-131.8292 314.9493,-131.5303 323.042,-138.3684 325.5399,-131.8292"/>
</g>
<!-- Node7 -->
<g id="node8" class="node">
<title>Node7</title>
<g id="a_node8"><a xlink:href="_player_8hpp.html" target="_top" xlink:title="tic_tac_toe/Player.hpp">
<polygon fill="none" stroke="#000000" points="541,-112.5 541,-131.5 665,-131.5 665,-112.5 541,-112.5"/>
<text text-anchor="middle" x="603" y="-119.5" font-family="Helvetica,sans-Serif" font-size="10.00" fill="#000000">tic_tac_toe/Player.hpp</text>
</a>
</g>
</g>
<!-- Node0&#45;&gt;Node7 -->
<g id="edge7" class="edge">
<title>Node0&#45;&gt;Node7</title>
<path fill="none" stroke="#191970" d="M488.1834,-168.4554C513.2113,-158.329 545.9163,-145.0964 570.0166,-135.3453"/>
<polygon fill="#191970" stroke="#191970" points="571.4882,-138.5256 579.4454,-131.5303 568.8627,-132.0366 571.4882,-138.5256"/>
</g>
<!-- Node11 -->
<g id="node12" class="node">
<title>Node11</title>
<g id="a_node12"><a xlink:href="penguin_2_board_cell_8hpp.html" target="_top" xlink:title="penguin/BoardCell.hpp">
<polygon fill="none" stroke="#000000" points="74.5,-112.5 74.5,-131.5 201.5,-131.5 201.5,-112.5 74.5,-112.5"/>
<text text-anchor="middle" x="138" y="-119.5" font-family="Helvetica,sans-Serif" font-size="10.00" fill="#000000">penguin/BoardCell.hpp</text>
</a>
</g>
</g>
<!-- Node0&#45;&gt;Node11 -->
<g id="edge11" class="edge">
<title>Node0&#45;&gt;Node11</title>
<path fill="none" stroke="#191970" d="M390.6505,-171.6422C334.6264,-160.6343 251.7624,-144.3527 196.3789,-133.4706"/>
<polygon fill="#191970" stroke="#191970" points="196.8573,-129.9978 186.37,-131.504 195.5076,-136.8664 196.8573,-129.9978"/>
</g>
<!-- Node12 -->
<g id="node13" class="node">
<title>Node12</title>
<g id="a_node13"><a xlink:href="_human_player_8hpp.html" target="_top" xlink:title="penguin/HumanPlayer.hpp">
<polygon fill="none" stroke="#000000" points="683.5,-112.5 683.5,-131.5 828.5,-131.5 828.5,-112.5 683.5,-112.5"/>
<text text-anchor="middle" x="756" y="-119.5" font-family="Helvetica,sans-Serif" font-size="10.00" fill="#000000">penguin/HumanPlayer.hpp</text>
</a>
</g>
</g>
<!-- Node0&#45;&gt;Node12 -->
<g id="edge14" class="edge">
<title>Node0&#45;&gt;Node12</title>
<path fill="none" stroke="#191970" d="M511.2582,-171.3496C565.7319,-160.3655 645.3578,-144.3098 698.8479,-133.5241"/>
<polygon fill="#191970" stroke="#191970" points="699.7397,-136.9148 708.8506,-131.5072 698.3561,-130.0529 699.7397,-136.9148"/>
</g>
<!-- Node14 -->
<g id="node15" class="node">
<title>Node14</title>
<g id="a_node15"><a xlink:href="_penguin_pawn_8hpp.html" target="_top" xlink:title="penguin/PenguinPawn.hpp">
<polygon fill="none" stroke="#000000" points="379,-112.5 379,-131.5 523,-131.5 523,-112.5 379,-112.5"/>
<text text-anchor="middle" x="451" y="-119.5" font-family="Helvetica,sans-Serif" font-size="10.00" fill="#000000">penguin/PenguinPawn.hpp</text>
</a>
</g>
</g>
<!-- Node0&#45;&gt;Node14 -->
<g id="edge17" class="edge">
<title>Node0&#45;&gt;Node14</title>
<path fill="none" stroke="#191970" d="M451,-168.2977C451,-160.3834 451,-150.6043 451,-142.0759"/>
<polygon fill="#191970" stroke="#191970" points="454.5001,-141.8469 451,-131.8469 447.5001,-141.847 454.5001,-141.8469"/>
</g>
<!-- Node15 -->
<g id="node16" class="node">
<title>Node15</title>
<g id="a_node16"><a xlink:href="_history_8hpp.html" target="_top" xlink:title="History.hpp">
<polygon fill="none" stroke="#000000" points="846.5,-112.5 846.5,-131.5 917.5,-131.5 917.5,-112.5 846.5,-112.5"/>
<text text-anchor="middle" x="882" y="-119.5" font-family="Helvetica,sans-Serif" font-size="10.00" fill="#000000">History.hpp</text>
</a>
</g>
</g>
<!-- Node0&#45;&gt;Node15 -->
<g id="edge19" class="edge">
<title>Node0&#45;&gt;Node15</title>
<path fill="none" stroke="#191970" d="M511.2623,-177.204C585.522,-169.0616 715.7267,-153.5377 835.9243,-132.2623"/>
<polygon fill="#191970" stroke="#191970" points="836.8084,-135.6598 846.0363,-130.4544 835.5763,-128.7691 836.8084,-135.6598"/>
</g>
<!-- Node3 -->
<g id="node4" class="node">
<title>Node3</title>
<g id="a_node4"><a xlink:href="_position_8hpp.html" target="_top" xlink:title="../utils/Position.hpp">
<polygon fill="none" stroke="#000000" points="86,-56.5 86,-75.5 196,-75.5 196,-56.5 86,-56.5"/>
<text text-anchor="middle" x="141" y="-63.5" font-family="Helvetica,sans-Serif" font-size="10.00" fill="#000000">../utils/Position.hpp</text>
</a>
</g>
</g>
<!-- Node2&#45;&gt;Node3 -->
<g id="edge3" class="edge">
<title>Node2&#45;&gt;Node3</title>
<path fill="none" stroke="#191970" d="M264.386,-112.3733C239.9313,-103.1822 202.8946,-89.2624 175.7791,-79.0713"/>
<polygon fill="#191970" stroke="#191970" points="176.8719,-75.7431 166.2798,-75.5011 174.4091,-82.2956 176.8719,-75.7431"/>
</g>
<!-- Node6 -->
<g id="node7" class="node">
<title>Node6</title>
<g id="a_node7"><a xlink:href="_abstract_board_cell_8hpp.html" target="_top" xlink:title="../AbstractBoardCell.hpp">
<polygon fill="none" stroke="#000000" points="220,-56.5 220,-75.5 354,-75.5 354,-56.5 220,-56.5"/>
<text text-anchor="middle" x="287" y="-63.5" font-family="Helvetica,sans-Serif" font-size="10.00" fill="#000000">../AbstractBoardCell.hpp</text>
</a>
</g>
</g>
<!-- Node2&#45;&gt;Node6 -->
<g id="edge6" class="edge">
<title>Node2&#45;&gt;Node6</title>
<path fill="none" stroke="#191970" d="M289.4774,-112.2455C289.086,-104.9382 288.5372,-94.6944 288.0556,-85.7046"/>
<polygon fill="#191970" stroke="#191970" points="291.5466,-85.4411 287.5166,-75.6427 284.5566,-85.8156 291.5466,-85.4411"/>
</g>
<!-- Node4 -->
<g id="node5" class="node">
<title>Node4</title>
<polygon fill="none" stroke="#bfbfbf" points="69.5,-.5 69.5,-19.5 122.5,-19.5 122.5,-.5 69.5,-.5"/>
<text text-anchor="middle" x="96" y="-7.5" font-family="Helvetica,sans-Serif" font-size="10.00" fill="#000000">stdlib.h</text>
</g>
<!-- Node3&#45;&gt;Node4 -->
<g id="edge4" class="edge">
<title>Node3&#45;&gt;Node4</title>
<path fill="none" stroke="#191970" d="M133.1616,-56.2455C126.838,-48.3761 117.7776,-37.101 110.1864,-27.6542"/>
<polygon fill="#191970" stroke="#191970" points="112.7408,-25.2454 103.7486,-19.6427 107.2842,-29.6302 112.7408,-25.2454"/>
</g>
<!-- Node5 -->
<g id="node6" class="node">
<title>Node5</title>
<polygon fill="none" stroke="#bfbfbf" points="140.5,-.5 140.5,-19.5 233.5,-19.5 233.5,-.5 140.5,-.5"/>
<text text-anchor="middle" x="187" y="-7.5" font-family="Helvetica,sans-Serif" font-size="10.00" fill="#000000">unordered_map</text>
</g>
<!-- Node3&#45;&gt;Node5 -->
<g id="edge5" class="edge">
<title>Node3&#45;&gt;Node5</title>
<path fill="none" stroke="#191970" d="M149.0126,-56.2455C155.4768,-48.3761 164.7385,-37.101 172.4983,-27.6542"/>
<polygon fill="#191970" stroke="#191970" points="175.4364,-29.5916 179.0792,-19.6427 170.0273,-25.1484 175.4364,-29.5916"/>
</g>
<!-- Node8 -->
<g id="node9" class="node">
<title>Node8</title>
<polygon fill="none" stroke="#bfbfbf" points="557,-56.5 557,-75.5 617,-75.5 617,-56.5 557,-56.5"/>
<text text-anchor="middle" x="587" y="-63.5" font-family="Helvetica,sans-Serif" font-size="10.00" fill="#000000">iostream</text>
</g>
<!-- Node7&#45;&gt;Node8 -->
<g id="edge8" class="edge">
<title>Node7&#45;&gt;Node8</title>
<path fill="none" stroke="#191970" d="M600.213,-112.2455C598.1023,-104.8579 595.134,-94.4689 592.5453,-85.4087"/>
<polygon fill="#191970" stroke="#191970" points="595.8677,-84.2964 589.755,-75.6427 589.137,-86.2195 595.8677,-84.2964"/>
</g>
<!-- Node9 -->
<g id="node10" class="node">
<title>Node9</title>
<g id="a_node10"><a xlink:href="_abstract_player_8hpp.html" target="_top" xlink:title="../AbstractPlayer.hpp">
<polygon fill="none" stroke="#000000" points="635.5,-56.5 635.5,-75.5 752.5,-75.5 752.5,-56.5 635.5,-56.5"/>
<text text-anchor="middle" x="694" y="-63.5" font-family="Helvetica,sans-Serif" font-size="10.00" fill="#000000">../AbstractPlayer.hpp</text>
</a>
</g>
</g>
<!-- Node7&#45;&gt;Node9 -->
<g id="edge9" class="edge">
<title>Node7&#45;&gt;Node9</title>
<path fill="none" stroke="#191970" d="M618.851,-112.2455C632.8132,-103.6534 653.3728,-91.0014 669.4596,-81.1018"/>
<polygon fill="#191970" stroke="#191970" points="671.6484,-83.8645 678.3307,-75.6427 667.9797,-77.9029 671.6484,-83.8645"/>
</g>
<!-- Node10 -->
<g id="node11" class="node">
<title>Node10</title>
<g id="a_node11"><a xlink:href="_abstract_pawn_8hpp.html" target="_top" xlink:title="../AbstractPawn.hpp">
<polygon fill="none" stroke="#000000" points="402.5,-56.5 402.5,-75.5 515.5,-75.5 515.5,-56.5 402.5,-56.5"/>
<text text-anchor="middle" x="459" y="-63.5" font-family="Helvetica,sans-Serif" font-size="10.00" fill="#000000">../AbstractPawn.hpp</text>
</a>
</g>
</g>
<!-- Node7&#45;&gt;Node10 -->
<g id="edge10" class="edge">
<title>Node7&#45;&gt;Node10</title>
<path fill="none" stroke="#191970" d="M578.2455,-112.3733C554.7151,-103.2226 519.1313,-89.3844 492.9574,-79.2057"/>
<polygon fill="#191970" stroke="#191970" points="494.0201,-75.8636 483.4315,-75.5011 491.4829,-82.3877 494.0201,-75.8636"/>
</g>
<!-- Node11&#45;&gt;Node3 -->
<g id="edge13" class="edge">
<title>Node11&#45;&gt;Node3</title>
<path fill="none" stroke="#191970" d="M138.5226,-112.2455C138.914,-104.9382 139.4628,-94.6944 139.9444,-85.7046"/>
<polygon fill="#191970" stroke="#191970" points="143.4434,-85.8156 140.4834,-75.6427 136.4534,-85.4411 143.4434,-85.8156"/>
</g>
<!-- Node11&#45;&gt;Node6 -->
<g id="edge12" class="edge">
<title>Node11&#45;&gt;Node6</title>
<path fill="none" stroke="#191970" d="M163.614,-112.3733C188.0687,-103.1822 225.1054,-89.2624 252.2209,-79.0713"/>
<polygon fill="#191970" stroke="#191970" points="253.5909,-82.2956 261.7202,-75.5011 251.1281,-75.7431 253.5909,-82.2956"/>
</g>
<!-- Node12&#45;&gt;Node9 -->
<g id="edge16" class="edge">
<title>Node12&#45;&gt;Node9</title>
<path fill="none" stroke="#191970" d="M745.2004,-112.2455C736.1322,-104.0549 722.9794,-92.1749 712.2755,-82.5069"/>
<polygon fill="#191970" stroke="#191970" points="714.4429,-79.7482 704.6758,-75.6427 709.7509,-84.9429 714.4429,-79.7482"/>
</g>
<!-- Node13 -->
<g id="node14" class="node">
<title>Node13</title>
<polygon fill="none" stroke="#bfbfbf" points="770.5,-56.5 770.5,-75.5 817.5,-75.5 817.5,-56.5 770.5,-56.5"/>
<text text-anchor="middle" x="794" y="-63.5" font-family="Helvetica,sans-Serif" font-size="10.00" fill="#000000">vector</text>
</g>
<!-- Node12&#45;&gt;Node13 -->
<g id="edge15" class="edge">
<title>Node12&#45;&gt;Node13</title>
<path fill="none" stroke="#191970" d="M762.6191,-112.2455C767.9046,-104.4564 775.4541,-93.3308 781.8238,-83.9439"/>
<polygon fill="#191970" stroke="#191970" points="784.7379,-85.8827 787.4568,-75.6427 778.9455,-81.9522 784.7379,-85.8827"/>
</g>
<!-- Node14&#45;&gt;Node10 -->
<g id="edge18" class="edge">
<title>Node14&#45;&gt;Node10</title>
<path fill="none" stroke="#191970" d="M452.3935,-112.2455C453.4374,-104.9382 454.9008,-94.6944 456.1851,-85.7046"/>
<polygon fill="#191970" stroke="#191970" points="459.673,-86.0372 457.6225,-75.6427 452.7434,-85.0472 459.673,-86.0372"/>
</g>
<!-- Node16 -->
<g id="node17" class="node">
<title>Node16</title>
<polygon fill="none" stroke="#bfbfbf" points="851.5,-56.5 851.5,-75.5 894.5,-75.5 894.5,-56.5 851.5,-56.5"/>
<text text-anchor="middle" x="873" y="-63.5" font-family="Helvetica,sans-Serif" font-size="10.00" fill="#000000">stack</text>
</g>
<!-- Node15&#45;&gt;Node16 -->
<g id="edge20" class="edge">
<title>Node15&#45;&gt;Node16</title>
<path fill="none" stroke="#191970" d="M880.4323,-112.2455C879.2579,-104.9382 877.6116,-94.6944 876.1668,-85.7046"/>
<polygon fill="#191970" stroke="#191970" points="879.5922,-84.9606 874.5497,-75.6427 872.6809,-86.0714 879.5922,-84.9606"/>
</g>
<!-- Node17 -->
<g id="node18" class="node">
<title>Node17</title>
<g id="a_node18"><a xlink:href="_move_8hpp.html" target="_top" xlink:title="utils/Move.hpp">
<polygon fill="none" stroke="#000000" points="913,-56.5 913,-75.5 1001,-75.5 1001,-56.5 913,-56.5"/>
<text text-anchor="middle" x="957" y="-63.5" font-family="Helvetica,sans-Serif" font-size="10.00" fill="#000000">utils/Move.hpp</text>
</a>
</g>
</g>
<!-- Node15&#45;&gt;Node17 -->
<g id="edge21" class="edge">
<title>Node15&#45;&gt;Node17</title>
<path fill="none" stroke="#191970" d="M895.064,-112.2455C906.3562,-103.814 922.8845,-91.4729 936.0271,-81.6598"/>
<polygon fill="#191970" stroke="#191970" points="938.1669,-84.4301 944.0857,-75.6427 933.9789,-78.8211 938.1669,-84.4301"/>
</g>
</g>
</svg>
        <g id="navigator" transform="translate(0 0)" fill="#404254">
                <rect fill="#f2f5e9" fill-opacity="0.5" stroke="#606060" stroke-width=".5" x="0" y="0" width="60" height="60"/>
                <use id="zoomplus" xlink:href="#zoomPlus" x="17" y="9" onmousedown="handleZoom(evt,'in')"/>
                <use id="zoomminus" xlink:href="#zoomMin" x="42" y="9" onmousedown="handleZoom(evt,'out')"/>
                <use id="reset" xlink:href="#resetDef" x="30" y="36" onmousedown="handleReset()"/>
                <g id="arrowUp" xlink:href="#dirArrow" transform="translate(30 24)" onmousedown="handlePan(0,-1)">
                  <use xlink:href="#rim" fill="#404040">
                        <set attributeName="fill" to="#808080" begin="arrowUp.mouseover" end="arrowUp.mouseout"/>
                  </use>
                  <path fill="none" stroke="white" stroke-width="1.5" d="M0,-3.0v7 M-2.5,-0.5L0,-3.0L2.5,-0.5"/>
                </g>
                <g id="arrowRight" xlink:href="#dirArrow" transform="rotate(90) translate(36 -43)" onmousedown="handlePan(1,0)">
                  <use xlink:href="#rim" fill="#404040">
                        <set attributeName="fill" to="#808080" begin="arrowRight.mouseover" end="arrowRight.mouseout"/>
                  </use>
                  <path fill="none" stroke="white" stroke-width="1.5" d="M0,-3.0v7 M-2.5,-0.5L0,-3.0L2.5,-0.5"/>
                </g>
                <g id="arrowDown" xlink:href="#dirArrow" transform="rotate(180) translate(-30 -48)" onmousedown="handlePan(0,1)">
                  <use xlink:href="#rim" fill="#404040">
                        <set attributeName="fill" to="#808080" begin="arrowDown.mouseover" end="arrowDown.mouseout"/>
                  </use>
                  <path fill="none" stroke="white" stroke-width="1.5" d="M0,-3.0v7 M-2.5,-0.5L0,-3.0L2.5,-0.5"/>
                </g>
                <g id="arrowLeft" xlink:href="#dirArrow" transform="rotate(270) translate(-36 17)" onmousedown="handlePan(-1,0)">
                  <use xlink:href="#rim" fill="#404040">
                        <set attributeName="fill" to="#808080" begin="arrowLeft.mouseover" end="arrowLeft.mouseout"/>
                  </use>
                  <path fill="none" stroke="white" stroke-width="1.5" d="M0,-3.0v7 M-2.5,-0.5L0,-3.0L2.5,-0.5"/>
                </g>
        </g>
        <svg viewBox="0 0 15 15" width="100%" height="30px" preserveAspectRatio="xMaxYMin meet">
         <g id="arrow_out" transform="scale(0.3 0.3)">
          <a xlink:href="_history_8cpp__incl_org.svg" target="_base">
           <rect id="button" ry="5" rx="5" y="6" x="6" height="38" width="38"
                fill="#f2f5e9" fill-opacity="0.5" stroke="#606060" stroke-width="1.0"/>
           <path id="arrow"
             d="M 11.500037,31.436501 C 11.940474,20.09759 22.043105,11.32322 32.158766,21.979434 L 37.068811,17.246167 C 37.068811,17.246167 37.088388,32 37.088388,32 L 22.160133,31.978069 C 22.160133,31.978069 26.997745,27.140456 26.997745,27.140456 C 18.528582,18.264221 13.291696,25.230495 11.500037,31.436501 z"
             style="fill:#404040;"/>
          </a>
         </g>
        </svg>
</svg>
