<?xml version="1.0" encoding="UTF-8" standalone="no"?>
<!DOCTYPE svg PUBLIC "-//W3C//DTD SVG 1.1//EN"
 "http://www.w3.org/Graphics/SVG/1.1/DTD/svg11.dtd">
<!-- Generated by graphviz version 2.40.1 (20161225.0304)
 -->
<!-- Title: /workspace/src/game_logic/History.hpp Pages: 1 -->
<!--zoomable 251 -->
<svg id="main" version="1.1" xmlns="http://www.w3.org/2000/svg" xmlns:xlink="http://www.w3.org/1999/xlink" xml:space="preserve" onload="init(evt)">
<style type="text/css"><![CDATA[
.edge:hover path { stroke: red; }
.edge:hover polygon { stroke: red; fill: red; }
]]></style>
<script type="text/javascript"><![CDATA[
var edges = document.getElementsByTagName('g');
if (edges && edges.length) {
  for (var i=0;i<edges.length;i++) {
    if (edges[i].id.substr(0,4)=='edge') {
      edges[i].setAttribute('class','edge');
    }
  }
}
]]></script>
        <defs>
                <circle id="rim" cx="0" cy="0" r="7"/>
                <circle id="rim2" cx="0" cy="0" r="3.5"/>
                <g id="zoomPlus">
                        <use xlink:href="#rim" fill="#404040">
                                <set attributeName="fill" to="#808080" begin="zoomplus.mouseover" end="zoomplus.mouseout"/>
                        </use>
                        <path d="M-4,0h8M0,-4v8" fill="none" stroke="white" stroke-width="1.5" pointer-events="none"/>
                </g>
                <g id="zoomMin">
                        <use xlink:href="#rim" fill="#404040">
                                <set attributeName="fill" to="#808080" begin="zoomminus.mouseover" end="zoomminus.mouseout"/>
                        </use>
                        <path d="M-4,0h8" fill="none" stroke="white" stroke-width="1.5" pointer-events="none"/>
                </g>
                <g id="dirArrow">
                        <path fill="none" stroke="white" stroke-width="1.5" d="M0,-3.0v7 M-2.5,-0.5L0,-3.0L2.5,-0.5"/>
                </g>
               <g id="resetDef">
                       <use xlink:href="#rim2" fill="#404040">
                               <set attributeName="fill" to="#808080" begin="reset.mouseover" end="reset.mouseout"/>
                       </use>
               </g>
        </defs>

<script type="text/javascript">
var viewWidth = 1658;
var viewHeight = 251;
var sectionId = 'dynsection-1';
</script>
<script xlink:href="svgpan.js"/>
<svg id="graph" class="graph">
<g id="viewport">
<title>/workspace/src/game_logic/History.hpp</title>
<!-- Node3 -->
<g id="node1" class="node">
<title>Node3</title>
<polygon fill="#bfbfbf" stroke="#000000" points="1130.5,-212.5 1130.5,-242.5 1250.5,-242.5 1250.5,-212.5 1130.5,-212.5"/>
<text text-anchor="start" x="1138.5" y="-230.5" font-family="Helvetica,sans-Serif" font-size="10.00" fill="#000000">/workspace/src/game</text>
<text text-anchor="middle" x="1190.5" y="-219.5" font-family="Helvetica,sans-Serif" font-size="10.00" fill="#000000">_logic/History.hpp</text>
</g>
<!-- Node4 -->
<g id="node2" class="node">
<title>Node4</title>
<g id="a_node2"><a xlink:href="_abstract_board_8hpp.html" target="_top" xlink:title="/workspace/src/game\l_logic/AbstractBoard.hpp">
<polygon fill="none" stroke="#000000" points="1048.5,-145.5 1048.5,-175.5 1186.5,-175.5 1186.5,-145.5 1048.5,-145.5"/>
<text text-anchor="start" x="1056.5" y="-163.5" font-family="Helvetica,sans-Serif" font-size="10.00" fill="#000000">/workspace/src/game</text>
<text text-anchor="middle" x="1117.5" y="-152.5" font-family="Helvetica,sans-Serif" font-size="10.00" fill="#000000">_logic/AbstractBoard.hpp</text>
</a>
</g>
</g>
<!-- Node3&#45;&gt;Node4 -->
<g id="edge1" class="edge">
<title>Node3&#45;&gt;Node4</title>
<path fill="none" stroke="#191970" d="M1166.526,-205.4965C1155.8733,-195.7193 1143.6007,-184.4554 1133.9993,-175.6432"/>
<polygon fill="#191970" stroke="#191970" points="1164.2011,-208.1134 1173.9352,-212.2967 1168.9344,-202.9562 1164.2011,-208.1134"/>
</g>
<!-- Node20 -->
<g id="node18" class="node">
<title>Node20</title>
<g id="a_node18"><a xlink:href="_history_8cpp.html" target="_top" xlink:title="/workspace/src/game\l_logic/History.cpp">
<polygon fill="none" stroke="#000000" points="1204.5,-145.5 1204.5,-175.5 1324.5,-175.5 1324.5,-145.5 1204.5,-145.5"/>
<text text-anchor="start" x="1212.5" y="-163.5" font-family="Helvetica,sans-Serif" font-size="10.00" fill="#000000">/workspace/src/game</text>
<text text-anchor="middle" x="1264.5" y="-152.5" font-family="Helvetica,sans-Serif" font-size="10.00" fill="#000000">_logic/History.cpp</text>
</a>
</g>
</g>
<!-- Node3&#45;&gt;Node20 -->
<g id="edge19" class="edge">
<title>Node3&#45;&gt;Node20</title>
<path fill="none" stroke="#191970" d="M1214.8024,-205.4965C1225.601,-195.7193 1238.0418,-184.4554 1247.7747,-175.6432"/>
<polygon fill="#191970" stroke="#191970" points="1212.3556,-202.9903 1207.2917,-212.2967 1217.0539,-208.1794 1212.3556,-202.9903"/>
</g>
<!-- Node5 -->
<g id="node3" class="node">
<title>Node5</title>
<g id="a_node3"><a xlink:href="_abstract_board_8cpp.html" target="_top" xlink:title="/workspace/src/game\l_logic/AbstractBoard.cpp">
<polygon fill="none" stroke="#000000" points="454,-78.5 454,-108.5 591,-108.5 591,-78.5 454,-78.5"/>
<text text-anchor="start" x="462" y="-96.5" font-family="Helvetica,sans-Serif" font-size="10.00" fill="#000000">/workspace/src/game</text>
<text text-anchor="middle" x="522.5" y="-85.5" font-family="Helvetica,sans-Serif" font-size="10.00" fill="#000000">_logic/AbstractBoard.cpp</text>
</a>
</g>
</g>
<!-- Node4&#45;&gt;Node5 -->
<g id="edge2" class="edge">
<title>Node4&#45;&gt;Node5</title>
<path fill="none" stroke="#191970" d="M1038.0133,-154.5959C937.133,-146.6232 757.8975,-130.8547 605.5,-109 600.8567,-108.3341 596.0773,-107.5925 591.2685,-106.8045"/>
<polygon fill="#191970" stroke="#191970" points="1037.8822,-158.0963 1048.1255,-155.3897 1038.4301,-151.1178 1037.8822,-158.0963"/>
</g>
<!-- Node6 -->
<g id="node4" class="node">
<title>Node6</title>
<g id="a_node4"><a xlink:href="penguin_2_board_8cpp.html" target="_top" xlink:title="/workspace/src/game\l_logic/penguin/Board.cpp">
<polygon fill="none" stroke="#000000" points="0,-6 0,-36 139,-36 139,-6 0,-6"/>
<text text-anchor="start" x="8" y="-24" font-family="Helvetica,sans-Serif" font-size="10.00" fill="#000000">/workspace/src/game</text>
<text text-anchor="middle" x="69.5" y="-13" font-family="Helvetica,sans-Serif" font-size="10.00" fill="#000000">_logic/penguin/Board.cpp</text>
</a>
</g>
</g>
<!-- Node4&#45;&gt;Node6 -->
<g id="edge3" class="edge">
<title>Node4&#45;&gt;Node6</title>
<path fill="none" stroke="#191970" d="M1037.7632,-157.2987C920.7604,-151.6966 708.8236,-137.8539 638.5,-109 618.0152,-100.595 620.0983,-86.123 599.5,-78 412.4381,-4.2313 346.6924,-75.9668 148.5,-42 139.408,-40.4418 129.8401,-38.321 120.624,-36.0238"/>
<polygon fill="#191970" stroke="#191970" points="1037.938,-160.8106 1048.0911,-157.7836 1038.2663,-153.8183 1037.938,-160.8106"/>
</g>
<!-- Node7 -->
<g id="node5" class="node">
<title>Node7</title>
<g id="a_node5"><a xlink:href="penguin_2_board_8hpp.html" target="_top" xlink:title="/workspace/src/game\l_logic/penguin/Board.hpp">
<polygon fill="none" stroke="#000000" points="647.5,-78.5 647.5,-108.5 787.5,-108.5 787.5,-78.5 647.5,-78.5"/>
<text text-anchor="start" x="655.5" y="-96.5" font-family="Helvetica,sans-Serif" font-size="10.00" fill="#000000">/workspace/src/game</text>
<text text-anchor="middle" x="717.5" y="-85.5" font-family="Helvetica,sans-Serif" font-size="10.00" fill="#000000">_logic/penguin/Board.hpp</text>
</a>
</g>
</g>
<!-- Node4&#45;&gt;Node7 -->
<g id="edge4" class="edge">
<title>Node4&#45;&gt;Node7</title>
<path fill="none" stroke="#191970" d="M1038.2,-147.2173C965.0793,-134.9695 857.5728,-116.9622 787.5478,-105.233"/>
<polygon fill="#191970" stroke="#191970" points="1037.8411,-150.7058 1048.282,-148.906 1038.9976,-143.802 1037.8411,-150.7058"/>
</g>
<!-- Node13 -->
<g id="node11" class="node">
<title>Node13</title>
<g id="a_node11"><a xlink:href="tic__tac__toe_2_board_8cpp.html" target="_top" xlink:title="/workspace/src/game\l_logic/tic_tac_toe/Board.cpp">
<polygon fill="none" stroke="#000000" points="1094,-6 1094,-36 1247,-36 1247,-6 1094,-6"/>
<text text-anchor="start" x="1102" y="-24" font-family="Helvetica,sans-Serif" font-size="10.00" fill="#000000">/workspace/src/game</text>
<text text-anchor="middle" x="1170.5" y="-13" font-family="Helvetica,sans-Serif" font-size="10.00" fill="#000000">_logic/tic_tac_toe/Board.cpp</text>
</a>
</g>
</g>
<!-- Node4&#45;&gt;Node13 -->
<g id="edge11" class="edge">
<title>Node4&#45;&gt;Node13</title>
<path fill="none" stroke="#191970" d="M1097.3679,-137.2429C1085.3232,-120.3621 1074.1846,-97.2124 1084.5,-78 1094.6679,-59.0623 1114.1999,-45.3543 1132.083,-36.1342"/>
<polygon fill="#191970" stroke="#191970" points="1094.7854,-139.6276 1103.6403,-145.445 1100.3458,-135.3753 1094.7854,-139.6276"/>
</g>
<!-- Node14 -->
<g id="node12" class="node">
<title>Node14</title>
<g id="a_node12"><a xlink:href="tic__tac__toe_2_board_8hpp.html" target="_top" xlink:title="/workspace/src/game\l_logic/tic_tac_toe/Board.hpp">
<polygon fill="none" stroke="#000000" points="1093.5,-78.5 1093.5,-108.5 1247.5,-108.5 1247.5,-78.5 1093.5,-78.5"/>
<text text-anchor="start" x="1101.5" y="-96.5" font-family="Helvetica,sans-Serif" font-size="10.00" fill="#000000">/workspace/src/game</text>
<text text-anchor="middle" x="1170.5" y="-85.5" font-family="Helvetica,sans-Serif" font-size="10.00" fill="#000000">_logic/tic_tac_toe/Board.hpp</text>
</a>
</g>
</g>
<!-- Node4&#45;&gt;Node14 -->
<g id="edge12" class="edge">
<title>Node4&#45;&gt;Node14</title>
<path fill="none" stroke="#191970" d="M1135.812,-137.3509C1143.3291,-127.8482 1151.8209,-117.1132 1158.5211,-108.6432"/>
<polygon fill="#191970" stroke="#191970" points="1132.9856,-135.2824 1129.5265,-145.2967 1138.4756,-139.6252 1132.9856,-135.2824"/>
</g>
<!-- Node17 -->
<g id="node15" class="node">
<title>Node17</title>
<g id="a_node15"><a xlink:href="_m_c_t_s_8cpp.html" target="_top" xlink:title="/workspace/src/mcts\l/MCTS.cpp">
<polygon fill="none" stroke="#000000" points="1265.5,-78.5 1265.5,-108.5 1381.5,-108.5 1381.5,-78.5 1265.5,-78.5"/>
<text text-anchor="start" x="1273.5" y="-96.5" font-family="Helvetica,sans-Serif" font-size="10.00" fill="#000000">/workspace/src/mcts</text>
<text text-anchor="middle" x="1323.5" y="-85.5" font-family="Helvetica,sans-Serif" font-size="10.00" fill="#000000">/MCTS.cpp</text>
</a>
</g>
</g>
<!-- Node4&#45;&gt;Node17 -->
<g id="edge16" class="edge">
<title>Node4&#45;&gt;Node17</title>
<path fill="none" stroke="#191970" d="M1173.5323,-142.2759C1205.9985,-131.7165 1246.3869,-118.5805 1277.0679,-108.6017"/>
<polygon fill="#191970" stroke="#191970" points="1172.1575,-139.0425 1163.7304,-145.4639 1174.3226,-145.6993 1172.1575,-139.0425"/>
</g>
<!-- Node18 -->
<g id="node16" class="node">
<title>Node18</title>
<g id="a_node16"><a xlink:href="_m_c_t_s_player_8cpp.html" target="_top" xlink:title="/workspace/src/mcts\l/MCTSPlayer.cpp">
<polygon fill="none" stroke="#000000" points="1399.5,-78.5 1399.5,-108.5 1515.5,-108.5 1515.5,-78.5 1399.5,-78.5"/>
<text text-anchor="start" x="1407.5" y="-96.5" font-family="Helvetica,sans-Serif" font-size="10.00" fill="#000000">/workspace/src/mcts</text>
<text text-anchor="middle" x="1457.5" y="-85.5" font-family="Helvetica,sans-Serif" font-size="10.00" fill="#000000">/MCTSPlayer.cpp</text>
</a>
</g>
</g>
<!-- Node4&#45;&gt;Node18 -->
<g id="edge17" class="edge">
<title>Node4&#45;&gt;Node18</title>
<path fill="none" stroke="#191970" d="M1196.8573,-144.7598C1283.7408,-128.2829 1307.3311,-126.2884 1390.5,-109 1393.4223,-108.3925 1396.4128,-107.7559 1399.4304,-107.1016"/>
<polygon fill="#191970" stroke="#191970" points="1195.9802,-141.3639 1186.8129,-146.6754 1197.2916,-148.24 1195.9802,-141.3639"/>
</g>
<!-- Node19 -->
<g id="node17" class="node">
<title>Node19</title>
<g id="a_node17"><a xlink:href="_tree_8cpp.html" target="_top" xlink:title="/workspace/src/mcts\l/Tree.cpp">
<polygon fill="none" stroke="#000000" points="1533.5,-78.5 1533.5,-108.5 1649.5,-108.5 1649.5,-78.5 1533.5,-78.5"/>
<text text-anchor="start" x="1541.5" y="-96.5" font-family="Helvetica,sans-Serif" font-size="10.00" fill="#000000">/workspace/src/mcts</text>
<text text-anchor="middle" x="1591.5" y="-85.5" font-family="Helvetica,sans-Serif" font-size="10.00" fill="#000000">/Tree.cpp</text>
</a>
</g>
</g>
<!-- Node4&#45;&gt;Node19 -->
<g id="edge18" class="edge">
<title>Node4&#45;&gt;Node19</title>
<path fill="none" stroke="#191970" d="M1196.9797,-144.8601C1342.6736,-123.119 1382.7373,-133.067 1524.5,-109 1527.4427,-108.5004 1530.4496,-107.9506 1533.4801,-107.3651"/>
<polygon fill="#191970" stroke="#191970" points="1196.1288,-141.4491 1186.7671,-146.4098 1197.179,-148.3699 1196.1288,-141.4491"/>
</g>
<!-- Node7&#45;&gt;Node6 -->
<g id="edge5" class="edge">
<title>Node7&#45;&gt;Node6</title>
<path fill="none" stroke="#191970" d="M637.3751,-78.5157C636.0747,-78.3375 634.7823,-78.1654 633.5,-78 419.1275,-50.3482 361.6432,-77.9192 148.5,-42 139.4037,-40.4671 129.8337,-38.3588 120.6168,-36.0661"/>
<polygon fill="#191970" stroke="#191970" points="637.062,-82.007 647.463,-79.9897 638.0741,-75.0806 637.062,-82.007"/>
</g>
<!-- Node8 -->
<g id="node6" class="node">
<title>Node8</title>
<g id="a_node6"><a xlink:href="penguin_2_board_cell_8cpp.html" target="_top" xlink:title="/workspace/src/game\l_logic/penguin/BoardCell.cpp">
<polygon fill="none" stroke="#000000" points="157.5,-6 157.5,-36 315.5,-36 315.5,-6 157.5,-6"/>
<text text-anchor="start" x="165.5" y="-24" font-family="Helvetica,sans-Serif" font-size="10.00" fill="#000000">/workspace/src/game</text>
<text text-anchor="middle" x="236.5" y="-13" font-family="Helvetica,sans-Serif" font-size="10.00" fill="#000000">_logic/penguin/BoardCell.cpp</text>
</a>
</g>
</g>
<!-- Node7&#45;&gt;Node8 -->
<g id="edge6" class="edge">
<title>Node7&#45;&gt;Node8</title>
<path fill="none" stroke="#191970" d="M637.3646,-78.5908C636.0675,-78.3893 634.7786,-78.1922 633.5,-78 496.7744,-57.4441 460.6476,-66.0887 324.5,-42 315.0654,-40.3307 305.1305,-38.2646 295.4695,-36.0856"/>
<polygon fill="#191970" stroke="#191970" points="637.0031,-82.0776 647.4321,-80.2107 638.1152,-75.1664 637.0031,-82.0776"/>
</g>
<!-- Node9 -->
<g id="node7" class="node">
<title>Node9</title>
<g id="a_node7"><a xlink:href="penguin_2_console_game_8cpp.html" target="_top" xlink:title="/workspace/src/game\l_logic/penguin/ConsoleGame.cpp">
<polygon fill="none" stroke="#000000" points="334,-6 334,-36 513,-36 513,-6 334,-6"/>
<text text-anchor="start" x="342" y="-24" font-family="Helvetica,sans-Serif" font-size="10.00" fill="#000000">/workspace/src/game</text>
<text text-anchor="middle" x="423.5" y="-13" font-family="Helvetica,sans-Serif" font-size="10.00" fill="#000000">_logic/penguin/ConsoleGame.cpp</text>
</a>
</g>
</g>
<!-- Node7&#45;&gt;Node9 -->
<g id="edge7" class="edge">
<title>Node7&#45;&gt;Node9</title>
<path fill="none" stroke="#191970" d="M646.5774,-76.0106C597.0147,-63.7885 531.5243,-47.6386 484.339,-36.0028"/>
<polygon fill="#191970" stroke="#191970" points="646.0358,-79.4818 656.583,-78.478 647.7119,-72.6854 646.0358,-79.4818"/>
</g>
<!-- Node10 -->
<g id="node8" class="node">
<title>Node10</title>
<g id="a_node8"><a xlink:href="_human_player_8cpp.html" target="_top" xlink:title="/workspace/src/game\l_logic/penguin/HumanPlayer.cpp">
<polygon fill="none" stroke="#000000" points="531.5,-6 531.5,-36 707.5,-36 707.5,-6 531.5,-6"/>
<text text-anchor="start" x="539.5" y="-24" font-family="Helvetica,sans-Serif" font-size="10.00" fill="#000000">/workspace/src/game</text>
<text text-anchor="middle" x="619.5" y="-13" font-family="Helvetica,sans-Serif" font-size="10.00" fill="#000000">_logic/penguin/HumanPlayer.cpp</text>
</a>
</g>
</g>
<!-- Node7&#45;&gt;Node10 -->
<g id="edge8" class="edge">
<title>Node7&#45;&gt;Node10</title>
<path fill="none" stroke="#191970" d="M688.8534,-72.3074C673.113,-60.6627 653.9648,-46.4969 639.7797,-36.0028"/>
<polygon fill="#191970" stroke="#191970" points="687.0735,-75.3443 697.1943,-78.478 691.2367,-69.7168 687.0735,-75.3443"/>
</g>
<!-- Node11 -->
<g id="node9" class="node">
<title>Node11</title>
<g id="a_node9"><a xlink:href="_penguin_game_8cpp.html" target="_top" xlink:title="/workspace/src/game\l_logic/penguin/PenguinGame.cpp">
<polygon fill="none" stroke="#000000" points="726,-6 726,-36 905,-36 905,-6 726,-6"/>
<text text-anchor="start" x="734" y="-24" font-family="Helvetica,sans-Serif" font-size="10.00" fill="#000000">/workspace/src/game</text>
<text text-anchor="middle" x="815.5" y="-13" font-family="Helvetica,sans-Serif" font-size="10.00" fill="#000000">_logic/penguin/PenguinGame.cpp</text>
</a>
</g>
</g>
<!-- Node7&#45;&gt;Node11 -->
<g id="edge9" class="edge">
<title>Node7&#45;&gt;Node11</title>
<path fill="none" stroke="#191970" d="M746.1466,-72.3074C761.887,-60.6627 781.0352,-46.4969 795.2203,-36.0028"/>
<polygon fill="#191970" stroke="#191970" points="743.7633,-69.7168 737.8057,-78.478 747.9265,-75.3443 743.7633,-69.7168"/>
</g>
<!-- Node12 -->
<g id="node10" class="node">
<title>Node12</title>
<g id="a_node10"><a xlink:href="_print_hex_8cpp.html" target="_top" xlink:title="/workspace/src/game\l_logic/penguin/PrintHex.cpp">
<polygon fill="none" stroke="#000000" points="923.5,-6 923.5,-36 1075.5,-36 1075.5,-6 923.5,-6"/>
<text text-anchor="start" x="931.5" y="-24" font-family="Helvetica,sans-Serif" font-size="10.00" fill="#000000">/workspace/src/game</text>
<text text-anchor="middle" x="999.5" y="-13" font-family="Helvetica,sans-Serif" font-size="10.00" fill="#000000">_logic/penguin/PrintHex.cpp</text>
</a>
</g>
</g>
<!-- Node7&#45;&gt;Node12 -->
<g id="edge10" class="edge">
<title>Node7&#45;&gt;Node12</title>
<path fill="none" stroke="#191970" d="M785.8258,-75.934C833.3297,-63.7211 895.9794,-47.6144 941.1443,-36.0028"/>
<polygon fill="#191970" stroke="#191970" points="784.7441,-72.5982 775.9306,-78.478 786.4871,-79.3777 784.7441,-72.5982"/>
</g>
<!-- Node14&#45;&gt;Node13 -->
<g id="edge13" class="edge">
<title>Node14&#45;&gt;Node13</title>
<path fill="none" stroke="#191970" d="M1170.5,-68.3409C1170.5,-57.5601 1170.5,-45.3309 1170.5,-36.0028"/>
<polygon fill="#191970" stroke="#191970" points="1167.0001,-68.4779 1170.5,-78.478 1174.0001,-68.478 1167.0001,-68.4779"/>
</g>
<!-- Node15 -->
<g id="node13" class="node">
<title>Node15</title>
<g id="a_node13"><a xlink:href="tic__tac__toe_2_console_game_8cpp.html" target="_top" xlink:title="/workspace/src/game\l_logic/tic_tac_toe/Console\lGame.cpp">
<polygon fill="none" stroke="#000000" points="1265,-.5 1265,-41.5 1408,-41.5 1408,-.5 1265,-.5"/>
<text text-anchor="start" x="1273" y="-29.5" font-family="Helvetica,sans-Serif" font-size="10.00" fill="#000000">/workspace/src/game</text>
<text text-anchor="start" x="1273" y="-18.5" font-family="Helvetica,sans-Serif" font-size="10.00" fill="#000000">_logic/tic_tac_toe/Console</text>
<text text-anchor="middle" x="1336.5" y="-7.5" font-family="Helvetica,sans-Serif" font-size="10.00" fill="#000000">Game.cpp</text>
</a>
</g>
</g>
<!-- Node14&#45;&gt;Node15 -->
<g id="edge14" class="edge">
<title>Node14&#45;&gt;Node15</title>
<path fill="none" stroke="#191970" d="M1214.1533,-74.4346C1237.3511,-64.303 1265.8841,-51.8413 1289.5586,-41.5015"/>
<polygon fill="#191970" stroke="#191970" points="1212.6586,-71.2681 1204.8953,-78.478 1215.4603,-77.6829 1212.6586,-71.2681"/>
</g>
<!-- Node16 -->
<g id="node14" class="node">
<title>Node16</title>
<g id="a_node14"><a xlink:href="_tic_tac_toe_8cpp.html" target="_top" xlink:title="/workspace/src/game\l_logic/tic_tac_toe/TicTacToe.cpp">
<polygon fill="none" stroke="#000000" points="1426,-6 1426,-36 1597,-36 1597,-6 1426,-6"/>
<text text-anchor="start" x="1434" y="-24" font-family="Helvetica,sans-Serif" font-size="10.00" fill="#000000">/workspace/src/game</text>
<text text-anchor="middle" x="1511.5" y="-13" font-family="Helvetica,sans-Serif" font-size="10.00" fill="#000000">_logic/tic_tac_toe/TicTacToe.cpp</text>
</a>
</g>
</g>
<!-- Node14&#45;&gt;Node16 -->
<g id="edge15" class="edge">
<title>Node14&#45;&gt;Node16</title>
<path fill="none" stroke="#191970" d="M1254.0595,-76.3859C1301.9385,-66.5025 1363.1355,-53.7396 1417.5,-42 1426.3263,-40.094 1435.6115,-38.0578 1444.7693,-36.031"/>
<polygon fill="#191970" stroke="#191970" points="1253.1389,-73.002 1244.052,-78.4498 1254.5529,-79.8578 1253.1389,-73.002"/>
</g>
</g>
</svg>
        <g id="navigator" transform="translate(0 0)" fill="#404254">
                <rect fill="#f2f5e9" fill-opacity="0.5" stroke="#606060" stroke-width=".5" x="0" y="0" width="60" height="60"/>
                <use id="zoomplus" xlink:href="#zoomPlus" x="17" y="9" onmousedown="handleZoom(evt,'in')"/>
                <use id="zoomminus" xlink:href="#zoomMin" x="42" y="9" onmousedown="handleZoom(evt,'out')"/>
                <use id="reset" xlink:href="#resetDef" x="30" y="36" onmousedown="handleReset()"/>
                <g id="arrowUp" xlink:href="#dirArrow" transform="translate(30 24)" onmousedown="handlePan(0,-1)">
                  <use xlink:href="#rim" fill="#404040">
                        <set attributeName="fill" to="#808080" begin="arrowUp.mouseover" end="arrowUp.mouseout"/>
                  </use>
                  <path fill="none" stroke="white" stroke-width="1.5" d="M0,-3.0v7 M-2.5,-0.5L0,-3.0L2.5,-0.5"/>
                </g>
                <g id="arrowRight" xlink:href="#dirArrow" transform="rotate(90) translate(36 -43)" onmousedown="handlePan(1,0)">
                  <use xlink:href="#rim" fill="#404040">
                        <set attributeName="fill" to="#808080" begin="arrowRight.mouseover" end="arrowRight.mouseout"/>
                  </use>
                  <path fill="none" stroke="white" stroke-width="1.5" d="M0,-3.0v7 M-2.5,-0.5L0,-3.0L2.5,-0.5"/>
                </g>
                <g id="arrowDown" xlink:href="#dirArrow" transform="rotate(180) translate(-30 -48)" onmousedown="handlePan(0,1)">
                  <use xlink:href="#rim" fill="#404040">
                        <set attributeName="fill" to="#808080" begin="arrowDown.mouseover" end="arrowDown.mouseout"/>
                  </use>
                  <path fill="none" stroke="white" stroke-width="1.5" d="M0,-3.0v7 M-2.5,-0.5L0,-3.0L2.5,-0.5"/>
                </g>
                <g id="arrowLeft" xlink:href="#dirArrow" transform="rotate(270) translate(-36 17)" onmousedown="handlePan(-1,0)">
                  <use xlink:href="#rim" fill="#404040">
                        <set attributeName="fill" to="#808080" begin="arrowLeft.mouseover" end="arrowLeft.mouseout"/>
                  </use>
                  <path fill="none" stroke="white" stroke-width="1.5" d="M0,-3.0v7 M-2.5,-0.5L0,-3.0L2.5,-0.5"/>
                </g>
        </g>
        <svg viewBox="0 0 15 15" width="100%" height="30px" preserveAspectRatio="xMaxYMin meet">
         <g id="arrow_out" transform="scale(0.3 0.3)">
          <a xlink:href="_history_8hpp__dep__incl_org.svg" target="_base">
           <rect id="button" ry="5" rx="5" y="6" x="6" height="38" width="38"
                fill="#f2f5e9" fill-opacity="0.5" stroke="#606060" stroke-width="1.0"/>
           <path id="arrow"
             d="M 11.500037,31.436501 C 11.940474,20.09759 22.043105,11.32322 32.158766,21.979434 L 37.068811,17.246167 C 37.068811,17.246167 37.088388,32 37.088388,32 L 22.160133,31.978069 C 22.160133,31.978069 26.997745,27.140456 26.997745,27.140456 C 18.528582,18.264221 13.291696,25.230495 11.500037,31.436501 z"
             style="fill:#404040;"/>
          </a>
         </g>
        </svg>
</svg>
