<?xml version="1.0" encoding="UTF-8" standalone="no"?>
<!DOCTYPE svg PUBLIC "-//W3C//DTD SVG 1.1//EN"
 "http://www.w3.org/Graphics/SVG/1.1/DTD/svg11.dtd">
<!-- Generated by graphviz version 2.40.1 (20161225.0304)
 -->
<!-- Title: /workspace/src/mcts/MCTSPlayer.hpp Pages: 1 -->
<svg width="791pt" height="218pt"
 viewBox="0.00 0.00 791.00 218.00" xmlns="http://www.w3.org/2000/svg" xmlns:xlink="http://www.w3.org/1999/xlink">
<g id="graph0" class="graph" transform="scale(1 1) rotate(0) translate(4 214)">
<title>/workspace/src/mcts/MCTSPlayer.hpp</title>
<!-- Node0 -->
<g id="node1" class="node">
<title>Node0</title>
<polygon fill="#bfbfbf" stroke="#000000" points="300,-179.5 300,-209.5 416,-209.5 416,-179.5 300,-179.5"/>
<text text-anchor="start" x="308" y="-197.5" font-family="Helvetica,sans-Serif" font-size="10.00" fill="#000000">/workspace/src/mcts</text>
<text text-anchor="middle" x="358" y="-186.5" font-family="Helvetica,sans-Serif" font-size="10.00" fill="#000000">/MCTSPlayer.hpp</text>
</g>
<!-- Node1 -->
<g id="node2" class="node">
<title>Node1</title>
<g id="a_node2"><a xlink:href="_abstract_board_cell_8hpp.html" target="_top" xlink:title="../game_logic/AbstractBoard\lCell.hpp">
<polygon fill="none" stroke="#000000" points="0,-56.5 0,-86.5 154,-86.5 154,-56.5 0,-56.5"/>
<text text-anchor="start" x="8" y="-74.5" font-family="Helvetica,sans-Serif" font-size="10.00" fill="#000000">../game_logic/AbstractBoard</text>
<text text-anchor="middle" x="77" y="-63.5" font-family="Helvetica,sans-Serif" font-size="10.00" fill="#000000">Cell.hpp</text>
</a>
</g>
</g>
<!-- Node0&#45;&gt;Node1 -->
<g id="edge1" class="edge">
<title>Node0&#45;&gt;Node1</title>
<path fill="none" stroke="#191970" d="M323.5439,-179.4178C272.4232,-157.0411 176.5238,-115.0638 120.5882,-90.5795"/>
<polygon fill="#191970" stroke="#191970" points="121.8623,-87.3167 111.298,-86.513 119.0553,-93.7292 121.8623,-87.3167"/>
</g>
<!-- Node2 -->
<g id="node3" class="node">
<title>Node2</title>
<g id="a_node3"><a xlink:href="_abstract_game_8hpp.html" target="_top" xlink:title="../game_logic/AbstractGame.hpp">
<polygon fill="none" stroke="#000000" points="172,-62 172,-81 348,-81 348,-62 172,-62"/>
<text text-anchor="middle" x="260" y="-69" font-family="Helvetica,sans-Serif" font-size="10.00" fill="#000000">../game_logic/AbstractGame.hpp</text>
</a>
</g>
</g>
<!-- Node0&#45;&gt;Node2 -->
<g id="edge2" class="edge">
<title>Node0&#45;&gt;Node2</title>
<path fill="none" stroke="#191970" d="M345.9833,-179.4178C327.775,-156.5645 293.2775,-113.2667 273.9743,-89.0392"/>
<polygon fill="#191970" stroke="#191970" points="276.5772,-86.6893 267.6083,-81.0493 271.1024,-91.0514 276.5772,-86.6893"/>
</g>
<!-- Node5 -->
<g id="node6" class="node">
<title>Node5</title>
<g id="a_node6"><a xlink:href="_abstract_player_8hpp.html" target="_top" xlink:title="../game_logic/AbstractPlayer.hpp">
<polygon fill="none" stroke="#000000" points="607,-62 607,-81 783,-81 783,-62 607,-62"/>
<text text-anchor="middle" x="695" y="-69" font-family="Helvetica,sans-Serif" font-size="10.00" fill="#000000">../game_logic/AbstractPlayer.hpp</text>
</a>
</g>
</g>
<!-- Node0&#45;&gt;Node5 -->
<g id="edge5" class="edge">
<title>Node0&#45;&gt;Node5</title>
<path fill="none" stroke="#191970" d="M399.3228,-179.4178C466.0564,-155.061 596.4175,-107.4812 659.3375,-84.5163"/>
<polygon fill="#191970" stroke="#191970" points="660.6428,-87.7658 668.8366,-81.0493 658.2427,-81.1901 660.6428,-87.7658"/>
</g>
<!-- Node6 -->
<g id="node7" class="node">
<title>Node6</title>
<g id="a_node7"><a xlink:href="_tree_8hpp.html" target="_top" xlink:title="Tree.hpp">
<polygon fill="none" stroke="#000000" points="396,-123.5 396,-142.5 454,-142.5 454,-123.5 396,-123.5"/>
<text text-anchor="middle" x="425" y="-130.5" font-family="Helvetica,sans-Serif" font-size="10.00" fill="#000000">Tree.hpp</text>
</a>
</g>
</g>
<!-- Node0&#45;&gt;Node6 -->
<g id="edge6" class="edge">
<title>Node0&#45;&gt;Node6</title>
<path fill="none" stroke="#191970" d="M374.5618,-179.2977C384.3465,-170.3163 396.7474,-158.9334 406.8043,-149.702"/>
<polygon fill="#191970" stroke="#191970" points="409.2722,-152.1876 414.2725,-142.8469 404.5387,-147.0307 409.2722,-152.1876"/>
</g>
<!-- Node3 -->
<g id="node4" class="node">
<title>Node3</title>
<polygon fill="none" stroke="#bfbfbf" points="236.5,-.5 236.5,-19.5 283.5,-19.5 283.5,-.5 236.5,-.5"/>
<text text-anchor="middle" x="260" y="-7.5" font-family="Helvetica,sans-Serif" font-size="10.00" fill="#000000">vector</text>
</g>
<!-- Node2&#45;&gt;Node3 -->
<g id="edge3" class="edge">
<title>Node2&#45;&gt;Node3</title>
<path fill="none" stroke="#191970" d="M260,-61.8906C260,-53.3657 260,-40.6392 260,-29.9235"/>
<polygon fill="#191970" stroke="#191970" points="263.5001,-29.7448 260,-19.7449 256.5001,-29.7449 263.5001,-29.7448"/>
</g>
<!-- Node4 -->
<g id="node5" class="node">
<title>Node4</title>
<g id="a_node5"><a xlink:href="_move_8hpp.html" target="_top" xlink:title="utils/Move.hpp">
<polygon fill="none" stroke="#000000" points="418,-.5 418,-19.5 506,-19.5 506,-.5 418,-.5"/>
<text text-anchor="middle" x="462" y="-7.5" font-family="Helvetica,sans-Serif" font-size="10.00" fill="#000000">utils/Move.hpp</text>
</a>
</g>
</g>
<!-- Node2&#45;&gt;Node4 -->
<g id="edge4" class="edge">
<title>Node2&#45;&gt;Node4</title>
<path fill="none" stroke="#191970" d="M291.5625,-61.8906C326.3985,-51.2846 382.595,-34.1753 420.8588,-22.5257"/>
<polygon fill="#191970" stroke="#191970" points="422.1121,-25.8028 430.6591,-19.5419 420.0733,-19.1063 422.1121,-25.8028"/>
</g>
<!-- Node6&#45;&gt;Node1 -->
<g id="edge12" class="edge">
<title>Node6&#45;&gt;Node1</title>
<path fill="none" stroke="#191970" d="M395.9147,-127.9376C349.2575,-119.8072 254.5369,-103.2621 164.2063,-87.2106"/>
<polygon fill="#191970" stroke="#191970" points="164.8105,-83.7632 154.3522,-85.4584 163.585,-90.6551 164.8105,-83.7632"/>
</g>
<!-- Node6&#45;&gt;Node2 -->
<g id="edge11" class="edge">
<title>Node6&#45;&gt;Node2</title>
<path fill="none" stroke="#191970" d="M399.2188,-123.3906C371.248,-112.9652 326.4181,-96.2559 295.214,-84.6252"/>
<polygon fill="#191970" stroke="#191970" points="296.1929,-81.2549 285.6002,-81.0419 293.7481,-87.8141 296.1929,-81.2549"/>
</g>
<!-- Node6&#45;&gt;Node4 -->
<g id="edge13" class="edge">
<title>Node6&#45;&gt;Node4</title>
<path fill="none" stroke="#191970" d="M454.1297,-127.1893C489.9337,-119.387 547.4985,-104.4671 560,-87 568.0188,-75.7962 567.3881,-67.6294 560,-56 549.9231,-40.1382 532.7686,-29.6497 515.6021,-22.7567"/>
<polygon fill="#191970" stroke="#191970" points="516.7027,-19.4326 506.1089,-19.286 514.299,-26.007 516.7027,-19.4326"/>
</g>
<!-- Node6&#45;&gt;Node5 -->
<g id="edge10" class="edge">
<title>Node6&#45;&gt;Node5</title>
<path fill="none" stroke="#191970" d="M454.1513,-126.36C499.4311,-116.0462 587.2857,-96.0349 643.4445,-83.2432"/>
<polygon fill="#191970" stroke="#191970" points="644.2282,-86.6544 653.2012,-81.0208 642.6736,-79.8292 644.2282,-86.6544"/>
</g>
<!-- Node7 -->
<g id="node8" class="node">
<title>Node7</title>
<polygon fill="none" stroke="#bfbfbf" points="366,-62 366,-81 416,-81 416,-62 366,-62"/>
<text text-anchor="middle" x="391" y="-69" font-family="Helvetica,sans-Serif" font-size="10.00" fill="#000000">chrono</text>
</g>
<!-- Node6&#45;&gt;Node7 -->
<g id="edge7" class="edge">
<title>Node6&#45;&gt;Node7</title>
<path fill="none" stroke="#191970" d="M419.6875,-123.3906C414.7761,-114.5068 407.3421,-101.0601 401.2725,-90.0811"/>
<polygon fill="#191970" stroke="#191970" points="404.2888,-88.3031 396.3874,-81.2449 398.1627,-91.6899 404.2888,-88.3031"/>
</g>
<!-- Node8 -->
<g id="node9" class="node">
<title>Node8</title>
<polygon fill="none" stroke="#bfbfbf" points="434.5,-62 434.5,-81 485.5,-81 485.5,-62 434.5,-62"/>
<text text-anchor="middle" x="460" y="-69" font-family="Helvetica,sans-Serif" font-size="10.00" fill="#000000">math.h</text>
</g>
<!-- Node6&#45;&gt;Node8 -->
<g id="edge8" class="edge">
<title>Node6&#45;&gt;Node8</title>
<path fill="none" stroke="#191970" d="M430.4688,-123.3906C435.5246,-114.5068 443.1772,-101.0601 449.4254,-90.0811"/>
<polygon fill="#191970" stroke="#191970" points="452.5498,-91.6672 454.4541,-81.2449 446.466,-88.2048 452.5498,-91.6672"/>
</g>
<!-- Node9 -->
<g id="node10" class="node">
<title>Node9</title>
<polygon fill="none" stroke="#bfbfbf" points="503.5,-62 503.5,-81 550.5,-81 550.5,-62 503.5,-62"/>
<text text-anchor="middle" x="527" y="-69" font-family="Helvetica,sans-Serif" font-size="10.00" fill="#000000">queue</text>
</g>
<!-- Node6&#45;&gt;Node9 -->
<g id="edge9" class="edge">
<title>Node6&#45;&gt;Node9</title>
<path fill="none" stroke="#191970" d="M440.9375,-123.3906C457.4051,-113.4616 483.3258,-97.833 502.4204,-86.3201"/>
<polygon fill="#191970" stroke="#191970" points="504.4178,-89.2027 511.1744,-81.0419 500.8034,-83.2081 504.4178,-89.2027"/>
</g>
</g>
</svg>
