<?xml version="1.0" encoding="UTF-8" standalone="no"?>
<!DOCTYPE svg PUBLIC "-//W3C//DTD SVG 1.1//EN"
 "http://www.w3.org/Graphics/SVG/1.1/DTD/svg11.dtd">
<!-- Generated by graphviz version 2.40.1 (20161225.0304)
 -->
<!-- Title: /workspace/src/mcts/MCTSPlayer.cpp Pages: 1 -->
<svg width="1220pt" height="296pt"
 viewBox="0.00 0.00 1220.00 296.00" xmlns="http://www.w3.org/2000/svg" xmlns:xlink="http://www.w3.org/1999/xlink">
<g id="graph0" class="graph" transform="scale(1 1) rotate(0) translate(4 292)">
<title>/workspace/src/mcts/MCTSPlayer.cpp</title>
<!-- Node0 -->
<g id="node1" class="node">
<title>Node0</title>
<polygon fill="#bfbfbf" stroke="#000000" points="433.5,-257.5 433.5,-287.5 549.5,-287.5 549.5,-257.5 433.5,-257.5"/>
<text text-anchor="start" x="441.5" y="-275.5" font-family="Helvetica,sans-Serif" font-size="10.00" fill="#000000">/workspace/src/mcts</text>
<text text-anchor="middle" x="491.5" y="-264.5" font-family="Helvetica,sans-Serif" font-size="10.00" fill="#000000">/MCTSPlayer.cpp</text>
</g>
<!-- Node1 -->
<g id="node2" class="node">
<title>Node1</title>
<polygon fill="none" stroke="#bfbfbf" points="82,-196 82,-215 147,-215 147,-196 82,-196"/>
<text text-anchor="middle" x="114.5" y="-203" font-family="Helvetica,sans-Serif" font-size="10.00" fill="#000000">functional</text>
</g>
<!-- Node0&#45;&gt;Node1 -->
<g id="edge1" class="edge">
<title>Node0&#45;&gt;Node1</title>
<path fill="none" stroke="#191970" d="M433.2853,-267.1378C365.8913,-260.1077 251.9234,-245.6748 156.5,-221 153.5112,-220.2272 150.4388,-219.321 147.3808,-218.3415"/>
<polygon fill="#191970" stroke="#191970" points="148.376,-214.9826 137.7813,-215.0366 146.0972,-221.6013 148.376,-214.9826"/>
</g>
<!-- Node2 -->
<g id="node3" class="node">
<title>Node2</title>
<polygon fill="none" stroke="#bfbfbf" points="165.5,-196 165.5,-215 229.5,-215 229.5,-196 165.5,-196"/>
<text text-anchor="middle" x="197.5" y="-203" font-family="Helvetica,sans-Serif" font-size="10.00" fill="#000000">algorithm</text>
</g>
<!-- Node0&#45;&gt;Node2 -->
<g id="edge2" class="edge">
<title>Node0&#45;&gt;Node2</title>
<path fill="none" stroke="#191970" d="M433.3341,-263.3955C381.6367,-254.6583 304.2814,-239.996 238.5,-221 235.7584,-220.2083 232.9402,-219.3159 230.1267,-218.3694"/>
<polygon fill="#191970" stroke="#191970" points="231.292,-215.0691 220.6973,-215.0101 228.9428,-221.6632 231.292,-215.0691"/>
</g>
<!-- Node3 -->
<g id="node4" class="node">
<title>Node3</title>
<polygon fill="none" stroke="#bfbfbf" points="247.5,-196 247.5,-215 303.5,-215 303.5,-196 247.5,-196"/>
<text text-anchor="middle" x="275.5" y="-203" font-family="Helvetica,sans-Serif" font-size="10.00" fill="#000000">assert.h</text>
</g>
<!-- Node0&#45;&gt;Node3 -->
<g id="edge3" class="edge">
<title>Node0&#45;&gt;Node3</title>
<path fill="none" stroke="#191970" d="M437.1339,-257.404C402.6758,-247.5909 357.2643,-234.2062 317.5,-221 315.112,-220.2069 312.6562,-219.3665 310.188,-218.5034"/>
<polygon fill="#191970" stroke="#191970" points="311.3187,-215.1907 300.7241,-215.1146 308.9588,-221.781 311.3187,-215.1907"/>
</g>
<!-- Node4 -->
<g id="node5" class="node">
<title>Node4</title>
<g id="a_node5"><a xlink:href="_abstract_board_8hpp.html" target="_top" xlink:title="../game_logic/AbstractBoard.hpp">
<polygon fill="none" stroke="#000000" points="12,-129 12,-148 187,-148 187,-129 12,-129"/>
<text text-anchor="middle" x="99.5" y="-136" font-family="Helvetica,sans-Serif" font-size="10.00" fill="#000000">../game_logic/AbstractBoard.hpp</text>
</a>
</g>
</g>
<!-- Node0&#45;&gt;Node4 -->
<g id="edge4" class="edge">
<title>Node0&#45;&gt;Node4</title>
<path fill="none" stroke="#191970" d="M438.5537,-257.4491C411.5878,-248.6987 378.8173,-236.3538 351.5,-221 332.1978,-210.1511 332.395,-199.719 312.5,-190 271.7619,-170.0988 222.7933,-157.5658 182.0855,-149.8538"/>
<polygon fill="#191970" stroke="#191970" points="182.6607,-146.401 172.1939,-148.0431 181.4002,-153.2866 182.6607,-146.401"/>
</g>
<!-- Node9 -->
<g id="node10" class="node">
<title>Node9</title>
<g id="a_node10"><a xlink:href="_tree_8hpp.html" target="_top" xlink:title="Tree.hpp">
<polygon fill="none" stroke="#000000" points="424.5,-129 424.5,-148 482.5,-148 482.5,-129 424.5,-129"/>
<text text-anchor="middle" x="453.5" y="-136" font-family="Helvetica,sans-Serif" font-size="10.00" fill="#000000">Tree.hpp</text>
</a>
</g>
</g>
<!-- Node0&#45;&gt;Node9 -->
<g id="edge9" class="edge">
<title>Node0&#45;&gt;Node9</title>
<path fill="none" stroke="#191970" d="M485.7465,-257.3044C481.999,-247.1166 477.1468,-233.354 473.5,-221 467.2622,-199.8685 461.4892,-175.2823 457.7654,-158.483"/>
<polygon fill="#191970" stroke="#191970" points="461.0816,-157.2615 455.5343,-148.235 454.2418,-158.7507 461.0816,-157.2615"/>
</g>
<!-- Node16 -->
<g id="node17" class="node">
<title>Node16</title>
<g id="a_node17"><a xlink:href="_m_c_t_s_8hpp.html" target="_top" xlink:title="MCTS.hpp">
<polygon fill="none" stroke="#000000" points="360,-196 360,-215 425,-215 425,-196 360,-196"/>
<text text-anchor="middle" x="392.5" y="-203" font-family="Helvetica,sans-Serif" font-size="10.00" fill="#000000">MCTS.hpp</text>
</a>
</g>
</g>
<!-- Node0&#45;&gt;Node16 -->
<g id="edge19" class="edge">
<title>Node0&#45;&gt;Node16</title>
<path fill="none" stroke="#191970" d="M469.0354,-257.2967C452.8619,-246.351 431.1339,-231.6462 414.9612,-220.701"/>
<polygon fill="#191970" stroke="#191970" points="416.8619,-217.7612 406.6185,-215.055 412.9386,-223.5584 416.8619,-217.7612"/>
</g>
<!-- Node17 -->
<g id="node18" class="node">
<title>Node17</title>
<g id="a_node18"><a xlink:href="tic__tac__toe_2_board_cell_8hpp.html" target="_top" xlink:title="../game_logic/tic_tac\l_toe/BoardCell.hpp">
<polygon fill="none" stroke="#000000" points="912,-190.5 912,-220.5 1029,-220.5 1029,-190.5 912,-190.5"/>
<text text-anchor="start" x="920" y="-208.5" font-family="Helvetica,sans-Serif" font-size="10.00" fill="#000000">../game_logic/tic_tac</text>
<text text-anchor="middle" x="970.5" y="-197.5" font-family="Helvetica,sans-Serif" font-size="10.00" fill="#000000">_toe/BoardCell.hpp</text>
</a>
</g>
</g>
<!-- Node0&#45;&gt;Node17 -->
<g id="edge22" class="edge">
<title>Node0&#45;&gt;Node17</title>
<path fill="none" stroke="#191970" d="M549.6269,-267.0561C627.5463,-259.3506 770.3139,-243.8046 902.0978,-220.959"/>
<polygon fill="#191970" stroke="#191970" points="902.7234,-224.4028 911.9697,-219.2301 901.5158,-217.5077 902.7234,-224.4028"/>
</g>
<!-- Node21 -->
<g id="node22" class="node">
<title>Node21</title>
<g id="a_node22"><a xlink:href="_player_8hpp.html" target="_top" xlink:title="../game_logic/tic_tac\l_toe/Player.hpp">
<polygon fill="none" stroke="#000000" points="634,-190.5 634,-220.5 751,-220.5 751,-190.5 634,-190.5"/>
<text text-anchor="start" x="642" y="-208.5" font-family="Helvetica,sans-Serif" font-size="10.00" fill="#000000">../game_logic/tic_tac</text>
<text text-anchor="middle" x="692.5" y="-197.5" font-family="Helvetica,sans-Serif" font-size="10.00" fill="#000000">_toe/Player.hpp</text>
</a>
</g>
</g>
<!-- Node0&#45;&gt;Node21 -->
<g id="edge27" class="edge">
<title>Node0&#45;&gt;Node21</title>
<path fill="none" stroke="#191970" d="M536.6083,-257.4639C566.5031,-247.499 605.9073,-234.3642 637.6193,-223.7936"/>
<polygon fill="#191970" stroke="#191970" points="638.8149,-227.0844 647.1949,-220.6017 636.6013,-220.4436 638.8149,-227.0844"/>
</g>
<!-- Node24 -->
<g id="node25" class="node">
<title>Node24</title>
<g id="a_node25"><a xlink:href="penguin_2_board_cell_8hpp.html" target="_top" xlink:title="../game_logic/penguin\l/BoardCell.hpp">
<polygon fill="none" stroke="#000000" points="1047.5,-190.5 1047.5,-220.5 1171.5,-220.5 1171.5,-190.5 1047.5,-190.5"/>
<text text-anchor="start" x="1055.5" y="-208.5" font-family="Helvetica,sans-Serif" font-size="10.00" fill="#000000">../game_logic/penguin</text>
<text text-anchor="middle" x="1109.5" y="-197.5" font-family="Helvetica,sans-Serif" font-size="10.00" fill="#000000">/BoardCell.hpp</text>
</a>
</g>
</g>
<!-- Node0&#45;&gt;Node24 -->
<g id="edge31" class="edge">
<title>Node0&#45;&gt;Node24</title>
<path fill="none" stroke="#191970" d="M549.674,-269.3432C648.119,-263.4936 853.9349,-249.0755 1037.1528,-221.0962"/>
<polygon fill="#191970" stroke="#191970" points="1037.8935,-224.5234 1047.2421,-219.5381 1036.825,-217.6054 1037.8935,-224.5234"/>
</g>
<!-- Node25 -->
<g id="node26" class="node">
<title>Node25</title>
<g id="a_node26"><a xlink:href="_human_player_8hpp.html" target="_top" xlink:title="../game_logic/penguin\l/HumanPlayer.hpp">
<polygon fill="none" stroke="#000000" points="582.5,-123.5 582.5,-153.5 706.5,-153.5 706.5,-123.5 582.5,-123.5"/>
<text text-anchor="start" x="590.5" y="-141.5" font-family="Helvetica,sans-Serif" font-size="10.00" fill="#000000">../game_logic/penguin</text>
<text text-anchor="middle" x="644.5" y="-130.5" font-family="Helvetica,sans-Serif" font-size="10.00" fill="#000000">/HumanPlayer.hpp</text>
</a>
</g>
</g>
<!-- Node0&#45;&gt;Node25 -->
<g id="edge34" class="edge">
<title>Node0&#45;&gt;Node25</title>
<path fill="none" stroke="#191970" d="M528.2859,-257.4501C547.0279,-248.6286 569.4048,-236.2189 586.5,-221 605.147,-204.3995 621.0159,-180.6961 631.4161,-162.9528"/>
<polygon fill="#191970" stroke="#191970" points="634.7234,-164.2163 636.6144,-153.7916 628.6351,-160.7617 634.7234,-164.2163"/>
</g>
<!-- Node26 -->
<g id="node27" class="node">
<title>Node26</title>
<g id="a_node27"><a xlink:href="_penguin_pawn_8hpp.html" target="_top" xlink:title="../game_logic/penguin\l/PenguinPawn.hpp">
<polygon fill="none" stroke="#000000" points="769.5,-190.5 769.5,-220.5 893.5,-220.5 893.5,-190.5 769.5,-190.5"/>
<text text-anchor="start" x="777.5" y="-208.5" font-family="Helvetica,sans-Serif" font-size="10.00" fill="#000000">../game_logic/penguin</text>
<text text-anchor="middle" x="831.5" y="-197.5" font-family="Helvetica,sans-Serif" font-size="10.00" fill="#000000">/PenguinPawn.hpp</text>
</a>
</g>
</g>
<!-- Node0&#45;&gt;Node26 -->
<g id="edge37" class="edge">
<title>Node0&#45;&gt;Node26</title>
<path fill="none" stroke="#191970" d="M549.5686,-261.8299C601.8702,-252.1179 681.1198,-237.1517 759.1747,-221.2457"/>
<polygon fill="#191970" stroke="#191970" points="760.0849,-224.6321 769.1812,-219.1999 758.6827,-217.7739 760.0849,-224.6321"/>
</g>
<!-- Node27 -->
<g id="node28" class="node">
<title>Node27</title>
<g id="a_node28"><a xlink:href="_m_c_t_s_player_8hpp.html" target="_top" xlink:title="MCTSPlayer.hpp">
<polygon fill="none" stroke="#000000" points="482,-196 482,-215 577,-215 577,-196 482,-196"/>
<text text-anchor="middle" x="529.5" y="-203" font-family="Helvetica,sans-Serif" font-size="10.00" fill="#000000">MCTSPlayer.hpp</text>
</a>
</g>
</g>
<!-- Node0&#45;&gt;Node27 -->
<g id="edge39" class="edge">
<title>Node0&#45;&gt;Node27</title>
<path fill="none" stroke="#191970" d="M500.1228,-257.2967C505.756,-247.3645 513.1447,-234.3371 519.1027,-223.8321"/>
<polygon fill="#191970" stroke="#191970" points="522.1917,-225.4801 524.0808,-215.055 516.1029,-222.0266 522.1917,-225.4801"/>
</g>
<!-- Node5 -->
<g id="node6" class="node">
<title>Node5</title>
<polygon fill="none" stroke="#bfbfbf" points="235,-.5 235,-19.5 282,-19.5 282,-.5 235,-.5"/>
<text text-anchor="middle" x="258.5" y="-7.5" font-family="Helvetica,sans-Serif" font-size="10.00" fill="#000000">vector</text>
</g>
<!-- Node4&#45;&gt;Node5 -->
<g id="edge5" class="edge">
<title>Node4&#45;&gt;Node5</title>
<path fill="none" stroke="#191970" d="M98.8833,-128.9895C98.3264,-112.0794 99.6731,-76.6253 118.5,-56 120.3773,-53.9434 184.4824,-33.3993 225.2868,-20.4713"/>
<polygon fill="#191970" stroke="#191970" points="226.3786,-23.7969 234.857,-17.4434 224.267,-17.123 226.3786,-23.7969"/>
</g>
<!-- Node6 -->
<g id="node7" class="node">
<title>Node6</title>
<g id="a_node7"><a xlink:href="_history_8hpp.html" target="_top" xlink:title="History.hpp">
<polygon fill="none" stroke="#000000" points="0,-62 0,-81 71,-81 71,-62 0,-62"/>
<text text-anchor="middle" x="35.5" y="-69" font-family="Helvetica,sans-Serif" font-size="10.00" fill="#000000">History.hpp</text>
</a>
</g>
</g>
<!-- Node4&#45;&gt;Node6 -->
<g id="edge6" class="edge">
<title>Node4&#45;&gt;Node6</title>
<path fill="none" stroke="#191970" d="M90.3304,-128.9005C80.2551,-118.353 63.8793,-101.2096 51.6431,-88.3998"/>
<polygon fill="#191970" stroke="#191970" points="54.0909,-85.8952 44.6526,-81.0817 49.0291,-90.7304 54.0909,-85.8952"/>
</g>
<!-- Node7 -->
<g id="node8" class="node">
<title>Node7</title>
<polygon fill="none" stroke="#bfbfbf" points="14,-.5 14,-19.5 57,-19.5 57,-.5 14,-.5"/>
<text text-anchor="middle" x="35.5" y="-7.5" font-family="Helvetica,sans-Serif" font-size="10.00" fill="#000000">stack</text>
</g>
<!-- Node6&#45;&gt;Node7 -->
<g id="edge7" class="edge">
<title>Node6&#45;&gt;Node7</title>
<path fill="none" stroke="#191970" d="M35.5,-61.8906C35.5,-53.3657 35.5,-40.6392 35.5,-29.9235"/>
<polygon fill="#191970" stroke="#191970" points="39.0001,-29.7448 35.5,-19.7449 32.0001,-29.7449 39.0001,-29.7448"/>
</g>
<!-- Node8 -->
<g id="node9" class="node">
<title>Node8</title>
<g id="a_node9"><a xlink:href="_move_8hpp.html" target="_top" xlink:title="utils/Move.hpp">
<polygon fill="none" stroke="#000000" points="128.5,-.5 128.5,-19.5 216.5,-19.5 216.5,-.5 128.5,-.5"/>
<text text-anchor="middle" x="172.5" y="-7.5" font-family="Helvetica,sans-Serif" font-size="10.00" fill="#000000">utils/Move.hpp</text>
</a>
</g>
</g>
<!-- Node6&#45;&gt;Node8 -->
<g id="edge8" class="edge">
<title>Node6&#45;&gt;Node8</title>
<path fill="none" stroke="#191970" d="M56.9063,-61.8906C79.7283,-51.6457 116.0679,-35.3326 141.9057,-23.7339"/>
<polygon fill="#191970" stroke="#191970" points="143.5545,-26.8303 151.2441,-19.5419 140.6877,-20.4443 143.5545,-26.8303"/>
</g>
<!-- Node9&#45;&gt;Node8 -->
<g id="edge18" class="edge">
<title>Node9&#45;&gt;Node8</title>
<path fill="none" stroke="#191970" d="M431.0283,-128.9977C409.6264,-119.5516 376.8585,-104.043 350.5,-87 332.1969,-75.1654 331.6185,-66.4663 312.5,-56 284.9183,-40.9006 251.5509,-29.6968 224.3108,-22.1284"/>
<polygon fill="#191970" stroke="#191970" points="225.1406,-18.7272 214.5743,-19.5041 223.3188,-25.486 225.1406,-18.7272"/>
</g>
<!-- Node10 -->
<g id="node11" class="node">
<title>Node10</title>
<polygon fill="none" stroke="#bfbfbf" points="359.5,-62 359.5,-81 409.5,-81 409.5,-62 359.5,-62"/>
<text text-anchor="middle" x="384.5" y="-69" font-family="Helvetica,sans-Serif" font-size="10.00" fill="#000000">chrono</text>
</g>
<!-- Node9&#45;&gt;Node10 -->
<g id="edge10" class="edge">
<title>Node9&#45;&gt;Node10</title>
<path fill="none" stroke="#191970" d="M443.614,-128.9005C432.7516,-118.353 415.0965,-101.2096 401.9043,-88.3998"/>
<polygon fill="#191970" stroke="#191970" points="403.9802,-85.537 394.3677,-81.0817 399.1038,-90.559 403.9802,-85.537"/>
</g>
<!-- Node11 -->
<g id="node12" class="node">
<title>Node11</title>
<polygon fill="none" stroke="#bfbfbf" points="428,-62 428,-81 479,-81 479,-62 428,-62"/>
<text text-anchor="middle" x="453.5" y="-69" font-family="Helvetica,sans-Serif" font-size="10.00" fill="#000000">math.h</text>
</g>
<!-- Node9&#45;&gt;Node11 -->
<g id="edge11" class="edge">
<title>Node9&#45;&gt;Node11</title>
<path fill="none" stroke="#191970" d="M453.5,-128.9005C453.5,-119.149 453.5,-103.7597 453.5,-91.3695"/>
<polygon fill="#191970" stroke="#191970" points="457.0001,-91.0816 453.5,-81.0817 450.0001,-91.0817 457.0001,-91.0816"/>
</g>
<!-- Node12 -->
<g id="node13" class="node">
<title>Node12</title>
<polygon fill="none" stroke="#bfbfbf" points="497,-62 497,-81 544,-81 544,-62 497,-62"/>
<text text-anchor="middle" x="520.5" y="-69" font-family="Helvetica,sans-Serif" font-size="10.00" fill="#000000">queue</text>
</g>
<!-- Node9&#45;&gt;Node12 -->
<g id="edge12" class="edge">
<title>Node9&#45;&gt;Node12</title>
<path fill="none" stroke="#191970" d="M463.0995,-128.9005C473.647,-118.353 490.7904,-101.2096 503.6002,-88.3998"/>
<polygon fill="#191970" stroke="#191970" points="506.3221,-90.6276 510.9183,-81.0817 501.3724,-85.6779 506.3221,-90.6276"/>
</g>
<!-- Node13 -->
<g id="node14" class="node">
<title>Node13</title>
<g id="a_node14"><a xlink:href="_abstract_player_8hpp.html" target="_top" xlink:title="../game_logic/AbstractPlayer.hpp">
<polygon fill="none" stroke="#000000" points="562.5,-62 562.5,-81 738.5,-81 738.5,-62 562.5,-62"/>
<text text-anchor="middle" x="650.5" y="-69" font-family="Helvetica,sans-Serif" font-size="10.00" fill="#000000">../game_logic/AbstractPlayer.hpp</text>
</a>
</g>
</g>
<!-- Node9&#45;&gt;Node13 -->
<g id="edge13" class="edge">
<title>Node9&#45;&gt;Node13</title>
<path fill="none" stroke="#191970" d="M481.7253,-128.9005C516.1029,-117.2086 574.3104,-97.4122 612.5772,-84.3976"/>
<polygon fill="#191970" stroke="#191970" points="613.9866,-87.6152 622.3271,-81.0817 611.7326,-80.988 613.9866,-87.6152"/>
</g>
<!-- Node14 -->
<g id="node15" class="node">
<title>Node14</title>
<g id="a_node15"><a xlink:href="_abstract_game_8hpp.html" target="_top" xlink:title="../game_logic/AbstractGame.hpp">
<polygon fill="none" stroke="#000000" points="127.5,-62 127.5,-81 303.5,-81 303.5,-62 127.5,-62"/>
<text text-anchor="middle" x="215.5" y="-69" font-family="Helvetica,sans-Serif" font-size="10.00" fill="#000000">../game_logic/AbstractGame.hpp</text>
</a>
</g>
</g>
<!-- Node9&#45;&gt;Node14 -->
<g id="edge14" class="edge">
<title>Node9&#45;&gt;Node14</title>
<path fill="none" stroke="#191970" d="M424.3165,-130.2845C383.0619,-118.6708 307.3757,-97.3642 259.3438,-83.8426"/>
<polygon fill="#191970" stroke="#191970" points="260.1106,-80.4225 249.5363,-81.0817 258.2137,-87.1606 260.1106,-80.4225"/>
</g>
<!-- Node15 -->
<g id="node16" class="node">
<title>Node15</title>
<g id="a_node16"><a xlink:href="_abstract_board_cell_8hpp.html" target="_top" xlink:title="../game_logic/AbstractBoard\lCell.hpp">
<polygon fill="none" stroke="#000000" points="817.5,-56.5 817.5,-86.5 971.5,-86.5 971.5,-56.5 817.5,-56.5"/>
<text text-anchor="start" x="825.5" y="-74.5" font-family="Helvetica,sans-Serif" font-size="10.00" fill="#000000">../game_logic/AbstractBoard</text>
<text text-anchor="middle" x="894.5" y="-63.5" font-family="Helvetica,sans-Serif" font-size="10.00" fill="#000000">Cell.hpp</text>
</a>
</g>
</g>
<!-- Node9&#45;&gt;Node15 -->
<g id="edge17" class="edge">
<title>Node9&#45;&gt;Node15</title>
<path fill="none" stroke="#191970" d="M482.7768,-134.0521C547.8721,-124.1623 706.759,-100.023 807.0318,-84.7888"/>
<polygon fill="#191970" stroke="#191970" points="807.7886,-88.2141 817.1494,-83.2517 806.7371,-81.2935 807.7886,-88.2141"/>
</g>
<!-- Node14&#45;&gt;Node5 -->
<g id="edge15" class="edge">
<title>Node14&#45;&gt;Node5</title>
<path fill="none" stroke="#191970" d="M222.2188,-61.8906C228.493,-52.917 238.0223,-39.2879 245.7404,-28.2491"/>
<polygon fill="#191970" stroke="#191970" points="248.8247,-29.9459 251.6865,-19.7449 243.0879,-25.9348 248.8247,-29.9459"/>
</g>
<!-- Node14&#45;&gt;Node8 -->
<g id="edge16" class="edge">
<title>Node14&#45;&gt;Node8</title>
<path fill="none" stroke="#191970" d="M208.7813,-61.8906C202.507,-52.917 192.9777,-39.2879 185.2596,-28.2491"/>
<polygon fill="#191970" stroke="#191970" points="187.9121,-25.9348 179.3135,-19.7449 182.1753,-29.9459 187.9121,-25.9348"/>
</g>
<!-- Node16&#45;&gt;Node9 -->
<g id="edge21" class="edge">
<title>Node16&#45;&gt;Node9</title>
<path fill="none" stroke="#191970" d="M401.2398,-195.9005C410.7522,-185.4525 426.157,-168.5325 437.7825,-155.7635"/>
<polygon fill="#191970" stroke="#191970" points="440.6322,-157.8324 444.7764,-148.0817 435.4561,-153.1198 440.6322,-157.8324"/>
</g>
<!-- Node16&#45;&gt;Node14 -->
<g id="edge20" class="edge">
<title>Node16&#45;&gt;Node14</title>
<path fill="none" stroke="#191970" d="M379.7706,-195.8631C349.5366,-172.974 273.1835,-115.17 236.2045,-87.1746"/>
<polygon fill="#191970" stroke="#191970" points="238.1996,-84.2951 228.1141,-81.0496 233.9744,-89.8762 238.1996,-84.2951"/>
</g>
<!-- Node17&#45;&gt;Node15 -->
<g id="edge26" class="edge">
<title>Node17&#45;&gt;Node15</title>
<path fill="none" stroke="#191970" d="M972.7449,-190.4397C974.578,-173.0426 975.2285,-144.1096 963.5,-123 956.5482,-110.4877 945.1428,-100.1302 933.5884,-92.0663"/>
<polygon fill="#191970" stroke="#191970" points="935.4981,-89.1332 925.2101,-86.6018 931.674,-94.9964 935.4981,-89.1332"/>
</g>
<!-- Node18 -->
<g id="node19" class="node">
<title>Node18</title>
<g id="a_node19"><a xlink:href="_position_8hpp.html" target="_top" xlink:title="../utils/Position.hpp">
<polygon fill="none" stroke="#000000" points="1048.5,-129 1048.5,-148 1158.5,-148 1158.5,-129 1048.5,-129"/>
<text text-anchor="middle" x="1103.5" y="-136" font-family="Helvetica,sans-Serif" font-size="10.00" fill="#000000">../utils/Position.hpp</text>
</a>
</g>
</g>
<!-- Node17&#45;&gt;Node18 -->
<g id="edge23" class="edge">
<title>Node17&#45;&gt;Node18</title>
<path fill="none" stroke="#191970" d="M1000.3478,-190.4639C1022.764,-179.1715 1053.2606,-163.8086 1075.2738,-152.7192"/>
<polygon fill="#191970" stroke="#191970" points="1077.0793,-155.7287 1084.4355,-148.1039 1073.93,-149.4772 1077.0793,-155.7287"/>
</g>
<!-- Node19 -->
<g id="node20" class="node">
<title>Node19</title>
<polygon fill="none" stroke="#bfbfbf" points="1048,-62 1048,-81 1101,-81 1101,-62 1048,-62"/>
<text text-anchor="middle" x="1074.5" y="-69" font-family="Helvetica,sans-Serif" font-size="10.00" fill="#000000">stdlib.h</text>
</g>
<!-- Node18&#45;&gt;Node19 -->
<g id="edge24" class="edge">
<title>Node18&#45;&gt;Node19</title>
<path fill="none" stroke="#191970" d="M1099.345,-128.9005C1095.0381,-118.95 1088.1903,-103.1292 1082.7735,-90.6147"/>
<polygon fill="#191970" stroke="#191970" points="1085.8316,-88.8686 1078.6473,-81.0817 1079.4075,-91.6492 1085.8316,-88.8686"/>
</g>
<!-- Node20 -->
<g id="node21" class="node">
<title>Node20</title>
<polygon fill="none" stroke="#bfbfbf" points="1119,-62 1119,-81 1212,-81 1212,-62 1119,-62"/>
<text text-anchor="middle" x="1165.5" y="-69" font-family="Helvetica,sans-Serif" font-size="10.00" fill="#000000">unordered_map</text>
</g>
<!-- Node18&#45;&gt;Node20 -->
<g id="edge25" class="edge">
<title>Node18&#45;&gt;Node20</title>
<path fill="none" stroke="#191970" d="M1112.3831,-128.9005C1122.0514,-118.4525 1137.7088,-101.5325 1149.5248,-88.7635"/>
<polygon fill="#191970" stroke="#191970" points="1152.4103,-90.7985 1156.6334,-81.0817 1147.2726,-86.0441 1152.4103,-90.7985"/>
</g>
<!-- Node21&#45;&gt;Node13 -->
<g id="edge29" class="edge">
<title>Node21&#45;&gt;Node13</title>
<path fill="none" stroke="#191970" d="M633.7975,-194.5496C610.9778,-187.116 587.0949,-174.697 573.5,-154 565.9359,-142.4843 567.0079,-135.1524 573.5,-123 582.4954,-106.1617 599.7039,-93.8661 615.575,-85.5207"/>
<polygon fill="#191970" stroke="#191970" points="617.249,-88.5982 624.6929,-81.059 614.1723,-82.3106 617.249,-88.5982"/>
</g>
<!-- Node22 -->
<g id="node23" class="node">
<title>Node22</title>
<polygon fill="none" stroke="#bfbfbf" points="762.5,-129 762.5,-148 822.5,-148 822.5,-129 762.5,-129"/>
<text text-anchor="middle" x="792.5" y="-136" font-family="Helvetica,sans-Serif" font-size="10.00" fill="#000000">iostream</text>
</g>
<!-- Node21&#45;&gt;Node22 -->
<g id="edge28" class="edge">
<title>Node21&#45;&gt;Node22</title>
<path fill="none" stroke="#191970" d="M715.1915,-190.2967C731.5283,-179.351 753.4759,-164.6462 769.8119,-153.701"/>
<polygon fill="#191970" stroke="#191970" points="771.8793,-156.5289 778.2388,-148.055 767.983,-150.7135 771.8793,-156.5289"/>
</g>
<!-- Node23 -->
<g id="node24" class="node">
<title>Node23</title>
<g id="a_node24"><a xlink:href="_abstract_pawn_8hpp.html" target="_top" xlink:title="../AbstractPawn.hpp">
<polygon fill="none" stroke="#000000" points="841,-129 841,-148 954,-148 954,-129 841,-129"/>
<text text-anchor="middle" x="897.5" y="-136" font-family="Helvetica,sans-Serif" font-size="10.00" fill="#000000">../AbstractPawn.hpp</text>
</a>
</g>
</g>
<!-- Node21&#45;&gt;Node23 -->
<g id="edge30" class="edge">
<title>Node21&#45;&gt;Node23</title>
<path fill="none" stroke="#191970" d="M738.506,-190.4639C774.7141,-178.63 824.6001,-162.3258 858.7816,-151.1543"/>
<polygon fill="#191970" stroke="#191970" points="859.9988,-154.4388 868.4167,-148.0053 857.8241,-147.7851 859.9988,-154.4388"/>
</g>
<!-- Node24&#45;&gt;Node15 -->
<g id="edge32" class="edge">
<title>Node24&#45;&gt;Node15</title>
<path fill="none" stroke="#191970" d="M1086.5443,-190.3302C1061.0564,-173.5748 1018.6095,-145.9312 981.5,-123 964.5249,-112.5105 945.4689,-101.1809 929.5279,-91.8261"/>
<polygon fill="#191970" stroke="#191970" points="930.94,-88.5972 920.5414,-86.5676 927.4047,-94.6389 930.94,-88.5972"/>
</g>
<!-- Node24&#45;&gt;Node18 -->
<g id="edge33" class="edge">
<title>Node24&#45;&gt;Node18</title>
<path fill="none" stroke="#191970" d="M1108.1385,-190.2967C1107.2854,-180.7699 1106.1772,-168.3954 1105.258,-158.1306"/>
<polygon fill="#191970" stroke="#191970" points="1108.7338,-157.7029 1104.3557,-148.055 1101.7617,-158.3273 1108.7338,-157.7029"/>
</g>
<!-- Node25&#45;&gt;Node5 -->
<g id="edge35" class="edge">
<title>Node25&#45;&gt;Node5</title>
<path fill="none" stroke="#191970" d="M688.579,-123.4001C726.6373,-108.0798 771.9457,-82.8533 747.5,-56 716.9075,-22.3946 398.1743,-12.8595 292.4008,-10.6098"/>
<polygon fill="#191970" stroke="#191970" points="292.3462,-7.1081 282.2768,-10.4031 292.2032,-14.1066 292.3462,-7.1081"/>
</g>
<!-- Node25&#45;&gt;Node13 -->
<g id="edge36" class="edge">
<title>Node25&#45;&gt;Node13</title>
<path fill="none" stroke="#191970" d="M645.8615,-123.2967C646.7146,-113.7699 647.8228,-101.3954 648.742,-91.1306"/>
<polygon fill="#191970" stroke="#191970" points="652.2383,-91.3273 649.6443,-81.055 645.2662,-90.7029 652.2383,-91.3273"/>
</g>
<!-- Node26&#45;&gt;Node23 -->
<g id="edge38" class="edge">
<title>Node26&#45;&gt;Node23</title>
<path fill="none" stroke="#191970" d="M846.4764,-190.2967C856.7595,-179.8578 870.4108,-165.9997 881.0053,-155.2446"/>
<polygon fill="#191970" stroke="#191970" points="883.5633,-157.6352 888.0876,-148.055 878.5765,-152.7228 883.5633,-157.6352"/>
</g>
<!-- Node27&#45;&gt;Node9 -->
<g id="edge43" class="edge">
<title>Node27&#45;&gt;Node9</title>
<path fill="none" stroke="#191970" d="M518.6111,-195.9005C506.5338,-185.2535 486.8329,-167.8856 472.26,-155.0385"/>
<polygon fill="#191970" stroke="#191970" points="474.1846,-152.0692 464.3687,-148.0817 469.5555,-157.3201 474.1846,-152.0692"/>
</g>
<!-- Node27&#45;&gt;Node13 -->
<g id="edge42" class="edge">
<title>Node27&#45;&gt;Node13</title>
<path fill="none" stroke="#191970" d="M531.3871,-195.7901C535.0359,-179.1898 544.4362,-145.0179 563.5,-123 577.6531,-106.6537 598.3305,-94.1141 615.9759,-85.5026"/>
<polygon fill="#191970" stroke="#191970" points="617.8107,-88.5096 625.4063,-81.1234 614.8624,-82.1608 617.8107,-88.5096"/>
</g>
<!-- Node27&#45;&gt;Node14 -->
<g id="edge41" class="edge">
<title>Node27&#45;&gt;Node14</title>
<path fill="none" stroke="#191970" d="M506.9179,-195.8631C451.9245,-172.3946 310.9204,-112.2208 247.3844,-85.1067"/>
<polygon fill="#191970" stroke="#191970" points="248.4488,-81.7556 237.8775,-81.0496 245.7012,-88.1939 248.4488,-81.7556"/>
</g>
<!-- Node27&#45;&gt;Node15 -->
<g id="edge40" class="edge">
<title>Node27&#45;&gt;Node15</title>
<path fill="none" stroke="#191970" d="M577.3608,-197.8972C616.1665,-190.4304 671.4503,-176.7765 715.5,-154 734.8609,-143.9892 734.5553,-133.7778 753.5,-123 777.4967,-109.3481 805.7785,-98.1758 830.6895,-89.7688"/>
<polygon fill="#191970" stroke="#191970" points="832.0096,-93.0191 840.4138,-86.5678 829.8208,-86.3701 832.0096,-93.0191"/>
</g>
</g>
</svg>
