<?xml version="1.0" encoding="UTF-8" standalone="no"?>
<!DOCTYPE svg PUBLIC "-//W3C//DTD SVG 1.1//EN"
 "http://www.w3.org/Graphics/SVG/1.1/DTD/svg11.dtd">
<!-- Generated by graphviz version 2.40.1 (20161225.0304)
 -->
<!-- Title: /workspace/src/game_logic/utils/Move.cpp Pages: 1 -->
<!--zoomable 207 -->
<svg id="main" version="1.1" xmlns="http://www.w3.org/2000/svg" xmlns:xlink="http://www.w3.org/1999/xlink" xml:space="preserve" onload="init(evt)">
<style type="text/css"><![CDATA[
.edge:hover path { stroke: red; }
.edge:hover polygon { stroke: red; fill: red; }
]]></style>
<script type="text/javascript"><![CDATA[
var edges = document.getElementsByTagName('g');
if (edges && edges.length) {
  for (var i=0;i<edges.length;i++) {
    if (edges[i].id.substr(0,4)=='edge') {
      edges[i].setAttribute('class','edge');
    }
  }
}
]]></script>
        <defs>
                <circle id="rim" cx="0" cy="0" r="7"/>
                <circle id="rim2" cx="0" cy="0" r="3.5"/>
                <g id="zoomPlus">
                        <use xlink:href="#rim" fill="#404040">
                                <set attributeName="fill" to="#808080" begin="zoomplus.mouseover" end="zoomplus.mouseout"/>
                        </use>
                        <path d="M-4,0h8M0,-4v8" fill="none" stroke="white" stroke-width="1.5" pointer-events="none"/>
                </g>
                <g id="zoomMin">
                        <use xlink:href="#rim" fill="#404040">
                                <set attributeName="fill" to="#808080" begin="zoomminus.mouseover" end="zoomminus.mouseout"/>
                        </use>
                        <path d="M-4,0h8" fill="none" stroke="white" stroke-width="1.5" pointer-events="none"/>
                </g>
                <g id="dirArrow">
                        <path fill="none" stroke="white" stroke-width="1.5" d="M0,-3.0v7 M-2.5,-0.5L0,-3.0L2.5,-0.5"/>
                </g>
               <g id="resetDef">
                       <use xlink:href="#rim2" fill="#404040">
                               <set attributeName="fill" to="#808080" begin="reset.mouseover" end="reset.mouseout"/>
                       </use>
               </g>
        </defs>

<script type="text/javascript">
var viewWidth = 802;
var viewHeight = 207;
var sectionId = 'dynsection-0';
</script>
<script xlink:href="svgpan.js"/>
<svg id="graph" class="graph">
<g id="viewport">
<title>/workspace/src/game_logic/utils/Move.cpp</title>
<!-- Node0 -->
<g id="node1" class="node">
<title>Node0</title>
<polygon fill="#bfbfbf" stroke="#000000" points="415.5,-168.5 415.5,-198.5 535.5,-198.5 535.5,-168.5 415.5,-168.5"/>
<text text-anchor="start" x="423.5" y="-186.5" font-family="Helvetica,sans-Serif" font-size="10.00" fill="#000000">/workspace/src/game</text>
<text text-anchor="middle" x="475.5" y="-175.5" font-family="Helvetica,sans-Serif" font-size="10.00" fill="#000000">_logic/utils/Move.cpp</text>
</g>
<!-- Node1 -->
<g id="node2" class="node">
<title>Node1</title>
<g id="a_node2"><a xlink:href="_player_8hpp.html" target="_top" xlink:title="../tic_tac_toe/Player.hpp">
<polygon fill="none" stroke="#000000" points="85,-112.5 85,-131.5 218,-131.5 218,-112.5 85,-112.5"/>
<text text-anchor="middle" x="151.5" y="-119.5" font-family="Helvetica,sans-Serif" font-size="10.00" fill="#000000">../tic_tac_toe/Player.hpp</text>
</a>
</g>
</g>
<!-- Node0&#45;&gt;Node1 -->
<g id="edge1" class="edge">
<title>Node0&#45;&gt;Node1</title>
<path fill="none" stroke="#191970" d="M415.3174,-172.0765C357.3107,-161.0659 270.015,-144.4959 211.9263,-133.4698"/>
<polygon fill="#191970" stroke="#191970" points="212.269,-129.9724 201.7917,-131.5461 210.9636,-136.8496 212.269,-129.9724"/>
</g>
<!-- Node5 -->
<g id="node6" class="node">
<title>Node5</title>
<g id="a_node6"><a xlink:href="tic__tac__toe_2_board_cell_8hpp.html" target="_top" xlink:title="../tic_tac_toe/BoardCell.hpp">
<polygon fill="none" stroke="#000000" points="561.5,-112.5 561.5,-131.5 711.5,-131.5 711.5,-112.5 561.5,-112.5"/>
<text text-anchor="middle" x="636.5" y="-119.5" font-family="Helvetica,sans-Serif" font-size="10.00" fill="#000000">../tic_tac_toe/BoardCell.hpp</text>
</a>
</g>
</g>
<!-- Node0&#45;&gt;Node5 -->
<g id="edge5" class="edge">
<title>Node0&#45;&gt;Node5</title>
<path fill="none" stroke="#191970" d="M514.885,-168.4554C541.5127,-158.284 576.3444,-144.9787 601.9034,-135.2155"/>
<polygon fill="#191970" stroke="#191970" points="603.458,-138.3684 611.5507,-131.5303 600.9601,-131.8292 603.458,-138.3684"/>
</g>
<!-- Node10 -->
<g id="node11" class="node">
<title>Node10</title>
<g id="a_node11"><a xlink:href="_penguin_pawn_8hpp.html" target="_top" xlink:title="../penguin/PenguinPawn.hpp">
<polygon fill="none" stroke="#000000" points="236,-112.5 236,-131.5 389,-131.5 389,-112.5 236,-112.5"/>
<text text-anchor="middle" x="312.5" y="-119.5" font-family="Helvetica,sans-Serif" font-size="10.00" fill="#000000">../penguin/PenguinPawn.hpp</text>
</a>
</g>
</g>
<!-- Node0&#45;&gt;Node10 -->
<g id="edge10" class="edge">
<title>Node0&#45;&gt;Node10</title>
<path fill="none" stroke="#191970" d="M435.6257,-168.4554C408.548,-158.239 373.0906,-144.8609 347.1834,-135.0861"/>
<polygon fill="#191970" stroke="#191970" points="348.351,-131.7858 337.7592,-131.5303 345.8799,-138.3352 348.351,-131.7858"/>
</g>
<!-- Node11 -->
<g id="node12" class="node">
<title>Node11</title>
<g id="a_node12"><a xlink:href="penguin_2_board_cell_8hpp.html" target="_top" xlink:title="../penguin/BoardCell.hpp">
<polygon fill="none" stroke="#000000" points="407.5,-112.5 407.5,-131.5 543.5,-131.5 543.5,-112.5 407.5,-112.5"/>
<text text-anchor="middle" x="475.5" y="-119.5" font-family="Helvetica,sans-Serif" font-size="10.00" fill="#000000">../penguin/BoardCell.hpp</text>
</a>
</g>
</g>
<!-- Node0&#45;&gt;Node11 -->
<g id="edge12" class="edge">
<title>Node0&#45;&gt;Node11</title>
<path fill="none" stroke="#191970" d="M475.5,-168.2977C475.5,-160.3834 475.5,-150.6043 475.5,-142.0759"/>
<polygon fill="#191970" stroke="#191970" points="479.0001,-141.8469 475.5,-131.8469 472.0001,-141.847 479.0001,-141.8469"/>
</g>
<!-- Node12 -->
<g id="node13" class="node">
<title>Node12</title>
<g id="a_node13"><a xlink:href="_move_8hpp.html" target="_top" xlink:title="Move.hpp">
<polygon fill="none" stroke="#000000" points="729.5,-112.5 729.5,-131.5 793.5,-131.5 793.5,-112.5 729.5,-112.5"/>
<text text-anchor="middle" x="761.5" y="-119.5" font-family="Helvetica,sans-Serif" font-size="10.00" fill="#000000">Move.hpp</text>
</a>
</g>
</g>
<!-- Node0&#45;&gt;Node12 -->
<g id="edge15" class="edge">
<title>Node0&#45;&gt;Node12</title>
<path fill="none" stroke="#191970" d="M535.5257,-171.4413C582.869,-161.8027 650.8229,-147.6869 719.2043,-132.2458"/>
<polygon fill="#191970" stroke="#191970" points="720.3154,-135.5828 729.294,-129.9583 718.7677,-128.756 720.3154,-135.5828"/>
</g>
<!-- Node2 -->
<g id="node3" class="node">
<title>Node2</title>
<polygon fill="none" stroke="#bfbfbf" points="135.5,-56.5 135.5,-75.5 195.5,-75.5 195.5,-56.5 135.5,-56.5"/>
<text text-anchor="middle" x="165.5" y="-63.5" font-family="Helvetica,sans-Serif" font-size="10.00" fill="#000000">iostream</text>
</g>
<!-- Node1&#45;&gt;Node2 -->
<g id="edge2" class="edge">
<title>Node1&#45;&gt;Node2</title>
<path fill="none" stroke="#191970" d="M153.9386,-112.2455C155.7855,-104.8579 158.3828,-94.4689 160.6478,-85.4087"/>
<polygon fill="#191970" stroke="#191970" points="164.0594,-86.193 163.0893,-75.6427 157.2684,-84.4952 164.0594,-86.193"/>
</g>
<!-- Node3 -->
<g id="node4" class="node">
<title>Node3</title>
<g id="a_node4"><a xlink:href="_abstract_player_8hpp.html" target="_top" xlink:title="../AbstractPlayer.hpp">
<polygon fill="none" stroke="#000000" points="0,-56.5 0,-75.5 117,-75.5 117,-56.5 0,-56.5"/>
<text text-anchor="middle" x="58.5" y="-63.5" font-family="Helvetica,sans-Serif" font-size="10.00" fill="#000000">../AbstractPlayer.hpp</text>
</a>
</g>
</g>
<!-- Node1&#45;&gt;Node3 -->
<g id="edge3" class="edge">
<title>Node1&#45;&gt;Node3</title>
<path fill="none" stroke="#191970" d="M135.3006,-112.2455C120.8982,-103.5731 99.6268,-90.7645 83.1201,-80.825"/>
<polygon fill="#191970" stroke="#191970" points="84.886,-77.8028 74.5137,-75.6427 81.275,-83.7996 84.886,-77.8028"/>
</g>
<!-- Node4 -->
<g id="node5" class="node">
<title>Node4</title>
<g id="a_node5"><a xlink:href="_abstract_pawn_8hpp.html" target="_top" xlink:title="../AbstractPawn.hpp">
<polygon fill="none" stroke="#000000" points="242,-56.5 242,-75.5 355,-75.5 355,-56.5 242,-56.5"/>
<text text-anchor="middle" x="298.5" y="-63.5" font-family="Helvetica,sans-Serif" font-size="10.00" fill="#000000">../AbstractPawn.hpp</text>
</a>
</g>
</g>
<!-- Node1&#45;&gt;Node4 -->
<g id="edge4" class="edge">
<title>Node1&#45;&gt;Node4</title>
<path fill="none" stroke="#191970" d="M176.7702,-112.3733C200.8966,-103.1822 237.4362,-89.2624 264.1877,-79.0713"/>
<polygon fill="#191970" stroke="#191970" points="265.4607,-82.3318 273.5596,-75.5011 262.9687,-75.7904 265.4607,-82.3318"/>
</g>
<!-- Node6 -->
<g id="node7" class="node">
<title>Node6</title>
<g id="a_node7"><a xlink:href="_position_8hpp.html" target="_top" xlink:title="../utils/Position.hpp">
<polygon fill="none" stroke="#000000" points="576.5,-56.5 576.5,-75.5 686.5,-75.5 686.5,-56.5 576.5,-56.5"/>
<text text-anchor="middle" x="631.5" y="-63.5" font-family="Helvetica,sans-Serif" font-size="10.00" fill="#000000">../utils/Position.hpp</text>
</a>
</g>
</g>
<!-- Node5&#45;&gt;Node6 -->
<g id="edge6" class="edge">
<title>Node5&#45;&gt;Node6</title>
<path fill="none" stroke="#191970" d="M635.6291,-112.2455C634.9766,-104.9382 634.062,-94.6944 633.2593,-85.7046"/>
<polygon fill="#191970" stroke="#191970" points="636.7365,-85.2918 632.361,-75.6427 629.7642,-85.9143 636.7365,-85.2918"/>
</g>
<!-- Node9 -->
<g id="node10" class="node">
<title>Node9</title>
<g id="a_node10"><a xlink:href="_abstract_board_cell_8hpp.html" target="_top" xlink:title="../AbstractBoardCell.hpp">
<polygon fill="none" stroke="#000000" points="414.5,-56.5 414.5,-75.5 548.5,-75.5 548.5,-56.5 414.5,-56.5"/>
<text text-anchor="middle" x="481.5" y="-63.5" font-family="Helvetica,sans-Serif" font-size="10.00" fill="#000000">../AbstractBoardCell.hpp</text>
</a>
</g>
</g>
<!-- Node5&#45;&gt;Node9 -->
<g id="edge9" class="edge">
<title>Node5&#45;&gt;Node9</title>
<path fill="none" stroke="#191970" d="M609.8546,-112.3733C584.3036,-103.1419 545.5488,-89.1402 517.3091,-78.9375"/>
<polygon fill="#191970" stroke="#191970" points="518.3921,-75.6074 507.7978,-75.5011 516.0135,-82.1909 518.3921,-75.6074"/>
</g>
<!-- Node7 -->
<g id="node8" class="node">
<title>Node7</title>
<polygon fill="none" stroke="#bfbfbf" points="559,-.5 559,-19.5 612,-19.5 612,-.5 559,-.5"/>
<text text-anchor="middle" x="585.5" y="-7.5" font-family="Helvetica,sans-Serif" font-size="10.00" fill="#000000">stdlib.h</text>
</g>
<!-- Node6&#45;&gt;Node7 -->
<g id="edge7" class="edge">
<title>Node6&#45;&gt;Node7</title>
<path fill="none" stroke="#191970" d="M623.4874,-56.2455C617.0232,-48.3761 607.7615,-37.101 600.0017,-27.6542"/>
<polygon fill="#191970" stroke="#191970" points="602.4727,-25.1484 593.4208,-19.6427 597.0636,-29.5916 602.4727,-25.1484"/>
</g>
<!-- Node8 -->
<g id="node9" class="node">
<title>Node8</title>
<polygon fill="none" stroke="#bfbfbf" points="630,-.5 630,-19.5 723,-19.5 723,-.5 630,-.5"/>
<text text-anchor="middle" x="676.5" y="-7.5" font-family="Helvetica,sans-Serif" font-size="10.00" fill="#000000">unordered_map</text>
</g>
<!-- Node6&#45;&gt;Node8 -->
<g id="edge8" class="edge">
<title>Node6&#45;&gt;Node8</title>
<path fill="none" stroke="#191970" d="M639.3384,-56.2455C645.662,-48.3761 654.7224,-37.101 662.3136,-27.6542"/>
<polygon fill="#191970" stroke="#191970" points="665.2158,-29.6302 668.7514,-19.6427 659.7592,-25.2454 665.2158,-29.6302"/>
</g>
<!-- Node10&#45;&gt;Node4 -->
<g id="edge11" class="edge">
<title>Node10&#45;&gt;Node4</title>
<path fill="none" stroke="#191970" d="M310.0614,-112.2455C308.2145,-104.8579 305.6172,-94.4689 303.3522,-85.4087"/>
<polygon fill="#191970" stroke="#191970" points="306.7316,-84.4952 300.9107,-75.6427 299.9406,-86.193 306.7316,-84.4952"/>
</g>
<!-- Node11&#45;&gt;Node6 -->
<g id="edge14" class="edge">
<title>Node11&#45;&gt;Node6</title>
<path fill="none" stroke="#191970" d="M502.3174,-112.3733C528.0332,-103.1419 567.038,-89.1402 595.4599,-78.9375"/>
<polygon fill="#191970" stroke="#191970" points="596.8032,-82.174 605.0326,-75.5011 594.4381,-75.5857 596.8032,-82.174"/>
</g>
<!-- Node11&#45;&gt;Node9 -->
<g id="edge13" class="edge">
<title>Node11&#45;&gt;Node9</title>
<path fill="none" stroke="#191970" d="M476.5451,-112.2455C477.328,-104.9382 478.4256,-94.6944 479.3888,-85.7046"/>
<polygon fill="#191970" stroke="#191970" points="482.8815,-85.9587 480.4669,-75.6427 475.9214,-85.2129 482.8815,-85.9587"/>
</g>
</g>
</svg>
        <g id="navigator" transform="translate(0 0)" fill="#404254">
                <rect fill="#f2f5e9" fill-opacity="0.5" stroke="#606060" stroke-width=".5" x="0" y="0" width="60" height="60"/>
                <use id="zoomplus" xlink:href="#zoomPlus" x="17" y="9" onmousedown="handleZoom(evt,'in')"/>
                <use id="zoomminus" xlink:href="#zoomMin" x="42" y="9" onmousedown="handleZoom(evt,'out')"/>
                <use id="reset" xlink:href="#resetDef" x="30" y="36" onmousedown="handleReset()"/>
                <g id="arrowUp" xlink:href="#dirArrow" transform="translate(30 24)" onmousedown="handlePan(0,-1)">
                  <use xlink:href="#rim" fill="#404040">
                        <set attributeName="fill" to="#808080" begin="arrowUp.mouseover" end="arrowUp.mouseout"/>
                  </use>
                  <path fill="none" stroke="white" stroke-width="1.5" d="M0,-3.0v7 M-2.5,-0.5L0,-3.0L2.5,-0.5"/>
                </g>
                <g id="arrowRight" xlink:href="#dirArrow" transform="rotate(90) translate(36 -43)" onmousedown="handlePan(1,0)">
                  <use xlink:href="#rim" fill="#404040">
                        <set attributeName="fill" to="#808080" begin="arrowRight.mouseover" end="arrowRight.mouseout"/>
                  </use>
                  <path fill="none" stroke="white" stroke-width="1.5" d="M0,-3.0v7 M-2.5,-0.5L0,-3.0L2.5,-0.5"/>
                </g>
                <g id="arrowDown" xlink:href="#dirArrow" transform="rotate(180) translate(-30 -48)" onmousedown="handlePan(0,1)">
                  <use xlink:href="#rim" fill="#404040">
                        <set attributeName="fill" to="#808080" begin="arrowDown.mouseover" end="arrowDown.mouseout"/>
                  </use>
                  <path fill="none" stroke="white" stroke-width="1.5" d="M0,-3.0v7 M-2.5,-0.5L0,-3.0L2.5,-0.5"/>
                </g>
                <g id="arrowLeft" xlink:href="#dirArrow" transform="rotate(270) translate(-36 17)" onmousedown="handlePan(-1,0)">
                  <use xlink:href="#rim" fill="#404040">
                        <set attributeName="fill" to="#808080" begin="arrowLeft.mouseover" end="arrowLeft.mouseout"/>
                  </use>
                  <path fill="none" stroke="white" stroke-width="1.5" d="M0,-3.0v7 M-2.5,-0.5L0,-3.0L2.5,-0.5"/>
                </g>
        </g>
        <svg viewBox="0 0 15 15" width="100%" height="30px" preserveAspectRatio="xMaxYMin meet">
         <g id="arrow_out" transform="scale(0.3 0.3)">
          <a xlink:href="_move_8cpp__incl_org.svg" target="_base">
           <rect id="button" ry="5" rx="5" y="6" x="6" height="38" width="38"
                fill="#f2f5e9" fill-opacity="0.5" stroke="#606060" stroke-width="1.0"/>
           <path id="arrow"
             d="M 11.500037,31.436501 C 11.940474,20.09759 22.043105,11.32322 32.158766,21.979434 L 37.068811,17.246167 C 37.068811,17.246167 37.088388,32 37.088388,32 L 22.160133,31.978069 C 22.160133,31.978069 26.997745,27.140456 26.997745,27.140456 C 18.528582,18.264221 13.291696,25.230495 11.500037,31.436501 z"
             style="fill:#404040;"/>
          </a>
         </g>
        </svg>
</svg>
