<?xml version="1.0" encoding="UTF-8" standalone="no"?>
<!DOCTYPE svg PUBLIC "-//W3C//DTD SVG 1.1//EN"
 "http://www.w3.org/Graphics/SVG/1.1/DTD/svg11.dtd">
<!-- Generated by graphviz version 2.40.1 (20161225.0304)
 -->
<!-- Title: /workspace/src/game_logic/utils/Move.hpp Pages: 1 -->
<!--zoomable 396 -->
<svg id="main" version="1.1" xmlns="http://www.w3.org/2000/svg" xmlns:xlink="http://www.w3.org/1999/xlink" xml:space="preserve" onload="init(evt)">
<style type="text/css"><![CDATA[
.edge:hover path { stroke: red; }
.edge:hover polygon { stroke: red; fill: red; }
]]></style>
<script type="text/javascript"><![CDATA[
var edges = document.getElementsByTagName('g');
if (edges && edges.length) {
  for (var i=0;i<edges.length;i++) {
    if (edges[i].id.substr(0,4)=='edge') {
      edges[i].setAttribute('class','edge');
    }
  }
}
]]></script>
        <defs>
                <circle id="rim" cx="0" cy="0" r="7"/>
                <circle id="rim2" cx="0" cy="0" r="3.5"/>
                <g id="zoomPlus">
                        <use xlink:href="#rim" fill="#404040">
                                <set attributeName="fill" to="#808080" begin="zoomplus.mouseover" end="zoomplus.mouseout"/>
                        </use>
                        <path d="M-4,0h8M0,-4v8" fill="none" stroke="white" stroke-width="1.5" pointer-events="none"/>
                </g>
                <g id="zoomMin">
                        <use xlink:href="#rim" fill="#404040">
                                <set attributeName="fill" to="#808080" begin="zoomminus.mouseover" end="zoomminus.mouseout"/>
                        </use>
                        <path d="M-4,0h8" fill="none" stroke="white" stroke-width="1.5" pointer-events="none"/>
                </g>
                <g id="dirArrow">
                        <path fill="none" stroke="white" stroke-width="1.5" d="M0,-3.0v7 M-2.5,-0.5L0,-3.0L2.5,-0.5"/>
                </g>
               <g id="resetDef">
                       <use xlink:href="#rim2" fill="#404040">
                               <set attributeName="fill" to="#808080" begin="reset.mouseover" end="reset.mouseout"/>
                       </use>
               </g>
        </defs>

<script type="text/javascript">
var viewWidth = 2085;
var viewHeight = 396;
var sectionId = 'dynsection-0';
</script>
<script xlink:href="svgpan.js"/>
<svg id="graph" class="graph">
<g id="viewport">
<title>/workspace/src/game_logic/utils/Move.hpp</title>
<!-- Node1 -->
<g id="node1" class="node">
<title>Node1</title>
<polygon fill="#bfbfbf" stroke="#000000" points="1423.5,-357.5 1423.5,-387.5 1543.5,-387.5 1543.5,-357.5 1423.5,-357.5"/>
<text text-anchor="start" x="1431.5" y="-375.5" font-family="Helvetica,sans-Serif" font-size="10.00" fill="#000000">/workspace/src/game</text>
<text text-anchor="middle" x="1483.5" y="-364.5" font-family="Helvetica,sans-Serif" font-size="10.00" fill="#000000">_logic/utils/Move.hpp</text>
</g>
<!-- Node2 -->
<g id="node2" class="node">
<title>Node2</title>
<g id="a_node2"><a xlink:href="_history_8hpp.html" target="_top" xlink:title="/workspace/src/game\l_logic/History.hpp">
<polygon fill="none" stroke="#000000" points="808.5,-290.5 808.5,-320.5 928.5,-320.5 928.5,-290.5 808.5,-290.5"/>
<text text-anchor="start" x="816.5" y="-308.5" font-family="Helvetica,sans-Serif" font-size="10.00" fill="#000000">/workspace/src/game</text>
<text text-anchor="middle" x="868.5" y="-297.5" font-family="Helvetica,sans-Serif" font-size="10.00" fill="#000000">_logic/History.hpp</text>
</a>
</g>
</g>
<!-- Node1&#45;&gt;Node2 -->
<g id="edge1" class="edge">
<title>Node1&#45;&gt;Node2</title>
<path fill="none" stroke="#191970" d="M1413.4548,-364.8691C1291.7666,-351.612 1043.3815,-324.5521 928.8325,-312.0728"/>
<polygon fill="#191970" stroke="#191970" points="1413.0912,-368.3501 1423.4114,-365.9538 1413.8494,-361.3912 1413.0912,-368.3501"/>
</g>
<!-- Node10 -->
<g id="node10" class="node">
<title>Node10</title>
<g id="a_node10"><a xlink:href="_penguin_game_8cpp.html" target="_top" xlink:title="/workspace/src/game\l_logic/penguin/PenguinGame.cpp">
<polygon fill="none" stroke="#000000" points="1801,-84 1801,-114 1980,-114 1980,-84 1801,-84"/>
<text text-anchor="start" x="1809" y="-102" font-family="Helvetica,sans-Serif" font-size="10.00" fill="#000000">/workspace/src/game</text>
<text text-anchor="middle" x="1890.5" y="-91" font-family="Helvetica,sans-Serif" font-size="10.00" fill="#000000">_logic/penguin/PenguinGame.cpp</text>
</a>
</g>
</g>
<!-- Node1&#45;&gt;Node10 -->
<g id="edge50" class="edge">
<title>Node1&#45;&gt;Node10</title>
<path fill="none" stroke="#191970" d="M1553.7813,-359.1992C1652.8407,-339.1303 1826.4967,-298.6751 1871.5,-254 1909.2114,-216.5636 1900.3147,-145.5936 1894.0728,-114.3828"/>
<polygon fill="#191970" stroke="#191970" points="1552.9625,-355.7937 1543.8474,-361.1941 1554.3408,-362.6567 1552.9625,-355.7937"/>
</g>
<!-- Node20 -->
<g id="node20" class="node">
<title>Node20</title>
<g id="a_node20"><a xlink:href="_abstract_game_8hpp.html" target="_top" xlink:title="/workspace/src/game\l_logic/AbstractGame.hpp">
<polygon fill="none" stroke="#000000" points="1357,-290.5 1357,-320.5 1496,-320.5 1496,-290.5 1357,-290.5"/>
<text text-anchor="start" x="1365" y="-308.5" font-family="Helvetica,sans-Serif" font-size="10.00" fill="#000000">/workspace/src/game</text>
<text text-anchor="middle" x="1426.5" y="-297.5" font-family="Helvetica,sans-Serif" font-size="10.00" fill="#000000">_logic/AbstractGame.hpp</text>
</a>
</g>
</g>
<!-- Node1&#45;&gt;Node20 -->
<g id="edge21" class="edge">
<title>Node1&#45;&gt;Node20</title>
<path fill="none" stroke="#191970" d="M1464.0506,-349.6385C1455.9063,-340.0653 1446.6616,-329.1987 1439.383,-320.6432"/>
<polygon fill="#191970" stroke="#191970" points="1461.4202,-351.948 1470.5658,-357.2967 1466.7518,-347.4121 1461.4202,-351.948"/>
</g>
<!-- Node25 -->
<g id="node25" class="node">
<title>Node25</title>
<g id="a_node25"><a xlink:href="_tree_8hpp.html" target="_top" xlink:title="/workspace/src/mcts\l/Tree.hpp">
<polygon fill="none" stroke="#000000" points="1126.5,-223.5 1126.5,-253.5 1242.5,-253.5 1242.5,-223.5 1126.5,-223.5"/>
<text text-anchor="start" x="1134.5" y="-241.5" font-family="Helvetica,sans-Serif" font-size="10.00" fill="#000000">/workspace/src/mcts</text>
<text text-anchor="middle" x="1184.5" y="-230.5" font-family="Helvetica,sans-Serif" font-size="10.00" fill="#000000">/Tree.hpp</text>
</a>
</g>
</g>
<!-- Node1&#45;&gt;Node25 -->
<g id="edge49" class="edge">
<title>Node1&#45;&gt;Node25</title>
<path fill="none" stroke="#191970" d="M1430.6919,-353.9901C1405.2835,-344.7079 1374.5396,-332.9219 1347.5,-321 1298.8895,-299.5673 1244.1094,-270.8627 1212.0435,-253.5776"/>
<polygon fill="#191970" stroke="#191970" points="1429.5557,-357.301 1440.1499,-357.42 1431.9422,-350.7204 1429.5557,-357.301"/>
</g>
<!-- Node29 -->
<g id="node29" class="node">
<title>Node29</title>
<g id="a_node29"><a xlink:href="_tic_tac_toe_8hpp.html" target="_top" xlink:title="/workspace/src/game\l_logic/tic_tac_toe/TicTacToe.hpp">
<polygon fill="none" stroke="#000000" points="1454.5,-223.5 1454.5,-253.5 1626.5,-253.5 1626.5,-223.5 1454.5,-223.5"/>
<text text-anchor="start" x="1462.5" y="-241.5" font-family="Helvetica,sans-Serif" font-size="10.00" fill="#000000">/workspace/src/game</text>
<text text-anchor="middle" x="1540.5" y="-230.5" font-family="Helvetica,sans-Serif" font-size="10.00" fill="#000000">_logic/tic_tac_toe/TicTacToe.hpp</text>
</a>
</g>
</g>
<!-- Node1&#45;&gt;Node29 -->
<g id="edge51" class="edge">
<title>Node1&#45;&gt;Node29</title>
<path fill="none" stroke="#191970" d="M1494.0593,-347.8162C1497.69,-339.3196 1501.7774,-329.7444 1505.5,-321 1515.4945,-297.5228 1527.0476,-270.2678 1534.0605,-253.7103"/>
<polygon fill="#191970" stroke="#191970" points="1490.7687,-346.6098 1490.056,-357.1806 1497.2052,-349.3614 1490.7687,-346.6098"/>
</g>
<!-- Node30 -->
<g id="node30" class="node">
<title>Node30</title>
<g id="a_node30"><a xlink:href="_move_8cpp.html" target="_top" xlink:title="/workspace/src/game\l_logic/utils/Move.cpp">
<polygon fill="none" stroke="#000000" points="1956.5,-290.5 1956.5,-320.5 2076.5,-320.5 2076.5,-290.5 1956.5,-290.5"/>
<text text-anchor="start" x="1964.5" y="-308.5" font-family="Helvetica,sans-Serif" font-size="10.00" fill="#000000">/workspace/src/game</text>
<text text-anchor="middle" x="2016.5" y="-297.5" font-family="Helvetica,sans-Serif" font-size="10.00" fill="#000000">_logic/utils/Move.cpp</text>
</a>
</g>
</g>
<!-- Node1&#45;&gt;Node30 -->
<g id="edge52" class="edge">
<title>Node1&#45;&gt;Node30</title>
<path fill="none" stroke="#191970" d="M1553.6414,-366.7116C1643.9172,-358.7853 1805.4647,-342.9887 1942.5,-321 1947.0361,-320.2721 1951.715,-319.4536 1956.413,-318.5827"/>
<polygon fill="#191970" stroke="#191970" points="1553.1854,-363.238 1543.5269,-367.5929 1553.793,-370.2116 1553.1854,-363.238"/>
</g>
<!-- Node3 -->
<g id="node3" class="node">
<title>Node3</title>
<g id="a_node3"><a xlink:href="_abstract_board_8hpp.html" target="_top" xlink:title="/workspace/src/game\l_logic/AbstractBoard.hpp">
<polygon fill="none" stroke="#000000" points="799.5,-223.5 799.5,-253.5 937.5,-253.5 937.5,-223.5 799.5,-223.5"/>
<text text-anchor="start" x="807.5" y="-241.5" font-family="Helvetica,sans-Serif" font-size="10.00" fill="#000000">/workspace/src/game</text>
<text text-anchor="middle" x="868.5" y="-230.5" font-family="Helvetica,sans-Serif" font-size="10.00" fill="#000000">_logic/AbstractBoard.hpp</text>
</a>
</g>
</g>
<!-- Node2&#45;&gt;Node3 -->
<g id="edge2" class="edge">
<title>Node2&#45;&gt;Node3</title>
<path fill="none" stroke="#191970" d="M868.5,-280.0249C868.5,-271.128 868.5,-261.4287 868.5,-253.6432"/>
<polygon fill="#191970" stroke="#191970" points="865.0001,-280.2966 868.5,-290.2967 872.0001,-280.2967 865.0001,-280.2966"/>
</g>
<!-- Node19 -->
<g id="node19" class="node">
<title>Node19</title>
<g id="a_node19"><a xlink:href="_history_8cpp.html" target="_top" xlink:title="/workspace/src/game\l_logic/History.cpp">
<polygon fill="none" stroke="#000000" points="661.5,-223.5 661.5,-253.5 781.5,-253.5 781.5,-223.5 661.5,-223.5"/>
<text text-anchor="start" x="669.5" y="-241.5" font-family="Helvetica,sans-Serif" font-size="10.00" fill="#000000">/workspace/src/game</text>
<text text-anchor="middle" x="721.5" y="-230.5" font-family="Helvetica,sans-Serif" font-size="10.00" fill="#000000">_logic/History.cpp</text>
</a>
</g>
</g>
<!-- Node2&#45;&gt;Node19 -->
<g id="edge20" class="edge">
<title>Node2&#45;&gt;Node19</title>
<path fill="none" stroke="#191970" d="M826.4036,-286.3132C803.6153,-275.9267 775.8667,-263.2794 754.6336,-253.6017"/>
<polygon fill="#191970" stroke="#191970" points="824.9593,-289.5013 835.5103,-290.4639 827.8625,-283.1317 824.9593,-289.5013"/>
</g>
<!-- Node4 -->
<g id="node4" class="node">
<title>Node4</title>
<g id="a_node4"><a xlink:href="_abstract_board_8cpp.html" target="_top" xlink:title="/workspace/src/game\l_logic/AbstractBoard.cpp">
<polygon fill="none" stroke="#000000" points="800,-156.5 800,-186.5 937,-186.5 937,-156.5 800,-156.5"/>
<text text-anchor="start" x="808" y="-174.5" font-family="Helvetica,sans-Serif" font-size="10.00" fill="#000000">/workspace/src/game</text>
<text text-anchor="middle" x="868.5" y="-163.5" font-family="Helvetica,sans-Serif" font-size="10.00" fill="#000000">_logic/AbstractBoard.cpp</text>
</a>
</g>
</g>
<!-- Node3&#45;&gt;Node4 -->
<g id="edge3" class="edge">
<title>Node3&#45;&gt;Node4</title>
<path fill="none" stroke="#191970" d="M868.5,-213.0249C868.5,-204.128 868.5,-194.4287 868.5,-186.6432"/>
<polygon fill="#191970" stroke="#191970" points="865.0001,-213.2966 868.5,-223.2967 872.0001,-213.2967 865.0001,-213.2966"/>
</g>
<!-- Node5 -->
<g id="node5" class="node">
<title>Node5</title>
<g id="a_node5"><a xlink:href="penguin_2_board_8cpp.html" target="_top" xlink:title="/workspace/src/game\l_logic/penguin/Board.cpp">
<polygon fill="none" stroke="#000000" points="0,-84 0,-114 139,-114 139,-84 0,-84"/>
<text text-anchor="start" x="8" y="-102" font-family="Helvetica,sans-Serif" font-size="10.00" fill="#000000">/workspace/src/game</text>
<text text-anchor="middle" x="69.5" y="-91" font-family="Helvetica,sans-Serif" font-size="10.00" fill="#000000">_logic/penguin/Board.cpp</text>
</a>
</g>
</g>
<!-- Node3&#45;&gt;Node5 -->
<g id="edge4" class="edge">
<title>Node3&#45;&gt;Node5</title>
<path fill="none" stroke="#191970" d="M788.859,-222.8558C626.1011,-199.5786 581.1819,-214.0212 422.5,-187 298.9134,-165.955 269.974,-150.9937 148.5,-120 141.0744,-118.1054 133.2665,-116.0757 125.5678,-114.0522"/>
<polygon fill="#191970" stroke="#191970" points="788.839,-226.3898 799.2392,-224.3682 789.8483,-219.4629 788.839,-226.3898"/>
</g>
<!-- Node6 -->
<g id="node6" class="node">
<title>Node6</title>
<g id="a_node6"><a xlink:href="penguin_2_board_8hpp.html" target="_top" xlink:title="/workspace/src/game\l_logic/penguin/Board.hpp">
<polygon fill="none" stroke="#000000" points="431.5,-156.5 431.5,-186.5 571.5,-186.5 571.5,-156.5 431.5,-156.5"/>
<text text-anchor="start" x="439.5" y="-174.5" font-family="Helvetica,sans-Serif" font-size="10.00" fill="#000000">/workspace/src/game</text>
<text text-anchor="middle" x="501.5" y="-163.5" font-family="Helvetica,sans-Serif" font-size="10.00" fill="#000000">_logic/penguin/Board.hpp</text>
</a>
</g>
</g>
<!-- Node3&#45;&gt;Node6 -->
<g id="edge5" class="edge">
<title>Node3&#45;&gt;Node6</title>
<path fill="none" stroke="#191970" d="M789.2407,-222.7858C697.9193,-205.7907 673.4294,-202.8329 585.5,-187 580.9756,-186.1853 576.3152,-185.3407 571.6181,-184.4852"/>
<polygon fill="#191970" stroke="#191970" points="788.7205,-226.2491 799.193,-224.644 790.0053,-219.368 788.7205,-226.2491"/>
</g>
<!-- Node12 -->
<g id="node12" class="node">
<title>Node12</title>
<g id="a_node12"><a xlink:href="tic__tac__toe_2_board_8cpp.html" target="_top" xlink:title="/workspace/src/game\l_logic/tic_tac_toe/Board.cpp">
<polygon fill="none" stroke="#000000" points="698,-84 698,-114 851,-114 851,-84 698,-84"/>
<text text-anchor="start" x="706" y="-102" font-family="Helvetica,sans-Serif" font-size="10.00" fill="#000000">/workspace/src/game</text>
<text text-anchor="middle" x="774.5" y="-91" font-family="Helvetica,sans-Serif" font-size="10.00" fill="#000000">_logic/tic_tac_toe/Board.cpp</text>
</a>
</g>
</g>
<!-- Node3&#45;&gt;Node12 -->
<g id="edge12" class="edge">
<title>Node3&#45;&gt;Node12</title>
<path fill="none" stroke="#191970" d="M789.3332,-222.4943C716.3607,-207.6958 619.1987,-187.8574 618.5,-187 609.7958,-176.3199 610.6044,-167.291 618.5,-156 629.819,-139.8133 673.7003,-124.6271 712.0504,-114.0062"/>
<polygon fill="#191970" stroke="#191970" points="788.9608,-225.9899 799.4568,-224.5464 790.3516,-219.1294 788.9608,-225.9899"/>
</g>
<!-- Node13 -->
<g id="node13" class="node">
<title>Node13</title>
<g id="a_node13"><a xlink:href="tic__tac__toe_2_board_8hpp.html" target="_top" xlink:title="/workspace/src/game\l_logic/tic_tac_toe/Board.hpp">
<polygon fill="none" stroke="#000000" points="627.5,-156.5 627.5,-186.5 781.5,-186.5 781.5,-156.5 627.5,-156.5"/>
<text text-anchor="start" x="635.5" y="-174.5" font-family="Helvetica,sans-Serif" font-size="10.00" fill="#000000">/workspace/src/game</text>
<text text-anchor="middle" x="704.5" y="-163.5" font-family="Helvetica,sans-Serif" font-size="10.00" fill="#000000">_logic/tic_tac_toe/Board.hpp</text>
</a>
</g>
</g>
<!-- Node3&#45;&gt;Node13 -->
<g id="edge13" class="edge">
<title>Node3&#45;&gt;Node13</title>
<path fill="none" stroke="#191970" d="M822.212,-219.5897C796.6626,-209.1518 765.3646,-196.3654 741.4653,-186.6017"/>
<polygon fill="#191970" stroke="#191970" points="821.1142,-222.9219 831.6952,-223.4639 823.7616,-216.4419 821.1142,-222.9219"/>
</g>
<!-- Node16 -->
<g id="node16" class="node">
<title>Node16</title>
<g id="a_node16"><a xlink:href="_m_c_t_s_8cpp.html" target="_top" xlink:title="/workspace/src/mcts\l/MCTS.cpp">
<polygon fill="none" stroke="#000000" points="1097.5,-84 1097.5,-114 1213.5,-114 1213.5,-84 1097.5,-84"/>
<text text-anchor="start" x="1105.5" y="-102" font-family="Helvetica,sans-Serif" font-size="10.00" fill="#000000">/workspace/src/mcts</text>
<text text-anchor="middle" x="1155.5" y="-91" font-family="Helvetica,sans-Serif" font-size="10.00" fill="#000000">/MCTS.cpp</text>
</a>
</g>
</g>
<!-- Node3&#45;&gt;Node16 -->
<g id="edge17" class="edge">
<title>Node3&#45;&gt;Node16</title>
<path fill="none" stroke="#191970" d="M899.852,-217.7796C913.8707,-208.4509 930.5675,-197.2517 945.5,-187 965.2213,-173.4605 968.1968,-166.8821 989.5,-156 1010.2588,-145.396 1065.4984,-127.1071 1106.5886,-114.1068"/>
<polygon fill="#191970" stroke="#191970" points="897.9025,-214.8727 891.5092,-223.3212 901.7756,-220.7036 897.9025,-214.8727"/>
</g>
<!-- Node17 -->
<g id="node17" class="node">
<title>Node17</title>
<g id="a_node17"><a xlink:href="_m_c_t_s_player_8cpp.html" target="_top" xlink:title="/workspace/src/mcts\l/MCTSPlayer.cpp">
<polygon fill="none" stroke="#000000" points="1231.5,-84 1231.5,-114 1347.5,-114 1347.5,-84 1231.5,-84"/>
<text text-anchor="start" x="1239.5" y="-102" font-family="Helvetica,sans-Serif" font-size="10.00" fill="#000000">/workspace/src/mcts</text>
<text text-anchor="middle" x="1289.5" y="-91" font-family="Helvetica,sans-Serif" font-size="10.00" fill="#000000">/MCTSPlayer.cpp</text>
</a>
</g>
</g>
<!-- Node3&#45;&gt;Node17 -->
<g id="edge18" class="edge">
<title>Node3&#45;&gt;Node17</title>
<path fill="none" stroke="#191970" d="M916.1644,-219.5467C936.7817,-210.6504 960.8633,-199.3005 981.5,-187 1001.1232,-175.3036 1001.5738,-165.1635 1022.5,-156 1105.2329,-119.7716 1134.7909,-141.5488 1222.5,-120 1229.6027,-118.255 1237.0565,-116.1743 1244.3065,-114.0113"/>
<polygon fill="#191970" stroke="#191970" points="914.796,-216.3253 906.9602,-223.4562 917.5327,-222.7682 914.796,-216.3253"/>
</g>
<!-- Node18 -->
<g id="node18" class="node">
<title>Node18</title>
<g id="a_node18"><a xlink:href="_tree_8cpp.html" target="_top" xlink:title="/workspace/src/mcts\l/Tree.cpp">
<polygon fill="none" stroke="#000000" points="1031.5,-156.5 1031.5,-186.5 1147.5,-186.5 1147.5,-156.5 1031.5,-156.5"/>
<text text-anchor="start" x="1039.5" y="-174.5" font-family="Helvetica,sans-Serif" font-size="10.00" fill="#000000">/workspace/src/mcts</text>
<text text-anchor="middle" x="1089.5" y="-163.5" font-family="Helvetica,sans-Serif" font-size="10.00" fill="#000000">/Tree.cpp</text>
</a>
</g>
</g>
<!-- Node3&#45;&gt;Node18 -->
<g id="edge19" class="edge">
<title>Node3&#45;&gt;Node18</title>
<path fill="none" stroke="#191970" d="M927.7134,-220.5484C962.6947,-209.9432 1006.4881,-196.6665 1039.687,-186.6017"/>
<polygon fill="#191970" stroke="#191970" points="926.6511,-217.2131 918.0967,-223.4639 928.6821,-223.912 926.6511,-217.2131"/>
</g>
<!-- Node6&#45;&gt;Node5 -->
<g id="edge6" class="edge">
<title>Node6&#45;&gt;Node5</title>
<path fill="none" stroke="#191970" d="M421.0981,-162.4421C349.2512,-153.7146 241.3108,-139.0401 148.5,-120 140.1588,-118.2888 131.3879,-116.2262 122.847,-114.0708"/>
<polygon fill="#191970" stroke="#191970" points="421.0837,-165.9656 431.4305,-163.6864 421.9208,-159.0158 421.0837,-165.9656"/>
</g>
<!-- Node7 -->
<g id="node7" class="node">
<title>Node7</title>
<g id="a_node7"><a xlink:href="penguin_2_board_cell_8cpp.html" target="_top" xlink:title="/workspace/src/game\l_logic/penguin/BoardCell.cpp">
<polygon fill="none" stroke="#000000" points="157.5,-84 157.5,-114 315.5,-114 315.5,-84 157.5,-84"/>
<text text-anchor="start" x="165.5" y="-102" font-family="Helvetica,sans-Serif" font-size="10.00" fill="#000000">/workspace/src/game</text>
<text text-anchor="middle" x="236.5" y="-91" font-family="Helvetica,sans-Serif" font-size="10.00" fill="#000000">_logic/penguin/BoardCell.cpp</text>
</a>
</g>
</g>
<!-- Node6&#45;&gt;Node7 -->
<g id="edge7" class="edge">
<title>Node6&#45;&gt;Node7</title>
<path fill="none" stroke="#191970" d="M436.7321,-153.7805C392.1606,-141.5864 333.6025,-125.5658 291.3378,-114.0028"/>
<polygon fill="#191970" stroke="#191970" points="436.0227,-157.2149 446.5918,-156.478 437.8699,-150.4631 436.0227,-157.2149"/>
</g>
<!-- Node8 -->
<g id="node8" class="node">
<title>Node8</title>
<g id="a_node8"><a xlink:href="penguin_2_console_game_8cpp.html" target="_top" xlink:title="/workspace/src/game\l_logic/penguin/ConsoleGame.cpp">
<polygon fill="none" stroke="#000000" points="1565,-84 1565,-114 1744,-114 1744,-84 1565,-84"/>
<text text-anchor="start" x="1573" y="-102" font-family="Helvetica,sans-Serif" font-size="10.00" fill="#000000">/workspace/src/game</text>
<text text-anchor="middle" x="1654.5" y="-91" font-family="Helvetica,sans-Serif" font-size="10.00" fill="#000000">_logic/penguin/ConsoleGame.cpp</text>
</a>
</g>
</g>
<!-- Node6&#45;&gt;Node8 -->
<g id="edge8" class="edge">
<title>Node6&#45;&gt;Node8</title>
<path fill="none" stroke="#191970" d="M581.8254,-159.8533C594.09,-158.3664 606.6173,-157.0129 618.5,-156 1034.1883,-120.566 1142.5451,-171.9008 1556.5,-120 1568.1538,-118.5389 1580.4754,-116.3883 1592.3022,-114.0134"/>
<polygon fill="#191970" stroke="#191970" points="581.0943,-156.4174 571.6048,-161.1292 581.9614,-163.3635 581.0943,-156.4174"/>
</g>
<!-- Node9 -->
<g id="node9" class="node">
<title>Node9</title>
<g id="a_node9"><a xlink:href="_human_player_8cpp.html" target="_top" xlink:title="/workspace/src/game\l_logic/penguin/HumanPlayer.cpp">
<polygon fill="none" stroke="#000000" points="333.5,-84 333.5,-114 509.5,-114 509.5,-84 333.5,-84"/>
<text text-anchor="start" x="341.5" y="-102" font-family="Helvetica,sans-Serif" font-size="10.00" fill="#000000">/workspace/src/game</text>
<text text-anchor="middle" x="421.5" y="-91" font-family="Helvetica,sans-Serif" font-size="10.00" fill="#000000">_logic/penguin/HumanPlayer.cpp</text>
</a>
</g>
</g>
<!-- Node6&#45;&gt;Node9 -->
<g id="edge9" class="edge">
<title>Node6&#45;&gt;Node9</title>
<path fill="none" stroke="#191970" d="M477.3984,-149.6579C464.6882,-138.1393 449.4201,-124.3026 438.0548,-114.0028"/>
<polygon fill="#191970" stroke="#191970" points="475.1637,-152.3562 484.9239,-156.478 479.8644,-147.1693 475.1637,-152.3562"/>
</g>
<!-- Node6&#45;&gt;Node10 -->
<g id="edge10" class="edge">
<title>Node6&#45;&gt;Node10</title>
<path fill="none" stroke="#191970" d="M581.8195,-159.7825C594.0849,-158.3053 606.614,-156.9734 618.5,-156 1121.5143,-114.8072 1250.9318,-166.3186 1753.5,-120 1769.5539,-118.5204 1786.5886,-116.3769 1802.9911,-114.0183"/>
<polygon fill="#191970" stroke="#191970" points="581.0904,-156.3461 571.5985,-161.0529 581.9538,-163.2927 581.0904,-156.3461"/>
</g>
<!-- Node11 -->
<g id="node11" class="node">
<title>Node11</title>
<g id="a_node11"><a xlink:href="_print_hex_8cpp.html" target="_top" xlink:title="/workspace/src/game\l_logic/penguin/PrintHex.cpp">
<polygon fill="none" stroke="#000000" points="527.5,-84 527.5,-114 679.5,-114 679.5,-84 527.5,-84"/>
<text text-anchor="start" x="535.5" y="-102" font-family="Helvetica,sans-Serif" font-size="10.00" fill="#000000">/workspace/src/game</text>
<text text-anchor="middle" x="603.5" y="-91" font-family="Helvetica,sans-Serif" font-size="10.00" fill="#000000">_logic/penguin/PrintHex.cpp</text>
</a>
</g>
</g>
<!-- Node6&#45;&gt;Node11 -->
<g id="edge11" class="edge">
<title>Node6&#45;&gt;Node11</title>
<path fill="none" stroke="#191970" d="M530.8617,-150.6302C547.3292,-138.9253 567.4918,-124.5941 582.3926,-114.0028"/>
<polygon fill="#191970" stroke="#191970" points="528.7576,-147.8317 522.6345,-156.478 532.813,-153.5372 528.7576,-147.8317"/>
</g>
<!-- Node13&#45;&gt;Node12 -->
<g id="edge14" class="edge">
<title>Node13&#45;&gt;Node12</title>
<path fill="none" stroke="#191970" d="M726.2208,-149.0035C737.2133,-137.6184 750.2576,-124.1083 760.0145,-114.0028"/>
<polygon fill="#191970" stroke="#191970" points="723.4321,-146.8528 719.004,-156.478 728.4679,-151.715 723.4321,-146.8528"/>
</g>
<!-- Node14 -->
<g id="node14" class="node">
<title>Node14</title>
<g id="a_node14"><a xlink:href="tic__tac__toe_2_console_game_8cpp.html" target="_top" xlink:title="/workspace/src/game\l_logic/tic_tac_toe/Console\lGame.cpp">
<polygon fill="none" stroke="#000000" points="1304,-.5 1304,-41.5 1447,-41.5 1447,-.5 1304,-.5"/>
<text text-anchor="start" x="1312" y="-29.5" font-family="Helvetica,sans-Serif" font-size="10.00" fill="#000000">/workspace/src/game</text>
<text text-anchor="start" x="1312" y="-18.5" font-family="Helvetica,sans-Serif" font-size="10.00" fill="#000000">_logic/tic_tac_toe/Console</text>
<text text-anchor="middle" x="1375.5" y="-7.5" font-family="Helvetica,sans-Serif" font-size="10.00" fill="#000000">Game.cpp</text>
</a>
</g>
</g>
<!-- Node13&#45;&gt;Node14 -->
<g id="edge15" class="edge">
<title>Node13&#45;&gt;Node14</title>
<path fill="none" stroke="#191970" d="M783.4611,-153.6041C808.965,-145.6979 836.5555,-134.7586 859.5,-120 880.924,-106.2195 875.7966,-89.5518 898.5,-78 967.7224,-42.7785 1188.7031,-28.6362 1303.9817,-23.5444"/>
<polygon fill="#191970" stroke="#191970" points="782.3837,-150.273 773.8027,-156.4874 784.3861,-156.9805 782.3837,-150.273"/>
</g>
<!-- Node15 -->
<g id="node15" class="node">
<title>Node15</title>
<g id="a_node15"><a xlink:href="_tic_tac_toe_8cpp.html" target="_top" xlink:title="/workspace/src/game\l_logic/tic_tac_toe/TicTacToe.cpp">
<polygon fill="none" stroke="#000000" points="908,-84 908,-114 1079,-114 1079,-84 908,-84"/>
<text text-anchor="start" x="916" y="-102" font-family="Helvetica,sans-Serif" font-size="10.00" fill="#000000">/workspace/src/game</text>
<text text-anchor="middle" x="993.5" y="-91" font-family="Helvetica,sans-Serif" font-size="10.00" fill="#000000">_logic/tic_tac_toe/TicTacToe.cpp</text>
</a>
</g>
</g>
<!-- Node13&#45;&gt;Node15 -->
<g id="edge16" class="edge">
<title>Node13&#45;&gt;Node15</title>
<path fill="none" stroke="#191970" d="M774.2165,-154.0106C822.9362,-141.7885 887.3129,-125.6386 933.6957,-114.0028"/>
<polygon fill="#191970" stroke="#191970" points="773.2288,-150.6498 764.381,-156.478 774.9321,-157.4394 773.2288,-150.6498"/>
</g>
<!-- Node20&#45;&gt;Node8 -->
<g id="edge37" class="edge">
<title>Node20&#45;&gt;Node8</title>
<path fill="none" stroke="#191970" d="M1506.2607,-295.3176C1557.7378,-287.0313 1618.2094,-273.4934 1635.5,-254 1653.6701,-233.515 1654.9953,-148.8519 1654.7459,-114.0461"/>
<polygon fill="#191970" stroke="#191970" points="1505.4405,-291.9032 1496.1007,-296.9051 1506.5211,-298.8193 1505.4405,-291.9032"/>
</g>
<!-- Node20&#45;&gt;Node18 -->
<g id="edge48" class="edge">
<title>Node20&#45;&gt;Node18</title>
<path fill="none" stroke="#191970" d="M1346.7811,-302.6547C1263.725,-297.996 1141.0839,-285.7936 1107.5,-254 1089.1889,-236.6651 1087.3579,-205.3821 1088.1277,-186.7191"/>
<polygon fill="#191970" stroke="#191970" points="1346.785,-306.1598 1356.9578,-303.1992 1347.1591,-299.1698 1346.785,-306.1598"/>
</g>
<!-- Node21 -->
<g id="node21" class="node">
<title>Node21</title>
<g id="a_node21"><a xlink:href="_abstract_game_8cpp.html" target="_top" xlink:title="/workspace/src/game\l_logic/AbstractGame.cpp">
<polygon fill="none" stroke="#000000" points="1260.5,-223.5 1260.5,-253.5 1398.5,-253.5 1398.5,-223.5 1260.5,-223.5"/>
<text text-anchor="start" x="1268.5" y="-241.5" font-family="Helvetica,sans-Serif" font-size="10.00" fill="#000000">/workspace/src/game</text>
<text text-anchor="middle" x="1329.5" y="-230.5" font-family="Helvetica,sans-Serif" font-size="10.00" fill="#000000">_logic/AbstractGame.cpp</text>
</a>
</g>
</g>
<!-- Node20&#45;&gt;Node21 -->
<g id="edge22" class="edge">
<title>Node20&#45;&gt;Node21</title>
<path fill="none" stroke="#191970" d="M1395.8754,-284.3469C1381.4422,-274.3776 1364.5533,-262.7121 1351.4237,-253.6432"/>
<polygon fill="#191970" stroke="#191970" points="1394.272,-287.4932 1404.4892,-290.2967 1398.2503,-281.7335 1394.272,-287.4932"/>
</g>
<!-- Node22 -->
<g id="node22" class="node">
<title>Node22</title>
<g id="a_node22"><a xlink:href="_m_c_t_s_player_8hpp.html" target="_top" xlink:title="/workspace/src/mcts\l/MCTSPlayer.hpp">
<polygon fill="none" stroke="#000000" points="1375.5,-156.5 1375.5,-186.5 1491.5,-186.5 1491.5,-156.5 1375.5,-156.5"/>
<text text-anchor="start" x="1383.5" y="-174.5" font-family="Helvetica,sans-Serif" font-size="10.00" fill="#000000">/workspace/src/mcts</text>
<text text-anchor="middle" x="1433.5" y="-163.5" font-family="Helvetica,sans-Serif" font-size="10.00" fill="#000000">/MCTSPlayer.hpp</text>
</a>
</g>
</g>
<!-- Node20&#45;&gt;Node22 -->
<g id="edge23" class="edge">
<title>Node20&#45;&gt;Node22</title>
<path fill="none" stroke="#191970" d="M1427.8142,-280.3415C1429.2523,-252.8131 1431.5112,-209.5714 1432.7028,-186.7614"/>
<polygon fill="#191970" stroke="#191970" points="1424.3159,-280.22 1427.2894,-290.389 1431.3064,-280.5852 1424.3159,-280.22"/>
</g>
<!-- Node20&#45;&gt;Node25 -->
<g id="edge30" class="edge">
<title>Node20&#45;&gt;Node25</title>
<path fill="none" stroke="#191970" d="M1362.1505,-287.6842C1323.7648,-277.0568 1275.5553,-263.7095 1239.0464,-253.6017"/>
<polygon fill="#191970" stroke="#191970" points="1361.6191,-291.1687 1372.1905,-290.4639 1363.4869,-284.4225 1361.6191,-291.1687"/>
</g>
<!-- Node26 -->
<g id="node26" class="node">
<title>Node26</title>
<g id="a_node26"><a xlink:href="_m_c_t_s_8hpp.html" target="_top" xlink:title="/workspace/src/mcts\l/MCTS.hpp">
<polygon fill="none" stroke="#000000" points="1165.5,-156.5 1165.5,-186.5 1281.5,-186.5 1281.5,-156.5 1165.5,-156.5"/>
<text text-anchor="start" x="1173.5" y="-174.5" font-family="Helvetica,sans-Serif" font-size="10.00" fill="#000000">/workspace/src/mcts</text>
<text text-anchor="middle" x="1223.5" y="-163.5" font-family="Helvetica,sans-Serif" font-size="10.00" fill="#000000">/MCTS.hpp</text>
</a>
</g>
</g>
<!-- Node20&#45;&gt;Node26 -->
<g id="edge47" class="edge">
<title>Node20&#45;&gt;Node26</title>
<path fill="none" stroke="#191970" d="M1346.7002,-297.5405C1260.1354,-288.0846 1132.2306,-271.3888 1117.5,-254 1093.9103,-226.1533 1138.7773,-201.5215 1177.2179,-186.5808"/>
<polygon fill="#191970" stroke="#191970" points="1346.4604,-301.0349 1356.7785,-298.6293 1347.2123,-294.0754 1346.4604,-301.0349"/>
</g>
<!-- Node27 -->
<g id="node27" class="node">
<title>Node27</title>
<g id="a_node27"><a xlink:href="_penguin_game_8hpp.html" target="_top" xlink:title="/workspace/src/game\l_logic/penguin/PenguinGame.hpp">
<polygon fill="none" stroke="#000000" points="1683,-223.5 1683,-253.5 1862,-253.5 1862,-223.5 1683,-223.5"/>
<text text-anchor="start" x="1691" y="-241.5" font-family="Helvetica,sans-Serif" font-size="10.00" fill="#000000">/workspace/src/game</text>
<text text-anchor="middle" x="1772.5" y="-230.5" font-family="Helvetica,sans-Serif" font-size="10.00" fill="#000000">_logic/penguin/PenguinGame.hpp</text>
</a>
</g>
</g>
<!-- Node20&#45;&gt;Node27 -->
<g id="edge38" class="edge">
<title>Node20&#45;&gt;Node27</title>
<path fill="none" stroke="#191970" d="M1506.1002,-290.0861C1562.8014,-279.1064 1638.6194,-264.4249 1694.8706,-253.5323"/>
<polygon fill="#191970" stroke="#191970" points="1505.2543,-286.6848 1496.1021,-292.0221 1506.5851,-293.5571 1505.2543,-286.6848"/>
</g>
<!-- Node20&#45;&gt;Node29 -->
<g id="edge44" class="edge">
<title>Node20&#45;&gt;Node29</title>
<path fill="none" stroke="#191970" d="M1460.7747,-285.3561C1478.0561,-275.1995 1498.67,-263.0843 1514.6071,-253.7177"/>
<polygon fill="#191970" stroke="#191970" points="1458.9317,-282.3795 1452.0838,-290.4639 1462.4786,-288.4144 1458.9317,-282.3795"/>
</g>
<!-- Node22&#45;&gt;Node8 -->
<g id="edge24" class="edge">
<title>Node22&#45;&gt;Node8</title>
<path fill="none" stroke="#191970" d="M1488.9251,-153.3175C1525.914,-141.1832 1573.9645,-125.42 1608.7673,-114.0028"/>
<polygon fill="#191970" stroke="#191970" points="1487.7021,-150.0352 1479.2913,-156.478 1489.8841,-156.6864 1487.7021,-150.0352"/>
</g>
<!-- Node22&#45;&gt;Node14 -->
<g id="edge25" class="edge">
<title>Node22&#45;&gt;Node14</title>
<path fill="none" stroke="#191970" d="M1413.1864,-148.4947C1406.654,-140.0355 1399.9605,-130.0554 1395.5,-120 1384.1238,-94.3544 1379.1553,-62.0939 1377.0288,-41.505"/>
<polygon fill="#191970" stroke="#191970" points="1410.5658,-150.8202 1419.5764,-156.3934 1416.008,-146.4176 1410.5658,-150.8202"/>
</g>
<!-- Node22&#45;&gt;Node17 -->
<g id="edge29" class="edge">
<title>Node22&#45;&gt;Node17</title>
<path fill="none" stroke="#191970" d="M1394.586,-151.9079C1370.8991,-139.9822 1341.1071,-124.9828 1319.2987,-114.0028"/>
<polygon fill="#191970" stroke="#191970" points="1393.1573,-155.1071 1403.6631,-156.478 1396.3052,-148.8548 1393.1573,-155.1071"/>
</g>
<!-- Node23 -->
<g id="node23" class="node">
<title>Node23</title>
<g id="a_node23"><a xlink:href="tic__tac__toe_2_console_game_8hpp.html" target="_top" xlink:title="/workspace/src/game\l_logic/tic_tac_toe/Console\lGame.hpp">
<polygon fill="none" stroke="#000000" points="1404,-78.5 1404,-119.5 1547,-119.5 1547,-78.5 1404,-78.5"/>
<text text-anchor="start" x="1412" y="-107.5" font-family="Helvetica,sans-Serif" font-size="10.00" fill="#000000">/workspace/src/game</text>
<text text-anchor="start" x="1412" y="-96.5" font-family="Helvetica,sans-Serif" font-size="10.00" fill="#000000">_logic/tic_tac_toe/Console</text>
<text text-anchor="middle" x="1475.5" y="-85.5" font-family="Helvetica,sans-Serif" font-size="10.00" fill="#000000">Game.hpp</text>
</a>
</g>
</g>
<!-- Node22&#45;&gt;Node23 -->
<g id="edge26" class="edge">
<title>Node22&#45;&gt;Node23</title>
<path fill="none" stroke="#191970" d="M1447.3721,-147.5541C1452.6304,-138.4774 1458.5651,-128.2329 1463.6233,-119.5015"/>
<polygon fill="#191970" stroke="#191970" points="1444.1867,-146.0706 1442.2024,-156.478 1450.2437,-149.5795 1444.1867,-146.0706"/>
</g>
<!-- Node23&#45;&gt;Node14 -->
<g id="edge27" class="edge">
<title>Node23&#45;&gt;Node14</title>
<path fill="none" stroke="#191970" d="M1440.8108,-71.9424C1428.0178,-61.9639 1413.7449,-50.831 1401.8126,-41.5239"/>
<polygon fill="#191970" stroke="#191970" points="1438.9267,-74.9116 1448.9644,-78.3022 1443.232,-69.3921 1438.9267,-74.9116"/>
</g>
<!-- Node24 -->
<g id="node24" class="node">
<title>Node24</title>
<g id="a_node24"><a xlink:href="main_8cpp.html" target="_top" xlink:title="/workspace/src/main.cpp">
<polygon fill="none" stroke="#000000" points="1584,-11.5 1584,-30.5 1721,-30.5 1721,-11.5 1584,-11.5"/>
<text text-anchor="middle" x="1652.5" y="-18.5" font-family="Helvetica,sans-Serif" font-size="10.00" fill="#000000">/workspace/src/main.cpp</text>
</a>
</g>
</g>
<!-- Node23&#45;&gt;Node24 -->
<g id="edge28" class="edge">
<title>Node23&#45;&gt;Node24</title>
<path fill="none" stroke="#191970" d="M1531.7275,-74.2218C1565.3006,-59.4269 1606.0533,-41.468 1630.598,-30.6517"/>
<polygon fill="#191970" stroke="#191970" points="1530.2075,-71.0668 1522.4681,-78.3022 1533.0303,-77.4724 1530.2075,-71.0668"/>
</g>
<!-- Node25&#45;&gt;Node17 -->
<g id="edge35" class="edge">
<title>Node25&#45;&gt;Node17</title>
<path fill="none" stroke="#191970" d="M1251.627,-219.6135C1266.9751,-212.0181 1281.4257,-201.4974 1290.5,-187 1304.443,-164.7244 1299.1987,-132.657 1294.2559,-114.0111"/>
<polygon fill="#191970" stroke="#191970" points="1250.174,-216.4293 1242.5203,-223.7555 1253.0721,-222.8012 1250.174,-216.4293"/>
</g>
<!-- Node25&#45;&gt;Node18 -->
<g id="edge36" class="edge">
<title>Node25&#45;&gt;Node18</title>
<path fill="none" stroke="#191970" d="M1154.5068,-217.3469C1140.3712,-207.3776 1123.8305,-195.7121 1110.9717,-186.6432"/>
<polygon fill="#191970" stroke="#191970" points="1152.7537,-220.3934 1162.943,-223.2967 1156.7882,-214.6729 1152.7537,-220.3934"/>
</g>
<!-- Node25&#45;&gt;Node22 -->
<g id="edge31" class="edge">
<title>Node25&#45;&gt;Node22</title>
<path fill="none" stroke="#191970" d="M1250.2072,-220.8198C1289.7845,-210.1704 1339.651,-196.7525 1377.3758,-186.6017"/>
<polygon fill="#191970" stroke="#191970" points="1249.1275,-217.4857 1240.3805,-223.4639 1250.9464,-224.2453 1249.1275,-217.4857"/>
</g>
<!-- Node25&#45;&gt;Node26 -->
<g id="edge32" class="edge">
<title>Node25&#45;&gt;Node26</title>
<path fill="none" stroke="#191970" d="M1198.4796,-214.4837C1203.8838,-205.1996 1209.9044,-194.8565 1214.6853,-186.6432"/>
<polygon fill="#191970" stroke="#191970" points="1195.3556,-212.8934 1193.3497,-223.2967 1201.4053,-216.4149 1195.3556,-212.8934"/>
</g>
<!-- Node26&#45;&gt;Node16 -->
<g id="edge33" class="edge">
<title>Node26&#45;&gt;Node16</title>
<path fill="none" stroke="#191970" d="M1202.3998,-149.0035C1191.7214,-137.6184 1179.0498,-124.1083 1169.5716,-114.0028"/>
<polygon fill="#191970" stroke="#191970" points="1200.0164,-151.5785 1209.4104,-156.478 1205.1221,-146.7897 1200.0164,-151.5785"/>
</g>
<!-- Node26&#45;&gt;Node17 -->
<g id="edge34" class="edge">
<title>Node26&#45;&gt;Node17</title>
<path fill="none" stroke="#191970" d="M1243.9796,-149.0035C1254.3439,-137.6184 1266.6428,-124.1083 1275.8423,-114.0028"/>
<polygon fill="#191970" stroke="#191970" points="1241.3189,-146.727 1237.1752,-156.478 1246.4953,-151.4393 1241.3189,-146.727"/>
</g>
<!-- Node27&#45;&gt;Node8 -->
<g id="edge39" class="edge">
<title>Node27&#45;&gt;Node8</title>
<path fill="none" stroke="#191970" d="M1716.1874,-219.2097C1700.6609,-211.4117 1685.1711,-200.8863 1674.5,-187 1658.0799,-165.6325 1654.696,-133.253 1654.2432,-114.3045"/>
<polygon fill="#191970" stroke="#191970" points="1714.7582,-222.4052 1725.2973,-223.4906 1717.7353,-216.0698 1714.7582,-222.4052"/>
</g>
<!-- Node27&#45;&gt;Node10 -->
<g id="edge43" class="edge">
<title>Node27&#45;&gt;Node10</title>
<path fill="none" stroke="#191970" d="M1829.9063,-219.1774C1845.4489,-211.4068 1860.8885,-200.9044 1871.5,-187 1887.8096,-165.6293 1890.7801,-133.2509 1890.9735,-114.3034"/>
<polygon fill="#191970" stroke="#191970" points="1828.3572,-216.0379 1820.7789,-223.442 1831.3204,-222.3798 1828.3572,-216.0379"/>
</g>
<!-- Node28 -->
<g id="node28" class="node">
<title>Node28</title>
<g id="a_node28"><a xlink:href="penguin_2_console_game_8hpp.html" target="_top" xlink:title="/workspace/src/game\l_logic/penguin/ConsoleGame.hpp">
<polygon fill="none" stroke="#000000" points="1683,-156.5 1683,-186.5 1862,-186.5 1862,-156.5 1683,-156.5"/>
<text text-anchor="start" x="1691" y="-174.5" font-family="Helvetica,sans-Serif" font-size="10.00" fill="#000000">/workspace/src/game</text>
<text text-anchor="middle" x="1772.5" y="-163.5" font-family="Helvetica,sans-Serif" font-size="10.00" fill="#000000">_logic/penguin/ConsoleGame.hpp</text>
</a>
</g>
</g>
<!-- Node27&#45;&gt;Node28 -->
<g id="edge40" class="edge">
<title>Node27&#45;&gt;Node28</title>
<path fill="none" stroke="#191970" d="M1772.5,-213.0249C1772.5,-204.128 1772.5,-194.4287 1772.5,-186.6432"/>
<polygon fill="#191970" stroke="#191970" points="1769.0001,-213.2966 1772.5,-223.2967 1776.0001,-213.2967 1769.0001,-213.2966"/>
</g>
<!-- Node28&#45;&gt;Node8 -->
<g id="edge41" class="edge">
<title>Node28&#45;&gt;Node8</title>
<path fill="none" stroke="#191970" d="M1739.3166,-151.1119C1720.125,-139.3205 1696.3938,-124.7398 1678.9184,-114.0028"/>
<polygon fill="#191970" stroke="#191970" points="1737.6978,-154.2251 1748.0503,-156.478 1741.3623,-148.2609 1737.6978,-154.2251"/>
</g>
<!-- Node28&#45;&gt;Node24 -->
<g id="edge42" class="edge">
<title>Node28&#45;&gt;Node24</title>
<path fill="none" stroke="#191970" d="M1772.9128,-146.3435C1772.0343,-126.1089 1767.9512,-97.8728 1753.5,-78 1736.3298,-54.3881 1706.2078,-39.2375 1683.3144,-30.5383"/>
<polygon fill="#191970" stroke="#191970" points="1769.4143,-146.4565 1773.1176,-156.3831 1776.4129,-146.3138 1769.4143,-146.4565"/>
</g>
<!-- Node29&#45;&gt;Node15 -->
<g id="edge46" class="edge">
<title>Node29&#45;&gt;Node15</title>
<path fill="none" stroke="#191970" d="M1474.4995,-220.6393C1441.7698,-211.3591 1401.7905,-199.3855 1366.5,-187 1332.0787,-174.9196 1325.5405,-166.1455 1290.5,-156 1202.9053,-130.6381 1177.9293,-137.8454 1088.5,-120 1079.2238,-118.149 1069.46,-116.1029 1059.8659,-114.0356"/>
<polygon fill="#191970" stroke="#191970" points="1473.8366,-224.0887 1484.411,-223.4303 1475.7341,-217.3507 1473.8366,-224.0887"/>
</g>
<!-- Node29&#45;&gt;Node23 -->
<g id="edge45" class="edge">
<title>Node29&#45;&gt;Node23</title>
<path fill="none" stroke="#191970" d="M1529.185,-214.2162C1516.7044,-187.4311 1496.8377,-144.7939 1485.0921,-119.586"/>
<polygon fill="#191970" stroke="#191970" points="1526.024,-215.7194 1533.4201,-223.3055 1532.3691,-212.7629 1526.024,-215.7194"/>
</g>
</g>
</svg>
        <g id="navigator" transform="translate(0 0)" fill="#404254">
                <rect fill="#f2f5e9" fill-opacity="0.5" stroke="#606060" stroke-width=".5" x="0" y="0" width="60" height="60"/>
                <use id="zoomplus" xlink:href="#zoomPlus" x="17" y="9" onmousedown="handleZoom(evt,'in')"/>
                <use id="zoomminus" xlink:href="#zoomMin" x="42" y="9" onmousedown="handleZoom(evt,'out')"/>
                <use id="reset" xlink:href="#resetDef" x="30" y="36" onmousedown="handleReset()"/>
                <g id="arrowUp" xlink:href="#dirArrow" transform="translate(30 24)" onmousedown="handlePan(0,-1)">
                  <use xlink:href="#rim" fill="#404040">
                        <set attributeName="fill" to="#808080" begin="arrowUp.mouseover" end="arrowUp.mouseout"/>
                  </use>
                  <path fill="none" stroke="white" stroke-width="1.5" d="M0,-3.0v7 M-2.5,-0.5L0,-3.0L2.5,-0.5"/>
                </g>
                <g id="arrowRight" xlink:href="#dirArrow" transform="rotate(90) translate(36 -43)" onmousedown="handlePan(1,0)">
                  <use xlink:href="#rim" fill="#404040">
                        <set attributeName="fill" to="#808080" begin="arrowRight.mouseover" end="arrowRight.mouseout"/>
                  </use>
                  <path fill="none" stroke="white" stroke-width="1.5" d="M0,-3.0v7 M-2.5,-0.5L0,-3.0L2.5,-0.5"/>
                </g>
                <g id="arrowDown" xlink:href="#dirArrow" transform="rotate(180) translate(-30 -48)" onmousedown="handlePan(0,1)">
                  <use xlink:href="#rim" fill="#404040">
                        <set attributeName="fill" to="#808080" begin="arrowDown.mouseover" end="arrowDown.mouseout"/>
                  </use>
                  <path fill="none" stroke="white" stroke-width="1.5" d="M0,-3.0v7 M-2.5,-0.5L0,-3.0L2.5,-0.5"/>
                </g>
                <g id="arrowLeft" xlink:href="#dirArrow" transform="rotate(270) translate(-36 17)" onmousedown="handlePan(-1,0)">
                  <use xlink:href="#rim" fill="#404040">
                        <set attributeName="fill" to="#808080" begin="arrowLeft.mouseover" end="arrowLeft.mouseout"/>
                  </use>
                  <path fill="none" stroke="white" stroke-width="1.5" d="M0,-3.0v7 M-2.5,-0.5L0,-3.0L2.5,-0.5"/>
                </g>
        </g>
        <svg viewBox="0 0 15 15" width="100%" height="30px" preserveAspectRatio="xMaxYMin meet">
         <g id="arrow_out" transform="scale(0.3 0.3)">
          <a xlink:href="_move_8hpp__dep__incl_org.svg" target="_base">
           <rect id="button" ry="5" rx="5" y="6" x="6" height="38" width="38"
                fill="#f2f5e9" fill-opacity="0.5" stroke="#606060" stroke-width="1.0"/>
           <path id="arrow"
             d="M 11.500037,31.436501 C 11.940474,20.09759 22.043105,11.32322 32.158766,21.979434 L 37.068811,17.246167 C 37.068811,17.246167 37.088388,32 37.088388,32 L 22.160133,31.978069 C 22.160133,31.978069 26.997745,27.140456 26.997745,27.140456 C 18.528582,18.264221 13.291696,25.230495 11.500037,31.436501 z"
             style="fill:#404040;"/>
          </a>
         </g>
        </svg>
</svg>
