<?xml version="1.0" encoding="UTF-8" standalone="no"?>
<!DOCTYPE svg PUBLIC "-//W3C//DTD SVG 1.1//EN"
 "http://www.w3.org/Graphics/SVG/1.1/DTD/svg11.dtd">
<!-- Generated by graphviz version 2.40.1 (20161225.0304)
 -->
<!-- Title: /workspace/src/game_logic/penguin/PenguinGame.hpp Pages: 1 -->
<svg width="234pt" height="151pt"
 viewBox="0.00 0.00 233.50 151.00" xmlns="http://www.w3.org/2000/svg" xmlns:xlink="http://www.w3.org/1999/xlink">
<g id="graph0" class="graph" transform="scale(1 1) rotate(0) translate(4 147)">
<title>/workspace/src/game_logic/penguin/PenguinGame.hpp</title>
<!-- Node0 -->
<g id="node1" class="node">
<title>Node0</title>
<polygon fill="#bfbfbf" stroke="#000000" points="0,-112.5 0,-142.5 179,-142.5 179,-112.5 0,-112.5"/>
<text text-anchor="start" x="8" y="-130.5" font-family="Helvetica,sans-Serif" font-size="10.00" fill="#000000">/workspace/src/game</text>
<text text-anchor="middle" x="89.5" y="-119.5" font-family="Helvetica,sans-Serif" font-size="10.00" fill="#000000">_logic/penguin/PenguinGame.hpp</text>
</g>
<!-- Node1 -->
<g id="node2" class="node">
<title>Node1</title>
<polygon fill="none" stroke="#bfbfbf" points="18.5,-56.5 18.5,-75.5 62.5,-75.5 62.5,-56.5 18.5,-56.5"/>
<text text-anchor="middle" x="40.5" y="-63.5" font-family="Helvetica,sans-Serif" font-size="10.00" fill="#000000">limits</text>
</g>
<!-- Node0&#45;&gt;Node1 -->
<g id="edge1" class="edge">
<title>Node0&#45;&gt;Node1</title>
<path fill="none" stroke="#191970" d="M77.3876,-112.2977C70.5151,-103.672 61.8777,-92.8312 54.689,-83.8087"/>
<polygon fill="#191970" stroke="#191970" points="57.3144,-81.487 48.3455,-75.8469 51.8396,-85.849 57.3144,-81.487"/>
</g>
<!-- Node2 -->
<g id="node3" class="node">
<title>Node2</title>
<g id="a_node3"><a xlink:href="_abstract_game_8hpp.html" target="_top" xlink:title="../AbstractGame.hpp">
<polygon fill="none" stroke="#000000" points="80.5,-56.5 80.5,-75.5 196.5,-75.5 196.5,-56.5 80.5,-56.5"/>
<text text-anchor="middle" x="138.5" y="-63.5" font-family="Helvetica,sans-Serif" font-size="10.00" fill="#000000">../AbstractGame.hpp</text>
</a>
</g>
</g>
<!-- Node0&#45;&gt;Node2 -->
<g id="edge2" class="edge">
<title>Node0&#45;&gt;Node2</title>
<path fill="none" stroke="#191970" d="M101.6124,-112.2977C108.4849,-103.672 117.1223,-92.8312 124.311,-83.8087"/>
<polygon fill="#191970" stroke="#191970" points="127.1604,-85.849 130.6545,-75.8469 121.6856,-81.487 127.1604,-85.849"/>
</g>
<!-- Node3 -->
<g id="node4" class="node">
<title>Node3</title>
<polygon fill="none" stroke="#bfbfbf" points="72,-.5 72,-19.5 119,-19.5 119,-.5 72,-.5"/>
<text text-anchor="middle" x="95.5" y="-7.5" font-family="Helvetica,sans-Serif" font-size="10.00" fill="#000000">vector</text>
</g>
<!-- Node2&#45;&gt;Node3 -->
<g id="edge3" class="edge">
<title>Node2&#45;&gt;Node3</title>
<path fill="none" stroke="#191970" d="M131.01,-56.2455C124.9674,-48.3761 116.3097,-37.101 109.0559,-27.6542"/>
<polygon fill="#191970" stroke="#191970" points="111.7705,-25.4426 102.9042,-19.6427 106.2185,-29.7058 111.7705,-25.4426"/>
</g>
<!-- Node4 -->
<g id="node5" class="node">
<title>Node4</title>
<g id="a_node5"><a xlink:href="_move_8hpp.html" target="_top" xlink:title="utils/Move.hpp">
<polygon fill="none" stroke="#000000" points="137.5,-.5 137.5,-19.5 225.5,-19.5 225.5,-.5 137.5,-.5"/>
<text text-anchor="middle" x="181.5" y="-7.5" font-family="Helvetica,sans-Serif" font-size="10.00" fill="#000000">utils/Move.hpp</text>
</a>
</g>
</g>
<!-- Node2&#45;&gt;Node4 -->
<g id="edge4" class="edge">
<title>Node2&#45;&gt;Node4</title>
<path fill="none" stroke="#191970" d="M145.99,-56.2455C152.0326,-48.3761 160.6903,-37.101 167.9441,-27.6542"/>
<polygon fill="#191970" stroke="#191970" points="170.7815,-29.7058 174.0958,-19.6427 165.2295,-25.4426 170.7815,-29.7058"/>
</g>
</g>
</svg>
