<?xml version="1.0" encoding="UTF-8" standalone="no"?>
<!DOCTYPE svg PUBLIC "-//W3C//DTD SVG 1.1//EN"
 "http://www.w3.org/Graphics/SVG/1.1/DTD/svg11.dtd">
<!-- Generated by graphviz version 2.40.1 (20161225.0304)
 -->
<!-- Title: /workspace/src/game_logic/penguin/PenguinGame.cpp Pages: 1 -->
<!--zoomable 263 -->
<svg id="main" version="1.1" xmlns="http://www.w3.org/2000/svg" xmlns:xlink="http://www.w3.org/1999/xlink" xml:space="preserve" onload="init(evt)">
<style type="text/css"><![CDATA[
.edge:hover path { stroke: red; }
.edge:hover polygon { stroke: red; fill: red; }
]]></style>
<script type="text/javascript"><![CDATA[
var edges = document.getElementsByTagName('g');
if (edges && edges.length) {
  for (var i=0;i<edges.length;i++) {
    if (edges[i].id.substr(0,4)=='edge') {
      edges[i].setAttribute('class','edge');
    }
  }
}
]]></script>
        <defs>
                <circle id="rim" cx="0" cy="0" r="7"/>
                <circle id="rim2" cx="0" cy="0" r="3.5"/>
                <g id="zoomPlus">
                        <use xlink:href="#rim" fill="#404040">
                                <set attributeName="fill" to="#808080" begin="zoomplus.mouseover" end="zoomplus.mouseout"/>
                        </use>
                        <path d="M-4,0h8M0,-4v8" fill="none" stroke="white" stroke-width="1.5" pointer-events="none"/>
                </g>
                <g id="zoomMin">
                        <use xlink:href="#rim" fill="#404040">
                                <set attributeName="fill" to="#808080" begin="zoomminus.mouseover" end="zoomminus.mouseout"/>
                        </use>
                        <path d="M-4,0h8" fill="none" stroke="white" stroke-width="1.5" pointer-events="none"/>
                </g>
                <g id="dirArrow">
                        <path fill="none" stroke="white" stroke-width="1.5" d="M0,-3.0v7 M-2.5,-0.5L0,-3.0L2.5,-0.5"/>
                </g>
               <g id="resetDef">
                       <use xlink:href="#rim2" fill="#404040">
                               <set attributeName="fill" to="#808080" begin="reset.mouseover" end="reset.mouseout"/>
                       </use>
               </g>
        </defs>

<script type="text/javascript">
var viewWidth = 1099;
var viewHeight = 263;
var sectionId = 'dynsection-0';
</script>
<script xlink:href="svgpan.js"/>
<svg id="graph" class="graph">
<g id="viewport">
<title>/workspace/src/game_logic/penguin/PenguinGame.cpp</title>
<!-- Node0 -->
<g id="node1" class="node">
<title>Node0</title>
<polygon fill="#bfbfbf" stroke="#000000" points="195.5,-224.5 195.5,-254.5 374.5,-254.5 374.5,-224.5 195.5,-224.5"/>
<text text-anchor="start" x="203.5" y="-242.5" font-family="Helvetica,sans-Serif" font-size="10.00" fill="#000000">/workspace/src/game</text>
<text text-anchor="middle" x="285" y="-231.5" font-family="Helvetica,sans-Serif" font-size="10.00" fill="#000000">_logic/penguin/PenguinGame.cpp</text>
</g>
<!-- Node1 -->
<g id="node2" class="node">
<title>Node1</title>
<polygon fill="none" stroke="#bfbfbf" points="0,-168.5 0,-187.5 64,-187.5 64,-168.5 0,-168.5"/>
<text text-anchor="middle" x="32" y="-175.5" font-family="Helvetica,sans-Serif" font-size="10.00" fill="#000000">algorithm</text>
</g>
<!-- Node0&#45;&gt;Node1 -->
<g id="edge1" class="edge">
<title>Node0&#45;&gt;Node1</title>
<path fill="none" stroke="#191970" d="M222.8442,-224.4168C182.9815,-214.7397 129.8464,-201.8338 74.2641,-188.3063"/>
<polygon fill="#191970" stroke="#191970" points="74.7724,-184.8279 64.2283,-185.8635 73.1168,-191.6293 74.7724,-184.8279"/>
</g>
<!-- Node2 -->
<g id="node3" class="node">
<title>Node2</title>
<polygon fill="none" stroke="#bfbfbf" points="82,-168.5 82,-187.5 138,-187.5 138,-168.5 82,-168.5"/>
<text text-anchor="middle" x="110" y="-175.5" font-family="Helvetica,sans-Serif" font-size="10.00" fill="#000000">assert.h</text>
</g>
<!-- Node0&#45;&gt;Node2 -->
<g id="edge2" class="edge">
<title>Node0&#45;&gt;Node2</title>
<path fill="none" stroke="#191970" d="M242.1902,-224.4554C212.991,-214.194 174.7157,-200.7429 146.8698,-190.9571"/>
<polygon fill="#191970" stroke="#191970" points="147.7136,-187.5439 137.1188,-187.5303 145.3927,-194.1479 147.7136,-187.5439"/>
</g>
<!-- Node3 -->
<g id="node4" class="node">
<title>Node3</title>
<polygon fill="none" stroke="#bfbfbf" points="156,-168.5 156,-187.5 216,-187.5 216,-168.5 156,-168.5"/>
<text text-anchor="middle" x="186" y="-175.5" font-family="Helvetica,sans-Serif" font-size="10.00" fill="#000000">iostream</text>
</g>
<!-- Node0&#45;&gt;Node3 -->
<g id="edge3" class="edge">
<title>Node0&#45;&gt;Node3</title>
<path fill="none" stroke="#191970" d="M260.7819,-224.4554C245.4227,-214.9141 225.6243,-202.6151 210.2575,-193.0691"/>
<polygon fill="#191970" stroke="#191970" points="211.6828,-189.8341 201.3415,-187.5303 207.989,-195.7802 211.6828,-189.8341"/>
</g>
<!-- Node4 -->
<g id="node5" class="node">
<title>Node4</title>
<g id="a_node5"><a xlink:href="_move_8hpp.html" target="_top" xlink:title="../utils/Move.hpp">
<polygon fill="none" stroke="#000000" points="278.5,-.5 278.5,-19.5 375.5,-19.5 375.5,-.5 278.5,-.5"/>
<text text-anchor="middle" x="327" y="-7.5" font-family="Helvetica,sans-Serif" font-size="10.00" fill="#000000">../utils/Move.hpp</text>
</a>
</g>
</g>
<!-- Node0&#45;&gt;Node4 -->
<g id="edge4" class="edge">
<title>Node0&#45;&gt;Node4</title>
<path fill="none" stroke="#191970" d="M277.3577,-224.353C266.2258,-200.2343 248.1081,-151.7646 260,-112 269.9414,-78.7577 294.5818,-46.305 311.0468,-27.2353"/>
<polygon fill="#191970" stroke="#191970" points="313.7241,-29.4915 317.7452,-19.6894 308.489,-24.8445 313.7241,-29.4915"/>
</g>
<!-- Node5 -->
<g id="node6" class="node">
<title>Node5</title>
<g id="a_node6"><a xlink:href="penguin_2_board_8hpp.html" target="_top" xlink:title="Board.hpp">
<polygon fill="none" stroke="#000000" points="702,-168.5 702,-187.5 768,-187.5 768,-168.5 702,-168.5"/>
<text text-anchor="middle" x="735" y="-175.5" font-family="Helvetica,sans-Serif" font-size="10.00" fill="#000000">Board.hpp</text>
</a>
</g>
</g>
<!-- Node0&#45;&gt;Node5 -->
<g id="edge5" class="edge">
<title>Node0&#45;&gt;Node5</title>
<path fill="none" stroke="#191970" d="M374.713,-227.2392C470.7555,-214.1134 619.1074,-193.8387 691.8245,-183.9007"/>
<polygon fill="#191970" stroke="#191970" points="692.5552,-187.3334 701.9892,-182.5115 691.6073,-180.3979 692.5552,-187.3334"/>
</g>
<!-- Node13 -->
<g id="node14" class="node">
<title>Node13</title>
<g id="a_node14"><a xlink:href="_penguin_pawn_8hpp.html" target="_top" xlink:title="PenguinPawn.hpp">
<polygon fill="none" stroke="#000000" points="885,-168.5 885,-187.5 987,-187.5 987,-168.5 885,-168.5"/>
<text text-anchor="middle" x="936" y="-175.5" font-family="Helvetica,sans-Serif" font-size="10.00" fill="#000000">PenguinPawn.hpp</text>
</a>
</g>
</g>
<!-- Node0&#45;&gt;Node13 -->
<g id="edge16" class="edge">
<title>Node0&#45;&gt;Node13</title>
<path fill="none" stroke="#191970" d="M374.8353,-231.0133C509.2526,-218.3148 759.2351,-194.699 874.6671,-183.7941"/>
<polygon fill="#191970" stroke="#191970" points="875.1177,-187.2672 884.7442,-182.8421 874.4593,-180.2983 875.1177,-187.2672"/>
</g>
<!-- Node15 -->
<g id="node16" class="node">
<title>Node15</title>
<g id="a_node16"><a xlink:href="_human_player_8hpp.html" target="_top" xlink:title="HumanPlayer.hpp">
<polygon fill="none" stroke="#000000" points="423.5,-168.5 423.5,-187.5 526.5,-187.5 526.5,-168.5 423.5,-168.5"/>
<text text-anchor="middle" x="475" y="-175.5" font-family="Helvetica,sans-Serif" font-size="10.00" fill="#000000">HumanPlayer.hpp</text>
</a>
</g>
</g>
<!-- Node0&#45;&gt;Node15 -->
<g id="edge18" class="edge">
<title>Node0&#45;&gt;Node15</title>
<path fill="none" stroke="#191970" d="M331.4792,-224.4554C363.4593,-214.104 405.4671,-200.5067 435.7629,-190.7004"/>
<polygon fill="#191970" stroke="#191970" points="437.1206,-193.9398 445.5567,-187.5303 434.9649,-187.28 437.1206,-193.9398"/>
</g>
<!-- Node17 -->
<g id="node18" class="node">
<title>Node17</title>
<g id="a_node18"><a xlink:href="_penguin_game_8hpp.html" target="_top" xlink:title="PenguinGame.hpp">
<polygon fill="none" stroke="#000000" points="274,-168.5 274,-187.5 380,-187.5 380,-168.5 274,-168.5"/>
<text text-anchor="middle" x="327" y="-175.5" font-family="Helvetica,sans-Serif" font-size="10.00" fill="#000000">PenguinGame.hpp</text>
</a>
</g>
</g>
<!-- Node0&#45;&gt;Node17 -->
<g id="edge21" class="edge">
<title>Node0&#45;&gt;Node17</title>
<path fill="none" stroke="#191970" d="M295.382,-224.2977C301.1513,-215.8498 308.3716,-205.2773 314.4553,-196.369"/>
<polygon fill="#191970" stroke="#191970" points="317.5259,-198.0788 320.2753,-187.8469 311.7453,-194.1311 317.5259,-198.0788"/>
</g>
<!-- Node6 -->
<g id="node7" class="node">
<title>Node6</title>
<polygon fill="none" stroke="#bfbfbf" points="774.5,-56.5 774.5,-75.5 867.5,-75.5 867.5,-56.5 774.5,-56.5"/>
<text text-anchor="middle" x="821" y="-63.5" font-family="Helvetica,sans-Serif" font-size="10.00" fill="#000000">unordered_map</text>
</g>
<!-- Node5&#45;&gt;Node6 -->
<g id="edge6" class="edge">
<title>Node5&#45;&gt;Node6</title>
<path fill="none" stroke="#191970" d="M756.0545,-168.4265C770.949,-160.6271 790.2818,-148.2514 802,-132 811.7949,-118.4159 816.5612,-99.8708 818.8683,-85.8972"/>
<polygon fill="#191970" stroke="#191970" points="822.3547,-86.2347 820.2405,-75.853 815.4191,-85.2872 822.3547,-86.2347"/>
</g>
<!-- Node7 -->
<g id="node8" class="node">
<title>Node7</title>
<polygon fill="none" stroke="#bfbfbf" points="493.5,-56.5 493.5,-75.5 540.5,-75.5 540.5,-56.5 493.5,-56.5"/>
<text text-anchor="middle" x="517" y="-63.5" font-family="Helvetica,sans-Serif" font-size="10.00" fill="#000000">vector</text>
</g>
<!-- Node5&#45;&gt;Node7 -->
<g id="edge7" class="edge">
<title>Node5&#45;&gt;Node7</title>
<path fill="none" stroke="#191970" d="M721.5242,-168.4525C701.9652,-154.848 664.294,-129.5878 630,-112 604.0601,-98.6966 573.3502,-86.4017 550.4972,-77.8762"/>
<polygon fill="#191970" stroke="#191970" points="551.5022,-74.5167 540.9087,-74.348 549.0848,-81.086 551.5022,-74.5167"/>
</g>
<!-- Node8 -->
<g id="node9" class="node">
<title>Node8</title>
<g id="a_node9"><a xlink:href="_position_8hpp.html" target="_top" xlink:title="../utils/Position.hpp">
<polygon fill="none" stroke="#000000" points="849,-112.5 849,-131.5 959,-131.5 959,-112.5 849,-112.5"/>
<text text-anchor="middle" x="904" y="-119.5" font-family="Helvetica,sans-Serif" font-size="10.00" fill="#000000">../utils/Position.hpp</text>
</a>
</g>
</g>
<!-- Node5&#45;&gt;Node8 -->
<g id="edge8" class="edge">
<title>Node5&#45;&gt;Node8</title>
<path fill="none" stroke="#191970" d="M764.0521,-168.3733C792.1543,-159.0613 834.9054,-144.8953 865.7607,-134.671"/>
<polygon fill="#191970" stroke="#191970" points="866.9355,-137.969 875.327,-131.5011 864.7336,-131.3243 866.9355,-137.969"/>
</g>
<!-- Node10 -->
<g id="node11" class="node">
<title>Node10</title>
<g id="a_node11"><a xlink:href="_abstract_board_8hpp.html" target="_top" xlink:title="../AbstractBoard.hpp">
<polygon fill="none" stroke="#000000" points="677,-112.5 677,-131.5 793,-131.5 793,-112.5 677,-112.5"/>
<text text-anchor="middle" x="735" y="-119.5" font-family="Helvetica,sans-Serif" font-size="10.00" fill="#000000">../AbstractBoard.hpp</text>
</a>
</g>
</g>
<!-- Node5&#45;&gt;Node10 -->
<g id="edge11" class="edge">
<title>Node5&#45;&gt;Node10</title>
<path fill="none" stroke="#191970" d="M735,-168.2455C735,-160.9382 735,-150.6944 735,-141.7046"/>
<polygon fill="#191970" stroke="#191970" points="738.5001,-141.6426 735,-131.6427 731.5001,-141.6427 738.5001,-141.6426"/>
</g>
<!-- Node8&#45;&gt;Node6 -->
<g id="edge10" class="edge">
<title>Node8&#45;&gt;Node6</title>
<path fill="none" stroke="#191970" d="M889.5425,-112.2455C876.9268,-103.7337 858.4056,-91.2375 843.7955,-81.3801"/>
<polygon fill="#191970" stroke="#191970" points="845.5391,-78.3343 835.2918,-75.6427 841.6239,-84.1371 845.5391,-78.3343"/>
</g>
<!-- Node9 -->
<g id="node10" class="node">
<title>Node9</title>
<polygon fill="none" stroke="#bfbfbf" points="885.5,-56.5 885.5,-75.5 938.5,-75.5 938.5,-56.5 885.5,-56.5"/>
<text text-anchor="middle" x="912" y="-63.5" font-family="Helvetica,sans-Serif" font-size="10.00" fill="#000000">stdlib.h</text>
</g>
<!-- Node8&#45;&gt;Node9 -->
<g id="edge9" class="edge">
<title>Node8&#45;&gt;Node9</title>
<path fill="none" stroke="#191970" d="M905.3935,-112.2455C906.4374,-104.9382 907.9008,-94.6944 909.1851,-85.7046"/>
<polygon fill="#191970" stroke="#191970" points="912.673,-86.0372 910.6225,-75.6427 905.7434,-85.0472 912.673,-86.0372"/>
</g>
<!-- Node10&#45;&gt;Node7 -->
<g id="edge12" class="edge">
<title>Node10&#45;&gt;Node7</title>
<path fill="none" stroke="#191970" d="M697.5245,-112.3733C656.0887,-101.7292 589.9635,-84.7429 550.2875,-74.5509"/>
<polygon fill="#191970" stroke="#191970" points="551.1176,-71.1506 540.5613,-72.0524 549.376,-77.9305 551.1176,-71.1506"/>
</g>
<!-- Node11 -->
<g id="node12" class="node">
<title>Node11</title>
<g id="a_node12"><a xlink:href="_history_8hpp.html" target="_top" xlink:title="History.hpp">
<polygon fill="none" stroke="#000000" points="642.5,-56.5 642.5,-75.5 713.5,-75.5 713.5,-56.5 642.5,-56.5"/>
<text text-anchor="middle" x="678" y="-63.5" font-family="Helvetica,sans-Serif" font-size="10.00" fill="#000000">History.hpp</text>
</a>
</g>
</g>
<!-- Node10&#45;&gt;Node11 -->
<g id="edge13" class="edge">
<title>Node10&#45;&gt;Node11</title>
<path fill="none" stroke="#191970" d="M725.0714,-112.2455C716.8162,-104.1352 704.8791,-92.4075 695.0918,-82.7919"/>
<polygon fill="#191970" stroke="#191970" points="697.4011,-80.1542 687.8149,-75.6427 692.4954,-85.1476 697.4011,-80.1542"/>
</g>
<!-- Node11&#45;&gt;Node4 -->
<g id="edge15" class="edge">
<title>Node11&#45;&gt;Node4</title>
<path fill="none" stroke="#191970" d="M642.4126,-60.3222C581.9889,-50.682 458.7746,-31.0239 385.5103,-19.335"/>
<polygon fill="#191970" stroke="#191970" points="385.9422,-15.8597 375.5156,-17.7404 384.8393,-22.7723 385.9422,-15.8597"/>
</g>
<!-- Node12 -->
<g id="node13" class="node">
<title>Node12</title>
<polygon fill="none" stroke="#bfbfbf" points="656.5,-.5 656.5,-19.5 699.5,-19.5 699.5,-.5 656.5,-.5"/>
<text text-anchor="middle" x="678" y="-7.5" font-family="Helvetica,sans-Serif" font-size="10.00" fill="#000000">stack</text>
</g>
<!-- Node11&#45;&gt;Node12 -->
<g id="edge14" class="edge">
<title>Node11&#45;&gt;Node12</title>
<path fill="none" stroke="#191970" d="M678,-56.2455C678,-48.9382 678,-38.6944 678,-29.7046"/>
<polygon fill="#191970" stroke="#191970" points="681.5001,-29.6426 678,-19.6427 674.5001,-29.6427 681.5001,-29.6426"/>
</g>
<!-- Node14 -->
<g id="node15" class="node">
<title>Node14</title>
<g id="a_node15"><a xlink:href="_abstract_pawn_8hpp.html" target="_top" xlink:title="../AbstractPawn.hpp">
<polygon fill="none" stroke="#000000" points="977.5,-112.5 977.5,-131.5 1090.5,-131.5 1090.5,-112.5 977.5,-112.5"/>
<text text-anchor="middle" x="1034" y="-119.5" font-family="Helvetica,sans-Serif" font-size="10.00" fill="#000000">../AbstractPawn.hpp</text>
</a>
</g>
</g>
<!-- Node13&#45;&gt;Node14 -->
<g id="edge17" class="edge">
<title>Node13&#45;&gt;Node14</title>
<path fill="none" stroke="#191970" d="M953.0703,-168.2455C968.247,-159.5731 990.6621,-146.7645 1008.0563,-136.825"/>
<polygon fill="#191970" stroke="#191970" points="1010.1794,-139.643 1017.1253,-131.6427 1006.7064,-133.5653 1010.1794,-139.643"/>
</g>
<!-- Node15&#45;&gt;Node7 -->
<g id="edge19" class="edge">
<title>Node15&#45;&gt;Node7</title>
<path fill="none" stroke="#191970" d="M477.4053,-168.4477C480.7823,-155.4734 487.3766,-131.6449 495,-112 498.5519,-102.8471 503.1553,-92.9912 507.2325,-84.7593"/>
<polygon fill="#191970" stroke="#191970" points="510.4356,-86.1816 511.8388,-75.68 504.193,-83.0144 510.4356,-86.1816"/>
</g>
<!-- Node16 -->
<g id="node17" class="node">
<title>Node16</title>
<g id="a_node17"><a xlink:href="_abstract_player_8hpp.html" target="_top" xlink:title="../AbstractPlayer.hpp">
<polygon fill="none" stroke="#000000" points="503.5,-112.5 503.5,-131.5 620.5,-131.5 620.5,-112.5 503.5,-112.5"/>
<text text-anchor="middle" x="562" y="-119.5" font-family="Helvetica,sans-Serif" font-size="10.00" fill="#000000">../AbstractPlayer.hpp</text>
</a>
</g>
</g>
<!-- Node15&#45;&gt;Node16 -->
<g id="edge20" class="edge">
<title>Node15&#45;&gt;Node16</title>
<path fill="none" stroke="#191970" d="M490.1542,-168.2455C503.5027,-159.6534 523.1586,-147.0014 538.5383,-137.1018"/>
<polygon fill="#191970" stroke="#191970" points="540.5051,-139.9982 547.0194,-131.6427 536.7164,-134.1121 540.5051,-139.9982"/>
</g>
<!-- Node18 -->
<g id="node19" class="node">
<title>Node18</title>
<polygon fill="none" stroke="#bfbfbf" points="403,-112.5 403,-131.5 447,-131.5 447,-112.5 403,-112.5"/>
<text text-anchor="middle" x="425" y="-119.5" font-family="Helvetica,sans-Serif" font-size="10.00" fill="#000000">limits</text>
</g>
<!-- Node17&#45;&gt;Node18 -->
<g id="edge22" class="edge">
<title>Node17&#45;&gt;Node18</title>
<path fill="none" stroke="#191970" d="M344.0703,-168.2455C359.247,-159.5731 381.6621,-146.7645 399.0563,-136.825"/>
<polygon fill="#191970" stroke="#191970" points="401.1794,-139.643 408.1253,-131.6427 397.7064,-133.5653 401.1794,-139.643"/>
</g>
<!-- Node19 -->
<g id="node20" class="node">
<title>Node19</title>
<g id="a_node20"><a xlink:href="_abstract_game_8hpp.html" target="_top" xlink:title="../AbstractGame.hpp">
<polygon fill="none" stroke="#000000" points="269,-112.5 269,-131.5 385,-131.5 385,-112.5 269,-112.5"/>
<text text-anchor="middle" x="327" y="-119.5" font-family="Helvetica,sans-Serif" font-size="10.00" fill="#000000">../AbstractGame.hpp</text>
</a>
</g>
</g>
<!-- Node17&#45;&gt;Node19 -->
<g id="edge23" class="edge">
<title>Node17&#45;&gt;Node19</title>
<path fill="none" stroke="#191970" d="M327,-168.2455C327,-160.9382 327,-150.6944 327,-141.7046"/>
<polygon fill="#191970" stroke="#191970" points="330.5001,-141.6426 327,-131.6427 323.5001,-141.6427 330.5001,-141.6426"/>
</g>
<!-- Node19&#45;&gt;Node4 -->
<g id="edge25" class="edge">
<title>Node19&#45;&gt;Node4</title>
<path fill="none" stroke="#191970" d="M327,-112.4509C327,-94.184 327,-53.9553 327,-29.6976"/>
<polygon fill="#191970" stroke="#191970" points="330.5001,-29.5249 327,-19.5249 323.5001,-29.5249 330.5001,-29.5249"/>
</g>
<!-- Node19&#45;&gt;Node7 -->
<g id="edge24" class="edge">
<title>Node19&#45;&gt;Node7</title>
<path fill="none" stroke="#191970" d="M359.6622,-112.3733C394.3303,-102.1553 448.8285,-86.0927 483.7273,-75.8067"/>
<polygon fill="#191970" stroke="#191970" points="484.8488,-79.1251 493.4513,-72.9407 482.8697,-72.4107 484.8488,-79.1251"/>
</g>
</g>
</svg>
        <g id="navigator" transform="translate(0 0)" fill="#404254">
                <rect fill="#f2f5e9" fill-opacity="0.5" stroke="#606060" stroke-width=".5" x="0" y="0" width="60" height="60"/>
                <use id="zoomplus" xlink:href="#zoomPlus" x="17" y="9" onmousedown="handleZoom(evt,'in')"/>
                <use id="zoomminus" xlink:href="#zoomMin" x="42" y="9" onmousedown="handleZoom(evt,'out')"/>
                <use id="reset" xlink:href="#resetDef" x="30" y="36" onmousedown="handleReset()"/>
                <g id="arrowUp" xlink:href="#dirArrow" transform="translate(30 24)" onmousedown="handlePan(0,-1)">
                  <use xlink:href="#rim" fill="#404040">
                        <set attributeName="fill" to="#808080" begin="arrowUp.mouseover" end="arrowUp.mouseout"/>
                  </use>
                  <path fill="none" stroke="white" stroke-width="1.5" d="M0,-3.0v7 M-2.5,-0.5L0,-3.0L2.5,-0.5"/>
                </g>
                <g id="arrowRight" xlink:href="#dirArrow" transform="rotate(90) translate(36 -43)" onmousedown="handlePan(1,0)">
                  <use xlink:href="#rim" fill="#404040">
                        <set attributeName="fill" to="#808080" begin="arrowRight.mouseover" end="arrowRight.mouseout"/>
                  </use>
                  <path fill="none" stroke="white" stroke-width="1.5" d="M0,-3.0v7 M-2.5,-0.5L0,-3.0L2.5,-0.5"/>
                </g>
                <g id="arrowDown" xlink:href="#dirArrow" transform="rotate(180) translate(-30 -48)" onmousedown="handlePan(0,1)">
                  <use xlink:href="#rim" fill="#404040">
                        <set attributeName="fill" to="#808080" begin="arrowDown.mouseover" end="arrowDown.mouseout"/>
                  </use>
                  <path fill="none" stroke="white" stroke-width="1.5" d="M0,-3.0v7 M-2.5,-0.5L0,-3.0L2.5,-0.5"/>
                </g>
                <g id="arrowLeft" xlink:href="#dirArrow" transform="rotate(270) translate(-36 17)" onmousedown="handlePan(-1,0)">
                  <use xlink:href="#rim" fill="#404040">
                        <set attributeName="fill" to="#808080" begin="arrowLeft.mouseover" end="arrowLeft.mouseout"/>
                  </use>
                  <path fill="none" stroke="white" stroke-width="1.5" d="M0,-3.0v7 M-2.5,-0.5L0,-3.0L2.5,-0.5"/>
                </g>
        </g>
        <svg viewBox="0 0 15 15" width="100%" height="30px" preserveAspectRatio="xMaxYMin meet">
         <g id="arrow_out" transform="scale(0.3 0.3)">
          <a xlink:href="_penguin_game_8cpp__incl_org.svg" target="_base">
           <rect id="button" ry="5" rx="5" y="6" x="6" height="38" width="38"
                fill="#f2f5e9" fill-opacity="0.5" stroke="#606060" stroke-width="1.0"/>
           <path id="arrow"
             d="M 11.500037,31.436501 C 11.940474,20.09759 22.043105,11.32322 32.158766,21.979434 L 37.068811,17.246167 C 37.068811,17.246167 37.088388,32 37.088388,32 L 22.160133,31.978069 C 22.160133,31.978069 26.997745,27.140456 26.997745,27.140456 C 18.528582,18.264221 13.291696,25.230495 11.500037,31.436501 z"
             style="fill:#404040;"/>
          </a>
         </g>
        </svg>
</svg>
