<?xml version="1.0" encoding="UTF-8" standalone="no"?>
<!DOCTYPE svg PUBLIC "-//W3C//DTD SVG 1.1//EN"
 "http://www.w3.org/Graphics/SVG/1.1/DTD/svg11.dtd">
<!-- Generated by graphviz version 2.40.1 (20161225.0304)
 -->
<!-- Title: /workspace/src/game_logic/tic_tac_toe/Player.hpp Pages: 1 -->
<svg width="1677pt" height="195pt"
 viewBox="0.00 0.00 1676.50 195.00" xmlns="http://www.w3.org/2000/svg" xmlns:xlink="http://www.w3.org/1999/xlink">
<g id="graph0" class="graph" transform="scale(1 1) rotate(0) translate(4 191)">
<title>/workspace/src/game_logic/tic_tac_toe/Player.hpp</title>
<!-- Node4 -->
<g id="node1" class="node">
<title>Node4</title>
<polygon fill="#bfbfbf" stroke="#000000" points="722,-156.5 722,-186.5 877,-186.5 877,-156.5 722,-156.5"/>
<text text-anchor="start" x="730" y="-174.5" font-family="Helvetica,sans-Serif" font-size="10.00" fill="#000000">/workspace/src/game</text>
<text text-anchor="middle" x="799.5" y="-163.5" font-family="Helvetica,sans-Serif" font-size="10.00" fill="#000000">_logic/tic_tac_toe/Player.hpp</text>
</g>
<!-- Node5 -->
<g id="node2" class="node">
<title>Node5</title>
<g id="a_node2"><a xlink:href="_abstract_board_8cpp.html" target="_top" xlink:title="/workspace/src/game\l_logic/AbstractBoard.cpp">
<polygon fill="none" stroke="#000000" points="0,-84 0,-114 137,-114 137,-84 0,-84"/>
<text text-anchor="start" x="8" y="-102" font-family="Helvetica,sans-Serif" font-size="10.00" fill="#000000">/workspace/src/game</text>
<text text-anchor="middle" x="68.5" y="-91" font-family="Helvetica,sans-Serif" font-size="10.00" fill="#000000">_logic/AbstractBoard.cpp</text>
</a>
</g>
</g>
<!-- Node4&#45;&gt;Node5 -->
<g id="edge1" class="edge">
<title>Node4&#45;&gt;Node5</title>
<path fill="none" stroke="#191970" d="M711.4152,-169.6936C585.368,-165.9476 346.6515,-154.5324 146.5,-120 137.5172,-118.4502 128.0674,-116.3336 118.967,-114.0378"/>
<polygon fill="#191970" stroke="#191970" points="711.6786,-173.2025 721.7752,-169.9917 711.88,-166.2054 711.6786,-173.2025"/>
</g>
<!-- Node6 -->
<g id="node3" class="node">
<title>Node6</title>
<g id="a_node3"><a xlink:href="_abstract_game_8cpp.html" target="_top" xlink:title="/workspace/src/game\l_logic/AbstractGame.cpp">
<polygon fill="none" stroke="#000000" points="155.5,-84 155.5,-114 293.5,-114 293.5,-84 155.5,-84"/>
<text text-anchor="start" x="163.5" y="-102" font-family="Helvetica,sans-Serif" font-size="10.00" fill="#000000">/workspace/src/game</text>
<text text-anchor="middle" x="224.5" y="-91" font-family="Helvetica,sans-Serif" font-size="10.00" fill="#000000">_logic/AbstractGame.cpp</text>
</a>
</g>
</g>
<!-- Node4&#45;&gt;Node6 -->
<g id="edge2" class="edge">
<title>Node4&#45;&gt;Node6</title>
<path fill="none" stroke="#191970" d="M711.8658,-166.6652C612.0987,-160.1806 444.5446,-146.3065 302.5,-120 293.8127,-118.3911 284.6773,-116.3023 275.8405,-114.0672"/>
<polygon fill="#191970" stroke="#191970" points="711.698,-170.1615 721.9012,-167.3074 712.1451,-163.1758 711.698,-170.1615"/>
</g>
<!-- Node7 -->
<g id="node4" class="node">
<title>Node7</title>
<g id="a_node4"><a xlink:href="_abstract_pawn_8cpp.html" target="_top" xlink:title="/workspace/src/game\l_logic/AbstractPawn.cpp">
<polygon fill="none" stroke="#000000" points="311.5,-84 311.5,-114 445.5,-114 445.5,-84 311.5,-84"/>
<text text-anchor="start" x="319.5" y="-102" font-family="Helvetica,sans-Serif" font-size="10.00" fill="#000000">/workspace/src/game</text>
<text text-anchor="middle" x="378.5" y="-91" font-family="Helvetica,sans-Serif" font-size="10.00" fill="#000000">_logic/AbstractPawn.cpp</text>
</a>
</g>
</g>
<!-- Node4&#45;&gt;Node7 -->
<g id="edge3" class="edge">
<title>Node4&#45;&gt;Node7</title>
<path fill="none" stroke="#191970" d="M711.8357,-161.3993C641.7894,-152.6127 541.3166,-138.4031 454.5,-120 446.4652,-118.2968 438.0219,-116.2384 429.803,-114.0849"/>
<polygon fill="#191970" stroke="#191970" points="711.589,-164.8955 721.9444,-162.6563 712.4527,-157.949 711.589,-164.8955"/>
</g>
<!-- Node8 -->
<g id="node5" class="node">
<title>Node8</title>
<g id="a_node5"><a xlink:href="_history_8cpp.html" target="_top" xlink:title="/workspace/src/game\l_logic/History.cpp">
<polygon fill="none" stroke="#000000" points="463.5,-84 463.5,-114 583.5,-114 583.5,-84 463.5,-84"/>
<text text-anchor="start" x="471.5" y="-102" font-family="Helvetica,sans-Serif" font-size="10.00" fill="#000000">/workspace/src/game</text>
<text text-anchor="middle" x="523.5" y="-91" font-family="Helvetica,sans-Serif" font-size="10.00" fill="#000000">_logic/History.cpp</text>
</a>
</g>
</g>
<!-- Node4&#45;&gt;Node8 -->
<g id="edge4" class="edge">
<title>Node4&#45;&gt;Node8</title>
<path fill="none" stroke="#191970" d="M728.6905,-153.9422C689.883,-144.1951 640.9676,-131.7065 597.5,-120 590.5367,-118.1247 583.2184,-116.1061 576.0047,-114.0882"/>
<polygon fill="#191970" stroke="#191970" points="728.2899,-157.45 738.8409,-156.487 729.9923,-150.6602 728.2899,-157.45"/>
</g>
<!-- Node9 -->
<g id="node6" class="node">
<title>Node9</title>
<g id="a_node6"><a xlink:href="tic__tac__toe_2_board_8cpp.html" target="_top" xlink:title="/workspace/src/game\l_logic/tic_tac_toe/Board.cpp">
<polygon fill="none" stroke="#000000" points="456,-6 456,-36 609,-36 609,-6 456,-6"/>
<text text-anchor="start" x="464" y="-24" font-family="Helvetica,sans-Serif" font-size="10.00" fill="#000000">/workspace/src/game</text>
<text text-anchor="middle" x="532.5" y="-13" font-family="Helvetica,sans-Serif" font-size="10.00" fill="#000000">_logic/tic_tac_toe/Board.cpp</text>
</a>
</g>
</g>
<!-- Node4&#45;&gt;Node9 -->
<g id="edge5" class="edge">
<title>Node4&#45;&gt;Node9</title>
<path fill="none" stroke="#191970" d="M711.7211,-154.3947C684.3469,-146.5943 654.9475,-135.5179 630.5,-120 609.2469,-106.5098 610.0822,-96.0151 592.5,-78 578.2499,-63.399 561.3478,-47.4583 549.1202,-36.1566"/>
<polygon fill="#191970" stroke="#191970" points="711.1328,-157.8622 721.7018,-157.1225 712.9783,-151.1099 711.1328,-157.8622"/>
</g>
<!-- Node10 -->
<g id="node7" class="node">
<title>Node10</title>
<g id="a_node7"><a xlink:href="tic__tac__toe_2_board_8hpp.html" target="_top" xlink:title="/workspace/src/game\l_logic/tic_tac_toe/Board.hpp">
<polygon fill="none" stroke="#000000" points="639.5,-84 639.5,-114 793.5,-114 793.5,-84 639.5,-84"/>
<text text-anchor="start" x="647.5" y="-102" font-family="Helvetica,sans-Serif" font-size="10.00" fill="#000000">/workspace/src/game</text>
<text text-anchor="middle" x="716.5" y="-91" font-family="Helvetica,sans-Serif" font-size="10.00" fill="#000000">_logic/tic_tac_toe/Board.hpp</text>
</a>
</g>
</g>
<!-- Node4&#45;&gt;Node10 -->
<g id="edge6" class="edge">
<title>Node4&#45;&gt;Node10</title>
<path fill="none" stroke="#191970" d="M774.4945,-149.6579C761.3077,-138.1393 745.4671,-124.3026 733.6756,-114.0028"/>
<polygon fill="#191970" stroke="#191970" points="772.4684,-152.5353 782.3023,-156.478 777.0735,-147.2633 772.4684,-152.5353"/>
</g>
<!-- Node13 -->
<g id="node10" class="node">
<title>Node13</title>
<g id="a_node10"><a xlink:href="tic__tac__toe_2_console_game_8hpp.html" target="_top" xlink:title="/workspace/src/game\l_logic/tic_tac_toe/Console\lGame.hpp">
<polygon fill="none" stroke="#000000" points="812,-78.5 812,-119.5 955,-119.5 955,-78.5 812,-78.5"/>
<text text-anchor="start" x="820" y="-107.5" font-family="Helvetica,sans-Serif" font-size="10.00" fill="#000000">/workspace/src/game</text>
<text text-anchor="start" x="820" y="-96.5" font-family="Helvetica,sans-Serif" font-size="10.00" fill="#000000">_logic/tic_tac_toe/Console</text>
<text text-anchor="middle" x="883.5" y="-85.5" font-family="Helvetica,sans-Serif" font-size="10.00" fill="#000000">Game.hpp</text>
</a>
</g>
</g>
<!-- Node4&#45;&gt;Node13 -->
<g id="edge10" class="edge">
<title>Node4&#45;&gt;Node13</title>
<path fill="none" stroke="#191970" d="M824.618,-149.8207C835.7492,-140.2135 848.7783,-128.9681 859.7465,-119.5015"/>
<polygon fill="#191970" stroke="#191970" points="822.1883,-147.2945 816.9049,-156.478 826.762,-152.5937 822.1883,-147.2945"/>
</g>
<!-- Node15 -->
<g id="node12" class="node">
<title>Node15</title>
<g id="a_node12"><a xlink:href="_player_8cpp.html" target="_top" xlink:title="/workspace/src/game\l_logic/tic_tac_toe/Player.cpp">
<polygon fill="none" stroke="#000000" points="973,-84 973,-114 1128,-114 1128,-84 973,-84"/>
<text text-anchor="start" x="981" y="-102" font-family="Helvetica,sans-Serif" font-size="10.00" fill="#000000">/workspace/src/game</text>
<text text-anchor="middle" x="1050.5" y="-91" font-family="Helvetica,sans-Serif" font-size="10.00" fill="#000000">_logic/tic_tac_toe/Player.cpp</text>
</a>
</g>
</g>
<!-- Node4&#45;&gt;Node15 -->
<g id="edge13" class="edge">
<title>Node4&#45;&gt;Node15</title>
<path fill="none" stroke="#191970" d="M861.3791,-153.6266C903.5288,-141.4518 958.6957,-125.5172 998.5593,-114.0028"/>
<polygon fill="#191970" stroke="#191970" points="860.1433,-150.3403 851.5074,-156.478 862.0859,-157.0654 860.1433,-150.3403"/>
</g>
<!-- Node16 -->
<g id="node13" class="node">
<title>Node16</title>
<g id="a_node13"><a xlink:href="_move_8cpp.html" target="_top" xlink:title="/workspace/src/game\l_logic/utils/Move.cpp">
<polygon fill="none" stroke="#000000" points="1146.5,-84 1146.5,-114 1266.5,-114 1266.5,-84 1146.5,-84"/>
<text text-anchor="start" x="1154.5" y="-102" font-family="Helvetica,sans-Serif" font-size="10.00" fill="#000000">/workspace/src/game</text>
<text text-anchor="middle" x="1206.5" y="-91" font-family="Helvetica,sans-Serif" font-size="10.00" fill="#000000">_logic/utils/Move.cpp</text>
</a>
</g>
</g>
<!-- Node4&#45;&gt;Node16 -->
<g id="edge14" class="edge">
<title>Node4&#45;&gt;Node16</title>
<path fill="none" stroke="#191970" d="M887.6155,-161.6102C956.2078,-153.0625 1053.5374,-139.0688 1137.5,-120 1144.9485,-118.3084 1152.7651,-116.2305 1160.3513,-114.0467"/>
<polygon fill="#191970" stroke="#191970" points="886.7817,-158.1864 877.2849,-162.8835 887.638,-165.1339 886.7817,-158.1864"/>
</g>
<!-- Node17 -->
<g id="node14" class="node">
<title>Node17</title>
<g id="a_node14"><a xlink:href="_m_c_t_s_8cpp.html" target="_top" xlink:title="/workspace/src/mcts\l/MCTS.cpp">
<polygon fill="none" stroke="#000000" points="1284.5,-84 1284.5,-114 1400.5,-114 1400.5,-84 1284.5,-84"/>
<text text-anchor="start" x="1292.5" y="-102" font-family="Helvetica,sans-Serif" font-size="10.00" fill="#000000">/workspace/src/mcts</text>
<text text-anchor="middle" x="1342.5" y="-91" font-family="Helvetica,sans-Serif" font-size="10.00" fill="#000000">/MCTS.cpp</text>
</a>
</g>
</g>
<!-- Node4&#45;&gt;Node17 -->
<g id="edge15" class="edge">
<title>Node4&#45;&gt;Node17</title>
<path fill="none" stroke="#191970" d="M887.5732,-167.1464C983.7276,-161.1962 1141.8413,-147.8956 1275.5,-120 1283.137,-118.4061 1291.143,-116.2966 1298.8562,-114.029"/>
<polygon fill="#191970" stroke="#191970" points="887.0834,-163.6696 877.3133,-167.7679 887.5067,-170.6568 887.0834,-163.6696"/>
</g>
<!-- Node18 -->
<g id="node15" class="node">
<title>Node18</title>
<g id="a_node15"><a xlink:href="_m_c_t_s_player_8cpp.html" target="_top" xlink:title="/workspace/src/mcts\l/MCTSPlayer.cpp">
<polygon fill="none" stroke="#000000" points="1418.5,-84 1418.5,-114 1534.5,-114 1534.5,-84 1418.5,-84"/>
<text text-anchor="start" x="1426.5" y="-102" font-family="Helvetica,sans-Serif" font-size="10.00" fill="#000000">/workspace/src/mcts</text>
<text text-anchor="middle" x="1476.5" y="-91" font-family="Helvetica,sans-Serif" font-size="10.00" fill="#000000">/MCTSPlayer.cpp</text>
</a>
</g>
</g>
<!-- Node4&#45;&gt;Node18 -->
<g id="edge16" class="edge">
<title>Node4&#45;&gt;Node18</title>
<path fill="none" stroke="#191970" d="M887.2777,-166.4692C1031.4155,-157.8079 1311.9863,-139.1566 1409.5,-120 1417.2748,-118.4726 1425.4209,-116.367 1433.2484,-114.0753"/>
<polygon fill="#191970" stroke="#191970" points="886.9132,-162.9847 877.14,-167.0754 887.3311,-169.9722 886.9132,-162.9847"/>
</g>
<!-- Node19 -->
<g id="node16" class="node">
<title>Node19</title>
<g id="a_node16"><a xlink:href="_tree_8cpp.html" target="_top" xlink:title="/workspace/src/mcts\l/Tree.cpp">
<polygon fill="none" stroke="#000000" points="1552.5,-84 1552.5,-114 1668.5,-114 1668.5,-84 1552.5,-84"/>
<text text-anchor="start" x="1560.5" y="-102" font-family="Helvetica,sans-Serif" font-size="10.00" fill="#000000">/workspace/src/mcts</text>
<text text-anchor="middle" x="1610.5" y="-91" font-family="Helvetica,sans-Serif" font-size="10.00" fill="#000000">/Tree.cpp</text>
</a>
</g>
</g>
<!-- Node4&#45;&gt;Node19 -->
<g id="edge17" class="edge">
<title>Node4&#45;&gt;Node19</title>
<path fill="none" stroke="#191970" d="M887.1491,-168.0145C1055.8617,-160.8793 1419.9837,-143.2967 1543.5,-120 1551.406,-118.5088 1559.6887,-116.3907 1567.6285,-114.0681"/>
<polygon fill="#191970" stroke="#191970" points="886.902,-164.5217 877.0579,-168.4387 887.1961,-171.5156 886.902,-164.5217"/>
</g>
<!-- Node10&#45;&gt;Node9 -->
<g id="edge7" class="edge">
<title>Node10&#45;&gt;Node9</title>
<path fill="none" stroke="#191970" d="M671.5092,-79.9278C639.7129,-66.4489 597.6728,-48.6276 568.1816,-36.1259"/>
<polygon fill="#191970" stroke="#191970" points="670.45,-83.2802 681.0229,-83.9608 673.1821,-76.8354 670.45,-83.2802"/>
</g>
<!-- Node11 -->
<g id="node8" class="node">
<title>Node11</title>
<g id="a_node8"><a xlink:href="tic__tac__toe_2_console_game_8cpp.html" target="_top" xlink:title="/workspace/src/game\l_logic/tic_tac_toe/Console\lGame.cpp">
<polygon fill="none" stroke="#000000" points="816,-.5 816,-41.5 959,-41.5 959,-.5 816,-.5"/>
<text text-anchor="start" x="824" y="-29.5" font-family="Helvetica,sans-Serif" font-size="10.00" fill="#000000">/workspace/src/game</text>
<text text-anchor="start" x="824" y="-18.5" font-family="Helvetica,sans-Serif" font-size="10.00" fill="#000000">_logic/tic_tac_toe/Console</text>
<text text-anchor="middle" x="887.5" y="-7.5" font-family="Helvetica,sans-Serif" font-size="10.00" fill="#000000">Game.cpp</text>
</a>
</g>
</g>
<!-- Node10&#45;&gt;Node11 -->
<g id="edge8" class="edge">
<title>Node10&#45;&gt;Node11</title>
<path fill="none" stroke="#191970" d="M758.834,-79.6898C784.2164,-68.1118 816.4792,-53.3955 842.3481,-41.5956"/>
<polygon fill="#191970" stroke="#191970" points="757.1162,-76.6263 749.4705,-83.9608 760.0213,-82.9951 757.1162,-76.6263"/>
</g>
<!-- Node12 -->
<g id="node9" class="node">
<title>Node12</title>
<g id="a_node9"><a xlink:href="_tic_tac_toe_8cpp.html" target="_top" xlink:title="/workspace/src/game\l_logic/tic_tac_toe/TicTacToe.cpp">
<polygon fill="none" stroke="#000000" points="627,-6 627,-36 798,-36 798,-6 627,-6"/>
<text text-anchor="start" x="635" y="-24" font-family="Helvetica,sans-Serif" font-size="10.00" fill="#000000">/workspace/src/game</text>
<text text-anchor="middle" x="712.5" y="-13" font-family="Helvetica,sans-Serif" font-size="10.00" fill="#000000">_logic/tic_tac_toe/TicTacToe.cpp</text>
</a>
</g>
</g>
<!-- Node10&#45;&gt;Node12 -->
<g id="edge9" class="edge">
<title>Node10&#45;&gt;Node12</title>
<path fill="none" stroke="#191970" d="M715.207,-73.7875C714.5728,-61.4187 713.8296,-46.9264 713.2825,-36.2592"/>
<polygon fill="#191970" stroke="#191970" points="711.7211,-74.1532 715.7288,-83.9608 718.7119,-73.7947 711.7211,-74.1532"/>
</g>
<!-- Node13&#45;&gt;Node11 -->
<g id="edge11" class="edge">
<title>Node13&#45;&gt;Node11</title>
<path fill="none" stroke="#191970" d="M885.0857,-68.0789C885.5401,-59.2178 886.0244,-49.7747 886.439,-41.6898"/>
<polygon fill="#191970" stroke="#191970" points="881.5888,-67.9313 884.5719,-78.0974 888.5796,-68.2898 881.5888,-67.9313"/>
</g>
<!-- Node14 -->
<g id="node11" class="node">
<title>Node14</title>
<g id="a_node11"><a xlink:href="main_8cpp.html" target="_top" xlink:title="/workspace/src/main.cpp">
<polygon fill="none" stroke="#000000" points="977,-11.5 977,-30.5 1114,-30.5 1114,-11.5 977,-11.5"/>
<text text-anchor="middle" x="1045.5" y="-18.5" font-family="Helvetica,sans-Serif" font-size="10.00" fill="#000000">/workspace/src/main.cpp</text>
</a>
</g>
</g>
<!-- Node13&#45;&gt;Node14 -->
<g id="edge12" class="edge">
<title>Node13&#45;&gt;Node14</title>
<path fill="none" stroke="#191970" d="M935.7518,-73.8417C966.3269,-59.1204 1003.1815,-41.3756 1025.4541,-30.6517"/>
<polygon fill="#191970" stroke="#191970" points="933.9794,-70.8105 926.4877,-78.3022 937.0161,-77.1175 933.9794,-70.8105"/>
</g>
</g>
</svg>
