<?xml version="1.0" encoding="UTF-8" standalone="no"?>
<!DOCTYPE svg PUBLIC "-//W3C//DTD SVG 1.1//EN"
 "http://www.w3.org/Graphics/SVG/1.1/DTD/svg11.dtd">
<!-- Generated by graphviz version 2.40.1 (20161225.0304)
 -->
<!-- Title: /workspace/src/game_logic/utils/Position3D.hpp Pages: 1 -->
<svg width="487pt" height="173pt"
 viewBox="0.00 0.00 487.00 173.00" xmlns="http://www.w3.org/2000/svg" xmlns:xlink="http://www.w3.org/1999/xlink">
<g id="graph0" class="graph" transform="scale(1 1) rotate(0) translate(4 169)">
<title>/workspace/src/game_logic/utils/Position3D.hpp</title>
<!-- Node3 -->
<g id="node1" class="node">
<title>Node3</title>
<polygon fill="#bfbfbf" stroke="#000000" points="145.5,-134.5 145.5,-164.5 291.5,-164.5 291.5,-134.5 145.5,-134.5"/>
<text text-anchor="start" x="153.5" y="-152.5" font-family="Helvetica,sans-Serif" font-size="10.00" fill="#000000">/workspace/src/game</text>
<text text-anchor="middle" x="218.5" y="-141.5" font-family="Helvetica,sans-Serif" font-size="10.00" fill="#000000">_logic/utils/Position3D.hpp</text>
</g>
<!-- Node4 -->
<g id="node2" class="node">
<title>Node4</title>
<g id="a_node2"><a xlink:href="penguin_2_board_8cpp.html" target="_top" xlink:title="/workspace/src/game\l_logic/penguin/Board.cpp">
<polygon fill="none" stroke="#000000" points="0,-.5 0,-30.5 139,-30.5 139,-.5 0,-.5"/>
<text text-anchor="start" x="8" y="-18.5" font-family="Helvetica,sans-Serif" font-size="10.00" fill="#000000">/workspace/src/game</text>
<text text-anchor="middle" x="69.5" y="-7.5" font-family="Helvetica,sans-Serif" font-size="10.00" fill="#000000">_logic/penguin/Board.cpp</text>
</a>
</g>
</g>
<!-- Node3&#45;&gt;Node4 -->
<g id="edge1" class="edge">
<title>Node3&#45;&gt;Node4</title>
<path fill="none" stroke="#191970" d="M178.5039,-129.3033C163.5468,-120.747 146.9414,-109.9776 133.5,-98 110.628,-77.6188 90.0626,-48.1932 78.7261,-30.5468"/>
<polygon fill="#191970" stroke="#191970" points="177.1195,-132.538 187.5607,-134.3358 180.5195,-126.4192 177.1195,-132.538"/>
</g>
<!-- Node5 -->
<g id="node3" class="node">
<title>Node5</title>
<g id="a_node3"><a xlink:href="conversions_8hpp.html" target="_top" xlink:title="/workspace/src/game\l_logic/utils/conversions.hpp">
<polygon fill="none" stroke="#000000" points="142.5,-67.5 142.5,-97.5 294.5,-97.5 294.5,-67.5 142.5,-67.5"/>
<text text-anchor="start" x="150.5" y="-85.5" font-family="Helvetica,sans-Serif" font-size="10.00" fill="#000000">/workspace/src/game</text>
<text text-anchor="middle" x="218.5" y="-74.5" font-family="Helvetica,sans-Serif" font-size="10.00" fill="#000000">_logic/utils/conversions.hpp</text>
</a>
</g>
</g>
<!-- Node3&#45;&gt;Node5 -->
<g id="edge2" class="edge">
<title>Node3&#45;&gt;Node5</title>
<path fill="none" stroke="#191970" d="M218.5,-124.0249C218.5,-115.128 218.5,-105.4287 218.5,-97.6432"/>
<polygon fill="#191970" stroke="#191970" points="215.0001,-124.2966 218.5,-134.2967 222.0001,-124.2967 215.0001,-124.2966"/>
</g>
<!-- Node8 -->
<g id="node6" class="node">
<title>Node8</title>
<g id="a_node6"><a xlink:href="_position3_d_8cpp.html" target="_top" xlink:title="/workspace/src/game\l_logic/utils/Position3D.cpp">
<polygon fill="none" stroke="#000000" points="313,-67.5 313,-97.5 458,-97.5 458,-67.5 313,-67.5"/>
<text text-anchor="start" x="321" y="-85.5" font-family="Helvetica,sans-Serif" font-size="10.00" fill="#000000">/workspace/src/game</text>
<text text-anchor="middle" x="385.5" y="-74.5" font-family="Helvetica,sans-Serif" font-size="10.00" fill="#000000">_logic/utils/Position3D.cpp</text>
</a>
</g>
</g>
<!-- Node3&#45;&gt;Node8 -->
<g id="edge6" class="edge">
<title>Node3&#45;&gt;Node8</title>
<path fill="none" stroke="#191970" d="M265.2912,-130.7275C291.3706,-120.2645 323.4148,-107.4084 347.8585,-97.6017"/>
<polygon fill="#191970" stroke="#191970" points="263.9558,-127.492 255.9781,-134.4639 266.5622,-133.9887 263.9558,-127.492"/>
</g>
<!-- Node5&#45;&gt;Node4 -->
<g id="edge3" class="edge">
<title>Node5&#45;&gt;Node4</title>
<path fill="none" stroke="#191970" d="M175.8309,-63.3132C152.7325,-52.9267 124.6064,-40.2794 103.0844,-30.6017"/>
<polygon fill="#191970" stroke="#191970" points="174.5057,-66.5549 185.0615,-67.4639 177.3765,-60.1706 174.5057,-66.5549"/>
</g>
<!-- Node6 -->
<g id="node4" class="node">
<title>Node6</title>
<g id="a_node4"><a xlink:href="_print_hex_8cpp.html" target="_top" xlink:title="/workspace/src/game\l_logic/penguin/PrintHex.cpp">
<polygon fill="none" stroke="#000000" points="157.5,-.5 157.5,-30.5 309.5,-30.5 309.5,-.5 157.5,-.5"/>
<text text-anchor="start" x="165.5" y="-18.5" font-family="Helvetica,sans-Serif" font-size="10.00" fill="#000000">/workspace/src/game</text>
<text text-anchor="middle" x="233.5" y="-7.5" font-family="Helvetica,sans-Serif" font-size="10.00" fill="#000000">_logic/penguin/PrintHex.cpp</text>
</a>
</g>
</g>
<!-- Node5&#45;&gt;Node6 -->
<g id="edge4" class="edge">
<title>Node5&#45;&gt;Node6</title>
<path fill="none" stroke="#191970" d="M224.1378,-57.3179C226.1474,-48.3414 228.3475,-38.5143 230.1097,-30.6432"/>
<polygon fill="#191970" stroke="#191970" points="220.6731,-56.7735 221.9037,-67.2967 227.504,-58.3029 220.6731,-56.7735"/>
</g>
<!-- Node7 -->
<g id="node5" class="node">
<title>Node7</title>
<g id="a_node5"><a xlink:href="conversions_8cpp.html" target="_top" xlink:title="/workspace/src/game\l_logic/utils/conversions.cpp">
<polygon fill="none" stroke="#000000" points="328,-.5 328,-30.5 479,-30.5 479,-.5 328,-.5"/>
<text text-anchor="start" x="336" y="-18.5" font-family="Helvetica,sans-Serif" font-size="10.00" fill="#000000">/workspace/src/game</text>
<text text-anchor="middle" x="403.5" y="-7.5" font-family="Helvetica,sans-Serif" font-size="10.00" fill="#000000">_logic/utils/conversions.cpp</text>
</a>
</g>
</g>
<!-- Node5&#45;&gt;Node7 -->
<g id="edge5" class="edge">
<title>Node5&#45;&gt;Node7</title>
<path fill="none" stroke="#191970" d="M269.5759,-64.0023C298.6015,-53.4903 334.4854,-40.4945 361.8013,-30.6017"/>
<polygon fill="#191970" stroke="#191970" points="268.2282,-60.7678 260.0176,-67.4639 270.6118,-67.3495 268.2282,-60.7678"/>
</g>
</g>
</svg>
