<?xml version="1.0" encoding="UTF-8" standalone="no"?>
<!DOCTYPE svg PUBLIC "-//W3C//DTD SVG 1.1//EN"
 "http://www.w3.org/Graphics/SVG/1.1/DTD/svg11.dtd">
<!-- Generated by graphviz version 2.40.1 (20161225.0304)
 -->
<!-- Title: mcts::Tree::getRootNode Pages: 1 -->
<svg width="615pt" height="88pt"
 viewBox="0.00 0.00 615.00 88.00" xmlns="http://www.w3.org/2000/svg" xmlns:xlink="http://www.w3.org/1999/xlink">
<g id="graph0" class="graph" transform="scale(1 1) rotate(0) translate(4 84)">
<title>mcts::Tree::getRootNode</title>
<!-- Node14 -->
<g id="node1" class="node">
<title>Node14</title>
<polygon fill="#bfbfbf" stroke="#000000" points="0,-30 0,-49 136,-49 136,-30 0,-30"/>
<text text-anchor="middle" x="68" y="-37" font-family="Helvetica,sans-Serif" font-size="10.00" fill="#000000">mcts::Tree::getRootNode</text>
</g>
<!-- Node15 -->
<g id="node2" class="node">
<title>Node15</title>
<g id="a_node2"><a xlink:href="classmcts_1_1_m_c_t_s_player.html#a48340fed9c5730f0d64ca177682f575e" target="_top" xlink:title="Returns the best move after running the ai. ">
<polygon fill="none" stroke="#000000" points="172,-30 172,-49 330,-49 330,-30 172,-30"/>
<text text-anchor="middle" x="251" y="-37" font-family="Helvetica,sans-Serif" font-size="10.00" fill="#000000">mcts::MCTSPlayer::bestMove</text>
</a>
</g>
</g>
<!-- Node14&#45;&gt;Node15 -->
<g id="edge1" class="edge">
<title>Node14&#45;&gt;Node15</title>
<path fill="none" stroke="#191970" d="M146.3031,-39.5C154.7109,-39.5 163.2704,-39.5 171.6898,-39.5"/>
<polygon fill="#191970" stroke="#191970" points="146.1425,-36.0001 136.1424,-39.5 146.1424,-43.0001 146.1425,-36.0001"/>
</g>
<!-- Node16 -->
<g id="node3" class="node">
<title>Node16</title>
<g id="a_node3"><a xlink:href="classgame_1_1penguin_1_1_console_game.html#a56af132d8e3d16902fb46b7979d37eae" target="_top" xlink:title="Loop while the game is not finished, told by the isFinished method. ">
<polygon fill="none" stroke="#000000" points="366,-49.5 366,-79.5 530,-79.5 530,-49.5 366,-49.5"/>
<text text-anchor="start" x="374" y="-67.5" font-family="Helvetica,sans-Serif" font-size="10.00" fill="#000000">game::penguin::ConsoleGame</text>
<text text-anchor="middle" x="448" y="-56.5" font-family="Helvetica,sans-Serif" font-size="10.00" fill="#000000">::loop</text>
</a>
</g>
</g>
<!-- Node15&#45;&gt;Node16 -->
<g id="edge2" class="edge">
<title>Node15&#45;&gt;Node16</title>
<path fill="none" stroke="#191970" d="M336.2305,-50.3161C346.089,-51.5671 356.1281,-52.8411 365.9431,-54.0867"/>
<polygon fill="#191970" stroke="#191970" points="336.4003,-46.8096 326.0392,-49.0227 335.519,-53.7539 336.4003,-46.8096"/>
</g>
<!-- Node18 -->
<g id="node5" class="node">
<title>Node18</title>
<g id="a_node5"><a xlink:href="classgame_1_1tic__tac__toe_1_1_console_game.html#a06b07e4c713a60999258b0b573b02a33" target="_top" xlink:title="Loop while the game is not finished, told by the isFinished method. ">
<polygon fill="none" stroke="#000000" points="392,-.5 392,-30.5 504,-30.5 504,-.5 392,-.5"/>
<text text-anchor="start" x="400" y="-18.5" font-family="Helvetica,sans-Serif" font-size="10.00" fill="#000000">game::tic_tac_toe::</text>
<text text-anchor="middle" x="448" y="-7.5" font-family="Helvetica,sans-Serif" font-size="10.00" fill="#000000">ConsoleGame::loop</text>
</a>
</g>
</g>
<!-- Node15&#45;&gt;Node18 -->
<g id="edge4" class="edge">
<title>Node15&#45;&gt;Node18</title>
<path fill="none" stroke="#191970" d="M339.5387,-28.7136C357.3117,-26.5483 375.5216,-24.3299 391.8222,-22.344"/>
<polygon fill="#191970" stroke="#191970" points="338.6459,-25.2964 329.1426,-29.9801 339.4925,-32.245 338.6459,-25.2964"/>
</g>
<!-- Node17 -->
<g id="node4" class="node">
<title>Node17</title>
<g id="a_node4"><a xlink:href="main_8cpp.html#a1dfeea39dabf076270426c94def1a2a2" target="_top" xlink:title="main">
<polygon fill="none" stroke="#000000" points="566,-55 566,-74 607,-74 607,-55 566,-55"/>
<text text-anchor="middle" x="586.5" y="-62" font-family="Helvetica,sans-Serif" font-size="10.00" fill="#000000">main</text>
</a>
</g>
</g>
<!-- Node16&#45;&gt;Node17 -->
<g id="edge3" class="edge">
<title>Node16&#45;&gt;Node17</title>
<path fill="none" stroke="#191970" d="M540.2725,-64.5C549.7768,-64.5 558.6282,-64.5 565.9893,-64.5"/>
<polygon fill="#191970" stroke="#191970" points="540.1668,-61.0001 530.1667,-64.5 540.1667,-68.0001 540.1668,-61.0001"/>
</g>
</g>
</svg>
