<?xml version="1.0" encoding="UTF-8" standalone="no"?>
<!DOCTYPE svg PUBLIC "-//W3C//DTD SVG 1.1//EN"
 "http://www.w3.org/Graphics/SVG/1.1/DTD/svg11.dtd">
<!-- Generated by graphviz version 2.40.1 (20161225.0304)
 -->
<!-- Title: game::penguin::ConsoleGame::ConsoleGame Pages: 1 -->
<!--zoomable 509 -->
<svg id="main" version="1.1" xmlns="http://www.w3.org/2000/svg" xmlns:xlink="http://www.w3.org/1999/xlink" xml:space="preserve" onload="init(evt)">
<style type="text/css"><![CDATA[
.edge:hover path { stroke: red; }
.edge:hover polygon { stroke: red; fill: red; }
]]></style>
<script type="text/javascript"><![CDATA[
var edges = document.getElementsByTagName('g');
if (edges && edges.length) {
  for (var i=0;i<edges.length;i++) {
    if (edges[i].id.substr(0,4)=='edge') {
      edges[i].setAttribute('class','edge');
    }
  }
}
]]></script>
        <defs>
                <circle id="rim" cx="0" cy="0" r="7"/>
                <circle id="rim2" cx="0" cy="0" r="3.5"/>
                <g id="zoomPlus">
                        <use xlink:href="#rim" fill="#404040">
                                <set attributeName="fill" to="#808080" begin="zoomplus.mouseover" end="zoomplus.mouseout"/>
                        </use>
                        <path d="M-4,0h8M0,-4v8" fill="none" stroke="white" stroke-width="1.5" pointer-events="none"/>
                </g>
                <g id="zoomMin">
                        <use xlink:href="#rim" fill="#404040">
                                <set attributeName="fill" to="#808080" begin="zoomminus.mouseover" end="zoomminus.mouseout"/>
                        </use>
                        <path d="M-4,0h8" fill="none" stroke="white" stroke-width="1.5" pointer-events="none"/>
                </g>
                <g id="dirArrow">
                        <path fill="none" stroke="white" stroke-width="1.5" d="M0,-3.0v7 M-2.5,-0.5L0,-3.0L2.5,-0.5"/>
                </g>
               <g id="resetDef">
                       <use xlink:href="#rim2" fill="#404040">
                               <set attributeName="fill" to="#808080" begin="reset.mouseover" end="reset.mouseout"/>
                       </use>
               </g>
        </defs>

<script type="text/javascript">
var viewWidth = 887;
var viewHeight = 509;
var sectionId = 'dynsection-2';
</script>
<script xlink:href="svgpan.js"/>
<svg id="graph" class="graph">
<g id="viewport">
<title>game::penguin::ConsoleGame::ConsoleGame</title>
<!-- Node0 -->
<g id="node1" class="node">
<title>Node0</title>
<polygon fill="#bfbfbf" stroke="#000000" points="0,-245.5 0,-275.5 164,-275.5 164,-245.5 0,-245.5"/>
<text text-anchor="start" x="8" y="-263.5" font-family="Helvetica,sans-Serif" font-size="10.00" fill="#000000">game::penguin::ConsoleGame</text>
<text text-anchor="middle" x="82" y="-252.5" font-family="Helvetica,sans-Serif" font-size="10.00" fill="#000000">::ConsoleGame</text>
</g>
<!-- Node1 -->
<g id="node2" class="node">
<title>Node1</title>
<g id="a_node2"><a xlink:href="classgame_1_1penguin_1_1_board.html#af297dc572afb02dafc61e3b8e849338f" target="_top" xlink:title="Performs a particular move. ">
<polygon fill="none" stroke="#000000" points="200,-245.5 200,-275.5 324,-275.5 324,-245.5 200,-245.5"/>
<text text-anchor="start" x="208" y="-263.5" font-family="Helvetica,sans-Serif" font-size="10.00" fill="#000000">game::penguin::Board</text>
<text text-anchor="middle" x="262" y="-252.5" font-family="Helvetica,sans-Serif" font-size="10.00" fill="#000000">::performMove</text>
</a>
</g>
</g>
<!-- Node0&#45;&gt;Node1 -->
<g id="edge1" class="edge">
<title>Node0&#45;&gt;Node1</title>
<path fill="none" stroke="#191970" d="M164.0989,-260.5C172.6683,-260.5 181.3341,-260.5 189.7821,-260.5"/>
<polygon fill="#191970" stroke="#191970" points="189.9578,-264.0001 199.9577,-260.5 189.9577,-257.0001 189.9578,-264.0001"/>
</g>
<!-- Node18 -->
<g id="node19" class="node">
<title>Node18</title>
<g id="a_node19"><a xlink:href="classgame_1_1penguin_1_1_board.html#acae84c13dacef3bd988d1ea9a41d055f" target="_top" xlink:title="Get a player by it&#39;s id. ">
<polygon fill="none" stroke="#000000" points="745.5,-408.5 745.5,-438.5 869.5,-438.5 869.5,-408.5 745.5,-408.5"/>
<text text-anchor="start" x="753.5" y="-426.5" font-family="Helvetica,sans-Serif" font-size="10.00" fill="#000000">game::penguin::Board</text>
<text text-anchor="middle" x="807.5" y="-415.5" font-family="Helvetica,sans-Serif" font-size="10.00" fill="#000000">::getPawnById</text>
</a>
</g>
</g>
<!-- Node0&#45;&gt;Node18 -->
<g id="edge22" class="edge">
<title>Node0&#45;&gt;Node18</title>
<path fill="none" stroke="#191970" d="M94.1133,-275.5123C129.5163,-318.0293 238.0457,-438.9314 360,-481.5 501.2619,-530.808 680.8175,-474.263 762.9065,-442.3627"/>
<polygon fill="#191970" stroke="#191970" points="764.4099,-445.532 772.4251,-438.6033 761.8385,-439.0214 764.4099,-445.532"/>
</g>
<!-- Node21 -->
<g id="node22" class="node">
<title>Node21</title>
<g id="a_node22"><a xlink:href="classgame_1_1penguin_1_1_board.html#ac9fbe04a302208fcb5f66e717182b6d4" target="_top" xlink:title="Get the Cell. ">
<polygon fill="none" stroke="#000000" points="200,-196.5 200,-226.5 324,-226.5 324,-196.5 200,-196.5"/>
<text text-anchor="start" x="208" y="-214.5" font-family="Helvetica,sans-Serif" font-size="10.00" fill="#000000">game::penguin::Board</text>
<text text-anchor="middle" x="262" y="-203.5" font-family="Helvetica,sans-Serif" font-size="10.00" fill="#000000">::getCell</text>
</a>
</g>
</g>
<!-- Node0&#45;&gt;Node21 -->
<g id="edge23" class="edge">
<title>Node0&#45;&gt;Node21</title>
<path fill="none" stroke="#191970" d="M137.4747,-245.3986C156.297,-240.2747 177.494,-234.5044 196.9914,-229.1968"/>
<polygon fill="#191970" stroke="#191970" points="197.979,-232.5554 206.7085,-226.5516 196.1403,-225.8012 197.979,-232.5554"/>
</g>
<!-- Node2 -->
<g id="node3" class="node">
<title>Node2</title>
<g id="a_node3"><a xlink:href="classgame_1_1_abstract_pawn.html#aac49fdd8bd4aa4386fd47d3f6993b8df" target="_top" xlink:title="game::AbstractPawn\l::getOwner">
<polygon fill="none" stroke="#000000" points="382.5,-343.5 382.5,-373.5 498.5,-373.5 498.5,-343.5 382.5,-343.5"/>
<text text-anchor="start" x="390.5" y="-361.5" font-family="Helvetica,sans-Serif" font-size="10.00" fill="#000000">game::AbstractPawn</text>
<text text-anchor="middle" x="440.5" y="-350.5" font-family="Helvetica,sans-Serif" font-size="10.00" fill="#000000">::getOwner</text>
</a>
</g>
</g>
<!-- Node1&#45;&gt;Node2 -->
<g id="edge2" class="edge">
<title>Node1&#45;&gt;Node2</title>
<path fill="none" stroke="#191970" d="M278.1109,-275.585C296.5884,-292.1543 328.419,-318.5273 360,-334.5 364.0627,-336.5548 368.3317,-338.4654 372.6963,-340.2363"/>
<polygon fill="#191970" stroke="#191970" points="371.7691,-343.6276 382.3607,-343.892 374.2457,-337.0803 371.7691,-343.6276"/>
</g>
<!-- Node3 -->
<g id="node4" class="node">
<title>Node3</title>
<g id="a_node4"><a xlink:href="classgame_1_1_abstract_pawn.html#ae9ad3bf0ee738571d0dd5992feae6bb7" target="_top" xlink:title="game::AbstractPawn\l::getCurrentCell">
<polygon fill="none" stroke="#000000" points="382.5,-294.5 382.5,-324.5 498.5,-324.5 498.5,-294.5 382.5,-294.5"/>
<text text-anchor="start" x="390.5" y="-312.5" font-family="Helvetica,sans-Serif" font-size="10.00" fill="#000000">game::AbstractPawn</text>
<text text-anchor="middle" x="440.5" y="-301.5" font-family="Helvetica,sans-Serif" font-size="10.00" fill="#000000">::getCurrentCell</text>
</a>
</g>
</g>
<!-- Node1&#45;&gt;Node3 -->
<g id="edge3" class="edge">
<title>Node1&#45;&gt;Node3</title>
<path fill="none" stroke="#191970" d="M317.0124,-275.6014C335.5926,-280.7019 356.5063,-286.4429 375.7682,-291.7305"/>
<polygon fill="#191970" stroke="#191970" points="375.0995,-295.1763 385.6693,-294.4484 376.9525,-288.426 375.0995,-295.1763"/>
</g>
<!-- Node4 -->
<g id="node5" class="node">
<title>Node4</title>
<g id="a_node5"><a xlink:href="classgame_1_1penguin_1_1_board.html#a2864b1af9dbdf19273185c504257435c" target="_top" xlink:title="Checks wether or not the move is allowed to be performed. ">
<polygon fill="none" stroke="#000000" points="378.5,-245.5 378.5,-275.5 502.5,-275.5 502.5,-245.5 378.5,-245.5"/>
<text text-anchor="start" x="386.5" y="-263.5" font-family="Helvetica,sans-Serif" font-size="10.00" fill="#000000">game::penguin::Board</text>
<text text-anchor="middle" x="440.5" y="-252.5" font-family="Helvetica,sans-Serif" font-size="10.00" fill="#000000">::checkForCorrectness</text>
</a>
</g>
</g>
<!-- Node1&#45;&gt;Node4 -->
<g id="edge4" class="edge">
<title>Node1&#45;&gt;Node4</title>
<path fill="none" stroke="#191970" d="M324.1801,-260.5C338.2677,-260.5 353.3493,-260.5 367.8277,-260.5"/>
<polygon fill="#191970" stroke="#191970" points="368.2407,-264.0001 378.2407,-260.5 368.2406,-257.0001 368.2407,-264.0001"/>
</g>
<!-- Node8 -->
<g id="node9" class="node">
<title>Node8</title>
<g id="a_node9"><a xlink:href="classgame_1_1penguin_1_1_board_cell.html#a802b2f75d1e3136146625266f6a2c03a" target="_top" xlink:title="Get the Position object. ">
<polygon fill="none" stroke="#000000" points="369,-98.5 369,-128.5 512,-128.5 512,-98.5 369,-98.5"/>
<text text-anchor="start" x="377" y="-116.5" font-family="Helvetica,sans-Serif" font-size="10.00" fill="#000000">game::penguin::BoardCell</text>
<text text-anchor="middle" x="440.5" y="-105.5" font-family="Helvetica,sans-Serif" font-size="10.00" fill="#000000">::getPosition</text>
</a>
</g>
</g>
<!-- Node1&#45;&gt;Node8 -->
<g id="edge8" class="edge">
<title>Node1&#45;&gt;Node8</title>
<path fill="none" stroke="#191970" d="M312.4293,-245.4856C316.6594,-242.9356 320.6076,-239.9629 324,-236.5 356.7638,-203.0555 325.9316,-169.6146 360,-137.5 361.1275,-136.4371 362.3001,-135.4212 363.5121,-134.45"/>
<polygon fill="#191970" stroke="#191970" points="365.717,-137.1834 372.0226,-128.6693 361.7838,-131.3929 365.717,-137.1834"/>
</g>
<!-- Node9 -->
<g id="node10" class="node">
<title>Node9</title>
<g id="a_node10"><a xlink:href="classgame_1_1penguin_1_1_board_cell.html#a923c503caf2ed45b2fb0f49eb0cf3201" target="_top" xlink:title="Nobody owns the cell now. ">
<polygon fill="none" stroke="#000000" points="369,-49.5 369,-79.5 512,-79.5 512,-49.5 369,-49.5"/>
<text text-anchor="start" x="377" y="-67.5" font-family="Helvetica,sans-Serif" font-size="10.00" fill="#000000">game::penguin::BoardCell</text>
<text text-anchor="middle" x="440.5" y="-56.5" font-family="Helvetica,sans-Serif" font-size="10.00" fill="#000000">::clearOwner</text>
</a>
</g>
</g>
<!-- Node1&#45;&gt;Node9 -->
<g id="edge9" class="edge">
<title>Node1&#45;&gt;Node9</title>
<path fill="none" stroke="#191970" d="M313.4299,-245.4876C317.3489,-242.9431 320.9556,-239.9709 324,-236.5 368.6394,-185.6075 313.3713,-137.5763 360,-88.5 360.9041,-87.5485 361.8441,-86.6342 362.8163,-85.7557"/>
<polygon fill="#191970" stroke="#191970" points="364.969,-88.516 370.8422,-79.698 360.7519,-82.9288 364.969,-88.516"/>
</g>
<!-- Node10 -->
<g id="node11" class="node">
<title>Node10</title>
<g id="a_node11"><a xlink:href="classgame_1_1penguin_1_1_board_cell.html#a097c6986431cadcf0adac373fe01ccee" target="_top" xlink:title="Sets the gone flag. ">
<polygon fill="none" stroke="#000000" points="369,-.5 369,-30.5 512,-30.5 512,-.5 369,-.5"/>
<text text-anchor="start" x="377" y="-18.5" font-family="Helvetica,sans-Serif" font-size="10.00" fill="#000000">game::penguin::BoardCell</text>
<text text-anchor="middle" x="440.5" y="-7.5" font-family="Helvetica,sans-Serif" font-size="10.00" fill="#000000">::setGone</text>
</a>
</g>
</g>
<!-- Node1&#45;&gt;Node10 -->
<g id="edge10" class="edge">
<title>Node1&#45;&gt;Node10</title>
<path fill="none" stroke="#191970" d="M313.9369,-245.478C317.6969,-242.9373 321.1308,-239.9686 324,-236.5 380.7311,-167.9175 300.5854,-105.7713 360,-39.5 360.7545,-38.6585 361.537,-37.8459 362.3453,-37.0613"/>
<polygon fill="#191970" stroke="#191970" points="364.6335,-39.7128 370.2491,-30.7286 360.2566,-34.2499 364.6335,-39.7128"/>
</g>
<!-- Node11 -->
<g id="node12" class="node">
<title>Node11</title>
<g id="a_node12"><a xlink:href="classgame_1_1penguin_1_1_board_cell.html#a5d3fd7b5a5e170bd6fbc101f5240f4b1" target="_top" xlink:title="Set the penguin who stands on the cell, ie the cell&#39;s owner atm. ">
<polygon fill="none" stroke="#000000" points="369,-441.5 369,-471.5 512,-471.5 512,-441.5 369,-441.5"/>
<text text-anchor="start" x="377" y="-459.5" font-family="Helvetica,sans-Serif" font-size="10.00" fill="#000000">game::penguin::BoardCell</text>
<text text-anchor="middle" x="440.5" y="-448.5" font-family="Helvetica,sans-Serif" font-size="10.00" fill="#000000">::setOwner</text>
</a>
</g>
</g>
<!-- Node1&#45;&gt;Node11 -->
<g id="edge11" class="edge">
<title>Node1&#45;&gt;Node11</title>
<path fill="none" stroke="#191970" d="M266.3686,-275.7039C276.7871,-309.2185 306.3144,-389.8515 360,-432.5 361.7628,-433.9004 363.6057,-435.2192 365.5127,-436.4611"/>
<polygon fill="#191970" stroke="#191970" points="363.8127,-439.5207 374.2344,-441.4285 367.2771,-433.4381 363.8127,-439.5207"/>
</g>
<!-- Node12 -->
<g id="node13" class="node">
<title>Node12</title>
<g id="a_node13"><a xlink:href="classgame_1_1penguin_1_1_human_player.html#a1474720bb1f767c195ac316dd6a8ee82" target="_top" xlink:title="Adds to the score;. ">
<polygon fill="none" stroke="#000000" points="360,-392.5 360,-422.5 521,-422.5 521,-392.5 360,-392.5"/>
<text text-anchor="start" x="368" y="-410.5" font-family="Helvetica,sans-Serif" font-size="10.00" fill="#000000">game::penguin::HumanPlayer</text>
<text text-anchor="middle" x="440.5" y="-399.5" font-family="Helvetica,sans-Serif" font-size="10.00" fill="#000000">::addScore</text>
</a>
</g>
</g>
<!-- Node1&#45;&gt;Node12 -->
<g id="edge12" class="edge">
<title>Node1&#45;&gt;Node12</title>
<path fill="none" stroke="#191970" d="M270.0657,-275.8449C284.5481,-301.9056 317.4591,-354.776 360,-383.5 362.3795,-385.1067 364.8691,-386.6082 367.4379,-388.0112"/>
<polygon fill="#191970" stroke="#191970" points="365.9105,-391.1603 376.4312,-392.4115 368.987,-384.8726 365.9105,-391.1603"/>
</g>
<!-- Node13 -->
<g id="node14" class="node">
<title>Node13</title>
<g id="a_node14"><a xlink:href="classgame_1_1penguin_1_1_board_cell.html#abe8f2dc0eef3aed1e8701dc0b021c5a6" target="_top" xlink:title="Get the number of fish contained inside the cell. ">
<polygon fill="none" stroke="#000000" points="369,-147.5 369,-177.5 512,-177.5 512,-147.5 369,-147.5"/>
<text text-anchor="start" x="377" y="-165.5" font-family="Helvetica,sans-Serif" font-size="10.00" fill="#000000">game::penguin::BoardCell</text>
<text text-anchor="middle" x="440.5" y="-154.5" font-family="Helvetica,sans-Serif" font-size="10.00" fill="#000000">::getFish</text>
</a>
</g>
</g>
<!-- Node1&#45;&gt;Node13 -->
<g id="edge13" class="edge">
<title>Node1&#45;&gt;Node13</title>
<path fill="none" stroke="#191970" d="M309.5651,-245.3835C314.671,-242.8154 319.6004,-239.8672 324,-236.5 345.4598,-220.0759 337.9926,-203.1827 360,-187.5 362.6815,-185.5891 365.5135,-183.8211 368.4488,-182.1854"/>
<polygon fill="#191970" stroke="#191970" points="370.1288,-185.2588 377.5174,-177.6655 367.0062,-178.9938 370.1288,-185.2588"/>
</g>
<!-- Node20 -->
<g id="node21" class="node">
<title>Node20</title>
<g id="a_node21"><a xlink:href="classgame_1_1_abstract_board.html#ac2b6d96389ad0ac58d22323d75f91f97" target="_top" xlink:title="perform a movement on the board, sets the current cell on the pawn ">
<polygon fill="none" stroke="#000000" points="381,-196.5 381,-226.5 500,-226.5 500,-196.5 381,-196.5"/>
<text text-anchor="start" x="389" y="-214.5" font-family="Helvetica,sans-Serif" font-size="10.00" fill="#000000">game::AbstractBoard</text>
<text text-anchor="middle" x="440.5" y="-203.5" font-family="Helvetica,sans-Serif" font-size="10.00" fill="#000000">::performMove</text>
</a>
</g>
</g>
<!-- Node1&#45;&gt;Node20 -->
<g id="edge21" class="edge">
<title>Node1&#45;&gt;Node20</title>
<path fill="none" stroke="#191970" d="M317.0124,-245.3986C335.5926,-240.2981 356.5063,-234.5571 375.7682,-229.2695"/>
<polygon fill="#191970" stroke="#191970" points="376.9525,-232.574 385.6693,-226.5516 375.0995,-225.8237 376.9525,-232.574"/>
</g>
<!-- Node5 -->
<g id="node6" class="node">
<title>Node5</title>
<g id="a_node6"><a xlink:href="namespacegame.html#a758b3d0eea6eae0e6ce5ea1b8dc90ed9" target="_top" xlink:title="Converts an axial position to a cube position in an hexagonal grid. ">
<polygon fill="none" stroke="#000000" points="558,-232 558,-251 699,-251 699,-232 558,-232"/>
<text text-anchor="middle" x="628.5" y="-239" font-family="Helvetica,sans-Serif" font-size="10.00" fill="#000000">game::hex_axial_to_cube</text>
</a>
</g>
</g>
<!-- Node4&#45;&gt;Node5 -->
<g id="edge5" class="edge">
<title>Node4&#45;&gt;Node5</title>
<path fill="none" stroke="#191970" d="M502.5793,-254.226C516.9177,-252.7769 532.3806,-251.2142 547.396,-249.6967"/>
<polygon fill="#191970" stroke="#191970" points="548.1031,-253.1431 557.7005,-248.6553 547.3992,-246.1786 548.1031,-253.1431"/>
</g>
<!-- Node6 -->
<g id="node7" class="node">
<title>Node6</title>
<g id="a_node7"><a xlink:href="classgame_1_1penguin_1_1_board_cell.html#a6a978b7e72ef20475771eb6e453e0a39" target="_top" xlink:title="tells if the cell is gone or not ">
<polygon fill="none" stroke="#000000" points="557,-308.5 557,-338.5 700,-338.5 700,-308.5 557,-308.5"/>
<text text-anchor="start" x="565" y="-326.5" font-family="Helvetica,sans-Serif" font-size="10.00" fill="#000000">game::penguin::BoardCell</text>
<text text-anchor="middle" x="628.5" y="-315.5" font-family="Helvetica,sans-Serif" font-size="10.00" fill="#000000">::isGone</text>
</a>
</g>
</g>
<!-- Node4&#45;&gt;Node6 -->
<g id="edge6" class="edge">
<title>Node4&#45;&gt;Node6</title>
<path fill="none" stroke="#191970" d="M489.9804,-275.5361C500.257,-278.7515 510.9998,-282.1811 521,-285.5 539.4673,-291.629 559.6019,-298.6538 577.4008,-304.9828"/>
<polygon fill="#191970" stroke="#191970" points="576.4287,-308.3521 587.0233,-308.4173 578.7818,-301.7594 576.4287,-308.3521"/>
</g>
<!-- Node7 -->
<g id="node8" class="node">
<title>Node7</title>
<g id="a_node8"><a xlink:href="classgame_1_1penguin_1_1_board_cell.html#a12cd55e333821bcecaa201dde758c1a1" target="_top" xlink:title="Is a penguin on the cell. ">
<polygon fill="none" stroke="#000000" points="736,-264.5 736,-294.5 879,-294.5 879,-264.5 736,-264.5"/>
<text text-anchor="start" x="744" y="-282.5" font-family="Helvetica,sans-Serif" font-size="10.00" fill="#000000">game::penguin::BoardCell</text>
<text text-anchor="middle" x="807.5" y="-271.5" font-family="Helvetica,sans-Serif" font-size="10.00" fill="#000000">::isOwned</text>
</a>
</g>
</g>
<!-- Node4&#45;&gt;Node7 -->
<g id="edge7" class="edge">
<title>Node4&#45;&gt;Node7</title>
<path fill="none" stroke="#191970" d="M502.7565,-263.7231C564.1275,-266.9003 658.2481,-271.7731 725.6444,-275.2622"/>
<polygon fill="#191970" stroke="#191970" points="725.6368,-278.7664 735.8044,-275.7882 725.9987,-271.7758 725.6368,-278.7664"/>
</g>
<!-- Node14 -->
<g id="node15" class="node">
<title>Node14</title>
<g id="a_node15"><a xlink:href="classgame_1_1penguin_1_1_board_cell.html#a1ed5a3134f831bef111c6294c07388bf" target="_top" xlink:title="game::penguin::BoardCell\l::equals_to">
<polygon fill="none" stroke="#000000" points="557,-125.5 557,-155.5 700,-155.5 700,-125.5 557,-125.5"/>
<text text-anchor="start" x="565" y="-143.5" font-family="Helvetica,sans-Serif" font-size="10.00" fill="#000000">game::penguin::BoardCell</text>
<text text-anchor="middle" x="628.5" y="-132.5" font-family="Helvetica,sans-Serif" font-size="10.00" fill="#000000">::equals_to</text>
</a>
</g>
</g>
<!-- Node13&#45;&gt;Node14 -->
<g id="edge14" class="edge">
<title>Node13&#45;&gt;Node14</title>
<path fill="none" stroke="#191970" d="M512.111,-154.12C523.4273,-152.7957 535.2033,-151.4177 546.7296,-150.0689"/>
<polygon fill="#191970" stroke="#191970" points="547.2514,-153.5318 556.7768,-148.8931 546.4377,-146.5792 547.2514,-153.5318"/>
</g>
<!-- Node16 -->
<g id="node17" class="node">
<title>Node16</title>
<g id="a_node17"><a xlink:href="classgame_1_1penguin_1_1_board_cell.html#a4d3577488552bf0ba4822ac265532825" target="_top" xlink:title="game::penguin::BoardCell\l::clone">
<polygon fill="none" stroke="#000000" points="557,-182.5 557,-212.5 700,-212.5 700,-182.5 557,-182.5"/>
<text text-anchor="start" x="565" y="-200.5" font-family="Helvetica,sans-Serif" font-size="10.00" fill="#000000">game::penguin::BoardCell</text>
<text text-anchor="middle" x="628.5" y="-189.5" font-family="Helvetica,sans-Serif" font-size="10.00" fill="#000000">::clone</text>
</a>
</g>
</g>
<!-- Node13&#45;&gt;Node16 -->
<g id="edge16" class="edge">
<title>Node13&#45;&gt;Node16</title>
<path fill="none" stroke="#191970" d="M512.111,-175.8318C523.4273,-177.9386 535.2033,-180.1309 546.7296,-182.2768"/>
<polygon fill="#191970" stroke="#191970" points="546.3051,-185.7578 556.7768,-184.1473 547.5863,-178.8761 546.3051,-185.7578"/>
</g>
<!-- Node15 -->
<g id="node16" class="node">
<title>Node15</title>
<g id="a_node16"><a xlink:href="classgame_1_1_abstract_pawn.html#a49354506912d0e1bf5272627aa2bc86e" target="_top" xlink:title="Get pawn&#39;s id. ">
<polygon fill="none" stroke="#000000" points="749.5,-117.5 749.5,-147.5 865.5,-147.5 865.5,-117.5 749.5,-117.5"/>
<text text-anchor="start" x="757.5" y="-135.5" font-family="Helvetica,sans-Serif" font-size="10.00" fill="#000000">game::AbstractPawn</text>
<text text-anchor="middle" x="807.5" y="-124.5" font-family="Helvetica,sans-Serif" font-size="10.00" fill="#000000">::getId</text>
</a>
</g>
</g>
<!-- Node14&#45;&gt;Node15 -->
<g id="edge15" class="edge">
<title>Node14&#45;&gt;Node15</title>
<path fill="none" stroke="#191970" d="M700.0172,-137.3037C712.9262,-136.7268 726.3557,-136.1266 739.1708,-135.5538"/>
<polygon fill="#191970" stroke="#191970" points="739.4612,-139.0444 749.2949,-135.1013 739.1486,-132.0514 739.4612,-139.0444"/>
</g>
<!-- Node16&#45;&gt;Node7 -->
<g id="edge18" class="edge">
<title>Node16&#45;&gt;Node7</title>
<path fill="none" stroke="#191970" d="M679.6615,-212.5117C686.7045,-215.3962 693.6806,-218.7192 700,-222.5 718.6261,-233.6436 717.3046,-244.4731 736,-255.5 738.8196,-257.163 741.7703,-258.7301 744.7997,-260.2042"/>
<polygon fill="#191970" stroke="#191970" points="743.5138,-263.4631 754.0714,-264.35 746.3712,-257.0728 743.5138,-263.4631"/>
</g>
<!-- Node17 -->
<g id="node18" class="node">
<title>Node17</title>
<g id="a_node18"><a xlink:href="classgame_1_1penguin_1_1_board_cell.html#a2c76e638f5d0d4374b422756b08cb61f" target="_top" xlink:title="Construct a new Board Cell object. ">
<polygon fill="none" stroke="#000000" points="736,-166.5 736,-196.5 879,-196.5 879,-166.5 736,-166.5"/>
<text text-anchor="start" x="744" y="-184.5" font-family="Helvetica,sans-Serif" font-size="10.00" fill="#000000">game::penguin::BoardCell</text>
<text text-anchor="middle" x="807.5" y="-173.5" font-family="Helvetica,sans-Serif" font-size="10.00" fill="#000000">::BoardCell</text>
</a>
</g>
</g>
<!-- Node16&#45;&gt;Node17 -->
<g id="edge17" class="edge">
<title>Node16&#45;&gt;Node17</title>
<path fill="none" stroke="#191970" d="M700.0172,-191.1074C708.4862,-190.3504 717.1793,-189.5734 725.776,-188.8049"/>
<polygon fill="#191970" stroke="#191970" points="726.1556,-192.2851 735.8042,-187.9086 725.5323,-185.3129 726.1556,-192.2851"/>
</g>
<!-- Node16&#45;&gt;Node18 -->
<g id="edge19" class="edge">
<title>Node16&#45;&gt;Node18</title>
<path fill="none" stroke="#191970" d="M686.0072,-212.6442C691.077,-215.4033 695.8501,-218.6592 700,-222.5 729.2111,-249.5353 717.7134,-269.1475 736,-304.5 753.5964,-338.5182 776.8968,-376.1554 792.04,-399.8114"/>
<polygon fill="#191970" stroke="#191970" points="789.2485,-401.941 797.6068,-408.4517 795.1329,-398.1497 789.2485,-401.941"/>
</g>
<!-- Node19 -->
<g id="node20" class="node">
<title>Node19</title>
<g id="a_node20"><a xlink:href="classgame_1_1penguin_1_1_board_cell.html#a011487b961b356a891144edcccc1473f" target="_top" xlink:title="Get the penguin standing on the cell. ">
<polygon fill="none" stroke="#000000" points="736,-215.5 736,-245.5 879,-245.5 879,-215.5 736,-215.5"/>
<text text-anchor="start" x="744" y="-233.5" font-family="Helvetica,sans-Serif" font-size="10.00" fill="#000000">game::penguin::BoardCell</text>
<text text-anchor="middle" x="807.5" y="-222.5" font-family="Helvetica,sans-Serif" font-size="10.00" fill="#000000">::getOwner</text>
</a>
</g>
</g>
<!-- Node16&#45;&gt;Node19 -->
<g id="edge20" class="edge">
<title>Node16&#45;&gt;Node19</title>
<path fill="none" stroke="#191970" d="M700.0172,-210.6847C708.4862,-212.2461 717.1793,-213.8487 725.776,-215.4336"/>
<polygon fill="#191970" stroke="#191970" points="725.3354,-218.9112 735.8042,-217.2823 726.6045,-212.0272 725.3354,-218.9112"/>
</g>
</g>
</svg>
        <g id="navigator" transform="translate(0 0)" fill="#404254">
                <rect fill="#f2f5e9" fill-opacity="0.5" stroke="#606060" stroke-width=".5" x="0" y="0" width="60" height="60"/>
                <use id="zoomplus" xlink:href="#zoomPlus" x="17" y="9" onmousedown="handleZoom(evt,'in')"/>
                <use id="zoomminus" xlink:href="#zoomMin" x="42" y="9" onmousedown="handleZoom(evt,'out')"/>
                <use id="reset" xlink:href="#resetDef" x="30" y="36" onmousedown="handleReset()"/>
                <g id="arrowUp" xlink:href="#dirArrow" transform="translate(30 24)" onmousedown="handlePan(0,-1)">
                  <use xlink:href="#rim" fill="#404040">
                        <set attributeName="fill" to="#808080" begin="arrowUp.mouseover" end="arrowUp.mouseout"/>
                  </use>
                  <path fill="none" stroke="white" stroke-width="1.5" d="M0,-3.0v7 M-2.5,-0.5L0,-3.0L2.5,-0.5"/>
                </g>
                <g id="arrowRight" xlink:href="#dirArrow" transform="rotate(90) translate(36 -43)" onmousedown="handlePan(1,0)">
                  <use xlink:href="#rim" fill="#404040">
                        <set attributeName="fill" to="#808080" begin="arrowRight.mouseover" end="arrowRight.mouseout"/>
                  </use>
                  <path fill="none" stroke="white" stroke-width="1.5" d="M0,-3.0v7 M-2.5,-0.5L0,-3.0L2.5,-0.5"/>
                </g>
                <g id="arrowDown" xlink:href="#dirArrow" transform="rotate(180) translate(-30 -48)" onmousedown="handlePan(0,1)">
                  <use xlink:href="#rim" fill="#404040">
                        <set attributeName="fill" to="#808080" begin="arrowDown.mouseover" end="arrowDown.mouseout"/>
                  </use>
                  <path fill="none" stroke="white" stroke-width="1.5" d="M0,-3.0v7 M-2.5,-0.5L0,-3.0L2.5,-0.5"/>
                </g>
                <g id="arrowLeft" xlink:href="#dirArrow" transform="rotate(270) translate(-36 17)" onmousedown="handlePan(-1,0)">
                  <use xlink:href="#rim" fill="#404040">
                        <set attributeName="fill" to="#808080" begin="arrowLeft.mouseover" end="arrowLeft.mouseout"/>
                  </use>
                  <path fill="none" stroke="white" stroke-width="1.5" d="M0,-3.0v7 M-2.5,-0.5L0,-3.0L2.5,-0.5"/>
                </g>
        </g>
        <svg viewBox="0 0 15 15" width="100%" height="30px" preserveAspectRatio="xMaxYMin meet">
         <g id="arrow_out" transform="scale(0.3 0.3)">
          <a xlink:href="classgame_1_1penguin_1_1_console_game_ac6ac2ce8f015a83682f7022c268c5efb_cgraph_org.svg" target="_base">
           <rect id="button" ry="5" rx="5" y="6" x="6" height="38" width="38"
                fill="#f2f5e9" fill-opacity="0.5" stroke="#606060" stroke-width="1.0"/>
           <path id="arrow"
             d="M 11.500037,31.436501 C 11.940474,20.09759 22.043105,11.32322 32.158766,21.979434 L 37.068811,17.246167 C 37.068811,17.246167 37.088388,32 37.088388,32 L 22.160133,31.978069 C 22.160133,31.978069 26.997745,27.140456 26.997745,27.140456 C 18.528582,18.264221 13.291696,25.230495 11.500037,31.436501 z"
             style="fill:#404040;"/>
          </a>
         </g>
        </svg>
</svg>
