<?xml version="1.0" encoding="UTF-8" standalone="no"?>
<!DOCTYPE svg PUBLIC "-//W3C//DTD SVG 1.1//EN"
 "http://www.w3.org/Graphics/SVG/1.1/DTD/svg11.dtd">
<!-- Generated by graphviz version 2.40.1 (20161225.0304)
 -->
<!-- Title: game::penguin::BoardCell::getPosition Pages: 1 -->
<svg width="788pt" height="186pt"
 viewBox="0.00 0.00 788.00 186.00" xmlns="http://www.w3.org/2000/svg" xmlns:xlink="http://www.w3.org/1999/xlink">
<g id="graph0" class="graph" transform="scale(1 1) rotate(0) translate(4 182)">
<title>game::penguin::BoardCell::getPosition</title>
<!-- Node74 -->
<g id="node1" class="node">
<title>Node74</title>
<polygon fill="#bfbfbf" stroke="#000000" points="0,-85.5 0,-115.5 143,-115.5 143,-85.5 0,-85.5"/>
<text text-anchor="start" x="8" y="-103.5" font-family="Helvetica,sans-Serif" font-size="10.00" fill="#000000">game::penguin::BoardCell</text>
<text text-anchor="middle" x="71.5" y="-92.5" font-family="Helvetica,sans-Serif" font-size="10.00" fill="#000000">::getPosition</text>
</g>
<!-- Node75 -->
<g id="node2" class="node">
<title>Node75</title>
<g id="a_node2"><a xlink:href="classgame_1_1penguin_1_1_board.html#af297dc572afb02dafc61e3b8e849338f" target="_top" xlink:title="Performs a particular move. ">
<polygon fill="none" stroke="#000000" points="179,-140.5 179,-170.5 303,-170.5 303,-140.5 179,-140.5"/>
<text text-anchor="start" x="187" y="-158.5" font-family="Helvetica,sans-Serif" font-size="10.00" fill="#000000">game::penguin::Board</text>
<text text-anchor="middle" x="241" y="-147.5" font-family="Helvetica,sans-Serif" font-size="10.00" fill="#000000">::performMove</text>
</a>
</g>
</g>
<!-- Node74&#45;&gt;Node75 -->
<g id="edge1" class="edge">
<title>Node74&#45;&gt;Node75</title>
<path fill="none" stroke="#191970" d="M127.5958,-118.7022C149.3708,-125.7678 174.0062,-133.7616 194.7394,-140.4892"/>
<polygon fill="#191970" stroke="#191970" points="128.4087,-115.2864 117.8166,-115.529 126.2481,-121.9446 128.4087,-115.2864"/>
</g>
<!-- Node77 -->
<g id="node4" class="node">
<title>Node77</title>
<g id="a_node4"><a xlink:href="classgame_1_1penguin_1_1_board.html#ae85ef3019829098c5ad5afb1c3ebceb5" target="_top" xlink:title="Is the player able to move. ">
<polygon fill="none" stroke="#000000" points="179,-85.5 179,-115.5 303,-115.5 303,-85.5 179,-85.5"/>
<text text-anchor="start" x="187" y="-103.5" font-family="Helvetica,sans-Serif" font-size="10.00" fill="#000000">game::penguin::Board</text>
<text text-anchor="middle" x="241" y="-92.5" font-family="Helvetica,sans-Serif" font-size="10.00" fill="#000000">::isAbleToMove</text>
</a>
</g>
</g>
<!-- Node74&#45;&gt;Node77 -->
<g id="edge3" class="edge">
<title>Node74&#45;&gt;Node77</title>
<path fill="none" stroke="#191970" d="M153.4164,-100.5C161.9963,-100.5 170.615,-100.5 178.9201,-100.5"/>
<polygon fill="#191970" stroke="#191970" points="153.3833,-97.0001 143.3833,-100.5 153.3832,-104.0001 153.3833,-97.0001"/>
</g>
<!-- Node82 -->
<g id="node9" class="node">
<title>Node82</title>
<g id="a_node9"><a xlink:href="classgame_1_1penguin_1_1_board.html#a26bc6f1c2da1197d9b68f9b4c4e3126b" target="_top" xlink:title="Get a list of available cells, ie player can move onto. ">
<polygon fill="none" stroke="#000000" points="179,-24.5 179,-54.5 303,-54.5 303,-24.5 179,-24.5"/>
<text text-anchor="start" x="187" y="-42.5" font-family="Helvetica,sans-Serif" font-size="10.00" fill="#000000">game::penguin::Board</text>
<text text-anchor="middle" x="241" y="-31.5" font-family="Helvetica,sans-Serif" font-size="10.00" fill="#000000">::getAvailableCells</text>
</a>
</g>
</g>
<!-- Node74&#45;&gt;Node82 -->
<g id="edge8" class="edge">
<title>Node74&#45;&gt;Node82</title>
<path fill="none" stroke="#191970" d="M122.8822,-82.0085C147.3414,-73.206 176.2133,-62.8156 199.2897,-54.5108"/>
<polygon fill="#191970" stroke="#191970" points="121.6229,-78.7418 113.3989,-85.4213 123.9933,-85.3283 121.6229,-78.7418"/>
</g>
<!-- Node76 -->
<g id="node3" class="node">
<title>Node76</title>
<g id="a_node3"><a xlink:href="classgame_1_1penguin_1_1_console_game.html#ac6ac2ce8f015a83682f7022c268c5efb" target="_top" xlink:title="game::penguin::ConsoleGame\l::ConsoleGame">
<polygon fill="none" stroke="#000000" points="339,-147.5 339,-177.5 503,-177.5 503,-147.5 339,-147.5"/>
<text text-anchor="start" x="347" y="-165.5" font-family="Helvetica,sans-Serif" font-size="10.00" fill="#000000">game::penguin::ConsoleGame</text>
<text text-anchor="middle" x="421" y="-154.5" font-family="Helvetica,sans-Serif" font-size="10.00" fill="#000000">::ConsoleGame</text>
</a>
</g>
</g>
<!-- Node75&#45;&gt;Node76 -->
<g id="edge2" class="edge">
<title>Node75&#45;&gt;Node76</title>
<path fill="none" stroke="#191970" d="M313.3028,-158.3118C321.6907,-158.638 330.2922,-158.9725 338.8,-159.3033"/>
<polygon fill="#191970" stroke="#191970" points="313.3263,-154.8101 303.1978,-157.9188 313.0542,-161.8049 313.3263,-154.8101"/>
</g>
<!-- Node78 -->
<g id="node5" class="node">
<title>Node78</title>
<g id="a_node5"><a xlink:href="classgame_1_1penguin_1_1_board.html#a3d659743bc33b43168c82dc4e2d3b00e" target="_top" xlink:title="Chek wether or not the game is finished. ">
<polygon fill="none" stroke="#000000" points="359,-98.5 359,-128.5 483,-128.5 483,-98.5 359,-98.5"/>
<text text-anchor="start" x="367" y="-116.5" font-family="Helvetica,sans-Serif" font-size="10.00" fill="#000000">game::penguin::Board</text>
<text text-anchor="middle" x="421" y="-105.5" font-family="Helvetica,sans-Serif" font-size="10.00" fill="#000000">::checkStatus</text>
</a>
</g>
</g>
<!-- Node77&#45;&gt;Node78 -->
<g id="edge4" class="edge">
<title>Node77&#45;&gt;Node78</title>
<path fill="none" stroke="#191970" d="M313.4667,-105.7337C328.4873,-106.8185 344.1857,-107.9523 358.7997,-109.0078"/>
<polygon fill="#191970" stroke="#191970" points="313.424,-102.2216 303.1978,-104.9921 312.9197,-109.2034 313.424,-102.2216"/>
</g>
<!-- Node79 -->
<g id="node6" class="node">
<title>Node79</title>
<g id="a_node6"><a xlink:href="classgame_1_1penguin_1_1_penguin_game.html#aac449b76f27098b1d2218cc51e7f70b4" target="_top" xlink:title="Get the Human player to play, not the penguin one. ">
<polygon fill="none" stroke="#000000" points="339,-49.5 339,-79.5 503,-79.5 503,-49.5 339,-49.5"/>
<text text-anchor="start" x="347" y="-67.5" font-family="Helvetica,sans-Serif" font-size="10.00" fill="#000000">game::penguin::PenguinGame</text>
<text text-anchor="middle" x="421" y="-56.5" font-family="Helvetica,sans-Serif" font-size="10.00" fill="#000000">::getPlayerToPlay</text>
</a>
</g>
</g>
<!-- Node77&#45;&gt;Node79 -->
<g id="edge5" class="edge">
<title>Node77&#45;&gt;Node79</title>
<path fill="none" stroke="#191970" d="M313.3125,-86.0375C323.9945,-83.9011 335.0225,-81.6955 345.7622,-79.5476"/>
<polygon fill="#191970" stroke="#191970" points="312.3172,-82.6672 303.1978,-88.0604 313.6901,-89.5312 312.3172,-82.6672"/>
</g>
<!-- Node80 -->
<g id="node7" class="node">
<title>Node80</title>
<g id="a_node7"><a xlink:href="classgame_1_1penguin_1_1_console_game.html#a56af132d8e3d16902fb46b7979d37eae" target="_top" xlink:title="Loop while the game is not finished, told by the isFinished method. ">
<polygon fill="none" stroke="#000000" points="539,-49.5 539,-79.5 703,-79.5 703,-49.5 539,-49.5"/>
<text text-anchor="start" x="547" y="-67.5" font-family="Helvetica,sans-Serif" font-size="10.00" fill="#000000">game::penguin::ConsoleGame</text>
<text text-anchor="middle" x="621" y="-56.5" font-family="Helvetica,sans-Serif" font-size="10.00" fill="#000000">::loop</text>
</a>
</g>
</g>
<!-- Node79&#45;&gt;Node80 -->
<g id="edge6" class="edge">
<title>Node79&#45;&gt;Node80</title>
<path fill="none" stroke="#191970" d="M513.4658,-64.5C521.9136,-64.5 530.4335,-64.5 538.7826,-64.5"/>
<polygon fill="#191970" stroke="#191970" points="513.2135,-61.0001 503.2135,-64.5 513.2134,-68.0001 513.2135,-61.0001"/>
</g>
<!-- Node81 -->
<g id="node8" class="node">
<title>Node81</title>
<g id="a_node8"><a xlink:href="main_8cpp.html#a1dfeea39dabf076270426c94def1a2a2" target="_top" xlink:title="main">
<polygon fill="none" stroke="#000000" points="739,-55 739,-74 780,-74 780,-55 739,-55"/>
<text text-anchor="middle" x="759.5" y="-62" font-family="Helvetica,sans-Serif" font-size="10.00" fill="#000000">main</text>
</a>
</g>
</g>
<!-- Node80&#45;&gt;Node81 -->
<g id="edge7" class="edge">
<title>Node80&#45;&gt;Node81</title>
<path fill="none" stroke="#191970" d="M713.2725,-64.5C722.7768,-64.5 731.6282,-64.5 738.9893,-64.5"/>
<polygon fill="#191970" stroke="#191970" points="713.1668,-61.0001 703.1667,-64.5 713.1667,-68.0001 713.1668,-61.0001"/>
</g>
<!-- Node83 -->
<g id="node10" class="node">
<title>Node83</title>
<g id="a_node10"><a xlink:href="classgame_1_1penguin_1_1_penguin_game.html#ae92f96626c8d88f77279b6a76822fbe0" target="_top" xlink:title="game::penguin::PenguinGame\l::getAvailableMoves">
<polygon fill="none" stroke="#000000" points="339,-.5 339,-30.5 503,-30.5 503,-.5 339,-.5"/>
<text text-anchor="start" x="347" y="-18.5" font-family="Helvetica,sans-Serif" font-size="10.00" fill="#000000">game::penguin::PenguinGame</text>
<text text-anchor="middle" x="421" y="-7.5" font-family="Helvetica,sans-Serif" font-size="10.00" fill="#000000">::getAvailableMoves</text>
</a>
</g>
</g>
<!-- Node82&#45;&gt;Node83 -->
<g id="edge9" class="edge">
<title>Node82&#45;&gt;Node83</title>
<path fill="none" stroke="#191970" d="M313.3028,-29.8596C321.6907,-28.7412 330.2922,-27.5944 338.8,-26.46"/>
<polygon fill="#191970" stroke="#191970" points="312.6475,-26.4159 303.1978,-31.207 313.5727,-33.3545 312.6475,-26.4159"/>
</g>
</g>
</svg>
