<?xml version="1.0" encoding="UTF-8" standalone="no"?>
<!DOCTYPE svg PUBLIC "-//W3C//DTD SVG 1.1//EN"
 "http://www.w3.org/Graphics/SVG/1.1/DTD/svg11.dtd">
<!-- Generated by graphviz version 2.40.1 (20161225.0304)
 -->
<!-- Title: game::AbstractBoardCell::equals_to Pages: 1 -->
<svg width="320pt" height="88pt"
 viewBox="0.00 0.00 320.00 88.00" xmlns="http://www.w3.org/2000/svg" xmlns:xlink="http://www.w3.org/1999/xlink">
<g id="graph0" class="graph" transform="scale(1 1) rotate(0) translate(4 84)">
<title>game::AbstractBoardCell::equals_to</title>
<!-- Node7 -->
<g id="node1" class="node">
<title>Node7</title>
<polygon fill="#bfbfbf" stroke="#000000" points="0,-24.5 0,-54.5 138,-54.5 138,-24.5 0,-24.5"/>
<text text-anchor="start" x="8" y="-42.5" font-family="Helvetica,sans-Serif" font-size="10.00" fill="#000000">game::AbstractBoardCell</text>
<text text-anchor="middle" x="69" y="-31.5" font-family="Helvetica,sans-Serif" font-size="10.00" fill="#000000">::equals_to</text>
</g>
<!-- Node8 -->
<g id="node2" class="node">
<title>Node8</title>
<g id="a_node2"><a xlink:href="classgame_1_1_abstract_board_cell.html#ad2e86ef567d46428275e9eb4372d788f" target="_top" xlink:title="game::AbstractBoardCell\l::operator==">
<polygon fill="none" stroke="#000000" points="174,-49.5 174,-79.5 312,-79.5 312,-49.5 174,-49.5"/>
<text text-anchor="start" x="182" y="-67.5" font-family="Helvetica,sans-Serif" font-size="10.00" fill="#000000">game::AbstractBoardCell</text>
<text text-anchor="middle" x="243" y="-56.5" font-family="Helvetica,sans-Serif" font-size="10.00" fill="#000000">::operator==</text>
</a>
</g>
</g>
<!-- Node7&#45;&gt;Node8 -->
<g id="edge1" class="edge">
<title>Node7&#45;&gt;Node8</title>
<path fill="none" stroke="#191970" d="M148.0349,-50.8556C156.6249,-52.0898 165.3194,-53.339 173.7795,-54.5545"/>
<polygon fill="#191970" stroke="#191970" points="148.4155,-47.3744 138.0193,-49.4166 147.4199,-54.3033 148.4155,-47.3744"/>
</g>
<!-- Node9 -->
<g id="node3" class="node">
<title>Node9</title>
<g id="a_node3"><a xlink:href="classgame_1_1_abstract_board_cell.html#a4a649f51a349dad0246fed9e8faee922" target="_top" xlink:title="game::AbstractBoardCell\l::operator!=">
<polygon fill="none" stroke="#000000" points="174,-.5 174,-30.5 312,-30.5 312,-.5 174,-.5"/>
<text text-anchor="start" x="182" y="-18.5" font-family="Helvetica,sans-Serif" font-size="10.00" fill="#000000">game::AbstractBoardCell</text>
<text text-anchor="middle" x="243" y="-7.5" font-family="Helvetica,sans-Serif" font-size="10.00" fill="#000000">::operator!=</text>
</a>
</g>
</g>
<!-- Node7&#45;&gt;Node9 -->
<g id="edge2" class="edge">
<title>Node7&#45;&gt;Node9</title>
<path fill="none" stroke="#191970" d="M148.0349,-28.5986C156.6249,-27.4138 165.3194,-26.2146 173.7795,-25.0477"/>
<polygon fill="#191970" stroke="#191970" points="147.4473,-25.1465 138.0193,-29.9801 148.4038,-32.0808 147.4473,-25.1465"/>
</g>
</g>
</svg>
