<?xml version="1.0" encoding="UTF-8" standalone="no"?>
<!DOCTYPE svg PUBLIC "-//W3C//DTD SVG 1.1//EN"
 "http://www.w3.org/Graphics/SVG/1.1/DTD/svg11.dtd">
<!-- Generated by graphviz version 2.40.1 (20161225.0304)
 -->
<!-- Title: game::tic_tac_toe::Board::checkStatus Pages: 1 -->
<svg width="445pt" height="88pt"
 viewBox="0.00 0.00 445.00 88.00" xmlns="http://www.w3.org/2000/svg" xmlns:xlink="http://www.w3.org/1999/xlink">
<g id="graph0" class="graph" transform="scale(1 1) rotate(0) translate(4 84)">
<title>game::tic_tac_toe::Board::checkStatus</title>
<!-- Node12 -->
<g id="node1" class="node">
<title>Node12</title>
<polygon fill="#bfbfbf" stroke="#000000" points="0,-24.5 0,-54.5 110,-54.5 110,-24.5 0,-24.5"/>
<text text-anchor="start" x="8" y="-42.5" font-family="Helvetica,sans-Serif" font-size="10.00" fill="#000000">game::tic_tac_toe::</text>
<text text-anchor="middle" x="55" y="-31.5" font-family="Helvetica,sans-Serif" font-size="10.00" fill="#000000">Board::checkStatus</text>
</g>
<!-- Node13 -->
<g id="node2" class="node">
<title>Node13</title>
<g id="a_node2"><a xlink:href="classgame_1_1tic__tac__toe_1_1_board.html#ac100c056a65c288951f7ffec0f3fd4ad" target="_top" xlink:title="Check a line (col or row) for a win. ">
<polygon fill="none" stroke="#000000" points="157.5,-49.5 157.5,-79.5 270.5,-79.5 270.5,-49.5 157.5,-49.5"/>
<text text-anchor="start" x="165.5" y="-67.5" font-family="Helvetica,sans-Serif" font-size="10.00" fill="#000000">game::tic_tac_toe::</text>
<text text-anchor="middle" x="214" y="-56.5" font-family="Helvetica,sans-Serif" font-size="10.00" fill="#000000">Board::checkForWin</text>
</a>
</g>
</g>
<!-- Node12&#45;&gt;Node13 -->
<g id="edge1" class="edge">
<title>Node12&#45;&gt;Node13</title>
<path fill="none" stroke="#191970" d="M110.1643,-48.1736C122.0767,-50.0466 134.7958,-52.0465 147.1016,-53.9814"/>
<polygon fill="#191970" stroke="#191970" points="146.8922,-57.4914 157.3145,-55.5872 147.9796,-50.5763 146.8922,-57.4914"/>
</g>
<!-- Node14 -->
<g id="node3" class="node">
<title>Node14</title>
<g id="a_node3"><a xlink:href="classgame_1_1tic__tac__toe_1_1_board.html#a68eea4b31da1c8b4cf90ff0d6bc9d232" target="_top" xlink:title="Get a list of empty cells, ie player not passed yet. ">
<polygon fill="none" stroke="#000000" points="146,-.5 146,-30.5 282,-30.5 282,-.5 146,-.5"/>
<text text-anchor="start" x="154" y="-18.5" font-family="Helvetica,sans-Serif" font-size="10.00" fill="#000000">game::tic_tac_toe::</text>
<text text-anchor="middle" x="214" y="-7.5" font-family="Helvetica,sans-Serif" font-size="10.00" fill="#000000">Board::getAvailableCells</text>
</a>
</g>
</g>
<!-- Node12&#45;&gt;Node14 -->
<g id="edge2" class="edge">
<title>Node12&#45;&gt;Node14</title>
<path fill="none" stroke="#191970" d="M110.1643,-31.1733C118.416,-29.9278 127.055,-28.6238 135.6754,-27.3226"/>
<polygon fill="#191970" stroke="#191970" points="136.3968,-30.7534 145.7624,-25.8 135.3519,-23.8318 136.3968,-30.7534"/>
</g>
<!-- Node15 -->
<g id="node4" class="node">
<title>Node15</title>
<g id="a_node4"><a xlink:href="classgame_1_1tic__tac__toe_1_1_board_cell.html#a800b9a8409ad28086ad1e7cb275fa25e" target="_top" xlink:title="tells if the cell is claimed or not ">
<polygon fill="none" stroke="#000000" points="318,-.5 318,-30.5 437,-30.5 437,-.5 318,-.5"/>
<text text-anchor="start" x="326" y="-18.5" font-family="Helvetica,sans-Serif" font-size="10.00" fill="#000000">game::tic_tac_toe::</text>
<text text-anchor="middle" x="377.5" y="-7.5" font-family="Helvetica,sans-Serif" font-size="10.00" fill="#000000">BoardCell::isClaimed</text>
</a>
</g>
</g>
<!-- Node14&#45;&gt;Node15 -->
<g id="edge3" class="edge">
<title>Node14&#45;&gt;Node15</title>
<path fill="none" stroke="#191970" d="M282.3914,-15.5C290.7899,-15.5 299.3818,-15.5 307.7995,-15.5"/>
<polygon fill="#191970" stroke="#191970" points="307.956,-19.0001 317.956,-15.5 307.956,-12.0001 307.956,-19.0001"/>
</g>
</g>
</svg>
