<?xml version="1.0" encoding="UTF-8" standalone="no"?>
<!DOCTYPE svg PUBLIC "-//W3C//DTD SVG 1.1//EN"
 "http://www.w3.org/Graphics/SVG/1.1/DTD/svg11.dtd">
<!-- Generated by graphviz version 2.40.1 (20161225.0304)
 -->
<!-- Title: mcts::MCTSPlayer::bestMove Pages: 1 -->
<!--zoomable 318 -->
<svg id="main" version="1.1" xmlns="http://www.w3.org/2000/svg" xmlns:xlink="http://www.w3.org/1999/xlink" xml:space="preserve" onload="init(evt)">
<style type="text/css"><![CDATA[
.edge:hover path { stroke: red; }
.edge:hover polygon { stroke: red; fill: red; }
]]></style>
<script type="text/javascript"><![CDATA[
var edges = document.getElementsByTagName('g');
if (edges && edges.length) {
  for (var i=0;i<edges.length;i++) {
    if (edges[i].id.substr(0,4)=='edge') {
      edges[i].setAttribute('class','edge');
    }
  }
}
]]></script>
        <defs>
                <circle id="rim" cx="0" cy="0" r="7"/>
                <circle id="rim2" cx="0" cy="0" r="3.5"/>
                <g id="zoomPlus">
                        <use xlink:href="#rim" fill="#404040">
                                <set attributeName="fill" to="#808080" begin="zoomplus.mouseover" end="zoomplus.mouseout"/>
                        </use>
                        <path d="M-4,0h8M0,-4v8" fill="none" stroke="white" stroke-width="1.5" pointer-events="none"/>
                </g>
                <g id="zoomMin">
                        <use xlink:href="#rim" fill="#404040">
                                <set attributeName="fill" to="#808080" begin="zoomminus.mouseover" end="zoomminus.mouseout"/>
                        </use>
                        <path d="M-4,0h8" fill="none" stroke="white" stroke-width="1.5" pointer-events="none"/>
                </g>
                <g id="dirArrow">
                        <path fill="none" stroke="white" stroke-width="1.5" d="M0,-3.0v7 M-2.5,-0.5L0,-3.0L2.5,-0.5"/>
                </g>
               <g id="resetDef">
                       <use xlink:href="#rim2" fill="#404040">
                               <set attributeName="fill" to="#808080" begin="reset.mouseover" end="reset.mouseout"/>
                       </use>
               </g>
        </defs>

<script type="text/javascript">
var viewWidth = 1051;
var viewHeight = 318;
var sectionId = 'dynsection-1';
</script>
<script xlink:href="svgpan.js"/>
<svg id="graph" class="graph">
<g id="viewport">
<title>mcts::MCTSPlayer::bestMove</title>
<!-- Node4 -->
<g id="node1" class="node">
<title>Node4</title>
<polygon fill="#bfbfbf" stroke="#000000" points="0,-76.5 0,-95.5 158,-95.5 158,-76.5 0,-76.5"/>
<text text-anchor="middle" x="79" y="-83.5" font-family="Helvetica,sans-Serif" font-size="10.00" fill="#000000">mcts::MCTSPlayer::bestMove</text>
</g>
<!-- Node5 -->
<g id="node2" class="node">
<title>Node5</title>
<g id="a_node2"><a xlink:href="classmcts_1_1_m_c_t_s_player.html#a53677f7c7f9cfe4b7999af8abcfb8641" target="_top" xlink:title="Unleashe the power of the MCTS !!!! ">
<polygon fill="none" stroke="#000000" points="216.5,-152.5 216.5,-171.5 394.5,-171.5 394.5,-152.5 216.5,-152.5"/>
<text text-anchor="middle" x="305.5" y="-159.5" font-family="Helvetica,sans-Serif" font-size="10.00" fill="#000000">mcts::MCTSPlayer::unleash_mcts</text>
</a>
</g>
</g>
<!-- Node4&#45;&gt;Node5 -->
<g id="edge1" class="edge">
<title>Node4&#45;&gt;Node5</title>
<path fill="none" stroke="#191970" d="M94.7461,-95.6663C116.3351,-108.4768 156.7049,-130.8692 194,-143 202.7081,-145.8324 211.9434,-148.2634 221.225,-150.3452"/>
<polygon fill="#191970" stroke="#191970" points="220.7847,-153.8293 231.2919,-152.4696 222.2301,-146.9802 220.7847,-153.8293"/>
</g>
<!-- Node16 -->
<g id="node13" class="node">
<title>Node16</title>
<g id="a_node13"><a xlink:href="classmcts_1_1_m_c_t_s_player.html#a9e8202cd2530b6ecc20f873d899823da" target="_top" xlink:title="Join the multiple trees into 1 so that we can get the best move. ">
<polygon fill="none" stroke="#000000" points="228.5,-114.5 228.5,-133.5 382.5,-133.5 382.5,-114.5 228.5,-114.5"/>
<text text-anchor="middle" x="305.5" y="-121.5" font-family="Helvetica,sans-Serif" font-size="10.00" fill="#000000">mcts::MCTSPlayer::joinTrees</text>
</a>
</g>
</g>
<!-- Node4&#45;&gt;Node16 -->
<g id="edge13" class="edge">
<title>Node4&#45;&gt;Node16</title>
<path fill="none" stroke="#191970" d="M135.8632,-95.54C167.0963,-100.7799 206.0115,-107.3088 238.6881,-112.7909"/>
<polygon fill="#191970" stroke="#191970" points="238.1721,-116.2532 248.6134,-114.4561 239.3304,-109.3497 238.1721,-116.2532"/>
</g>
<!-- Node18 -->
<g id="node15" class="node">
<title>Node18</title>
<g id="a_node15"><a xlink:href="classmcts_1_1_tree.html#a0431bd1074e29e682fe3c7bc6a3aee89" target="_top" xlink:title="mcts::Tree::bestMove">
<polygon fill="none" stroke="#000000" points="245.5,-76.5 245.5,-95.5 365.5,-95.5 365.5,-76.5 245.5,-76.5"/>
<text text-anchor="middle" x="305.5" y="-83.5" font-family="Helvetica,sans-Serif" font-size="10.00" fill="#000000">mcts::Tree::bestMove</text>
</a>
</g>
</g>
<!-- Node4&#45;&gt;Node18 -->
<g id="edge15" class="edge">
<title>Node4&#45;&gt;Node18</title>
<path fill="none" stroke="#191970" d="M158.2187,-86C183.2225,-86 210.6662,-86 235.0175,-86"/>
<polygon fill="#191970" stroke="#191970" points="235.2483,-89.5001 245.2483,-86 235.2483,-82.5001 235.2483,-89.5001"/>
</g>
<!-- Node20 -->
<g id="node17" class="node">
<title>Node20</title>
<g id="a_node17"><a xlink:href="classmcts_1_1_m_c_t_s_player.html#aa68be6bbbbd01044d42b9c2d0149b366" target="_top" xlink:title="Get the Corresponding Move object. ">
<polygon fill="none" stroke="#000000" points="194,-38.5 194,-57.5 417,-57.5 417,-38.5 194,-38.5"/>
<text text-anchor="middle" x="305.5" y="-45.5" font-family="Helvetica,sans-Serif" font-size="10.00" fill="#000000">mcts::MCTSPlayer::getCorrespondingMove</text>
</a>
</g>
</g>
<!-- Node4&#45;&gt;Node20 -->
<g id="edge17" class="edge">
<title>Node4&#45;&gt;Node20</title>
<path fill="none" stroke="#191970" d="M135.8632,-76.46C167.0963,-71.2201 206.0115,-64.6912 238.6881,-59.2091"/>
<polygon fill="#191970" stroke="#191970" points="239.3304,-62.6503 248.6134,-57.5439 238.1721,-55.7468 239.3304,-62.6503"/>
</g>
<!-- Node21 -->
<g id="node18" class="node">
<title>Node21</title>
<g id="a_node18"><a xlink:href="classmcts_1_1_tree.html#a75496cb3742583b221c1b95d8fd85718" target="_top" xlink:title="mcts::Tree::getRootNode">
<polygon fill="none" stroke="#000000" points="237.5,-.5 237.5,-19.5 373.5,-19.5 373.5,-.5 237.5,-.5"/>
<text text-anchor="middle" x="305.5" y="-7.5" font-family="Helvetica,sans-Serif" font-size="10.00" fill="#000000">mcts::Tree::getRootNode</text>
</a>
</g>
</g>
<!-- Node4&#45;&gt;Node21 -->
<g id="edge18" class="edge">
<title>Node4&#45;&gt;Node21</title>
<path fill="none" stroke="#191970" d="M94.7461,-76.3337C116.3351,-63.5232 156.7049,-41.1308 194,-29 204.6156,-25.5471 216.0147,-22.6908 227.326,-20.3364"/>
<polygon fill="#191970" stroke="#191970" points="228.0829,-23.7547 237.2216,-18.3942 226.7347,-16.8858 228.0829,-23.7547"/>
</g>
<!-- Node6 -->
<g id="node3" class="node">
<title>Node6</title>
<g id="a_node3"><a xlink:href="classmcts_1_1_m_c_t_s.html#ae8b2818e7a34e858e9dd284d33bca874" target="_top" xlink:title="Start the mcts. ">
<polygon fill="none" stroke="#000000" points="483,-152.5 483,-171.5 590,-171.5 590,-152.5 483,-152.5"/>
<text text-anchor="middle" x="536.5" y="-159.5" font-family="Helvetica,sans-Serif" font-size="10.00" fill="#000000">mcts::MCTS::begin</text>
</a>
</g>
</g>
<!-- Node5&#45;&gt;Node6 -->
<g id="edge2" class="edge">
<title>Node5&#45;&gt;Node6</title>
<path fill="none" stroke="#191970" d="M394.8106,-162C420.8056,-162 448.6689,-162 472.7491,-162"/>
<polygon fill="#191970" stroke="#191970" points="472.8211,-165.5001 482.8211,-162 472.821,-158.5001 472.8211,-165.5001"/>
</g>
<!-- Node7 -->
<g id="node4" class="node">
<title>Node7</title>
<g id="a_node4"><a xlink:href="structmcts_1_1timer.html#af6b8b0201318b987bcab531de4b964f9" target="_top" xlink:title="mcts::timer::milliseconds\l_elapsed">
<polygon fill="none" stroke="#000000" points="671,-279 671,-309 811,-309 811,-279 671,-279"/>
<text text-anchor="start" x="679" y="-297" font-family="Helvetica,sans-Serif" font-size="10.00" fill="#000000">mcts::timer::milliseconds</text>
<text text-anchor="middle" x="741" y="-286" font-family="Helvetica,sans-Serif" font-size="10.00" fill="#000000">_elapsed</text>
</a>
</g>
</g>
<!-- Node6&#45;&gt;Node7 -->
<g id="edge3" class="edge">
<title>Node6&#45;&gt;Node7</title>
<path fill="none" stroke="#191970" d="M545.4831,-171.7827C564.2401,-191.694 609.6827,-237.3004 656,-264 663.211,-268.1568 671.0948,-271.8813 679.0605,-275.1738"/>
<polygon fill="#191970" stroke="#191970" points="677.826,-278.4491 688.4137,-278.8403 680.3809,-271.932 677.826,-278.4491"/>
</g>
<!-- Node8 -->
<g id="node5" class="node">
<title>Node8</title>
<g id="a_node5"><a xlink:href="classmcts_1_1_m_c_t_s.html#a5a3c4a056b0611c19839d6757871653b" target="_top" xlink:title="mcts::MCTS::selectBestChild\lAndDoAction">
<polygon fill="none" stroke="#000000" points="663.5,-191 663.5,-221 818.5,-221 818.5,-191 663.5,-191"/>
<text text-anchor="start" x="671.5" y="-209" font-family="Helvetica,sans-Serif" font-size="10.00" fill="#000000">mcts::MCTS::selectBestChild</text>
<text text-anchor="middle" x="741" y="-198" font-family="Helvetica,sans-Serif" font-size="10.00" fill="#000000">AndDoAction</text>
</a>
</g>
</g>
<!-- Node6&#45;&gt;Node8 -->
<g id="edge4" class="edge">
<title>Node6&#45;&gt;Node8</title>
<path fill="none" stroke="#191970" d="M580.8735,-171.5473C604.3089,-176.5897 633.7925,-182.9334 661.0529,-188.7987"/>
<polygon fill="#191970" stroke="#191970" points="660.4678,-192.2528 670.9803,-190.9346 661.9403,-185.4094 660.4678,-192.2528"/>
</g>
<!-- Node9 -->
<g id="node6" class="node">
<title>Node9</title>
<g id="a_node6"><a xlink:href="classmcts_1_1_m_c_t_s.html#a9b161c003bc21fe3910d7800c09fff1d" target="_top" xlink:title="mcts::MCTS::doActionOnBoard">
<polygon fill="none" stroke="#000000" points="870.5,-237.5 870.5,-256.5 1034.5,-256.5 1034.5,-237.5 870.5,-237.5"/>
<text text-anchor="middle" x="952.5" y="-244.5" font-family="Helvetica,sans-Serif" font-size="10.00" fill="#000000">mcts::MCTS::doActionOnBoard</text>
</a>
</g>
</g>
<!-- Node6&#45;&gt;Node9 -->
<g id="edge9" class="edge">
<title>Node6&#45;&gt;Node9</title>
<path fill="none" stroke="#191970" d="M548.505,-171.5554C569.0872,-187.3054 613.0561,-218.2422 656,-231 722.3333,-250.7063 800.624,-254.1456 860.0942,-252.9591"/>
<polygon fill="#191970" stroke="#191970" points="860.3101,-256.4549 870.2206,-252.7089 860.1371,-249.457 860.3101,-256.4549"/>
</g>
<!-- Node11 -->
<g id="node8" class="node">
<title>Node11</title>
<g id="a_node8"><a xlink:href="classmcts_1_1_m_c_t_s.html#a8c65e74d070a037e5ad0331a39379c9c" target="_top" xlink:title="mcts::MCTS::expandNode">
<polygon fill="none" stroke="#000000" points="670.5,-152.5 670.5,-171.5 811.5,-171.5 811.5,-152.5 670.5,-152.5"/>
<text text-anchor="middle" x="741" y="-159.5" font-family="Helvetica,sans-Serif" font-size="10.00" fill="#000000">mcts::MCTS::expandNode</text>
</a>
</g>
</g>
<!-- Node6&#45;&gt;Node11 -->
<g id="edge7" class="edge">
<title>Node6&#45;&gt;Node11</title>
<path fill="none" stroke="#191970" d="M590.23,-162C611.5685,-162 636.5772,-162 660.0243,-162"/>
<polygon fill="#191970" stroke="#191970" points="660.314,-165.5001 670.314,-162 660.3139,-158.5001 660.314,-165.5001"/>
</g>
<!-- Node12 -->
<g id="node9" class="node">
<title>Node12</title>
<g id="a_node9"><a xlink:href="classmcts_1_1_m_c_t_s.html#a6b5686f91610bb4f46c395634a17a5b8" target="_top" xlink:title="mcts::MCTS::randomChoose\lChildOrFallbackOnNode">
<polygon fill="none" stroke="#000000" points="664.5,-103 664.5,-133 817.5,-133 817.5,-103 664.5,-103"/>
<text text-anchor="start" x="672.5" y="-121" font-family="Helvetica,sans-Serif" font-size="10.00" fill="#000000">mcts::MCTS::randomChoose</text>
<text text-anchor="middle" x="741" y="-110" font-family="Helvetica,sans-Serif" font-size="10.00" fill="#000000">ChildOrFallbackOnNode</text>
</a>
</g>
</g>
<!-- Node6&#45;&gt;Node12 -->
<g id="edge8" class="edge">
<title>Node6&#45;&gt;Node12</title>
<path fill="none" stroke="#191970" d="M580.8735,-152.4527C604.3089,-147.4103 633.7925,-141.0666 661.0529,-135.2013"/>
<polygon fill="#191970" stroke="#191970" points="661.9403,-138.5906 670.9803,-133.0654 660.4678,-131.7472 661.9403,-138.5906"/>
</g>
<!-- Node13 -->
<g id="node10" class="node">
<title>Node13</title>
<g id="a_node10"><a xlink:href="classmcts_1_1_m_c_t_s.html#ad465558c1f4933cae2a32ff7394fc49b" target="_top" xlink:title="mcts::MCTS::randomSimulation">
<polygon fill="none" stroke="#000000" points="656,-64.5 656,-83.5 826,-83.5 826,-64.5 656,-64.5"/>
<text text-anchor="middle" x="741" y="-71.5" font-family="Helvetica,sans-Serif" font-size="10.00" fill="#000000">mcts::MCTS::randomSimulation</text>
</a>
</g>
</g>
<!-- Node6&#45;&gt;Node13 -->
<g id="edge10" class="edge">
<title>Node6&#45;&gt;Node13</title>
<path fill="none" stroke="#191970" d="M590.0718,-155.8277C600.5685,-153.0031 611.0772,-148.9132 620,-143 642.8257,-127.8733 633.1455,-108.083 656,-93 659.0841,-90.9646 662.354,-89.1447 665.746,-87.5176"/>
<polygon fill="#191970" stroke="#191970" points="667.1017,-90.7444 674.9667,-83.6456 664.3915,-84.2904 667.1017,-90.7444"/>
</g>
<!-- Node15 -->
<g id="node12" class="node">
<title>Node15</title>
<g id="a_node12"><a xlink:href="classmcts_1_1_m_c_t_s.html#a53275dba0c93543b2fa8c24ad928e4a8" target="_top" xlink:title="mcts::MCTS::backPropagate\lAndRevertAction">
<polygon fill="none" stroke="#000000" points="665,-15 665,-45 817,-45 817,-15 665,-15"/>
<text text-anchor="start" x="673" y="-33" font-family="Helvetica,sans-Serif" font-size="10.00" fill="#000000">mcts::MCTS::backPropagate</text>
<text text-anchor="middle" x="741" y="-22" font-family="Helvetica,sans-Serif" font-size="10.00" fill="#000000">AndRevertAction</text>
</a>
</g>
</g>
<!-- Node6&#45;&gt;Node15 -->
<g id="edge12" class="edge">
<title>Node6&#45;&gt;Node15</title>
<path fill="none" stroke="#191970" d="M590.3771,-157.6312C601.0899,-154.7022 611.6075,-150.1136 620,-143 652.2354,-115.6768 624.6314,-83.3141 656,-55 657.7163,-53.4508 659.5242,-51.9973 661.4068,-50.6337"/>
<polygon fill="#191970" stroke="#191970" points="663.4608,-53.4774 670.089,-45.212 659.7531,-47.54 663.4608,-53.4774"/>
</g>
<!-- Node8&#45;&gt;Node9 -->
<g id="edge5" class="edge">
<title>Node8&#45;&gt;Node9</title>
<path fill="none" stroke="#191970" d="M818.5538,-221.0341C843.2012,-225.812 870.053,-231.0174 893.1996,-235.5044"/>
<polygon fill="#191970" stroke="#191970" points="892.7295,-238.9784 903.2129,-237.4455 894.0618,-232.1063 892.7295,-238.9784"/>
</g>
<!-- Node10 -->
<g id="node7" class="node">
<title>Node10</title>
<g id="a_node7"><a xlink:href="classmcts_1_1_m_c_t_s.html#ac75ac1b12fbb40dca468f1c31a9fc8cd" target="_top" xlink:title="mcts::MCTS::formula">
<polygon fill="none" stroke="#000000" points="893.5,-196.5 893.5,-215.5 1011.5,-215.5 1011.5,-196.5 893.5,-196.5"/>
<text text-anchor="middle" x="952.5" y="-203.5" font-family="Helvetica,sans-Serif" font-size="10.00" fill="#000000">mcts::MCTS::formula</text>
</a>
</g>
</g>
<!-- Node8&#45;&gt;Node10 -->
<g id="edge6" class="edge">
<title>Node8&#45;&gt;Node10</title>
<path fill="none" stroke="#191970" d="M818.5538,-206C839.6325,-206 862.3236,-206 882.9306,-206"/>
<polygon fill="#191970" stroke="#191970" points="883.1789,-209.5001 893.1789,-206 883.1788,-202.5001 883.1789,-209.5001"/>
</g>
<!-- Node14 -->
<g id="node11" class="node">
<title>Node14</title>
<g id="a_node11"><a xlink:href="classmcts_1_1_m_c_t_s.html#a3e918b416dfe1e5155b077788936f137" target="_top" xlink:title="mcts::MCTS::getRandomAvailable\lMoveFromBoard">
<polygon fill="none" stroke="#000000" points="862,-59 862,-89 1043,-89 1043,-59 862,-59"/>
<text text-anchor="start" x="870" y="-77" font-family="Helvetica,sans-Serif" font-size="10.00" fill="#000000">mcts::MCTS::getRandomAvailable</text>
<text text-anchor="middle" x="952.5" y="-66" font-family="Helvetica,sans-Serif" font-size="10.00" fill="#000000">MoveFromBoard</text>
</a>
</g>
</g>
<!-- Node13&#45;&gt;Node14 -->
<g id="edge11" class="edge">
<title>Node13&#45;&gt;Node14</title>
<path fill="none" stroke="#191970" d="M826.1109,-74C834.5261,-74 843.1228,-74 851.6764,-74"/>
<polygon fill="#191970" stroke="#191970" points="851.6843,-77.5001 861.6843,-74 851.6842,-70.5001 851.6843,-77.5001"/>
</g>
<!-- Node17 -->
<g id="node14" class="node">
<title>Node17</title>
<g id="a_node14"><a xlink:href="classmcts_1_1_tree.html#a06139b9922488bb26feb25745e54e508" target="_top" xlink:title="Merges tree into the current tree. ">
<polygon fill="none" stroke="#000000" points="484.5,-114.5 484.5,-133.5 588.5,-133.5 588.5,-114.5 484.5,-114.5"/>
<text text-anchor="middle" x="536.5" y="-121.5" font-family="Helvetica,sans-Serif" font-size="10.00" fill="#000000">mcts::Tree::merge</text>
</a>
</g>
</g>
<!-- Node16&#45;&gt;Node17 -->
<g id="edge14" class="edge">
<title>Node16&#45;&gt;Node17</title>
<path fill="none" stroke="#191970" d="M382.7408,-124C412.5282,-124 446.1431,-124 474.3289,-124"/>
<polygon fill="#191970" stroke="#191970" points="474.4505,-127.5001 484.4504,-124 474.4504,-120.5001 474.4505,-127.5001"/>
</g>
<!-- Node19 -->
<g id="node16" class="node">
<title>Node19</title>
<g id="a_node16"><a xlink:href="classmcts_1_1_tree.html#a2cf4616df96cb68014ebd8fa6d0aebc4" target="_top" xlink:title="mcts::Tree::nodeWithMaxVisits">
<polygon fill="none" stroke="#000000" points="453,-76.5 453,-95.5 620,-95.5 620,-76.5 453,-76.5"/>
<text text-anchor="middle" x="536.5" y="-83.5" font-family="Helvetica,sans-Serif" font-size="10.00" fill="#000000">mcts::Tree::nodeWithMaxVisits</text>
</a>
</g>
</g>
<!-- Node18&#45;&gt;Node19 -->
<g id="edge16" class="edge">
<title>Node18&#45;&gt;Node19</title>
<path fill="none" stroke="#191970" d="M365.5895,-86C389.0744,-86 416.5648,-86 442.5471,-86"/>
<polygon fill="#191970" stroke="#191970" points="442.8014,-89.5001 452.8013,-86 442.8013,-82.5001 442.8014,-89.5001"/>
</g>
</g>
</svg>
        <g id="navigator" transform="translate(0 0)" fill="#404254">
                <rect fill="#f2f5e9" fill-opacity="0.5" stroke="#606060" stroke-width=".5" x="0" y="0" width="60" height="60"/>
                <use id="zoomplus" xlink:href="#zoomPlus" x="17" y="9" onmousedown="handleZoom(evt,'in')"/>
                <use id="zoomminus" xlink:href="#zoomMin" x="42" y="9" onmousedown="handleZoom(evt,'out')"/>
                <use id="reset" xlink:href="#resetDef" x="30" y="36" onmousedown="handleReset()"/>
                <g id="arrowUp" xlink:href="#dirArrow" transform="translate(30 24)" onmousedown="handlePan(0,-1)">
                  <use xlink:href="#rim" fill="#404040">
                        <set attributeName="fill" to="#808080" begin="arrowUp.mouseover" end="arrowUp.mouseout"/>
                  </use>
                  <path fill="none" stroke="white" stroke-width="1.5" d="M0,-3.0v7 M-2.5,-0.5L0,-3.0L2.5,-0.5"/>
                </g>
                <g id="arrowRight" xlink:href="#dirArrow" transform="rotate(90) translate(36 -43)" onmousedown="handlePan(1,0)">
                  <use xlink:href="#rim" fill="#404040">
                        <set attributeName="fill" to="#808080" begin="arrowRight.mouseover" end="arrowRight.mouseout"/>
                  </use>
                  <path fill="none" stroke="white" stroke-width="1.5" d="M0,-3.0v7 M-2.5,-0.5L0,-3.0L2.5,-0.5"/>
                </g>
                <g id="arrowDown" xlink:href="#dirArrow" transform="rotate(180) translate(-30 -48)" onmousedown="handlePan(0,1)">
                  <use xlink:href="#rim" fill="#404040">
                        <set attributeName="fill" to="#808080" begin="arrowDown.mouseover" end="arrowDown.mouseout"/>
                  </use>
                  <path fill="none" stroke="white" stroke-width="1.5" d="M0,-3.0v7 M-2.5,-0.5L0,-3.0L2.5,-0.5"/>
                </g>
                <g id="arrowLeft" xlink:href="#dirArrow" transform="rotate(270) translate(-36 17)" onmousedown="handlePan(-1,0)">
                  <use xlink:href="#rim" fill="#404040">
                        <set attributeName="fill" to="#808080" begin="arrowLeft.mouseover" end="arrowLeft.mouseout"/>
                  </use>
                  <path fill="none" stroke="white" stroke-width="1.5" d="M0,-3.0v7 M-2.5,-0.5L0,-3.0L2.5,-0.5"/>
                </g>
        </g>
        <svg viewBox="0 0 15 15" width="100%" height="30px" preserveAspectRatio="xMaxYMin meet">
         <g id="arrow_out" transform="scale(0.3 0.3)">
          <a xlink:href="classmcts_1_1_m_c_t_s_player_a48340fed9c5730f0d64ca177682f575e_cgraph_org.svg" target="_base">
           <rect id="button" ry="5" rx="5" y="6" x="6" height="38" width="38"
                fill="#f2f5e9" fill-opacity="0.5" stroke="#606060" stroke-width="1.0"/>
           <path id="arrow"
             d="M 11.500037,31.436501 C 11.940474,20.09759 22.043105,11.32322 32.158766,21.979434 L 37.068811,17.246167 C 37.068811,17.246167 37.088388,32 37.088388,32 L 22.160133,31.978069 C 22.160133,31.978069 26.997745,27.140456 26.997745,27.140456 C 18.528582,18.264221 13.291696,25.230495 11.500037,31.436501 z"
             style="fill:#404040;"/>
          </a>
         </g>
        </svg>
</svg>
