<?xml version="1.0" encoding="UTF-8" standalone="no"?>
<!DOCTYPE svg PUBLIC "-//W3C//DTD SVG 1.1//EN"
 "http://www.w3.org/Graphics/SVG/1.1/DTD/svg11.dtd">
<!-- Generated by graphviz version 2.40.1 (20161225.0304)
 -->
<!-- Title: game::penguin::PenguinGame::getAvailableMoves Pages: 1 -->
<svg width="548pt" height="186pt"
 viewBox="0.00 0.00 548.00 186.00" xmlns="http://www.w3.org/2000/svg" xmlns:xlink="http://www.w3.org/1999/xlink">
<g id="graph0" class="graph" transform="scale(1 1) rotate(0) translate(4 182)">
<title>game::penguin::PenguinGame::getAvailableMoves</title>
<!-- Node12 -->
<g id="node1" class="node">
<title>Node12</title>
<polygon fill="#bfbfbf" stroke="#000000" points="0,-97.5 0,-127.5 164,-127.5 164,-97.5 0,-97.5"/>
<text text-anchor="start" x="8" y="-115.5" font-family="Helvetica,sans-Serif" font-size="10.00" fill="#000000">game::penguin::PenguinGame</text>
<text text-anchor="middle" x="82" y="-104.5" font-family="Helvetica,sans-Serif" font-size="10.00" fill="#000000">::getAvailableMoves</text>
</g>
<!-- Node13 -->
<g id="node2" class="node">
<title>Node13</title>
<g id="a_node2"><a xlink:href="classgame_1_1penguin_1_1_human_player.html#a28c5485b12e0c8fcd340458255c06587" target="_top" xlink:title="Get the penguins possessed by the player. ">
<polygon fill="none" stroke="#000000" points="200,-122.5 200,-152.5 361,-152.5 361,-122.5 200,-122.5"/>
<text text-anchor="start" x="208" y="-140.5" font-family="Helvetica,sans-Serif" font-size="10.00" fill="#000000">game::penguin::HumanPlayer</text>
<text text-anchor="middle" x="280.5" y="-129.5" font-family="Helvetica,sans-Serif" font-size="10.00" fill="#000000">::getPenguins</text>
</a>
</g>
</g>
<!-- Node12&#45;&gt;Node13 -->
<g id="edge1" class="edge">
<title>Node12&#45;&gt;Node13</title>
<path fill="none" stroke="#191970" d="M164.1704,-122.8489C172.6797,-123.9206 181.3616,-125.0141 189.9559,-126.0965"/>
<polygon fill="#191970" stroke="#191970" points="189.6298,-129.583 199.9888,-127.3601 190.5046,-122.6378 189.6298,-129.583"/>
</g>
<!-- Node14 -->
<g id="node3" class="node">
<title>Node14</title>
<g id="a_node3"><a xlink:href="classgame_1_1penguin_1_1_board.html#a26bc6f1c2da1197d9b68f9b4c4e3126b" target="_top" xlink:title="Get a list of available cells, ie player can move onto. ">
<polygon fill="none" stroke="#000000" points="218.5,-73.5 218.5,-103.5 342.5,-103.5 342.5,-73.5 218.5,-73.5"/>
<text text-anchor="start" x="226.5" y="-91.5" font-family="Helvetica,sans-Serif" font-size="10.00" fill="#000000">game::penguin::Board</text>
<text text-anchor="middle" x="280.5" y="-80.5" font-family="Helvetica,sans-Serif" font-size="10.00" fill="#000000">::getAvailableCells</text>
</a>
</g>
</g>
<!-- Node12&#45;&gt;Node14 -->
<g id="edge2" class="edge">
<title>Node12&#45;&gt;Node14</title>
<path fill="none" stroke="#191970" d="M164.1704,-102.565C178.7608,-100.801 193.8589,-98.9755 208.1519,-97.2474"/>
<polygon fill="#191970" stroke="#191970" points="208.8908,-100.6836 218.3984,-96.0085 208.0505,-93.7342 208.8908,-100.6836"/>
</g>
<!-- Node15 -->
<g id="node4" class="node">
<title>Node15</title>
<g id="a_node4"><a xlink:href="classgame_1_1_abstract_pawn.html#ae9ad3bf0ee738571d0dd5992feae6bb7" target="_top" xlink:title="game::AbstractPawn\l::getCurrentCell">
<polygon fill="none" stroke="#000000" points="410.5,-147.5 410.5,-177.5 526.5,-177.5 526.5,-147.5 410.5,-147.5"/>
<text text-anchor="start" x="418.5" y="-165.5" font-family="Helvetica,sans-Serif" font-size="10.00" fill="#000000">game::AbstractPawn</text>
<text text-anchor="middle" x="468.5" y="-154.5" font-family="Helvetica,sans-Serif" font-size="10.00" fill="#000000">::getCurrentCell</text>
</a>
</g>
</g>
<!-- Node14&#45;&gt;Node15 -->
<g id="edge3" class="edge">
<title>Node14&#45;&gt;Node15</title>
<path fill="none" stroke="#191970" d="M336.7871,-103.5506C345.0686,-106.458 353.3722,-109.7772 361,-113.5 378.5059,-122.044 379.5923,-129.7576 397,-138.5 400.5835,-140.2997 404.3328,-142.0122 408.157,-143.6327"/>
<polygon fill="#191970" stroke="#191970" points="407.1805,-147.0114 417.7655,-147.4685 409.7759,-140.5103 407.1805,-147.0114"/>
</g>
<!-- Node16 -->
<g id="node5" class="node">
<title>Node16</title>
<g id="a_node5"><a xlink:href="classgame_1_1penguin_1_1_board_cell.html#a802b2f75d1e3136146625266f6a2c03a" target="_top" xlink:title="Get the Position object. ">
<polygon fill="none" stroke="#000000" points="397,-98.5 397,-128.5 540,-128.5 540,-98.5 397,-98.5"/>
<text text-anchor="start" x="405" y="-116.5" font-family="Helvetica,sans-Serif" font-size="10.00" fill="#000000">game::penguin::BoardCell</text>
<text text-anchor="middle" x="468.5" y="-105.5" font-family="Helvetica,sans-Serif" font-size="10.00" fill="#000000">::getPosition</text>
</a>
</g>
</g>
<!-- Node14&#45;&gt;Node16 -->
<g id="edge4" class="edge">
<title>Node14&#45;&gt;Node16</title>
<path fill="none" stroke="#191970" d="M342.5793,-96.7552C356.657,-98.6273 371.8187,-100.6434 386.5765,-102.6059"/>
<polygon fill="#191970" stroke="#191970" points="386.3366,-106.1047 396.7107,-103.9536 387.2594,-99.1658 386.3366,-106.1047"/>
</g>
<!-- Node17 -->
<g id="node6" class="node">
<title>Node17</title>
<g id="a_node6"><a xlink:href="classgame_1_1penguin_1_1_board_cell.html#a6a978b7e72ef20475771eb6e453e0a39" target="_top" xlink:title="tells if the cell is gone or not ">
<polygon fill="none" stroke="#000000" points="397,-49.5 397,-79.5 540,-79.5 540,-49.5 397,-49.5"/>
<text text-anchor="start" x="405" y="-67.5" font-family="Helvetica,sans-Serif" font-size="10.00" fill="#000000">game::penguin::BoardCell</text>
<text text-anchor="middle" x="468.5" y="-56.5" font-family="Helvetica,sans-Serif" font-size="10.00" fill="#000000">::isGone</text>
</a>
</g>
</g>
<!-- Node14&#45;&gt;Node17 -->
<g id="edge5" class="edge">
<title>Node14&#45;&gt;Node17</title>
<path fill="none" stroke="#191970" d="M342.5793,-80.575C356.657,-78.7778 371.8187,-76.8423 386.5765,-74.9583"/>
<polygon fill="#191970" stroke="#191970" points="387.2345,-78.4028 396.7107,-73.6646 386.348,-71.4592 387.2345,-78.4028"/>
</g>
<!-- Node18 -->
<g id="node7" class="node">
<title>Node18</title>
<g id="a_node7"><a xlink:href="classgame_1_1penguin_1_1_board_cell.html#a12cd55e333821bcecaa201dde758c1a1" target="_top" xlink:title="Is a penguin on the cell. ">
<polygon fill="none" stroke="#000000" points="397,-.5 397,-30.5 540,-30.5 540,-.5 397,-.5"/>
<text text-anchor="start" x="405" y="-18.5" font-family="Helvetica,sans-Serif" font-size="10.00" fill="#000000">game::penguin::BoardCell</text>
<text text-anchor="middle" x="468.5" y="-7.5" font-family="Helvetica,sans-Serif" font-size="10.00" fill="#000000">::isOwned</text>
</a>
</g>
</g>
<!-- Node14&#45;&gt;Node18 -->
<g id="edge6" class="edge">
<title>Node14&#45;&gt;Node18</title>
<path fill="none" stroke="#191970" d="M315.7343,-73.3974C338.7397,-63.6819 369.5014,-50.9635 397,-40.5 402.5902,-38.3729 408.4511,-36.2124 414.3099,-34.0976"/>
<polygon fill="#191970" stroke="#191970" points="415.8787,-37.254 424.1199,-30.5956 413.5253,-30.6614 415.8787,-37.254"/>
</g>
</g>
</svg>
