<?xml version="1.0" encoding="UTF-8" standalone="no"?>
<!DOCTYPE svg PUBLIC "-//W3C//DTD SVG 1.1//EN"
 "http://www.w3.org/Graphics/SVG/1.1/DTD/svg11.dtd">
<!-- Generated by graphviz version 2.40.1 (20161225.0304)
 -->
<!-- Title: game::penguin::Board::getPawnById Pages: 1 -->
<svg width="1140pt" height="208pt"
 viewBox="0.00 0.00 1140.00 208.00" xmlns="http://www.w3.org/2000/svg" xmlns:xlink="http://www.w3.org/1999/xlink">
<g id="graph0" class="graph" transform="scale(1 1) rotate(0) translate(4 204)">
<title>game::penguin::Board::getPawnById</title>
<!-- Node48 -->
<g id="node1" class="node">
<title>Node48</title>
<polygon fill="#bfbfbf" stroke="#000000" points="0,-93.5 0,-123.5 124,-123.5 124,-93.5 0,-93.5"/>
<text text-anchor="start" x="8" y="-111.5" font-family="Helvetica,sans-Serif" font-size="10.00" fill="#000000">game::penguin::Board</text>
<text text-anchor="middle" x="62" y="-100.5" font-family="Helvetica,sans-Serif" font-size="10.00" fill="#000000">::getPawnById</text>
</g>
<!-- Node49 -->
<g id="node2" class="node">
<title>Node49</title>
<g id="a_node2"><a xlink:href="classgame_1_1penguin_1_1_board.html#acad4a3c7bee2103aea4586356ceabb8e" target="_top" xlink:title="game::penguin::Board\l::clone">
<polygon fill="none" stroke="#000000" points="169.5,-159.5 169.5,-189.5 293.5,-189.5 293.5,-159.5 169.5,-159.5"/>
<text text-anchor="start" x="177.5" y="-177.5" font-family="Helvetica,sans-Serif" font-size="10.00" fill="#000000">game::penguin::Board</text>
<text text-anchor="middle" x="231.5" y="-166.5" font-family="Helvetica,sans-Serif" font-size="10.00" fill="#000000">::clone</text>
</a>
</g>
</g>
<!-- Node48&#45;&gt;Node49 -->
<g id="edge1" class="edge">
<title>Node48&#45;&gt;Node49</title>
<path fill="none" stroke="#191970" d="M110.2387,-127.2832C136.3929,-137.4671 168.2828,-149.8844 192.7942,-159.4287"/>
<polygon fill="#191970" stroke="#191970" points="111.4752,-124.0088 100.8867,-123.6417 108.9353,-130.5317 111.4752,-124.0088"/>
</g>
<!-- Node50 -->
<g id="node3" class="node">
<title>Node50</title>
<g id="a_node3"><a xlink:href="classgame_1_1penguin_1_1_board.html#a7636e3bdb2da72d2a6395b1a2d846394" target="_top" xlink:title="game::penguin::Board\l::size">
<polygon fill="none" stroke="#000000" points="348.5,-159.5 348.5,-189.5 472.5,-189.5 472.5,-159.5 348.5,-159.5"/>
<text text-anchor="start" x="356.5" y="-177.5" font-family="Helvetica,sans-Serif" font-size="10.00" fill="#000000">game::penguin::Board</text>
<text text-anchor="middle" x="410.5" y="-166.5" font-family="Helvetica,sans-Serif" font-size="10.00" fill="#000000">::size</text>
</a>
</g>
</g>
<!-- Node48&#45;&gt;Node50 -->
<g id="edge4" class="edge">
<title>Node48&#45;&gt;Node50</title>
<path fill="none" stroke="#191970" d="M134.0448,-120.1438C182.0245,-128.1222 246.4141,-139.2592 303,-150.5 317.7236,-153.4248 333.5255,-156.8126 348.3601,-160.1044"/>
<polygon fill="#191970" stroke="#191970" points="134.5018,-116.6719 124.0642,-118.4903 133.3577,-123.5778 134.5018,-116.6719"/>
</g>
<!-- Node52 -->
<g id="node5" class="node">
<title>Node52</title>
<g id="a_node5"><a xlink:href="classgame_1_1penguin_1_1_board_cell.html#a4d3577488552bf0ba4822ac265532825" target="_top" xlink:title="game::penguin::BoardCell\l::clone">
<polygon fill="none" stroke="#000000" points="160,-71.5 160,-101.5 303,-101.5 303,-71.5 160,-71.5"/>
<text text-anchor="start" x="168" y="-89.5" font-family="Helvetica,sans-Serif" font-size="10.00" fill="#000000">game::penguin::BoardCell</text>
<text text-anchor="middle" x="231.5" y="-78.5" font-family="Helvetica,sans-Serif" font-size="10.00" fill="#000000">::clone</text>
</a>
</g>
</g>
<!-- Node48&#45;&gt;Node52 -->
<g id="edge5" class="edge">
<title>Node48&#45;&gt;Node52</title>
<path fill="none" stroke="#191970" d="M134.0823,-99.1442C142.6276,-98.0351 151.3486,-96.9031 159.8874,-95.7949"/>
<polygon fill="#191970" stroke="#191970" points="133.6194,-95.6748 124.1531,-100.4329 134.5204,-102.6166 133.6194,-95.6748"/>
</g>
<!-- Node55 -->
<g id="node8" class="node">
<title>Node55</title>
<g id="a_node8"><a xlink:href="classgame_1_1penguin_1_1_console_game.html#ac6ac2ce8f015a83682f7022c268c5efb" target="_top" xlink:title="game::penguin::ConsoleGame\l::ConsoleGame">
<polygon fill="none" stroke="#000000" points="691,-.5 691,-30.5 855,-30.5 855,-.5 691,-.5"/>
<text text-anchor="start" x="699" y="-18.5" font-family="Helvetica,sans-Serif" font-size="10.00" fill="#000000">game::penguin::ConsoleGame</text>
<text text-anchor="middle" x="773" y="-7.5" font-family="Helvetica,sans-Serif" font-size="10.00" fill="#000000">::ConsoleGame</text>
</a>
</g>
</g>
<!-- Node48&#45;&gt;Node55 -->
<g id="edge14" class="edge">
<title>Node48&#45;&gt;Node55</title>
<path fill="none" stroke="#191970" d="M96.5559,-88.6641C114.8606,-79.0086 138.0458,-68.0899 160,-61.5 343.4801,-6.4259 571.0346,-5.9691 690.6495,-10.6141"/>
<polygon fill="#191970" stroke="#191970" points="94.8683,-85.5976 87.7256,-93.4228 98.1891,-91.7598 94.8683,-85.5976"/>
</g>
<!-- Node49&#45;&gt;Node50 -->
<g id="edge2" class="edge">
<title>Node49&#45;&gt;Node50</title>
<path fill="none" stroke="#191970" d="M303.6885,-174.5C318.4367,-174.5 333.8369,-174.5 348.2037,-174.5"/>
<polygon fill="#191970" stroke="#191970" points="303.6032,-171.0001 293.6032,-174.5 303.6031,-178.0001 303.6032,-171.0001"/>
</g>
<!-- Node51 -->
<g id="node4" class="node">
<title>Node51</title>
<g id="a_node4"><a xlink:href="classgame_1_1penguin_1_1_print_hex.html#acdb07dd749d832db180a0f42040e33ed" target="_top" xlink:title="game::penguin::PrintHex\l::PrintHex">
<polygon fill="none" stroke="#000000" points="518,-169.5 518,-199.5 655,-199.5 655,-169.5 518,-169.5"/>
<text text-anchor="start" x="526" y="-187.5" font-family="Helvetica,sans-Serif" font-size="10.00" fill="#000000">game::penguin::PrintHex</text>
<text text-anchor="middle" x="586.5" y="-176.5" font-family="Helvetica,sans-Serif" font-size="10.00" fill="#000000">::PrintHex</text>
</a>
</g>
</g>
<!-- Node50&#45;&gt;Node51 -->
<g id="edge3" class="edge">
<title>Node50&#45;&gt;Node51</title>
<path fill="none" stroke="#191970" d="M482.6474,-178.5993C494.2725,-179.2598 506.2793,-179.942 517.8198,-180.5977"/>
<polygon fill="#191970" stroke="#191970" points="482.7335,-175.0986 472.551,-178.0256 482.3363,-182.0874 482.7335,-175.0986"/>
</g>
<!-- Node53 -->
<g id="node6" class="node">
<title>Node53</title>
<g id="a_node6"><a xlink:href="classgame_1_1penguin_1_1_board_cell.html#abe8f2dc0eef3aed1e8701dc0b021c5a6" target="_top" xlink:title="Get the number of fish contained inside the cell. ">
<polygon fill="none" stroke="#000000" points="339,-71.5 339,-101.5 482,-101.5 482,-71.5 339,-71.5"/>
<text text-anchor="start" x="347" y="-89.5" font-family="Helvetica,sans-Serif" font-size="10.00" fill="#000000">game::penguin::BoardCell</text>
<text text-anchor="middle" x="410.5" y="-78.5" font-family="Helvetica,sans-Serif" font-size="10.00" fill="#000000">::getFish</text>
</a>
</g>
</g>
<!-- Node52&#45;&gt;Node53 -->
<g id="edge6" class="edge">
<title>Node52&#45;&gt;Node53</title>
<path fill="none" stroke="#191970" d="M313.0428,-86.5C321.6381,-86.5 330.3321,-86.5 338.8042,-86.5"/>
<polygon fill="#191970" stroke="#191970" points="313.0173,-83.0001 303.0172,-86.5 313.0172,-90.0001 313.0173,-83.0001"/>
</g>
<!-- Node54 -->
<g id="node7" class="node">
<title>Node54</title>
<g id="a_node7"><a xlink:href="classgame_1_1penguin_1_1_board.html#af297dc572afb02dafc61e3b8e849338f" target="_top" xlink:title="Performs a particular move. ">
<polygon fill="none" stroke="#000000" points="524.5,-22.5 524.5,-52.5 648.5,-52.5 648.5,-22.5 524.5,-22.5"/>
<text text-anchor="start" x="532.5" y="-40.5" font-family="Helvetica,sans-Serif" font-size="10.00" fill="#000000">game::penguin::Board</text>
<text text-anchor="middle" x="586.5" y="-29.5" font-family="Helvetica,sans-Serif" font-size="10.00" fill="#000000">::performMove</text>
</a>
</g>
</g>
<!-- Node53&#45;&gt;Node54 -->
<g id="edge7" class="edge">
<title>Node53&#45;&gt;Node54</title>
<path fill="none" stroke="#191970" d="M474.511,-68.6788C493.5137,-63.3882 514.1322,-57.6478 532.4372,-52.5516"/>
<polygon fill="#191970" stroke="#191970" points="473.4368,-65.3446 464.7419,-71.3986 475.3143,-72.0882 473.4368,-65.3446"/>
</g>
<!-- Node56 -->
<g id="node9" class="node">
<title>Node56</title>
<g id="a_node9"><a xlink:href="classgame_1_1penguin_1_1_board.html#a45ecb5bba50b4d03592ac4ddf9255b49" target="_top" xlink:title="Revert the last move made on the behalf of the human player. ">
<polygon fill="none" stroke="#000000" points="524.5,-120.5 524.5,-150.5 648.5,-150.5 648.5,-120.5 524.5,-120.5"/>
<text text-anchor="start" x="532.5" y="-138.5" font-family="Helvetica,sans-Serif" font-size="10.00" fill="#000000">game::penguin::Board</text>
<text text-anchor="middle" x="586.5" y="-127.5" font-family="Helvetica,sans-Serif" font-size="10.00" fill="#000000">::revertMove</text>
</a>
</g>
</g>
<!-- Node53&#45;&gt;Node56 -->
<g id="edge9" class="edge">
<title>Node53&#45;&gt;Node56</title>
<path fill="none" stroke="#191970" d="M474.511,-104.3212C493.5137,-109.6118 514.1322,-115.3522 532.4372,-120.4484"/>
<polygon fill="#191970" stroke="#191970" points="475.3143,-100.9118 464.7419,-101.6014 473.4368,-107.6554 475.3143,-100.9118"/>
</g>
<!-- Node57 -->
<g id="node10" class="node">
<title>Node57</title>
<g id="a_node10"><a xlink:href="classgame_1_1penguin_1_1_print_hex.html#a87a58be4fea97f043e6dbe01a3045c1d" target="_top" xlink:title="game::penguin::PrintHex\l::print">
<polygon fill="none" stroke="#000000" points="518,-71.5 518,-101.5 655,-101.5 655,-71.5 518,-71.5"/>
<text text-anchor="start" x="526" y="-89.5" font-family="Helvetica,sans-Serif" font-size="10.00" fill="#000000">game::penguin::PrintHex</text>
<text text-anchor="middle" x="586.5" y="-78.5" font-family="Helvetica,sans-Serif" font-size="10.00" fill="#000000">::print</text>
</a>
</g>
</g>
<!-- Node53&#45;&gt;Node57 -->
<g id="edge10" class="edge">
<title>Node53&#45;&gt;Node57</title>
<path fill="none" stroke="#191970" d="M492.1201,-86.5C500.7165,-86.5 509.3945,-86.5 517.8238,-86.5"/>
<polygon fill="#191970" stroke="#191970" points="492.086,-83.0001 482.0859,-86.5 492.0859,-90.0001 492.086,-83.0001"/>
</g>
<!-- Node54&#45;&gt;Node55 -->
<g id="edge8" class="edge">
<title>Node54&#45;&gt;Node55</title>
<path fill="none" stroke="#191970" d="M658.612,-28.9935C669.1953,-27.7451 680.1619,-26.4514 690.927,-25.1815"/>
<polygon fill="#191970" stroke="#191970" points="658.1229,-25.5268 648.6018,-30.1743 658.943,-32.4786 658.1229,-25.5268"/>
</g>
<!-- Node58 -->
<g id="node11" class="node">
<title>Node58</title>
<g id="a_node11"><a xlink:href="classgame_1_1penguin_1_1_console_game.html#a71c697742201f71b29327bf8554c2ef0" target="_top" xlink:title="game::penguin::ConsoleGame\l::draw">
<polygon fill="none" stroke="#000000" points="691,-71.5 691,-101.5 855,-101.5 855,-71.5 691,-71.5"/>
<text text-anchor="start" x="699" y="-89.5" font-family="Helvetica,sans-Serif" font-size="10.00" fill="#000000">game::penguin::ConsoleGame</text>
<text text-anchor="middle" x="773" y="-78.5" font-family="Helvetica,sans-Serif" font-size="10.00" fill="#000000">::draw</text>
</a>
</g>
</g>
<!-- Node57&#45;&gt;Node58 -->
<g id="edge11" class="edge">
<title>Node57&#45;&gt;Node58</title>
<path fill="none" stroke="#191970" d="M665.3574,-86.5C673.8061,-86.5 682.4163,-86.5 690.9015,-86.5"/>
<polygon fill="#191970" stroke="#191970" points="665.1512,-83.0001 655.1512,-86.5 665.1511,-90.0001 665.1512,-83.0001"/>
</g>
<!-- Node59 -->
<g id="node12" class="node">
<title>Node59</title>
<g id="a_node12"><a xlink:href="classgame_1_1penguin_1_1_console_game.html#a56af132d8e3d16902fb46b7979d37eae" target="_top" xlink:title="Loop while the game is not finished, told by the isFinished method. ">
<polygon fill="none" stroke="#000000" points="891,-71.5 891,-101.5 1055,-101.5 1055,-71.5 891,-71.5"/>
<text text-anchor="start" x="899" y="-89.5" font-family="Helvetica,sans-Serif" font-size="10.00" fill="#000000">game::penguin::ConsoleGame</text>
<text text-anchor="middle" x="973" y="-78.5" font-family="Helvetica,sans-Serif" font-size="10.00" fill="#000000">::loop</text>
</a>
</g>
</g>
<!-- Node58&#45;&gt;Node59 -->
<g id="edge12" class="edge">
<title>Node58&#45;&gt;Node59</title>
<path fill="none" stroke="#191970" d="M865.4658,-86.5C873.9136,-86.5 882.4335,-86.5 890.7826,-86.5"/>
<polygon fill="#191970" stroke="#191970" points="865.2135,-83.0001 855.2135,-86.5 865.2134,-90.0001 865.2135,-83.0001"/>
</g>
<!-- Node60 -->
<g id="node13" class="node">
<title>Node60</title>
<g id="a_node13"><a xlink:href="main_8cpp.html#a1dfeea39dabf076270426c94def1a2a2" target="_top" xlink:title="main">
<polygon fill="none" stroke="#000000" points="1091,-77 1091,-96 1132,-96 1132,-77 1091,-77"/>
<text text-anchor="middle" x="1111.5" y="-84" font-family="Helvetica,sans-Serif" font-size="10.00" fill="#000000">main</text>
</a>
</g>
</g>
<!-- Node59&#45;&gt;Node60 -->
<g id="edge13" class="edge">
<title>Node59&#45;&gt;Node60</title>
<path fill="none" stroke="#191970" d="M1065.2725,-86.5C1074.7768,-86.5 1083.6282,-86.5 1090.9893,-86.5"/>
<polygon fill="#191970" stroke="#191970" points="1065.1668,-83.0001 1055.1667,-86.5 1065.1667,-90.0001 1065.1668,-83.0001"/>
</g>
</g>
</svg>
