<?xml version="1.0" encoding="UTF-8" standalone="no"?>
<!DOCTYPE svg PUBLIC "-//W3C//DTD SVG 1.1//EN"
 "http://www.w3.org/Graphics/SVG/1.1/DTD/svg11.dtd">
<!-- Generated by graphviz version 2.40.1 (20161225.0304)
 -->
<!-- Title: game::penguin::BoardCell::isOwned Pages: 1 -->
<svg width="1180pt" height="173pt"
 viewBox="0.00 0.00 1180.00 173.00" xmlns="http://www.w3.org/2000/svg" xmlns:xlink="http://www.w3.org/1999/xlink">
<g id="graph0" class="graph" transform="scale(1 1) rotate(0) translate(4 169)">
<title>game::penguin::BoardCell::isOwned</title>
<!-- Node99 -->
<g id="node1" class="node">
<title>Node99</title>
<polygon fill="#bfbfbf" stroke="#000000" points="0,-85.5 0,-115.5 143,-115.5 143,-85.5 0,-85.5"/>
<text text-anchor="start" x="8" y="-103.5" font-family="Helvetica,sans-Serif" font-size="10.00" fill="#000000">game::penguin::BoardCell</text>
<text text-anchor="middle" x="71.5" y="-92.5" font-family="Helvetica,sans-Serif" font-size="10.00" fill="#000000">::isOwned</text>
</g>
<!-- Node100 -->
<g id="node2" class="node">
<title>Node100</title>
<g id="a_node2"><a xlink:href="classgame_1_1penguin_1_1_board.html#a2864b1af9dbdf19273185c504257435c" target="_top" xlink:title="Checks wether or not the move is allowed to be performed. ">
<polygon fill="none" stroke="#000000" points="378,-134.5 378,-164.5 502,-164.5 502,-134.5 378,-134.5"/>
<text text-anchor="start" x="386" y="-152.5" font-family="Helvetica,sans-Serif" font-size="10.00" fill="#000000">game::penguin::Board</text>
<text text-anchor="middle" x="440" y="-141.5" font-family="Helvetica,sans-Serif" font-size="10.00" fill="#000000">::checkForCorrectness</text>
</a>
</g>
</g>
<!-- Node99&#45;&gt;Node100 -->
<g id="edge1" class="edge">
<title>Node99&#45;&gt;Node100</title>
<path fill="none" stroke="#191970" d="M139.3871,-117.7678C152.4694,-120.6746 166.1119,-123.4188 179,-125.5 246.4949,-136.399 324.6686,-142.7717 377.7361,-146.1768"/>
<polygon fill="#191970" stroke="#191970" points="140.0412,-114.3272 129.5139,-115.5214 138.4882,-121.1528 140.0412,-114.3272"/>
</g>
<!-- Node103 -->
<g id="node5" class="node">
<title>Node103</title>
<g id="a_node5"><a xlink:href="classgame_1_1penguin_1_1_board.html#a26bc6f1c2da1197d9b68f9b4c4e3126b" target="_top" xlink:title="Get a list of available cells, ie player can move onto. ">
<polygon fill="none" stroke="#000000" points="188.5,-85.5 188.5,-115.5 312.5,-115.5 312.5,-85.5 188.5,-85.5"/>
<text text-anchor="start" x="196.5" y="-103.5" font-family="Helvetica,sans-Serif" font-size="10.00" fill="#000000">game::penguin::Board</text>
<text text-anchor="middle" x="250.5" y="-92.5" font-family="Helvetica,sans-Serif" font-size="10.00" fill="#000000">::getAvailableCells</text>
</a>
</g>
</g>
<!-- Node99&#45;&gt;Node103 -->
<g id="edge4" class="edge">
<title>Node99&#45;&gt;Node103</title>
<path fill="none" stroke="#191970" d="M153.2977,-100.5C165.0721,-100.5 177.0257,-100.5 188.3351,-100.5"/>
<polygon fill="#191970" stroke="#191970" points="153.0173,-97.0001 143.0172,-100.5 153.0172,-104.0001 153.0173,-97.0001"/>
</g>
<!-- Node105 -->
<g id="node7" class="node">
<title>Node105</title>
<g id="a_node7"><a xlink:href="classgame_1_1penguin_1_1_board_cell.html#a4d3577488552bf0ba4822ac265532825" target="_top" xlink:title="game::penguin::BoardCell\l::clone">
<polygon fill="none" stroke="#000000" points="179,-36.5 179,-66.5 322,-66.5 322,-36.5 179,-36.5"/>
<text text-anchor="start" x="187" y="-54.5" font-family="Helvetica,sans-Serif" font-size="10.00" fill="#000000">game::penguin::BoardCell</text>
<text text-anchor="middle" x="250.5" y="-43.5" font-family="Helvetica,sans-Serif" font-size="10.00" fill="#000000">::clone</text>
</a>
</g>
</g>
<!-- Node99&#45;&gt;Node105 -->
<g id="edge6" class="edge">
<title>Node99&#45;&gt;Node105</title>
<path fill="none" stroke="#191970" d="M136.3362,-82.7515C155.7363,-77.4409 176.8133,-71.6712 195.5157,-66.5516"/>
<polygon fill="#191970" stroke="#191970" points="135.3875,-79.3824 126.6665,-85.3986 137.2358,-86.134 135.3875,-79.3824"/>
</g>
<!-- Node101 -->
<g id="node3" class="node">
<title>Node101</title>
<g id="a_node3"><a xlink:href="classgame_1_1penguin_1_1_board.html#af297dc572afb02dafc61e3b8e849338f" target="_top" xlink:title="Performs a particular move. ">
<polygon fill="none" stroke="#000000" points="564.5,-122.5 564.5,-152.5 688.5,-152.5 688.5,-122.5 564.5,-122.5"/>
<text text-anchor="start" x="572.5" y="-140.5" font-family="Helvetica,sans-Serif" font-size="10.00" fill="#000000">game::penguin::Board</text>
<text text-anchor="middle" x="626.5" y="-129.5" font-family="Helvetica,sans-Serif" font-size="10.00" fill="#000000">::performMove</text>
</a>
</g>
</g>
<!-- Node100&#45;&gt;Node101 -->
<g id="edge2" class="edge">
<title>Node100&#45;&gt;Node101</title>
<path fill="none" stroke="#191970" d="M512.1146,-144.8599C529.3525,-143.7508 547.6075,-142.5762 564.3516,-141.4988"/>
<polygon fill="#191970" stroke="#191970" points="511.8564,-141.3692 502.1018,-145.5042 512.3059,-148.3548 511.8564,-141.3692"/>
</g>
<!-- Node102 -->
<g id="node4" class="node">
<title>Node102</title>
<g id="a_node4"><a xlink:href="classgame_1_1penguin_1_1_console_game.html#ac6ac2ce8f015a83682f7022c268c5efb" target="_top" xlink:title="game::penguin::ConsoleGame\l::ConsoleGame">
<polygon fill="none" stroke="#000000" points="731,-122.5 731,-152.5 895,-152.5 895,-122.5 731,-122.5"/>
<text text-anchor="start" x="739" y="-140.5" font-family="Helvetica,sans-Serif" font-size="10.00" fill="#000000">game::penguin::ConsoleGame</text>
<text text-anchor="middle" x="813" y="-129.5" font-family="Helvetica,sans-Serif" font-size="10.00" fill="#000000">::ConsoleGame</text>
</a>
</g>
</g>
<!-- Node101&#45;&gt;Node102 -->
<g id="edge3" class="edge">
<title>Node101&#45;&gt;Node102</title>
<path fill="none" stroke="#191970" d="M698.612,-137.5C709.1953,-137.5 720.1619,-137.5 730.927,-137.5"/>
<polygon fill="#191970" stroke="#191970" points="698.6018,-134.0001 688.6018,-137.5 698.6018,-141.0001 698.6018,-134.0001"/>
</g>
<!-- Node104 -->
<g id="node6" class="node">
<title>Node104</title>
<g id="a_node6"><a xlink:href="classgame_1_1penguin_1_1_penguin_game.html#ae92f96626c8d88f77279b6a76822fbe0" target="_top" xlink:title="game::penguin::PenguinGame\l::getAvailableMoves">
<polygon fill="none" stroke="#000000" points="358,-85.5 358,-115.5 522,-115.5 522,-85.5 358,-85.5"/>
<text text-anchor="start" x="366" y="-103.5" font-family="Helvetica,sans-Serif" font-size="10.00" fill="#000000">game::penguin::PenguinGame</text>
<text text-anchor="middle" x="440" y="-92.5" font-family="Helvetica,sans-Serif" font-size="10.00" fill="#000000">::getAvailableMoves</text>
</a>
</g>
</g>
<!-- Node103&#45;&gt;Node104 -->
<g id="edge5" class="edge">
<title>Node103&#45;&gt;Node104</title>
<path fill="none" stroke="#191970" d="M322.8899,-100.5C334.3128,-100.5 346.1955,-100.5 357.8212,-100.5"/>
<polygon fill="#191970" stroke="#191970" points="322.5494,-97.0001 312.5494,-100.5 322.5494,-104.0001 322.5494,-97.0001"/>
</g>
<!-- Node106 -->
<g id="node8" class="node">
<title>Node106</title>
<g id="a_node8"><a xlink:href="classgame_1_1penguin_1_1_board_cell.html#abe8f2dc0eef3aed1e8701dc0b021c5a6" target="_top" xlink:title="Get the number of fish contained inside the cell. ">
<polygon fill="none" stroke="#000000" points="368.5,-36.5 368.5,-66.5 511.5,-66.5 511.5,-36.5 368.5,-36.5"/>
<text text-anchor="start" x="376.5" y="-54.5" font-family="Helvetica,sans-Serif" font-size="10.00" fill="#000000">game::penguin::BoardCell</text>
<text text-anchor="middle" x="440" y="-43.5" font-family="Helvetica,sans-Serif" font-size="10.00" fill="#000000">::getFish</text>
</a>
</g>
</g>
<!-- Node105&#45;&gt;Node106 -->
<g id="edge7" class="edge">
<title>Node105&#45;&gt;Node106</title>
<path fill="none" stroke="#191970" d="M332.1486,-51.5C344.1624,-51.5 356.4628,-51.5 368.2569,-51.5"/>
<polygon fill="#191970" stroke="#191970" points="332.1419,-48.0001 322.1418,-51.5 332.1418,-55.0001 332.1419,-48.0001"/>
</g>
<!-- Node106&#45;&gt;Node101 -->
<g id="edge8" class="edge">
<title>Node106&#45;&gt;Node101</title>
<path fill="none" stroke="#191970" d="M505.3724,-69.9119C511.0582,-71.9692 516.671,-74.1702 522,-76.5 551.642,-89.4591 583.4371,-108.9013 604.0682,-122.337"/>
<polygon fill="#191970" stroke="#191970" points="506.3667,-66.5523 495.772,-66.5879 504.0764,-73.1671 506.3667,-66.5523"/>
</g>
<!-- Node107 -->
<g id="node9" class="node">
<title>Node107</title>
<g id="a_node9"><a xlink:href="classgame_1_1penguin_1_1_board.html#a45ecb5bba50b4d03592ac4ddf9255b49" target="_top" xlink:title="Revert the last move made on the behalf of the human player. ">
<polygon fill="none" stroke="#000000" points="564.5,-49.5 564.5,-79.5 688.5,-79.5 688.5,-49.5 564.5,-49.5"/>
<text text-anchor="start" x="572.5" y="-67.5" font-family="Helvetica,sans-Serif" font-size="10.00" fill="#000000">game::penguin::Board</text>
<text text-anchor="middle" x="626.5" y="-56.5" font-family="Helvetica,sans-Serif" font-size="10.00" fill="#000000">::revertMove</text>
</a>
</g>
</g>
<!-- Node106&#45;&gt;Node107 -->
<g id="edge9" class="edge">
<title>Node106&#45;&gt;Node107</title>
<path fill="none" stroke="#191970" d="M521.8465,-57.2051C536.0699,-58.1966 550.6527,-59.2131 564.2443,-60.1605"/>
<polygon fill="#191970" stroke="#191970" points="521.7916,-53.6929 511.5724,-56.489 521.3048,-60.6759 521.7916,-53.6929"/>
</g>
<!-- Node108 -->
<g id="node10" class="node">
<title>Node108</title>
<g id="a_node10"><a xlink:href="classgame_1_1penguin_1_1_print_hex.html#a87a58be4fea97f043e6dbe01a3045c1d" target="_top" xlink:title="game::penguin::PrintHex\l::print">
<polygon fill="none" stroke="#000000" points="558,-.5 558,-30.5 695,-30.5 695,-.5 558,-.5"/>
<text text-anchor="start" x="566" y="-18.5" font-family="Helvetica,sans-Serif" font-size="10.00" fill="#000000">game::penguin::PrintHex</text>
<text text-anchor="middle" x="626.5" y="-7.5" font-family="Helvetica,sans-Serif" font-size="10.00" fill="#000000">::print</text>
</a>
</g>
</g>
<!-- Node106&#45;&gt;Node108 -->
<g id="edge10" class="edge">
<title>Node106&#45;&gt;Node108</title>
<path fill="none" stroke="#191970" d="M521.6479,-35.7395C533.7383,-33.4057 546.093,-31.0209 557.8819,-28.7453"/>
<polygon fill="#191970" stroke="#191970" points="520.7278,-32.3525 511.5724,-37.6844 522.0545,-39.2256 520.7278,-32.3525"/>
</g>
<!-- Node109 -->
<g id="node11" class="node">
<title>Node109</title>
<g id="a_node11"><a xlink:href="classgame_1_1penguin_1_1_console_game.html#a71c697742201f71b29327bf8554c2ef0" target="_top" xlink:title="game::penguin::ConsoleGame\l::draw">
<polygon fill="none" stroke="#000000" points="731,-.5 731,-30.5 895,-30.5 895,-.5 731,-.5"/>
<text text-anchor="start" x="739" y="-18.5" font-family="Helvetica,sans-Serif" font-size="10.00" fill="#000000">game::penguin::ConsoleGame</text>
<text text-anchor="middle" x="813" y="-7.5" font-family="Helvetica,sans-Serif" font-size="10.00" fill="#000000">::draw</text>
</a>
</g>
</g>
<!-- Node108&#45;&gt;Node109 -->
<g id="edge11" class="edge">
<title>Node108&#45;&gt;Node109</title>
<path fill="none" stroke="#191970" d="M705.3574,-15.5C713.8061,-15.5 722.4163,-15.5 730.9015,-15.5"/>
<polygon fill="#191970" stroke="#191970" points="705.1512,-12.0001 695.1512,-15.5 705.1511,-19.0001 705.1512,-12.0001"/>
</g>
<!-- Node110 -->
<g id="node12" class="node">
<title>Node110</title>
<g id="a_node12"><a xlink:href="classgame_1_1penguin_1_1_console_game.html#a56af132d8e3d16902fb46b7979d37eae" target="_top" xlink:title="Loop while the game is not finished, told by the isFinished method. ">
<polygon fill="none" stroke="#000000" points="931,-.5 931,-30.5 1095,-30.5 1095,-.5 931,-.5"/>
<text text-anchor="start" x="939" y="-18.5" font-family="Helvetica,sans-Serif" font-size="10.00" fill="#000000">game::penguin::ConsoleGame</text>
<text text-anchor="middle" x="1013" y="-7.5" font-family="Helvetica,sans-Serif" font-size="10.00" fill="#000000">::loop</text>
</a>
</g>
</g>
<!-- Node109&#45;&gt;Node110 -->
<g id="edge12" class="edge">
<title>Node109&#45;&gt;Node110</title>
<path fill="none" stroke="#191970" d="M905.4658,-15.5C913.9136,-15.5 922.4335,-15.5 930.7826,-15.5"/>
<polygon fill="#191970" stroke="#191970" points="905.2135,-12.0001 895.2135,-15.5 905.2134,-19.0001 905.2135,-12.0001"/>
</g>
<!-- Node111 -->
<g id="node13" class="node">
<title>Node111</title>
<g id="a_node13"><a xlink:href="main_8cpp.html#a1dfeea39dabf076270426c94def1a2a2" target="_top" xlink:title="main">
<polygon fill="none" stroke="#000000" points="1131,-6 1131,-25 1172,-25 1172,-6 1131,-6"/>
<text text-anchor="middle" x="1151.5" y="-13" font-family="Helvetica,sans-Serif" font-size="10.00" fill="#000000">main</text>
</a>
</g>
</g>
<!-- Node110&#45;&gt;Node111 -->
<g id="edge13" class="edge">
<title>Node110&#45;&gt;Node111</title>
<path fill="none" stroke="#191970" d="M1105.2725,-15.5C1114.7768,-15.5 1123.6282,-15.5 1130.9893,-15.5"/>
<polygon fill="#191970" stroke="#191970" points="1105.1668,-12.0001 1095.1667,-15.5 1105.1667,-19.0001 1105.1668,-12.0001"/>
</g>
</g>
</svg>
