<?xml version="1.0" encoding="UTF-8" standalone="no"?>
<!DOCTYPE svg PUBLIC "-//W3C//DTD SVG 1.1//EN"
 "http://www.w3.org/Graphics/SVG/1.1/DTD/svg11.dtd">
<!-- Generated by graphviz version 2.40.1 (20161225.0304)
 -->
<!-- Title: game::penguin::BoardCell::setGone Pages: 1 -->
<svg width="511pt" height="88pt"
 viewBox="0.00 0.00 511.00 88.00" xmlns="http://www.w3.org/2000/svg" xmlns:xlink="http://www.w3.org/1999/xlink">
<g id="graph0" class="graph" transform="scale(1 1) rotate(0) translate(4 84)">
<title>game::penguin::BoardCell::setGone</title>
<!-- Node113 -->
<g id="node1" class="node">
<title>Node113</title>
<polygon fill="#bfbfbf" stroke="#000000" points="0,-24.5 0,-54.5 143,-54.5 143,-24.5 0,-24.5"/>
<text text-anchor="start" x="8" y="-42.5" font-family="Helvetica,sans-Serif" font-size="10.00" fill="#000000">game::penguin::BoardCell</text>
<text text-anchor="middle" x="71.5" y="-31.5" font-family="Helvetica,sans-Serif" font-size="10.00" fill="#000000">::setGone</text>
</g>
<!-- Node114 -->
<g id="node2" class="node">
<title>Node114</title>
<g id="a_node2"><a xlink:href="classgame_1_1penguin_1_1_board.html#af297dc572afb02dafc61e3b8e849338f" target="_top" xlink:title="Performs a particular move. ">
<polygon fill="none" stroke="#000000" points="179,-49.5 179,-79.5 303,-79.5 303,-49.5 179,-49.5"/>
<text text-anchor="start" x="187" y="-67.5" font-family="Helvetica,sans-Serif" font-size="10.00" fill="#000000">game::penguin::Board</text>
<text text-anchor="middle" x="241" y="-56.5" font-family="Helvetica,sans-Serif" font-size="10.00" fill="#000000">::performMove</text>
</a>
</g>
</g>
<!-- Node113&#45;&gt;Node114 -->
<g id="edge1" class="edge">
<title>Node113&#45;&gt;Node114</title>
<path fill="none" stroke="#191970" d="M153.4164,-51.5821C161.9963,-52.8475 170.615,-54.1187 178.9201,-55.3437"/>
<polygon fill="#191970" stroke="#191970" points="153.787,-48.0989 143.3833,-50.1023 152.7655,-55.024 153.787,-48.0989"/>
</g>
<!-- Node116 -->
<g id="node4" class="node">
<title>Node116</title>
<g id="a_node4"><a xlink:href="classgame_1_1penguin_1_1_board.html#a45ecb5bba50b4d03592ac4ddf9255b49" target="_top" xlink:title="Revert the last move made on the behalf of the human player. ">
<polygon fill="none" stroke="#000000" points="179,-.5 179,-30.5 303,-30.5 303,-.5 179,-.5"/>
<text text-anchor="start" x="187" y="-18.5" font-family="Helvetica,sans-Serif" font-size="10.00" fill="#000000">game::penguin::Board</text>
<text text-anchor="middle" x="241" y="-7.5" font-family="Helvetica,sans-Serif" font-size="10.00" fill="#000000">::revertMove</text>
</a>
</g>
</g>
<!-- Node113&#45;&gt;Node116 -->
<g id="edge3" class="edge">
<title>Node113&#45;&gt;Node116</title>
<path fill="none" stroke="#191970" d="M153.4164,-27.9012C161.9963,-26.6864 170.615,-25.466 178.9201,-24.2901"/>
<polygon fill="#191970" stroke="#191970" points="152.7938,-24.4544 143.3833,-29.3218 153.7752,-31.3852 152.7938,-24.4544"/>
</g>
<!-- Node115 -->
<g id="node3" class="node">
<title>Node115</title>
<g id="a_node3"><a xlink:href="classgame_1_1penguin_1_1_console_game.html#ac6ac2ce8f015a83682f7022c268c5efb" target="_top" xlink:title="game::penguin::ConsoleGame\l::ConsoleGame">
<polygon fill="none" stroke="#000000" points="339,-49.5 339,-79.5 503,-79.5 503,-49.5 339,-49.5"/>
<text text-anchor="start" x="347" y="-67.5" font-family="Helvetica,sans-Serif" font-size="10.00" fill="#000000">game::penguin::ConsoleGame</text>
<text text-anchor="middle" x="421" y="-56.5" font-family="Helvetica,sans-Serif" font-size="10.00" fill="#000000">::ConsoleGame</text>
</a>
</g>
</g>
<!-- Node114&#45;&gt;Node115 -->
<g id="edge2" class="edge">
<title>Node114&#45;&gt;Node115</title>
<path fill="none" stroke="#191970" d="M313.3028,-64.5C321.6907,-64.5 330.2922,-64.5 338.8,-64.5"/>
<polygon fill="#191970" stroke="#191970" points="313.1979,-61.0001 303.1978,-64.5 313.1978,-68.0001 313.1979,-61.0001"/>
</g>
</g>
</svg>
