<?xml version="1.0" encoding="UTF-8" standalone="no"?>
<!DOCTYPE svg PUBLIC "-//W3C//DTD SVG 1.1//EN"
 "http://www.w3.org/Graphics/SVG/1.1/DTD/svg11.dtd">
<!-- Generated by graphviz version 2.40.1 (20161225.0304)
 -->
<!-- Title: mcts::MCTS::doActionOnBoard Pages: 1 -->
<svg width="1191pt" height="88pt"
 viewBox="0.00 0.00 1191.00 88.00" xmlns="http://www.w3.org/2000/svg" xmlns:xlink="http://www.w3.org/1999/xlink">
<g id="graph0" class="graph" transform="scale(1 1) rotate(0) translate(4 84)">
<title>mcts::MCTS::doActionOnBoard</title>
<!-- Node31 -->
<g id="node1" class="node">
<title>Node31</title>
<polygon fill="#bfbfbf" stroke="#000000" points="0,-30 0,-49 164,-49 164,-30 0,-30"/>
<text text-anchor="middle" x="82" y="-37" font-family="Helvetica,sans-Serif" font-size="10.00" fill="#000000">mcts::MCTS::doActionOnBoard</text>
</g>
<!-- Node32 -->
<g id="node2" class="node">
<title>Node32</title>
<g id="a_node2"><a xlink:href="classmcts_1_1_m_c_t_s.html#ae8b2818e7a34e858e9dd284d33bca874" target="_top" xlink:title="Start the mcts. ">
<polygon fill="none" stroke="#000000" points="391,-30 391,-49 498,-49 498,-30 391,-30"/>
<text text-anchor="middle" x="444.5" y="-37" font-family="Helvetica,sans-Serif" font-size="10.00" fill="#000000">mcts::MCTS::begin</text>
</a>
</g>
</g>
<!-- Node31&#45;&gt;Node32 -->
<g id="edge1" class="edge">
<title>Node31&#45;&gt;Node32</title>
<path fill="none" stroke="#191970" d="M174.3645,-41.2153C183.03,-41.331 191.6798,-41.4295 200,-41.5 268.8864,-42.0837 286.1154,-42.2696 355,-41.5 366.5004,-41.3715 378.8305,-41.1502 390.5497,-40.9005"/>
<polygon fill="#191970" stroke="#191970" points="174.2519,-37.7134 164.2035,-41.072 174.1532,-44.7127 174.2519,-37.7134"/>
</g>
<!-- Node38 -->
<g id="node8" class="node">
<title>Node38</title>
<g id="a_node8"><a xlink:href="classmcts_1_1_m_c_t_s.html#a5a3c4a056b0611c19839d6757871653b" target="_top" xlink:title="mcts::MCTS::selectBestChild\lAndDoAction">
<polygon fill="none" stroke="#000000" points="200,-2.5 200,-32.5 355,-32.5 355,-2.5 200,-2.5"/>
<text text-anchor="start" x="208" y="-20.5" font-family="Helvetica,sans-Serif" font-size="10.00" fill="#000000">mcts::MCTS::selectBestChild</text>
<text text-anchor="middle" x="277.5" y="-9.5" font-family="Helvetica,sans-Serif" font-size="10.00" fill="#000000">AndDoAction</text>
</a>
</g>
</g>
<!-- Node31&#45;&gt;Node38 -->
<g id="edge7" class="edge">
<title>Node31&#45;&gt;Node38</title>
<path fill="none" stroke="#191970" d="M174.0812,-29.1379C182.6543,-28.1732 191.2857,-27.2019 199.7105,-26.2538"/>
<polygon fill="#191970" stroke="#191970" points="173.6057,-25.6692 164.0599,-30.2656 174.3886,-32.6253 173.6057,-25.6692"/>
</g>
<!-- Node33 -->
<g id="node3" class="node">
<title>Node33</title>
<g id="a_node3"><a xlink:href="classmcts_1_1_m_c_t_s_player.html#a53677f7c7f9cfe4b7999af8abcfb8641" target="_top" xlink:title="Unleashe the power of the MCTS !!!! ">
<polygon fill="none" stroke="#000000" points="534,-30 534,-49 712,-49 712,-30 534,-30"/>
<text text-anchor="middle" x="623" y="-37" font-family="Helvetica,sans-Serif" font-size="10.00" fill="#000000">mcts::MCTSPlayer::unleash_mcts</text>
</a>
</g>
</g>
<!-- Node32&#45;&gt;Node33 -->
<g id="edge2" class="edge">
<title>Node32&#45;&gt;Node33</title>
<path fill="none" stroke="#191970" d="M508.0586,-39.5C516.4106,-39.5 525.0906,-39.5 533.7704,-39.5"/>
<polygon fill="#191970" stroke="#191970" points="508.0559,-36.0001 498.0559,-39.5 508.0559,-43.0001 508.0559,-36.0001"/>
</g>
<!-- Node34 -->
<g id="node4" class="node">
<title>Node34</title>
<g id="a_node4"><a xlink:href="classmcts_1_1_m_c_t_s_player.html#a48340fed9c5730f0d64ca177682f575e" target="_top" xlink:title="Returns the best move after running the ai. ">
<polygon fill="none" stroke="#000000" points="748,-30 748,-49 906,-49 906,-30 748,-30"/>
<text text-anchor="middle" x="827" y="-37" font-family="Helvetica,sans-Serif" font-size="10.00" fill="#000000">mcts::MCTSPlayer::bestMove</text>
</a>
</g>
</g>
<!-- Node33&#45;&gt;Node34 -->
<g id="edge3" class="edge">
<title>Node33&#45;&gt;Node34</title>
<path fill="none" stroke="#191970" d="M722.2632,-39.5C730.8748,-39.5 739.5125,-39.5 747.9304,-39.5"/>
<polygon fill="#191970" stroke="#191970" points="722.1806,-36.0001 712.1806,-39.5 722.1806,-43.0001 722.1806,-36.0001"/>
</g>
<!-- Node35 -->
<g id="node5" class="node">
<title>Node35</title>
<g id="a_node5"><a xlink:href="classgame_1_1penguin_1_1_console_game.html#a56af132d8e3d16902fb46b7979d37eae" target="_top" xlink:title="Loop while the game is not finished, told by the isFinished method. ">
<polygon fill="none" stroke="#000000" points="942,-49.5 942,-79.5 1106,-79.5 1106,-49.5 942,-49.5"/>
<text text-anchor="start" x="950" y="-67.5" font-family="Helvetica,sans-Serif" font-size="10.00" fill="#000000">game::penguin::ConsoleGame</text>
<text text-anchor="middle" x="1024" y="-56.5" font-family="Helvetica,sans-Serif" font-size="10.00" fill="#000000">::loop</text>
</a>
</g>
</g>
<!-- Node34&#45;&gt;Node35 -->
<g id="edge4" class="edge">
<title>Node34&#45;&gt;Node35</title>
<path fill="none" stroke="#191970" d="M912.2305,-50.3161C922.089,-51.5671 932.1281,-52.8411 941.9431,-54.0867"/>
<polygon fill="#191970" stroke="#191970" points="912.4003,-46.8096 902.0392,-49.0227 911.519,-53.7539 912.4003,-46.8096"/>
</g>
<!-- Node37 -->
<g id="node7" class="node">
<title>Node37</title>
<g id="a_node7"><a xlink:href="classgame_1_1tic__tac__toe_1_1_console_game.html#a06b07e4c713a60999258b0b573b02a33" target="_top" xlink:title="Loop while the game is not finished, told by the isFinished method. ">
<polygon fill="none" stroke="#000000" points="968,-.5 968,-30.5 1080,-30.5 1080,-.5 968,-.5"/>
<text text-anchor="start" x="976" y="-18.5" font-family="Helvetica,sans-Serif" font-size="10.00" fill="#000000">game::tic_tac_toe::</text>
<text text-anchor="middle" x="1024" y="-7.5" font-family="Helvetica,sans-Serif" font-size="10.00" fill="#000000">ConsoleGame::loop</text>
</a>
</g>
</g>
<!-- Node34&#45;&gt;Node37 -->
<g id="edge6" class="edge">
<title>Node34&#45;&gt;Node37</title>
<path fill="none" stroke="#191970" d="M915.5387,-28.7136C933.3117,-26.5483 951.5216,-24.3299 967.8222,-22.344"/>
<polygon fill="#191970" stroke="#191970" points="914.6459,-25.2964 905.1426,-29.9801 915.4925,-32.245 914.6459,-25.2964"/>
</g>
<!-- Node36 -->
<g id="node6" class="node">
<title>Node36</title>
<g id="a_node6"><a xlink:href="main_8cpp.html#a1dfeea39dabf076270426c94def1a2a2" target="_top" xlink:title="main">
<polygon fill="none" stroke="#000000" points="1142,-55 1142,-74 1183,-74 1183,-55 1142,-55"/>
<text text-anchor="middle" x="1162.5" y="-62" font-family="Helvetica,sans-Serif" font-size="10.00" fill="#000000">main</text>
</a>
</g>
</g>
<!-- Node35&#45;&gt;Node36 -->
<g id="edge5" class="edge">
<title>Node35&#45;&gt;Node36</title>
<path fill="none" stroke="#191970" d="M1116.2725,-64.5C1125.7768,-64.5 1134.6282,-64.5 1141.9893,-64.5"/>
<polygon fill="#191970" stroke="#191970" points="1116.1668,-61.0001 1106.1667,-64.5 1116.1667,-68.0001 1116.1668,-61.0001"/>
</g>
<!-- Node38&#45;&gt;Node32 -->
<g id="edge8" class="edge">
<title>Node38&#45;&gt;Node32</title>
<path fill="none" stroke="#191970" d="M365.0712,-29.0363C373.8692,-30.1953 382.6068,-31.3464 390.892,-32.4379"/>
<polygon fill="#191970" stroke="#191970" points="365.5047,-25.5633 355.1332,-27.7271 364.5904,-32.5033 365.5047,-25.5633"/>
</g>
</g>
</svg>
