<?xml version="1.0" encoding="UTF-8" standalone="no"?>
<!DOCTYPE svg PUBLIC "-//W3C//DTD SVG 1.1//EN"
 "http://www.w3.org/Graphics/SVG/1.1/DTD/svg11.dtd">
<!-- Generated by graphviz version 2.40.1 (20161225.0304)
 -->
<!-- Title: game::AbstractPawn::getId Pages: 1 -->
<!--zoomable 137 -->
<svg id="main" version="1.1" xmlns="http://www.w3.org/2000/svg" xmlns:xlink="http://www.w3.org/1999/xlink" xml:space="preserve" onload="init(evt)">
<style type="text/css"><![CDATA[
.edge:hover path { stroke: red; }
.edge:hover polygon { stroke: red; fill: red; }
]]></style>
<script type="text/javascript"><![CDATA[
var edges = document.getElementsByTagName('g');
if (edges && edges.length) {
  for (var i=0;i<edges.length;i++) {
    if (edges[i].id.substr(0,4)=='edge') {
      edges[i].setAttribute('class','edge');
    }
  }
}
]]></script>
        <defs>
                <circle id="rim" cx="0" cy="0" r="7"/>
                <circle id="rim2" cx="0" cy="0" r="3.5"/>
                <g id="zoomPlus">
                        <use xlink:href="#rim" fill="#404040">
                                <set attributeName="fill" to="#808080" begin="zoomplus.mouseover" end="zoomplus.mouseout"/>
                        </use>
                        <path d="M-4,0h8M0,-4v8" fill="none" stroke="white" stroke-width="1.5" pointer-events="none"/>
                </g>
                <g id="zoomMin">
                        <use xlink:href="#rim" fill="#404040">
                                <set attributeName="fill" to="#808080" begin="zoomminus.mouseover" end="zoomminus.mouseout"/>
                        </use>
                        <path d="M-4,0h8" fill="none" stroke="white" stroke-width="1.5" pointer-events="none"/>
                </g>
                <g id="dirArrow">
                        <path fill="none" stroke="white" stroke-width="1.5" d="M0,-3.0v7 M-2.5,-0.5L0,-3.0L2.5,-0.5"/>
                </g>
               <g id="resetDef">
                       <use xlink:href="#rim2" fill="#404040">
                               <set attributeName="fill" to="#808080" begin="reset.mouseover" end="reset.mouseout"/>
                       </use>
               </g>
        </defs>

<script type="text/javascript">
var viewWidth = 1132;
var viewHeight = 137;
var sectionId = 'dynsection-4';
</script>
<script xlink:href="svgpan.js"/>
<svg id="graph" class="graph">
<g id="viewport">
<title>game::AbstractPawn::getId</title>
<!-- Node20 -->
<g id="node1" class="node">
<title>Node20</title>
<polygon fill="#bfbfbf" stroke="#000000" points="0,-24.5 0,-54.5 116,-54.5 116,-24.5 0,-24.5"/>
<text text-anchor="start" x="8" y="-42.5" font-family="Helvetica,sans-Serif" font-size="10.00" fill="#000000">game::AbstractPawn</text>
<text text-anchor="middle" x="58" y="-31.5" font-family="Helvetica,sans-Serif" font-size="10.00" fill="#000000">::getId</text>
</g>
<!-- Node21 -->
<g id="node2" class="node">
<title>Node21</title>
<g id="a_node2"><a xlink:href="classgame_1_1penguin_1_1_board_cell.html#a1ed5a3134f831bef111c6294c07388bf" target="_top" xlink:title="game::penguin::BoardCell\l::equals_to">
<polygon fill="none" stroke="#000000" points="152,-46.5 152,-76.5 295,-76.5 295,-46.5 152,-46.5"/>
<text text-anchor="start" x="160" y="-64.5" font-family="Helvetica,sans-Serif" font-size="10.00" fill="#000000">game::penguin::BoardCell</text>
<text text-anchor="middle" x="223.5" y="-53.5" font-family="Helvetica,sans-Serif" font-size="10.00" fill="#000000">::equals_to</text>
</a>
</g>
</g>
<!-- Node20&#45;&gt;Node21 -->
<g id="edge1" class="edge">
<title>Node20&#45;&gt;Node21</title>
<path fill="none" stroke="#191970" d="M126.4232,-48.5955C134.7836,-49.7069 143.3452,-50.845 151.7525,-51.9626"/>
<polygon fill="#191970" stroke="#191970" points="126.7231,-45.1047 116.3491,-47.2564 125.8007,-52.0437 126.7231,-45.1047"/>
</g>
<!-- Node26 -->
<g id="node7" class="node">
<title>Node26</title>
<g id="a_node7"><a xlink:href="classgame_1_1penguin_1_1_print_hex.html#a87a58be4fea97f043e6dbe01a3045c1d" target="_top" xlink:title="game::penguin::PrintHex\l::print">
<polygon fill="none" stroke="#000000" points="510,-.5 510,-30.5 647,-30.5 647,-.5 510,-.5"/>
<text text-anchor="start" x="518" y="-18.5" font-family="Helvetica,sans-Serif" font-size="10.00" fill="#000000">game::penguin::PrintHex</text>
<text text-anchor="middle" x="578.5" y="-7.5" font-family="Helvetica,sans-Serif" font-size="10.00" fill="#000000">::print</text>
</a>
</g>
</g>
<!-- Node20&#45;&gt;Node26 -->
<g id="edge10" class="edge">
<title>Node20&#45;&gt;Node26</title>
<path fill="none" stroke="#191970" d="M126.439,-36.3443C225.9975,-31.7537 409.7455,-23.2812 509.5763,-18.678"/>
<polygon fill="#191970" stroke="#191970" points="126.021,-32.8598 116.1929,-36.8168 126.3435,-39.8523 126.021,-32.8598"/>
</g>
<!-- Node22 -->
<g id="node3" class="node">
<title>Node22</title>
<g id="a_node3"><a xlink:href="classgame_1_1penguin_1_1_board_cell.html#abe8f2dc0eef3aed1e8701dc0b021c5a6" target="_top" xlink:title="Get the number of fish contained inside the cell. ">
<polygon fill="none" stroke="#000000" points="331,-47.5 331,-77.5 474,-77.5 474,-47.5 331,-47.5"/>
<text text-anchor="start" x="339" y="-65.5" font-family="Helvetica,sans-Serif" font-size="10.00" fill="#000000">game::penguin::BoardCell</text>
<text text-anchor="middle" x="402.5" y="-54.5" font-family="Helvetica,sans-Serif" font-size="10.00" fill="#000000">::getFish</text>
</a>
</g>
</g>
<!-- Node21&#45;&gt;Node22 -->
<g id="edge2" class="edge">
<title>Node21&#45;&gt;Node22</title>
<path fill="none" stroke="#191970" d="M305.0428,-61.9555C313.6381,-62.0036 322.3321,-62.0521 330.8042,-62.0995"/>
<polygon fill="#191970" stroke="#191970" points="305.0367,-58.4556 295.0172,-61.8995 304.9975,-65.4554 305.0367,-58.4556"/>
</g>
<!-- Node23 -->
<g id="node4" class="node">
<title>Node23</title>
<g id="a_node4"><a xlink:href="classgame_1_1penguin_1_1_board.html#af297dc572afb02dafc61e3b8e849338f" target="_top" xlink:title="Performs a particular move. ">
<polygon fill="none" stroke="#000000" points="516.5,-98.5 516.5,-128.5 640.5,-128.5 640.5,-98.5 516.5,-98.5"/>
<text text-anchor="start" x="524.5" y="-116.5" font-family="Helvetica,sans-Serif" font-size="10.00" fill="#000000">game::penguin::Board</text>
<text text-anchor="middle" x="578.5" y="-105.5" font-family="Helvetica,sans-Serif" font-size="10.00" fill="#000000">::performMove</text>
</a>
</g>
</g>
<!-- Node22&#45;&gt;Node23 -->
<g id="edge3" class="edge">
<title>Node22&#45;&gt;Node23</title>
<path fill="none" stroke="#191970" d="M464.1897,-80.376C484.6106,-86.2934 507.1133,-92.8141 526.7129,-98.4935"/>
<polygon fill="#191970" stroke="#191970" points="464.9329,-76.9474 454.3539,-77.5258 462.9846,-83.6708 464.9329,-76.9474"/>
</g>
<!-- Node25 -->
<g id="node6" class="node">
<title>Node25</title>
<g id="a_node6"><a xlink:href="classgame_1_1penguin_1_1_board.html#a45ecb5bba50b4d03592ac4ddf9255b49" target="_top" xlink:title="Revert the last move made on the behalf of the human player. ">
<polygon fill="none" stroke="#000000" points="516.5,-49.5 516.5,-79.5 640.5,-79.5 640.5,-49.5 516.5,-49.5"/>
<text text-anchor="start" x="524.5" y="-67.5" font-family="Helvetica,sans-Serif" font-size="10.00" fill="#000000">game::penguin::Board</text>
<text text-anchor="middle" x="578.5" y="-56.5" font-family="Helvetica,sans-Serif" font-size="10.00" fill="#000000">::revertMove</text>
</a>
</g>
</g>
<!-- Node22&#45;&gt;Node25 -->
<g id="edge5" class="edge">
<title>Node22&#45;&gt;Node25</title>
<path fill="none" stroke="#191970" d="M484.3303,-63.4299C495.0768,-63.552 505.9465,-63.6755 516.2942,-63.7931"/>
<polygon fill="#191970" stroke="#191970" points="484.1251,-59.9274 474.0859,-63.3135 484.0455,-66.927 484.1251,-59.9274"/>
</g>
<!-- Node22&#45;&gt;Node26 -->
<g id="edge6" class="edge">
<title>Node22&#45;&gt;Node26</title>
<path fill="none" stroke="#191970" d="M468.3688,-44.91C486.0973,-40.1757 505.1074,-35.0992 522.2586,-30.519"/>
<polygon fill="#191970" stroke="#191970" points="467.4298,-41.5381 458.6714,-47.4997 469.2359,-48.3011 467.4298,-41.5381"/>
</g>
<!-- Node24 -->
<g id="node5" class="node">
<title>Node24</title>
<g id="a_node5"><a xlink:href="classgame_1_1penguin_1_1_console_game.html#ac6ac2ce8f015a83682f7022c268c5efb" target="_top" xlink:title="game::penguin::ConsoleGame\l::ConsoleGame">
<polygon fill="none" stroke="#000000" points="683,-98.5 683,-128.5 847,-128.5 847,-98.5 683,-98.5"/>
<text text-anchor="start" x="691" y="-116.5" font-family="Helvetica,sans-Serif" font-size="10.00" fill="#000000">game::penguin::ConsoleGame</text>
<text text-anchor="middle" x="765" y="-105.5" font-family="Helvetica,sans-Serif" font-size="10.00" fill="#000000">::ConsoleGame</text>
</a>
</g>
</g>
<!-- Node23&#45;&gt;Node24 -->
<g id="edge4" class="edge">
<title>Node23&#45;&gt;Node24</title>
<path fill="none" stroke="#191970" d="M650.612,-113.5C661.1953,-113.5 672.1619,-113.5 682.927,-113.5"/>
<polygon fill="#191970" stroke="#191970" points="650.6018,-110.0001 640.6018,-113.5 650.6018,-117.0001 650.6018,-110.0001"/>
</g>
<!-- Node27 -->
<g id="node8" class="node">
<title>Node27</title>
<g id="a_node8"><a xlink:href="classgame_1_1penguin_1_1_console_game.html#a71c697742201f71b29327bf8554c2ef0" target="_top" xlink:title="game::penguin::ConsoleGame\l::draw">
<polygon fill="none" stroke="#000000" points="683,-.5 683,-30.5 847,-30.5 847,-.5 683,-.5"/>
<text text-anchor="start" x="691" y="-18.5" font-family="Helvetica,sans-Serif" font-size="10.00" fill="#000000">game::penguin::ConsoleGame</text>
<text text-anchor="middle" x="765" y="-7.5" font-family="Helvetica,sans-Serif" font-size="10.00" fill="#000000">::draw</text>
</a>
</g>
</g>
<!-- Node26&#45;&gt;Node27 -->
<g id="edge7" class="edge">
<title>Node26&#45;&gt;Node27</title>
<path fill="none" stroke="#191970" d="M657.3574,-15.5C665.8061,-15.5 674.4163,-15.5 682.9015,-15.5"/>
<polygon fill="#191970" stroke="#191970" points="657.1512,-12.0001 647.1512,-15.5 657.1511,-19.0001 657.1512,-12.0001"/>
</g>
<!-- Node28 -->
<g id="node9" class="node">
<title>Node28</title>
<g id="a_node9"><a xlink:href="classgame_1_1penguin_1_1_console_game.html#a56af132d8e3d16902fb46b7979d37eae" target="_top" xlink:title="Loop while the game is not finished, told by the isFinished method. ">
<polygon fill="none" stroke="#000000" points="883,-.5 883,-30.5 1047,-30.5 1047,-.5 883,-.5"/>
<text text-anchor="start" x="891" y="-18.5" font-family="Helvetica,sans-Serif" font-size="10.00" fill="#000000">game::penguin::ConsoleGame</text>
<text text-anchor="middle" x="965" y="-7.5" font-family="Helvetica,sans-Serif" font-size="10.00" fill="#000000">::loop</text>
</a>
</g>
</g>
<!-- Node27&#45;&gt;Node28 -->
<g id="edge8" class="edge">
<title>Node27&#45;&gt;Node28</title>
<path fill="none" stroke="#191970" d="M857.4658,-15.5C865.9136,-15.5 874.4335,-15.5 882.7826,-15.5"/>
<polygon fill="#191970" stroke="#191970" points="857.2135,-12.0001 847.2135,-15.5 857.2134,-19.0001 857.2135,-12.0001"/>
</g>
<!-- Node29 -->
<g id="node10" class="node">
<title>Node29</title>
<g id="a_node10"><a xlink:href="main_8cpp.html#a1dfeea39dabf076270426c94def1a2a2" target="_top" xlink:title="main">
<polygon fill="none" stroke="#000000" points="1083,-6 1083,-25 1124,-25 1124,-6 1083,-6"/>
<text text-anchor="middle" x="1103.5" y="-13" font-family="Helvetica,sans-Serif" font-size="10.00" fill="#000000">main</text>
</a>
</g>
</g>
<!-- Node28&#45;&gt;Node29 -->
<g id="edge9" class="edge">
<title>Node28&#45;&gt;Node29</title>
<path fill="none" stroke="#191970" d="M1057.2725,-15.5C1066.7768,-15.5 1075.6282,-15.5 1082.9893,-15.5"/>
<polygon fill="#191970" stroke="#191970" points="1057.1668,-12.0001 1047.1667,-15.5 1057.1667,-19.0001 1057.1668,-12.0001"/>
</g>
</g>
</svg>
        <g id="navigator" transform="translate(0 0)" fill="#404254">
                <rect fill="#f2f5e9" fill-opacity="0.5" stroke="#606060" stroke-width=".5" x="0" y="0" width="60" height="60"/>
                <use id="zoomplus" xlink:href="#zoomPlus" x="17" y="9" onmousedown="handleZoom(evt,'in')"/>
                <use id="zoomminus" xlink:href="#zoomMin" x="42" y="9" onmousedown="handleZoom(evt,'out')"/>
                <use id="reset" xlink:href="#resetDef" x="30" y="36" onmousedown="handleReset()"/>
                <g id="arrowUp" xlink:href="#dirArrow" transform="translate(30 24)" onmousedown="handlePan(0,-1)">
                  <use xlink:href="#rim" fill="#404040">
                        <set attributeName="fill" to="#808080" begin="arrowUp.mouseover" end="arrowUp.mouseout"/>
                  </use>
                  <path fill="none" stroke="white" stroke-width="1.5" d="M0,-3.0v7 M-2.5,-0.5L0,-3.0L2.5,-0.5"/>
                </g>
                <g id="arrowRight" xlink:href="#dirArrow" transform="rotate(90) translate(36 -43)" onmousedown="handlePan(1,0)">
                  <use xlink:href="#rim" fill="#404040">
                        <set attributeName="fill" to="#808080" begin="arrowRight.mouseover" end="arrowRight.mouseout"/>
                  </use>
                  <path fill="none" stroke="white" stroke-width="1.5" d="M0,-3.0v7 M-2.5,-0.5L0,-3.0L2.5,-0.5"/>
                </g>
                <g id="arrowDown" xlink:href="#dirArrow" transform="rotate(180) translate(-30 -48)" onmousedown="handlePan(0,1)">
                  <use xlink:href="#rim" fill="#404040">
                        <set attributeName="fill" to="#808080" begin="arrowDown.mouseover" end="arrowDown.mouseout"/>
                  </use>
                  <path fill="none" stroke="white" stroke-width="1.5" d="M0,-3.0v7 M-2.5,-0.5L0,-3.0L2.5,-0.5"/>
                </g>
                <g id="arrowLeft" xlink:href="#dirArrow" transform="rotate(270) translate(-36 17)" onmousedown="handlePan(-1,0)">
                  <use xlink:href="#rim" fill="#404040">
                        <set attributeName="fill" to="#808080" begin="arrowLeft.mouseover" end="arrowLeft.mouseout"/>
                  </use>
                  <path fill="none" stroke="white" stroke-width="1.5" d="M0,-3.0v7 M-2.5,-0.5L0,-3.0L2.5,-0.5"/>
                </g>
        </g>
        <svg viewBox="0 0 15 15" width="100%" height="30px" preserveAspectRatio="xMaxYMin meet">
         <g id="arrow_out" transform="scale(0.3 0.3)">
          <a xlink:href="classgame_1_1_abstract_pawn_a49354506912d0e1bf5272627aa2bc86e_icgraph_org.svg" target="_base">
           <rect id="button" ry="5" rx="5" y="6" x="6" height="38" width="38"
                fill="#f2f5e9" fill-opacity="0.5" stroke="#606060" stroke-width="1.0"/>
           <path id="arrow"
             d="M 11.500037,31.436501 C 11.940474,20.09759 22.043105,11.32322 32.158766,21.979434 L 37.068811,17.246167 C 37.068811,17.246167 37.088388,32 37.088388,32 L 22.160133,31.978069 C 22.160133,31.978069 26.997745,27.140456 26.997745,27.140456 C 18.528582,18.264221 13.291696,25.230495 11.500037,31.436501 z"
             style="fill:#404040;"/>
          </a>
         </g>
        </svg>
</svg>
