<?xml version="1.0" encoding="UTF-8" standalone="no"?>
<!DOCTYPE svg PUBLIC "-//W3C//DTD SVG 1.1//EN"
 "http://www.w3.org/Graphics/SVG/1.1/DTD/svg11.dtd">
<!-- Generated by graphviz version 2.40.1 (20161225.0304)
 -->
<!-- Title: mcts::MCTSPlayer::unleash_mcts Pages: 1 -->
<svg width="657pt" height="88pt"
 viewBox="0.00 0.00 657.00 88.00" xmlns="http://www.w3.org/2000/svg" xmlns:xlink="http://www.w3.org/1999/xlink">
<g id="graph0" class="graph" transform="scale(1 1) rotate(0) translate(4 84)">
<title>mcts::MCTSPlayer::unleash_mcts</title>
<!-- Node52 -->
<g id="node1" class="node">
<title>Node52</title>
<polygon fill="#bfbfbf" stroke="#000000" points="0,-30 0,-49 178,-49 178,-30 0,-30"/>
<text text-anchor="middle" x="89" y="-37" font-family="Helvetica,sans-Serif" font-size="10.00" fill="#000000">mcts::MCTSPlayer::unleash_mcts</text>
</g>
<!-- Node53 -->
<g id="node2" class="node">
<title>Node53</title>
<g id="a_node2"><a xlink:href="classmcts_1_1_m_c_t_s_player.html#a48340fed9c5730f0d64ca177682f575e" target="_top" xlink:title="Returns the best move after running the ai. ">
<polygon fill="none" stroke="#000000" points="214,-30 214,-49 372,-49 372,-30 214,-30"/>
<text text-anchor="middle" x="293" y="-37" font-family="Helvetica,sans-Serif" font-size="10.00" fill="#000000">mcts::MCTSPlayer::bestMove</text>
</a>
</g>
</g>
<!-- Node52&#45;&gt;Node53 -->
<g id="edge1" class="edge">
<title>Node52&#45;&gt;Node53</title>
<path fill="none" stroke="#191970" d="M188.2632,-39.5C196.8748,-39.5 205.5125,-39.5 213.9304,-39.5"/>
<polygon fill="#191970" stroke="#191970" points="188.1806,-36.0001 178.1806,-39.5 188.1806,-43.0001 188.1806,-36.0001"/>
</g>
<!-- Node54 -->
<g id="node3" class="node">
<title>Node54</title>
<g id="a_node3"><a xlink:href="classgame_1_1penguin_1_1_console_game.html#a56af132d8e3d16902fb46b7979d37eae" target="_top" xlink:title="Loop while the game is not finished, told by the isFinished method. ">
<polygon fill="none" stroke="#000000" points="408,-49.5 408,-79.5 572,-79.5 572,-49.5 408,-49.5"/>
<text text-anchor="start" x="416" y="-67.5" font-family="Helvetica,sans-Serif" font-size="10.00" fill="#000000">game::penguin::ConsoleGame</text>
<text text-anchor="middle" x="490" y="-56.5" font-family="Helvetica,sans-Serif" font-size="10.00" fill="#000000">::loop</text>
</a>
</g>
</g>
<!-- Node53&#45;&gt;Node54 -->
<g id="edge2" class="edge">
<title>Node53&#45;&gt;Node54</title>
<path fill="none" stroke="#191970" d="M378.2305,-50.3161C388.089,-51.5671 398.1281,-52.8411 407.9431,-54.0867"/>
<polygon fill="#191970" stroke="#191970" points="378.4003,-46.8096 368.0392,-49.0227 377.519,-53.7539 378.4003,-46.8096"/>
</g>
<!-- Node56 -->
<g id="node5" class="node">
<title>Node56</title>
<g id="a_node5"><a xlink:href="classgame_1_1tic__tac__toe_1_1_console_game.html#a06b07e4c713a60999258b0b573b02a33" target="_top" xlink:title="Loop while the game is not finished, told by the isFinished method. ">
<polygon fill="none" stroke="#000000" points="434,-.5 434,-30.5 546,-30.5 546,-.5 434,-.5"/>
<text text-anchor="start" x="442" y="-18.5" font-family="Helvetica,sans-Serif" font-size="10.00" fill="#000000">game::tic_tac_toe::</text>
<text text-anchor="middle" x="490" y="-7.5" font-family="Helvetica,sans-Serif" font-size="10.00" fill="#000000">ConsoleGame::loop</text>
</a>
</g>
</g>
<!-- Node53&#45;&gt;Node56 -->
<g id="edge4" class="edge">
<title>Node53&#45;&gt;Node56</title>
<path fill="none" stroke="#191970" d="M381.5387,-28.7136C399.3117,-26.5483 417.5216,-24.3299 433.8222,-22.344"/>
<polygon fill="#191970" stroke="#191970" points="380.6459,-25.2964 371.1426,-29.9801 381.4925,-32.245 380.6459,-25.2964"/>
</g>
<!-- Node55 -->
<g id="node4" class="node">
<title>Node55</title>
<g id="a_node4"><a xlink:href="main_8cpp.html#a1dfeea39dabf076270426c94def1a2a2" target="_top" xlink:title="main">
<polygon fill="none" stroke="#000000" points="608,-55 608,-74 649,-74 649,-55 608,-55"/>
<text text-anchor="middle" x="628.5" y="-62" font-family="Helvetica,sans-Serif" font-size="10.00" fill="#000000">main</text>
</a>
</g>
</g>
<!-- Node54&#45;&gt;Node55 -->
<g id="edge3" class="edge">
<title>Node54&#45;&gt;Node55</title>
<path fill="none" stroke="#191970" d="M582.2725,-64.5C591.7768,-64.5 600.6282,-64.5 607.9893,-64.5"/>
<polygon fill="#191970" stroke="#191970" points="582.1668,-61.0001 572.1667,-64.5 582.1667,-68.0001 582.1668,-61.0001"/>
</g>
</g>
</svg>
