<?xml version="1.0" encoding="UTF-8" standalone="no"?>
<!DOCTYPE svg PUBLIC "-//W3C//DTD SVG 1.1//EN"
 "http://www.w3.org/Graphics/SVG/1.1/DTD/svg11.dtd">
<!-- Generated by graphviz version 2.40.1 (20161225.0304)
 -->
<!-- Title: game::penguin::PenguinGame::getPlayerToPlay Pages: 1 -->
<svg width="569pt" height="186pt"
 viewBox="0.00 0.00 569.00 186.00" xmlns="http://www.w3.org/2000/svg" xmlns:xlink="http://www.w3.org/1999/xlink">
<g id="graph0" class="graph" transform="scale(1 1) rotate(0) translate(4 182)">
<title>game::penguin::PenguinGame::getPlayerToPlay</title>
<!-- Node27 -->
<g id="node1" class="node">
<title>Node27</title>
<polygon fill="#bfbfbf" stroke="#000000" points="0,-73.5 0,-103.5 164,-103.5 164,-73.5 0,-73.5"/>
<text text-anchor="start" x="8" y="-91.5" font-family="Helvetica,sans-Serif" font-size="10.00" fill="#000000">game::penguin::PenguinGame</text>
<text text-anchor="middle" x="82" y="-80.5" font-family="Helvetica,sans-Serif" font-size="10.00" fill="#000000">::getPlayerToPlay</text>
</g>
<!-- Node28 -->
<g id="node2" class="node">
<title>Node28</title>
<g id="a_node2"><a xlink:href="classgame_1_1penguin_1_1_penguin_game.html#a7b65d0a9742a9cf07296839373a56143" target="_top" xlink:title="game::penguin::PenguinGame\l::getBoard">
<polygon fill="none" stroke="#000000" points="200,-122.5 200,-152.5 364,-152.5 364,-122.5 200,-122.5"/>
<text text-anchor="start" x="208" y="-140.5" font-family="Helvetica,sans-Serif" font-size="10.00" fill="#000000">game::penguin::PenguinGame</text>
<text text-anchor="middle" x="282" y="-129.5" font-family="Helvetica,sans-Serif" font-size="10.00" fill="#000000">::getBoard</text>
</a>
</g>
</g>
<!-- Node27&#45;&gt;Node28 -->
<g id="edge1" class="edge">
<title>Node27&#45;&gt;Node28</title>
<path fill="none" stroke="#191970" d="M143.3658,-103.5346C164.675,-108.7554 188.7499,-114.6537 210.7862,-120.0526"/>
<polygon fill="#191970" stroke="#191970" points="210.2046,-123.5136 220.7503,-122.4938 211.8704,-116.7147 210.2046,-123.5136"/>
</g>
<!-- Node29 -->
<g id="node3" class="node">
<title>Node29</title>
<g id="a_node3"><a xlink:href="classgame_1_1penguin_1_1_board.html#ae85ef3019829098c5ad5afb1c3ebceb5" target="_top" xlink:title="Is the player able to move. ">
<polygon fill="none" stroke="#000000" points="220,-73.5 220,-103.5 344,-103.5 344,-73.5 220,-73.5"/>
<text text-anchor="start" x="228" y="-91.5" font-family="Helvetica,sans-Serif" font-size="10.00" fill="#000000">game::penguin::Board</text>
<text text-anchor="middle" x="282" y="-80.5" font-family="Helvetica,sans-Serif" font-size="10.00" fill="#000000">::isAbleToMove</text>
</a>
</g>
</g>
<!-- Node27&#45;&gt;Node29 -->
<g id="edge2" class="edge">
<title>Node27&#45;&gt;Node29</title>
<path fill="none" stroke="#191970" d="M164.2135,-88.5C179.3576,-88.5 195.0641,-88.5 209.8828,-88.5"/>
<polygon fill="#191970" stroke="#191970" points="209.9822,-92.0001 219.9822,-88.5 209.9822,-85.0001 209.9822,-92.0001"/>
</g>
<!-- Node34 -->
<g id="node8" class="node">
<title>Node34</title>
<g id="a_node8"><a xlink:href="classgame_1_1penguin_1_1_board.html#a8728b4381bc2e007710d275bb226cf95" target="_top" xlink:title="Gets the player corresponding to a certain id. ">
<polygon fill="none" stroke="#000000" points="220,-24.5 220,-54.5 344,-54.5 344,-24.5 220,-24.5"/>
<text text-anchor="start" x="228" y="-42.5" font-family="Helvetica,sans-Serif" font-size="10.00" fill="#000000">game::penguin::Board</text>
<text text-anchor="middle" x="282" y="-31.5" font-family="Helvetica,sans-Serif" font-size="10.00" fill="#000000">::getPlayerById</text>
</a>
</g>
</g>
<!-- Node27&#45;&gt;Node34 -->
<g id="edge7" class="edge">
<title>Node27&#45;&gt;Node34</title>
<path fill="none" stroke="#191970" d="M143.3658,-73.4654C164.675,-68.2446 188.7499,-62.3463 210.7862,-56.9474"/>
<polygon fill="#191970" stroke="#191970" points="211.8704,-60.2853 220.7503,-54.5062 210.2046,-53.4864 211.8704,-60.2853"/>
</g>
<!-- Node30 -->
<g id="node4" class="node">
<title>Node30</title>
<g id="a_node4"><a xlink:href="classgame_1_1penguin_1_1_human_player.html#a28c5485b12e0c8fcd340458255c06587" target="_top" xlink:title="Get the penguins possessed by the player. ">
<polygon fill="none" stroke="#000000" points="400,-147.5 400,-177.5 561,-177.5 561,-147.5 400,-147.5"/>
<text text-anchor="start" x="408" y="-165.5" font-family="Helvetica,sans-Serif" font-size="10.00" fill="#000000">game::penguin::HumanPlayer</text>
<text text-anchor="middle" x="480.5" y="-154.5" font-family="Helvetica,sans-Serif" font-size="10.00" fill="#000000">::getPenguins</text>
</a>
</g>
</g>
<!-- Node29&#45;&gt;Node30 -->
<g id="edge3" class="edge">
<title>Node29&#45;&gt;Node30</title>
<path fill="none" stroke="#191970" d="M339.7769,-103.6244C348.0672,-106.5066 356.3666,-109.7989 364,-113.5 381.528,-121.9985 382.4458,-130.0557 400,-138.5 404.0268,-140.4371 408.2429,-142.2543 412.5453,-143.9525"/>
<polygon fill="#191970" stroke="#191970" points="411.4688,-147.2862 422.0618,-147.4807 413.9022,-140.7227 411.4688,-147.2862"/>
</g>
<!-- Node31 -->
<g id="node5" class="node">
<title>Node31</title>
<g id="a_node5"><a xlink:href="classgame_1_1penguin_1_1_board_cell.html#a802b2f75d1e3136146625266f6a2c03a" target="_top" xlink:title="Get the Position object. ">
<polygon fill="none" stroke="#000000" points="409,-98.5 409,-128.5 552,-128.5 552,-98.5 409,-98.5"/>
<text text-anchor="start" x="417" y="-116.5" font-family="Helvetica,sans-Serif" font-size="10.00" fill="#000000">game::penguin::BoardCell</text>
<text text-anchor="middle" x="480.5" y="-105.5" font-family="Helvetica,sans-Serif" font-size="10.00" fill="#000000">::getPosition</text>
</a>
</g>
</g>
<!-- Node29&#45;&gt;Node31 -->
<g id="edge4" class="edge">
<title>Node29&#45;&gt;Node31</title>
<path fill="none" stroke="#191970" d="M344.262,-96.3416C361.5299,-98.5164 380.541,-100.9107 398.7417,-103.203"/>
<polygon fill="#191970" stroke="#191970" points="398.3946,-106.6868 408.7536,-104.4639 399.2694,-99.7417 398.3946,-106.6868"/>
</g>
<!-- Node32 -->
<g id="node6" class="node">
<title>Node32</title>
<g id="a_node6"><a xlink:href="classgame_1_1penguin_1_1_board_cell.html#a6a978b7e72ef20475771eb6e453e0a39" target="_top" xlink:title="tells if the cell is gone or not ">
<polygon fill="none" stroke="#000000" points="409,-49.5 409,-79.5 552,-79.5 552,-49.5 409,-49.5"/>
<text text-anchor="start" x="417" y="-67.5" font-family="Helvetica,sans-Serif" font-size="10.00" fill="#000000">game::penguin::BoardCell</text>
<text text-anchor="middle" x="480.5" y="-56.5" font-family="Helvetica,sans-Serif" font-size="10.00" fill="#000000">::isGone</text>
</a>
</g>
</g>
<!-- Node29&#45;&gt;Node32 -->
<g id="edge5" class="edge">
<title>Node29&#45;&gt;Node32</title>
<path fill="none" stroke="#191970" d="M344.262,-80.9721C361.5299,-78.8843 380.541,-76.5857 398.7417,-74.3851"/>
<polygon fill="#191970" stroke="#191970" points="399.2461,-77.8497 408.7536,-73.1746 398.4058,-70.9003 399.2461,-77.8497"/>
</g>
<!-- Node33 -->
<g id="node7" class="node">
<title>Node33</title>
<g id="a_node7"><a xlink:href="classgame_1_1penguin_1_1_board_cell.html#a011487b961b356a891144edcccc1473f" target="_top" xlink:title="Get the penguin standing on the cell. ">
<polygon fill="none" stroke="#000000" points="409,-.5 409,-30.5 552,-30.5 552,-.5 409,-.5"/>
<text text-anchor="start" x="417" y="-18.5" font-family="Helvetica,sans-Serif" font-size="10.00" fill="#000000">game::penguin::BoardCell</text>
<text text-anchor="middle" x="480.5" y="-7.5" font-family="Helvetica,sans-Serif" font-size="10.00" fill="#000000">::getOwner</text>
</a>
</g>
</g>
<!-- Node29&#45;&gt;Node33 -->
<g id="edge6" class="edge">
<title>Node29&#45;&gt;Node33</title>
<path fill="none" stroke="#191970" d="M341.4707,-73.4281C349.1855,-70.7983 356.875,-67.8227 364,-64.5 381.4277,-56.3726 382.6395,-48.7699 400,-40.5 404.8718,-38.1793 410.0104,-36.0084 415.2378,-33.9923"/>
<polygon fill="#191970" stroke="#191970" points="416.514,-37.2524 424.7045,-30.5318 414.1107,-30.6779 416.514,-37.2524"/>
</g>
</g>
</svg>
