<?xml version="1.0" encoding="UTF-8" standalone="no"?>
<!DOCTYPE svg PUBLIC "-//W3C//DTD SVG 1.1//EN"
 "http://www.w3.org/Graphics/SVG/1.1/DTD/svg11.dtd">
<!-- Generated by graphviz version 2.40.1 (20161225.0304)
 -->
<!-- Title: game::penguin::Board::getCell Pages: 1 -->
<svg width="809pt" height="176pt"
 viewBox="0.00 0.00 809.00 176.00" xmlns="http://www.w3.org/2000/svg" xmlns:xlink="http://www.w3.org/1999/xlink">
<g id="graph0" class="graph" transform="scale(1 1) rotate(0) translate(4 172)">
<title>game::penguin::Board::getCell</title>
<!-- Node38 -->
<g id="node1" class="node">
<title>Node38</title>
<polygon fill="#bfbfbf" stroke="#000000" points="0,-71.5 0,-101.5 124,-101.5 124,-71.5 0,-71.5"/>
<text text-anchor="start" x="8" y="-89.5" font-family="Helvetica,sans-Serif" font-size="10.00" fill="#000000">game::penguin::Board</text>
<text text-anchor="middle" x="62" y="-78.5" font-family="Helvetica,sans-Serif" font-size="10.00" fill="#000000">::getCell</text>
</g>
<!-- Node39 -->
<g id="node2" class="node">
<title>Node39</title>
<g id="a_node2"><a xlink:href="classgame_1_1penguin_1_1_board.html#acad4a3c7bee2103aea4586356ceabb8e" target="_top" xlink:title="game::penguin::Board\l::clone">
<polygon fill="none" stroke="#000000" points="180,-137.5 180,-167.5 304,-167.5 304,-137.5 180,-137.5"/>
<text text-anchor="start" x="188" y="-155.5" font-family="Helvetica,sans-Serif" font-size="10.00" fill="#000000">game::penguin::Board</text>
<text text-anchor="middle" x="242" y="-144.5" font-family="Helvetica,sans-Serif" font-size="10.00" fill="#000000">::clone</text>
</a>
</g>
</g>
<!-- Node38&#45;&gt;Node39 -->
<g id="edge1" class="edge">
<title>Node38&#45;&gt;Node39</title>
<path fill="none" stroke="#191970" d="M112.7408,-105.1539C127.9376,-110.7368 144.6439,-116.8705 160,-122.5 173.2364,-127.3525 187.6775,-132.6385 200.7012,-137.4027"/>
<polygon fill="#191970" stroke="#191970" points="113.5952,-101.7391 103.0016,-101.5755 111.1809,-108.3096 113.5952,-101.7391"/>
</g>
<!-- Node40 -->
<g id="node3" class="node">
<title>Node40</title>
<g id="a_node3"><a xlink:href="classgame_1_1penguin_1_1_board.html#a7636e3bdb2da72d2a6395b1a2d846394" target="_top" xlink:title="game::penguin::Board\l::size">
<polygon fill="none" stroke="#000000" points="380,-115.5 380,-145.5 504,-145.5 504,-115.5 380,-115.5"/>
<text text-anchor="start" x="388" y="-133.5" font-family="Helvetica,sans-Serif" font-size="10.00" fill="#000000">game::penguin::Board</text>
<text text-anchor="middle" x="442" y="-122.5" font-family="Helvetica,sans-Serif" font-size="10.00" fill="#000000">::size</text>
</a>
</g>
</g>
<!-- Node38&#45;&gt;Node40 -->
<g id="edge4" class="edge">
<title>Node38&#45;&gt;Node40</title>
<path fill="none" stroke="#191970" d="M134.5376,-94.8991C205.6002,-103.1274 312.7386,-115.5329 379.9578,-123.3162"/>
<polygon fill="#191970" stroke="#191970" points="134.66,-91.39 124.3238,-93.7164 133.8548,-98.3435 134.66,-91.39"/>
</g>
<!-- Node42 -->
<g id="node5" class="node">
<title>Node42</title>
<g id="a_node5"><a xlink:href="classgame_1_1penguin_1_1_console_game.html#ac6ac2ce8f015a83682f7022c268c5efb" target="_top" xlink:title="game::penguin::ConsoleGame\l::ConsoleGame">
<polygon fill="none" stroke="#000000" points="160,-49.5 160,-79.5 324,-79.5 324,-49.5 160,-49.5"/>
<text text-anchor="start" x="168" y="-67.5" font-family="Helvetica,sans-Serif" font-size="10.00" fill="#000000">game::penguin::ConsoleGame</text>
<text text-anchor="middle" x="242" y="-56.5" font-family="Helvetica,sans-Serif" font-size="10.00" fill="#000000">::ConsoleGame</text>
</a>
</g>
</g>
<!-- Node38&#45;&gt;Node42 -->
<g id="edge5" class="edge">
<title>Node38&#45;&gt;Node42</title>
<path fill="none" stroke="#191970" d="M134.3028,-77.663C142.6907,-76.6378 151.2922,-75.5865 159.8,-74.5467"/>
<polygon fill="#191970" stroke="#191970" points="133.6993,-74.2106 124.1978,-78.898 134.5486,-81.1589 133.6993,-74.2106"/>
</g>
<!-- Node43 -->
<g id="node6" class="node">
<title>Node43</title>
<g id="a_node6"><a xlink:href="classgame_1_1penguin_1_1_print_hex.html#a87a58be4fea97f043e6dbe01a3045c1d" target="_top" xlink:title="game::penguin::PrintHex\l::print">
<polygon fill="none" stroke="#000000" points="173.5,-.5 173.5,-30.5 310.5,-30.5 310.5,-.5 173.5,-.5"/>
<text text-anchor="start" x="181.5" y="-18.5" font-family="Helvetica,sans-Serif" font-size="10.00" fill="#000000">game::penguin::PrintHex</text>
<text text-anchor="middle" x="242" y="-7.5" font-family="Helvetica,sans-Serif" font-size="10.00" fill="#000000">::print</text>
</a>
</g>
</g>
<!-- Node38&#45;&gt;Node43 -->
<g id="edge6" class="edge">
<title>Node38&#45;&gt;Node43</title>
<path fill="none" stroke="#191970" d="M99.2236,-66.8873C117.2708,-57.8361 139.4439,-47.3775 160,-39.5 168.3107,-36.3152 177.2301,-33.3049 186.0164,-30.5622"/>
<polygon fill="#191970" stroke="#191970" points="97.5256,-63.8241 90.1926,-71.4711 100.6938,-70.0661 97.5256,-63.8241"/>
</g>
<!-- Node39&#45;&gt;Node40 -->
<g id="edge2" class="edge">
<title>Node39&#45;&gt;Node40</title>
<path fill="none" stroke="#191970" d="M314.2365,-144.554C335.7238,-142.1904 359.0685,-139.6225 379.8535,-137.3361"/>
<polygon fill="#191970" stroke="#191970" points="313.7423,-141.0871 304.1849,-145.6597 314.5077,-148.0452 313.7423,-141.0871"/>
</g>
<!-- Node41 -->
<g id="node4" class="node">
<title>Node41</title>
<g id="a_node4"><a xlink:href="classgame_1_1penguin_1_1_print_hex.html#acdb07dd749d832db180a0f42040e33ed" target="_top" xlink:title="game::penguin::PrintHex\l::PrintHex">
<polygon fill="none" stroke="#000000" points="573.5,-115.5 573.5,-145.5 710.5,-145.5 710.5,-115.5 573.5,-115.5"/>
<text text-anchor="start" x="581.5" y="-133.5" font-family="Helvetica,sans-Serif" font-size="10.00" fill="#000000">game::penguin::PrintHex</text>
<text text-anchor="middle" x="642" y="-122.5" font-family="Helvetica,sans-Serif" font-size="10.00" fill="#000000">::PrintHex</text>
</a>
</g>
</g>
<!-- Node40&#45;&gt;Node41 -->
<g id="edge3" class="edge">
<title>Node40&#45;&gt;Node41</title>
<path fill="none" stroke="#191970" d="M514.3741,-130.5C533.5706,-130.5 554.241,-130.5 573.2391,-130.5"/>
<polygon fill="#191970" stroke="#191970" points="514.185,-127.0001 504.1849,-130.5 514.1849,-134.0001 514.185,-127.0001"/>
</g>
<!-- Node44 -->
<g id="node7" class="node">
<title>Node44</title>
<g id="a_node7"><a xlink:href="classgame_1_1penguin_1_1_console_game.html#a71c697742201f71b29327bf8554c2ef0" target="_top" xlink:title="game::penguin::ConsoleGame\l::draw">
<polygon fill="none" stroke="#000000" points="360,-.5 360,-30.5 524,-30.5 524,-.5 360,-.5"/>
<text text-anchor="start" x="368" y="-18.5" font-family="Helvetica,sans-Serif" font-size="10.00" fill="#000000">game::penguin::ConsoleGame</text>
<text text-anchor="middle" x="442" y="-7.5" font-family="Helvetica,sans-Serif" font-size="10.00" fill="#000000">::draw</text>
</a>
</g>
</g>
<!-- Node43&#45;&gt;Node44 -->
<g id="edge7" class="edge">
<title>Node43&#45;&gt;Node44</title>
<path fill="none" stroke="#191970" d="M320.706,-15.5C333.5233,-15.5 346.83,-15.5 359.7301,-15.5"/>
<polygon fill="#191970" stroke="#191970" points="320.5489,-12.0001 310.5488,-15.5 320.5488,-19.0001 320.5489,-12.0001"/>
</g>
<!-- Node45 -->
<g id="node8" class="node">
<title>Node45</title>
<g id="a_node8"><a xlink:href="classgame_1_1penguin_1_1_console_game.html#a56af132d8e3d16902fb46b7979d37eae" target="_top" xlink:title="Loop while the game is not finished, told by the isFinished method. ">
<polygon fill="none" stroke="#000000" points="560,-.5 560,-30.5 724,-30.5 724,-.5 560,-.5"/>
<text text-anchor="start" x="568" y="-18.5" font-family="Helvetica,sans-Serif" font-size="10.00" fill="#000000">game::penguin::ConsoleGame</text>
<text text-anchor="middle" x="642" y="-7.5" font-family="Helvetica,sans-Serif" font-size="10.00" fill="#000000">::loop</text>
</a>
</g>
</g>
<!-- Node44&#45;&gt;Node45 -->
<g id="edge8" class="edge">
<title>Node44&#45;&gt;Node45</title>
<path fill="none" stroke="#191970" d="M534.4658,-15.5C542.9136,-15.5 551.4335,-15.5 559.7826,-15.5"/>
<polygon fill="#191970" stroke="#191970" points="534.2135,-12.0001 524.2135,-15.5 534.2134,-19.0001 534.2135,-12.0001"/>
</g>
<!-- Node46 -->
<g id="node9" class="node">
<title>Node46</title>
<g id="a_node9"><a xlink:href="main_8cpp.html#a1dfeea39dabf076270426c94def1a2a2" target="_top" xlink:title="main">
<polygon fill="none" stroke="#000000" points="760,-6 760,-25 801,-25 801,-6 760,-6"/>
<text text-anchor="middle" x="780.5" y="-13" font-family="Helvetica,sans-Serif" font-size="10.00" fill="#000000">main</text>
</a>
</g>
</g>
<!-- Node45&#45;&gt;Node46 -->
<g id="edge9" class="edge">
<title>Node45&#45;&gt;Node46</title>
<path fill="none" stroke="#191970" d="M734.2725,-15.5C743.7768,-15.5 752.6282,-15.5 759.9893,-15.5"/>
<polygon fill="#191970" stroke="#191970" points="734.1668,-12.0001 724.1667,-15.5 734.1667,-19.0001 734.1668,-12.0001"/>
</g>
</g>
</svg>
