<?xml version="1.0" encoding="UTF-8" standalone="no"?>
<!DOCTYPE svg PUBLIC "-//W3C//DTD SVG 1.1//EN"
 "http://www.w3.org/Graphics/SVG/1.1/DTD/svg11.dtd">
<!-- Generated by graphviz version 2.40.1 (20161225.0304)
 -->
<!-- Title: Graphical Class Hierarchy Pages: 1 -->
<svg width="498pt" height="83pt"
 viewBox="0.00 0.00 498.00 83.00" xmlns="http://www.w3.org/2000/svg" xmlns:xlink="http://www.w3.org/1999/xlink">
<g id="graph0" class="graph" transform="scale(1 1) rotate(0) translate(4 79)">
<title>Graphical Class Hierarchy</title>
<!-- Node39 -->
<g id="node1" class="node">
<title>Node39</title>
<g id="a_node1"><a xlink:href="classgame_1_1_abstract_game.html" target="_top" xlink:title="game::AbstractGame\l\&lt; BoardCell, Player,\l Player \&gt;">
<polygon fill="none" stroke="#000000" points="0,-33.5 0,-74.5 120,-74.5 120,-33.5 0,-33.5"/>
<text text-anchor="start" x="8" y="-62.5" font-family="Helvetica,sans-Serif" font-size="10.00" fill="#000000">game::AbstractGame</text>
<text text-anchor="start" x="8" y="-51.5" font-family="Helvetica,sans-Serif" font-size="10.00" fill="#000000">&lt; BoardCell, Player,</text>
<text text-anchor="middle" x="60" y="-40.5" font-family="Helvetica,sans-Serif" font-size="10.00" fill="#000000"> Player &gt;</text>
</a>
</g>
</g>
<!-- Node40 -->
<g id="node2" class="node">
<title>Node40</title>
<g id="a_node2"><a xlink:href="classgame_1_1tic__tac__toe_1_1_tic_tac_toe.html" target="_top" xlink:title="game::tic_tac_toe::\lTicTacToe">
<polygon fill="none" stroke="#000000" points="168,-39 168,-69 278,-69 278,-39 168,-39"/>
<text text-anchor="start" x="176" y="-57" font-family="Helvetica,sans-Serif" font-size="10.00" fill="#000000">game::tic_tac_toe::</text>
<text text-anchor="middle" x="223" y="-46" font-family="Helvetica,sans-Serif" font-size="10.00" fill="#000000">TicTacToe</text>
</a>
</g>
</g>
<!-- Node39&#45;&gt;Node40 -->
<g id="edge1" class="edge">
<title>Node39&#45;&gt;Node40</title>
<path fill="none" stroke="#191970" d="M130.6027,-54C143.0771,-54 155.8983,-54 167.8689,-54"/>
<polygon fill="#191970" stroke="#191970" points="130.2321,-50.5001 120.2321,-54 130.232,-57.5001 130.2321,-50.5001"/>
</g>
<!-- Node2 -->
<g id="node3" class="node">
<title>Node2</title>
<g id="a_node3"><a xlink:href="classgame_1_1tic__tac__toe_1_1_console_game.html" target="_top" xlink:title="game::tic_tac_toe::\lConsoleGame">
<polygon fill="none" stroke="#000000" points="353,-39 353,-69 463,-69 463,-39 353,-39"/>
<text text-anchor="start" x="361" y="-57" font-family="Helvetica,sans-Serif" font-size="10.00" fill="#000000">game::tic_tac_toe::</text>
<text text-anchor="middle" x="408" y="-46" font-family="Helvetica,sans-Serif" font-size="10.00" fill="#000000">ConsoleGame</text>
</a>
</g>
</g>
<!-- Node40&#45;&gt;Node2 -->
<g id="edge2" class="edge">
<title>Node40&#45;&gt;Node2</title>
<path fill="none" stroke="#191970" d="M288.1921,-54C309.3296,-54 332.557,-54 352.8873,-54"/>
<polygon fill="#191970" stroke="#191970" points="288.0052,-50.5001 278.0052,-54 288.0052,-57.5001 288.0052,-50.5001"/>
</g>
<!-- Node0 -->
<g id="node4" class="node">
<title>Node0</title>
<g id="a_node4"><a xlink:href="classgame_1_1_abstract_interface.html" target="_top" xlink:title="game::AbstractInterface">
<polygon fill="none" stroke="#000000" points="156,-.5 156,-19.5 290,-19.5 290,-.5 156,-.5"/>
<text text-anchor="middle" x="223" y="-7.5" font-family="Helvetica,sans-Serif" font-size="10.00" fill="#000000">game::AbstractInterface</text>
</a>
</g>
</g>
<!-- Node0&#45;&gt;Node2 -->
<g id="edge4" class="edge">
<title>Node0&#45;&gt;Node2</title>
<path fill="none" stroke="#191970" d="M273.0216,-21.897C297.6939,-27.765 327.5166,-34.858 352.8482,-40.8828"/>
<polygon fill="#191970" stroke="#191970" points="273.6807,-18.4562 263.1422,-19.5473 272.061,-25.2663 273.6807,-18.4562"/>
</g>
<!-- Node1 -->
<g id="node5" class="node">
<title>Node1</title>
<g id="a_node5"><a xlink:href="classgame_1_1penguin_1_1_console_game.html" target="_top" xlink:title="game::penguin::ConsoleGame">
<polygon fill="none" stroke="#000000" points="326,-.5 326,-19.5 490,-19.5 490,-.5 326,-.5"/>
<text text-anchor="middle" x="408" y="-7.5" font-family="Helvetica,sans-Serif" font-size="10.00" fill="#000000">game::penguin::ConsoleGame</text>
</a>
</g>
</g>
<!-- Node0&#45;&gt;Node1 -->
<g id="edge3" class="edge">
<title>Node0&#45;&gt;Node1</title>
<path fill="none" stroke="#191970" d="M300.2193,-10C308.6423,-10 317.2392,-10 325.72,-10"/>
<polygon fill="#191970" stroke="#191970" points="300.0508,-6.5001 290.0508,-10 300.0508,-13.5001 300.0508,-6.5001"/>
</g>
</g>
</svg>
