<?xml version="1.0" encoding="UTF-8" standalone="no"?>
<!DOCTYPE svg PUBLIC "-//W3C//DTD SVG 1.1//EN"
 "http://www.w3.org/Graphics/SVG/1.1/DTD/svg11.dtd">
<!-- Generated by graphviz version 2.40.1 (20161225.0304)
 -->
<!-- Title: Graphical Class Hierarchy Pages: 1 -->
<svg width="328pt" height="78pt"
 viewBox="0.00 0.00 328.00 77.50" xmlns="http://www.w3.org/2000/svg" xmlns:xlink="http://www.w3.org/1999/xlink">
<g id="graph0" class="graph" transform="scale(1 1) rotate(0) translate(4 73.5)">
<title>Graphical Class Hierarchy</title>
<!-- Node32 -->
<g id="node1" class="node">
<title>Node32</title>
<g id="a_node1"><a xlink:href="classgame_1_1_abstract_pawn.html" target="_top" xlink:title="game::AbstractPawn\l\&lt; Player, BoardCell \&gt;">
<polygon fill="none" stroke="#000000" points="0,-39 0,-69 123,-69 123,-39 0,-39"/>
<text text-anchor="start" x="8" y="-57" font-family="Helvetica,sans-Serif" font-size="10.00" fill="#000000">game::AbstractPawn</text>
<text text-anchor="middle" x="61.5" y="-46" font-family="Helvetica,sans-Serif" font-size="10.00" fill="#000000">&lt; Player, BoardCell &gt;</text>
</a>
</g>
</g>
<!-- Node2 -->
<g id="node2" class="node">
<title>Node2</title>
<g id="a_node2"><a xlink:href="classgame_1_1tic__tac__toe_1_1_player.html" target="_top" xlink:title="game::tic_tac_toe::\lPlayer">
<polygon fill="none" stroke="#000000" points="184.5,-39 184.5,-69 294.5,-69 294.5,-39 184.5,-39"/>
<text text-anchor="start" x="192.5" y="-57" font-family="Helvetica,sans-Serif" font-size="10.00" fill="#000000">game::tic_tac_toe::</text>
<text text-anchor="middle" x="239.5" y="-46" font-family="Helvetica,sans-Serif" font-size="10.00" fill="#000000">Player</text>
</a>
</g>
</g>
<!-- Node32&#45;&gt;Node2 -->
<g id="edge1" class="edge">
<title>Node32&#45;&gt;Node2</title>
<path fill="none" stroke="#191970" d="M133.6625,-54C150.5876,-54 168.3558,-54 184.3968,-54"/>
<polygon fill="#191970" stroke="#191970" points="133.2562,-50.5001 123.2562,-54 133.2562,-57.5001 133.2562,-50.5001"/>
</g>
<!-- Node0 -->
<g id="node3" class="node">
<title>Node0</title>
<g id="a_node3"><a xlink:href="classgame_1_1_abstract_player.html" target="_top" xlink:title="game::AbstractPlayer">
<polygon fill="none" stroke="#000000" points=".5,-.5 .5,-19.5 122.5,-19.5 122.5,-.5 .5,-.5"/>
<text text-anchor="middle" x="61.5" y="-7.5" font-family="Helvetica,sans-Serif" font-size="10.00" fill="#000000">game::AbstractPlayer</text>
</a>
</g>
</g>
<!-- Node0&#45;&gt;Node2 -->
<g id="edge3" class="edge">
<title>Node0&#45;&gt;Node2</title>
<path fill="none" stroke="#191970" d="M110.0086,-21.9909C133.0156,-27.678 160.6106,-34.4993 184.4044,-40.3809"/>
<polygon fill="#191970" stroke="#191970" points="110.6711,-18.5494 100.1233,-19.5473 108.9912,-25.3448 110.6711,-18.5494"/>
</g>
<!-- Node1 -->
<g id="node4" class="node">
<title>Node1</title>
<g id="a_node4"><a xlink:href="classgame_1_1penguin_1_1_human_player.html" target="_top" xlink:title="game::penguin::HumanPlayer">
<polygon fill="none" stroke="#000000" points="159,-.5 159,-19.5 320,-19.5 320,-.5 159,-.5"/>
<text text-anchor="middle" x="239.5" y="-7.5" font-family="Helvetica,sans-Serif" font-size="10.00" fill="#000000">game::penguin::HumanPlayer</text>
</a>
</g>
</g>
<!-- Node0&#45;&gt;Node1 -->
<g id="edge2" class="edge">
<title>Node0&#45;&gt;Node1</title>
<path fill="none" stroke="#191970" d="M133.0286,-10C141.5578,-10 150.3099,-10 158.9546,-10"/>
<polygon fill="#191970" stroke="#191970" points="132.7575,-6.5001 122.7575,-10 132.7575,-13.5001 132.7575,-6.5001"/>
</g>
</g>
</svg>
