<?xml version="1.0" encoding="UTF-8" standalone="no"?>
<!DOCTYPE svg PUBLIC "-//W3C//DTD SVG 1.1//EN"
 "http://www.w3.org/Graphics/SVG/1.1/DTD/svg11.dtd">
<!-- Generated by graphviz version 2.40.1 (20161225.0304)
 -->
<!-- Title: Graphical Class Hierarchy Pages: 1 -->
<svg width="325pt" height="78pt"
 viewBox="0.00 0.00 325.00 77.50" xmlns="http://www.w3.org/2000/svg" xmlns:xlink="http://www.w3.org/1999/xlink">
<g id="graph0" class="graph" transform="scale(1 1) rotate(0) translate(4 73.5)">
<title>Graphical Class Hierarchy</title>
<!-- Node0 -->
<g id="node1" class="node">
<title>Node0</title>
<g id="a_node1"><a xlink:href="classgame_1_1_abstract_board_cell.html" target="_top" xlink:title="game::AbstractBoardCell">
<polygon fill="none" stroke="#000000" points="0,-28 0,-47 138,-47 138,-28 0,-28"/>
<text text-anchor="middle" x="69" y="-35" font-family="Helvetica,sans-Serif" font-size="10.00" fill="#000000">game::AbstractBoardCell</text>
</a>
</g>
</g>
<!-- Node1 -->
<g id="node2" class="node">
<title>Node1</title>
<g id="a_node2"><a xlink:href="classgame_1_1penguin_1_1_board_cell.html" target="_top" xlink:title="game::penguin::BoardCell">
<polygon fill="none" stroke="#000000" points="174,-50 174,-69 317,-69 317,-50 174,-50"/>
<text text-anchor="middle" x="245.5" y="-57" font-family="Helvetica,sans-Serif" font-size="10.00" fill="#000000">game::penguin::BoardCell</text>
</a>
</g>
</g>
<!-- Node0&#45;&gt;Node1 -->
<g id="edge1" class="edge">
<title>Node0&#45;&gt;Node1</title>
<path fill="none" stroke="#191970" d="M148.2021,-47.3722C156.7403,-48.4365 165.3927,-49.5149 173.8349,-50.5672"/>
<polygon fill="#191970" stroke="#191970" points="148.607,-43.8957 138.2509,-46.1318 147.7412,-50.8419 148.607,-43.8957"/>
</g>
<!-- Node2 -->
<g id="node3" class="node">
<title>Node2</title>
<g id="a_node3"><a xlink:href="classgame_1_1tic__tac__toe_1_1_board_cell.html" target="_top" xlink:title="game::tic_tac_toe::\lBoardCell">
<polygon fill="none" stroke="#000000" points="190.5,-.5 190.5,-30.5 300.5,-30.5 300.5,-.5 190.5,-.5"/>
<text text-anchor="start" x="198.5" y="-18.5" font-family="Helvetica,sans-Serif" font-size="10.00" fill="#000000">game::tic_tac_toe::</text>
<text text-anchor="middle" x="245.5" y="-7.5" font-family="Helvetica,sans-Serif" font-size="10.00" fill="#000000">BoardCell</text>
</a>
</g>
</g>
<!-- Node0&#45;&gt;Node2 -->
<g id="edge2" class="edge">
<title>Node0&#45;&gt;Node2</title>
<path fill="none" stroke="#191970" d="M148.476,-27.5936C162.621,-25.8305 177.0698,-24.0295 190.3492,-22.3743"/>
<polygon fill="#191970" stroke="#191970" points="147.7412,-24.1581 138.2509,-28.8682 148.607,-31.1043 147.7412,-24.1581"/>
</g>
</g>
</svg>
