<?xml version="1.0" encoding="UTF-8" standalone="no"?>
<!DOCTYPE svg PUBLIC "-//W3C//DTD SVG 1.1//EN"
 "http://www.w3.org/Graphics/SVG/1.1/DTD/svg11.dtd">
<!-- Generated by graphviz version 2.40.1 (20161225.0304)
 -->
<!-- Title: /workspace/src/main.cpp Pages: 1 -->
<svg width="901pt" height="330pt"
 viewBox="0.00 0.00 901.00 330.00" xmlns="http://www.w3.org/2000/svg" xmlns:xlink="http://www.w3.org/1999/xlink">
<g id="graph0" class="graph" transform="scale(1 1) rotate(0) translate(4 326)">
<title>/workspace/src/main.cpp</title>
<!-- Node0 -->
<g id="node1" class="node">
<title>Node0</title>
<polygon fill="#bfbfbf" stroke="#000000" points="333,-302.5 333,-321.5 470,-321.5 470,-302.5 333,-302.5"/>
<text text-anchor="middle" x="401.5" y="-309.5" font-family="Helvetica,sans-Serif" font-size="10.00" fill="#000000">/workspace/src/main.cpp</text>
</g>
<!-- Node1 -->
<g id="node2" class="node">
<title>Node1</title>
<polygon fill="none" stroke="#bfbfbf" points="175.5,-241 175.5,-260 225.5,-260 225.5,-241 175.5,-241"/>
<text text-anchor="middle" x="200.5" y="-248" font-family="Helvetica,sans-Serif" font-size="10.00" fill="#000000">cstring</text>
</g>
<!-- Node0&#45;&gt;Node1 -->
<g id="edge1" class="edge">
<title>Node0&#45;&gt;Node1</title>
<path fill="none" stroke="#191970" d="M359.7487,-302.4566C325.6152,-294.1901 276.3359,-281.1888 234.5,-266 232.865,-265.4064 231.1996,-264.7671 229.5279,-264.0983"/>
<polygon fill="#191970" stroke="#191970" points="230.6272,-260.762 220.0559,-260.0555 227.8793,-267.2001 230.6272,-260.762"/>
</g>
<!-- Node2 -->
<g id="node3" class="node">
<title>Node2</title>
<polygon fill="none" stroke="#bfbfbf" points="815.5,-123.5 815.5,-142.5 875.5,-142.5 875.5,-123.5 815.5,-123.5"/>
<text text-anchor="middle" x="845.5" y="-130.5" font-family="Helvetica,sans-Serif" font-size="10.00" fill="#000000">iostream</text>
</g>
<!-- Node0&#45;&gt;Node2 -->
<g id="edge2" class="edge">
<title>Node0&#45;&gt;Node2</title>
<path fill="none" stroke="#191970" d="M448.9816,-302.466C518.4078,-287.2705 650.3505,-253.5769 751.5,-199 778.6177,-184.3682 807.2475,-163.3528 825.6834,-148.9916"/>
<polygon fill="#191970" stroke="#191970" points="827.9474,-151.6636 833.629,-142.7209 823.6108,-146.1687 827.9474,-151.6636"/>
</g>
<!-- Node3 -->
<g id="node4" class="node">
<title>Node3</title>
<polygon fill="none" stroke="#bfbfbf" points="377.5,-241 377.5,-260 425.5,-260 425.5,-241 377.5,-241"/>
<text text-anchor="middle" x="401.5" y="-248" font-family="Helvetica,sans-Serif" font-size="10.00" fill="#000000">time.h</text>
</g>
<!-- Node0&#45;&gt;Node3 -->
<g id="edge3" class="edge">
<title>Node0&#45;&gt;Node3</title>
<path fill="none" stroke="#191970" d="M401.5,-302.3906C401.5,-293.8657 401.5,-281.1392 401.5,-270.4235"/>
<polygon fill="#191970" stroke="#191970" points="405.0001,-270.2448 401.5,-260.2449 398.0001,-270.2449 405.0001,-270.2448"/>
</g>
<!-- Node4 -->
<g id="node5" class="node">
<title>Node4</title>
<g id="a_node5"><a xlink:href="penguin_2_console_game_8hpp.html" target="_top" xlink:title="game_logic/penguin\l/ConsoleGame.hpp">
<polygon fill="none" stroke="#000000" points="244,-235.5 244,-265.5 359,-265.5 359,-235.5 244,-235.5"/>
<text text-anchor="start" x="252" y="-253.5" font-family="Helvetica,sans-Serif" font-size="10.00" fill="#000000">game_logic/penguin</text>
<text text-anchor="middle" x="301.5" y="-242.5" font-family="Helvetica,sans-Serif" font-size="10.00" fill="#000000">/ConsoleGame.hpp</text>
</a>
</g>
</g>
<!-- Node0&#45;&gt;Node4 -->
<g id="edge4" class="edge">
<title>Node0&#45;&gt;Node4</title>
<path fill="none" stroke="#191970" d="M385.875,-302.3906C372.2159,-293.9903 351.9232,-281.5103 334.6618,-270.8945"/>
<polygon fill="#191970" stroke="#191970" points="336.3143,-267.8019 325.9628,-265.5446 332.6473,-273.7646 336.3143,-267.8019"/>
</g>
<!-- Node15 -->
<g id="node16" class="node">
<title>Node15</title>
<g id="a_node16"><a xlink:href="tic__tac__toe_2_console_game_8hpp.html" target="_top" xlink:title="game_logic/tic_tac\l_toe/ConsoleGame.hpp">
<polygon fill="none" stroke="#000000" points="443.5,-235.5 443.5,-265.5 573.5,-265.5 573.5,-235.5 443.5,-235.5"/>
<text text-anchor="start" x="451.5" y="-253.5" font-family="Helvetica,sans-Serif" font-size="10.00" fill="#000000">game_logic/tic_tac</text>
<text text-anchor="middle" x="508.5" y="-242.5" font-family="Helvetica,sans-Serif" font-size="10.00" fill="#000000">_toe/ConsoleGame.hpp</text>
</a>
</g>
</g>
<!-- Node0&#45;&gt;Node15 -->
<g id="edge15" class="edge">
<title>Node0&#45;&gt;Node15</title>
<path fill="none" stroke="#191970" d="M418.2188,-302.3906C432.9681,-293.9132 454.9462,-281.2809 473.5244,-270.6028"/>
<polygon fill="#191970" stroke="#191970" points="475.399,-273.5623 482.3249,-265.5446 471.9108,-267.4933 475.399,-273.5623"/>
</g>
<!-- Node5 -->
<g id="node6" class="node">
<title>Node5</title>
<g id="a_node6"><a xlink:href="_abstract_interface_8hpp.html" target="_top" xlink:title="../AbstractInterface.hpp">
<polygon fill="none" stroke="#000000" points="300,-179.5 300,-198.5 431,-198.5 431,-179.5 300,-179.5"/>
<text text-anchor="middle" x="365.5" y="-186.5" font-family="Helvetica,sans-Serif" font-size="10.00" fill="#000000">../AbstractInterface.hpp</text>
</a>
</g>
</g>
<!-- Node4&#45;&gt;Node5 -->
<g id="edge5" class="edge">
<title>Node4&#45;&gt;Node5</title>
<path fill="none" stroke="#191970" d="M317.3202,-235.2977C326.5742,-226.4052 338.2781,-215.1586 347.833,-205.9769"/>
<polygon fill="#191970" stroke="#191970" points="350.4674,-208.2995 355.2528,-198.8469 345.6172,-203.2521 350.4674,-208.2995"/>
</g>
<!-- Node6 -->
<g id="node7" class="node">
<title>Node6</title>
<g id="a_node7"><a xlink:href="_penguin_game_8hpp.html" target="_top" xlink:title="PenguinGame.hpp">
<polygon fill="none" stroke="#000000" points="175.5,-179.5 175.5,-198.5 281.5,-198.5 281.5,-179.5 175.5,-179.5"/>
<text text-anchor="middle" x="228.5" y="-186.5" font-family="Helvetica,sans-Serif" font-size="10.00" fill="#000000">PenguinGame.hpp</text>
</a>
</g>
</g>
<!-- Node4&#45;&gt;Node6 -->
<g id="edge6" class="edge">
<title>Node4&#45;&gt;Node6</title>
<path fill="none" stroke="#191970" d="M283.4551,-235.2977C272.6886,-226.2274 259.0149,-214.7077 248.0005,-205.4285"/>
<polygon fill="#191970" stroke="#191970" points="250.0911,-202.6132 240.1882,-198.8469 245.5809,-207.9667 250.0911,-202.6132"/>
</g>
<!-- Node11 -->
<g id="node12" class="node">
<title>Node11</title>
<g id="a_node12"><a xlink:href="_print_hex_8hpp.html" target="_top" xlink:title="PrintHex.hpp">
<polygon fill="none" stroke="#000000" points="72.5,-179.5 72.5,-198.5 152.5,-198.5 152.5,-179.5 72.5,-179.5"/>
<text text-anchor="middle" x="112.5" y="-186.5" font-family="Helvetica,sans-Serif" font-size="10.00" fill="#000000">PrintHex.hpp</text>
</a>
</g>
</g>
<!-- Node4&#45;&gt;Node11 -->
<g id="edge11" class="edge">
<title>Node4&#45;&gt;Node11</title>
<path fill="none" stroke="#191970" d="M255.2654,-235.4554C223.4536,-225.104 181.667,-211.5067 151.5306,-201.7004"/>
<polygon fill="#191970" stroke="#191970" points="152.3805,-198.2964 141.7883,-198.5303 150.2145,-204.9529 152.3805,-198.2964"/>
</g>
<!-- Node7 -->
<g id="node8" class="node">
<title>Node7</title>
<polygon fill="none" stroke="#bfbfbf" points="182.5,-123.5 182.5,-142.5 226.5,-142.5 226.5,-123.5 182.5,-123.5"/>
<text text-anchor="middle" x="204.5" y="-130.5" font-family="Helvetica,sans-Serif" font-size="10.00" fill="#000000">limits</text>
</g>
<!-- Node6&#45;&gt;Node7 -->
<g id="edge7" class="edge">
<title>Node6&#45;&gt;Node7</title>
<path fill="none" stroke="#191970" d="M224.3195,-179.2455C221.119,-171.7776 216.604,-161.2427 212.6916,-152.1137"/>
<polygon fill="#191970" stroke="#191970" points="215.7888,-150.4554 208.6326,-142.6427 209.3548,-153.2129 215.7888,-150.4554"/>
</g>
<!-- Node8 -->
<g id="node9" class="node">
<title>Node8</title>
<g id="a_node9"><a xlink:href="_abstract_game_8hpp.html" target="_top" xlink:title="../AbstractGame.hpp">
<polygon fill="none" stroke="#000000" points="228.5,-62 228.5,-81 344.5,-81 344.5,-62 228.5,-62"/>
<text text-anchor="middle" x="286.5" y="-69" font-family="Helvetica,sans-Serif" font-size="10.00" fill="#000000">../AbstractGame.hpp</text>
</a>
</g>
</g>
<!-- Node6&#45;&gt;Node8 -->
<g id="edge8" class="edge">
<title>Node6&#45;&gt;Node8</title>
<path fill="none" stroke="#191970" d="M281.6634,-179.7302C302.7302,-173.1702 324.8965,-161.9987 337.5,-143 350.5693,-123.299 329.0975,-101.2333 310.132,-86.8946"/>
<polygon fill="#191970" stroke="#191970" points="312.1652,-84.0458 301.997,-81.0694 308.0898,-89.7371 312.1652,-84.0458"/>
</g>
<!-- Node9 -->
<g id="node10" class="node">
<title>Node9</title>
<polygon fill="none" stroke="#bfbfbf" points="306,-.5 306,-19.5 353,-19.5 353,-.5 306,-.5"/>
<text text-anchor="middle" x="329.5" y="-7.5" font-family="Helvetica,sans-Serif" font-size="10.00" fill="#000000">vector</text>
</g>
<!-- Node8&#45;&gt;Node9 -->
<g id="edge9" class="edge">
<title>Node8&#45;&gt;Node9</title>
<path fill="none" stroke="#191970" d="M293.2188,-61.8906C299.493,-52.917 309.0223,-39.2879 316.7404,-28.2491"/>
<polygon fill="#191970" stroke="#191970" points="319.8247,-29.9459 322.6865,-19.7449 314.0879,-25.9348 319.8247,-29.9459"/>
</g>
<!-- Node10 -->
<g id="node11" class="node">
<title>Node10</title>
<g id="a_node11"><a xlink:href="_move_8hpp.html" target="_top" xlink:title="utils/Move.hpp">
<polygon fill="none" stroke="#000000" points="199.5,-.5 199.5,-19.5 287.5,-19.5 287.5,-.5 199.5,-.5"/>
<text text-anchor="middle" x="243.5" y="-7.5" font-family="Helvetica,sans-Serif" font-size="10.00" fill="#000000">utils/Move.hpp</text>
</a>
</g>
</g>
<!-- Node8&#45;&gt;Node10 -->
<g id="edge10" class="edge">
<title>Node8&#45;&gt;Node10</title>
<path fill="none" stroke="#191970" d="M279.7813,-61.8906C273.507,-52.917 263.9777,-39.2879 256.2596,-28.2491"/>
<polygon fill="#191970" stroke="#191970" points="258.9121,-25.9348 250.3135,-19.7449 253.1753,-29.9459 258.9121,-25.9348"/>
</g>
<!-- Node12 -->
<g id="node13" class="node">
<title>Node12</title>
<g id="a_node13"><a xlink:href="_position_8hpp.html" target="_top" xlink:title="../utils/Position.hpp">
<polygon fill="none" stroke="#000000" points="54.5,-123.5 54.5,-142.5 164.5,-142.5 164.5,-123.5 54.5,-123.5"/>
<text text-anchor="middle" x="109.5" y="-130.5" font-family="Helvetica,sans-Serif" font-size="10.00" fill="#000000">../utils/Position.hpp</text>
</a>
</g>
</g>
<!-- Node11&#45;&gt;Node12 -->
<g id="edge12" class="edge">
<title>Node11&#45;&gt;Node12</title>
<path fill="none" stroke="#191970" d="M111.9774,-179.2455C111.586,-171.9382 111.0372,-161.6944 110.5556,-152.7046"/>
<polygon fill="#191970" stroke="#191970" points="114.0466,-152.4411 110.0166,-142.6427 107.0566,-152.8156 114.0466,-152.4411"/>
</g>
<!-- Node13 -->
<g id="node14" class="node">
<title>Node13</title>
<polygon fill="none" stroke="#bfbfbf" points="0,-62 0,-81 53,-81 53,-62 0,-62"/>
<text text-anchor="middle" x="26.5" y="-69" font-family="Helvetica,sans-Serif" font-size="10.00" fill="#000000">stdlib.h</text>
</g>
<!-- Node12&#45;&gt;Node13 -->
<g id="edge13" class="edge">
<title>Node12&#45;&gt;Node13</title>
<path fill="none" stroke="#191970" d="M96.5313,-123.3906C83.4966,-113.7324 63.1836,-98.6812 47.7845,-87.271"/>
<polygon fill="#191970" stroke="#191970" points="49.4961,-84.1832 39.3777,-81.0419 45.3287,-89.8075 49.4961,-84.1832"/>
</g>
<!-- Node14 -->
<g id="node15" class="node">
<title>Node14</title>
<polygon fill="none" stroke="#bfbfbf" points="71,-62 71,-81 164,-81 164,-62 71,-62"/>
<text text-anchor="middle" x="117.5" y="-69" font-family="Helvetica,sans-Serif" font-size="10.00" fill="#000000">unordered_map</text>
</g>
<!-- Node12&#45;&gt;Node14 -->
<g id="edge14" class="edge">
<title>Node12&#45;&gt;Node14</title>
<path fill="none" stroke="#191970" d="M110.75,-123.3906C111.8589,-114.8657 113.5144,-102.1392 114.9083,-91.4235"/>
<polygon fill="#191970" stroke="#191970" points="118.4131,-91.6128 116.2324,-81.2449 111.4716,-90.7098 118.4131,-91.6128"/>
</g>
<!-- Node15&#45;&gt;Node5 -->
<g id="edge16" class="edge">
<title>Node15&#45;&gt;Node5</title>
<path fill="none" stroke="#191970" d="M473.5183,-235.4554C450.1816,-225.419 419.7502,-212.3314 397.137,-202.6061"/>
<polygon fill="#191970" stroke="#191970" points="398.2292,-199.2659 387.6599,-198.5303 395.4636,-205.6965 398.2292,-199.2659"/>
</g>
<!-- Node16 -->
<g id="node17" class="node">
<title>Node16</title>
<g id="a_node17"><a xlink:href="_tic_tac_toe_8hpp.html" target="_top" xlink:title="TicTacToe.hpp">
<polygon fill="none" stroke="#000000" points="244.5,-123.5 244.5,-142.5 328.5,-142.5 328.5,-123.5 244.5,-123.5"/>
<text text-anchor="middle" x="286.5" y="-130.5" font-family="Helvetica,sans-Serif" font-size="10.00" fill="#000000">TicTacToe.hpp</text>
</a>
</g>
</g>
<!-- Node15&#45;&gt;Node16 -->
<g id="edge17" class="edge">
<title>Node15&#45;&gt;Node16</title>
<path fill="none" stroke="#191970" d="M497.7543,-235.4371C485.4407,-219.2386 463.8013,-193.8199 439.5,-179 408.7564,-160.2514 369.8466,-148.6884 338.9596,-141.8448"/>
<polygon fill="#191970" stroke="#191970" points="339.3234,-138.3445 328.8158,-139.7013 337.8761,-145.1932 339.3234,-138.3445"/>
</g>
<!-- Node17 -->
<g id="node18" class="node">
<title>Node17</title>
<g id="a_node18"><a xlink:href="_player_8hpp.html" target="_top" xlink:title="Player.hpp">
<polygon fill="none" stroke="#000000" points="674.5,-179.5 674.5,-198.5 742.5,-198.5 742.5,-179.5 674.5,-179.5"/>
<text text-anchor="middle" x="708.5" y="-186.5" font-family="Helvetica,sans-Serif" font-size="10.00" fill="#000000">Player.hpp</text>
</a>
</g>
</g>
<!-- Node15&#45;&gt;Node17 -->
<g id="edge20" class="edge">
<title>Node15&#45;&gt;Node17</title>
<path fill="none" stroke="#191970" d="M557.4255,-235.4554C591.2351,-225.059 635.6921,-211.3884 667.613,-201.5727"/>
<polygon fill="#191970" stroke="#191970" points="668.9775,-204.815 677.5071,-198.5303 666.9201,-198.1242 668.9775,-204.815"/>
</g>
<!-- Node20 -->
<g id="node21" class="node">
<title>Node20</title>
<g id="a_node21"><a xlink:href="_m_c_t_s_player_8hpp.html" target="_top" xlink:title="../../mcts/MCTSPlayer.hpp">
<polygon fill="none" stroke="#000000" points="487.5,-179.5 487.5,-198.5 627.5,-198.5 627.5,-179.5 487.5,-179.5"/>
<text text-anchor="middle" x="557.5" y="-186.5" font-family="Helvetica,sans-Serif" font-size="10.00" fill="#000000">../../mcts/MCTSPlayer.hpp</text>
</a>
</g>
</g>
<!-- Node15&#45;&gt;Node20 -->
<g id="edge24" class="edge">
<title>Node15&#45;&gt;Node20</title>
<path fill="none" stroke="#191970" d="M520.6124,-235.2977C527.4849,-226.672 536.1223,-215.8312 543.311,-206.8087"/>
<polygon fill="#191970" stroke="#191970" points="546.1604,-208.849 549.6545,-198.8469 540.6856,-204.487 546.1604,-208.849"/>
</g>
<!-- Node16&#45;&gt;Node8 -->
<g id="edge19" class="edge">
<title>Node16&#45;&gt;Node8</title>
<path fill="none" stroke="#191970" d="M286.5,-123.3906C286.5,-114.8657 286.5,-102.1392 286.5,-91.4235"/>
<polygon fill="#191970" stroke="#191970" points="290.0001,-91.2448 286.5,-81.2449 283.0001,-91.2449 290.0001,-91.2448"/>
</g>
<!-- Node16&#45;&gt;Node10 -->
<g id="edge18" class="edge">
<title>Node16&#45;&gt;Node10</title>
<path fill="none" stroke="#191970" d="M262.0288,-123.3462C246.7893,-115.9011 228.4388,-103.9799 219.5,-87 209.5218,-68.0457 220.0388,-44.2488 230.1197,-28.1651"/>
<polygon fill="#191970" stroke="#191970" points="233.1524,-29.9281 235.8465,-19.6815 227.3506,-26.0116 233.1524,-29.9281"/>
</g>
<!-- Node17&#45;&gt;Node2 -->
<g id="edge21" class="edge">
<title>Node17&#45;&gt;Node2</title>
<path fill="none" stroke="#191970" d="M732.0511,-179.3733C754.3391,-170.2629 787.9937,-156.5062 812.8637,-146.3404"/>
<polygon fill="#191970" stroke="#191970" points="814.3239,-149.5247 822.2562,-142.5011 811.6753,-143.0451 814.3239,-149.5247"/>
</g>
<!-- Node18 -->
<g id="node19" class="node">
<title>Node18</title>
<g id="a_node19"><a xlink:href="_abstract_player_8hpp.html" target="_top" xlink:title="../AbstractPlayer.hpp">
<polygon fill="none" stroke="#000000" points="776,-62 776,-81 893,-81 893,-62 776,-62"/>
<text text-anchor="middle" x="834.5" y="-69" font-family="Helvetica,sans-Serif" font-size="10.00" fill="#000000">../AbstractPlayer.hpp</text>
</a>
</g>
</g>
<!-- Node17&#45;&gt;Node18 -->
<g id="edge22" class="edge">
<title>Node17&#45;&gt;Node18</title>
<path fill="none" stroke="#191970" d="M697.441,-179.4886C683.2813,-166.1464 662.0881,-141.442 675.5,-123 682.3621,-113.5643 743.3618,-95.6569 787.765,-83.6472"/>
<polygon fill="#191970" stroke="#191970" points="788.7723,-87.0008 797.5243,-81.0297 786.9589,-80.2398 788.7723,-87.0008"/>
</g>
<!-- Node19 -->
<g id="node20" class="node">
<title>Node19</title>
<g id="a_node20"><a xlink:href="_abstract_pawn_8hpp.html" target="_top" xlink:title="../AbstractPawn.hpp">
<polygon fill="none" stroke="#000000" points="684,-123.5 684,-142.5 797,-142.5 797,-123.5 684,-123.5"/>
<text text-anchor="middle" x="740.5" y="-130.5" font-family="Helvetica,sans-Serif" font-size="10.00" fill="#000000">../AbstractPawn.hpp</text>
</a>
</g>
</g>
<!-- Node17&#45;&gt;Node19 -->
<g id="edge23" class="edge">
<title>Node17&#45;&gt;Node19</title>
<path fill="none" stroke="#191970" d="M714.074,-179.2455C718.4331,-171.617 724.6211,-160.7881 729.9133,-151.5267"/>
<polygon fill="#191970" stroke="#191970" points="733.0673,-153.0616 734.9899,-142.6427 726.9896,-149.5886 733.0673,-153.0616"/>
</g>
<!-- Node20&#45;&gt;Node8 -->
<g id="edge26" class="edge">
<title>Node20&#45;&gt;Node8</title>
<path fill="none" stroke="#191970" d="M535.3229,-179.3845C487.2646,-158.5474 373.3878,-109.1728 317.9334,-85.1289"/>
<polygon fill="#191970" stroke="#191970" points="319.1705,-81.8505 308.6034,-81.0836 316.3859,-88.2728 319.1705,-81.8505"/>
</g>
<!-- Node20&#45;&gt;Node18 -->
<g id="edge27" class="edge">
<title>Node20&#45;&gt;Node18</title>
<path fill="none" stroke="#191970" d="M571.0066,-179.3054C591.0329,-165.2908 630.1562,-139.2718 666.5,-123 704.5123,-105.9812 749.7609,-92.4677 783.7167,-83.561"/>
<polygon fill="#191970" stroke="#191970" points="784.6143,-86.9441 793.4244,-81.0591 782.8673,-80.1656 784.6143,-86.9441"/>
</g>
<!-- Node21 -->
<g id="node22" class="node">
<title>Node21</title>
<g id="a_node22"><a xlink:href="_abstract_board_cell_8hpp.html" target="_top" xlink:title="../game_logic/AbstractBoard\lCell.hpp">
<polygon fill="none" stroke="#000000" points="362.5,-56.5 362.5,-86.5 516.5,-86.5 516.5,-56.5 362.5,-56.5"/>
<text text-anchor="start" x="370.5" y="-74.5" font-family="Helvetica,sans-Serif" font-size="10.00" fill="#000000">../game_logic/AbstractBoard</text>
<text text-anchor="middle" x="439.5" y="-63.5" font-family="Helvetica,sans-Serif" font-size="10.00" fill="#000000">Cell.hpp</text>
</a>
</g>
</g>
<!-- Node20&#45;&gt;Node21 -->
<g id="edge25" class="edge">
<title>Node20&#45;&gt;Node21</title>
<path fill="none" stroke="#191970" d="M547.8436,-179.3845C529.2073,-160.8272 487.8404,-119.6355 461.9553,-93.8601"/>
<polygon fill="#191970" stroke="#191970" points="464.3348,-91.2902 454.7791,-86.7143 459.3955,-96.2505 464.3348,-91.2902"/>
</g>
<!-- Node22 -->
<g id="node23" class="node">
<title>Node22</title>
<g id="a_node23"><a xlink:href="_tree_8hpp.html" target="_top" xlink:title="Tree.hpp">
<polygon fill="none" stroke="#000000" points="531.5,-123.5 531.5,-142.5 589.5,-142.5 589.5,-123.5 531.5,-123.5"/>
<text text-anchor="middle" x="560.5" y="-130.5" font-family="Helvetica,sans-Serif" font-size="10.00" fill="#000000">Tree.hpp</text>
</a>
</g>
</g>
<!-- Node20&#45;&gt;Node22 -->
<g id="edge28" class="edge">
<title>Node20&#45;&gt;Node22</title>
<path fill="none" stroke="#191970" d="M558.0226,-179.2455C558.414,-171.9382 558.9628,-161.6944 559.4444,-152.7046"/>
<polygon fill="#191970" stroke="#191970" points="562.9434,-152.8156 559.9834,-142.6427 555.9534,-152.4411 562.9434,-152.8156"/>
</g>
<!-- Node22&#45;&gt;Node8 -->
<g id="edge33" class="edge">
<title>Node22&#45;&gt;Node8</title>
<path fill="none" stroke="#191970" d="M531.3435,-126.6043C491.254,-117.7913 416.868,-101.3705 353.5,-87 348.2604,-85.8118 342.7926,-84.5624 337.3388,-83.31"/>
<polygon fill="#191970" stroke="#191970" points="338.1196,-79.8982 327.5892,-81.065 336.5488,-86.7197 338.1196,-79.8982"/>
</g>
<!-- Node22&#45;&gt;Node10 -->
<g id="edge35" class="edge">
<title>Node22&#45;&gt;Node10</title>
<path fill="none" stroke="#191970" d="M589.7703,-126.9922C635.6047,-117.2935 719.9932,-98.1492 728.5,-87 736.8575,-76.0465 737.8291,-66.1388 728.5,-56 697.4786,-22.2859 377.8102,-25.9945 298.0122,-19.7399"/>
<polygon fill="#191970" stroke="#191970" points="297.9933,-16.22 287.6908,-18.6915 297.2859,-23.1842 297.9933,-16.22"/>
</g>
<!-- Node22&#45;&gt;Node18 -->
<g id="edge32" class="edge">
<title>Node22&#45;&gt;Node18</title>
<path fill="none" stroke="#191970" d="M589.6359,-126.1863C594.272,-125.113 599.0161,-124.0212 603.5,-123 664.3385,-109.1443 734.2828,-93.6051 781.1223,-83.2552"/>
<polygon fill="#191970" stroke="#191970" points="782.037,-86.6376 791.0469,-81.0634 780.5274,-79.8023 782.037,-86.6376"/>
</g>
<!-- Node22&#45;&gt;Node21 -->
<g id="edge34" class="edge">
<title>Node22&#45;&gt;Node21</title>
<path fill="none" stroke="#191970" d="M541.5938,-123.3906C524.6872,-114.7976 499.3815,-101.9356 478.1946,-91.1671"/>
<polygon fill="#191970" stroke="#191970" points="479.6004,-87.9555 469.0999,-86.5446 476.4287,-94.1957 479.6004,-87.9555"/>
</g>
<!-- Node23 -->
<g id="node24" class="node">
<title>Node23</title>
<polygon fill="none" stroke="#bfbfbf" points="669.5,-62 669.5,-81 719.5,-81 719.5,-62 669.5,-62"/>
<text text-anchor="middle" x="694.5" y="-69" font-family="Helvetica,sans-Serif" font-size="10.00" fill="#000000">chrono</text>
</g>
<!-- Node22&#45;&gt;Node23 -->
<g id="edge29" class="edge">
<title>Node22&#45;&gt;Node23</title>
<path fill="none" stroke="#191970" d="M581.4375,-123.3906C603.7598,-113.1457 639.3037,-96.8326 664.5757,-85.2339"/>
<polygon fill="#191970" stroke="#191970" points="666.081,-88.3942 673.7095,-81.0419 663.1611,-82.0322 666.081,-88.3942"/>
</g>
<!-- Node24 -->
<g id="node25" class="node">
<title>Node24</title>
<polygon fill="none" stroke="#bfbfbf" points="535,-62 535,-81 586,-81 586,-62 535,-62"/>
<text text-anchor="middle" x="560.5" y="-69" font-family="Helvetica,sans-Serif" font-size="10.00" fill="#000000">math.h</text>
</g>
<!-- Node22&#45;&gt;Node24 -->
<g id="edge30" class="edge">
<title>Node22&#45;&gt;Node24</title>
<path fill="none" stroke="#191970" d="M560.5,-123.3906C560.5,-114.8657 560.5,-102.1392 560.5,-91.4235"/>
<polygon fill="#191970" stroke="#191970" points="564.0001,-91.2448 560.5,-81.2449 557.0001,-91.2449 564.0001,-91.2448"/>
</g>
<!-- Node25 -->
<g id="node26" class="node">
<title>Node25</title>
<polygon fill="none" stroke="#bfbfbf" points="604,-62 604,-81 651,-81 651,-62 604,-62"/>
<text text-anchor="middle" x="627.5" y="-69" font-family="Helvetica,sans-Serif" font-size="10.00" fill="#000000">queue</text>
</g>
<!-- Node22&#45;&gt;Node25 -->
<g id="edge31" class="edge">
<title>Node22&#45;&gt;Node25</title>
<path fill="none" stroke="#191970" d="M570.9688,-123.3906C581.2337,-113.9683 597.0903,-99.4134 609.4006,-88.1137"/>
<polygon fill="#191970" stroke="#191970" points="611.8834,-90.5856 616.8837,-81.2449 607.1499,-85.4287 611.8834,-90.5856"/>
</g>
</g>
</svg>
