<?xml version="1.0" encoding="UTF-8" standalone="no"?>
<!DOCTYPE svg PUBLIC "-//W3C//DTD SVG 1.1//EN"
 "http://www.w3.org/Graphics/SVG/1.1/DTD/svg11.dtd">
<!-- Generated by graphviz version 2.40.1 (20161225.0304)
 -->
<!-- Title: dbg::pretty_print Pages: 1 -->
<svg width="240pt" height="66pt"
 viewBox="0.00 0.00 240.00 66.00" xmlns="http://www.w3.org/2000/svg" xmlns:xlink="http://www.w3.org/1999/xlink">
<g id="graph0" class="graph" transform="scale(1 1) rotate(0) translate(4 62)">
<title>dbg::pretty_print</title>
<!-- Node80 -->
<g id="node1" class="node">
<title>Node80</title>
<polygon fill="#bfbfbf" stroke="#000000" points="0,-19.5 0,-38.5 98,-38.5 98,-19.5 0,-19.5"/>
<text text-anchor="middle" x="49" y="-26.5" font-family="Helvetica,sans-Serif" font-size="10.00" fill="#000000">dbg::pretty_print</text>
</g>
<!-- Node81 -->
<g id="node2" class="node">
<title>Node81</title>
<g id="a_node2"><a xlink:href="namespacedbg.html#a4ba5b016ce65b09fef3935a945310904" target="_top" xlink:title="dbg::pretty_print">
<polygon fill="none" stroke="#000000" points="134,-38.5 134,-57.5 232,-57.5 232,-38.5 134,-38.5"/>
<text text-anchor="middle" x="183" y="-45.5" font-family="Helvetica,sans-Serif" font-size="10.00" fill="#000000">dbg::pretty_print</text>
</a>
</g>
</g>
<!-- Node80&#45;&gt;Node81 -->
<g id="edge1" class="edge">
<title>Node80&#45;&gt;Node81</title>
<path fill="none" stroke="#191970" d="M98.1358,-35.967C106.5109,-37.1545 115.2877,-38.399 123.8887,-39.6186"/>
<polygon fill="#191970" stroke="#191970" points="123.4778,-43.0952 133.8702,-41.0338 124.4606,-36.1645 123.4778,-43.0952"/>
</g>
<!-- Node82 -->
<g id="node3" class="node">
<title>Node82</title>
<g id="a_node3"><a xlink:href="namespacedbg.html#a2365d80e3a3525e6025040383ff8661b" target="_top" xlink:title="dbg::type">
<polygon fill="none" stroke="#000000" points="152,-.5 152,-19.5 214,-19.5 214,-.5 152,-.5"/>
<text text-anchor="middle" x="183" y="-7.5" font-family="Helvetica,sans-Serif" font-size="10.00" fill="#000000">dbg::type</text>
</a>
</g>
</g>
<!-- Node80&#45;&gt;Node82 -->
<g id="edge2" class="edge">
<title>Node80&#45;&gt;Node82</title>
<path fill="none" stroke="#191970" d="M98.1358,-22.033C112.4211,-20.0075 127.8752,-17.8162 141.6318,-15.8656"/>
<polygon fill="#191970" stroke="#191970" points="142.3636,-19.297 151.7732,-14.4277 141.3808,-12.3663 142.3636,-19.297"/>
</g>
</g>
</svg>
