<?xml version="1.0" encoding="UTF-8" standalone="no"?>
<!DOCTYPE svg PUBLIC "-//W3C//DTD SVG 1.1//EN"
 "http://www.w3.org/Graphics/SVG/1.1/DTD/svg11.dtd">
<!-- Generated by graphviz version 2.40.1 (20161225.0304)
 -->
<!-- Title: /workspace/src/game_logic/penguin/Board.cpp Pages: 1 -->
<!--zoomable 263 -->
<svg id="main" version="1.1" xmlns="http://www.w3.org/2000/svg" xmlns:xlink="http://www.w3.org/1999/xlink" xml:space="preserve" onload="init(evt)">
<style type="text/css"><![CDATA[
.edge:hover path { stroke: red; }
.edge:hover polygon { stroke: red; fill: red; }
]]></style>
<script type="text/javascript"><![CDATA[
var edges = document.getElementsByTagName('g');
if (edges && edges.length) {
  for (var i=0;i<edges.length;i++) {
    if (edges[i].id.substr(0,4)=='edge') {
      edges[i].setAttribute('class','edge');
    }
  }
}
]]></script>
        <defs>
                <circle id="rim" cx="0" cy="0" r="7"/>
                <circle id="rim2" cx="0" cy="0" r="3.5"/>
                <g id="zoomPlus">
                        <use xlink:href="#rim" fill="#404040">
                                <set attributeName="fill" to="#808080" begin="zoomplus.mouseover" end="zoomplus.mouseout"/>
                        </use>
                        <path d="M-4,0h8M0,-4v8" fill="none" stroke="white" stroke-width="1.5" pointer-events="none"/>
                </g>
                <g id="zoomMin">
                        <use xlink:href="#rim" fill="#404040">
                                <set attributeName="fill" to="#808080" begin="zoomminus.mouseover" end="zoomminus.mouseout"/>
                        </use>
                        <path d="M-4,0h8" fill="none" stroke="white" stroke-width="1.5" pointer-events="none"/>
                </g>
                <g id="dirArrow">
                        <path fill="none" stroke="white" stroke-width="1.5" d="M0,-3.0v7 M-2.5,-0.5L0,-3.0L2.5,-0.5"/>
                </g>
               <g id="resetDef">
                       <use xlink:href="#rim2" fill="#404040">
                               <set attributeName="fill" to="#808080" begin="reset.mouseover" end="reset.mouseout"/>
                       </use>
               </g>
        </defs>

<script type="text/javascript">
var viewWidth = 952;
var viewHeight = 263;
var sectionId = 'dynsection-0';
</script>
<script xlink:href="svgpan.js"/>
<svg id="graph" class="graph">
<g id="viewport">
<title>/workspace/src/game_logic/penguin/Board.cpp</title>
<!-- Node0 -->
<g id="node1" class="node">
<title>Node0</title>
<polygon fill="#bfbfbf" stroke="#000000" points="324.5,-224.5 324.5,-254.5 463.5,-254.5 463.5,-224.5 324.5,-224.5"/>
<text text-anchor="start" x="332.5" y="-242.5" font-family="Helvetica,sans-Serif" font-size="10.00" fill="#000000">/workspace/src/game</text>
<text text-anchor="middle" x="394" y="-231.5" font-family="Helvetica,sans-Serif" font-size="10.00" fill="#000000">_logic/penguin/Board.cpp</text>
</g>
<!-- Node1 -->
<g id="node2" class="node">
<title>Node1</title>
<polygon fill="none" stroke="#bfbfbf" points="0,-168.5 0,-187.5 56,-187.5 56,-168.5 0,-168.5"/>
<text text-anchor="middle" x="28" y="-175.5" font-family="Helvetica,sans-Serif" font-size="10.00" fill="#000000">assert.h</text>
</g>
<!-- Node0&#45;&gt;Node1 -->
<g id="edge1" class="edge">
<title>Node0&#45;&gt;Node1</title>
<path fill="none" stroke="#191970" d="M324.2795,-230.8252C259.6933,-222.2806 160.8214,-207.9119 66.2298,-188.0871"/>
<polygon fill="#191970" stroke="#191970" points="66.7134,-184.6119 56.205,-185.9619 65.2617,-191.4598 66.7134,-184.6119"/>
</g>
<!-- Node2 -->
<g id="node3" class="node">
<title>Node2</title>
<polygon fill="none" stroke="#bfbfbf" points="74,-168.5 74,-187.5 138,-187.5 138,-168.5 74,-168.5"/>
<text text-anchor="middle" x="106" y="-175.5" font-family="Helvetica,sans-Serif" font-size="10.00" fill="#000000">algorithm</text>
</g>
<!-- Node0&#45;&gt;Node2 -->
<g id="edge2" class="edge">
<title>Node0&#45;&gt;Node2</title>
<path fill="none" stroke="#191970" d="M324.3949,-225.6385C277.2548,-216.0997 213.3173,-202.8702 148.2348,-188.229"/>
<polygon fill="#191970" stroke="#191970" points="148.7303,-184.7528 138.2048,-185.9633 147.1879,-191.5808 148.7303,-184.7528"/>
</g>
<!-- Node3 -->
<g id="node4" class="node">
<title>Node3</title>
<g id="a_node4"><a xlink:href="_abstract_board_8hpp.html" target="_top" xlink:title="../AbstractBoard.hpp">
<polygon fill="none" stroke="#000000" points="237,-112.5 237,-131.5 353,-131.5 353,-112.5 237,-112.5"/>
<text text-anchor="middle" x="295" y="-119.5" font-family="Helvetica,sans-Serif" font-size="10.00" fill="#000000">../AbstractBoard.hpp</text>
</a>
</g>
</g>
<!-- Node0&#45;&gt;Node3 -->
<g id="edge3" class="edge">
<title>Node0&#45;&gt;Node3</title>
<path fill="none" stroke="#191970" d="M353.4953,-224.4824C336.6099,-216.2204 318.331,-204.2786 307,-188 297.6551,-174.5747 294.9521,-156.0141 294.4159,-141.9943"/>
<polygon fill="#191970" stroke="#191970" points="297.9155,-141.8912 294.3648,-131.909 290.9156,-141.9266 297.9155,-141.8912"/>
</g>
<!-- Node8 -->
<g id="node9" class="node">
<title>Node8</title>
<g id="a_node9"><a xlink:href="_position3_d_8hpp.html" target="_top" xlink:title="../utils/Position3D.hpp">
<polygon fill="none" stroke="#000000" points="689.5,-112.5 689.5,-131.5 812.5,-131.5 812.5,-112.5 689.5,-112.5"/>
<text text-anchor="middle" x="751" y="-119.5" font-family="Helvetica,sans-Serif" font-size="10.00" fill="#000000">../utils/Position3D.hpp</text>
</a>
</g>
</g>
<!-- Node0&#45;&gt;Node8 -->
<g id="edge8" class="edge">
<title>Node0&#45;&gt;Node8</title>
<path fill="none" stroke="#191970" d="M463.816,-233.4954C559.1778,-224.6381 720.6164,-207.0494 740,-188 752.016,-176.1911 753.9477,-156.5794 753.3646,-141.796"/>
<polygon fill="#191970" stroke="#191970" points="756.8387,-141.3311 752.5538,-131.6414 749.8609,-141.8883 756.8387,-141.3311"/>
</g>
<!-- Node11 -->
<g id="node12" class="node">
<title>Node11</title>
<g id="a_node12"><a xlink:href="conversions_8hpp.html" target="_top" xlink:title="../utils/conversions.hpp">
<polygon fill="none" stroke="#000000" points="601.5,-168.5 601.5,-187.5 730.5,-187.5 730.5,-168.5 601.5,-168.5"/>
<text text-anchor="middle" x="666" y="-175.5" font-family="Helvetica,sans-Serif" font-size="10.00" fill="#000000">../utils/conversions.hpp</text>
</a>
</g>
</g>
<!-- Node0&#45;&gt;Node11 -->
<g id="edge11" class="edge">
<title>Node0&#45;&gt;Node11</title>
<path fill="none" stroke="#191970" d="M460.5387,-224.4554C507.8136,-213.7664 570.3954,-199.6165 614.0172,-189.7535"/>
<polygon fill="#191970" stroke="#191970" points="614.8678,-193.1496 623.8497,-187.5303 613.324,-186.3219 614.8678,-193.1496"/>
</g>
<!-- Node13 -->
<g id="node14" class="node">
<title>Node13</title>
<g id="a_node14"><a xlink:href="penguin_2_board_cell_8hpp.html" target="_top" xlink:title="BoardCell.hpp">
<polygon fill="none" stroke="#000000" points="498.5,-168.5 498.5,-187.5 583.5,-187.5 583.5,-168.5 498.5,-168.5"/>
<text text-anchor="middle" x="541" y="-175.5" font-family="Helvetica,sans-Serif" font-size="10.00" fill="#000000">BoardCell.hpp</text>
</a>
</g>
</g>
<!-- Node0&#45;&gt;Node13 -->
<g id="edge16" class="edge">
<title>Node0&#45;&gt;Node13</title>
<path fill="none" stroke="#191970" d="M429.9602,-224.4554C454.0573,-214.374 485.513,-201.2139 508.7903,-191.4755"/>
<polygon fill="#191970" stroke="#191970" points="510.3459,-194.6187 518.2202,-187.5303 507.6442,-188.1611 510.3459,-194.6187"/>
</g>
<!-- Node15 -->
<g id="node16" class="node">
<title>Node15</title>
<g id="a_node16"><a xlink:href="_penguin_pawn_8hpp.html" target="_top" xlink:title="PenguinPawn.hpp">
<polygon fill="none" stroke="#000000" points="815,-168.5 815,-187.5 917,-187.5 917,-168.5 815,-168.5"/>
<text text-anchor="middle" x="866" y="-175.5" font-family="Helvetica,sans-Serif" font-size="10.00" fill="#000000">PenguinPawn.hpp</text>
</a>
</g>
</g>
<!-- Node0&#45;&gt;Node15 -->
<g id="edge19" class="edge">
<title>Node0&#45;&gt;Node15</title>
<path fill="none" stroke="#191970" d="M463.6452,-230.4255C555.8992,-218.4051 717.1574,-197.3937 804.9013,-185.961"/>
<polygon fill="#191970" stroke="#191970" points="805.5051,-189.412 814.9691,-184.6492 804.6006,-182.4706 805.5051,-189.412"/>
</g>
<!-- Node17 -->
<g id="node18" class="node">
<title>Node17</title>
<g id="a_node18"><a xlink:href="_human_player_8hpp.html" target="_top" xlink:title="HumanPlayer.hpp">
<polygon fill="none" stroke="#000000" points="156.5,-168.5 156.5,-187.5 259.5,-187.5 259.5,-168.5 156.5,-168.5"/>
<text text-anchor="middle" x="208" y="-175.5" font-family="Helvetica,sans-Serif" font-size="10.00" fill="#000000">HumanPlayer.hpp</text>
</a>
</g>
</g>
<!-- Node0&#45;&gt;Node17 -->
<g id="edge21" class="edge">
<title>Node0&#45;&gt;Node17</title>
<path fill="none" stroke="#191970" d="M348.4993,-224.4554C317.1925,-214.104 276.0691,-200.5067 246.4111,-190.7004"/>
<polygon fill="#191970" stroke="#191970" points="247.4166,-187.3466 236.8234,-187.5303 245.2191,-193.9927 247.4166,-187.3466"/>
</g>
<!-- Node19 -->
<g id="node20" class="node">
<title>Node19</title>
<g id="a_node20"><a xlink:href="_print_hex_8hpp.html" target="_top" xlink:title="PrintHex.hpp">
<polygon fill="none" stroke="#000000" points="400,-168.5 400,-187.5 480,-187.5 480,-168.5 400,-168.5"/>
<text text-anchor="middle" x="440" y="-175.5" font-family="Helvetica,sans-Serif" font-size="10.00" fill="#000000">PrintHex.hpp</text>
</a>
</g>
</g>
<!-- Node0&#45;&gt;Node19 -->
<g id="edge24" class="edge">
<title>Node0&#45;&gt;Node19</title>
<path fill="none" stroke="#191970" d="M405.3708,-224.2977C411.7561,-215.7609 419.7641,-205.0545 426.4705,-196.0883"/>
<polygon fill="#191970" stroke="#191970" points="429.4479,-197.9511 432.6348,-187.8469 423.8425,-193.7584 429.4479,-197.9511"/>
</g>
<!-- Node20 -->
<g id="node21" class="node">
<title>Node20</title>
<g id="a_node21"><a xlink:href="penguin_2_board_8hpp.html" target="_top" xlink:title="Board.hpp">
<polygon fill="none" stroke="#000000" points="316,-168.5 316,-187.5 382,-187.5 382,-168.5 316,-168.5"/>
<text text-anchor="middle" x="349" y="-175.5" font-family="Helvetica,sans-Serif" font-size="10.00" fill="#000000">Board.hpp</text>
</a>
</g>
</g>
<!-- Node0&#45;&gt;Node20 -->
<g id="edge26" class="edge">
<title>Node0&#45;&gt;Node20</title>
<path fill="none" stroke="#191970" d="M382.8764,-224.2977C376.6299,-215.7609 368.796,-205.0545 362.2353,-196.0883"/>
<polygon fill="#191970" stroke="#191970" points="364.9348,-193.8505 356.2051,-187.8469 359.2856,-197.984 364.9348,-193.8505"/>
</g>
<!-- Node4 -->
<g id="node5" class="node">
<title>Node4</title>
<polygon fill="none" stroke="#bfbfbf" points="185.5,-56.5 185.5,-75.5 232.5,-75.5 232.5,-56.5 185.5,-56.5"/>
<text text-anchor="middle" x="209" y="-63.5" font-family="Helvetica,sans-Serif" font-size="10.00" fill="#000000">vector</text>
</g>
<!-- Node3&#45;&gt;Node4 -->
<g id="edge4" class="edge">
<title>Node3&#45;&gt;Node4</title>
<path fill="none" stroke="#191970" d="M280.0199,-112.2455C266.8249,-103.6534 247.3949,-91.0014 232.1921,-81.1018"/>
<polygon fill="#191970" stroke="#191970" points="234.0983,-78.1665 223.8084,-75.6427 230.2785,-84.0325 234.0983,-78.1665"/>
</g>
<!-- Node5 -->
<g id="node6" class="node">
<title>Node5</title>
<g id="a_node6"><a xlink:href="_history_8hpp.html" target="_top" xlink:title="History.hpp">
<polygon fill="none" stroke="#000000" points="259.5,-56.5 259.5,-75.5 330.5,-75.5 330.5,-56.5 259.5,-56.5"/>
<text text-anchor="middle" x="295" y="-63.5" font-family="Helvetica,sans-Serif" font-size="10.00" fill="#000000">History.hpp</text>
</a>
</g>
</g>
<!-- Node3&#45;&gt;Node5 -->
<g id="edge5" class="edge">
<title>Node3&#45;&gt;Node5</title>
<path fill="none" stroke="#191970" d="M295,-112.2455C295,-104.9382 295,-94.6944 295,-85.7046"/>
<polygon fill="#191970" stroke="#191970" points="298.5001,-85.6426 295,-75.6427 291.5001,-85.6427 298.5001,-85.6426"/>
</g>
<!-- Node6 -->
<g id="node7" class="node">
<title>Node6</title>
<polygon fill="none" stroke="#bfbfbf" points="231.5,-.5 231.5,-19.5 274.5,-19.5 274.5,-.5 231.5,-.5"/>
<text text-anchor="middle" x="253" y="-7.5" font-family="Helvetica,sans-Serif" font-size="10.00" fill="#000000">stack</text>
</g>
<!-- Node5&#45;&gt;Node6 -->
<g id="edge6" class="edge">
<title>Node5&#45;&gt;Node6</title>
<path fill="none" stroke="#191970" d="M287.6842,-56.2455C281.7821,-48.3761 273.3258,-37.101 266.2406,-27.6542"/>
<polygon fill="#191970" stroke="#191970" points="269.0321,-25.5427 260.232,-19.6427 263.432,-29.7427 269.0321,-25.5427"/>
</g>
<!-- Node7 -->
<g id="node8" class="node">
<title>Node7</title>
<g id="a_node8"><a xlink:href="_move_8hpp.html" target="_top" xlink:title="utils/Move.hpp">
<polygon fill="none" stroke="#000000" points="293,-.5 293,-19.5 381,-19.5 381,-.5 293,-.5"/>
<text text-anchor="middle" x="337" y="-7.5" font-family="Helvetica,sans-Serif" font-size="10.00" fill="#000000">utils/Move.hpp</text>
</a>
</g>
</g>
<!-- Node5&#45;&gt;Node7 -->
<g id="edge7" class="edge">
<title>Node5&#45;&gt;Node7</title>
<path fill="none" stroke="#191970" d="M302.3158,-56.2455C308.2179,-48.3761 316.6742,-37.101 323.7594,-27.6542"/>
<polygon fill="#191970" stroke="#191970" points="326.568,-29.7427 329.768,-19.6427 320.9679,-25.5427 326.568,-29.7427"/>
</g>
<!-- Node9 -->
<g id="node10" class="node">
<title>Node9</title>
<polygon fill="none" stroke="#bfbfbf" points="626.5,-56.5 626.5,-75.5 679.5,-75.5 679.5,-56.5 626.5,-56.5"/>
<text text-anchor="middle" x="653" y="-63.5" font-family="Helvetica,sans-Serif" font-size="10.00" fill="#000000">stdlib.h</text>
</g>
<!-- Node8&#45;&gt;Node9 -->
<g id="edge9" class="edge">
<title>Node8&#45;&gt;Node9</title>
<path fill="none" stroke="#191970" d="M733.9297,-112.2455C718.753,-103.5731 696.3379,-90.7645 678.9437,-80.825"/>
<polygon fill="#191970" stroke="#191970" points="680.2936,-77.5653 669.8747,-75.6427 676.8206,-83.643 680.2936,-77.5653"/>
</g>
<!-- Node10 -->
<g id="node11" class="node">
<title>Node10</title>
<polygon fill="none" stroke="#bfbfbf" points="417.5,-56.5 417.5,-75.5 510.5,-75.5 510.5,-56.5 417.5,-56.5"/>
<text text-anchor="middle" x="464" y="-63.5" font-family="Helvetica,sans-Serif" font-size="10.00" fill="#000000">unordered_map</text>
</g>
<!-- Node8&#45;&gt;Node10 -->
<g id="edge10" class="edge">
<title>Node8&#45;&gt;Node10</title>
<path fill="none" stroke="#191970" d="M701.989,-112.4369C651.7536,-102.6349 573.7073,-87.4063 520.8052,-77.0839"/>
<polygon fill="#191970" stroke="#191970" points="521.3894,-73.632 510.9042,-75.152 520.0488,-80.5024 521.3894,-73.632"/>
</g>
<!-- Node11&#45;&gt;Node8 -->
<g id="edge15" class="edge">
<title>Node11&#45;&gt;Node8</title>
<path fill="none" stroke="#191970" d="M680.8059,-168.2455C693.7256,-159.7337 712.6931,-147.2375 727.6552,-137.3801"/>
<polygon fill="#191970" stroke="#191970" points="729.9387,-140.067 736.3638,-131.6427 726.0876,-134.2216 729.9387,-140.067"/>
</g>
<!-- Node12 -->
<g id="node13" class="node">
<title>Node12</title>
<g id="a_node13"><a xlink:href="_position_8hpp.html" target="_top" xlink:title="../utils/Position.hpp">
<polygon fill="none" stroke="#000000" points="409,-112.5 409,-131.5 519,-131.5 519,-112.5 409,-112.5"/>
<text text-anchor="middle" x="464" y="-119.5" font-family="Helvetica,sans-Serif" font-size="10.00" fill="#000000">../utils/Position.hpp</text>
</a>
</g>
</g>
<!-- Node11&#45;&gt;Node12 -->
<g id="edge12" class="edge">
<title>Node11&#45;&gt;Node12</title>
<path fill="none" stroke="#191970" d="M631.275,-168.3733C597.2492,-158.9404 545.2563,-144.5265 508.2766,-134.2747"/>
<polygon fill="#191970" stroke="#191970" points="508.8435,-130.7999 498.2719,-131.5011 506.9734,-137.5455 508.8435,-130.7999"/>
</g>
<!-- Node12&#45;&gt;Node9 -->
<g id="edge13" class="edge">
<title>Node12&#45;&gt;Node9</title>
<path fill="none" stroke="#191970" d="M496.4903,-112.3733C529.9193,-102.4684 581.8836,-87.0715 616.6575,-76.7681"/>
<polygon fill="#191970" stroke="#191970" points="617.8249,-80.0727 626.4185,-73.876 615.8362,-73.3612 617.8249,-80.0727"/>
</g>
<!-- Node12&#45;&gt;Node10 -->
<g id="edge14" class="edge">
<title>Node12&#45;&gt;Node10</title>
<path fill="none" stroke="#191970" d="M464,-112.2455C464,-104.9382 464,-94.6944 464,-85.7046"/>
<polygon fill="#191970" stroke="#191970" points="467.5001,-85.6426 464,-75.6427 460.5001,-85.6427 467.5001,-85.6426"/>
</g>
<!-- Node13&#45;&gt;Node12 -->
<g id="edge18" class="edge">
<title>Node13&#45;&gt;Node12</title>
<path fill="none" stroke="#191970" d="M527.5876,-168.2455C515.9943,-159.814 499.0252,-147.4729 485.5322,-137.6598"/>
<polygon fill="#191970" stroke="#191970" points="487.4047,-134.6938 477.2587,-131.6427 483.2874,-140.355 487.4047,-134.6938"/>
</g>
<!-- Node14 -->
<g id="node15" class="node">
<title>Node14</title>
<g id="a_node15"><a xlink:href="_abstract_board_cell_8hpp.html" target="_top" xlink:title="../AbstractBoardCell.hpp">
<polygon fill="none" stroke="#000000" points="537,-112.5 537,-131.5 671,-131.5 671,-112.5 537,-112.5"/>
<text text-anchor="middle" x="604" y="-119.5" font-family="Helvetica,sans-Serif" font-size="10.00" fill="#000000">../AbstractBoardCell.hpp</text>
</a>
</g>
</g>
<!-- Node13&#45;&gt;Node14 -->
<g id="edge17" class="edge">
<title>Node13&#45;&gt;Node14</title>
<path fill="none" stroke="#191970" d="M551.9738,-168.2455C561.1882,-160.0549 574.5532,-148.1749 585.4297,-138.5069"/>
<polygon fill="#191970" stroke="#191970" points="588.0032,-140.9023 593.152,-131.6427 583.3526,-135.6704 588.0032,-140.9023"/>
</g>
<!-- Node16 -->
<g id="node17" class="node">
<title>Node16</title>
<g id="a_node17"><a xlink:href="_abstract_pawn_8hpp.html" target="_top" xlink:title="../AbstractPawn.hpp">
<polygon fill="none" stroke="#000000" points="830.5,-112.5 830.5,-131.5 943.5,-131.5 943.5,-112.5 830.5,-112.5"/>
<text text-anchor="middle" x="887" y="-119.5" font-family="Helvetica,sans-Serif" font-size="10.00" fill="#000000">../AbstractPawn.hpp</text>
</a>
</g>
</g>
<!-- Node15&#45;&gt;Node16 -->
<g id="edge20" class="edge">
<title>Node15&#45;&gt;Node16</title>
<path fill="none" stroke="#191970" d="M869.6579,-168.2455C872.4584,-160.7776 876.409,-150.2427 879.8324,-141.1137"/>
<polygon fill="#191970" stroke="#191970" points="883.1499,-142.2349 883.384,-131.6427 876.5955,-139.777 883.1499,-142.2349"/>
</g>
<!-- Node17&#45;&gt;Node4 -->
<g id="edge22" class="edge">
<title>Node17&#45;&gt;Node4</title>
<path fill="none" stroke="#191970" d="M203.9325,-168.2098C199.0897,-155.3665 192.0091,-132.0993 195,-112 196.3327,-103.0439 199.0494,-93.419 201.7381,-85.3"/>
<polygon fill="#191970" stroke="#191970" points="205.1067,-86.272 205.1376,-75.6772 198.5064,-83.9402 205.1067,-86.272"/>
</g>
<!-- Node18 -->
<g id="node19" class="node">
<title>Node18</title>
<g id="a_node19"><a xlink:href="_abstract_player_8hpp.html" target="_top" xlink:title="../AbstractPlayer.hpp">
<polygon fill="none" stroke="#000000" points="25.5,-112.5 25.5,-131.5 142.5,-131.5 142.5,-112.5 25.5,-112.5"/>
<text text-anchor="middle" x="84" y="-119.5" font-family="Helvetica,sans-Serif" font-size="10.00" fill="#000000">../AbstractPlayer.hpp</text>
</a>
</g>
</g>
<!-- Node17&#45;&gt;Node18 -->
<g id="edge23" class="edge">
<title>Node17&#45;&gt;Node18</title>
<path fill="none" stroke="#191970" d="M186.6836,-168.3733C166.7784,-159.3838 136.8564,-145.8706 114.44,-135.7471"/>
<polygon fill="#191970" stroke="#191970" points="115.5925,-132.4272 105.0382,-131.5011 112.7113,-138.8068 115.5925,-132.4272"/>
</g>
<!-- Node19&#45;&gt;Node12 -->
<g id="edge25" class="edge">
<title>Node19&#45;&gt;Node12</title>
<path fill="none" stroke="#191970" d="M444.1805,-168.2455C447.381,-160.7776 451.896,-150.2427 455.8084,-141.1137"/>
<polygon fill="#191970" stroke="#191970" points="459.1452,-142.2129 459.8674,-131.6427 452.7112,-139.4554 459.1452,-142.2129"/>
</g>
<!-- Node20&#45;&gt;Node3 -->
<g id="edge30" class="edge">
<title>Node20&#45;&gt;Node3</title>
<path fill="none" stroke="#191970" d="M339.5939,-168.2455C331.8507,-160.2155 320.688,-148.6394 311.4682,-139.0781"/>
<polygon fill="#191970" stroke="#191970" points="313.7591,-136.4117 304.2983,-131.6427 308.7202,-141.2706 313.7591,-136.4117"/>
</g>
<!-- Node20&#45;&gt;Node4 -->
<g id="edge28" class="edge">
<title>Node20&#45;&gt;Node4</title>
<path fill="none" stroke="#191970" d="M315.9574,-173.6825C288.6972,-168.4115 250.9037,-156.888 228,-132 216.532,-119.5384 211.9406,-100.5888 210.1255,-86.1861"/>
<polygon fill="#191970" stroke="#191970" points="213.5746,-85.4647 209.1866,-75.8212 206.6031,-86.0962 213.5746,-85.4647"/>
</g>
<!-- Node20&#45;&gt;Node10 -->
<g id="edge27" class="edge">
<title>Node20&#45;&gt;Node10</title>
<path fill="none" stroke="#191970" d="M355.1553,-168.3397C364.0461,-154.8205 381.4605,-129.9072 400,-112 411.9588,-100.4491 426.9834,-89.5002 439.4695,-81.1841"/>
<polygon fill="#191970" stroke="#191970" points="441.5521,-84.0049 448.0325,-75.623 437.7395,-78.1342 441.5521,-84.0049"/>
</g>
<!-- Node20&#45;&gt;Node12 -->
<g id="edge29" class="edge">
<title>Node20&#45;&gt;Node12</title>
<path fill="none" stroke="#191970" d="M368.7692,-168.3733C387.1469,-159.4241 414.7312,-145.9917 435.4893,-135.8835"/>
<polygon fill="#191970" stroke="#191970" points="437.0304,-139.026 444.4888,-131.5011 433.9657,-132.7325 437.0304,-139.026"/>
</g>
</g>
</svg>
        <g id="navigator" transform="translate(0 0)" fill="#404254">
                <rect fill="#f2f5e9" fill-opacity="0.5" stroke="#606060" stroke-width=".5" x="0" y="0" width="60" height="60"/>
                <use id="zoomplus" xlink:href="#zoomPlus" x="17" y="9" onmousedown="handleZoom(evt,'in')"/>
                <use id="zoomminus" xlink:href="#zoomMin" x="42" y="9" onmousedown="handleZoom(evt,'out')"/>
                <use id="reset" xlink:href="#resetDef" x="30" y="36" onmousedown="handleReset()"/>
                <g id="arrowUp" xlink:href="#dirArrow" transform="translate(30 24)" onmousedown="handlePan(0,-1)">
                  <use xlink:href="#rim" fill="#404040">
                        <set attributeName="fill" to="#808080" begin="arrowUp.mouseover" end="arrowUp.mouseout"/>
                  </use>
                  <path fill="none" stroke="white" stroke-width="1.5" d="M0,-3.0v7 M-2.5,-0.5L0,-3.0L2.5,-0.5"/>
                </g>
                <g id="arrowRight" xlink:href="#dirArrow" transform="rotate(90) translate(36 -43)" onmousedown="handlePan(1,0)">
                  <use xlink:href="#rim" fill="#404040">
                        <set attributeName="fill" to="#808080" begin="arrowRight.mouseover" end="arrowRight.mouseout"/>
                  </use>
                  <path fill="none" stroke="white" stroke-width="1.5" d="M0,-3.0v7 M-2.5,-0.5L0,-3.0L2.5,-0.5"/>
                </g>
                <g id="arrowDown" xlink:href="#dirArrow" transform="rotate(180) translate(-30 -48)" onmousedown="handlePan(0,1)">
                  <use xlink:href="#rim" fill="#404040">
                        <set attributeName="fill" to="#808080" begin="arrowDown.mouseover" end="arrowDown.mouseout"/>
                  </use>
                  <path fill="none" stroke="white" stroke-width="1.5" d="M0,-3.0v7 M-2.5,-0.5L0,-3.0L2.5,-0.5"/>
                </g>
                <g id="arrowLeft" xlink:href="#dirArrow" transform="rotate(270) translate(-36 17)" onmousedown="handlePan(-1,0)">
                  <use xlink:href="#rim" fill="#404040">
                        <set attributeName="fill" to="#808080" begin="arrowLeft.mouseover" end="arrowLeft.mouseout"/>
                  </use>
                  <path fill="none" stroke="white" stroke-width="1.5" d="M0,-3.0v7 M-2.5,-0.5L0,-3.0L2.5,-0.5"/>
                </g>
        </g>
        <svg viewBox="0 0 15 15" width="100%" height="30px" preserveAspectRatio="xMaxYMin meet">
         <g id="arrow_out" transform="scale(0.3 0.3)">
          <a xlink:href="penguin_2_board_8cpp__incl_org.svg" target="_base">
           <rect id="button" ry="5" rx="5" y="6" x="6" height="38" width="38"
                fill="#f2f5e9" fill-opacity="0.5" stroke="#606060" stroke-width="1.0"/>
           <path id="arrow"
             d="M 11.500037,31.436501 C 11.940474,20.09759 22.043105,11.32322 32.158766,21.979434 L 37.068811,17.246167 C 37.068811,17.246167 37.088388,32 37.088388,32 L 22.160133,31.978069 C 22.160133,31.978069 26.997745,27.140456 26.997745,27.140456 C 18.528582,18.264221 13.291696,25.230495 11.500037,31.436501 z"
             style="fill:#404040;"/>
          </a>
         </g>
        </svg>
</svg>
