<?xml version="1.0" encoding="UTF-8" standalone="no"?>
<!DOCTYPE svg PUBLIC "-//W3C//DTD SVG 1.1//EN"
 "http://www.w3.org/Graphics/SVG/1.1/DTD/svg11.dtd">
<!-- Generated by graphviz version 2.40.1 (20161225.0304)
 -->
<!-- Title: /workspace/src/game_logic/tic_tac_toe/Board.hpp Pages: 1 -->
<svg width="671pt" height="207pt"
 viewBox="0.00 0.00 671.00 207.00" xmlns="http://www.w3.org/2000/svg" xmlns:xlink="http://www.w3.org/1999/xlink">
<g id="graph0" class="graph" transform="scale(1 1) rotate(0) translate(4 203)">
<title>/workspace/src/game_logic/tic_tac_toe/Board.hpp</title>
<!-- Node0 -->
<g id="node1" class="node">
<title>Node0</title>
<polygon fill="#bfbfbf" stroke="#000000" points="105.5,-168.5 105.5,-198.5 259.5,-198.5 259.5,-168.5 105.5,-168.5"/>
<text text-anchor="start" x="113.5" y="-186.5" font-family="Helvetica,sans-Serif" font-size="10.00" fill="#000000">/workspace/src/game</text>
<text text-anchor="middle" x="182.5" y="-175.5" font-family="Helvetica,sans-Serif" font-size="10.00" fill="#000000">_logic/tic_tac_toe/Board.hpp</text>
</g>
<!-- Node1 -->
<g id="node2" class="node">
<title>Node1</title>
<polygon fill="none" stroke="#bfbfbf" points="2.5,-112.5 2.5,-131.5 44.5,-131.5 44.5,-112.5 2.5,-112.5"/>
<text text-anchor="middle" x="23.5" y="-119.5" font-family="Helvetica,sans-Serif" font-size="10.00" fill="#000000">array</text>
</g>
<!-- Node0&#45;&gt;Node1 -->
<g id="edge1" class="edge">
<title>Node0&#45;&gt;Node1</title>
<path fill="none" stroke="#191970" d="M143.6042,-168.4554C116.1711,-157.8445 79.9204,-143.823 54.4475,-133.9702"/>
<polygon fill="#191970" stroke="#191970" points="55.5082,-130.6279 44.9189,-130.2847 52.9829,-137.1565 55.5082,-130.6279"/>
</g>
<!-- Node2 -->
<g id="node3" class="node">
<title>Node2</title>
<g id="a_node3"><a xlink:href="_position_8hpp.html" target="_top" xlink:title="../utils/Position.hpp">
<polygon fill="none" stroke="#000000" points="62.5,-112.5 62.5,-131.5 172.5,-131.5 172.5,-112.5 62.5,-112.5"/>
<text text-anchor="middle" x="117.5" y="-119.5" font-family="Helvetica,sans-Serif" font-size="10.00" fill="#000000">../utils/Position.hpp</text>
</a>
</g>
</g>
<!-- Node0&#45;&gt;Node2 -->
<g id="edge2" class="edge">
<title>Node0&#45;&gt;Node2</title>
<path fill="none" stroke="#191970" d="M166.4326,-168.2977C157.034,-159.4052 145.1473,-148.1586 135.443,-138.9769"/>
<polygon fill="#191970" stroke="#191970" points="137.5768,-136.1774 127.9073,-131.8469 132.7658,-141.2621 137.5768,-136.1774"/>
</g>
<!-- Node5 -->
<g id="node6" class="node">
<title>Node5</title>
<g id="a_node6"><a xlink:href="_abstract_board_8hpp.html" target="_top" xlink:title="../AbstractBoard.hpp">
<polygon fill="none" stroke="#000000" points="190.5,-112.5 190.5,-131.5 306.5,-131.5 306.5,-112.5 190.5,-112.5"/>
<text text-anchor="middle" x="248.5" y="-119.5" font-family="Helvetica,sans-Serif" font-size="10.00" fill="#000000">../AbstractBoard.hpp</text>
</a>
</g>
</g>
<!-- Node0&#45;&gt;Node5 -->
<g id="edge5" class="edge">
<title>Node0&#45;&gt;Node5</title>
<path fill="none" stroke="#191970" d="M198.8146,-168.2977C208.4533,-159.3163 220.6691,-147.9334 230.5759,-138.702"/>
<polygon fill="#191970" stroke="#191970" points="233.0025,-141.2249 237.9326,-131.8469 228.2304,-136.1036 233.0025,-141.2249"/>
</g>
<!-- Node10 -->
<g id="node11" class="node">
<title>Node10</title>
<g id="a_node11"><a xlink:href="_player_8hpp.html" target="_top" xlink:title="Player.hpp">
<polygon fill="none" stroke="#000000" points="385.5,-112.5 385.5,-131.5 453.5,-131.5 453.5,-112.5 385.5,-112.5"/>
<text text-anchor="middle" x="419.5" y="-119.5" font-family="Helvetica,sans-Serif" font-size="10.00" fill="#000000">Player.hpp</text>
</a>
</g>
</g>
<!-- Node0&#45;&gt;Node10 -->
<g id="edge10" class="edge">
<title>Node0&#45;&gt;Node10</title>
<path fill="none" stroke="#191970" d="M240.4767,-168.4554C282.1154,-157.6504 337.3824,-143.309 375.4376,-133.4339"/>
<polygon fill="#191970" stroke="#191970" points="376.4051,-136.7989 385.2053,-130.8992 374.6468,-130.0233 376.4051,-136.7989"/>
</g>
<!-- Node3 -->
<g id="node4" class="node">
<title>Node3</title>
<polygon fill="none" stroke="#bfbfbf" points="0,-56.5 0,-75.5 53,-75.5 53,-56.5 0,-56.5"/>
<text text-anchor="middle" x="26.5" y="-63.5" font-family="Helvetica,sans-Serif" font-size="10.00" fill="#000000">stdlib.h</text>
</g>
<!-- Node2&#45;&gt;Node3 -->
<g id="edge3" class="edge">
<title>Node2&#45;&gt;Node3</title>
<path fill="none" stroke="#191970" d="M101.649,-112.2455C87.6868,-103.6534 67.1272,-91.0014 51.0404,-81.1018"/>
<polygon fill="#191970" stroke="#191970" points="52.5203,-77.9029 42.1693,-75.6427 48.8516,-83.8645 52.5203,-77.9029"/>
</g>
<!-- Node4 -->
<g id="node5" class="node">
<title>Node4</title>
<polygon fill="none" stroke="#bfbfbf" points="71,-56.5 71,-75.5 164,-75.5 164,-56.5 71,-56.5"/>
<text text-anchor="middle" x="117.5" y="-63.5" font-family="Helvetica,sans-Serif" font-size="10.00" fill="#000000">unordered_map</text>
</g>
<!-- Node2&#45;&gt;Node4 -->
<g id="edge4" class="edge">
<title>Node2&#45;&gt;Node4</title>
<path fill="none" stroke="#191970" d="M117.5,-112.2455C117.5,-104.9382 117.5,-94.6944 117.5,-85.7046"/>
<polygon fill="#191970" stroke="#191970" points="121.0001,-85.6426 117.5,-75.6427 114.0001,-85.6427 121.0001,-85.6426"/>
</g>
<!-- Node6 -->
<g id="node7" class="node">
<title>Node6</title>
<polygon fill="none" stroke="#bfbfbf" points="182,-56.5 182,-75.5 229,-75.5 229,-56.5 182,-56.5"/>
<text text-anchor="middle" x="205.5" y="-63.5" font-family="Helvetica,sans-Serif" font-size="10.00" fill="#000000">vector</text>
</g>
<!-- Node5&#45;&gt;Node6 -->
<g id="edge6" class="edge">
<title>Node5&#45;&gt;Node6</title>
<path fill="none" stroke="#191970" d="M241.01,-112.2455C234.9674,-104.3761 226.3097,-93.101 219.0559,-83.6542"/>
<polygon fill="#191970" stroke="#191970" points="221.7705,-81.4426 212.9042,-75.6427 216.2185,-85.7058 221.7705,-81.4426"/>
</g>
<!-- Node7 -->
<g id="node8" class="node">
<title>Node7</title>
<g id="a_node8"><a xlink:href="_history_8hpp.html" target="_top" xlink:title="History.hpp">
<polygon fill="none" stroke="#000000" points="247,-56.5 247,-75.5 318,-75.5 318,-56.5 247,-56.5"/>
<text text-anchor="middle" x="282.5" y="-63.5" font-family="Helvetica,sans-Serif" font-size="10.00" fill="#000000">History.hpp</text>
</a>
</g>
</g>
<!-- Node5&#45;&gt;Node7 -->
<g id="edge7" class="edge">
<title>Node5&#45;&gt;Node7</title>
<path fill="none" stroke="#191970" d="M254.4223,-112.2455C259.1027,-104.5367 265.7673,-93.5598 271.4289,-84.2348"/>
<polygon fill="#191970" stroke="#191970" points="274.4475,-86.007 276.6455,-75.6427 268.4639,-82.3741 274.4475,-86.007"/>
</g>
<!-- Node8 -->
<g id="node9" class="node">
<title>Node8</title>
<polygon fill="none" stroke="#bfbfbf" points="219,-.5 219,-19.5 262,-19.5 262,-.5 219,-.5"/>
<text text-anchor="middle" x="240.5" y="-7.5" font-family="Helvetica,sans-Serif" font-size="10.00" fill="#000000">stack</text>
</g>
<!-- Node7&#45;&gt;Node8 -->
<g id="edge8" class="edge">
<title>Node7&#45;&gt;Node8</title>
<path fill="none" stroke="#191970" d="M275.1842,-56.2455C269.2821,-48.3761 260.8258,-37.101 253.7406,-27.6542"/>
<polygon fill="#191970" stroke="#191970" points="256.5321,-25.5427 247.732,-19.6427 250.932,-29.7427 256.5321,-25.5427"/>
</g>
<!-- Node9 -->
<g id="node10" class="node">
<title>Node9</title>
<g id="a_node10"><a xlink:href="_move_8hpp.html" target="_top" xlink:title="utils/Move.hpp">
<polygon fill="none" stroke="#000000" points="280.5,-.5 280.5,-19.5 368.5,-19.5 368.5,-.5 280.5,-.5"/>
<text text-anchor="middle" x="324.5" y="-7.5" font-family="Helvetica,sans-Serif" font-size="10.00" fill="#000000">utils/Move.hpp</text>
</a>
</g>
</g>
<!-- Node7&#45;&gt;Node9 -->
<g id="edge9" class="edge">
<title>Node7&#45;&gt;Node9</title>
<path fill="none" stroke="#191970" d="M289.8158,-56.2455C295.7179,-48.3761 304.1742,-37.101 311.2594,-27.6542"/>
<polygon fill="#191970" stroke="#191970" points="314.068,-29.7427 317.268,-19.6427 308.4679,-25.5427 314.068,-29.7427"/>
</g>
<!-- Node11 -->
<g id="node12" class="node">
<title>Node11</title>
<polygon fill="none" stroke="#bfbfbf" points="336.5,-56.5 336.5,-75.5 396.5,-75.5 396.5,-56.5 336.5,-56.5"/>
<text text-anchor="middle" x="366.5" y="-63.5" font-family="Helvetica,sans-Serif" font-size="10.00" fill="#000000">iostream</text>
</g>
<!-- Node10&#45;&gt;Node11 -->
<g id="edge11" class="edge">
<title>Node10&#45;&gt;Node11</title>
<path fill="none" stroke="#191970" d="M410.2681,-112.2455C402.6683,-104.2155 391.7123,-92.6394 382.6632,-83.0781"/>
<polygon fill="#191970" stroke="#191970" points="385.042,-80.4998 375.6261,-75.6427 379.9579,-85.3115 385.042,-80.4998"/>
</g>
<!-- Node12 -->
<g id="node13" class="node">
<title>Node12</title>
<g id="a_node13"><a xlink:href="_abstract_player_8hpp.html" target="_top" xlink:title="../AbstractPlayer.hpp">
<polygon fill="none" stroke="#000000" points="415,-56.5 415,-75.5 532,-75.5 532,-56.5 415,-56.5"/>
<text text-anchor="middle" x="473.5" y="-63.5" font-family="Helvetica,sans-Serif" font-size="10.00" fill="#000000">../AbstractPlayer.hpp</text>
</a>
</g>
</g>
<!-- Node10&#45;&gt;Node12 -->
<g id="edge12" class="edge">
<title>Node10&#45;&gt;Node12</title>
<path fill="none" stroke="#191970" d="M428.9061,-112.2455C436.6493,-104.2155 447.812,-92.6394 457.0318,-83.0781"/>
<polygon fill="#191970" stroke="#191970" points="459.7798,-85.2706 464.2017,-75.6427 454.7409,-80.4117 459.7798,-85.2706"/>
</g>
<!-- Node13 -->
<g id="node14" class="node">
<title>Node13</title>
<g id="a_node14"><a xlink:href="_abstract_pawn_8hpp.html" target="_top" xlink:title="../AbstractPawn.hpp">
<polygon fill="none" stroke="#000000" points="550,-56.5 550,-75.5 663,-75.5 663,-56.5 550,-56.5"/>
<text text-anchor="middle" x="606.5" y="-63.5" font-family="Helvetica,sans-Serif" font-size="10.00" fill="#000000">../AbstractPawn.hpp</text>
</a>
</g>
</g>
<!-- Node10&#45;&gt;Node13 -->
<g id="edge13" class="edge">
<title>Node10&#45;&gt;Node13</title>
<path fill="none" stroke="#191970" d="M451.6464,-112.3733C483.0109,-102.9807 530.8665,-88.6496 565.0716,-78.4064"/>
<polygon fill="#191970" stroke="#191970" points="566.1975,-81.7229 574.773,-75.5011 564.1893,-75.0171 566.1975,-81.7229"/>
</g>
</g>
</svg>
