<?xml version="1.0" encoding="UTF-8" standalone="no"?>
<!DOCTYPE svg PUBLIC "-//W3C//DTD SVG 1.1//EN"
 "http://www.w3.org/Graphics/SVG/1.1/DTD/svg11.dtd">
<!-- Generated by graphviz version 2.40.1 (20161225.0304)
 -->
<!-- Title: /workspace/src/game_logic/tic_tac_toe/ConsoleGame.hpp Pages: 1 -->
<!--zoomable 285 -->
<svg id="main" version="1.1" xmlns="http://www.w3.org/2000/svg" xmlns:xlink="http://www.w3.org/1999/xlink" xml:space="preserve" onload="init(evt)">
<style type="text/css"><![CDATA[
.edge:hover path { stroke: red; }
.edge:hover polygon { stroke: red; fill: red; }
]]></style>
<script type="text/javascript"><![CDATA[
var edges = document.getElementsByTagName('g');
if (edges && edges.length) {
  for (var i=0;i<edges.length;i++) {
    if (edges[i].id.substr(0,4)=='edge') {
      edges[i].setAttribute('class','edge');
    }
  }
}
]]></script>
        <defs>
                <circle id="rim" cx="0" cy="0" r="7"/>
                <circle id="rim2" cx="0" cy="0" r="3.5"/>
                <g id="zoomPlus">
                        <use xlink:href="#rim" fill="#404040">
                                <set attributeName="fill" to="#808080" begin="zoomplus.mouseover" end="zoomplus.mouseout"/>
                        </use>
                        <path d="M-4,0h8M0,-4v8" fill="none" stroke="white" stroke-width="1.5" pointer-events="none"/>
                </g>
                <g id="zoomMin">
                        <use xlink:href="#rim" fill="#404040">
                                <set attributeName="fill" to="#808080" begin="zoomminus.mouseover" end="zoomminus.mouseout"/>
                        </use>
                        <path d="M-4,0h8" fill="none" stroke="white" stroke-width="1.5" pointer-events="none"/>
                </g>
                <g id="dirArrow">
                        <path fill="none" stroke="white" stroke-width="1.5" d="M0,-3.0v7 M-2.5,-0.5L0,-3.0L2.5,-0.5"/>
                </g>
               <g id="resetDef">
                       <use xlink:href="#rim2" fill="#404040">
                               <set attributeName="fill" to="#808080" begin="reset.mouseover" end="reset.mouseout"/>
                       </use>
               </g>
        </defs>

<script type="text/javascript">
var viewWidth = 842;
var viewHeight = 285;
var sectionId = 'dynsection-0';
</script>
<script xlink:href="svgpan.js"/>
<svg id="graph" class="graph">
<g id="viewport">
<title>/workspace/src/game_logic/tic_tac_toe/ConsoleGame.hpp</title>
<!-- Node0 -->
<g id="node1" class="node">
<title>Node0</title>
<polygon fill="#bfbfbf" stroke="#000000" points="213,-235.5 213,-276.5 356,-276.5 356,-235.5 213,-235.5"/>
<text text-anchor="start" x="221" y="-264.5" font-family="Helvetica,sans-Serif" font-size="10.00" fill="#000000">/workspace/src/game</text>
<text text-anchor="start" x="221" y="-253.5" font-family="Helvetica,sans-Serif" font-size="10.00" fill="#000000">_logic/tic_tac_toe/Console</text>
<text text-anchor="middle" x="284.5" y="-242.5" font-family="Helvetica,sans-Serif" font-size="10.00" fill="#000000">Game.hpp</text>
</g>
<!-- Node1 -->
<g id="node2" class="node">
<title>Node1</title>
<g id="a_node2"><a xlink:href="_abstract_interface_8hpp.html" target="_top" xlink:title="../AbstractInterface.hpp">
<polygon fill="none" stroke="#000000" points="76,-179.5 76,-198.5 207,-198.5 207,-179.5 76,-179.5"/>
<text text-anchor="middle" x="141.5" y="-186.5" font-family="Helvetica,sans-Serif" font-size="10.00" fill="#000000">../AbstractInterface.hpp</text>
</a>
</g>
</g>
<!-- Node0&#45;&gt;Node1 -->
<g id="edge1" class="edge">
<title>Node0&#45;&gt;Node1</title>
<path fill="none" stroke="#191970" d="M240.4285,-235.3511C218.0019,-224.8435 191.3319,-212.3478 171.3375,-202.9798"/>
<polygon fill="#191970" stroke="#191970" points="172.6465,-199.728 162.1062,-198.6546 169.6766,-206.0668 172.6465,-199.728"/>
</g>
<!-- Node2 -->
<g id="node3" class="node">
<title>Node2</title>
<g id="a_node3"><a xlink:href="_tic_tac_toe_8hpp.html" target="_top" xlink:title="TicTacToe.hpp">
<polygon fill="none" stroke="#000000" points="49.5,-123.5 49.5,-142.5 133.5,-142.5 133.5,-123.5 49.5,-123.5"/>
<text text-anchor="middle" x="91.5" y="-130.5" font-family="Helvetica,sans-Serif" font-size="10.00" fill="#000000">TicTacToe.hpp</text>
</a>
</g>
</g>
<!-- Node0&#45;&gt;Node2 -->
<g id="edge2" class="edge">
<title>Node0&#45;&gt;Node2</title>
<path fill="none" stroke="#191970" d="M270.7828,-235.4396C258.391,-218.2633 238.7265,-194.2061 216.5,-179 194.1066,-163.6797 165.9816,-152.7398 142.0833,-145.3833"/>
<polygon fill="#191970" stroke="#191970" points="143.0539,-142.0205 132.472,-142.5445 141.071,-148.7339 143.0539,-142.0205"/>
</g>
<!-- Node6 -->
<g id="node7" class="node">
<title>Node6</title>
<g id="a_node7"><a xlink:href="_player_8hpp.html" target="_top" xlink:title="Player.hpp">
<polygon fill="none" stroke="#000000" points="609.5,-179.5 609.5,-198.5 677.5,-198.5 677.5,-179.5 609.5,-179.5"/>
<text text-anchor="middle" x="643.5" y="-186.5" font-family="Helvetica,sans-Serif" font-size="10.00" fill="#000000">Player.hpp</text>
</a>
</g>
</g>
<!-- Node0&#45;&gt;Node6 -->
<g id="edge7" class="edge">
<title>Node0&#45;&gt;Node6</title>
<path fill="none" stroke="#191970" d="M356.2862,-242.6026C428.8223,-229.0652 538.5976,-208.5779 599.2739,-197.2539"/>
<polygon fill="#191970" stroke="#191970" points="600.1066,-200.659 609.2948,-195.3837 598.8223,-193.7778 600.1066,-200.659"/>
</g>
<!-- Node10 -->
<g id="node11" class="node">
<title>Node10</title>
<g id="a_node11"><a xlink:href="_m_c_t_s_player_8hpp.html" target="_top" xlink:title="../../mcts/MCTSPlayer.hpp">
<polygon fill="none" stroke="#000000" points="263.5,-179.5 263.5,-198.5 403.5,-198.5 403.5,-179.5 263.5,-179.5"/>
<text text-anchor="middle" x="333.5" y="-186.5" font-family="Helvetica,sans-Serif" font-size="10.00" fill="#000000">../../mcts/MCTSPlayer.hpp</text>
</a>
</g>
</g>
<!-- Node0&#45;&gt;Node10 -->
<g id="edge11" class="edge">
<title>Node0&#45;&gt;Node10</title>
<path fill="none" stroke="#191970" d="M299.7353,-235.168C306.3242,-226.1587 313.9615,-215.7159 320.3042,-207.0432"/>
<polygon fill="#191970" stroke="#191970" points="323.269,-208.9183 326.3471,-198.7805 317.6188,-204.7861 323.269,-208.9183"/>
</g>
<!-- Node3 -->
<g id="node4" class="node">
<title>Node3</title>
<g id="a_node4"><a xlink:href="_move_8hpp.html" target="_top" xlink:title="../utils/Move.hpp">
<polygon fill="none" stroke="#000000" points="0,-.5 0,-19.5 97,-19.5 97,-.5 0,-.5"/>
<text text-anchor="middle" x="48.5" y="-7.5" font-family="Helvetica,sans-Serif" font-size="10.00" fill="#000000">../utils/Move.hpp</text>
</a>
</g>
</g>
<!-- Node2&#45;&gt;Node3 -->
<g id="edge3" class="edge">
<title>Node2&#45;&gt;Node3</title>
<path fill="none" stroke="#191970" d="M67.0288,-123.3462C51.7893,-115.9011 33.4388,-103.9799 24.5,-87 14.5218,-68.0457 25.0388,-44.2488 35.1197,-28.1651"/>
<polygon fill="#191970" stroke="#191970" points="38.1524,-29.9281 40.8465,-19.6815 32.3506,-26.0116 38.1524,-29.9281"/>
</g>
<!-- Node4 -->
<g id="node5" class="node">
<title>Node4</title>
<g id="a_node5"><a xlink:href="_abstract_game_8hpp.html" target="_top" xlink:title="../AbstractGame.hpp">
<polygon fill="none" stroke="#000000" points="33.5,-62 33.5,-81 149.5,-81 149.5,-62 33.5,-62"/>
<text text-anchor="middle" x="91.5" y="-69" font-family="Helvetica,sans-Serif" font-size="10.00" fill="#000000">../AbstractGame.hpp</text>
</a>
</g>
</g>
<!-- Node2&#45;&gt;Node4 -->
<g id="edge4" class="edge">
<title>Node2&#45;&gt;Node4</title>
<path fill="none" stroke="#191970" d="M91.5,-123.3906C91.5,-114.8657 91.5,-102.1392 91.5,-91.4235"/>
<polygon fill="#191970" stroke="#191970" points="95.0001,-91.2448 91.5,-81.2449 88.0001,-91.2449 95.0001,-91.2448"/>
</g>
<!-- Node4&#45;&gt;Node3 -->
<g id="edge6" class="edge">
<title>Node4&#45;&gt;Node3</title>
<path fill="none" stroke="#191970" d="M84.7813,-61.8906C78.507,-52.917 68.9777,-39.2879 61.2596,-28.2491"/>
<polygon fill="#191970" stroke="#191970" points="63.9121,-25.9348 55.3135,-19.7449 58.1753,-29.9459 63.9121,-25.9348"/>
</g>
<!-- Node5 -->
<g id="node6" class="node">
<title>Node5</title>
<polygon fill="none" stroke="#bfbfbf" points="115,-.5 115,-19.5 162,-19.5 162,-.5 115,-.5"/>
<text text-anchor="middle" x="138.5" y="-7.5" font-family="Helvetica,sans-Serif" font-size="10.00" fill="#000000">vector</text>
</g>
<!-- Node4&#45;&gt;Node5 -->
<g id="edge5" class="edge">
<title>Node4&#45;&gt;Node5</title>
<path fill="none" stroke="#191970" d="M98.8438,-61.8906C105.7702,-52.8273 116.326,-39.0149 124.806,-27.9188"/>
<polygon fill="#191970" stroke="#191970" points="127.7615,-29.8155 131.0527,-19.7449 122.1997,-25.565 127.7615,-29.8155"/>
</g>
<!-- Node7 -->
<g id="node8" class="node">
<title>Node7</title>
<polygon fill="none" stroke="#bfbfbf" points="642.5,-123.5 642.5,-142.5 702.5,-142.5 702.5,-123.5 642.5,-123.5"/>
<text text-anchor="middle" x="672.5" y="-130.5" font-family="Helvetica,sans-Serif" font-size="10.00" fill="#000000">iostream</text>
</g>
<!-- Node6&#45;&gt;Node7 -->
<g id="edge8" class="edge">
<title>Node6&#45;&gt;Node7</title>
<path fill="none" stroke="#191970" d="M648.5514,-179.2455C652.5019,-171.617 658.1097,-160.7881 662.9058,-151.5267"/>
<polygon fill="#191970" stroke="#191970" points="666.0159,-153.1321 667.5065,-142.6427 659.7999,-149.9131 666.0159,-153.1321"/>
</g>
<!-- Node8 -->
<g id="node9" class="node">
<title>Node8</title>
<g id="a_node9"><a xlink:href="_abstract_player_8hpp.html" target="_top" xlink:title="../AbstractPlayer.hpp">
<polygon fill="none" stroke="#000000" points="581,-62 581,-81 698,-81 698,-62 581,-62"/>
<text text-anchor="middle" x="639.5" y="-69" font-family="Helvetica,sans-Serif" font-size="10.00" fill="#000000">../AbstractPlayer.hpp</text>
</a>
</g>
</g>
<!-- Node6&#45;&gt;Node8 -->
<g id="edge9" class="edge">
<title>Node6&#45;&gt;Node8</title>
<path fill="none" stroke="#191970" d="M640.7379,-179.2293C638.2774,-169.985 634.862,-155.6764 633.5,-143 631.631,-125.6041 633.6189,-105.7743 635.7941,-91.4175"/>
<polygon fill="#191970" stroke="#191970" points="639.3007,-91.6704 637.5087,-81.2282 632.3978,-90.5088 639.3007,-91.6704"/>
</g>
<!-- Node9 -->
<g id="node10" class="node">
<title>Node9</title>
<g id="a_node10"><a xlink:href="_abstract_pawn_8hpp.html" target="_top" xlink:title="../AbstractPawn.hpp">
<polygon fill="none" stroke="#000000" points="721,-123.5 721,-142.5 834,-142.5 834,-123.5 721,-123.5"/>
<text text-anchor="middle" x="777.5" y="-130.5" font-family="Helvetica,sans-Serif" font-size="10.00" fill="#000000">../AbstractPawn.hpp</text>
</a>
</g>
</g>
<!-- Node6&#45;&gt;Node9 -->
<g id="edge10" class="edge">
<title>Node6&#45;&gt;Node9</title>
<path fill="none" stroke="#191970" d="M666.5354,-179.3733C688.2388,-170.3032 720.9618,-156.6279 745.255,-146.4755"/>
<polygon fill="#191970" stroke="#191970" points="746.8881,-149.5865 754.7652,-142.5011 744.1889,-143.1278 746.8881,-149.5865"/>
</g>
<!-- Node10&#45;&gt;Node4 -->
<g id="edge13" class="edge">
<title>Node10&#45;&gt;Node4</title>
<path fill="none" stroke="#191970" d="M313.6961,-179.3845C271.0471,-158.6768 170.3509,-109.785 120.4984,-85.5798"/>
<polygon fill="#191970" stroke="#191970" points="121.7626,-82.3029 111.2381,-81.0836 118.7051,-88.5999 121.7626,-82.3029"/>
</g>
<!-- Node10&#45;&gt;Node8 -->
<g id="edge14" class="edge">
<title>Node10&#45;&gt;Node8</title>
<path fill="none" stroke="#191970" d="M358.2821,-179.484C412.7097,-158.5845 542.7878,-108.6362 605.0912,-84.7125"/>
<polygon fill="#191970" stroke="#191970" points="606.4059,-87.9569 614.4866,-81.1048 603.8965,-81.4221 606.4059,-87.9569"/>
</g>
<!-- Node11 -->
<g id="node12" class="node">
<title>Node11</title>
<g id="a_node12"><a xlink:href="_abstract_board_cell_8hpp.html" target="_top" xlink:title="../game_logic/AbstractBoard\lCell.hpp">
<polygon fill="none" stroke="#000000" points="167.5,-56.5 167.5,-86.5 321.5,-86.5 321.5,-56.5 167.5,-56.5"/>
<text text-anchor="start" x="175.5" y="-74.5" font-family="Helvetica,sans-Serif" font-size="10.00" fill="#000000">../game_logic/AbstractBoard</text>
<text text-anchor="middle" x="244.5" y="-63.5" font-family="Helvetica,sans-Serif" font-size="10.00" fill="#000000">Cell.hpp</text>
</a>
</g>
</g>
<!-- Node10&#45;&gt;Node11 -->
<g id="edge12" class="edge">
<title>Node10&#45;&gt;Node11</title>
<path fill="none" stroke="#191970" d="M326.2168,-179.3845C312.3416,-161.0661 281.7607,-120.6925 262.1965,-94.8633"/>
<polygon fill="#191970" stroke="#191970" points="264.852,-92.5725 256.024,-86.7143 259.272,-96.799 264.852,-92.5725"/>
</g>
<!-- Node12 -->
<g id="node13" class="node">
<title>Node12</title>
<g id="a_node13"><a xlink:href="_tree_8hpp.html" target="_top" xlink:title="Tree.hpp">
<polygon fill="none" stroke="#000000" points="344.5,-123.5 344.5,-142.5 402.5,-142.5 402.5,-123.5 344.5,-123.5"/>
<text text-anchor="middle" x="373.5" y="-130.5" font-family="Helvetica,sans-Serif" font-size="10.00" fill="#000000">Tree.hpp</text>
</a>
</g>
</g>
<!-- Node10&#45;&gt;Node12 -->
<g id="edge15" class="edge">
<title>Node10&#45;&gt;Node12</title>
<path fill="none" stroke="#191970" d="M340.4675,-179.2455C346.0311,-171.4564 353.978,-160.3308 360.6829,-150.9439"/>
<polygon fill="#191970" stroke="#191970" points="363.648,-152.8144 366.6124,-142.6427 357.9519,-148.7457 363.648,-152.8144"/>
</g>
<!-- Node12&#45;&gt;Node3 -->
<g id="edge22" class="edge">
<title>Node12&#45;&gt;Node3</title>
<path fill="none" stroke="#191970" d="M371.0794,-123.3449C366.3524,-106.6479 354.218,-72.5796 330.5,-56 250.0909,.2085 208.0495,-34.4216 106.9708,-20.1032"/>
<polygon fill="#191970" stroke="#191970" points="107.4192,-16.631 97.0014,-18.56 106.3483,-23.5486 107.4192,-16.631"/>
</g>
<!-- Node12&#45;&gt;Node4 -->
<g id="edge20" class="edge">
<title>Node12&#45;&gt;Node4</title>
<path fill="none" stroke="#191970" d="M344.2551,-126.9033C302.8581,-118.2367 224.8209,-101.7652 158.5,-87 153.1829,-85.8162 147.633,-84.5621 142.102,-83.3003"/>
<polygon fill="#191970" stroke="#191970" points="142.7506,-79.8582 132.2212,-81.0342 141.1858,-86.6811 142.7506,-79.8582"/>
</g>
<!-- Node12&#45;&gt;Node8 -->
<g id="edge19" class="edge">
<title>Node12&#45;&gt;Node8</title>
<path fill="none" stroke="#191970" d="M402.7276,-126.2425C447.3229,-115.9319 532.9753,-96.1288 588.1156,-83.3802"/>
<polygon fill="#191970" stroke="#191970" points="589.0851,-86.7485 598.0396,-81.0858 587.5082,-79.9284 589.0851,-86.7485"/>
</g>
<!-- Node12&#45;&gt;Node11 -->
<g id="edge21" class="edge">
<title>Node12&#45;&gt;Node11</title>
<path fill="none" stroke="#191970" d="M353.3438,-123.3906C335.1577,-114.7205 307.8559,-101.7046 285.1463,-90.8779"/>
<polygon fill="#191970" stroke="#191970" points="286.5898,-87.6887 276.057,-86.5446 283.5774,-94.0074 286.5898,-87.6887"/>
</g>
<!-- Node13 -->
<g id="node14" class="node">
<title>Node13</title>
<polygon fill="none" stroke="#bfbfbf" points="512.5,-62 512.5,-81 562.5,-81 562.5,-62 512.5,-62"/>
<text text-anchor="middle" x="537.5" y="-69" font-family="Helvetica,sans-Serif" font-size="10.00" fill="#000000">chrono</text>
</g>
<!-- Node12&#45;&gt;Node13 -->
<g id="edge16" class="edge">
<title>Node12&#45;&gt;Node13</title>
<path fill="none" stroke="#191970" d="M402.6869,-123.4882C429.2149,-114.6507 469.3152,-100.8093 503.5,-87 504.891,-86.4381 506.3081,-85.8512 507.7352,-85.2485"/>
<polygon fill="#191970" stroke="#191970" points="509.3719,-88.3528 517.1296,-81.1369 506.5652,-81.9401 509.3719,-88.3528"/>
</g>
<!-- Node14 -->
<g id="node15" class="node">
<title>Node14</title>
<polygon fill="none" stroke="#bfbfbf" points="378,-62 378,-81 429,-81 429,-62 378,-62"/>
<text text-anchor="middle" x="403.5" y="-69" font-family="Helvetica,sans-Serif" font-size="10.00" fill="#000000">math.h</text>
</g>
<!-- Node12&#45;&gt;Node14 -->
<g id="edge17" class="edge">
<title>Node12&#45;&gt;Node14</title>
<path fill="none" stroke="#191970" d="M378.1875,-123.3906C382.4773,-114.5965 388.9482,-101.3312 394.2734,-90.4145"/>
<polygon fill="#191970" stroke="#191970" points="397.5078,-91.7671 398.7464,-81.2449 391.2164,-88.6981 397.5078,-91.7671"/>
</g>
<!-- Node15 -->
<g id="node16" class="node">
<title>Node15</title>
<polygon fill="none" stroke="#bfbfbf" points="447,-62 447,-81 494,-81 494,-62 447,-62"/>
<text text-anchor="middle" x="470.5" y="-69" font-family="Helvetica,sans-Serif" font-size="10.00" fill="#000000">queue</text>
</g>
<!-- Node12&#45;&gt;Node15 -->
<g id="edge18" class="edge">
<title>Node12&#45;&gt;Node15</title>
<path fill="none" stroke="#191970" d="M388.6563,-123.3906C404.1743,-113.5519 428.5193,-98.1167 446.6284,-86.6351"/>
<polygon fill="#191970" stroke="#191970" points="448.8787,-89.3526 455.4502,-81.0419 445.1304,-83.4407 448.8787,-89.3526"/>
</g>
</g>
</svg>
        <g id="navigator" transform="translate(0 0)" fill="#404254">
                <rect fill="#f2f5e9" fill-opacity="0.5" stroke="#606060" stroke-width=".5" x="0" y="0" width="60" height="60"/>
                <use id="zoomplus" xlink:href="#zoomPlus" x="17" y="9" onmousedown="handleZoom(evt,'in')"/>
                <use id="zoomminus" xlink:href="#zoomMin" x="42" y="9" onmousedown="handleZoom(evt,'out')"/>
                <use id="reset" xlink:href="#resetDef" x="30" y="36" onmousedown="handleReset()"/>
                <g id="arrowUp" xlink:href="#dirArrow" transform="translate(30 24)" onmousedown="handlePan(0,-1)">
                  <use xlink:href="#rim" fill="#404040">
                        <set attributeName="fill" to="#808080" begin="arrowUp.mouseover" end="arrowUp.mouseout"/>
                  </use>
                  <path fill="none" stroke="white" stroke-width="1.5" d="M0,-3.0v7 M-2.5,-0.5L0,-3.0L2.5,-0.5"/>
                </g>
                <g id="arrowRight" xlink:href="#dirArrow" transform="rotate(90) translate(36 -43)" onmousedown="handlePan(1,0)">
                  <use xlink:href="#rim" fill="#404040">
                        <set attributeName="fill" to="#808080" begin="arrowRight.mouseover" end="arrowRight.mouseout"/>
                  </use>
                  <path fill="none" stroke="white" stroke-width="1.5" d="M0,-3.0v7 M-2.5,-0.5L0,-3.0L2.5,-0.5"/>
                </g>
                <g id="arrowDown" xlink:href="#dirArrow" transform="rotate(180) translate(-30 -48)" onmousedown="handlePan(0,1)">
                  <use xlink:href="#rim" fill="#404040">
                        <set attributeName="fill" to="#808080" begin="arrowDown.mouseover" end="arrowDown.mouseout"/>
                  </use>
                  <path fill="none" stroke="white" stroke-width="1.5" d="M0,-3.0v7 M-2.5,-0.5L0,-3.0L2.5,-0.5"/>
                </g>
                <g id="arrowLeft" xlink:href="#dirArrow" transform="rotate(270) translate(-36 17)" onmousedown="handlePan(-1,0)">
                  <use xlink:href="#rim" fill="#404040">
                        <set attributeName="fill" to="#808080" begin="arrowLeft.mouseover" end="arrowLeft.mouseout"/>
                  </use>
                  <path fill="none" stroke="white" stroke-width="1.5" d="M0,-3.0v7 M-2.5,-0.5L0,-3.0L2.5,-0.5"/>
                </g>
        </g>
        <svg viewBox="0 0 15 15" width="100%" height="30px" preserveAspectRatio="xMaxYMin meet">
         <g id="arrow_out" transform="scale(0.3 0.3)">
          <a xlink:href="tic__tac__toe_2_console_game_8hpp__incl_org.svg" target="_base">
           <rect id="button" ry="5" rx="5" y="6" x="6" height="38" width="38"
                fill="#f2f5e9" fill-opacity="0.5" stroke="#606060" stroke-width="1.0"/>
           <path id="arrow"
             d="M 11.500037,31.436501 C 11.940474,20.09759 22.043105,11.32322 32.158766,21.979434 L 37.068811,17.246167 C 37.068811,17.246167 37.088388,32 37.088388,32 L 22.160133,31.978069 C 22.160133,31.978069 26.997745,27.140456 26.997745,27.140456 C 18.528582,18.264221 13.291696,25.230495 11.500037,31.436501 z"
             style="fill:#404040;"/>
          </a>
         </g>
        </svg>
</svg>
