<?xml version="1.0" encoding="UTF-8" standalone="no"?>
<!DOCTYPE svg PUBLIC "-//W3C//DTD SVG 1.1//EN"
 "http://www.w3.org/Graphics/SVG/1.1/DTD/svg11.dtd">
<!-- Generated by graphviz version 2.40.1 (20161225.0304)
 -->
<!-- Title: dependencies Pages: 1 -->
<svg width="669pt" height="211pt"
 viewBox="0.00 0.00 669.00 211.00" xmlns="http://www.w3.org/2000/svg" xmlns:xlink="http://www.w3.org/1999/xlink">
<g id="graph0" class="graph" transform="scale(1 1) rotate(0) translate(4 207)">
<title>dependencies</title>
<polygon fill="#ffffff" stroke="transparent" points="-4,4 -4,-207 665,-207 665,4 -4,4"/>
<text text-anchor="start" x="309.5091" y="-42.4" font-family="sans-serif" font-weight="bold" font-size="14.00" fill="#000000">Legend</text>
<polygon fill="#ffffb3" stroke="transparent" points="96.5,-10 96.5,-30 116.5,-30 116.5,-10 96.5,-10"/>
<text text-anchor="start" x="120.129" y="-15.4" font-family="sans-serif" font-size="14.00" fill="#000000"> &#160;Declarations</text>
<polygon fill="#8dd3c7" stroke="transparent" points="209.5,-10 209.5,-30 229.5,-30 229.5,-10 209.5,-10"/>
<text text-anchor="start" x="233.2251" y="-15.4" font-family="sans-serif" font-size="14.00" fill="#000000"> &#160;Module</text>
<polygon fill="#80b1d3" stroke="transparent" points="295.5,-10 295.5,-30 315.5,-30 315.5,-10 295.5,-10"/>
<text text-anchor="start" x="319.2812" y="-15.4" font-family="sans-serif" font-size="14.00" fill="#000000"> &#160;Bootstrap</text>
<polygon fill="#fdb462" stroke="transparent" points="392.5,-10 392.5,-30 412.5,-30 412.5,-10 392.5,-10"/>
<text text-anchor="start" x="416.1732" y="-15.4" font-family="sans-serif" font-size="14.00" fill="#000000"> &#160;Providers</text>
<polygon fill="#fb8072" stroke="transparent" points="488.5,-10 488.5,-30 508.5,-30 508.5,-10 488.5,-10"/>
<text text-anchor="start" x="512.2258" y="-15.4" font-family="sans-serif" font-size="14.00" fill="#000000"> &#160;Exports</text>
<g id="clust1" class="cluster">
<title>cluster_TeamPageModule</title>
<polygon fill="none" stroke="#000000" stroke-dasharray="1,5" points="8,-70 8,-195 653,-195 653,-70 8,-70"/>
</g>
<g id="clust2" class="cluster">
<title>cluster_TeamPageModule_declarations</title>
<polygon fill="none" stroke="#000000" points="553,-78 553,-130 645,-130 645,-78 553,-78"/>
</g>
<g id="clust4" class="cluster">
<title>cluster_TeamPageModule_imports</title>
<polygon fill="none" stroke="#000000" points="16,-78 16,-130 545,-130 545,-78 16,-78"/>
</g>
<!-- TeamPage -->
<g id="node1" class="node">
<title>TeamPage</title>
<polygon fill="#ffffb3" stroke="#000000" points="636.5842,-122 561.4158,-122 561.4158,-86 636.5842,-86 636.5842,-122"/>
<text text-anchor="middle" x="599" y="-99.8" font-family="Times,serif" font-size="14.00" fill="#000000">TeamPage</text>
</g>
<!-- TeamPageModule -->
<g id="node2" class="node">
<title>TeamPageModule</title>
<polygon fill="#8dd3c7" stroke="#000000" points="419.1346,-187 416.1346,-191 395.1346,-191 392.1346,-187 300.8654,-187 300.8654,-151 419.1346,-151 419.1346,-187"/>
<text text-anchor="middle" x="360" y="-164.8" font-family="Times,serif" font-size="14.00" fill="#000000">TeamPageModule</text>
</g>
<!-- TeamPage&#45;&gt;TeamPageModule -->
<g id="edge1" class="edge">
<title>TeamPage&#45;&gt;TeamPageModule</title>
<path fill="none" stroke="#000000" d="M599,-122.1061C599,-141.3391 599,-169 599,-169 599,-169 429.3857,-169 429.3857,-169"/>
<polygon fill="#000000" stroke="#000000" points="429.3858,-165.5001 419.3857,-169 429.3857,-172.5001 429.3858,-165.5001"/>
</g>
<!-- CommonModule -->
<g id="node3" class="node">
<title>CommonModule</title>
<polygon fill="#8dd3c7" stroke="#000000" points="536.6681,-122 533.6681,-126 512.6681,-126 509.6681,-122 425.3319,-122 425.3319,-86 536.6681,-86 536.6681,-122"/>
<text text-anchor="middle" x="481" y="-99.8" font-family="Times,serif" font-size="14.00" fill="#000000">CommonModule</text>
</g>
<!-- CommonModule&#45;&gt;TeamPageModule -->
<g id="edge2" class="edge">
<title>CommonModule&#45;&gt;TeamPageModule</title>
<path fill="none" stroke="#000000" d="M425.2498,-104C418.2538,-104 413.4906,-104 413.4906,-104 413.4906,-104 413.4906,-140.8939 413.4906,-140.8939"/>
<polygon fill="#000000" stroke="#000000" points="409.9906,-140.8938 413.4906,-150.8939 416.9906,-140.8939 409.9906,-140.8938"/>
</g>
<!-- FormsModule -->
<g id="node4" class="node">
<title>FormsModule</title>
<polygon fill="#8dd3c7" stroke="#000000" points="407.8288,-122 404.8288,-126 383.8288,-126 380.8288,-122 312.1712,-122 312.1712,-86 407.8288,-86 407.8288,-122"/>
<text text-anchor="middle" x="360" y="-99.8" font-family="Times,serif" font-size="14.00" fill="#000000">FormsModule</text>
</g>
<!-- FormsModule&#45;&gt;TeamPageModule -->
<g id="edge3" class="edge">
<title>FormsModule&#45;&gt;TeamPageModule</title>
<path fill="none" stroke="#000000" d="M360,-122.1061C360,-122.1061 360,-140.991 360,-140.991"/>
<polygon fill="#000000" stroke="#000000" points="356.5001,-140.9909 360,-150.991 363.5001,-140.991 356.5001,-140.9909"/>
</g>
<!-- IonicModule -->
<g id="node5" class="node">
<title>IonicModule</title>
<polygon fill="#8dd3c7" stroke="#000000" points="294.3162,-122 291.3162,-126 270.3162,-126 267.3162,-122 205.6838,-122 205.6838,-86 294.3162,-86 294.3162,-122"/>
<text text-anchor="middle" x="250" y="-99.8" font-family="Times,serif" font-size="14.00" fill="#000000">IonicModule</text>
</g>
<!-- IonicModule&#45;&gt;TeamPageModule -->
<g id="edge4" class="edge">
<title>IonicModule&#45;&gt;TeamPageModule</title>
<path fill="none" stroke="#000000" d="M294.2477,-104C301.3971,-104 306.5095,-104 306.5095,-104 306.5095,-104 306.5095,-140.8939 306.5095,-140.8939"/>
<polygon fill="#000000" stroke="#000000" points="303.0095,-140.8938 306.5095,-150.8939 310.0095,-140.8939 303.0095,-140.8938"/>
</g>
<!-- TeamPageRoutingModule -->
<g id="node6" class="node">
<title>TeamPageRoutingModule</title>
<polygon fill="#8dd3c7" stroke="#000000" points="187.752,-122 184.752,-126 163.752,-126 160.752,-122 24.248,-122 24.248,-86 187.752,-86 187.752,-122"/>
<text text-anchor="middle" x="106" y="-99.8" font-family="Times,serif" font-size="14.00" fill="#000000">TeamPageRoutingModule</text>
</g>
<!-- TeamPageRoutingModule&#45;&gt;TeamPageModule -->
<g id="edge5" class="edge">
<title>TeamPageRoutingModule&#45;&gt;TeamPageModule</title>
<path fill="none" stroke="#000000" d="M106,-122.1061C106,-141.3391 106,-169 106,-169 106,-169 290.7688,-169 290.7688,-169"/>
<polygon fill="#000000" stroke="#000000" points="290.7689,-172.5001 300.7688,-169 290.7688,-165.5001 290.7689,-172.5001"/>
</g>
</g>
</svg>
