<?xml version="1.0" encoding="UTF-8" standalone="no"?>
<!DOCTYPE svg PUBLIC "-//W3C//DTD SVG 1.1//EN"
 "http://www.w3.org/Graphics/SVG/1.1/DTD/svg11.dtd">
<!-- Generated by graphviz version 2.40.1 (20161225.0304)
 -->
<!-- Title: dependencies Pages: 1 -->
<svg width="827pt" height="211pt"
 viewBox="0.00 0.00 827.00 211.00" xmlns="http://www.w3.org/2000/svg" xmlns:xlink="http://www.w3.org/1999/xlink">
<g id="graph0" class="graph" transform="scale(1 1) rotate(0) translate(4 207)">
<title>dependencies</title>
<polygon fill="#ffffff" stroke="transparent" points="-4,4 -4,-207 823,-207 823,4 -4,4"/>
<text text-anchor="start" x="388.5091" y="-42.4" font-family="sans-serif" font-weight="bold" font-size="14.00" fill="#000000">Legend</text>
<polygon fill="#ffffb3" stroke="transparent" points="175.5,-10 175.5,-30 195.5,-30 195.5,-10 175.5,-10"/>
<text text-anchor="start" x="199.129" y="-15.4" font-family="sans-serif" font-size="14.00" fill="#000000"> &#160;Declarations</text>
<polygon fill="#8dd3c7" stroke="transparent" points="288.5,-10 288.5,-30 308.5,-30 308.5,-10 288.5,-10"/>
<text text-anchor="start" x="312.2251" y="-15.4" font-family="sans-serif" font-size="14.00" fill="#000000"> &#160;Module</text>
<polygon fill="#80b1d3" stroke="transparent" points="374.5,-10 374.5,-30 394.5,-30 394.5,-10 374.5,-10"/>
<text text-anchor="start" x="398.2812" y="-15.4" font-family="sans-serif" font-size="14.00" fill="#000000"> &#160;Bootstrap</text>
<polygon fill="#fdb462" stroke="transparent" points="471.5,-10 471.5,-30 491.5,-30 491.5,-10 471.5,-10"/>
<text text-anchor="start" x="495.1732" y="-15.4" font-family="sans-serif" font-size="14.00" fill="#000000"> &#160;Providers</text>
<polygon fill="#fb8072" stroke="transparent" points="567.5,-10 567.5,-30 587.5,-30 587.5,-10 567.5,-10"/>
<text text-anchor="start" x="591.2258" y="-15.4" font-family="sans-serif" font-size="14.00" fill="#000000"> &#160;Exports</text>
<g id="clust1" class="cluster">
<title>cluster_TeamPageModule</title>
<polygon fill="none" stroke="#000000" stroke-dasharray="1,5" points="8,-70 8,-195 811,-195 811,-70 8,-70"/>
</g>
<g id="clust2" class="cluster">
<title>cluster_TeamPageModule_declarations</title>
<polygon fill="none" stroke="#000000" points="553,-78 553,-130 803,-130 803,-78 553,-78"/>
</g>
<g id="clust5" class="cluster">
<title>cluster_TeamPageModule_imports</title>
<polygon fill="none" stroke="#000000" points="16,-78 16,-130 545,-130 545,-78 16,-78"/>
</g>
<!-- TeamPage -->
<g id="node1" class="node">
<title>TeamPage</title>
<polygon fill="#ffffb3" stroke="#000000" points="794.5842,-122 719.4158,-122 719.4158,-86 794.5842,-86 794.5842,-122"/>
<text text-anchor="middle" x="757" y="-99.8" font-family="Times,serif" font-size="14.00" fill="#000000">TeamPage</text>
</g>
<!-- TeamPageModule -->
<g id="node3" class="node">
<title>TeamPageModule</title>
<polygon fill="#8dd3c7" stroke="#000000" points="479.1346,-187 476.1346,-191 455.1346,-191 452.1346,-187 360.8654,-187 360.8654,-151 479.1346,-151 479.1346,-187"/>
<text text-anchor="middle" x="420" y="-164.8" font-family="Times,serif" font-size="14.00" fill="#000000">TeamPageModule</text>
</g>
<!-- TeamPage&#45;&gt;TeamPageModule -->
<g id="edge1" class="edge">
<title>TeamPage&#45;&gt;TeamPageModule</title>
<path fill="none" stroke="#000000" d="M757,-122.2843C757,-143.3211 757,-175 757,-175 757,-175 489.4731,-175 489.4731,-175"/>
<polygon fill="#000000" stroke="#000000" points="489.4731,-171.5001 479.4731,-175 489.4731,-178.5001 489.4731,-171.5001"/>
</g>
<!-- TeamCardComponent -->
<g id="node2" class="node">
<title>TeamCardComponent</title>
<polygon fill="#ffffb3" stroke="#000000" points="701.4172,-122 560.5828,-122 560.5828,-86 701.4172,-86 701.4172,-122"/>
<text text-anchor="middle" x="631" y="-99.8" font-family="Times,serif" font-size="14.00" fill="#000000">TeamCardComponent</text>
</g>
<!-- TeamCardComponent&#45;&gt;TeamPageModule -->
<g id="edge2" class="edge">
<title>TeamCardComponent&#45;&gt;TeamPageModule</title>
<path fill="none" stroke="#000000" d="M631,-122.0225C631,-139.3734 631,-163 631,-163 631,-163 489.3368,-163 489.3368,-163"/>
<polygon fill="#000000" stroke="#000000" points="489.3368,-159.5001 479.3368,-163 489.3367,-166.5001 489.3368,-159.5001"/>
</g>
<!-- CommonModule -->
<g id="node4" class="node">
<title>CommonModule</title>
<polygon fill="#8dd3c7" stroke="#000000" points="536.6681,-122 533.6681,-126 512.6681,-126 509.6681,-122 425.3319,-122 425.3319,-86 536.6681,-86 536.6681,-122"/>
<text text-anchor="middle" x="481" y="-99.8" font-family="Times,serif" font-size="14.00" fill="#000000">CommonModule</text>
</g>
<!-- CommonModule&#45;&gt;TeamPageModule -->
<g id="edge3" class="edge">
<title>CommonModule&#45;&gt;TeamPageModule</title>
<path fill="none" stroke="#000000" d="M452.2416,-122.1061C452.2416,-122.1061 452.2416,-140.991 452.2416,-140.991"/>
<polygon fill="#000000" stroke="#000000" points="448.7417,-140.9909 452.2416,-150.991 455.7417,-140.991 448.7417,-140.9909"/>
</g>
<!-- FormsModule -->
<g id="node5" class="node">
<title>FormsModule</title>
<polygon fill="#8dd3c7" stroke="#000000" points="407.8288,-122 404.8288,-126 383.8288,-126 380.8288,-122 312.1712,-122 312.1712,-86 407.8288,-86 407.8288,-122"/>
<text text-anchor="middle" x="360" y="-99.8" font-family="Times,serif" font-size="14.00" fill="#000000">FormsModule</text>
</g>
<!-- FormsModule&#45;&gt;TeamPageModule -->
<g id="edge4" class="edge">
<title>FormsModule&#45;&gt;TeamPageModule</title>
<path fill="none" stroke="#000000" d="M384.1736,-122.1061C384.1736,-122.1061 384.1736,-140.991 384.1736,-140.991"/>
<polygon fill="#000000" stroke="#000000" points="380.6736,-140.9909 384.1736,-150.991 387.6736,-140.991 380.6736,-140.9909"/>
</g>
<!-- IonicModule -->
<g id="node6" class="node">
<title>IonicModule</title>
<polygon fill="#8dd3c7" stroke="#000000" points="294.3162,-122 291.3162,-126 270.3162,-126 267.3162,-122 205.6838,-122 205.6838,-86 294.3162,-86 294.3162,-122"/>
<text text-anchor="middle" x="250" y="-99.8" font-family="Times,serif" font-size="14.00" fill="#000000">IonicModule</text>
</g>
<!-- IonicModule&#45;&gt;TeamPageModule -->
<g id="edge5" class="edge">
<title>IonicModule&#45;&gt;TeamPageModule</title>
<path fill="none" stroke="#000000" d="M250,-122.0225C250,-139.3734 250,-163 250,-163 250,-163 350.5422,-163 350.5422,-163"/>
<polygon fill="#000000" stroke="#000000" points="350.5423,-166.5001 360.5422,-163 350.5422,-159.5001 350.5423,-166.5001"/>
</g>
<!-- TeamPageRoutingModule -->
<g id="node7" class="node">
<title>TeamPageRoutingModule</title>
<polygon fill="#8dd3c7" stroke="#000000" points="187.752,-122 184.752,-126 163.752,-126 160.752,-122 24.248,-122 24.248,-86 187.752,-86 187.752,-122"/>
<text text-anchor="middle" x="106" y="-99.8" font-family="Times,serif" font-size="14.00" fill="#000000">TeamPageRoutingModule</text>
</g>
<!-- TeamPageRoutingModule&#45;&gt;TeamPageModule -->
<g id="edge6" class="edge">
<title>TeamPageRoutingModule&#45;&gt;TeamPageModule</title>
<path fill="none" stroke="#000000" d="M106,-122.2843C106,-143.3211 106,-175 106,-175 106,-175 350.5699,-175 350.5699,-175"/>
<polygon fill="#000000" stroke="#000000" points="350.5699,-178.5001 360.5699,-175 350.5698,-171.5001 350.5699,-178.5001"/>
</g>
</g>
</svg>
